<?xml version="1.0" encoding="utf-8" standalone="no"?>
<!DOCTYPE svg PUBLIC "-//W3C//DTD SVG 1.1//EN"
  "http://www.w3.org/Graphics/SVG/1.1/DTD/svg11.dtd">
<svg xmlns:xlink="http://www.w3.org/1999/xlink" width="398.033421pt" height="302.199372pt" viewBox="0 0 398.033421 302.199372" xmlns="http://www.w3.org/2000/svg" version="1.1">
 <metadata>
  <rdf:RDF xmlns:dc="http://purl.org/dc/elements/1.1/" xmlns:cc="http://creativecommons.org/ns#" xmlns:rdf="http://www.w3.org/1999/02/22-rdf-syntax-ns#">
   <cc:Work>
    <dc:type rdf:resource="http://purl.org/dc/dcmitype/StillImage"/>
    <dc:date>2024-03-17T00:27:53.522244</dc:date>
    <dc:format>image/svg+xml</dc:format>
    <dc:creator>
     <cc:Agent>
      <dc:title>Matplotlib v3.8.3, https://matplotlib.org/</dc:title>
     </cc:Agent>
    </dc:creator>
   </cc:Work>
  </rdf:RDF>
 </metadata>
 <defs>
  <style type="text/css">*{stroke-linejoin: round; stroke-linecap: butt}</style>
 </defs>
 <g id="figure_1">
  <g id="patch_1">
   <path d="M 0 302.199372 
L 398.033421 302.199372 
L 398.033421 0 
L 0 0 
z
" style="fill: #ffffff"/>
  </g>
  <g id="axes_1">
   <g id="patch_2">
    <path d="M 37.313421 269.712 
L 394.433421 269.712 
L 394.433421 3.6 
L 37.313421 3.6 
z
" style="fill: #ffffff"/>
   </g>
   <g id="matplotlib.axis_1">
    <g id="xtick_1">
     <g id="line2d_1">
      <defs>
       <path id="m5ad2e99494" d="M 0 0 
L 0 -3 
" style="stroke: #000000; stroke-width: 0.5"/>
      </defs>
      <g>
       <use xlink:href="#m5ad2e99494" x="53.546149" y="269.712" style="stroke: #000000; stroke-width: 0.5"/>
      </g>
     </g>
     <g id="line2d_2">
      <defs>
       <path id="m5bd9f93f97" d="M 0 0 
L 0 3 
" style="stroke: #000000; stroke-width: 0.5"/>
      </defs>
      <g>
       <use xlink:href="#m5bd9f93f97" x="53.546149" y="3.6" style="stroke: #000000; stroke-width: 0.5"/>
      </g>
     </g>
     <g id="text_1">
      <!-- $\mathdefault{0}$ -->
      <g transform="translate(51.553621 278.615656) scale(0.08 -0.08)">
       <defs>
        <path id="NimbusRomNo9L-Regu-30" d="M 1626 4352 
C 1274 4352 1005 4244 768 4020 
C 397 3661 154 2925 154 2176 
C 154 1479 365 730 666 372 
C 902 90 1229 -64 1600 -64 
C 1926 -64 2202 45 2432 269 
C 2803 621 3046 1364 3046 2138 
C 3046 3450 2464 4352 1626 4352 
z
M 1606 4186 
C 2144 4186 2432 3463 2432 2125 
C 2432 788 2150 103 1600 103 
C 1050 103 768 788 768 2119 
C 768 3476 1056 4186 1606 4186 
z
" transform="scale(0.015625)"/>
       </defs>
       <use xlink:href="#NimbusRomNo9L-Regu-30" transform="scale(0.996264)"/>
      </g>
     </g>
    </g>
    <g id="xtick_2">
     <g id="line2d_3">
      <g>
       <use xlink:href="#m5ad2e99494" x="103.958345" y="269.712" style="stroke: #000000; stroke-width: 0.5"/>
      </g>
     </g>
     <g id="line2d_4">
      <g>
       <use xlink:href="#m5bd9f93f97" x="103.958345" y="3.6" style="stroke: #000000; stroke-width: 0.5"/>
      </g>
     </g>
     <g id="text_2">
      <!-- $\mathdefault{50}$ -->
      <g transform="translate(99.973289 278.615656) scale(0.08 -0.08)">
       <defs>
        <path id="NimbusRomNo9L-Regu-35" d="M 1158 3776 
L 2413 3776 
C 2515 3776 2541 3789 2560 3834 
L 2803 4403 
L 2746 4448 
C 2650 4314 2586 4282 2451 4282 
L 1114 4282 
L 416 2759 
C 410 2746 410 2740 410 2727 
C 410 2695 435 2676 486 2676 
C 691 2676 947 2631 1210 2547 
C 1946 2309 2285 1910 2285 1274 
C 2285 656 1894 173 1395 173 
C 1267 173 1158 218 966 360 
C 762 508 614 572 480 572 
C 294 572 205 495 205 334 
C 205 90 506 -64 986 -64 
C 1523 -64 1984 110 2304 438 
C 2598 728 2733 1094 2733 1583 
C 2733 2046 2611 2342 2291 2663 
C 2010 2947 1645 3094 890 3229 
L 1158 3776 
z
" transform="scale(0.015625)"/>
       </defs>
       <use xlink:href="#NimbusRomNo9L-Regu-35" transform="scale(0.996264)"/>
       <use xlink:href="#NimbusRomNo9L-Regu-30" transform="translate(49.8132 0) scale(0.996264)"/>
      </g>
     </g>
    </g>
    <g id="xtick_3">
     <g id="line2d_5">
      <g>
       <use xlink:href="#m5ad2e99494" x="154.370542" y="269.712" style="stroke: #000000; stroke-width: 0.5"/>
      </g>
     </g>
     <g id="line2d_6">
      <g>
       <use xlink:href="#m5bd9f93f97" x="154.370542" y="3.6" style="stroke: #000000; stroke-width: 0.5"/>
      </g>
     </g>
     <g id="text_3">
      <!-- $\mathdefault{100}$ -->
      <g transform="translate(148.392958 278.615656) scale(0.08 -0.08)">
       <defs>
        <path id="NimbusRomNo9L-Regu-31" d="M 1862 4339 
L 710 3757 
L 710 3667 
C 787 3699 858 3725 883 3738 
C 998 3783 1107 3808 1171 3808 
C 1306 3808 1363 3711 1363 3505 
L 1363 592 
C 1363 379 1312 232 1210 173 
C 1114 116 1024 96 755 96 
L 755 0 
L 2522 0 
L 2522 96 
C 2016 96 1914 160 1914 470 
L 1914 4327 
L 1862 4339 
z
" transform="scale(0.015625)"/>
       </defs>
       <use xlink:href="#NimbusRomNo9L-Regu-31" transform="scale(0.996264)"/>
       <use xlink:href="#NimbusRomNo9L-Regu-30" transform="translate(49.8132 0) scale(0.996264)"/>
       <use xlink:href="#NimbusRomNo9L-Regu-30" transform="translate(99.626401 0) scale(0.996264)"/>
      </g>
     </g>
    </g>
    <g id="xtick_4">
     <g id="line2d_7">
      <g>
       <use xlink:href="#m5ad2e99494" x="204.782738" y="269.712" style="stroke: #000000; stroke-width: 0.5"/>
      </g>
     </g>
     <g id="line2d_8">
      <g>
       <use xlink:href="#m5bd9f93f97" x="204.782738" y="3.6" style="stroke: #000000; stroke-width: 0.5"/>
      </g>
     </g>
     <g id="text_4">
      <!-- $\mathdefault{150}$ -->
      <g transform="translate(198.805154 278.615656) scale(0.08 -0.08)">
       <use xlink:href="#NimbusRomNo9L-Regu-31" transform="scale(0.996264)"/>
       <use xlink:href="#NimbusRomNo9L-Regu-35" transform="translate(49.8132 0) scale(0.996264)"/>
       <use xlink:href="#NimbusRomNo9L-Regu-30" transform="translate(99.626401 0) scale(0.996264)"/>
      </g>
     </g>
    </g>
    <g id="xtick_5">
     <g id="line2d_9">
      <g>
       <use xlink:href="#m5ad2e99494" x="255.194935" y="269.712" style="stroke: #000000; stroke-width: 0.5"/>
      </g>
     </g>
     <g id="line2d_10">
      <g>
       <use xlink:href="#m5bd9f93f97" x="255.194935" y="3.6" style="stroke: #000000; stroke-width: 0.5"/>
      </g>
     </g>
     <g id="text_5">
      <!-- $\mathdefault{200}$ -->
      <g transform="translate(249.217351 278.615656) scale(0.08 -0.08)">
       <defs>
        <path id="NimbusRomNo9L-Regu-32" d="M 3040 875 
L 2957 907 
C 2720 544 2637 486 2349 486 
L 819 486 
L 1894 1609 
C 2464 2202 2714 2687 2714 3185 
C 2714 3823 2195 4313 1530 4313 
C 1178 4313 845 4173 608 3918 
C 403 3700 307 3496 198 3043 
L 333 3011 
C 589 3636 819 3840 1261 3840 
C 1798 3840 2163 3476 2163 2940 
C 2163 2443 1869 1850 1331 1282 
L 192 77 
L 192 0 
L 2688 0 
L 3040 875 
z
" transform="scale(0.015625)"/>
       </defs>
       <use xlink:href="#NimbusRomNo9L-Regu-32" transform="scale(0.996264)"/>
       <use xlink:href="#NimbusRomNo9L-Regu-30" transform="translate(49.8132 0) scale(0.996264)"/>
       <use xlink:href="#NimbusRomNo9L-Regu-30" transform="translate(99.626401 0) scale(0.996264)"/>
      </g>
     </g>
    </g>
    <g id="xtick_6">
     <g id="line2d_11">
      <g>
       <use xlink:href="#m5ad2e99494" x="305.607131" y="269.712" style="stroke: #000000; stroke-width: 0.5"/>
      </g>
     </g>
     <g id="line2d_12">
      <g>
       <use xlink:href="#m5bd9f93f97" x="305.607131" y="3.6" style="stroke: #000000; stroke-width: 0.5"/>
      </g>
     </g>
     <g id="text_6">
      <!-- $\mathdefault{250}$ -->
      <g transform="translate(299.629547 278.615656) scale(0.08 -0.08)">
       <use xlink:href="#NimbusRomNo9L-Regu-32" transform="scale(0.996264)"/>
       <use xlink:href="#NimbusRomNo9L-Regu-35" transform="translate(49.8132 0) scale(0.996264)"/>
       <use xlink:href="#NimbusRomNo9L-Regu-30" transform="translate(99.626401 0) scale(0.996264)"/>
      </g>
     </g>
    </g>
    <g id="xtick_7">
     <g id="line2d_13">
      <g>
       <use xlink:href="#m5ad2e99494" x="356.019328" y="269.712" style="stroke: #000000; stroke-width: 0.5"/>
      </g>
     </g>
     <g id="line2d_14">
      <g>
       <use xlink:href="#m5bd9f93f97" x="356.019328" y="3.6" style="stroke: #000000; stroke-width: 0.5"/>
      </g>
     </g>
     <g id="text_7">
      <!-- $\mathdefault{300}$ -->
      <g transform="translate(350.041744 278.615656) scale(0.08 -0.08)">
       <defs>
        <path id="NimbusRomNo9L-Regu-33" d="M 979 2138 
C 1357 2138 1504 2125 1658 2068 
C 2054 1927 2304 1562 2304 1120 
C 2304 583 1939 167 1466 167 
C 1293 167 1165 212 928 365 
C 736 480 627 525 518 525 
C 371 525 275 436 275 301 
C 275 77 550 -64 998 -64 
C 1491 -64 1997 103 2298 365 
C 2598 628 2765 999 2765 1428 
C 2765 1754 2662 2055 2477 2253 
C 2349 2394 2227 2471 1946 2592 
C 2387 2893 2547 3130 2547 3476 
C 2547 3994 2138 4352 1549 4352 
C 1229 4352 947 4244 717 4039 
C 525 3866 429 3699 288 3315 
L 384 3290 
C 646 3757 934 3968 1338 3968 
C 1754 3968 2042 3687 2042 3284 
C 2042 3053 1946 2823 1786 2663 
C 1594 2471 1414 2375 979 2221 
L 979 2138 
z
" transform="scale(0.015625)"/>
       </defs>
       <use xlink:href="#NimbusRomNo9L-Regu-33" transform="scale(0.996264)"/>
       <use xlink:href="#NimbusRomNo9L-Regu-30" transform="translate(49.8132 0) scale(0.996264)"/>
       <use xlink:href="#NimbusRomNo9L-Regu-30" transform="translate(99.626401 0) scale(0.996264)"/>
      </g>
     </g>
    </g>
    <g id="xtick_8">
     <g id="line2d_15">
      <defs>
       <path id="ma6b13c1672" d="M 0 0 
L 0 -1.5 
" style="stroke: #000000; stroke-width: 0.5"/>
      </defs>
      <g>
       <use xlink:href="#ma6b13c1672" x="43.463709" y="269.712" style="stroke: #000000; stroke-width: 0.5"/>
      </g>
     </g>
     <g id="line2d_16">
      <defs>
       <path id="m0eadc2c66f" d="M 0 0 
L 0 1.5 
" style="stroke: #000000; stroke-width: 0.5"/>
      </defs>
      <g>
       <use xlink:href="#m0eadc2c66f" x="43.463709" y="3.6" style="stroke: #000000; stroke-width: 0.5"/>
      </g>
     </g>
    </g>
    <g id="xtick_9">
     <g id="line2d_17">
      <g>
       <use xlink:href="#ma6b13c1672" x="63.628588" y="269.712" style="stroke: #000000; stroke-width: 0.5"/>
      </g>
     </g>
     <g id="line2d_18">
      <g>
       <use xlink:href="#m0eadc2c66f" x="63.628588" y="3.6" style="stroke: #000000; stroke-width: 0.5"/>
      </g>
     </g>
    </g>
    <g id="xtick_10">
     <g id="line2d_19">
      <g>
       <use xlink:href="#ma6b13c1672" x="73.711027" y="269.712" style="stroke: #000000; stroke-width: 0.5"/>
      </g>
     </g>
     <g id="line2d_20">
      <g>
       <use xlink:href="#m0eadc2c66f" x="73.711027" y="3.6" style="stroke: #000000; stroke-width: 0.5"/>
      </g>
     </g>
    </g>
    <g id="xtick_11">
     <g id="line2d_21">
      <g>
       <use xlink:href="#ma6b13c1672" x="83.793467" y="269.712" style="stroke: #000000; stroke-width: 0.5"/>
      </g>
     </g>
     <g id="line2d_22">
      <g>
       <use xlink:href="#m0eadc2c66f" x="83.793467" y="3.6" style="stroke: #000000; stroke-width: 0.5"/>
      </g>
     </g>
    </g>
    <g id="xtick_12">
     <g id="line2d_23">
      <g>
       <use xlink:href="#ma6b13c1672" x="93.875906" y="269.712" style="stroke: #000000; stroke-width: 0.5"/>
      </g>
     </g>
     <g id="line2d_24">
      <g>
       <use xlink:href="#m0eadc2c66f" x="93.875906" y="3.6" style="stroke: #000000; stroke-width: 0.5"/>
      </g>
     </g>
    </g>
    <g id="xtick_13">
     <g id="line2d_25">
      <g>
       <use xlink:href="#ma6b13c1672" x="114.040785" y="269.712" style="stroke: #000000; stroke-width: 0.5"/>
      </g>
     </g>
     <g id="line2d_26">
      <g>
       <use xlink:href="#m0eadc2c66f" x="114.040785" y="3.6" style="stroke: #000000; stroke-width: 0.5"/>
      </g>
     </g>
    </g>
    <g id="xtick_14">
     <g id="line2d_27">
      <g>
       <use xlink:href="#ma6b13c1672" x="124.123224" y="269.712" style="stroke: #000000; stroke-width: 0.5"/>
      </g>
     </g>
     <g id="line2d_28">
      <g>
       <use xlink:href="#m0eadc2c66f" x="124.123224" y="3.6" style="stroke: #000000; stroke-width: 0.5"/>
      </g>
     </g>
    </g>
    <g id="xtick_15">
     <g id="line2d_29">
      <g>
       <use xlink:href="#ma6b13c1672" x="134.205663" y="269.712" style="stroke: #000000; stroke-width: 0.5"/>
      </g>
     </g>
     <g id="line2d_30">
      <g>
       <use xlink:href="#m0eadc2c66f" x="134.205663" y="3.6" style="stroke: #000000; stroke-width: 0.5"/>
      </g>
     </g>
    </g>
    <g id="xtick_16">
     <g id="line2d_31">
      <g>
       <use xlink:href="#ma6b13c1672" x="144.288102" y="269.712" style="stroke: #000000; stroke-width: 0.5"/>
      </g>
     </g>
     <g id="line2d_32">
      <g>
       <use xlink:href="#m0eadc2c66f" x="144.288102" y="3.6" style="stroke: #000000; stroke-width: 0.5"/>
      </g>
     </g>
    </g>
    <g id="xtick_17">
     <g id="line2d_33">
      <g>
       <use xlink:href="#ma6b13c1672" x="164.452981" y="269.712" style="stroke: #000000; stroke-width: 0.5"/>
      </g>
     </g>
     <g id="line2d_34">
      <g>
       <use xlink:href="#m0eadc2c66f" x="164.452981" y="3.6" style="stroke: #000000; stroke-width: 0.5"/>
      </g>
     </g>
    </g>
    <g id="xtick_18">
     <g id="line2d_35">
      <g>
       <use xlink:href="#ma6b13c1672" x="174.53542" y="269.712" style="stroke: #000000; stroke-width: 0.5"/>
      </g>
     </g>
     <g id="line2d_36">
      <g>
       <use xlink:href="#m0eadc2c66f" x="174.53542" y="3.6" style="stroke: #000000; stroke-width: 0.5"/>
      </g>
     </g>
    </g>
    <g id="xtick_19">
     <g id="line2d_37">
      <g>
       <use xlink:href="#ma6b13c1672" x="184.61786" y="269.712" style="stroke: #000000; stroke-width: 0.5"/>
      </g>
     </g>
     <g id="line2d_38">
      <g>
       <use xlink:href="#m0eadc2c66f" x="184.61786" y="3.6" style="stroke: #000000; stroke-width: 0.5"/>
      </g>
     </g>
    </g>
    <g id="xtick_20">
     <g id="line2d_39">
      <g>
       <use xlink:href="#ma6b13c1672" x="194.700299" y="269.712" style="stroke: #000000; stroke-width: 0.5"/>
      </g>
     </g>
     <g id="line2d_40">
      <g>
       <use xlink:href="#m0eadc2c66f" x="194.700299" y="3.6" style="stroke: #000000; stroke-width: 0.5"/>
      </g>
     </g>
    </g>
    <g id="xtick_21">
     <g id="line2d_41">
      <g>
       <use xlink:href="#ma6b13c1672" x="214.865178" y="269.712" style="stroke: #000000; stroke-width: 0.5"/>
      </g>
     </g>
     <g id="line2d_42">
      <g>
       <use xlink:href="#m0eadc2c66f" x="214.865178" y="3.6" style="stroke: #000000; stroke-width: 0.5"/>
      </g>
     </g>
    </g>
    <g id="xtick_22">
     <g id="line2d_43">
      <g>
       <use xlink:href="#ma6b13c1672" x="224.947617" y="269.712" style="stroke: #000000; stroke-width: 0.5"/>
      </g>
     </g>
     <g id="line2d_44">
      <g>
       <use xlink:href="#m0eadc2c66f" x="224.947617" y="3.6" style="stroke: #000000; stroke-width: 0.5"/>
      </g>
     </g>
    </g>
    <g id="xtick_23">
     <g id="line2d_45">
      <g>
       <use xlink:href="#ma6b13c1672" x="235.030056" y="269.712" style="stroke: #000000; stroke-width: 0.5"/>
      </g>
     </g>
     <g id="line2d_46">
      <g>
       <use xlink:href="#m0eadc2c66f" x="235.030056" y="3.6" style="stroke: #000000; stroke-width: 0.5"/>
      </g>
     </g>
    </g>
    <g id="xtick_24">
     <g id="line2d_47">
      <g>
       <use xlink:href="#ma6b13c1672" x="245.112495" y="269.712" style="stroke: #000000; stroke-width: 0.5"/>
      </g>
     </g>
     <g id="line2d_48">
      <g>
       <use xlink:href="#m0eadc2c66f" x="245.112495" y="3.6" style="stroke: #000000; stroke-width: 0.5"/>
      </g>
     </g>
    </g>
    <g id="xtick_25">
     <g id="line2d_49">
      <g>
       <use xlink:href="#ma6b13c1672" x="265.277374" y="269.712" style="stroke: #000000; stroke-width: 0.5"/>
      </g>
     </g>
     <g id="line2d_50">
      <g>
       <use xlink:href="#m0eadc2c66f" x="265.277374" y="3.6" style="stroke: #000000; stroke-width: 0.5"/>
      </g>
     </g>
    </g>
    <g id="xtick_26">
     <g id="line2d_51">
      <g>
       <use xlink:href="#ma6b13c1672" x="275.359813" y="269.712" style="stroke: #000000; stroke-width: 0.5"/>
      </g>
     </g>
     <g id="line2d_52">
      <g>
       <use xlink:href="#m0eadc2c66f" x="275.359813" y="3.6" style="stroke: #000000; stroke-width: 0.5"/>
      </g>
     </g>
    </g>
    <g id="xtick_27">
     <g id="line2d_53">
      <g>
       <use xlink:href="#ma6b13c1672" x="285.442253" y="269.712" style="stroke: #000000; stroke-width: 0.5"/>
      </g>
     </g>
     <g id="line2d_54">
      <g>
       <use xlink:href="#m0eadc2c66f" x="285.442253" y="3.6" style="stroke: #000000; stroke-width: 0.5"/>
      </g>
     </g>
    </g>
    <g id="xtick_28">
     <g id="line2d_55">
      <g>
       <use xlink:href="#ma6b13c1672" x="295.524692" y="269.712" style="stroke: #000000; stroke-width: 0.5"/>
      </g>
     </g>
     <g id="line2d_56">
      <g>
       <use xlink:href="#m0eadc2c66f" x="295.524692" y="3.6" style="stroke: #000000; stroke-width: 0.5"/>
      </g>
     </g>
    </g>
    <g id="xtick_29">
     <g id="line2d_57">
      <g>
       <use xlink:href="#ma6b13c1672" x="315.689571" y="269.712" style="stroke: #000000; stroke-width: 0.5"/>
      </g>
     </g>
     <g id="line2d_58">
      <g>
       <use xlink:href="#m0eadc2c66f" x="315.689571" y="3.6" style="stroke: #000000; stroke-width: 0.5"/>
      </g>
     </g>
    </g>
    <g id="xtick_30">
     <g id="line2d_59">
      <g>
       <use xlink:href="#ma6b13c1672" x="325.77201" y="269.712" style="stroke: #000000; stroke-width: 0.5"/>
      </g>
     </g>
     <g id="line2d_60">
      <g>
       <use xlink:href="#m0eadc2c66f" x="325.77201" y="3.6" style="stroke: #000000; stroke-width: 0.5"/>
      </g>
     </g>
    </g>
    <g id="xtick_31">
     <g id="line2d_61">
      <g>
       <use xlink:href="#ma6b13c1672" x="335.854449" y="269.712" style="stroke: #000000; stroke-width: 0.5"/>
      </g>
     </g>
     <g id="line2d_62">
      <g>
       <use xlink:href="#m0eadc2c66f" x="335.854449" y="3.6" style="stroke: #000000; stroke-width: 0.5"/>
      </g>
     </g>
    </g>
    <g id="xtick_32">
     <g id="line2d_63">
      <g>
       <use xlink:href="#ma6b13c1672" x="345.936888" y="269.712" style="stroke: #000000; stroke-width: 0.5"/>
      </g>
     </g>
     <g id="line2d_64">
      <g>
       <use xlink:href="#m0eadc2c66f" x="345.936888" y="3.6" style="stroke: #000000; stroke-width: 0.5"/>
      </g>
     </g>
    </g>
    <g id="xtick_33">
     <g id="line2d_65">
      <g>
       <use xlink:href="#ma6b13c1672" x="366.101767" y="269.712" style="stroke: #000000; stroke-width: 0.5"/>
      </g>
     </g>
     <g id="line2d_66">
      <g>
       <use xlink:href="#m0eadc2c66f" x="366.101767" y="3.6" style="stroke: #000000; stroke-width: 0.5"/>
      </g>
     </g>
    </g>
    <g id="xtick_34">
     <g id="line2d_67">
      <g>
       <use xlink:href="#ma6b13c1672" x="376.184206" y="269.712" style="stroke: #000000; stroke-width: 0.5"/>
      </g>
     </g>
     <g id="line2d_68">
      <g>
       <use xlink:href="#m0eadc2c66f" x="376.184206" y="3.6" style="stroke: #000000; stroke-width: 0.5"/>
      </g>
     </g>
    </g>
    <g id="xtick_35">
     <g id="line2d_69">
      <g>
       <use xlink:href="#ma6b13c1672" x="386.266646" y="269.712" style="stroke: #000000; stroke-width: 0.5"/>
      </g>
     </g>
     <g id="line2d_70">
      <g>
       <use xlink:href="#m0eadc2c66f" x="386.266646" y="3.6" style="stroke: #000000; stroke-width: 0.5"/>
      </g>
     </g>
    </g>
    <g id="text_8">
     <!-- days -->
     <g transform="translate(201.264326 295.148446) scale(0.16 -0.16)">
      <defs>
       <path id="NimbusRomNo9L-Regu-64" d="M 2202 -64 
L 3142 269 
L 3142 365 
C 3027 365 3014 365 2995 365 
C 2765 365 2714 435 2714 731 
L 2714 4364 
L 2682 4377 
C 2374 4268 2150 4204 1741 4096 
L 1741 3994 
C 1792 4000 1830 4000 1882 4000 
C 2118 4000 2176 3936 2176 3672 
L 2176 2669 
C 1933 2874 1760 2944 1504 2944 
C 768 2944 173 2221 173 1312 
C 173 493 653 -64 1357 -64 
C 1715 -64 1958 64 2176 365 
L 2176 -45 
L 2202 -64 
z
M 2176 653 
C 2176 608 2131 531 2067 461 
C 1952 333 1792 269 1606 269 
C 1075 269 723 781 723 1568 
C 723 2291 1037 2765 1523 2765 
C 1862 2765 2176 2464 2176 2125 
L 2176 653 
z
" transform="scale(0.015625)"/>
       <path id="NimbusRomNo9L-Regu-61" d="M 2829 423 
C 2720 333 2643 301 2547 301 
C 2400 301 2355 390 2355 672 
L 2355 1920 
C 2355 2253 2323 2438 2227 2592 
C 2086 2822 1811 2944 1434 2944 
C 832 2944 358 2630 358 2227 
C 358 2080 486 1952 634 1952 
C 787 1952 922 2080 922 2221 
C 922 2246 915 2278 909 2323 
C 896 2381 890 2432 890 2477 
C 890 2650 1094 2790 1350 2790 
C 1664 2790 1837 2605 1837 2259 
L 1837 1869 
C 851 1472 742 1421 467 1178 
C 326 1050 237 832 237 621 
C 237 218 518 -64 909 -64 
C 1190 -64 1453 70 1843 403 
C 1875 70 1990 -64 2253 -64 
C 2470 -64 2605 13 2829 256 
L 2829 423 
z
M 1837 783 
C 1837 584 1805 526 1670 449 
C 1517 359 1338 301 1203 301 
C 979 301 800 520 800 796 
L 800 822 
C 800 1201 1062 1433 1837 1715 
L 1837 783 
z
" transform="scale(0.015625)"/>
       <path id="NimbusRomNo9L-Regu-79" d="M 3040 2880 
L 2176 2880 
L 2176 2784 
C 2381 2784 2483 2726 2483 2623 
C 2483 2597 2477 2559 2458 2514 
L 1837 742 
L 1101 2377 
C 1062 2468 1037 2552 1037 2622 
C 1037 2739 1133 2784 1408 2784 
L 1408 2880 
L 90 2880 
L 90 2790 
C 256 2765 365 2694 416 2585 
L 1146 1005 
L 1165 953 
L 1261 761 
C 1440 440 1542 209 1542 112 
C 1542 16 1395 -389 1286 -582 
C 1197 -749 1056 -871 966 -871 
C 928 -871 870 -858 806 -826 
C 685 -781 576 -755 467 -755 
C 320 -755 192 -883 192 -1037 
C 192 -1248 397 -1408 666 -1408 
C 1094 -1408 1402 -1049 1747 -124 
L 2733 2495 
C 2816 2701 2886 2765 3040 2784 
L 3040 2880 
z
" transform="scale(0.015625)"/>
       <path id="NimbusRomNo9L-Regu-73" d="M 2016 2010 
L 1990 2880 
L 1920 2880 
L 1907 2867 
C 1850 2822 1843 2816 1818 2816 
C 1779 2816 1715 2829 1645 2861 
C 1504 2915 1363 2944 1197 2944 
C 691 2944 326 2616 326 2154 
C 326 1796 531 1539 1075 1231 
L 1446 1020 
C 1670 892 1779 737 1779 539 
C 1779 256 1574 77 1248 77 
C 1030 77 832 159 710 298 
C 576 455 518 600 435 960 
L 333 960 
L 333 -39 
L 416 -39 
C 461 33 486 48 563 48 
C 621 48 710 35 858 -2 
C 1037 -39 1210 -64 1325 -64 
C 1818 -64 2227 308 2227 757 
C 2227 1077 2074 1289 1690 1520 
L 998 1930 
C 819 2033 723 2194 723 2367 
C 723 2624 922 2803 1216 2803 
C 1581 2803 1773 2583 1920 2010 
L 2016 2010 
z
" transform="scale(0.015625)"/>
      </defs>
      <use xlink:href="#NimbusRomNo9L-Regu-64" transform="scale(0.996264)"/>
      <use xlink:href="#NimbusRomNo9L-Regu-61" transform="translate(49.8132 0) scale(0.996264)"/>
      <use xlink:href="#NimbusRomNo9L-Regu-79" transform="translate(94.046769 0) scale(0.996264)"/>
      <use xlink:href="#NimbusRomNo9L-Regu-73" transform="translate(143.85997 0) scale(0.996264)"/>
     </g>
    </g>
   </g>
   <g id="matplotlib.axis_2">
    <g id="ytick_1">
     <g id="line2d_71">
      <defs>
       <path id="m58457e95bb" d="M 0 0 
L 3 0 
" style="stroke: #000000; stroke-width: 0.5"/>
      </defs>
      <g>
       <use xlink:href="#m58457e95bb" x="37.313421" y="241.655642" style="stroke: #000000; stroke-width: 0.5"/>
      </g>
     </g>
     <g id="line2d_72">
      <defs>
       <path id="mb65c7f947c" d="M 0 0 
L -3 0 
" style="stroke: #000000; stroke-width: 0.5"/>
      </defs>
      <g>
       <use xlink:href="#mb65c7f947c" x="394.433421" y="241.655642" style="stroke: #000000; stroke-width: 0.5"/>
      </g>
     </g>
     <g id="text_9">
      <!-- $\mathdefault{0}$ -->
      <g transform="translate(29.828365 244.35747) scale(0.08 -0.08)">
       <use xlink:href="#NimbusRomNo9L-Regu-30" transform="scale(0.996264)"/>
      </g>
     </g>
    </g>
    <g id="ytick_2">
     <g id="line2d_73">
      <g>
       <use xlink:href="#m58457e95bb" x="37.313421" y="194.989676" style="stroke: #000000; stroke-width: 0.5"/>
      </g>
     </g>
     <g id="line2d_74">
      <g>
       <use xlink:href="#mb65c7f947c" x="394.433421" y="194.989676" style="stroke: #000000; stroke-width: 0.5"/>
      </g>
     </g>
     <g id="text_10">
      <!-- $\mathdefault{20}$ -->
      <g transform="translate(25.843309 197.691504) scale(0.08 -0.08)">
       <use xlink:href="#NimbusRomNo9L-Regu-32" transform="scale(0.996264)"/>
       <use xlink:href="#NimbusRomNo9L-Regu-30" transform="translate(49.8132 0) scale(0.996264)"/>
      </g>
     </g>
    </g>
    <g id="ytick_3">
     <g id="line2d_75">
      <g>
       <use xlink:href="#m58457e95bb" x="37.313421" y="148.32371" style="stroke: #000000; stroke-width: 0.5"/>
      </g>
     </g>
     <g id="line2d_76">
      <g>
       <use xlink:href="#mb65c7f947c" x="394.433421" y="148.32371" style="stroke: #000000; stroke-width: 0.5"/>
      </g>
     </g>
     <g id="text_11">
      <!-- $\mathdefault{40}$ -->
      <g transform="translate(25.843309 151.025538) scale(0.08 -0.08)">
       <defs>
        <path id="NimbusRomNo9L-Regu-34" d="M 3021 1497 
L 2368 1497 
L 2368 4352 
L 2086 4352 
L 77 1497 
L 77 1088 
L 1875 1088 
L 1875 32 
L 2368 32 
L 2368 1088 
L 3021 1088 
L 3021 1497 
z
M 1869 1497 
L 333 1497 
L 1869 3698 
L 1869 1497 
z
" transform="scale(0.015625)"/>
       </defs>
       <use xlink:href="#NimbusRomNo9L-Regu-34" transform="scale(0.996264)"/>
       <use xlink:href="#NimbusRomNo9L-Regu-30" transform="translate(49.8132 0) scale(0.996264)"/>
      </g>
     </g>
    </g>
    <g id="ytick_4">
     <g id="line2d_77">
      <g>
       <use xlink:href="#m58457e95bb" x="37.313421" y="101.657745" style="stroke: #000000; stroke-width: 0.5"/>
      </g>
     </g>
     <g id="line2d_78">
      <g>
       <use xlink:href="#mb65c7f947c" x="394.433421" y="101.657745" style="stroke: #000000; stroke-width: 0.5"/>
      </g>
     </g>
     <g id="text_12">
      <!-- $\mathdefault{60}$ -->
      <g transform="translate(25.843309 104.359573) scale(0.08 -0.08)">
       <defs>
        <path id="NimbusRomNo9L-Regu-36" d="M 2854 4391 
C 2125 4327 1754 4205 1286 3879 
C 595 3386 218 2656 218 1802 
C 218 1248 390 688 666 370 
C 909 89 1254 -64 1651 -64 
C 2445 -64 2995 541 2995 1421 
C 2995 2236 2528 2752 1792 2752 
C 1510 2752 1376 2707 973 2464 
C 1146 3431 1862 4122 2867 4288 
L 2854 4391 
z
M 1549 2458 
C 2099 2458 2419 2000 2419 1204 
C 2419 504 2170 116 1722 116 
C 1158 116 813 714 813 1700 
C 813 2025 864 2203 992 2299 
C 1126 2400 1325 2458 1549 2458 
z
" transform="scale(0.015625)"/>
       </defs>
       <use xlink:href="#NimbusRomNo9L-Regu-36" transform="scale(0.996264)"/>
       <use xlink:href="#NimbusRomNo9L-Regu-30" transform="translate(49.8132 0) scale(0.996264)"/>
      </g>
     </g>
    </g>
    <g id="ytick_5">
     <g id="line2d_79">
      <g>
       <use xlink:href="#m58457e95bb" x="37.313421" y="54.991779" style="stroke: #000000; stroke-width: 0.5"/>
      </g>
     </g>
     <g id="line2d_80">
      <g>
       <use xlink:href="#mb65c7f947c" x="394.433421" y="54.991779" style="stroke: #000000; stroke-width: 0.5"/>
      </g>
     </g>
     <g id="text_13">
      <!-- $\mathdefault{80}$ -->
      <g transform="translate(25.843309 57.693607) scale(0.08 -0.08)">
       <defs>
        <path id="NimbusRomNo9L-Regu-38" d="M 1856 2400 
C 2490 2740 2714 3008 2714 3444 
C 2714 3968 2253 4352 1613 4352 
C 915 4352 397 3924 397 3341 
C 397 2925 518 2740 1190 2151 
C 499 1626 358 1428 358 992 
C 358 372 864 -64 1587 -64 
C 2355 -64 2848 359 2848 1018 
C 2848 1511 2630 1824 1856 2400 
z
M 1741 1741 
C 2208 1408 2362 1178 2362 820 
C 2362 404 2074 116 1658 116 
C 1171 116 845 487 845 1044 
C 845 1453 986 1722 1357 2023 
L 1741 1741 
z
M 1670 2516 
C 1101 2887 870 3181 870 3540 
C 870 3911 1158 4173 1562 4173 
C 1997 4173 2272 3892 2272 3450 
C 2272 3085 2093 2797 1728 2554 
C 1696 2535 1696 2535 1670 2516 
z
" transform="scale(0.015625)"/>
       </defs>
       <use xlink:href="#NimbusRomNo9L-Regu-38" transform="scale(0.996264)"/>
       <use xlink:href="#NimbusRomNo9L-Regu-30" transform="translate(49.8132 0) scale(0.996264)"/>
      </g>
     </g>
    </g>
    <g id="ytick_6">
     <g id="line2d_81">
      <g>
       <use xlink:href="#m58457e95bb" x="37.313421" y="8.325813" style="stroke: #000000; stroke-width: 0.5"/>
      </g>
     </g>
     <g id="line2d_82">
      <g>
       <use xlink:href="#mb65c7f947c" x="394.433421" y="8.325813" style="stroke: #000000; stroke-width: 0.5"/>
      </g>
     </g>
     <g id="text_14">
      <!-- $\mathdefault{100}$ -->
      <g transform="translate(21.858253 11.027641) scale(0.08 -0.08)">
       <use xlink:href="#NimbusRomNo9L-Regu-31" transform="scale(0.996264)"/>
       <use xlink:href="#NimbusRomNo9L-Regu-30" transform="translate(49.8132 0) scale(0.996264)"/>
       <use xlink:href="#NimbusRomNo9L-Regu-30" transform="translate(99.626401 0) scale(0.996264)"/>
      </g>
     </g>
    </g>
    <g id="ytick_7">
     <g id="line2d_83">
      <defs>
       <path id="m7b3c3aca0d" d="M 0 0 
L 1.5 0 
" style="stroke: #000000; stroke-width: 0.5"/>
      </defs>
      <g>
       <use xlink:href="#m7b3c3aca0d" x="37.313421" y="264.988625" style="stroke: #000000; stroke-width: 0.5"/>
      </g>
     </g>
     <g id="line2d_84">
      <defs>
       <path id="m473c42ac54" d="M 0 0 
L -1.5 0 
" style="stroke: #000000; stroke-width: 0.5"/>
      </defs>
      <g>
       <use xlink:href="#m473c42ac54" x="394.433421" y="264.988625" style="stroke: #000000; stroke-width: 0.5"/>
      </g>
     </g>
    </g>
    <g id="ytick_8">
     <g id="line2d_85">
      <g>
       <use xlink:href="#m7b3c3aca0d" x="37.313421" y="253.322133" style="stroke: #000000; stroke-width: 0.5"/>
      </g>
     </g>
     <g id="line2d_86">
      <g>
       <use xlink:href="#m473c42ac54" x="394.433421" y="253.322133" style="stroke: #000000; stroke-width: 0.5"/>
      </g>
     </g>
    </g>
    <g id="ytick_9">
     <g id="line2d_87">
      <g>
       <use xlink:href="#m7b3c3aca0d" x="37.313421" y="229.98915" style="stroke: #000000; stroke-width: 0.5"/>
      </g>
     </g>
     <g id="line2d_88">
      <g>
       <use xlink:href="#m473c42ac54" x="394.433421" y="229.98915" style="stroke: #000000; stroke-width: 0.5"/>
      </g>
     </g>
    </g>
    <g id="ytick_10">
     <g id="line2d_89">
      <g>
       <use xlink:href="#m7b3c3aca0d" x="37.313421" y="218.322659" style="stroke: #000000; stroke-width: 0.5"/>
      </g>
     </g>
     <g id="line2d_90">
      <g>
       <use xlink:href="#m473c42ac54" x="394.433421" y="218.322659" style="stroke: #000000; stroke-width: 0.5"/>
      </g>
     </g>
    </g>
    <g id="ytick_11">
     <g id="line2d_91">
      <g>
       <use xlink:href="#m7b3c3aca0d" x="37.313421" y="206.656168" style="stroke: #000000; stroke-width: 0.5"/>
      </g>
     </g>
     <g id="line2d_92">
      <g>
       <use xlink:href="#m473c42ac54" x="394.433421" y="206.656168" style="stroke: #000000; stroke-width: 0.5"/>
      </g>
     </g>
    </g>
    <g id="ytick_12">
     <g id="line2d_93">
      <g>
       <use xlink:href="#m7b3c3aca0d" x="37.313421" y="183.323185" style="stroke: #000000; stroke-width: 0.5"/>
      </g>
     </g>
     <g id="line2d_94">
      <g>
       <use xlink:href="#m473c42ac54" x="394.433421" y="183.323185" style="stroke: #000000; stroke-width: 0.5"/>
      </g>
     </g>
    </g>
    <g id="ytick_13">
     <g id="line2d_95">
      <g>
       <use xlink:href="#m7b3c3aca0d" x="37.313421" y="171.656693" style="stroke: #000000; stroke-width: 0.5"/>
      </g>
     </g>
     <g id="line2d_96">
      <g>
       <use xlink:href="#m473c42ac54" x="394.433421" y="171.656693" style="stroke: #000000; stroke-width: 0.5"/>
      </g>
     </g>
    </g>
    <g id="ytick_14">
     <g id="line2d_97">
      <g>
       <use xlink:href="#m7b3c3aca0d" x="37.313421" y="159.990202" style="stroke: #000000; stroke-width: 0.5"/>
      </g>
     </g>
     <g id="line2d_98">
      <g>
       <use xlink:href="#m473c42ac54" x="394.433421" y="159.990202" style="stroke: #000000; stroke-width: 0.5"/>
      </g>
     </g>
    </g>
    <g id="ytick_15">
     <g id="line2d_99">
      <g>
       <use xlink:href="#m7b3c3aca0d" x="37.313421" y="136.657219" style="stroke: #000000; stroke-width: 0.5"/>
      </g>
     </g>
     <g id="line2d_100">
      <g>
       <use xlink:href="#m473c42ac54" x="394.433421" y="136.657219" style="stroke: #000000; stroke-width: 0.5"/>
      </g>
     </g>
    </g>
    <g id="ytick_16">
     <g id="line2d_101">
      <g>
       <use xlink:href="#m7b3c3aca0d" x="37.313421" y="124.990727" style="stroke: #000000; stroke-width: 0.5"/>
      </g>
     </g>
     <g id="line2d_102">
      <g>
       <use xlink:href="#m473c42ac54" x="394.433421" y="124.990727" style="stroke: #000000; stroke-width: 0.5"/>
      </g>
     </g>
    </g>
    <g id="ytick_17">
     <g id="line2d_103">
      <g>
       <use xlink:href="#m7b3c3aca0d" x="37.313421" y="113.324236" style="stroke: #000000; stroke-width: 0.5"/>
      </g>
     </g>
     <g id="line2d_104">
      <g>
       <use xlink:href="#m473c42ac54" x="394.433421" y="113.324236" style="stroke: #000000; stroke-width: 0.5"/>
      </g>
     </g>
    </g>
    <g id="ytick_18">
     <g id="line2d_105">
      <g>
       <use xlink:href="#m7b3c3aca0d" x="37.313421" y="89.991253" style="stroke: #000000; stroke-width: 0.5"/>
      </g>
     </g>
     <g id="line2d_106">
      <g>
       <use xlink:href="#m473c42ac54" x="394.433421" y="89.991253" style="stroke: #000000; stroke-width: 0.5"/>
      </g>
     </g>
    </g>
    <g id="ytick_19">
     <g id="line2d_107">
      <g>
       <use xlink:href="#m7b3c3aca0d" x="37.313421" y="78.324762" style="stroke: #000000; stroke-width: 0.5"/>
      </g>
     </g>
     <g id="line2d_108">
      <g>
       <use xlink:href="#m473c42ac54" x="394.433421" y="78.324762" style="stroke: #000000; stroke-width: 0.5"/>
      </g>
     </g>
    </g>
    <g id="ytick_20">
     <g id="line2d_109">
      <g>
       <use xlink:href="#m7b3c3aca0d" x="37.313421" y="66.65827" style="stroke: #000000; stroke-width: 0.5"/>
      </g>
     </g>
     <g id="line2d_110">
      <g>
       <use xlink:href="#m473c42ac54" x="394.433421" y="66.65827" style="stroke: #000000; stroke-width: 0.5"/>
      </g>
     </g>
    </g>
    <g id="ytick_21">
     <g id="line2d_111">
      <g>
       <use xlink:href="#m7b3c3aca0d" x="37.313421" y="43.325287" style="stroke: #000000; stroke-width: 0.5"/>
      </g>
     </g>
     <g id="line2d_112">
      <g>
       <use xlink:href="#m473c42ac54" x="394.433421" y="43.325287" style="stroke: #000000; stroke-width: 0.5"/>
      </g>
     </g>
    </g>
    <g id="ytick_22">
     <g id="line2d_113">
      <g>
       <use xlink:href="#m7b3c3aca0d" x="37.313421" y="31.658796" style="stroke: #000000; stroke-width: 0.5"/>
      </g>
     </g>
     <g id="line2d_114">
      <g>
       <use xlink:href="#m473c42ac54" x="394.433421" y="31.658796" style="stroke: #000000; stroke-width: 0.5"/>
      </g>
     </g>
    </g>
    <g id="ytick_23">
     <g id="line2d_115">
      <g>
       <use xlink:href="#m7b3c3aca0d" x="37.313421" y="19.992304" style="stroke: #000000; stroke-width: 0.5"/>
      </g>
     </g>
     <g id="line2d_116">
      <g>
       <use xlink:href="#m473c42ac54" x="394.433421" y="19.992304" style="stroke: #000000; stroke-width: 0.5"/>
      </g>
     </g>
    </g>
    <g id="text_15">
     <!-- spatial rainfall -->
     <g transform="translate(14.407327 182.395716) rotate(-90) scale(0.16 -0.16)">
      <defs>
       <path id="NimbusRomNo9L-Regu-70" d="M 58 2516 
C 115 2522 160 2522 218 2522 
C 435 2522 480 2458 480 2155 
L 480 -855 
C 480 -1189 410 -1261 32 -1299 
L 32 -1408 
L 1581 -1408 
L 1581 -1293 
C 1101 -1293 1018 -1222 1018 -816 
L 1018 199 
C 1242 -13 1395 -77 1664 -77 
C 2419 -77 3008 643 3008 1575 
C 3008 2372 2560 2944 1939 2944 
C 1581 2944 1299 2784 1018 2438 
L 1018 2931 
L 979 2944 
C 634 2810 410 2726 58 2618 
L 58 2516 
z
M 1018 2136 
C 1018 2329 1376 2560 1670 2560 
C 2144 2560 2458 2071 2458 1324 
C 2458 611 2144 128 1683 128 
C 1382 128 1018 359 1018 552 
L 1018 2136 
z
" transform="scale(0.015625)"/>
       <path id="NimbusRomNo9L-Regu-74" d="M 1632 2880 
L 986 2880 
L 986 3622 
C 986 3686 979 3706 941 3706 
C 896 3648 858 3590 813 3526 
C 570 3174 294 2867 192 2841 
C 122 2794 83 2748 83 2715 
C 83 2695 90 2682 109 2682 
L 448 2682 
L 448 751 
C 448 212 640 -64 1018 -64 
C 1331 -64 1574 90 1786 423 
L 1702 493 
C 1568 333 1459 269 1318 269 
C 1082 269 986 443 986 847 
L 986 2682 
L 1632 2682 
L 1632 2880 
z
" transform="scale(0.015625)"/>
       <path id="NimbusRomNo9L-Regu-69" d="M 1120 2929 
L 128 2579 
L 128 2484 
L 179 2490 
C 256 2502 339 2509 397 2509 
C 550 2509 608 2406 608 2125 
L 608 640 
C 608 179 544 109 102 109 
L 102 0 
L 1619 0 
L 1619 96 
C 1197 128 1146 191 1146 650 
L 1146 2910 
L 1120 2929 
z
M 819 4352 
C 646 4352 499 4205 499 4026 
C 499 3847 640 3699 819 3699 
C 1005 3699 1152 3840 1152 4026 
C 1152 4205 1005 4352 819 4352 
z
" transform="scale(0.015625)"/>
       <path id="NimbusRomNo9L-Regu-6c" d="M 122 4000 
L 160 4000 
C 230 4000 307 4000 358 4000 
C 563 4000 627 3910 627 3610 
L 627 557 
C 627 211 538 128 134 96 
L 134 0 
L 1645 0 
L 1645 109 
C 1242 109 1165 173 1165 528 
L 1165 4371 
L 1139 4384 
C 806 4275 563 4211 122 4103 
L 122 4000 
z
" transform="scale(0.015625)"/>
       <path id="NimbusRomNo9L-Regu-72" d="M 45 2496 
C 134 2515 192 2522 269 2522 
C 429 2522 486 2419 486 2138 
L 486 538 
C 486 218 442 173 32 96 
L 32 0 
L 1568 0 
L 1568 102 
C 1133 102 1024 199 1024 565 
L 1024 2013 
C 1024 2219 1299 2541 1472 2541 
C 1510 2541 1568 2509 1638 2445 
C 1741 2355 1811 2317 1894 2317 
C 2048 2317 2144 2426 2144 2605 
C 2144 2816 2010 2944 1792 2944 
C 1523 2944 1338 2797 1024 2343 
L 1024 2931 
L 992 2944 
C 653 2803 422 2721 45 2599 
L 45 2496 
z
" transform="scale(0.015625)"/>
       <path id="NimbusRomNo9L-Regu-6e" d="M 102 2579 
C 141 2598 205 2605 275 2605 
C 454 2605 512 2509 512 2195 
L 512 608 
C 512 243 442 154 115 128 
L 115 32 
L 1472 32 
L 1472 128 
C 1146 154 1050 230 1050 461 
L 1050 2259 
C 1357 2547 1498 2624 1709 2624 
C 2022 2624 2176 2426 2176 2003 
L 2176 666 
C 2176 262 2093 154 1773 128 
L 1773 32 
L 3104 32 
L 3104 128 
C 2790 160 2714 237 2714 550 
L 2714 2016 
C 2714 2618 2432 2976 1958 2976 
C 1664 2976 1466 2867 1030 2458 
L 1030 2963 
L 986 2976 
C 672 2861 454 2790 102 2688 
L 102 2579 
z
" transform="scale(0.015625)"/>
       <path id="NimbusRomNo9L-Regu-66" d="M 1978 2880 
L 1190 2880 
L 1190 3611 
C 1190 3978 1312 4173 1555 4173 
C 1690 4173 1779 4110 1894 3927 
C 1997 3763 2074 3700 2182 3700 
C 2330 3700 2451 3814 2451 3959 
C 2451 4188 2170 4352 1786 4352 
C 1389 4352 1050 4181 883 3891 
C 717 3613 666 3385 659 2880 
L 134 2880 
L 134 2675 
L 659 2675 
L 659 656 
C 659 185 589 109 128 109 
L 128 0 
L 1792 0 
L 1792 109 
C 1267 109 1197 180 1197 661 
L 1197 2675 
L 1978 2675 
L 1978 2880 
z
" transform="scale(0.015625)"/>
      </defs>
      <use xlink:href="#NimbusRomNo9L-Regu-73" transform="scale(0.996264)"/>
      <use xlink:href="#NimbusRomNo9L-Regu-70" transform="translate(38.753706 0) scale(0.996264)"/>
      <use xlink:href="#NimbusRomNo9L-Regu-61" transform="translate(88.566907 0) scale(0.996264)"/>
      <use xlink:href="#NimbusRomNo9L-Regu-74" transform="translate(132.800475 0) scale(0.996264)"/>
      <use xlink:href="#NimbusRomNo9L-Regu-69" transform="translate(160.495645 0) scale(0.996264)"/>
      <use xlink:href="#NimbusRomNo9L-Regu-61" transform="translate(188.190815 0) scale(0.996264)"/>
      <use xlink:href="#NimbusRomNo9L-Regu-6c" transform="translate(232.424383 0) scale(0.996264)"/>
      <use xlink:href="#NimbusRomNo9L-Regu-72" transform="translate(285.026153 0) scale(0.996264)"/>
      <use xlink:href="#NimbusRomNo9L-Regu-61" transform="translate(318.201383 0) scale(0.996264)"/>
      <use xlink:href="#NimbusRomNo9L-Regu-69" transform="translate(362.434952 0) scale(0.996264)"/>
      <use xlink:href="#NimbusRomNo9L-Regu-6e" transform="translate(390.130121 0) scale(0.996264)"/>
      <use xlink:href="#NimbusRomNo9L-Regu-66" transform="translate(439.943322 0) scale(0.996264)"/>
      <use xlink:href="#NimbusRomNo9L-Regu-61" transform="translate(472.122455 0) scale(0.996264)"/>
      <use xlink:href="#NimbusRomNo9L-Regu-6c" transform="translate(516.356023 0) scale(0.996264)"/>
      <use xlink:href="#NimbusRomNo9L-Regu-6c" transform="translate(544.051193 0) scale(0.996264)"/>
     </g>
    </g>
   </g>
   <g id="line2d_117">
    <path d="M 53.546149 225.672133 
L 54.554393 219.664096 
L 55.562637 216.66008 
L 56.570881 211.074798 
L 57.579124 226.36522 
L 58.587368 225.832221 
L 59.595612 230.127319 
L 60.603856 233.604848 
L 61.6121 238.565897 
L 62.620344 236.28416 
L 63.628588 238.211579 
L 64.636832 243.853552 
L 65.645076 245.181226 
L 66.65332 235.450221 
L 67.661564 230.584718 
L 68.669808 228.151966 
L 69.678052 237.902092 
L 70.686296 231.775654 
L 71.694539 220.265894 
L 72.702783 218.127626 
L 73.711027 229.891635 
L 74.719271 238.421932 
L 75.727515 249.348647 
L 76.735759 250.86873 
L 77.744003 242.29558 
L 78.752247 239.828976 
L 79.760491 238.595675 
L 80.768735 242.44729 
L 81.776979 244.373098 
L 82.785223 245.336001 
L 83.793467 237.452579 
L 84.801711 236.019164 
L 85.809955 246.817282 
L 86.818198 244.885119 
L 87.826442 243.27038 
L 88.834686 242.463011 
L 89.84293 242.059327 
L 90.851174 241.857485 
L 91.859418 240.959742 
L 92.867662 240.51087 
L 93.875906 241.083256 
L 94.88415 241.369449 
L 96.900638 241.584094 
L 98.917126 241.637755 
L 99.92537 236.898437 
L 100.933613 235.485429 
L 101.941857 234.615595 
L 102.950101 238.69211 
L 103.958345 240.730368 
L 104.966589 241.749496 
L 105.974833 245.785841 
L 106.983077 249.098994 
L 107.991321 246.407469 
L 108.999565 236.798331 
L 110.007809 236.858689 
L 111.016053 241.065471 
L 112.024297 238.175604 
L 113.032541 236.40401 
L 114.040785 236.859858 
L 115.049028 235.512806 
L 116.057272 234.83928 
L 117.065516 234.584183 
L 118.07376 236.171608 
L 119.082004 241.841914 
L 120.090248 242.909594 
L 121.098492 236.717701 
L 122.106736 224.603557 
L 123.11498 222.419761 
L 124.123224 223.019504 
L 125.131468 227.262649 
L 126.139712 225.919273 
L 127.147956 225.247587 
L 128.1562 226.195056 
L 129.164443 226.878789 
L 130.172687 231.68892 
L 131.180931 217.772566 
L 132.189175 221.325896 
L 133.197419 237.452346 
L 134.205663 221.704261 
L 135.213907 219.663466 
L 136.222151 221.478024 
L 137.230395 226.165247 
L 138.238639 240.770342 
L 139.246883 248.072888 
L 140.255127 251.724162 
L 141.263371 254.24979 
L 142.271615 253.354302 
L 143.279859 248.893284 
L 144.288102 239.721213 
L 145.296346 234.971847 
L 146.30459 239.772056 
L 147.312834 238.695546 
L 148.321078 240.175594 
L 149.329322 240.915618 
L 150.337566 243.460264 
L 151.34581 244.732587 
L 152.354054 243.194115 
L 153.362298 242.424878 
L 154.370542 242.04026 
L 156.38703 241.751796 
L 160.420005 241.661652 
L 161.428249 224.275575 
L 162.436493 215.582535 
L 163.444737 228.619088 
L 164.452981 235.137365 
L 165.461225 238.396504 
L 166.469469 240.026073 
L 167.477713 240.840857 
L 168.485957 241.248249 
L 170.502445 241.553794 
L 171.510689 241.604717 
L 172.518932 241.106355 
L 173.527176 240.857173 
L 174.53542 240.732582 
L 175.543664 244.542394 
L 176.551908 236.997443 
L 177.560152 221.01015 
L 178.568396 209.399892 
L 179.57664 205.694731 
L 180.584884 223.675188 
L 181.593128 220.182269 
L 182.601372 230.918955 
L 183.609616 209.921026 
L 184.61786 185.422275 
L 185.626104 173.1729 
L 186.634348 181.864655 
L 188.650835 215.344732 
L 189.659079 229.451006 
L 190.667323 235.651323 
L 191.675567 241.150111 
L 192.683811 247.87778 
L 193.692055 247.006677 
L 194.700299 246.792789 
L 195.708543 248.540817 
L 196.716787 249.414831 
L 197.725031 251.286818 
L 198.733275 249.714514 
L 199.741519 249.325023 
L 200.749763 250.238594 
L 201.758006 200.914462 
L 202.76625 221.285052 
L 203.774494 231.470347 
L 204.782738 65.065556 
L 205.790982 15.696 
L 206.799226 30.093977 
L 207.80747 54.909357 
L 208.815714 67.317038 
L 209.823958 73.520896 
L 210.832202 108.938995 
L 211.840446 171.925707 
L 212.84869 186.957637 
L 213.856934 199.490197 
L 214.865178 214.156349 
L 216.881665 237.399946 
L 217.889909 243.004408 
L 218.898153 241.093377 
L 219.906397 243.416145 
L 221.922885 245.788212 
L 222.931129 218.055645 
L 223.939373 202.206061 
L 224.947617 172.814922 
L 225.955861 131.869749 
L 226.964105 113.963796 
L 227.972349 141.643595 
L 230.99708 203.114529 
L 232.005324 212.795228 
L 233.013568 228.103922 
L 234.021812 232.896479 
L 235.030056 239.597692 
L 236.0383 239.425019 
L 237.046544 229.46883 
L 238.054788 228.59734 
L 239.063032 226.131627 
L 240.071276 215.110582 
L 241.07952 226.9948 
L 242.087764 227.861985 
L 243.096008 227.630587 
L 245.112495 227.457039 
L 246.120739 229.563082 
L 247.128983 224.64286 
L 248.137227 229.684303 
L 249.145471 241.188223 
L 250.153715 243.28857 
L 251.161959 242.581772 
L 252.170203 239.598744 
L 253.178447 240.433529 
L 254.186691 242.491231 
L 255.194935 241.318614 
L 256.203179 240.732306 
L 257.211423 244.857252 
L 258.219667 244.262098 
L 259.22791 231.992368 
L 260.236154 207.424447 
L 261.244398 206.690311 
L 262.252642 215.598107 
L 263.260886 225.920249 
L 264.26913 234.977927 
L 265.277374 240.171757 
L 266.285618 237.12209 
L 267.293862 235.597256 
L 268.302106 234.624842 
L 269.31035 235.666946 
L 270.318594 240.971259 
L 271.326838 243.57675 
L 272.335082 245.159491 
L 273.343325 245.635866 
L 274.351569 245.115732 
L 275.359813 244.230341 
L 276.368057 244.949628 
L 277.376301 242.56648 
L 278.384545 241.374905 
L 279.392789 240.779117 
L 281.409277 244.942292 
L 282.417521 246.518918 
L 283.425765 246.863905 
L 284.434009 247.526391 
L 285.442253 246.305991 
L 286.450497 242.312508 
L 287.458741 240.490764 
L 288.466984 242.11852 
L 289.475228 242.758568 
L 290.483472 243.078592 
L 291.491716 249.052016 
L 292.49996 242.402207 
L 293.508204 237.198997 
L 294.516448 232.660754 
L 295.524692 230.998291 
L 296.532936 239.826913 
L 297.54118 240.741278 
L 298.549424 241.19846 
L 299.557668 240.59523 
L 300.565912 236.307175 
L 301.574156 234.163147 
L 302.582399 237.909395 
L 303.590643 232.36263 
L 304.598887 230.674231 
L 305.607131 233.831638 
L 306.615375 239.400282 
L 307.623619 243.117923 
L 308.631863 239.318495 
L 309.640107 240.236239 
L 310.648351 235.89435 
L 311.656595 240.92163 
L 312.664839 240.266652 
L 313.673083 239.939161 
L 314.681327 239.775417 
L 315.689571 244.728803 
L 316.697814 243.517718 
L 317.706058 242.586679 
L 318.714302 242.121161 
L 319.722546 241.888401 
L 320.73079 243.731993 
L 321.739034 242.693817 
L 323.755522 235.574447 
L 324.763766 234.298443 
L 325.77201 233.66044 
L 326.780254 233.551436 
L 327.788498 233.100274 
L 328.796742 234.636332 
L 329.804986 235.917687 
L 330.813229 246.089888 
L 331.821473 249.531014 
L 332.829717 250.259925 
L 333.837961 243.787815 
L 334.846205 245.125026 
L 335.854449 243.390333 
L 336.862693 242.522988 
L 337.870937 242.089315 
L 338.879181 243.984113 
L 339.887425 239.798256 
L 340.895669 238.288653 
L 341.903913 236.075539 
L 342.912157 236.403961 
L 343.920401 237.76982 
L 344.928645 236.271116 
L 345.936888 230.540172 
L 346.945132 227.674701 
L 347.953376 226.241965 
L 348.96162 230.973848 
L 349.969864 234.43644 
L 350.978108 235.502746 
L 351.986352 238.393696 
L 352.994596 245.344589 
L 354.00284 241.575144 
L 355.011084 241.434562 
L 356.019328 243.05008 
L 358.035816 241.852004 
L 359.04406 241.536826 
L 361.060547 253.339095 
L 362.068791 248.141359 
L 363.077035 244.898501 
L 364.085279 239.695458 
L 366.101767 241.027932 
L 367.110011 241.341786 
L 368.118255 246.386975 
L 369.126499 240.1247 
L 370.134743 236.993563 
L 371.142987 236.641309 
L 372.151231 242.485092 
L 373.159475 242.34103 
L 374.167718 241.998335 
L 375.175962 236.227073 
L 376.184206 236.1064 
L 377.19245 238.881021 
L 378.200694 237.351709 
L 378.200694 237.351709 
" clip-path="url(#pd726bba13e)" style="fill: none; stroke: #000000; stroke-linecap: square"/>
   </g>
   <g id="line2d_118">
    <path d="M 53.546149 231.647106 
L 54.554393 221.994831 
L 55.562637 214.793664 
L 57.579124 206.502535 
L 58.587368 230.198325 
L 59.595612 229.294151 
L 60.603856 233.196331 
L 61.6121 236.059496 
L 62.620344 241.131407 
L 63.628588 238.258519 
L 64.636832 239.557449 
L 65.645076 246.619606 
L 66.65332 248.87059 
L 67.661564 234.844477 
L 68.669808 226.52439 
L 69.678052 224.009317 
L 70.686296 238.205944 
L 71.694539 231.630709 
L 72.702783 216.103678 
L 73.711027 215.468776 
L 74.719271 232.939307 
L 76.735759 254.356161 
L 77.744003 254.989099 
L 78.752247 243.356031 
L 79.760491 238.19459 
L 80.768735 236.684051 
L 81.776979 242.445712 
L 82.785223 245.210555 
L 83.793467 246.013034 
L 84.801711 235.248237 
L 85.809955 232.702567 
L 86.818198 246.865251 
L 87.826442 245.658975 
L 88.834686 243.021264 
L 89.84293 242.213077 
L 90.851174 242.070456 
L 91.859418 241.601389 
L 92.867662 240.748703 
L 93.875906 239.612259 
L 94.88415 241.17906 
L 95.892394 241.422007 
L 97.908882 241.343281 
L 98.917126 241.424674 
L 99.92537 241.667562 
L 100.933613 236.008322 
L 101.941857 233.94314 
L 102.950101 233.545198 
L 103.958345 239.577957 
L 104.966589 243.006591 
L 105.974833 243.89948 
L 106.983077 248.384934 
L 107.991321 251.015466 
L 108.999565 246.979509 
L 110.007809 233.64407 
L 111.016053 233.776218 
L 112.024297 240.690504 
L 114.040785 235.836137 
L 115.049028 237.005521 
L 116.057272 235.134436 
L 117.065516 233.955155 
L 118.07376 233.273113 
L 119.082004 235.100338 
L 120.090248 242.787309 
L 121.098492 244.981044 
L 122.106736 236.957668 
L 123.11498 218.82445 
L 124.123224 217.147369 
L 125.131468 220.127878 
L 126.139712 227.195744 
L 127.147956 226.20689 
L 128.1562 225.5508 
L 129.164443 227.937134 
L 130.172687 229.122378 
L 131.180931 234.748506 
L 132.189175 214.399368 
L 133.197419 219.603145 
L 134.205663 242.307982 
L 135.213907 218.988405 
L 136.222151 214.493325 
L 137.230395 219.358915 
L 138.238639 227.745303 
L 139.246883 246.245157 
L 140.255127 254.048898 
L 141.263371 256.514683 
L 142.271615 257.616 
L 143.279859 256.045331 
L 144.288102 252.322204 
L 145.296346 241.490292 
L 146.30459 235.271684 
L 147.312834 238.553693 
L 148.321078 237.966871 
L 149.329322 239.556029 
L 150.337566 240.642954 
L 151.34581 243.977137 
L 152.354054 245.99154 
L 153.362298 243.96384 
L 154.370542 242.335913 
L 155.378786 241.546543 
L 156.38703 241.659021 
L 157.395274 241.586476 
L 158.403517 241.378619 
L 159.411761 240.872831 
L 160.420005 241.243514 
L 161.428249 243.451187 
L 163.444737 214.670741 
L 164.452981 230.774594 
L 165.461225 237.08504 
L 166.469469 239.482494 
L 167.477713 239.79778 
L 168.485957 239.809021 
L 169.494201 239.637103 
L 170.502445 240.197851 
L 171.510689 239.689069 
L 172.518932 239.545422 
L 173.527176 239.249223 
L 174.53542 239.264339 
L 175.543664 239.082623 
L 176.551908 240.051797 
L 177.560152 235.906121 
L 178.568396 222.753546 
L 179.57664 215.08145 
L 180.584884 212.878003 
L 181.593128 224.634361 
L 182.601372 220.485702 
L 184.61786 215.636203 
L 185.626104 208.344864 
L 186.634348 199.953645 
L 187.642591 201.414311 
L 188.650835 203.656967 
L 190.667323 209.991245 
L 191.675567 222.271181 
L 192.683811 233.129083 
L 193.692055 241.456 
L 194.700299 243.540394 
L 195.708543 244.837547 
L 196.716787 248.603822 
L 197.725031 249.112196 
L 198.733275 251.680059 
L 199.741519 249.830921 
L 200.749763 247.722543 
L 201.758006 248.598118 
L 202.76625 185.621992 
L 203.774494 217.329823 
L 204.782738 234.785095 
L 205.790982 74.398981 
L 206.799226 67.296726 
L 207.80747 93.962125 
L 208.815714 114.585109 
L 209.823958 120.651877 
L 210.832202 122.789989 
L 211.840446 149.923064 
L 212.84869 195.842562 
L 213.856934 202.3094 
L 214.865178 211.683541 
L 215.873421 224.735445 
L 217.889909 246.162607 
L 218.898153 251.421736 
L 219.906397 246.956099 
L 221.922885 246.451338 
L 222.931129 246.572482 
L 223.939373 210.732484 
L 224.947617 188.398507 
L 226.964105 121.365528 
L 227.972349 120.223356 
L 228.980593 158.668109 
L 232.005324 212.128106 
L 233.013568 221.095707 
L 234.021812 236.072122 
L 236.0383 246.873792 
L 237.046544 245.411839 
L 238.054788 230.419001 
L 240.071276 222.938986 
L 241.07952 207.210019 
L 242.087764 226.888796 
L 243.096008 228.809429 
L 244.104252 227.042815 
L 245.112495 225.984993 
L 246.120739 225.486102 
L 247.128983 228.102958 
L 248.137227 221.392599 
L 249.145471 228.584319 
L 250.153715 243.828272 
L 251.161959 247.145685 
L 252.170203 245.479523 
L 253.178447 240.78508 
L 254.186691 240.513412 
L 255.194935 243.55675 
L 256.203179 242.070315 
L 257.211423 240.015217 
L 258.219667 244.776414 
L 259.22791 243.738129 
L 260.236154 226.481519 
L 261.244398 188.763864 
L 262.252642 196.122351 
L 264.26913 229.769602 
L 265.277374 240.881915 
L 266.285618 245.714247 
L 267.293862 239.538097 
L 268.302106 235.093481 
L 269.31035 232.877644 
L 270.318594 234.444333 
L 271.326838 242.354799 
L 272.335082 245.716351 
L 273.343325 246.83513 
L 274.351569 246.438635 
L 276.368057 243.390975 
L 277.376301 243.848241 
L 278.384545 240.275215 
L 279.392789 238.539343 
L 280.401033 237.881564 
L 281.409277 241.219747 
L 282.417521 245.088935 
L 283.425765 247.408895 
L 285.442253 246.363195 
L 286.450497 244.403592 
L 287.458741 238.923204 
L 288.466984 236.173906 
L 289.475228 238.681383 
L 290.483472 240.323878 
L 291.491716 241.104274 
L 292.49996 248.785647 
L 294.516448 232.397371 
L 295.524692 226.924555 
L 296.532936 226.276317 
L 297.54118 240.044156 
L 298.549424 241.510078 
L 299.557668 241.329636 
L 300.565912 239.6638 
L 301.574156 233.109711 
L 302.582399 229.728677 
L 303.590643 235.979742 
L 304.598887 228.25096 
L 305.607131 225.146311 
L 306.615375 230.535105 
L 307.623619 239.149634 
L 308.631863 244.128859 
L 309.640107 238.149729 
L 310.648351 238.173526 
L 311.656595 232.006556 
L 312.664839 238.350524 
L 313.673083 238.225446 
L 314.681327 237.612303 
L 315.689571 237.25278 
L 316.697814 243.987005 
L 317.706058 242.320756 
L 318.714302 239.802791 
L 319.722546 238.594025 
L 320.73079 238.344766 
L 321.739034 241.015804 
L 322.747278 240.441884 
L 324.763766 230.109709 
L 325.77201 228.996892 
L 326.780254 229.190805 
L 327.788498 229.944151 
L 328.796742 230.069321 
L 329.804986 232.674898 
L 330.813229 234.584051 
L 331.821473 247.570404 
L 332.829717 251.895815 
L 333.837961 251.764906 
L 334.846205 242.329792 
L 335.854449 242.530331 
L 336.862693 240.897782 
L 337.870937 240.243486 
L 338.879181 240.23082 
L 339.887425 243.084918 
L 340.895669 238.144996 
L 341.903913 236.056466 
L 342.912157 233.401588 
L 343.920401 233.914101 
L 344.928645 236.187294 
L 345.936888 234.295537 
L 346.945132 226.122282 
L 347.953376 222.759877 
L 348.96162 222.451559 
L 349.969864 230.790679 
L 350.978108 235.951955 
L 351.986352 236.642681 
L 352.994596 239.519275 
L 354.00284 247.703475 
L 355.011084 242.520278 
L 356.019328 240.563369 
L 357.027572 242.284373 
L 358.035816 241.554219 
L 359.04406 240.541422 
L 360.052303 240.075508 
L 362.068791 255.002183 
L 364.085279 243.065214 
L 365.093523 235.598469 
L 366.101767 237.176844 
L 367.110011 239.447595 
L 368.118255 240.601578 
L 369.126499 246.868211 
L 370.134743 239.294722 
L 371.142987 234.430454 
L 372.151231 234.662944 
L 373.159475 242.638865 
L 374.167718 242.940527 
L 375.175962 241.863325 
L 376.184206 234.056944 
L 377.19245 233.844582 
L 378.200694 238.125663 
L 378.200694 238.125663 
" clip-path="url(#pd726bba13e)" style="fill: none; stroke-dasharray: 3.7,1.6; stroke-dashoffset: 0; stroke: #ff0000"/>
   </g>
   <g id="patch_3">
    <path d="M 37.313421 269.712 
L 37.313421 3.6 
" style="fill: none; stroke: #000000; stroke-width: 0.5; stroke-linejoin: miter; stroke-linecap: square"/>
   </g>
   <g id="patch_4">
    <path d="M 394.433421 269.712 
L 394.433421 3.6 
" style="fill: none; stroke: #000000; stroke-width: 0.5; stroke-linejoin: miter; stroke-linecap: square"/>
   </g>
   <g id="patch_5">
    <path d="M 37.313421 269.712 
L 394.433421 269.712 
" style="fill: none; stroke: #000000; stroke-width: 0.5; stroke-linejoin: miter; stroke-linecap: square"/>
   </g>
   <g id="patch_6">
    <path d="M 37.313421 3.6 
L 394.433421 3.6 
" style="fill: none; stroke: #000000; stroke-width: 0.5; stroke-linejoin: miter; stroke-linecap: square"/>
   </g>
   <g id="legend_1">
    <g id="line2d_119">
     <path d="M 280.884847 13.6 
L 288.884847 13.6 
L 296.884847 13.6 
" style="fill: none; stroke: #000000; stroke-linecap: square"/>
    </g>
    <g id="text_16">
     <!-- outflow and inflow actual -->
     <g transform="translate(303.284847 16.4) scale(0.08 -0.08)">
      <defs>
       <path id="NimbusRomNo9L-Regu-6f" d="M 1600 2944 
C 768 2944 186 2330 186 1446 
C 186 582 781 -64 1587 -64 
C 2394 -64 3008 614 3008 1498 
C 3008 2336 2419 2944 1600 2944 
z
M 1517 2765 
C 2054 2765 2432 2150 2432 1274 
C 2432 550 2144 115 1664 115 
C 1414 115 1178 269 1043 525 
C 864 858 762 1306 762 1760 
C 762 2368 1062 2765 1517 2765 
z
" transform="scale(0.015625)"/>
       <path id="NimbusRomNo9L-Regu-75" d="M 3066 320 
L 3034 320 
C 2739 320 2669 390 2669 685 
L 2669 2880 
L 1658 2880 
L 1658 2758 
C 2054 2758 2131 2694 2131 2375 
L 2131 875 
C 2131 697 2099 607 2010 537 
C 1837 397 1638 320 1446 320 
C 1197 320 992 537 992 805 
L 992 2880 
L 58 2880 
L 58 2778 
C 365 2778 454 2682 454 2387 
L 454 770 
C 454 263 762 -64 1229 -64 
C 1466 -64 1715 38 1888 211 
L 2163 486 
L 2163 -45 
L 2189 -58 
C 2509 70 2739 141 3066 230 
L 3066 320 
z
" transform="scale(0.015625)"/>
       <path id="NimbusRomNo9L-Regu-3" d="M 205 2675 
L 646 2675 
L 646 637 
C 646 344 608 181 518 122 
C 454 77 390 64 205 64 
L 205 -38 
L 1638 -38 
L 1638 58 
C 1274 97 1184 175 1184 474 
L 1184 2675 
L 2387 2675 
L 2387 507 
C 2387 188 2291 84 1958 58 
L 1958 -38 
L 3334 -38 
L 3334 58 
C 2989 84 2925 148 2925 482 
L 2925 4339 
L 2893 4352 
C 2842 4346 2771 4320 2694 4282 
C 2573 4224 2483 4192 2426 4192 
C 2394 4192 2330 4211 2234 4243 
C 2054 4314 1869 4352 1715 4352 
C 1414 4352 1120 4201 941 3954 
C 749 3683 685 3436 659 2880 
L 205 2880 
L 205 2675 
z
M 2387 2880 
L 1184 2880 
L 1184 3208 
C 1184 3864 1318 4179 1600 4179 
C 1741 4179 1818 4129 1933 3958 
C 2054 3782 2138 3726 2285 3726 
C 2330 3726 2355 3738 2387 3770 
L 2387 2880 
z
" transform="scale(0.015625)"/>
       <path id="NimbusRomNo9L-Regu-77" d="M 3654 2912 
L 3654 2816 
C 3872 2771 3936 2726 3936 2618 
C 3936 2521 3898 2367 3827 2194 
L 3251 770 
L 2714 2207 
C 2605 2501 2605 2501 2605 2586 
C 2605 2726 2675 2771 2976 2816 
L 2976 2912 
L 1677 2912 
L 1677 2816 
C 1914 2790 1990 2720 2118 2373 
C 2163 2252 2208 2129 2246 2014 
L 1664 738 
L 1030 2412 
C 1005 2476 992 2540 992 2605 
C 992 2739 1069 2790 1286 2816 
L 1286 2912 
L 134 2912 
L 134 2816 
C 282 2803 333 2739 474 2412 
L 1338 219 
C 1414 26 1466 -64 1504 -64 
C 1536 -64 1587 20 1664 186 
L 2381 1725 
L 2963 212 
C 3053 -25 3078 -64 3117 -64 
C 3162 -64 3194 -6 3296 251 
L 4179 2469 
C 4294 2739 4314 2771 4442 2816 
L 4442 2912 
L 3654 2912 
z
" transform="scale(0.015625)"/>
       <path id="NimbusRomNo9L-Regu-63" d="M 2547 998 
C 2240 550 2010 397 1645 397 
C 1062 397 653 909 653 1645 
C 653 2304 1005 2758 1523 2758 
C 1754 2758 1837 2688 1901 2451 
L 1939 2310 
C 1990 2131 2106 2016 2240 2016 
C 2406 2016 2547 2138 2547 2285 
C 2547 2643 2099 2944 1562 2944 
C 1248 2944 922 2816 659 2586 
C 339 2304 160 1869 160 1363 
C 160 531 666 -64 1376 -64 
C 1664 -64 1920 38 2150 237 
C 2323 390 2445 563 2637 941 
L 2547 998 
z
" transform="scale(0.015625)"/>
      </defs>
      <use xlink:href="#NimbusRomNo9L-Regu-6f" transform="scale(0.996264)"/>
      <use xlink:href="#NimbusRomNo9L-Regu-75" transform="translate(49.8132 0) scale(0.996264)"/>
      <use xlink:href="#NimbusRomNo9L-Regu-74" transform="translate(99.626401 0) scale(0.996264)"/>
      <use xlink:href="#NimbusRomNo9L-Regu-3" transform="translate(127.321571 0) scale(0.996264)"/>
      <use xlink:href="#NimbusRomNo9L-Regu-6f" transform="translate(182.713248 0) scale(0.996264)"/>
      <use xlink:href="#NimbusRomNo9L-Regu-77" transform="translate(230.035818 0) scale(0.996264)"/>
      <use xlink:href="#NimbusRomNo9L-Regu-61" transform="translate(326.872404 0) scale(0.996264)"/>
      <use xlink:href="#NimbusRomNo9L-Regu-6e" transform="translate(371.105972 0) scale(0.996264)"/>
      <use xlink:href="#NimbusRomNo9L-Regu-64" transform="translate(420.919173 0) scale(0.996264)"/>
      <use xlink:href="#NimbusRomNo9L-Regu-69" transform="translate(495.638973 0) scale(0.996264)"/>
      <use xlink:href="#NimbusRomNo9L-Regu-6e" transform="translate(523.334143 0) scale(0.996264)"/>
      <use xlink:href="#NimbusRomNo9L-Regu-3" transform="translate(573.147344 0) scale(0.996264)"/>
      <use xlink:href="#NimbusRomNo9L-Regu-6f" transform="translate(628.539021 0) scale(0.996264)"/>
      <use xlink:href="#NimbusRomNo9L-Regu-77" transform="translate(675.861591 0) scale(0.996264)"/>
      <use xlink:href="#NimbusRomNo9L-Regu-61" transform="translate(772.698177 0) scale(0.996264)"/>
      <use xlink:href="#NimbusRomNo9L-Regu-63" transform="translate(816.931745 0) scale(0.996264)"/>
      <use xlink:href="#NimbusRomNo9L-Regu-74" transform="translate(861.165314 0) scale(0.996264)"/>
      <use xlink:href="#NimbusRomNo9L-Regu-75" transform="translate(888.860484 0) scale(0.996264)"/>
      <use xlink:href="#NimbusRomNo9L-Regu-61" transform="translate(938.673684 0) scale(0.996264)"/>
      <use xlink:href="#NimbusRomNo9L-Regu-6c" transform="translate(982.907253 0) scale(0.996264)"/>
     </g>
    </g>
    <g id="line2d_120">
     <path d="M 280.884847 24.925463 
L 288.884847 24.925463 
L 296.884847 24.925463 
" style="fill: none; stroke-dasharray: 3.7,1.6; stroke-dashoffset: 0; stroke: #ff0000"/>
    </g>
    <g id="text_17">
     <!-- outflow and inflow predict -->
     <g transform="translate(303.284847 27.725463) scale(0.08 -0.08)">
      <defs>
       <path id="NimbusRomNo9L-Regu-65" d="M 2611 1053 
C 2304 564 2029 378 1619 378 
C 1254 378 979 564 794 930 
C 678 1174 634 1386 621 1779 
L 2592 1779 
C 2541 2193 2477 2377 2317 2581 
C 2125 2811 1830 2944 1498 2944 
C 1178 2944 877 2829 634 2611 
C 333 2349 160 1894 160 1370 
C 160 486 621 -64 1357 -64 
C 1965 -64 2445 315 2714 1008 
L 2611 1053 
z
M 634 1984 
C 704 2479 922 2714 1312 2714 
C 1702 2714 1856 2535 1939 1984 
L 634 1984 
z
" transform="scale(0.015625)"/>
      </defs>
      <use xlink:href="#NimbusRomNo9L-Regu-6f" transform="scale(0.996264)"/>
      <use xlink:href="#NimbusRomNo9L-Regu-75" transform="translate(49.8132 0) scale(0.996264)"/>
      <use xlink:href="#NimbusRomNo9L-Regu-74" transform="translate(99.626401 0) scale(0.996264)"/>
      <use xlink:href="#NimbusRomNo9L-Regu-3" transform="translate(127.321571 0) scale(0.996264)"/>
      <use xlink:href="#NimbusRomNo9L-Regu-6f" transform="translate(182.713248 0) scale(0.996264)"/>
      <use xlink:href="#NimbusRomNo9L-Regu-77" transform="translate(230.035818 0) scale(0.996264)"/>
      <use xlink:href="#NimbusRomNo9L-Regu-61" transform="translate(326.872404 0) scale(0.996264)"/>
      <use xlink:href="#NimbusRomNo9L-Regu-6e" transform="translate(371.105972 0) scale(0.996264)"/>
      <use xlink:href="#NimbusRomNo9L-Regu-64" transform="translate(420.919173 0) scale(0.996264)"/>
      <use xlink:href="#NimbusRomNo9L-Regu-69" transform="translate(495.638973 0) scale(0.996264)"/>
      <use xlink:href="#NimbusRomNo9L-Regu-6e" transform="translate(523.334143 0) scale(0.996264)"/>
      <use xlink:href="#NimbusRomNo9L-Regu-3" transform="translate(573.147344 0) scale(0.996264)"/>
      <use xlink:href="#NimbusRomNo9L-Regu-6f" transform="translate(628.539021 0) scale(0.996264)"/>
      <use xlink:href="#NimbusRomNo9L-Regu-77" transform="translate(675.861591 0) scale(0.996264)"/>
      <use xlink:href="#NimbusRomNo9L-Regu-70" transform="translate(772.698177 0) scale(0.996264)"/>
      <use xlink:href="#NimbusRomNo9L-Regu-72" transform="translate(822.511377 0) scale(0.996264)"/>
      <use xlink:href="#NimbusRomNo9L-Regu-65" transform="translate(855.686607 0) scale(0.996264)"/>
      <use xlink:href="#NimbusRomNo9L-Regu-64" transform="translate(899.920175 0) scale(0.996264)"/>
      <use xlink:href="#NimbusRomNo9L-Regu-69" transform="translate(949.733376 0) scale(0.996264)"/>
      <use xlink:href="#NimbusRomNo9L-Regu-63" transform="translate(977.428546 0) scale(0.996264)"/>
      <use xlink:href="#NimbusRomNo9L-Regu-74" transform="translate(1021.662114 0) scale(0.996264)"/>
     </g>
    </g>
   </g>
  </g>
 </g>
 <defs>
  <clipPath id="pd726bba13e">
   <rect x="37.313421" y="3.6" width="357.12" height="266.112"/>
  </clipPath>
 </defs>
</svg>
