<?xml version="1.0" encoding="utf-8" standalone="no"?>
<!DOCTYPE svg PUBLIC "-//W3C//DTD SVG 1.1//EN"
  "http://www.w3.org/Graphics/SVG/1.1/DTD/svg11.dtd">
<svg xmlns:xlink="http://www.w3.org/1999/xlink" width="396.150316pt" height="302.199372pt" viewBox="0 0 396.150316 302.199372" xmlns="http://www.w3.org/2000/svg" version="1.1">
 <metadata>
  <rdf:RDF xmlns:dc="http://purl.org/dc/elements/1.1/" xmlns:cc="http://creativecommons.org/ns#" xmlns:rdf="http://www.w3.org/1999/02/22-rdf-syntax-ns#">
   <cc:Work>
    <dc:type rdf:resource="http://purl.org/dc/dcmitype/StillImage"/>
    <dc:date>2024-03-16T22:26:13.350742</dc:date>
    <dc:format>image/svg+xml</dc:format>
    <dc:creator>
     <cc:Agent>
      <dc:title>Matplotlib v3.8.3, https://matplotlib.org/</dc:title>
     </cc:Agent>
    </dc:creator>
   </cc:Work>
  </rdf:RDF>
 </metadata>
 <defs>
  <style type="text/css">*{stroke-linejoin: round; stroke-linecap: butt}</style>
 </defs>
 <g id="figure_1">
  <g id="patch_1">
   <path d="M 0 302.199372 
L 396.150316 302.199372 
L 396.150316 0 
L 0 0 
z
" style="fill: #ffffff"/>
  </g>
  <g id="axes_1">
   <g id="patch_2">
    <path d="M 33.328365 269.712 
L 390.448365 269.712 
L 390.448365 3.6 
L 33.328365 3.6 
z
" style="fill: #ffffff"/>
   </g>
   <g id="matplotlib.axis_1">
    <g id="xtick_1">
     <g id="line2d_1">
      <defs>
       <path id="m1b9dbb3b64" d="M 0 0 
L 0 -3 
" style="stroke: #000000; stroke-width: 0.5"/>
      </defs>
      <g>
       <use xlink:href="#m1b9dbb3b64" x="49.561093" y="269.712" style="stroke: #000000; stroke-width: 0.5"/>
      </g>
     </g>
     <g id="line2d_2">
      <defs>
       <path id="m6e4a277be5" d="M 0 0 
L 0 3 
" style="stroke: #000000; stroke-width: 0.5"/>
      </defs>
      <g>
       <use xlink:href="#m6e4a277be5" x="49.561093" y="3.6" style="stroke: #000000; stroke-width: 0.5"/>
      </g>
     </g>
     <g id="text_1">
      <!-- $\mathdefault{0}$ -->
      <g transform="translate(47.568565 278.615656) scale(0.08 -0.08)">
       <defs>
        <path id="NimbusRomNo9L-Regu-30" d="M 1626 4352 
C 1274 4352 1005 4244 768 4020 
C 397 3661 154 2925 154 2176 
C 154 1479 365 730 666 372 
C 902 90 1229 -64 1600 -64 
C 1926 -64 2202 45 2432 269 
C 2803 621 3046 1364 3046 2138 
C 3046 3450 2464 4352 1626 4352 
z
M 1606 4186 
C 2144 4186 2432 3463 2432 2125 
C 2432 788 2150 103 1600 103 
C 1050 103 768 788 768 2119 
C 768 3476 1056 4186 1606 4186 
z
" transform="scale(0.015625)"/>
       </defs>
       <use xlink:href="#NimbusRomNo9L-Regu-30" transform="scale(0.996264)"/>
      </g>
     </g>
    </g>
    <g id="xtick_2">
     <g id="line2d_3">
      <g>
       <use xlink:href="#m1b9dbb3b64" x="105.729699" y="269.712" style="stroke: #000000; stroke-width: 0.5"/>
      </g>
     </g>
     <g id="line2d_4">
      <g>
       <use xlink:href="#m6e4a277be5" x="105.729699" y="3.6" style="stroke: #000000; stroke-width: 0.5"/>
      </g>
     </g>
     <g id="text_2">
      <!-- $\mathdefault{50}$ -->
      <g transform="translate(101.744643 278.615656) scale(0.08 -0.08)">
       <defs>
        <path id="NimbusRomNo9L-Regu-35" d="M 1158 3776 
L 2413 3776 
C 2515 3776 2541 3789 2560 3834 
L 2803 4403 
L 2746 4448 
C 2650 4314 2586 4282 2451 4282 
L 1114 4282 
L 416 2759 
C 410 2746 410 2740 410 2727 
C 410 2695 435 2676 486 2676 
C 691 2676 947 2631 1210 2547 
C 1946 2309 2285 1910 2285 1274 
C 2285 656 1894 173 1395 173 
C 1267 173 1158 218 966 360 
C 762 508 614 572 480 572 
C 294 572 205 495 205 334 
C 205 90 506 -64 986 -64 
C 1523 -64 1984 110 2304 438 
C 2598 728 2733 1094 2733 1583 
C 2733 2046 2611 2342 2291 2663 
C 2010 2947 1645 3094 890 3229 
L 1158 3776 
z
" transform="scale(0.015625)"/>
       </defs>
       <use xlink:href="#NimbusRomNo9L-Regu-35" transform="scale(0.996264)"/>
       <use xlink:href="#NimbusRomNo9L-Regu-30" transform="translate(49.8132 0) scale(0.996264)"/>
      </g>
     </g>
    </g>
    <g id="xtick_3">
     <g id="line2d_5">
      <g>
       <use xlink:href="#m1b9dbb3b64" x="161.898306" y="269.712" style="stroke: #000000; stroke-width: 0.5"/>
      </g>
     </g>
     <g id="line2d_6">
      <g>
       <use xlink:href="#m6e4a277be5" x="161.898306" y="3.6" style="stroke: #000000; stroke-width: 0.5"/>
      </g>
     </g>
     <g id="text_3">
      <!-- $\mathdefault{100}$ -->
      <g transform="translate(155.920722 278.615656) scale(0.08 -0.08)">
       <defs>
        <path id="NimbusRomNo9L-Regu-31" d="M 1862 4339 
L 710 3757 
L 710 3667 
C 787 3699 858 3725 883 3738 
C 998 3783 1107 3808 1171 3808 
C 1306 3808 1363 3711 1363 3505 
L 1363 592 
C 1363 379 1312 232 1210 173 
C 1114 116 1024 96 755 96 
L 755 0 
L 2522 0 
L 2522 96 
C 2016 96 1914 160 1914 470 
L 1914 4327 
L 1862 4339 
z
" transform="scale(0.015625)"/>
       </defs>
       <use xlink:href="#NimbusRomNo9L-Regu-31" transform="scale(0.996264)"/>
       <use xlink:href="#NimbusRomNo9L-Regu-30" transform="translate(49.8132 0) scale(0.996264)"/>
       <use xlink:href="#NimbusRomNo9L-Regu-30" transform="translate(99.626401 0) scale(0.996264)"/>
      </g>
     </g>
    </g>
    <g id="xtick_4">
     <g id="line2d_7">
      <g>
       <use xlink:href="#m1b9dbb3b64" x="218.066912" y="269.712" style="stroke: #000000; stroke-width: 0.5"/>
      </g>
     </g>
     <g id="line2d_8">
      <g>
       <use xlink:href="#m6e4a277be5" x="218.066912" y="3.6" style="stroke: #000000; stroke-width: 0.5"/>
      </g>
     </g>
     <g id="text_4">
      <!-- $\mathdefault{150}$ -->
      <g transform="translate(212.089328 278.615656) scale(0.08 -0.08)">
       <use xlink:href="#NimbusRomNo9L-Regu-31" transform="scale(0.996264)"/>
       <use xlink:href="#NimbusRomNo9L-Regu-35" transform="translate(49.8132 0) scale(0.996264)"/>
       <use xlink:href="#NimbusRomNo9L-Regu-30" transform="translate(99.626401 0) scale(0.996264)"/>
      </g>
     </g>
    </g>
    <g id="xtick_5">
     <g id="line2d_9">
      <g>
       <use xlink:href="#m1b9dbb3b64" x="274.235519" y="269.712" style="stroke: #000000; stroke-width: 0.5"/>
      </g>
     </g>
     <g id="line2d_10">
      <g>
       <use xlink:href="#m6e4a277be5" x="274.235519" y="3.6" style="stroke: #000000; stroke-width: 0.5"/>
      </g>
     </g>
     <g id="text_5">
      <!-- $\mathdefault{200}$ -->
      <g transform="translate(268.257935 278.615656) scale(0.08 -0.08)">
       <defs>
        <path id="NimbusRomNo9L-Regu-32" d="M 3040 875 
L 2957 907 
C 2720 544 2637 486 2349 486 
L 819 486 
L 1894 1609 
C 2464 2202 2714 2687 2714 3185 
C 2714 3823 2195 4313 1530 4313 
C 1178 4313 845 4173 608 3918 
C 403 3700 307 3496 198 3043 
L 333 3011 
C 589 3636 819 3840 1261 3840 
C 1798 3840 2163 3476 2163 2940 
C 2163 2443 1869 1850 1331 1282 
L 192 77 
L 192 0 
L 2688 0 
L 3040 875 
z
" transform="scale(0.015625)"/>
       </defs>
       <use xlink:href="#NimbusRomNo9L-Regu-32" transform="scale(0.996264)"/>
       <use xlink:href="#NimbusRomNo9L-Regu-30" transform="translate(49.8132 0) scale(0.996264)"/>
       <use xlink:href="#NimbusRomNo9L-Regu-30" transform="translate(99.626401 0) scale(0.996264)"/>
      </g>
     </g>
    </g>
    <g id="xtick_6">
     <g id="line2d_11">
      <g>
       <use xlink:href="#m1b9dbb3b64" x="330.404125" y="269.712" style="stroke: #000000; stroke-width: 0.5"/>
      </g>
     </g>
     <g id="line2d_12">
      <g>
       <use xlink:href="#m6e4a277be5" x="330.404125" y="3.6" style="stroke: #000000; stroke-width: 0.5"/>
      </g>
     </g>
     <g id="text_6">
      <!-- $\mathdefault{250}$ -->
      <g transform="translate(324.426541 278.615656) scale(0.08 -0.08)">
       <use xlink:href="#NimbusRomNo9L-Regu-32" transform="scale(0.996264)"/>
       <use xlink:href="#NimbusRomNo9L-Regu-35" transform="translate(49.8132 0) scale(0.996264)"/>
       <use xlink:href="#NimbusRomNo9L-Regu-30" transform="translate(99.626401 0) scale(0.996264)"/>
      </g>
     </g>
    </g>
    <g id="xtick_7">
     <g id="line2d_13">
      <g>
       <use xlink:href="#m1b9dbb3b64" x="386.572732" y="269.712" style="stroke: #000000; stroke-width: 0.5"/>
      </g>
     </g>
     <g id="line2d_14">
      <g>
       <use xlink:href="#m6e4a277be5" x="386.572732" y="3.6" style="stroke: #000000; stroke-width: 0.5"/>
      </g>
     </g>
     <g id="text_7">
      <!-- $\mathdefault{300}$ -->
      <g transform="translate(380.595148 278.615656) scale(0.08 -0.08)">
       <defs>
        <path id="NimbusRomNo9L-Regu-33" d="M 979 2138 
C 1357 2138 1504 2125 1658 2068 
C 2054 1927 2304 1562 2304 1120 
C 2304 583 1939 167 1466 167 
C 1293 167 1165 212 928 365 
C 736 480 627 525 518 525 
C 371 525 275 436 275 301 
C 275 77 550 -64 998 -64 
C 1491 -64 1997 103 2298 365 
C 2598 628 2765 999 2765 1428 
C 2765 1754 2662 2055 2477 2253 
C 2349 2394 2227 2471 1946 2592 
C 2387 2893 2547 3130 2547 3476 
C 2547 3994 2138 4352 1549 4352 
C 1229 4352 947 4244 717 4039 
C 525 3866 429 3699 288 3315 
L 384 3290 
C 646 3757 934 3968 1338 3968 
C 1754 3968 2042 3687 2042 3284 
C 2042 3053 1946 2823 1786 2663 
C 1594 2471 1414 2375 979 2221 
L 979 2138 
z
" transform="scale(0.015625)"/>
       </defs>
       <use xlink:href="#NimbusRomNo9L-Regu-33" transform="scale(0.996264)"/>
       <use xlink:href="#NimbusRomNo9L-Regu-30" transform="translate(49.8132 0) scale(0.996264)"/>
       <use xlink:href="#NimbusRomNo9L-Regu-30" transform="translate(99.626401 0) scale(0.996264)"/>
      </g>
     </g>
    </g>
    <g id="xtick_8">
     <g id="line2d_15">
      <defs>
       <path id="md4985ccc69" d="M 0 0 
L 0 -1.5 
" style="stroke: #000000; stroke-width: 0.5"/>
      </defs>
      <g>
       <use xlink:href="#md4985ccc69" x="38.327371" y="269.712" style="stroke: #000000; stroke-width: 0.5"/>
      </g>
     </g>
     <g id="line2d_16">
      <defs>
       <path id="m3a6ebde09a" d="M 0 0 
L 0 1.5 
" style="stroke: #000000; stroke-width: 0.5"/>
      </defs>
      <g>
       <use xlink:href="#m3a6ebde09a" x="38.327371" y="3.6" style="stroke: #000000; stroke-width: 0.5"/>
      </g>
     </g>
    </g>
    <g id="xtick_9">
     <g id="line2d_17">
      <g>
       <use xlink:href="#md4985ccc69" x="60.794814" y="269.712" style="stroke: #000000; stroke-width: 0.5"/>
      </g>
     </g>
     <g id="line2d_18">
      <g>
       <use xlink:href="#m3a6ebde09a" x="60.794814" y="3.6" style="stroke: #000000; stroke-width: 0.5"/>
      </g>
     </g>
    </g>
    <g id="xtick_10">
     <g id="line2d_19">
      <g>
       <use xlink:href="#md4985ccc69" x="72.028535" y="269.712" style="stroke: #000000; stroke-width: 0.5"/>
      </g>
     </g>
     <g id="line2d_20">
      <g>
       <use xlink:href="#m3a6ebde09a" x="72.028535" y="3.6" style="stroke: #000000; stroke-width: 0.5"/>
      </g>
     </g>
    </g>
    <g id="xtick_11">
     <g id="line2d_21">
      <g>
       <use xlink:href="#md4985ccc69" x="83.262257" y="269.712" style="stroke: #000000; stroke-width: 0.5"/>
      </g>
     </g>
     <g id="line2d_22">
      <g>
       <use xlink:href="#m3a6ebde09a" x="83.262257" y="3.6" style="stroke: #000000; stroke-width: 0.5"/>
      </g>
     </g>
    </g>
    <g id="xtick_12">
     <g id="line2d_23">
      <g>
       <use xlink:href="#md4985ccc69" x="94.495978" y="269.712" style="stroke: #000000; stroke-width: 0.5"/>
      </g>
     </g>
     <g id="line2d_24">
      <g>
       <use xlink:href="#m3a6ebde09a" x="94.495978" y="3.6" style="stroke: #000000; stroke-width: 0.5"/>
      </g>
     </g>
    </g>
    <g id="xtick_13">
     <g id="line2d_25">
      <g>
       <use xlink:href="#md4985ccc69" x="116.96342" y="269.712" style="stroke: #000000; stroke-width: 0.5"/>
      </g>
     </g>
     <g id="line2d_26">
      <g>
       <use xlink:href="#m3a6ebde09a" x="116.96342" y="3.6" style="stroke: #000000; stroke-width: 0.5"/>
      </g>
     </g>
    </g>
    <g id="xtick_14">
     <g id="line2d_27">
      <g>
       <use xlink:href="#md4985ccc69" x="128.197142" y="269.712" style="stroke: #000000; stroke-width: 0.5"/>
      </g>
     </g>
     <g id="line2d_28">
      <g>
       <use xlink:href="#m3a6ebde09a" x="128.197142" y="3.6" style="stroke: #000000; stroke-width: 0.5"/>
      </g>
     </g>
    </g>
    <g id="xtick_15">
     <g id="line2d_29">
      <g>
       <use xlink:href="#md4985ccc69" x="139.430863" y="269.712" style="stroke: #000000; stroke-width: 0.5"/>
      </g>
     </g>
     <g id="line2d_30">
      <g>
       <use xlink:href="#m3a6ebde09a" x="139.430863" y="3.6" style="stroke: #000000; stroke-width: 0.5"/>
      </g>
     </g>
    </g>
    <g id="xtick_16">
     <g id="line2d_31">
      <g>
       <use xlink:href="#md4985ccc69" x="150.664584" y="269.712" style="stroke: #000000; stroke-width: 0.5"/>
      </g>
     </g>
     <g id="line2d_32">
      <g>
       <use xlink:href="#m3a6ebde09a" x="150.664584" y="3.6" style="stroke: #000000; stroke-width: 0.5"/>
      </g>
     </g>
    </g>
    <g id="xtick_17">
     <g id="line2d_33">
      <g>
       <use xlink:href="#md4985ccc69" x="173.132027" y="269.712" style="stroke: #000000; stroke-width: 0.5"/>
      </g>
     </g>
     <g id="line2d_34">
      <g>
       <use xlink:href="#m3a6ebde09a" x="173.132027" y="3.6" style="stroke: #000000; stroke-width: 0.5"/>
      </g>
     </g>
    </g>
    <g id="xtick_18">
     <g id="line2d_35">
      <g>
       <use xlink:href="#md4985ccc69" x="184.365748" y="269.712" style="stroke: #000000; stroke-width: 0.5"/>
      </g>
     </g>
     <g id="line2d_36">
      <g>
       <use xlink:href="#m3a6ebde09a" x="184.365748" y="3.6" style="stroke: #000000; stroke-width: 0.5"/>
      </g>
     </g>
    </g>
    <g id="xtick_19">
     <g id="line2d_37">
      <g>
       <use xlink:href="#md4985ccc69" x="195.59947" y="269.712" style="stroke: #000000; stroke-width: 0.5"/>
      </g>
     </g>
     <g id="line2d_38">
      <g>
       <use xlink:href="#m3a6ebde09a" x="195.59947" y="3.6" style="stroke: #000000; stroke-width: 0.5"/>
      </g>
     </g>
    </g>
    <g id="xtick_20">
     <g id="line2d_39">
      <g>
       <use xlink:href="#md4985ccc69" x="206.833191" y="269.712" style="stroke: #000000; stroke-width: 0.5"/>
      </g>
     </g>
     <g id="line2d_40">
      <g>
       <use xlink:href="#m3a6ebde09a" x="206.833191" y="3.6" style="stroke: #000000; stroke-width: 0.5"/>
      </g>
     </g>
    </g>
    <g id="xtick_21">
     <g id="line2d_41">
      <g>
       <use xlink:href="#md4985ccc69" x="229.300633" y="269.712" style="stroke: #000000; stroke-width: 0.5"/>
      </g>
     </g>
     <g id="line2d_42">
      <g>
       <use xlink:href="#m3a6ebde09a" x="229.300633" y="3.6" style="stroke: #000000; stroke-width: 0.5"/>
      </g>
     </g>
    </g>
    <g id="xtick_22">
     <g id="line2d_43">
      <g>
       <use xlink:href="#md4985ccc69" x="240.534355" y="269.712" style="stroke: #000000; stroke-width: 0.5"/>
      </g>
     </g>
     <g id="line2d_44">
      <g>
       <use xlink:href="#m3a6ebde09a" x="240.534355" y="3.6" style="stroke: #000000; stroke-width: 0.5"/>
      </g>
     </g>
    </g>
    <g id="xtick_23">
     <g id="line2d_45">
      <g>
       <use xlink:href="#md4985ccc69" x="251.768076" y="269.712" style="stroke: #000000; stroke-width: 0.5"/>
      </g>
     </g>
     <g id="line2d_46">
      <g>
       <use xlink:href="#m3a6ebde09a" x="251.768076" y="3.6" style="stroke: #000000; stroke-width: 0.5"/>
      </g>
     </g>
    </g>
    <g id="xtick_24">
     <g id="line2d_47">
      <g>
       <use xlink:href="#md4985ccc69" x="263.001797" y="269.712" style="stroke: #000000; stroke-width: 0.5"/>
      </g>
     </g>
     <g id="line2d_48">
      <g>
       <use xlink:href="#m3a6ebde09a" x="263.001797" y="3.6" style="stroke: #000000; stroke-width: 0.5"/>
      </g>
     </g>
    </g>
    <g id="xtick_25">
     <g id="line2d_49">
      <g>
       <use xlink:href="#md4985ccc69" x="285.46924" y="269.712" style="stroke: #000000; stroke-width: 0.5"/>
      </g>
     </g>
     <g id="line2d_50">
      <g>
       <use xlink:href="#m3a6ebde09a" x="285.46924" y="3.6" style="stroke: #000000; stroke-width: 0.5"/>
      </g>
     </g>
    </g>
    <g id="xtick_26">
     <g id="line2d_51">
      <g>
       <use xlink:href="#md4985ccc69" x="296.702961" y="269.712" style="stroke: #000000; stroke-width: 0.5"/>
      </g>
     </g>
     <g id="line2d_52">
      <g>
       <use xlink:href="#m3a6ebde09a" x="296.702961" y="3.6" style="stroke: #000000; stroke-width: 0.5"/>
      </g>
     </g>
    </g>
    <g id="xtick_27">
     <g id="line2d_53">
      <g>
       <use xlink:href="#md4985ccc69" x="307.936683" y="269.712" style="stroke: #000000; stroke-width: 0.5"/>
      </g>
     </g>
     <g id="line2d_54">
      <g>
       <use xlink:href="#m3a6ebde09a" x="307.936683" y="3.6" style="stroke: #000000; stroke-width: 0.5"/>
      </g>
     </g>
    </g>
    <g id="xtick_28">
     <g id="line2d_55">
      <g>
       <use xlink:href="#md4985ccc69" x="319.170404" y="269.712" style="stroke: #000000; stroke-width: 0.5"/>
      </g>
     </g>
     <g id="line2d_56">
      <g>
       <use xlink:href="#m3a6ebde09a" x="319.170404" y="3.6" style="stroke: #000000; stroke-width: 0.5"/>
      </g>
     </g>
    </g>
    <g id="xtick_29">
     <g id="line2d_57">
      <g>
       <use xlink:href="#md4985ccc69" x="341.637846" y="269.712" style="stroke: #000000; stroke-width: 0.5"/>
      </g>
     </g>
     <g id="line2d_58">
      <g>
       <use xlink:href="#m3a6ebde09a" x="341.637846" y="3.6" style="stroke: #000000; stroke-width: 0.5"/>
      </g>
     </g>
    </g>
    <g id="xtick_30">
     <g id="line2d_59">
      <g>
       <use xlink:href="#md4985ccc69" x="352.871568" y="269.712" style="stroke: #000000; stroke-width: 0.5"/>
      </g>
     </g>
     <g id="line2d_60">
      <g>
       <use xlink:href="#m3a6ebde09a" x="352.871568" y="3.6" style="stroke: #000000; stroke-width: 0.5"/>
      </g>
     </g>
    </g>
    <g id="xtick_31">
     <g id="line2d_61">
      <g>
       <use xlink:href="#md4985ccc69" x="364.105289" y="269.712" style="stroke: #000000; stroke-width: 0.5"/>
      </g>
     </g>
     <g id="line2d_62">
      <g>
       <use xlink:href="#m3a6ebde09a" x="364.105289" y="3.6" style="stroke: #000000; stroke-width: 0.5"/>
      </g>
     </g>
    </g>
    <g id="xtick_32">
     <g id="line2d_63">
      <g>
       <use xlink:href="#md4985ccc69" x="375.33901" y="269.712" style="stroke: #000000; stroke-width: 0.5"/>
      </g>
     </g>
     <g id="line2d_64">
      <g>
       <use xlink:href="#m3a6ebde09a" x="375.33901" y="3.6" style="stroke: #000000; stroke-width: 0.5"/>
      </g>
     </g>
    </g>
    <g id="text_8">
     <!-- days -->
     <g transform="translate(197.27927 295.148446) scale(0.16 -0.16)">
      <defs>
       <path id="NimbusRomNo9L-Regu-64" d="M 2202 -64 
L 3142 269 
L 3142 365 
C 3027 365 3014 365 2995 365 
C 2765 365 2714 435 2714 731 
L 2714 4364 
L 2682 4377 
C 2374 4268 2150 4204 1741 4096 
L 1741 3994 
C 1792 4000 1830 4000 1882 4000 
C 2118 4000 2176 3936 2176 3672 
L 2176 2669 
C 1933 2874 1760 2944 1504 2944 
C 768 2944 173 2221 173 1312 
C 173 493 653 -64 1357 -64 
C 1715 -64 1958 64 2176 365 
L 2176 -45 
L 2202 -64 
z
M 2176 653 
C 2176 608 2131 531 2067 461 
C 1952 333 1792 269 1606 269 
C 1075 269 723 781 723 1568 
C 723 2291 1037 2765 1523 2765 
C 1862 2765 2176 2464 2176 2125 
L 2176 653 
z
" transform="scale(0.015625)"/>
       <path id="NimbusRomNo9L-Regu-61" d="M 2829 423 
C 2720 333 2643 301 2547 301 
C 2400 301 2355 390 2355 672 
L 2355 1920 
C 2355 2253 2323 2438 2227 2592 
C 2086 2822 1811 2944 1434 2944 
C 832 2944 358 2630 358 2227 
C 358 2080 486 1952 634 1952 
C 787 1952 922 2080 922 2221 
C 922 2246 915 2278 909 2323 
C 896 2381 890 2432 890 2477 
C 890 2650 1094 2790 1350 2790 
C 1664 2790 1837 2605 1837 2259 
L 1837 1869 
C 851 1472 742 1421 467 1178 
C 326 1050 237 832 237 621 
C 237 218 518 -64 909 -64 
C 1190 -64 1453 70 1843 403 
C 1875 70 1990 -64 2253 -64 
C 2470 -64 2605 13 2829 256 
L 2829 423 
z
M 1837 783 
C 1837 584 1805 526 1670 449 
C 1517 359 1338 301 1203 301 
C 979 301 800 520 800 796 
L 800 822 
C 800 1201 1062 1433 1837 1715 
L 1837 783 
z
" transform="scale(0.015625)"/>
       <path id="NimbusRomNo9L-Regu-79" d="M 3040 2880 
L 2176 2880 
L 2176 2784 
C 2381 2784 2483 2726 2483 2623 
C 2483 2597 2477 2559 2458 2514 
L 1837 742 
L 1101 2377 
C 1062 2468 1037 2552 1037 2622 
C 1037 2739 1133 2784 1408 2784 
L 1408 2880 
L 90 2880 
L 90 2790 
C 256 2765 365 2694 416 2585 
L 1146 1005 
L 1165 953 
L 1261 761 
C 1440 440 1542 209 1542 112 
C 1542 16 1395 -389 1286 -582 
C 1197 -749 1056 -871 966 -871 
C 928 -871 870 -858 806 -826 
C 685 -781 576 -755 467 -755 
C 320 -755 192 -883 192 -1037 
C 192 -1248 397 -1408 666 -1408 
C 1094 -1408 1402 -1049 1747 -124 
L 2733 2495 
C 2816 2701 2886 2765 3040 2784 
L 3040 2880 
z
" transform="scale(0.015625)"/>
       <path id="NimbusRomNo9L-Regu-73" d="M 2016 2010 
L 1990 2880 
L 1920 2880 
L 1907 2867 
C 1850 2822 1843 2816 1818 2816 
C 1779 2816 1715 2829 1645 2861 
C 1504 2915 1363 2944 1197 2944 
C 691 2944 326 2616 326 2154 
C 326 1796 531 1539 1075 1231 
L 1446 1020 
C 1670 892 1779 737 1779 539 
C 1779 256 1574 77 1248 77 
C 1030 77 832 159 710 298 
C 576 455 518 600 435 960 
L 333 960 
L 333 -39 
L 416 -39 
C 461 33 486 48 563 48 
C 621 48 710 35 858 -2 
C 1037 -39 1210 -64 1325 -64 
C 1818 -64 2227 308 2227 757 
C 2227 1077 2074 1289 1690 1520 
L 998 1930 
C 819 2033 723 2194 723 2367 
C 723 2624 922 2803 1216 2803 
C 1581 2803 1773 2583 1920 2010 
L 2016 2010 
z
" transform="scale(0.015625)"/>
      </defs>
      <use xlink:href="#NimbusRomNo9L-Regu-64" transform="scale(0.996264)"/>
      <use xlink:href="#NimbusRomNo9L-Regu-61" transform="translate(49.8132 0) scale(0.996264)"/>
      <use xlink:href="#NimbusRomNo9L-Regu-79" transform="translate(94.046769 0) scale(0.996264)"/>
      <use xlink:href="#NimbusRomNo9L-Regu-73" transform="translate(143.85997 0) scale(0.996264)"/>
     </g>
    </g>
   </g>
   <g id="matplotlib.axis_2">
    <g id="ytick_1">
     <g id="line2d_65">
      <defs>
       <path id="mfa2bc64d94" d="M 0 0 
L 3 0 
" style="stroke: #000000; stroke-width: 0.5"/>
      </defs>
      <g>
       <use xlink:href="#mfa2bc64d94" x="33.328365" y="257.69926" style="stroke: #000000; stroke-width: 0.5"/>
      </g>
     </g>
     <g id="line2d_66">
      <defs>
       <path id="m2fb142a6a1" d="M 0 0 
L -3 0 
" style="stroke: #000000; stroke-width: 0.5"/>
      </defs>
      <g>
       <use xlink:href="#m2fb142a6a1" x="390.448365" y="257.69926" style="stroke: #000000; stroke-width: 0.5"/>
      </g>
     </g>
     <g id="text_9">
      <!-- $\mathdefault{0}$ -->
      <g transform="translate(25.843309 260.401088) scale(0.08 -0.08)">
       <use xlink:href="#NimbusRomNo9L-Regu-30" transform="scale(0.996264)"/>
      </g>
     </g>
    </g>
    <g id="ytick_2">
     <g id="line2d_67">
      <g>
       <use xlink:href="#mfa2bc64d94" x="33.328365" y="200.612323" style="stroke: #000000; stroke-width: 0.5"/>
      </g>
     </g>
     <g id="line2d_68">
      <g>
       <use xlink:href="#m2fb142a6a1" x="390.448365" y="200.612323" style="stroke: #000000; stroke-width: 0.5"/>
      </g>
     </g>
     <g id="text_10">
      <!-- $\mathdefault{5}$ -->
      <g transform="translate(25.843309 203.314151) scale(0.08 -0.08)">
       <use xlink:href="#NimbusRomNo9L-Regu-35" transform="scale(0.996264)"/>
      </g>
     </g>
    </g>
    <g id="ytick_3">
     <g id="line2d_69">
      <g>
       <use xlink:href="#mfa2bc64d94" x="33.328365" y="143.525386" style="stroke: #000000; stroke-width: 0.5"/>
      </g>
     </g>
     <g id="line2d_70">
      <g>
       <use xlink:href="#m2fb142a6a1" x="390.448365" y="143.525386" style="stroke: #000000; stroke-width: 0.5"/>
      </g>
     </g>
     <g id="text_11">
      <!-- $\mathdefault{10}$ -->
      <g transform="translate(21.858253 146.227214) scale(0.08 -0.08)">
       <use xlink:href="#NimbusRomNo9L-Regu-31" transform="scale(0.996264)"/>
       <use xlink:href="#NimbusRomNo9L-Regu-30" transform="translate(49.8132 0) scale(0.996264)"/>
      </g>
     </g>
    </g>
    <g id="ytick_4">
     <g id="line2d_71">
      <g>
       <use xlink:href="#mfa2bc64d94" x="33.328365" y="86.438449" style="stroke: #000000; stroke-width: 0.5"/>
      </g>
     </g>
     <g id="line2d_72">
      <g>
       <use xlink:href="#m2fb142a6a1" x="390.448365" y="86.438449" style="stroke: #000000; stroke-width: 0.5"/>
      </g>
     </g>
     <g id="text_12">
      <!-- $\mathdefault{15}$ -->
      <g transform="translate(21.858253 89.140277) scale(0.08 -0.08)">
       <use xlink:href="#NimbusRomNo9L-Regu-31" transform="scale(0.996264)"/>
       <use xlink:href="#NimbusRomNo9L-Regu-35" transform="translate(49.8132 0) scale(0.996264)"/>
      </g>
     </g>
    </g>
    <g id="ytick_5">
     <g id="line2d_73">
      <g>
       <use xlink:href="#mfa2bc64d94" x="33.328365" y="29.351512" style="stroke: #000000; stroke-width: 0.5"/>
      </g>
     </g>
     <g id="line2d_74">
      <g>
       <use xlink:href="#m2fb142a6a1" x="390.448365" y="29.351512" style="stroke: #000000; stroke-width: 0.5"/>
      </g>
     </g>
     <g id="text_13">
      <!-- $\mathdefault{20}$ -->
      <g transform="translate(21.858253 32.05334) scale(0.08 -0.08)">
       <use xlink:href="#NimbusRomNo9L-Regu-32" transform="scale(0.996264)"/>
       <use xlink:href="#NimbusRomNo9L-Regu-30" transform="translate(49.8132 0) scale(0.996264)"/>
      </g>
     </g>
    </g>
    <g id="ytick_6">
     <g id="line2d_75">
      <defs>
       <path id="ma3c73e3a5f" d="M 0 0 
L 1.5 0 
" style="stroke: #000000; stroke-width: 0.5"/>
      </defs>
      <g>
       <use xlink:href="#ma3c73e3a5f" x="33.328365" y="269.116647" style="stroke: #000000; stroke-width: 0.5"/>
      </g>
     </g>
     <g id="line2d_76">
      <defs>
       <path id="m1c64424988" d="M 0 0 
L -1.5 0 
" style="stroke: #000000; stroke-width: 0.5"/>
      </defs>
      <g>
       <use xlink:href="#m1c64424988" x="390.448365" y="269.116647" style="stroke: #000000; stroke-width: 0.5"/>
      </g>
     </g>
    </g>
    <g id="ytick_7">
     <g id="line2d_77">
      <g>
       <use xlink:href="#ma3c73e3a5f" x="33.328365" y="246.281872" style="stroke: #000000; stroke-width: 0.5"/>
      </g>
     </g>
     <g id="line2d_78">
      <g>
       <use xlink:href="#m1c64424988" x="390.448365" y="246.281872" style="stroke: #000000; stroke-width: 0.5"/>
      </g>
     </g>
    </g>
    <g id="ytick_8">
     <g id="line2d_79">
      <g>
       <use xlink:href="#ma3c73e3a5f" x="33.328365" y="234.864485" style="stroke: #000000; stroke-width: 0.5"/>
      </g>
     </g>
     <g id="line2d_80">
      <g>
       <use xlink:href="#m1c64424988" x="390.448365" y="234.864485" style="stroke: #000000; stroke-width: 0.5"/>
      </g>
     </g>
    </g>
    <g id="ytick_9">
     <g id="line2d_81">
      <g>
       <use xlink:href="#ma3c73e3a5f" x="33.328365" y="223.447097" style="stroke: #000000; stroke-width: 0.5"/>
      </g>
     </g>
     <g id="line2d_82">
      <g>
       <use xlink:href="#m1c64424988" x="390.448365" y="223.447097" style="stroke: #000000; stroke-width: 0.5"/>
      </g>
     </g>
    </g>
    <g id="ytick_10">
     <g id="line2d_83">
      <g>
       <use xlink:href="#ma3c73e3a5f" x="33.328365" y="212.02971" style="stroke: #000000; stroke-width: 0.5"/>
      </g>
     </g>
     <g id="line2d_84">
      <g>
       <use xlink:href="#m1c64424988" x="390.448365" y="212.02971" style="stroke: #000000; stroke-width: 0.5"/>
      </g>
     </g>
    </g>
    <g id="ytick_11">
     <g id="line2d_85">
      <g>
       <use xlink:href="#ma3c73e3a5f" x="33.328365" y="189.194935" style="stroke: #000000; stroke-width: 0.5"/>
      </g>
     </g>
     <g id="line2d_86">
      <g>
       <use xlink:href="#m1c64424988" x="390.448365" y="189.194935" style="stroke: #000000; stroke-width: 0.5"/>
      </g>
     </g>
    </g>
    <g id="ytick_12">
     <g id="line2d_87">
      <g>
       <use xlink:href="#ma3c73e3a5f" x="33.328365" y="177.777548" style="stroke: #000000; stroke-width: 0.5"/>
      </g>
     </g>
     <g id="line2d_88">
      <g>
       <use xlink:href="#m1c64424988" x="390.448365" y="177.777548" style="stroke: #000000; stroke-width: 0.5"/>
      </g>
     </g>
    </g>
    <g id="ytick_13">
     <g id="line2d_89">
      <g>
       <use xlink:href="#ma3c73e3a5f" x="33.328365" y="166.360161" style="stroke: #000000; stroke-width: 0.5"/>
      </g>
     </g>
     <g id="line2d_90">
      <g>
       <use xlink:href="#m1c64424988" x="390.448365" y="166.360161" style="stroke: #000000; stroke-width: 0.5"/>
      </g>
     </g>
    </g>
    <g id="ytick_14">
     <g id="line2d_91">
      <g>
       <use xlink:href="#ma3c73e3a5f" x="33.328365" y="154.942773" style="stroke: #000000; stroke-width: 0.5"/>
      </g>
     </g>
     <g id="line2d_92">
      <g>
       <use xlink:href="#m1c64424988" x="390.448365" y="154.942773" style="stroke: #000000; stroke-width: 0.5"/>
      </g>
     </g>
    </g>
    <g id="ytick_15">
     <g id="line2d_93">
      <g>
       <use xlink:href="#ma3c73e3a5f" x="33.328365" y="132.107999" style="stroke: #000000; stroke-width: 0.5"/>
      </g>
     </g>
     <g id="line2d_94">
      <g>
       <use xlink:href="#m1c64424988" x="390.448365" y="132.107999" style="stroke: #000000; stroke-width: 0.5"/>
      </g>
     </g>
    </g>
    <g id="ytick_16">
     <g id="line2d_95">
      <g>
       <use xlink:href="#ma3c73e3a5f" x="33.328365" y="120.690611" style="stroke: #000000; stroke-width: 0.5"/>
      </g>
     </g>
     <g id="line2d_96">
      <g>
       <use xlink:href="#m1c64424988" x="390.448365" y="120.690611" style="stroke: #000000; stroke-width: 0.5"/>
      </g>
     </g>
    </g>
    <g id="ytick_17">
     <g id="line2d_97">
      <g>
       <use xlink:href="#ma3c73e3a5f" x="33.328365" y="109.273224" style="stroke: #000000; stroke-width: 0.5"/>
      </g>
     </g>
     <g id="line2d_98">
      <g>
       <use xlink:href="#m1c64424988" x="390.448365" y="109.273224" style="stroke: #000000; stroke-width: 0.5"/>
      </g>
     </g>
    </g>
    <g id="ytick_18">
     <g id="line2d_99">
      <g>
       <use xlink:href="#ma3c73e3a5f" x="33.328365" y="97.855836" style="stroke: #000000; stroke-width: 0.5"/>
      </g>
     </g>
     <g id="line2d_100">
      <g>
       <use xlink:href="#m1c64424988" x="390.448365" y="97.855836" style="stroke: #000000; stroke-width: 0.5"/>
      </g>
     </g>
    </g>
    <g id="ytick_19">
     <g id="line2d_101">
      <g>
       <use xlink:href="#ma3c73e3a5f" x="33.328365" y="75.021062" style="stroke: #000000; stroke-width: 0.5"/>
      </g>
     </g>
     <g id="line2d_102">
      <g>
       <use xlink:href="#m1c64424988" x="390.448365" y="75.021062" style="stroke: #000000; stroke-width: 0.5"/>
      </g>
     </g>
    </g>
    <g id="ytick_20">
     <g id="line2d_103">
      <g>
       <use xlink:href="#ma3c73e3a5f" x="33.328365" y="63.603674" style="stroke: #000000; stroke-width: 0.5"/>
      </g>
     </g>
     <g id="line2d_104">
      <g>
       <use xlink:href="#m1c64424988" x="390.448365" y="63.603674" style="stroke: #000000; stroke-width: 0.5"/>
      </g>
     </g>
    </g>
    <g id="ytick_21">
     <g id="line2d_105">
      <g>
       <use xlink:href="#ma3c73e3a5f" x="33.328365" y="52.186287" style="stroke: #000000; stroke-width: 0.5"/>
      </g>
     </g>
     <g id="line2d_106">
      <g>
       <use xlink:href="#m1c64424988" x="390.448365" y="52.186287" style="stroke: #000000; stroke-width: 0.5"/>
      </g>
     </g>
    </g>
    <g id="ytick_22">
     <g id="line2d_107">
      <g>
       <use xlink:href="#ma3c73e3a5f" x="33.328365" y="40.7689" style="stroke: #000000; stroke-width: 0.5"/>
      </g>
     </g>
     <g id="line2d_108">
      <g>
       <use xlink:href="#m1c64424988" x="390.448365" y="40.7689" style="stroke: #000000; stroke-width: 0.5"/>
      </g>
     </g>
    </g>
    <g id="ytick_23">
     <g id="line2d_109">
      <g>
       <use xlink:href="#ma3c73e3a5f" x="33.328365" y="17.934125" style="stroke: #000000; stroke-width: 0.5"/>
      </g>
     </g>
     <g id="line2d_110">
      <g>
       <use xlink:href="#m1c64424988" x="390.448365" y="17.934125" style="stroke: #000000; stroke-width: 0.5"/>
      </g>
     </g>
    </g>
    <g id="ytick_24">
     <g id="line2d_111">
      <g>
       <use xlink:href="#ma3c73e3a5f" x="33.328365" y="6.516737" style="stroke: #000000; stroke-width: 0.5"/>
      </g>
     </g>
     <g id="line2d_112">
      <g>
       <use xlink:href="#m1c64424988" x="390.448365" y="6.516737" style="stroke: #000000; stroke-width: 0.5"/>
      </g>
     </g>
    </g>
    <g id="text_14">
     <!-- spatial rainfall -->
     <g transform="translate(14.407327 182.395716) rotate(-90) scale(0.16 -0.16)">
      <defs>
       <path id="NimbusRomNo9L-Regu-70" d="M 58 2516 
C 115 2522 160 2522 218 2522 
C 435 2522 480 2458 480 2155 
L 480 -855 
C 480 -1189 410 -1261 32 -1299 
L 32 -1408 
L 1581 -1408 
L 1581 -1293 
C 1101 -1293 1018 -1222 1018 -816 
L 1018 199 
C 1242 -13 1395 -77 1664 -77 
C 2419 -77 3008 643 3008 1575 
C 3008 2372 2560 2944 1939 2944 
C 1581 2944 1299 2784 1018 2438 
L 1018 2931 
L 979 2944 
C 634 2810 410 2726 58 2618 
L 58 2516 
z
M 1018 2136 
C 1018 2329 1376 2560 1670 2560 
C 2144 2560 2458 2071 2458 1324 
C 2458 611 2144 128 1683 128 
C 1382 128 1018 359 1018 552 
L 1018 2136 
z
" transform="scale(0.015625)"/>
       <path id="NimbusRomNo9L-Regu-74" d="M 1632 2880 
L 986 2880 
L 986 3622 
C 986 3686 979 3706 941 3706 
C 896 3648 858 3590 813 3526 
C 570 3174 294 2867 192 2841 
C 122 2794 83 2748 83 2715 
C 83 2695 90 2682 109 2682 
L 448 2682 
L 448 751 
C 448 212 640 -64 1018 -64 
C 1331 -64 1574 90 1786 423 
L 1702 493 
C 1568 333 1459 269 1318 269 
C 1082 269 986 443 986 847 
L 986 2682 
L 1632 2682 
L 1632 2880 
z
" transform="scale(0.015625)"/>
       <path id="NimbusRomNo9L-Regu-69" d="M 1120 2929 
L 128 2579 
L 128 2484 
L 179 2490 
C 256 2502 339 2509 397 2509 
C 550 2509 608 2406 608 2125 
L 608 640 
C 608 179 544 109 102 109 
L 102 0 
L 1619 0 
L 1619 96 
C 1197 128 1146 191 1146 650 
L 1146 2910 
L 1120 2929 
z
M 819 4352 
C 646 4352 499 4205 499 4026 
C 499 3847 640 3699 819 3699 
C 1005 3699 1152 3840 1152 4026 
C 1152 4205 1005 4352 819 4352 
z
" transform="scale(0.015625)"/>
       <path id="NimbusRomNo9L-Regu-6c" d="M 122 4000 
L 160 4000 
C 230 4000 307 4000 358 4000 
C 563 4000 627 3910 627 3610 
L 627 557 
C 627 211 538 128 134 96 
L 134 0 
L 1645 0 
L 1645 109 
C 1242 109 1165 173 1165 528 
L 1165 4371 
L 1139 4384 
C 806 4275 563 4211 122 4103 
L 122 4000 
z
" transform="scale(0.015625)"/>
       <path id="NimbusRomNo9L-Regu-72" d="M 45 2496 
C 134 2515 192 2522 269 2522 
C 429 2522 486 2419 486 2138 
L 486 538 
C 486 218 442 173 32 96 
L 32 0 
L 1568 0 
L 1568 102 
C 1133 102 1024 199 1024 565 
L 1024 2013 
C 1024 2219 1299 2541 1472 2541 
C 1510 2541 1568 2509 1638 2445 
C 1741 2355 1811 2317 1894 2317 
C 2048 2317 2144 2426 2144 2605 
C 2144 2816 2010 2944 1792 2944 
C 1523 2944 1338 2797 1024 2343 
L 1024 2931 
L 992 2944 
C 653 2803 422 2721 45 2599 
L 45 2496 
z
" transform="scale(0.015625)"/>
       <path id="NimbusRomNo9L-Regu-6e" d="M 102 2579 
C 141 2598 205 2605 275 2605 
C 454 2605 512 2509 512 2195 
L 512 608 
C 512 243 442 154 115 128 
L 115 32 
L 1472 32 
L 1472 128 
C 1146 154 1050 230 1050 461 
L 1050 2259 
C 1357 2547 1498 2624 1709 2624 
C 2022 2624 2176 2426 2176 2003 
L 2176 666 
C 2176 262 2093 154 1773 128 
L 1773 32 
L 3104 32 
L 3104 128 
C 2790 160 2714 237 2714 550 
L 2714 2016 
C 2714 2618 2432 2976 1958 2976 
C 1664 2976 1466 2867 1030 2458 
L 1030 2963 
L 986 2976 
C 672 2861 454 2790 102 2688 
L 102 2579 
z
" transform="scale(0.015625)"/>
       <path id="NimbusRomNo9L-Regu-66" d="M 1978 2880 
L 1190 2880 
L 1190 3611 
C 1190 3978 1312 4173 1555 4173 
C 1690 4173 1779 4110 1894 3927 
C 1997 3763 2074 3700 2182 3700 
C 2330 3700 2451 3814 2451 3959 
C 2451 4188 2170 4352 1786 4352 
C 1389 4352 1050 4181 883 3891 
C 717 3613 666 3385 659 2880 
L 134 2880 
L 134 2675 
L 659 2675 
L 659 656 
C 659 185 589 109 128 109 
L 128 0 
L 1792 0 
L 1792 109 
C 1267 109 1197 180 1197 661 
L 1197 2675 
L 1978 2675 
L 1978 2880 
z
" transform="scale(0.015625)"/>
      </defs>
      <use xlink:href="#NimbusRomNo9L-Regu-73" transform="scale(0.996264)"/>
      <use xlink:href="#NimbusRomNo9L-Regu-70" transform="translate(38.753706 0) scale(0.996264)"/>
      <use xlink:href="#NimbusRomNo9L-Regu-61" transform="translate(88.566907 0) scale(0.996264)"/>
      <use xlink:href="#NimbusRomNo9L-Regu-74" transform="translate(132.800475 0) scale(0.996264)"/>
      <use xlink:href="#NimbusRomNo9L-Regu-69" transform="translate(160.495645 0) scale(0.996264)"/>
      <use xlink:href="#NimbusRomNo9L-Regu-61" transform="translate(188.190815 0) scale(0.996264)"/>
      <use xlink:href="#NimbusRomNo9L-Regu-6c" transform="translate(232.424383 0) scale(0.996264)"/>
      <use xlink:href="#NimbusRomNo9L-Regu-72" transform="translate(285.026153 0) scale(0.996264)"/>
      <use xlink:href="#NimbusRomNo9L-Regu-61" transform="translate(318.201383 0) scale(0.996264)"/>
      <use xlink:href="#NimbusRomNo9L-Regu-69" transform="translate(362.434952 0) scale(0.996264)"/>
      <use xlink:href="#NimbusRomNo9L-Regu-6e" transform="translate(390.130121 0) scale(0.996264)"/>
      <use xlink:href="#NimbusRomNo9L-Regu-66" transform="translate(439.943322 0) scale(0.996264)"/>
      <use xlink:href="#NimbusRomNo9L-Regu-61" transform="translate(472.122455 0) scale(0.996264)"/>
      <use xlink:href="#NimbusRomNo9L-Regu-6c" transform="translate(516.356023 0) scale(0.996264)"/>
      <use xlink:href="#NimbusRomNo9L-Regu-6c" transform="translate(544.051193 0) scale(0.996264)"/>
     </g>
    </g>
   </g>
   <g id="line2d_113">
    <path d="M 49.561093 172.720034 
L 50.684465 164.345184 
L 51.807837 201.203273 
L 52.931209 198.281798 
L 54.054581 122.265519 
L 55.177953 55.314305 
L 56.301325 154.565825 
L 57.424698 198.996675 
L 58.54807 226.007404 
L 59.671442 210.740951 
L 60.794814 69.410125 
L 61.918186 154.306604 
L 63.041558 198.182022 
L 64.16493 224.915032 
L 65.288303 172.517388 
L 66.411675 168.696641 
L 67.535047 213.140865 
L 68.658419 235.362974 
L 69.781791 239.851947 
L 70.905163 246.606299 
L 72.028535 252.152781 
L 73.151907 254.92602 
L 74.27528 256.198463 
L 75.398652 252.15356 
L 76.522024 157.193572 
L 77.645396 43.264384 
L 78.768768 115.88713 
L 79.89214 76.444141 
L 81.015512 114.037931 
L 82.138884 175.022079 
L 83.262257 208.197241 
L 84.385629 232.548644 
L 85.509001 245.12395 
L 86.632373 234.057178 
L 87.755745 156.365896 
L 88.879117 122.886434 
L 90.002489 160.778906 
L 91.125861 123.779942 
L 92.249234 118.524622 
L 93.372606 92.948011 
L 94.495978 75.878191 
L 95.61935 87.15245 
L 96.742722 128.640174 
L 97.866094 176.214895 
L 98.989466 206.966866 
L 101.236211 124.39146 
L 102.359583 181.683106 
L 103.482955 218.949052 
L 104.606327 237.981632 
L 105.729699 247.669188 
L 106.853071 248.859395 
L 107.976443 252.251763 
L 109.099816 254.46173 
L 110.223188 255.795061 
L 111.34656 256.347553 
L 112.469932 201.078208 
L 113.593304 202.729134 
L 114.716676 168.959913 
L 116.96342 216.561562 
L 118.086793 193.85851 
L 119.210165 205.627198 
L 120.333537 228.63762 
L 121.456909 234.833747 
L 122.580281 201.852868 
L 123.703653 199.348727 
L 124.827025 203.976609 
L 125.950398 107.301801 
L 127.07377 115.023762 
L 128.197142 162.841704 
L 129.320514 200.794046 
L 130.443886 212.748529 
L 131.567258 232.369547 
L 132.69063 244.52062 
L 133.814002 250.995767 
L 134.937375 254.176251 
L 136.060747 251.427887 
L 137.184119 25.987476 
L 138.307491 93.205295 
L 139.430863 149.534808 
L 140.554235 197.622904 
L 141.677607 105.723387 
L 142.800979 122.740507 
L 145.047724 175.178786 
L 146.171096 186.982164 
L 147.294468 169.706557 
L 148.41784 191.724436 
L 149.541212 217.0622 
L 150.664584 129.31515 
L 151.787956 70.77029 
L 152.911329 108.860442 
L 154.034701 158.104512 
L 155.158073 191.289588 
L 156.281445 212.049473 
L 157.404817 221.458937 
L 158.528189 191.45481 
L 159.651561 194.834743 
L 160.774934 210.511003 
L 161.898306 210.414052 
L 163.021678 228.861745 
L 164.14505 242.59546 
L 165.268422 209.10185 
L 166.391794 142.46106 
L 167.515166 164.115394 
L 168.638538 210.108108 
L 169.761911 232.248163 
L 170.885283 202.558119 
L 172.008655 223.164082 
L 173.132027 235.293846 
L 174.255399 244.783947 
L 175.378771 239.93839 
L 176.502143 113.636952 
L 177.625515 45.633846 
L 178.748888 146.814161 
L 179.87226 190.553893 
L 180.995632 181.768068 
L 182.119004 137.756817 
L 183.242376 125.798501 
L 184.365748 122.559508 
L 185.48912 186.818342 
L 186.612493 222.201715 
L 187.735865 236.468184 
L 188.859237 244.800247 
L 189.982609 251.192669 
L 191.105981 254.445958 
L 192.229353 256.072614 
L 193.352725 256.885934 
L 194.476097 257.292596 
L 195.59947 257.495927 
L 196.722842 250.290467 
L 197.846214 246.858999 
L 198.969586 252.279126 
L 200.092958 254.989195 
L 201.21633 255.545008 
L 202.339702 229.962537 
L 203.463074 184.232134 
L 204.586447 220.851523 
L 205.709819 239.275391 
L 206.833191 242.0365 
L 207.956563 207.794809 
L 209.079935 181.768401 
L 210.203307 211.227878 
L 211.326679 233.835612 
L 212.450051 245.367825 
L 213.573424 249.078803 
L 214.696796 249.621294 
L 215.820168 231.2822 
L 216.94354 230.276084 
L 218.066912 243.359713 
L 219.190284 249.330659 
L 220.313656 236.388877 
L 221.437029 246.473198 
L 222.560401 252.086231 
L 223.683773 254.892745 
L 224.807145 256.238914 
L 225.930517 256.969089 
L 227.053889 257.162914 
L 228.177261 254.862176 
L 229.300633 202.390649 
L 230.424006 209.550743 
L 231.547378 230.941917 
L 232.67075 198.993561 
L 233.794122 197.633635 
L 234.917494 198.495022 
L 236.040866 225.585318 
L 237.164238 241.185591 
L 238.28761 244.076254 
L 239.410983 181.812564 
L 240.534355 191.78331 
L 241.657727 223.485373 
L 242.781099 228.090278 
L 243.904471 220.402515 
L 245.027843 218.214156 
L 246.151215 203.875804 
L 247.274588 165.765509 
L 248.39796 211.047342 
L 249.521332 149.028331 
L 250.644704 196.113752 
L 251.768076 226.84942 
L 252.891448 242.217252 
L 254.01482 249.786995 
L 255.138192 237.644612 
L 256.261565 247.04398 
L 257.384937 252.200358 
L 258.508309 254.835635 
L 259.631681 255.924923 
L 260.755053 256.697917 
L 261.878425 256.570631 
L 263.001797 218.372916 
L 264.125169 218.969051 
L 265.248542 176.337739 
L 266.371914 193.898291 
L 267.495286 146.39085 
L 268.618658 164.082238 
L 269.74203 158.142415 
L 270.865402 114.526605 
L 271.988774 95.573047 
L 273.112146 170.356594 
L 274.235519 208.604666 
L 275.358891 224.417663 
L 276.482263 237.290723 
L 277.605635 214.270394 
L 278.729007 235.471045 
L 279.852379 246.356803 
L 280.975751 251.856773 
L 282.099124 236.966892 
L 283.222496 241.053511 
L 284.345868 215.295486 
L 285.46924 216.117337 
L 286.592612 233.996864 
L 287.715984 244.991759 
L 288.839356 240.84151 
L 289.962728 220.498568 
L 291.086101 234.075264 
L 292.209473 245.601826 
L 293.332845 251.422193 
L 294.456217 246.226035 
L 295.579589 233.238131 
L 296.702961 234.450916 
L 297.826333 226.323009 
L 298.949705 223.857489 
L 300.073078 132.99824 
L 301.19645 129.242077 
L 302.319822 189.189148 
L 303.443194 199.182253 
L 304.566566 202.580375 
L 305.689938 196.001829 
L 306.81331 108.166803 
L 307.936683 133.096138 
L 309.060055 194.084696 
L 310.183427 224.179372 
L 311.306799 207.714719 
L 312.430171 212.954909 
L 314.676915 241.746415 
L 315.800287 249.437404 
L 316.92366 243.920636 
L 318.047032 249.782384 
L 319.170404 253.740821 
L 320.293776 255.72004 
L 321.417148 256.595478 
L 323.663892 257.366229 
L 325.910637 257.616 
L 327.034009 256.80133 
L 328.157381 257.193206 
L 329.280753 247.1135 
L 330.404125 248.924078 
L 331.527497 253.25458 
L 332.650869 255.419834 
L 333.774241 250.793765 
L 334.897614 245.16969 
L 336.020986 208.448014 
L 337.144358 221.25664 
L 338.26773 203.741527 
L 339.391102 192.072535 
L 340.514474 190.69082 
L 341.637846 193.368094 
L 342.761219 208.350507 
L 343.884591 196.20381 
L 345.007963 154.907821 
L 346.131335 181.185285 
L 347.254707 133.754781 
L 348.378079 113.236398 
L 349.501451 128.038368 
L 350.624823 138.179529 
L 351.748196 152.726534 
L 352.871568 61.296734 
L 353.99494 15.696 
L 355.118312 135.670063 
L 356.241684 170.824281 
L 357.365056 210.094426 
L 358.488428 233.154712 
L 359.6118 182.802615 
L 360.735173 127.313403 
L 361.858545 181.945251 
L 362.981917 79.388383 
L 364.105289 85.025627 
L 365.228661 166.053356 
L 366.352033 208.850702 
L 367.475405 160.374965 
L 368.598778 207.153244 
L 369.72215 230.542383 
L 370.845522 217.51831 
L 371.968894 211.348794 
L 373.092266 234.409853 
L 374.215638 246.054555 
L 374.215638 246.054555 
" clip-path="url(#p3756b41910)" style="fill: none; stroke: #000000; stroke-linecap: square"/>
   </g>
   <g id="line2d_114">
    <path d="M 49.561093 139.593679 
L 50.684465 179.811155 
L 51.807837 162.838253 
L 52.931209 200.720276 
L 54.054581 192.005766 
L 55.177953 123.809461 
L 56.301325 80.336409 
L 57.424698 185.904239 
L 58.54807 197.821151 
L 59.671442 219.883843 
L 60.794814 198.553711 
L 61.918186 80.881584 
L 63.041558 188.356692 
L 64.16493 201.964295 
L 65.288303 217.580761 
L 66.411675 159.652189 
L 67.535047 170.29515 
L 68.658419 213.749244 
L 69.781791 224.562444 
L 70.905163 226.517344 
L 72.028535 230.479304 
L 73.151907 236.345389 
L 74.27528 239.982793 
L 75.398652 240.70505 
L 76.522024 233.535983 
L 77.645396 128.482247 
L 78.768768 64.645396 
L 79.89214 155.795319 
L 81.015512 75.616628 
L 82.138884 138.807674 
L 83.262257 180.214572 
L 84.385629 203.773969 
L 85.509001 219.199813 
L 86.632373 227.923339 
L 87.755745 219.376024 
L 88.879117 136.021717 
L 90.002489 121.946553 
L 91.125861 179.275513 
L 92.249234 125.673294 
L 93.372606 125.40804 
L 94.495978 102.241581 
L 95.61935 88.547916 
L 96.742722 108.665713 
L 97.866094 140.198338 
L 98.989466 180.837442 
L 100.112839 197.905253 
L 101.236211 155.600861 
L 102.359583 128.536559 
L 103.482955 194.587771 
L 104.606327 213.008287 
L 105.729699 224.907856 
L 106.853071 232.350882 
L 107.976443 233.294594 
L 109.099816 236.760174 
L 111.34656 241.167568 
L 112.469932 243.722506 
L 113.593304 172.936883 
L 114.716676 196.471514 
L 115.840048 153.742886 
L 116.96342 198.44929 
L 118.086793 217.360764 
L 119.210165 187.814033 
L 120.333537 209.477105 
L 121.456909 226.564235 
L 122.580281 226.478826 
L 123.703653 185.32507 
L 124.827025 199.332775 
L 125.950398 203.948827 
L 127.07377 91.471818 
L 129.320514 183.793384 
L 130.443886 203.872096 
L 131.567258 207.111291 
L 132.69063 224.262603 
L 133.814002 231.910639 
L 134.937375 234.105365 
L 136.060747 238.720466 
L 137.184119 236.063013 
L 138.307491 36.307502 
L 139.430863 149.388195 
L 140.554235 172.322746 
L 141.677607 205.609575 
L 142.800979 96.423284 
L 143.924352 147.491141 
L 145.047724 163.538577 
L 146.171096 177.630695 
L 147.294468 186.628746 
L 148.41784 167.988428 
L 149.541212 194.633639 
L 150.664584 211.150586 
L 151.787956 111.832352 
L 152.911329 82.313374 
L 154.034701 148.23025 
L 155.158073 177.523172 
L 157.404817 204.508898 
L 158.528189 212.200106 
L 159.651561 182.848063 
L 160.774934 192.388512 
L 161.898306 207.704337 
L 163.021678 204.139539 
L 164.14505 222.145977 
L 165.268422 233.961855 
L 166.391794 197.672948 
L 167.515166 126.352278 
L 168.638538 176.490716 
L 169.761911 213.279042 
L 170.885283 222.474496 
L 172.008655 189.322608 
L 173.132027 216.205893 
L 175.378771 235.18265 
L 176.502143 231.133698 
L 177.625515 115.769012 
L 178.748888 73.602011 
L 179.87226 180.985209 
L 180.995632 190.876779 
L 182.119004 176.907238 
L 183.242376 135.424082 
L 184.365748 133.882057 
L 185.48912 131.839859 
L 186.612493 192.810876 
L 187.735865 213.890032 
L 188.859237 221.471779 
L 189.982609 227.096529 
L 191.105981 233.446441 
L 192.229353 235.355306 
L 193.352725 239.028204 
L 194.476097 239.313019 
L 195.59947 240.763167 
L 196.722842 241.733431 
L 197.846214 232.616667 
L 198.969586 227.186331 
L 200.092958 233.581475 
L 201.21633 238.588988 
L 202.339702 238.705957 
L 203.463074 211.013838 
L 204.586447 176.571057 
L 205.709819 218.622156 
L 206.833191 231.969323 
L 207.956563 230.755906 
L 209.079935 190.935005 
L 210.203307 180.839533 
L 211.326679 206.911367 
L 212.450051 227.164222 
L 213.573424 238.288665 
L 214.696796 241.96241 
L 215.820168 240.378619 
L 216.94354 222.652196 
L 218.066912 220.044108 
L 219.190284 232.338485 
L 220.313656 241.042389 
L 221.437029 232.112079 
L 222.560401 239.546593 
L 223.683773 243.064279 
L 224.807145 247.405404 
L 225.930517 244.634094 
L 227.053889 243.740254 
L 228.177261 242.245104 
L 229.300633 240.49027 
L 230.424006 186.840484 
L 231.547378 206.346822 
L 232.67075 222.122447 
L 233.794122 192.133646 
L 234.917494 195.346098 
L 236.040866 199.729856 
L 237.164238 222.049149 
L 238.28761 236.086858 
L 239.410983 237.922298 
L 240.534355 188.006328 
L 241.657727 194.278468 
L 242.781099 223.191831 
L 243.904471 222.335554 
L 245.027843 216.663935 
L 246.151215 213.779365 
L 247.274588 201.107999 
L 248.39796 172.781614 
L 249.521332 215.268246 
L 250.644704 150.807267 
L 251.768076 203.964703 
L 252.891448 224.514181 
L 254.01482 235.362032 
L 255.138192 241.76817 
L 256.261565 230.383447 
L 257.384937 237.148547 
L 259.631681 245.384887 
L 260.755053 247.770581 
L 261.878425 248.768798 
L 263.001797 247.300638 
L 264.125169 213.198941 
L 265.248542 215.538674 
L 266.371914 182.405861 
L 267.495286 198.225794 
L 268.618658 156.50872 
L 269.74203 176.274422 
L 270.865402 168.908346 
L 271.988774 123.470949 
L 273.112146 121.860316 
L 274.235519 187.699687 
L 275.358891 205.78244 
L 277.605635 230.335505 
L 278.729007 209.522313 
L 279.852379 230.577744 
L 282.099124 244.80445 
L 283.222496 230.657899 
L 284.345868 234.436304 
L 285.46924 210.383504 
L 286.592612 214.380988 
L 287.715984 230.259583 
L 288.839356 239.509368 
L 289.962728 237.159566 
L 291.086101 216.82898 
L 292.209473 228.954012 
L 293.332845 239.074957 
L 294.456217 246.114232 
L 295.579589 241.950835 
L 296.702961 229.047437 
L 297.826333 228.787464 
L 298.949705 218.823048 
L 300.073078 216.758904 
L 301.19645 154.423252 
L 302.319822 156.697602 
L 303.443194 204.91697 
L 304.566566 202.034291 
L 305.689938 204.752244 
L 306.81331 196.885722 
L 307.936683 130.710605 
L 309.060055 166.37866 
L 310.183427 206.572546 
L 311.306799 221.654044 
L 312.430171 204.889439 
L 313.553543 212.833097 
L 314.676915 222.57277 
L 315.800287 235.167844 
L 316.92366 242.445191 
L 318.047032 238.646177 
L 319.170404 243.315754 
L 320.293776 243.128159 
L 321.417148 245.752552 
L 322.54052 246.86763 
L 323.663892 251.579553 
L 325.910637 248.307933 
L 327.034009 248.522114 
L 328.157381 249.076256 
L 329.280753 244.942635 
L 330.404125 236.809344 
L 331.527497 240.156345 
L 332.650869 245.070556 
L 333.774241 248.843106 
L 336.020986 236.859948 
L 337.144358 203.380776 
L 338.26773 220.88068 
L 339.391102 202.152333 
L 340.514474 192.548235 
L 341.637846 193.294068 
L 342.761219 196.358182 
L 343.884591 207.384586 
L 345.007963 196.584727 
L 346.131335 166.394193 
L 347.254707 191.271889 
L 348.378079 145.299814 
L 349.501451 142.551815 
L 350.624823 155.995623 
L 351.748196 153.902228 
L 352.871568 168.470275 
L 353.99494 86.107788 
L 355.118312 75.40721 
L 356.241684 184.73332 
L 357.365056 180.503362 
L 358.488428 210.861704 
L 359.6118 226.214416 
L 360.735173 185.957118 
L 361.858545 155.80637 
L 362.981917 198.892761 
L 364.105289 97.279379 
L 365.228661 138.200141 
L 366.352033 190.884652 
L 367.475405 210.330026 
L 368.598778 165.080515 
L 369.72215 213.03127 
L 370.845522 225.511072 
L 371.968894 214.074026 
L 373.092266 211.589261 
L 374.215638 230.163241 
L 374.215638 230.163241 
" clip-path="url(#p3756b41910)" style="fill: none; stroke-dasharray: 3.7,1.6; stroke-dashoffset: 0; stroke: #ff0000"/>
   </g>
   <g id="patch_3">
    <path d="M 33.328365 269.712 
L 33.328365 3.6 
" style="fill: none; stroke: #000000; stroke-width: 0.5; stroke-linejoin: miter; stroke-linecap: square"/>
   </g>
   <g id="patch_4">
    <path d="M 390.448365 269.712 
L 390.448365 3.6 
" style="fill: none; stroke: #000000; stroke-width: 0.5; stroke-linejoin: miter; stroke-linecap: square"/>
   </g>
   <g id="patch_5">
    <path d="M 33.328365 269.712 
L 390.448365 269.712 
" style="fill: none; stroke: #000000; stroke-width: 0.5; stroke-linejoin: miter; stroke-linecap: square"/>
   </g>
   <g id="patch_6">
    <path d="M 33.328365 3.6 
L 390.448365 3.6 
" style="fill: none; stroke: #000000; stroke-width: 0.5; stroke-linejoin: miter; stroke-linecap: square"/>
   </g>
   <g id="legend_1">
    <g id="line2d_115">
     <path d="M 40.528365 13.6 
L 48.528365 13.6 
L 56.528365 13.6 
" style="fill: none; stroke: #000000; stroke-linecap: square"/>
    </g>
    <g id="text_15">
     <!-- spatial rainfall actual -->
     <g transform="translate(62.928365 16.4) scale(0.08 -0.08)">
      <defs>
       <path id="NimbusRomNo9L-Regu-63" d="M 2547 998 
C 2240 550 2010 397 1645 397 
C 1062 397 653 909 653 1645 
C 653 2304 1005 2758 1523 2758 
C 1754 2758 1837 2688 1901 2451 
L 1939 2310 
C 1990 2131 2106 2016 2240 2016 
C 2406 2016 2547 2138 2547 2285 
C 2547 2643 2099 2944 1562 2944 
C 1248 2944 922 2816 659 2586 
C 339 2304 160 1869 160 1363 
C 160 531 666 -64 1376 -64 
C 1664 -64 1920 38 2150 237 
C 2323 390 2445 563 2637 941 
L 2547 998 
z
" transform="scale(0.015625)"/>
       <path id="NimbusRomNo9L-Regu-75" d="M 3066 320 
L 3034 320 
C 2739 320 2669 390 2669 685 
L 2669 2880 
L 1658 2880 
L 1658 2758 
C 2054 2758 2131 2694 2131 2375 
L 2131 875 
C 2131 697 2099 607 2010 537 
C 1837 397 1638 320 1446 320 
C 1197 320 992 537 992 805 
L 992 2880 
L 58 2880 
L 58 2778 
C 365 2778 454 2682 454 2387 
L 454 770 
C 454 263 762 -64 1229 -64 
C 1466 -64 1715 38 1888 211 
L 2163 486 
L 2163 -45 
L 2189 -58 
C 2509 70 2739 141 3066 230 
L 3066 320 
z
" transform="scale(0.015625)"/>
      </defs>
      <use xlink:href="#NimbusRomNo9L-Regu-73" transform="scale(0.996264)"/>
      <use xlink:href="#NimbusRomNo9L-Regu-70" transform="translate(38.753706 0) scale(0.996264)"/>
      <use xlink:href="#NimbusRomNo9L-Regu-61" transform="translate(88.566907 0) scale(0.996264)"/>
      <use xlink:href="#NimbusRomNo9L-Regu-74" transform="translate(132.800475 0) scale(0.996264)"/>
      <use xlink:href="#NimbusRomNo9L-Regu-69" transform="translate(160.495645 0) scale(0.996264)"/>
      <use xlink:href="#NimbusRomNo9L-Regu-61" transform="translate(188.190815 0) scale(0.996264)"/>
      <use xlink:href="#NimbusRomNo9L-Regu-6c" transform="translate(232.424383 0) scale(0.996264)"/>
      <use xlink:href="#NimbusRomNo9L-Regu-72" transform="translate(285.026153 0) scale(0.996264)"/>
      <use xlink:href="#NimbusRomNo9L-Regu-61" transform="translate(318.201383 0) scale(0.996264)"/>
      <use xlink:href="#NimbusRomNo9L-Regu-69" transform="translate(362.434952 0) scale(0.996264)"/>
      <use xlink:href="#NimbusRomNo9L-Regu-6e" transform="translate(390.130121 0) scale(0.996264)"/>
      <use xlink:href="#NimbusRomNo9L-Regu-66" transform="translate(439.943322 0) scale(0.996264)"/>
      <use xlink:href="#NimbusRomNo9L-Regu-61" transform="translate(472.122455 0) scale(0.996264)"/>
      <use xlink:href="#NimbusRomNo9L-Regu-6c" transform="translate(516.356023 0) scale(0.996264)"/>
      <use xlink:href="#NimbusRomNo9L-Regu-6c" transform="translate(544.051193 0) scale(0.996264)"/>
      <use xlink:href="#NimbusRomNo9L-Regu-61" transform="translate(596.652963 0) scale(0.996264)"/>
      <use xlink:href="#NimbusRomNo9L-Regu-63" transform="translate(640.886531 0) scale(0.996264)"/>
      <use xlink:href="#NimbusRomNo9L-Regu-74" transform="translate(685.1201 0) scale(0.996264)"/>
      <use xlink:href="#NimbusRomNo9L-Regu-75" transform="translate(712.81527 0) scale(0.996264)"/>
      <use xlink:href="#NimbusRomNo9L-Regu-61" transform="translate(762.62847 0) scale(0.996264)"/>
      <use xlink:href="#NimbusRomNo9L-Regu-6c" transform="translate(806.862039 0) scale(0.996264)"/>
     </g>
    </g>
    <g id="line2d_116">
     <path d="M 40.528365 24.925463 
L 48.528365 24.925463 
L 56.528365 24.925463 
" style="fill: none; stroke-dasharray: 3.7,1.6; stroke-dashoffset: 0; stroke: #ff0000"/>
    </g>
    <g id="text_16">
     <!-- spatial rainfall predict -->
     <g transform="translate(62.928365 27.725463) scale(0.08 -0.08)">
      <defs>
       <path id="NimbusRomNo9L-Regu-65" d="M 2611 1053 
C 2304 564 2029 378 1619 378 
C 1254 378 979 564 794 930 
C 678 1174 634 1386 621 1779 
L 2592 1779 
C 2541 2193 2477 2377 2317 2581 
C 2125 2811 1830 2944 1498 2944 
C 1178 2944 877 2829 634 2611 
C 333 2349 160 1894 160 1370 
C 160 486 621 -64 1357 -64 
C 1965 -64 2445 315 2714 1008 
L 2611 1053 
z
M 634 1984 
C 704 2479 922 2714 1312 2714 
C 1702 2714 1856 2535 1939 1984 
L 634 1984 
z
" transform="scale(0.015625)"/>
      </defs>
      <use xlink:href="#NimbusRomNo9L-Regu-73" transform="scale(0.996264)"/>
      <use xlink:href="#NimbusRomNo9L-Regu-70" transform="translate(38.753706 0) scale(0.996264)"/>
      <use xlink:href="#NimbusRomNo9L-Regu-61" transform="translate(88.566907 0) scale(0.996264)"/>
      <use xlink:href="#NimbusRomNo9L-Regu-74" transform="translate(132.800475 0) scale(0.996264)"/>
      <use xlink:href="#NimbusRomNo9L-Regu-69" transform="translate(160.495645 0) scale(0.996264)"/>
      <use xlink:href="#NimbusRomNo9L-Regu-61" transform="translate(188.190815 0) scale(0.996264)"/>
      <use xlink:href="#NimbusRomNo9L-Regu-6c" transform="translate(232.424383 0) scale(0.996264)"/>
      <use xlink:href="#NimbusRomNo9L-Regu-72" transform="translate(285.026153 0) scale(0.996264)"/>
      <use xlink:href="#NimbusRomNo9L-Regu-61" transform="translate(318.201383 0) scale(0.996264)"/>
      <use xlink:href="#NimbusRomNo9L-Regu-69" transform="translate(362.434952 0) scale(0.996264)"/>
      <use xlink:href="#NimbusRomNo9L-Regu-6e" transform="translate(390.130121 0) scale(0.996264)"/>
      <use xlink:href="#NimbusRomNo9L-Regu-66" transform="translate(439.943322 0) scale(0.996264)"/>
      <use xlink:href="#NimbusRomNo9L-Regu-61" transform="translate(472.122455 0) scale(0.996264)"/>
      <use xlink:href="#NimbusRomNo9L-Regu-6c" transform="translate(516.356023 0) scale(0.996264)"/>
      <use xlink:href="#NimbusRomNo9L-Regu-6c" transform="translate(544.051193 0) scale(0.996264)"/>
      <use xlink:href="#NimbusRomNo9L-Regu-70" transform="translate(596.652963 0) scale(0.996264)"/>
      <use xlink:href="#NimbusRomNo9L-Regu-72" transform="translate(646.466163 0) scale(0.996264)"/>
      <use xlink:href="#NimbusRomNo9L-Regu-65" transform="translate(679.641393 0) scale(0.996264)"/>
      <use xlink:href="#NimbusRomNo9L-Regu-64" transform="translate(723.874962 0) scale(0.996264)"/>
      <use xlink:href="#NimbusRomNo9L-Regu-69" transform="translate(773.688162 0) scale(0.996264)"/>
      <use xlink:href="#NimbusRomNo9L-Regu-63" transform="translate(801.383332 0) scale(0.996264)"/>
      <use xlink:href="#NimbusRomNo9L-Regu-74" transform="translate(845.6169 0) scale(0.996264)"/>
     </g>
    </g>
   </g>
  </g>
 </g>
 <defs>
  <clipPath id="p3756b41910">
   <rect x="33.328365" y="3.6" width="357.12" height="266.112"/>
  </clipPath>
 </defs>
</svg>
