<?xml version="1.0" encoding="utf-8" standalone="no"?>
<!DOCTYPE svg PUBLIC "-//W3C//DTD SVG 1.1//EN"
  "http://www.w3.org/Graphics/SVG/1.1/DTD/svg11.dtd">
<svg xmlns:xlink="http://www.w3.org/1999/xlink" width="402.018478pt" height="302.199372pt" viewBox="0 0 402.018478 302.199372" xmlns="http://www.w3.org/2000/svg" version="1.1">
 <metadata>
  <rdf:RDF xmlns:dc="http://purl.org/dc/elements/1.1/" xmlns:cc="http://creativecommons.org/ns#" xmlns:rdf="http://www.w3.org/1999/02/22-rdf-syntax-ns#">
   <cc:Work>
    <dc:type rdf:resource="http://purl.org/dc/dcmitype/StillImage"/>
    <dc:date>2024-03-16T22:20:16.971504</dc:date>
    <dc:format>image/svg+xml</dc:format>
    <dc:creator>
     <cc:Agent>
      <dc:title>Matplotlib v3.8.3, https://matplotlib.org/</dc:title>
     </cc:Agent>
    </dc:creator>
   </cc:Work>
  </rdf:RDF>
 </metadata>
 <defs>
  <style type="text/css">*{stroke-linejoin: round; stroke-linecap: butt}</style>
 </defs>
 <g id="figure_1">
  <g id="patch_1">
   <path d="M -0 302.199372 
L 402.018478 302.199372 
L 402.018478 0 
L -0 0 
z
" style="fill: #ffffff"/>
  </g>
  <g id="axes_1">
   <g id="patch_2">
    <path d="M 41.298478 269.712 
L 398.418478 269.712 
L 398.418478 3.6 
L 41.298478 3.6 
z
" style="fill: #ffffff"/>
   </g>
   <g id="matplotlib.axis_1">
    <g id="xtick_1">
     <g id="line2d_1">
      <defs>
       <path id="mfe46ee6ffe" d="M 0 0 
L 0 -3 
" style="stroke: #000000; stroke-width: 0.5"/>
      </defs>
      <g>
       <use xlink:href="#mfe46ee6ffe" x="57.531205" y="269.712" style="stroke: #000000; stroke-width: 0.5"/>
      </g>
     </g>
     <g id="line2d_2">
      <defs>
       <path id="mbf5a25aa76" d="M 0 0 
L 0 3 
" style="stroke: #000000; stroke-width: 0.5"/>
      </defs>
      <g>
       <use xlink:href="#mbf5a25aa76" x="57.531205" y="3.6" style="stroke: #000000; stroke-width: 0.5"/>
      </g>
     </g>
     <g id="text_1">
      <!-- $\mathdefault{0}$ -->
      <g transform="translate(55.538677 278.615656) scale(0.08 -0.08)">
       <defs>
        <path id="NimbusRomNo9L-Regu-30" d="M 1626 4352 
C 1274 4352 1005 4244 768 4020 
C 397 3661 154 2925 154 2176 
C 154 1479 365 730 666 372 
C 902 90 1229 -64 1600 -64 
C 1926 -64 2202 45 2432 269 
C 2803 621 3046 1364 3046 2138 
C 3046 3450 2464 4352 1626 4352 
z
M 1606 4186 
C 2144 4186 2432 3463 2432 2125 
C 2432 788 2150 103 1600 103 
C 1050 103 768 788 768 2119 
C 768 3476 1056 4186 1606 4186 
z
" transform="scale(0.015625)"/>
       </defs>
       <use xlink:href="#NimbusRomNo9L-Regu-30" transform="scale(0.996264)"/>
      </g>
     </g>
    </g>
    <g id="xtick_2">
     <g id="line2d_3">
      <g>
       <use xlink:href="#mfe46ee6ffe" x="135.01439" y="269.712" style="stroke: #000000; stroke-width: 0.5"/>
      </g>
     </g>
     <g id="line2d_4">
      <g>
       <use xlink:href="#mbf5a25aa76" x="135.01439" y="3.6" style="stroke: #000000; stroke-width: 0.5"/>
      </g>
     </g>
     <g id="text_2">
      <!-- $\mathdefault{100}$ -->
      <g transform="translate(129.036806 278.615656) scale(0.08 -0.08)">
       <defs>
        <path id="NimbusRomNo9L-Regu-31" d="M 1862 4339 
L 710 3757 
L 710 3667 
C 787 3699 858 3725 883 3738 
C 998 3783 1107 3808 1171 3808 
C 1306 3808 1363 3711 1363 3505 
L 1363 592 
C 1363 379 1312 232 1210 173 
C 1114 116 1024 96 755 96 
L 755 0 
L 2522 0 
L 2522 96 
C 2016 96 1914 160 1914 470 
L 1914 4327 
L 1862 4339 
z
" transform="scale(0.015625)"/>
       </defs>
       <use xlink:href="#NimbusRomNo9L-Regu-31" transform="scale(0.996264)"/>
       <use xlink:href="#NimbusRomNo9L-Regu-30" transform="translate(49.8132 0) scale(0.996264)"/>
       <use xlink:href="#NimbusRomNo9L-Regu-30" transform="translate(99.626401 0) scale(0.996264)"/>
      </g>
     </g>
    </g>
    <g id="xtick_3">
     <g id="line2d_5">
      <g>
       <use xlink:href="#mfe46ee6ffe" x="212.497575" y="269.712" style="stroke: #000000; stroke-width: 0.5"/>
      </g>
     </g>
     <g id="line2d_6">
      <g>
       <use xlink:href="#mbf5a25aa76" x="212.497575" y="3.6" style="stroke: #000000; stroke-width: 0.5"/>
      </g>
     </g>
     <g id="text_3">
      <!-- $\mathdefault{200}$ -->
      <g transform="translate(206.519991 278.615656) scale(0.08 -0.08)">
       <defs>
        <path id="NimbusRomNo9L-Regu-32" d="M 3040 875 
L 2957 907 
C 2720 544 2637 486 2349 486 
L 819 486 
L 1894 1609 
C 2464 2202 2714 2687 2714 3185 
C 2714 3823 2195 4313 1530 4313 
C 1178 4313 845 4173 608 3918 
C 403 3700 307 3496 198 3043 
L 333 3011 
C 589 3636 819 3840 1261 3840 
C 1798 3840 2163 3476 2163 2940 
C 2163 2443 1869 1850 1331 1282 
L 192 77 
L 192 0 
L 2688 0 
L 3040 875 
z
" transform="scale(0.015625)"/>
       </defs>
       <use xlink:href="#NimbusRomNo9L-Regu-32" transform="scale(0.996264)"/>
       <use xlink:href="#NimbusRomNo9L-Regu-30" transform="translate(49.8132 0) scale(0.996264)"/>
       <use xlink:href="#NimbusRomNo9L-Regu-30" transform="translate(99.626401 0) scale(0.996264)"/>
      </g>
     </g>
    </g>
    <g id="xtick_4">
     <g id="line2d_7">
      <g>
       <use xlink:href="#mfe46ee6ffe" x="289.98076" y="269.712" style="stroke: #000000; stroke-width: 0.5"/>
      </g>
     </g>
     <g id="line2d_8">
      <g>
       <use xlink:href="#mbf5a25aa76" x="289.98076" y="3.6" style="stroke: #000000; stroke-width: 0.5"/>
      </g>
     </g>
     <g id="text_4">
      <!-- $\mathdefault{300}$ -->
      <g transform="translate(284.003176 278.615656) scale(0.08 -0.08)">
       <defs>
        <path id="NimbusRomNo9L-Regu-33" d="M 979 2138 
C 1357 2138 1504 2125 1658 2068 
C 2054 1927 2304 1562 2304 1120 
C 2304 583 1939 167 1466 167 
C 1293 167 1165 212 928 365 
C 736 480 627 525 518 525 
C 371 525 275 436 275 301 
C 275 77 550 -64 998 -64 
C 1491 -64 1997 103 2298 365 
C 2598 628 2765 999 2765 1428 
C 2765 1754 2662 2055 2477 2253 
C 2349 2394 2227 2471 1946 2592 
C 2387 2893 2547 3130 2547 3476 
C 2547 3994 2138 4352 1549 4352 
C 1229 4352 947 4244 717 4039 
C 525 3866 429 3699 288 3315 
L 384 3290 
C 646 3757 934 3968 1338 3968 
C 1754 3968 2042 3687 2042 3284 
C 2042 3053 1946 2823 1786 2663 
C 1594 2471 1414 2375 979 2221 
L 979 2138 
z
" transform="scale(0.015625)"/>
       </defs>
       <use xlink:href="#NimbusRomNo9L-Regu-33" transform="scale(0.996264)"/>
       <use xlink:href="#NimbusRomNo9L-Regu-30" transform="translate(49.8132 0) scale(0.996264)"/>
       <use xlink:href="#NimbusRomNo9L-Regu-30" transform="translate(99.626401 0) scale(0.996264)"/>
      </g>
     </g>
    </g>
    <g id="xtick_5">
     <g id="line2d_9">
      <g>
       <use xlink:href="#mfe46ee6ffe" x="367.463945" y="269.712" style="stroke: #000000; stroke-width: 0.5"/>
      </g>
     </g>
     <g id="line2d_10">
      <g>
       <use xlink:href="#mbf5a25aa76" x="367.463945" y="3.6" style="stroke: #000000; stroke-width: 0.5"/>
      </g>
     </g>
     <g id="text_5">
      <!-- $\mathdefault{400}$ -->
      <g transform="translate(361.486361 278.615656) scale(0.08 -0.08)">
       <defs>
        <path id="NimbusRomNo9L-Regu-34" d="M 3021 1497 
L 2368 1497 
L 2368 4352 
L 2086 4352 
L 77 1497 
L 77 1088 
L 1875 1088 
L 1875 32 
L 2368 32 
L 2368 1088 
L 3021 1088 
L 3021 1497 
z
M 1869 1497 
L 333 1497 
L 1869 3698 
L 1869 1497 
z
" transform="scale(0.015625)"/>
       </defs>
       <use xlink:href="#NimbusRomNo9L-Regu-34" transform="scale(0.996264)"/>
       <use xlink:href="#NimbusRomNo9L-Regu-30" transform="translate(49.8132 0) scale(0.996264)"/>
       <use xlink:href="#NimbusRomNo9L-Regu-30" transform="translate(99.626401 0) scale(0.996264)"/>
      </g>
     </g>
    </g>
    <g id="xtick_6">
     <g id="line2d_11">
      <defs>
       <path id="md87c8a5781" d="M 0 0 
L 0 -1.5 
" style="stroke: #000000; stroke-width: 0.5"/>
      </defs>
      <g>
       <use xlink:href="#md87c8a5781" x="42.034568" y="269.712" style="stroke: #000000; stroke-width: 0.5"/>
      </g>
     </g>
     <g id="line2d_12">
      <defs>
       <path id="m7ee3662ceb" d="M 0 0 
L 0 1.5 
" style="stroke: #000000; stroke-width: 0.5"/>
      </defs>
      <g>
       <use xlink:href="#m7ee3662ceb" x="42.034568" y="3.6" style="stroke: #000000; stroke-width: 0.5"/>
      </g>
     </g>
    </g>
    <g id="xtick_7">
     <g id="line2d_13">
      <g>
       <use xlink:href="#md87c8a5781" x="73.027842" y="269.712" style="stroke: #000000; stroke-width: 0.5"/>
      </g>
     </g>
     <g id="line2d_14">
      <g>
       <use xlink:href="#m7ee3662ceb" x="73.027842" y="3.6" style="stroke: #000000; stroke-width: 0.5"/>
      </g>
     </g>
    </g>
    <g id="xtick_8">
     <g id="line2d_15">
      <g>
       <use xlink:href="#md87c8a5781" x="88.524479" y="269.712" style="stroke: #000000; stroke-width: 0.5"/>
      </g>
     </g>
     <g id="line2d_16">
      <g>
       <use xlink:href="#m7ee3662ceb" x="88.524479" y="3.6" style="stroke: #000000; stroke-width: 0.5"/>
      </g>
     </g>
    </g>
    <g id="xtick_9">
     <g id="line2d_17">
      <g>
       <use xlink:href="#md87c8a5781" x="104.021116" y="269.712" style="stroke: #000000; stroke-width: 0.5"/>
      </g>
     </g>
     <g id="line2d_18">
      <g>
       <use xlink:href="#m7ee3662ceb" x="104.021116" y="3.6" style="stroke: #000000; stroke-width: 0.5"/>
      </g>
     </g>
    </g>
    <g id="xtick_10">
     <g id="line2d_19">
      <g>
       <use xlink:href="#md87c8a5781" x="119.517753" y="269.712" style="stroke: #000000; stroke-width: 0.5"/>
      </g>
     </g>
     <g id="line2d_20">
      <g>
       <use xlink:href="#m7ee3662ceb" x="119.517753" y="3.6" style="stroke: #000000; stroke-width: 0.5"/>
      </g>
     </g>
    </g>
    <g id="xtick_11">
     <g id="line2d_21">
      <g>
       <use xlink:href="#md87c8a5781" x="150.511027" y="269.712" style="stroke: #000000; stroke-width: 0.5"/>
      </g>
     </g>
     <g id="line2d_22">
      <g>
       <use xlink:href="#m7ee3662ceb" x="150.511027" y="3.6" style="stroke: #000000; stroke-width: 0.5"/>
      </g>
     </g>
    </g>
    <g id="xtick_12">
     <g id="line2d_23">
      <g>
       <use xlink:href="#md87c8a5781" x="166.007664" y="269.712" style="stroke: #000000; stroke-width: 0.5"/>
      </g>
     </g>
     <g id="line2d_24">
      <g>
       <use xlink:href="#m7ee3662ceb" x="166.007664" y="3.6" style="stroke: #000000; stroke-width: 0.5"/>
      </g>
     </g>
    </g>
    <g id="xtick_13">
     <g id="line2d_25">
      <g>
       <use xlink:href="#md87c8a5781" x="181.504301" y="269.712" style="stroke: #000000; stroke-width: 0.5"/>
      </g>
     </g>
     <g id="line2d_26">
      <g>
       <use xlink:href="#m7ee3662ceb" x="181.504301" y="3.6" style="stroke: #000000; stroke-width: 0.5"/>
      </g>
     </g>
    </g>
    <g id="xtick_14">
     <g id="line2d_27">
      <g>
       <use xlink:href="#md87c8a5781" x="197.000938" y="269.712" style="stroke: #000000; stroke-width: 0.5"/>
      </g>
     </g>
     <g id="line2d_28">
      <g>
       <use xlink:href="#m7ee3662ceb" x="197.000938" y="3.6" style="stroke: #000000; stroke-width: 0.5"/>
      </g>
     </g>
    </g>
    <g id="xtick_15">
     <g id="line2d_29">
      <g>
       <use xlink:href="#md87c8a5781" x="227.994212" y="269.712" style="stroke: #000000; stroke-width: 0.5"/>
      </g>
     </g>
     <g id="line2d_30">
      <g>
       <use xlink:href="#m7ee3662ceb" x="227.994212" y="3.6" style="stroke: #000000; stroke-width: 0.5"/>
      </g>
     </g>
    </g>
    <g id="xtick_16">
     <g id="line2d_31">
      <g>
       <use xlink:href="#md87c8a5781" x="243.490849" y="269.712" style="stroke: #000000; stroke-width: 0.5"/>
      </g>
     </g>
     <g id="line2d_32">
      <g>
       <use xlink:href="#m7ee3662ceb" x="243.490849" y="3.6" style="stroke: #000000; stroke-width: 0.5"/>
      </g>
     </g>
    </g>
    <g id="xtick_17">
     <g id="line2d_33">
      <g>
       <use xlink:href="#md87c8a5781" x="258.987486" y="269.712" style="stroke: #000000; stroke-width: 0.5"/>
      </g>
     </g>
     <g id="line2d_34">
      <g>
       <use xlink:href="#m7ee3662ceb" x="258.987486" y="3.6" style="stroke: #000000; stroke-width: 0.5"/>
      </g>
     </g>
    </g>
    <g id="xtick_18">
     <g id="line2d_35">
      <g>
       <use xlink:href="#md87c8a5781" x="274.484123" y="269.712" style="stroke: #000000; stroke-width: 0.5"/>
      </g>
     </g>
     <g id="line2d_36">
      <g>
       <use xlink:href="#m7ee3662ceb" x="274.484123" y="3.6" style="stroke: #000000; stroke-width: 0.5"/>
      </g>
     </g>
    </g>
    <g id="xtick_19">
     <g id="line2d_37">
      <g>
       <use xlink:href="#md87c8a5781" x="305.477397" y="269.712" style="stroke: #000000; stroke-width: 0.5"/>
      </g>
     </g>
     <g id="line2d_38">
      <g>
       <use xlink:href="#m7ee3662ceb" x="305.477397" y="3.6" style="stroke: #000000; stroke-width: 0.5"/>
      </g>
     </g>
    </g>
    <g id="xtick_20">
     <g id="line2d_39">
      <g>
       <use xlink:href="#md87c8a5781" x="320.974034" y="269.712" style="stroke: #000000; stroke-width: 0.5"/>
      </g>
     </g>
     <g id="line2d_40">
      <g>
       <use xlink:href="#m7ee3662ceb" x="320.974034" y="3.6" style="stroke: #000000; stroke-width: 0.5"/>
      </g>
     </g>
    </g>
    <g id="xtick_21">
     <g id="line2d_41">
      <g>
       <use xlink:href="#md87c8a5781" x="336.470671" y="269.712" style="stroke: #000000; stroke-width: 0.5"/>
      </g>
     </g>
     <g id="line2d_42">
      <g>
       <use xlink:href="#m7ee3662ceb" x="336.470671" y="3.6" style="stroke: #000000; stroke-width: 0.5"/>
      </g>
     </g>
    </g>
    <g id="xtick_22">
     <g id="line2d_43">
      <g>
       <use xlink:href="#md87c8a5781" x="351.967308" y="269.712" style="stroke: #000000; stroke-width: 0.5"/>
      </g>
     </g>
     <g id="line2d_44">
      <g>
       <use xlink:href="#m7ee3662ceb" x="351.967308" y="3.6" style="stroke: #000000; stroke-width: 0.5"/>
      </g>
     </g>
    </g>
    <g id="xtick_23">
     <g id="line2d_45">
      <g>
       <use xlink:href="#md87c8a5781" x="382.960582" y="269.712" style="stroke: #000000; stroke-width: 0.5"/>
      </g>
     </g>
     <g id="line2d_46">
      <g>
       <use xlink:href="#m7ee3662ceb" x="382.960582" y="3.6" style="stroke: #000000; stroke-width: 0.5"/>
      </g>
     </g>
    </g>
    <g id="text_6">
     <!-- days -->
     <g transform="translate(205.249382 295.148446) scale(0.16 -0.16)">
      <defs>
       <path id="NimbusRomNo9L-Regu-64" d="M 2202 -64 
L 3142 269 
L 3142 365 
C 3027 365 3014 365 2995 365 
C 2765 365 2714 435 2714 731 
L 2714 4364 
L 2682 4377 
C 2374 4268 2150 4204 1741 4096 
L 1741 3994 
C 1792 4000 1830 4000 1882 4000 
C 2118 4000 2176 3936 2176 3672 
L 2176 2669 
C 1933 2874 1760 2944 1504 2944 
C 768 2944 173 2221 173 1312 
C 173 493 653 -64 1357 -64 
C 1715 -64 1958 64 2176 365 
L 2176 -45 
L 2202 -64 
z
M 2176 653 
C 2176 608 2131 531 2067 461 
C 1952 333 1792 269 1606 269 
C 1075 269 723 781 723 1568 
C 723 2291 1037 2765 1523 2765 
C 1862 2765 2176 2464 2176 2125 
L 2176 653 
z
" transform="scale(0.015625)"/>
       <path id="NimbusRomNo9L-Regu-61" d="M 2829 423 
C 2720 333 2643 301 2547 301 
C 2400 301 2355 390 2355 672 
L 2355 1920 
C 2355 2253 2323 2438 2227 2592 
C 2086 2822 1811 2944 1434 2944 
C 832 2944 358 2630 358 2227 
C 358 2080 486 1952 634 1952 
C 787 1952 922 2080 922 2221 
C 922 2246 915 2278 909 2323 
C 896 2381 890 2432 890 2477 
C 890 2650 1094 2790 1350 2790 
C 1664 2790 1837 2605 1837 2259 
L 1837 1869 
C 851 1472 742 1421 467 1178 
C 326 1050 237 832 237 621 
C 237 218 518 -64 909 -64 
C 1190 -64 1453 70 1843 403 
C 1875 70 1990 -64 2253 -64 
C 2470 -64 2605 13 2829 256 
L 2829 423 
z
M 1837 783 
C 1837 584 1805 526 1670 449 
C 1517 359 1338 301 1203 301 
C 979 301 800 520 800 796 
L 800 822 
C 800 1201 1062 1433 1837 1715 
L 1837 783 
z
" transform="scale(0.015625)"/>
       <path id="NimbusRomNo9L-Regu-79" d="M 3040 2880 
L 2176 2880 
L 2176 2784 
C 2381 2784 2483 2726 2483 2623 
C 2483 2597 2477 2559 2458 2514 
L 1837 742 
L 1101 2377 
C 1062 2468 1037 2552 1037 2622 
C 1037 2739 1133 2784 1408 2784 
L 1408 2880 
L 90 2880 
L 90 2790 
C 256 2765 365 2694 416 2585 
L 1146 1005 
L 1165 953 
L 1261 761 
C 1440 440 1542 209 1542 112 
C 1542 16 1395 -389 1286 -582 
C 1197 -749 1056 -871 966 -871 
C 928 -871 870 -858 806 -826 
C 685 -781 576 -755 467 -755 
C 320 -755 192 -883 192 -1037 
C 192 -1248 397 -1408 666 -1408 
C 1094 -1408 1402 -1049 1747 -124 
L 2733 2495 
C 2816 2701 2886 2765 3040 2784 
L 3040 2880 
z
" transform="scale(0.015625)"/>
       <path id="NimbusRomNo9L-Regu-73" d="M 2016 2010 
L 1990 2880 
L 1920 2880 
L 1907 2867 
C 1850 2822 1843 2816 1818 2816 
C 1779 2816 1715 2829 1645 2861 
C 1504 2915 1363 2944 1197 2944 
C 691 2944 326 2616 326 2154 
C 326 1796 531 1539 1075 1231 
L 1446 1020 
C 1670 892 1779 737 1779 539 
C 1779 256 1574 77 1248 77 
C 1030 77 832 159 710 298 
C 576 455 518 600 435 960 
L 333 960 
L 333 -39 
L 416 -39 
C 461 33 486 48 563 48 
C 621 48 710 35 858 -2 
C 1037 -39 1210 -64 1325 -64 
C 1818 -64 2227 308 2227 757 
C 2227 1077 2074 1289 1690 1520 
L 998 1930 
C 819 2033 723 2194 723 2367 
C 723 2624 922 2803 1216 2803 
C 1581 2803 1773 2583 1920 2010 
L 2016 2010 
z
" transform="scale(0.015625)"/>
      </defs>
      <use xlink:href="#NimbusRomNo9L-Regu-64" transform="scale(0.996264)"/>
      <use xlink:href="#NimbusRomNo9L-Regu-61" transform="translate(49.8132 0) scale(0.996264)"/>
      <use xlink:href="#NimbusRomNo9L-Regu-79" transform="translate(94.046769 0) scale(0.996264)"/>
      <use xlink:href="#NimbusRomNo9L-Regu-73" transform="translate(143.85997 0) scale(0.996264)"/>
     </g>
    </g>
   </g>
   <g id="matplotlib.axis_2">
    <g id="ytick_1">
     <g id="line2d_47">
      <defs>
       <path id="m1c48ecb445" d="M 0 0 
L 3 0 
" style="stroke: #000000; stroke-width: 0.5"/>
      </defs>
      <g>
       <use xlink:href="#m1c48ecb445" x="41.298478" y="257.100777" style="stroke: #000000; stroke-width: 0.5"/>
      </g>
     </g>
     <g id="line2d_48">
      <defs>
       <path id="m8c5f093f06" d="M 0 0 
L -3 0 
" style="stroke: #000000; stroke-width: 0.5"/>
      </defs>
      <g>
       <use xlink:href="#m8c5f093f06" x="398.418478" y="257.100777" style="stroke: #000000; stroke-width: 0.5"/>
      </g>
     </g>
     <g id="text_7">
      <!-- $\mathdefault{0}$ -->
      <g transform="translate(33.813421 259.802605) scale(0.08 -0.08)">
       <use xlink:href="#NimbusRomNo9L-Regu-30" transform="scale(0.996264)"/>
      </g>
     </g>
    </g>
    <g id="ytick_2">
     <g id="line2d_49">
      <g>
       <use xlink:href="#m1c48ecb445" x="41.298478" y="222.201595" style="stroke: #000000; stroke-width: 0.5"/>
      </g>
     </g>
     <g id="line2d_50">
      <g>
       <use xlink:href="#m8c5f093f06" x="398.418478" y="222.201595" style="stroke: #000000; stroke-width: 0.5"/>
      </g>
     </g>
     <g id="text_8">
      <!-- $\mathdefault{1000}$ -->
      <g transform="translate(21.858253 224.903423) scale(0.08 -0.08)">
       <use xlink:href="#NimbusRomNo9L-Regu-31" transform="scale(0.996264)"/>
       <use xlink:href="#NimbusRomNo9L-Regu-30" transform="translate(49.8132 0) scale(0.996264)"/>
       <use xlink:href="#NimbusRomNo9L-Regu-30" transform="translate(99.626401 0) scale(0.996264)"/>
       <use xlink:href="#NimbusRomNo9L-Regu-30" transform="translate(149.439601 0) scale(0.996264)"/>
      </g>
     </g>
    </g>
    <g id="ytick_3">
     <g id="line2d_51">
      <g>
       <use xlink:href="#m1c48ecb445" x="41.298478" y="187.302414" style="stroke: #000000; stroke-width: 0.5"/>
      </g>
     </g>
     <g id="line2d_52">
      <g>
       <use xlink:href="#m8c5f093f06" x="398.418478" y="187.302414" style="stroke: #000000; stroke-width: 0.5"/>
      </g>
     </g>
     <g id="text_9">
      <!-- $\mathdefault{2000}$ -->
      <g transform="translate(21.858253 190.004242) scale(0.08 -0.08)">
       <use xlink:href="#NimbusRomNo9L-Regu-32" transform="scale(0.996264)"/>
       <use xlink:href="#NimbusRomNo9L-Regu-30" transform="translate(49.8132 0) scale(0.996264)"/>
       <use xlink:href="#NimbusRomNo9L-Regu-30" transform="translate(99.626401 0) scale(0.996264)"/>
       <use xlink:href="#NimbusRomNo9L-Regu-30" transform="translate(149.439601 0) scale(0.996264)"/>
      </g>
     </g>
    </g>
    <g id="ytick_4">
     <g id="line2d_53">
      <g>
       <use xlink:href="#m1c48ecb445" x="41.298478" y="152.403233" style="stroke: #000000; stroke-width: 0.5"/>
      </g>
     </g>
     <g id="line2d_54">
      <g>
       <use xlink:href="#m8c5f093f06" x="398.418478" y="152.403233" style="stroke: #000000; stroke-width: 0.5"/>
      </g>
     </g>
     <g id="text_10">
      <!-- $\mathdefault{3000}$ -->
      <g transform="translate(21.858253 155.105061) scale(0.08 -0.08)">
       <use xlink:href="#NimbusRomNo9L-Regu-33" transform="scale(0.996264)"/>
       <use xlink:href="#NimbusRomNo9L-Regu-30" transform="translate(49.8132 0) scale(0.996264)"/>
       <use xlink:href="#NimbusRomNo9L-Regu-30" transform="translate(99.626401 0) scale(0.996264)"/>
       <use xlink:href="#NimbusRomNo9L-Regu-30" transform="translate(149.439601 0) scale(0.996264)"/>
      </g>
     </g>
    </g>
    <g id="ytick_5">
     <g id="line2d_55">
      <g>
       <use xlink:href="#m1c48ecb445" x="41.298478" y="117.504052" style="stroke: #000000; stroke-width: 0.5"/>
      </g>
     </g>
     <g id="line2d_56">
      <g>
       <use xlink:href="#m8c5f093f06" x="398.418478" y="117.504052" style="stroke: #000000; stroke-width: 0.5"/>
      </g>
     </g>
     <g id="text_11">
      <!-- $\mathdefault{4000}$ -->
      <g transform="translate(21.858253 120.20588) scale(0.08 -0.08)">
       <use xlink:href="#NimbusRomNo9L-Regu-34" transform="scale(0.996264)"/>
       <use xlink:href="#NimbusRomNo9L-Regu-30" transform="translate(49.8132 0) scale(0.996264)"/>
       <use xlink:href="#NimbusRomNo9L-Regu-30" transform="translate(99.626401 0) scale(0.996264)"/>
       <use xlink:href="#NimbusRomNo9L-Regu-30" transform="translate(149.439601 0) scale(0.996264)"/>
      </g>
     </g>
    </g>
    <g id="ytick_6">
     <g id="line2d_57">
      <g>
       <use xlink:href="#m1c48ecb445" x="41.298478" y="82.60487" style="stroke: #000000; stroke-width: 0.5"/>
      </g>
     </g>
     <g id="line2d_58">
      <g>
       <use xlink:href="#m8c5f093f06" x="398.418478" y="82.60487" style="stroke: #000000; stroke-width: 0.5"/>
      </g>
     </g>
     <g id="text_12">
      <!-- $\mathdefault{5000}$ -->
      <g transform="translate(21.858253 85.306698) scale(0.08 -0.08)">
       <defs>
        <path id="NimbusRomNo9L-Regu-35" d="M 1158 3776 
L 2413 3776 
C 2515 3776 2541 3789 2560 3834 
L 2803 4403 
L 2746 4448 
C 2650 4314 2586 4282 2451 4282 
L 1114 4282 
L 416 2759 
C 410 2746 410 2740 410 2727 
C 410 2695 435 2676 486 2676 
C 691 2676 947 2631 1210 2547 
C 1946 2309 2285 1910 2285 1274 
C 2285 656 1894 173 1395 173 
C 1267 173 1158 218 966 360 
C 762 508 614 572 480 572 
C 294 572 205 495 205 334 
C 205 90 506 -64 986 -64 
C 1523 -64 1984 110 2304 438 
C 2598 728 2733 1094 2733 1583 
C 2733 2046 2611 2342 2291 2663 
C 2010 2947 1645 3094 890 3229 
L 1158 3776 
z
" transform="scale(0.015625)"/>
       </defs>
       <use xlink:href="#NimbusRomNo9L-Regu-35" transform="scale(0.996264)"/>
       <use xlink:href="#NimbusRomNo9L-Regu-30" transform="translate(49.8132 0) scale(0.996264)"/>
       <use xlink:href="#NimbusRomNo9L-Regu-30" transform="translate(99.626401 0) scale(0.996264)"/>
       <use xlink:href="#NimbusRomNo9L-Regu-30" transform="translate(149.439601 0) scale(0.996264)"/>
      </g>
     </g>
    </g>
    <g id="ytick_7">
     <g id="line2d_59">
      <g>
       <use xlink:href="#m1c48ecb445" x="41.298478" y="47.705689" style="stroke: #000000; stroke-width: 0.5"/>
      </g>
     </g>
     <g id="line2d_60">
      <g>
       <use xlink:href="#m8c5f093f06" x="398.418478" y="47.705689" style="stroke: #000000; stroke-width: 0.5"/>
      </g>
     </g>
     <g id="text_13">
      <!-- $\mathdefault{6000}$ -->
      <g transform="translate(21.858253 50.407517) scale(0.08 -0.08)">
       <defs>
        <path id="NimbusRomNo9L-Regu-36" d="M 2854 4391 
C 2125 4327 1754 4205 1286 3879 
C 595 3386 218 2656 218 1802 
C 218 1248 390 688 666 370 
C 909 89 1254 -64 1651 -64 
C 2445 -64 2995 541 2995 1421 
C 2995 2236 2528 2752 1792 2752 
C 1510 2752 1376 2707 973 2464 
C 1146 3431 1862 4122 2867 4288 
L 2854 4391 
z
M 1549 2458 
C 2099 2458 2419 2000 2419 1204 
C 2419 504 2170 116 1722 116 
C 1158 116 813 714 813 1700 
C 813 2025 864 2203 992 2299 
C 1126 2400 1325 2458 1549 2458 
z
" transform="scale(0.015625)"/>
       </defs>
       <use xlink:href="#NimbusRomNo9L-Regu-36" transform="scale(0.996264)"/>
       <use xlink:href="#NimbusRomNo9L-Regu-30" transform="translate(49.8132 0) scale(0.996264)"/>
       <use xlink:href="#NimbusRomNo9L-Regu-30" transform="translate(99.626401 0) scale(0.996264)"/>
       <use xlink:href="#NimbusRomNo9L-Regu-30" transform="translate(149.439601 0) scale(0.996264)"/>
      </g>
     </g>
    </g>
    <g id="ytick_8">
     <g id="line2d_61">
      <g>
       <use xlink:href="#m1c48ecb445" x="41.298478" y="12.806508" style="stroke: #000000; stroke-width: 0.5"/>
      </g>
     </g>
     <g id="line2d_62">
      <g>
       <use xlink:href="#m8c5f093f06" x="398.418478" y="12.806508" style="stroke: #000000; stroke-width: 0.5"/>
      </g>
     </g>
     <g id="text_14">
      <!-- $\mathdefault{7000}$ -->
      <g transform="translate(21.858253 15.508336) scale(0.08 -0.08)">
       <defs>
        <path id="NimbusRomNo9L-Regu-37" d="M 2874 4250 
L 506 4250 
L 128 3310 
L 237 3258 
C 512 3693 627 3776 979 3776 
L 2368 3776 
L 1101 -32 
L 1517 -32 
L 2874 4148 
L 2874 4250 
z
" transform="scale(0.015625)"/>
       </defs>
       <use xlink:href="#NimbusRomNo9L-Regu-37" transform="scale(0.996264)"/>
       <use xlink:href="#NimbusRomNo9L-Regu-30" transform="translate(49.8132 0) scale(0.996264)"/>
       <use xlink:href="#NimbusRomNo9L-Regu-30" transform="translate(99.626401 0) scale(0.996264)"/>
       <use xlink:href="#NimbusRomNo9L-Regu-30" transform="translate(149.439601 0) scale(0.996264)"/>
      </g>
     </g>
    </g>
    <g id="ytick_9">
     <g id="line2d_63">
      <defs>
       <path id="ma118a9f275" d="M 0 0 
L 1.5 0 
" style="stroke: #000000; stroke-width: 0.5"/>
      </defs>
      <g>
       <use xlink:href="#ma118a9f275" x="41.298478" y="264.080613" style="stroke: #000000; stroke-width: 0.5"/>
      </g>
     </g>
     <g id="line2d_64">
      <defs>
       <path id="ma2f1596ed1" d="M 0 0 
L -1.5 0 
" style="stroke: #000000; stroke-width: 0.5"/>
      </defs>
      <g>
       <use xlink:href="#ma2f1596ed1" x="398.418478" y="264.080613" style="stroke: #000000; stroke-width: 0.5"/>
      </g>
     </g>
    </g>
    <g id="ytick_10">
     <g id="line2d_65">
      <g>
       <use xlink:href="#ma118a9f275" x="41.298478" y="250.12094" style="stroke: #000000; stroke-width: 0.5"/>
      </g>
     </g>
     <g id="line2d_66">
      <g>
       <use xlink:href="#ma2f1596ed1" x="398.418478" y="250.12094" style="stroke: #000000; stroke-width: 0.5"/>
      </g>
     </g>
    </g>
    <g id="ytick_11">
     <g id="line2d_67">
      <g>
       <use xlink:href="#ma118a9f275" x="41.298478" y="243.141104" style="stroke: #000000; stroke-width: 0.5"/>
      </g>
     </g>
     <g id="line2d_68">
      <g>
       <use xlink:href="#ma2f1596ed1" x="398.418478" y="243.141104" style="stroke: #000000; stroke-width: 0.5"/>
      </g>
     </g>
    </g>
    <g id="ytick_12">
     <g id="line2d_69">
      <g>
       <use xlink:href="#ma118a9f275" x="41.298478" y="236.161268" style="stroke: #000000; stroke-width: 0.5"/>
      </g>
     </g>
     <g id="line2d_70">
      <g>
       <use xlink:href="#ma2f1596ed1" x="398.418478" y="236.161268" style="stroke: #000000; stroke-width: 0.5"/>
      </g>
     </g>
    </g>
    <g id="ytick_13">
     <g id="line2d_71">
      <g>
       <use xlink:href="#ma118a9f275" x="41.298478" y="229.181432" style="stroke: #000000; stroke-width: 0.5"/>
      </g>
     </g>
     <g id="line2d_72">
      <g>
       <use xlink:href="#ma2f1596ed1" x="398.418478" y="229.181432" style="stroke: #000000; stroke-width: 0.5"/>
      </g>
     </g>
    </g>
    <g id="ytick_14">
     <g id="line2d_73">
      <g>
       <use xlink:href="#ma118a9f275" x="41.298478" y="215.221759" style="stroke: #000000; stroke-width: 0.5"/>
      </g>
     </g>
     <g id="line2d_74">
      <g>
       <use xlink:href="#ma2f1596ed1" x="398.418478" y="215.221759" style="stroke: #000000; stroke-width: 0.5"/>
      </g>
     </g>
    </g>
    <g id="ytick_15">
     <g id="line2d_75">
      <g>
       <use xlink:href="#ma118a9f275" x="41.298478" y="208.241923" style="stroke: #000000; stroke-width: 0.5"/>
      </g>
     </g>
     <g id="line2d_76">
      <g>
       <use xlink:href="#ma2f1596ed1" x="398.418478" y="208.241923" style="stroke: #000000; stroke-width: 0.5"/>
      </g>
     </g>
    </g>
    <g id="ytick_16">
     <g id="line2d_77">
      <g>
       <use xlink:href="#ma118a9f275" x="41.298478" y="201.262087" style="stroke: #000000; stroke-width: 0.5"/>
      </g>
     </g>
     <g id="line2d_78">
      <g>
       <use xlink:href="#ma2f1596ed1" x="398.418478" y="201.262087" style="stroke: #000000; stroke-width: 0.5"/>
      </g>
     </g>
    </g>
    <g id="ytick_17">
     <g id="line2d_79">
      <g>
       <use xlink:href="#ma118a9f275" x="41.298478" y="194.28225" style="stroke: #000000; stroke-width: 0.5"/>
      </g>
     </g>
     <g id="line2d_80">
      <g>
       <use xlink:href="#ma2f1596ed1" x="398.418478" y="194.28225" style="stroke: #000000; stroke-width: 0.5"/>
      </g>
     </g>
    </g>
    <g id="ytick_18">
     <g id="line2d_81">
      <g>
       <use xlink:href="#ma118a9f275" x="41.298478" y="180.322578" style="stroke: #000000; stroke-width: 0.5"/>
      </g>
     </g>
     <g id="line2d_82">
      <g>
       <use xlink:href="#ma2f1596ed1" x="398.418478" y="180.322578" style="stroke: #000000; stroke-width: 0.5"/>
      </g>
     </g>
    </g>
    <g id="ytick_19">
     <g id="line2d_83">
      <g>
       <use xlink:href="#ma118a9f275" x="41.298478" y="173.342742" style="stroke: #000000; stroke-width: 0.5"/>
      </g>
     </g>
     <g id="line2d_84">
      <g>
       <use xlink:href="#ma2f1596ed1" x="398.418478" y="173.342742" style="stroke: #000000; stroke-width: 0.5"/>
      </g>
     </g>
    </g>
    <g id="ytick_20">
     <g id="line2d_85">
      <g>
       <use xlink:href="#ma118a9f275" x="41.298478" y="166.362905" style="stroke: #000000; stroke-width: 0.5"/>
      </g>
     </g>
     <g id="line2d_86">
      <g>
       <use xlink:href="#ma2f1596ed1" x="398.418478" y="166.362905" style="stroke: #000000; stroke-width: 0.5"/>
      </g>
     </g>
    </g>
    <g id="ytick_21">
     <g id="line2d_87">
      <g>
       <use xlink:href="#ma118a9f275" x="41.298478" y="159.383069" style="stroke: #000000; stroke-width: 0.5"/>
      </g>
     </g>
     <g id="line2d_88">
      <g>
       <use xlink:href="#ma2f1596ed1" x="398.418478" y="159.383069" style="stroke: #000000; stroke-width: 0.5"/>
      </g>
     </g>
    </g>
    <g id="ytick_22">
     <g id="line2d_89">
      <g>
       <use xlink:href="#ma118a9f275" x="41.298478" y="145.423397" style="stroke: #000000; stroke-width: 0.5"/>
      </g>
     </g>
     <g id="line2d_90">
      <g>
       <use xlink:href="#ma2f1596ed1" x="398.418478" y="145.423397" style="stroke: #000000; stroke-width: 0.5"/>
      </g>
     </g>
    </g>
    <g id="ytick_23">
     <g id="line2d_91">
      <g>
       <use xlink:href="#ma118a9f275" x="41.298478" y="138.44356" style="stroke: #000000; stroke-width: 0.5"/>
      </g>
     </g>
     <g id="line2d_92">
      <g>
       <use xlink:href="#ma2f1596ed1" x="398.418478" y="138.44356" style="stroke: #000000; stroke-width: 0.5"/>
      </g>
     </g>
    </g>
    <g id="ytick_24">
     <g id="line2d_93">
      <g>
       <use xlink:href="#ma118a9f275" x="41.298478" y="131.463724" style="stroke: #000000; stroke-width: 0.5"/>
      </g>
     </g>
     <g id="line2d_94">
      <g>
       <use xlink:href="#ma2f1596ed1" x="398.418478" y="131.463724" style="stroke: #000000; stroke-width: 0.5"/>
      </g>
     </g>
    </g>
    <g id="ytick_25">
     <g id="line2d_95">
      <g>
       <use xlink:href="#ma118a9f275" x="41.298478" y="124.483888" style="stroke: #000000; stroke-width: 0.5"/>
      </g>
     </g>
     <g id="line2d_96">
      <g>
       <use xlink:href="#ma2f1596ed1" x="398.418478" y="124.483888" style="stroke: #000000; stroke-width: 0.5"/>
      </g>
     </g>
    </g>
    <g id="ytick_26">
     <g id="line2d_97">
      <g>
       <use xlink:href="#ma118a9f275" x="41.298478" y="110.524215" style="stroke: #000000; stroke-width: 0.5"/>
      </g>
     </g>
     <g id="line2d_98">
      <g>
       <use xlink:href="#ma2f1596ed1" x="398.418478" y="110.524215" style="stroke: #000000; stroke-width: 0.5"/>
      </g>
     </g>
    </g>
    <g id="ytick_27">
     <g id="line2d_99">
      <g>
       <use xlink:href="#ma118a9f275" x="41.298478" y="103.544379" style="stroke: #000000; stroke-width: 0.5"/>
      </g>
     </g>
     <g id="line2d_100">
      <g>
       <use xlink:href="#ma2f1596ed1" x="398.418478" y="103.544379" style="stroke: #000000; stroke-width: 0.5"/>
      </g>
     </g>
    </g>
    <g id="ytick_28">
     <g id="line2d_101">
      <g>
       <use xlink:href="#ma118a9f275" x="41.298478" y="96.564543" style="stroke: #000000; stroke-width: 0.5"/>
      </g>
     </g>
     <g id="line2d_102">
      <g>
       <use xlink:href="#ma2f1596ed1" x="398.418478" y="96.564543" style="stroke: #000000; stroke-width: 0.5"/>
      </g>
     </g>
    </g>
    <g id="ytick_29">
     <g id="line2d_103">
      <g>
       <use xlink:href="#ma118a9f275" x="41.298478" y="89.584707" style="stroke: #000000; stroke-width: 0.5"/>
      </g>
     </g>
     <g id="line2d_104">
      <g>
       <use xlink:href="#ma2f1596ed1" x="398.418478" y="89.584707" style="stroke: #000000; stroke-width: 0.5"/>
      </g>
     </g>
    </g>
    <g id="ytick_30">
     <g id="line2d_105">
      <g>
       <use xlink:href="#ma118a9f275" x="41.298478" y="75.625034" style="stroke: #000000; stroke-width: 0.5"/>
      </g>
     </g>
     <g id="line2d_106">
      <g>
       <use xlink:href="#ma2f1596ed1" x="398.418478" y="75.625034" style="stroke: #000000; stroke-width: 0.5"/>
      </g>
     </g>
    </g>
    <g id="ytick_31">
     <g id="line2d_107">
      <g>
       <use xlink:href="#ma118a9f275" x="41.298478" y="68.645198" style="stroke: #000000; stroke-width: 0.5"/>
      </g>
     </g>
     <g id="line2d_108">
      <g>
       <use xlink:href="#ma2f1596ed1" x="398.418478" y="68.645198" style="stroke: #000000; stroke-width: 0.5"/>
      </g>
     </g>
    </g>
    <g id="ytick_32">
     <g id="line2d_109">
      <g>
       <use xlink:href="#ma118a9f275" x="41.298478" y="61.665362" style="stroke: #000000; stroke-width: 0.5"/>
      </g>
     </g>
     <g id="line2d_110">
      <g>
       <use xlink:href="#ma2f1596ed1" x="398.418478" y="61.665362" style="stroke: #000000; stroke-width: 0.5"/>
      </g>
     </g>
    </g>
    <g id="ytick_33">
     <g id="line2d_111">
      <g>
       <use xlink:href="#ma118a9f275" x="41.298478" y="54.685525" style="stroke: #000000; stroke-width: 0.5"/>
      </g>
     </g>
     <g id="line2d_112">
      <g>
       <use xlink:href="#ma2f1596ed1" x="398.418478" y="54.685525" style="stroke: #000000; stroke-width: 0.5"/>
      </g>
     </g>
    </g>
    <g id="ytick_34">
     <g id="line2d_113">
      <g>
       <use xlink:href="#ma118a9f275" x="41.298478" y="40.725853" style="stroke: #000000; stroke-width: 0.5"/>
      </g>
     </g>
     <g id="line2d_114">
      <g>
       <use xlink:href="#ma2f1596ed1" x="398.418478" y="40.725853" style="stroke: #000000; stroke-width: 0.5"/>
      </g>
     </g>
    </g>
    <g id="ytick_35">
     <g id="line2d_115">
      <g>
       <use xlink:href="#ma118a9f275" x="41.298478" y="33.746017" style="stroke: #000000; stroke-width: 0.5"/>
      </g>
     </g>
     <g id="line2d_116">
      <g>
       <use xlink:href="#ma2f1596ed1" x="398.418478" y="33.746017" style="stroke: #000000; stroke-width: 0.5"/>
      </g>
     </g>
    </g>
    <g id="ytick_36">
     <g id="line2d_117">
      <g>
       <use xlink:href="#ma118a9f275" x="41.298478" y="26.76618" style="stroke: #000000; stroke-width: 0.5"/>
      </g>
     </g>
     <g id="line2d_118">
      <g>
       <use xlink:href="#ma2f1596ed1" x="398.418478" y="26.76618" style="stroke: #000000; stroke-width: 0.5"/>
      </g>
     </g>
    </g>
    <g id="ytick_37">
     <g id="line2d_119">
      <g>
       <use xlink:href="#ma118a9f275" x="41.298478" y="19.786344" style="stroke: #000000; stroke-width: 0.5"/>
      </g>
     </g>
     <g id="line2d_120">
      <g>
       <use xlink:href="#ma2f1596ed1" x="398.418478" y="19.786344" style="stroke: #000000; stroke-width: 0.5"/>
      </g>
     </g>
    </g>
    <g id="ytick_38">
     <g id="line2d_121">
      <g>
       <use xlink:href="#ma118a9f275" x="41.298478" y="5.826672" style="stroke: #000000; stroke-width: 0.5"/>
      </g>
     </g>
     <g id="line2d_122">
      <g>
       <use xlink:href="#ma2f1596ed1" x="398.418478" y="5.826672" style="stroke: #000000; stroke-width: 0.5"/>
      </g>
     </g>
    </g>
    <g id="text_15">
     <!-- spatial rainfall -->
     <g transform="translate(14.407327 182.395716) rotate(-90) scale(0.16 -0.16)">
      <defs>
       <path id="NimbusRomNo9L-Regu-70" d="M 58 2516 
C 115 2522 160 2522 218 2522 
C 435 2522 480 2458 480 2155 
L 480 -855 
C 480 -1189 410 -1261 32 -1299 
L 32 -1408 
L 1581 -1408 
L 1581 -1293 
C 1101 -1293 1018 -1222 1018 -816 
L 1018 199 
C 1242 -13 1395 -77 1664 -77 
C 2419 -77 3008 643 3008 1575 
C 3008 2372 2560 2944 1939 2944 
C 1581 2944 1299 2784 1018 2438 
L 1018 2931 
L 979 2944 
C 634 2810 410 2726 58 2618 
L 58 2516 
z
M 1018 2136 
C 1018 2329 1376 2560 1670 2560 
C 2144 2560 2458 2071 2458 1324 
C 2458 611 2144 128 1683 128 
C 1382 128 1018 359 1018 552 
L 1018 2136 
z
" transform="scale(0.015625)"/>
       <path id="NimbusRomNo9L-Regu-74" d="M 1632 2880 
L 986 2880 
L 986 3622 
C 986 3686 979 3706 941 3706 
C 896 3648 858 3590 813 3526 
C 570 3174 294 2867 192 2841 
C 122 2794 83 2748 83 2715 
C 83 2695 90 2682 109 2682 
L 448 2682 
L 448 751 
C 448 212 640 -64 1018 -64 
C 1331 -64 1574 90 1786 423 
L 1702 493 
C 1568 333 1459 269 1318 269 
C 1082 269 986 443 986 847 
L 986 2682 
L 1632 2682 
L 1632 2880 
z
" transform="scale(0.015625)"/>
       <path id="NimbusRomNo9L-Regu-69" d="M 1120 2929 
L 128 2579 
L 128 2484 
L 179 2490 
C 256 2502 339 2509 397 2509 
C 550 2509 608 2406 608 2125 
L 608 640 
C 608 179 544 109 102 109 
L 102 0 
L 1619 0 
L 1619 96 
C 1197 128 1146 191 1146 650 
L 1146 2910 
L 1120 2929 
z
M 819 4352 
C 646 4352 499 4205 499 4026 
C 499 3847 640 3699 819 3699 
C 1005 3699 1152 3840 1152 4026 
C 1152 4205 1005 4352 819 4352 
z
" transform="scale(0.015625)"/>
       <path id="NimbusRomNo9L-Regu-6c" d="M 122 4000 
L 160 4000 
C 230 4000 307 4000 358 4000 
C 563 4000 627 3910 627 3610 
L 627 557 
C 627 211 538 128 134 96 
L 134 0 
L 1645 0 
L 1645 109 
C 1242 109 1165 173 1165 528 
L 1165 4371 
L 1139 4384 
C 806 4275 563 4211 122 4103 
L 122 4000 
z
" transform="scale(0.015625)"/>
       <path id="NimbusRomNo9L-Regu-72" d="M 45 2496 
C 134 2515 192 2522 269 2522 
C 429 2522 486 2419 486 2138 
L 486 538 
C 486 218 442 173 32 96 
L 32 0 
L 1568 0 
L 1568 102 
C 1133 102 1024 199 1024 565 
L 1024 2013 
C 1024 2219 1299 2541 1472 2541 
C 1510 2541 1568 2509 1638 2445 
C 1741 2355 1811 2317 1894 2317 
C 2048 2317 2144 2426 2144 2605 
C 2144 2816 2010 2944 1792 2944 
C 1523 2944 1338 2797 1024 2343 
L 1024 2931 
L 992 2944 
C 653 2803 422 2721 45 2599 
L 45 2496 
z
" transform="scale(0.015625)"/>
       <path id="NimbusRomNo9L-Regu-6e" d="M 102 2579 
C 141 2598 205 2605 275 2605 
C 454 2605 512 2509 512 2195 
L 512 608 
C 512 243 442 154 115 128 
L 115 32 
L 1472 32 
L 1472 128 
C 1146 154 1050 230 1050 461 
L 1050 2259 
C 1357 2547 1498 2624 1709 2624 
C 2022 2624 2176 2426 2176 2003 
L 2176 666 
C 2176 262 2093 154 1773 128 
L 1773 32 
L 3104 32 
L 3104 128 
C 2790 160 2714 237 2714 550 
L 2714 2016 
C 2714 2618 2432 2976 1958 2976 
C 1664 2976 1466 2867 1030 2458 
L 1030 2963 
L 986 2976 
C 672 2861 454 2790 102 2688 
L 102 2579 
z
" transform="scale(0.015625)"/>
       <path id="NimbusRomNo9L-Regu-66" d="M 1978 2880 
L 1190 2880 
L 1190 3611 
C 1190 3978 1312 4173 1555 4173 
C 1690 4173 1779 4110 1894 3927 
C 1997 3763 2074 3700 2182 3700 
C 2330 3700 2451 3814 2451 3959 
C 2451 4188 2170 4352 1786 4352 
C 1389 4352 1050 4181 883 3891 
C 717 3613 666 3385 659 2880 
L 134 2880 
L 134 2675 
L 659 2675 
L 659 656 
C 659 185 589 109 128 109 
L 128 0 
L 1792 0 
L 1792 109 
C 1267 109 1197 180 1197 661 
L 1197 2675 
L 1978 2675 
L 1978 2880 
z
" transform="scale(0.015625)"/>
      </defs>
      <use xlink:href="#NimbusRomNo9L-Regu-73" transform="scale(0.996264)"/>
      <use xlink:href="#NimbusRomNo9L-Regu-70" transform="translate(38.753706 0) scale(0.996264)"/>
      <use xlink:href="#NimbusRomNo9L-Regu-61" transform="translate(88.566907 0) scale(0.996264)"/>
      <use xlink:href="#NimbusRomNo9L-Regu-74" transform="translate(132.800475 0) scale(0.996264)"/>
      <use xlink:href="#NimbusRomNo9L-Regu-69" transform="translate(160.495645 0) scale(0.996264)"/>
      <use xlink:href="#NimbusRomNo9L-Regu-61" transform="translate(188.190815 0) scale(0.996264)"/>
      <use xlink:href="#NimbusRomNo9L-Regu-6c" transform="translate(232.424383 0) scale(0.996264)"/>
      <use xlink:href="#NimbusRomNo9L-Regu-72" transform="translate(285.026153 0) scale(0.996264)"/>
      <use xlink:href="#NimbusRomNo9L-Regu-61" transform="translate(318.201383 0) scale(0.996264)"/>
      <use xlink:href="#NimbusRomNo9L-Regu-69" transform="translate(362.434952 0) scale(0.996264)"/>
      <use xlink:href="#NimbusRomNo9L-Regu-6e" transform="translate(390.130121 0) scale(0.996264)"/>
      <use xlink:href="#NimbusRomNo9L-Regu-66" transform="translate(439.943322 0) scale(0.996264)"/>
      <use xlink:href="#NimbusRomNo9L-Regu-61" transform="translate(472.122455 0) scale(0.996264)"/>
      <use xlink:href="#NimbusRomNo9L-Regu-6c" transform="translate(516.356023 0) scale(0.996264)"/>
      <use xlink:href="#NimbusRomNo9L-Regu-6c" transform="translate(544.051193 0) scale(0.996264)"/>
     </g>
    </g>
   </g>
   <g id="line2d_123">
    <path d="M 57.531205 254.440002 
L 58.306037 252.995905 
L 59.080868 252.779894 
L 59.8557 253.966648 
L 60.630532 253.788753 
L 61.405364 255.041679 
L 62.180196 254.340229 
L 62.955028 253.987758 
L 63.72986 254.731116 
L 65.279523 254.287901 
L 66.054355 252.012475 
L 66.829187 250.874763 
L 67.604019 252.207911 
L 68.378851 253.038512 
L 69.153683 253.237437 
L 69.928514 253.972065 
L 70.703346 253.859516 
L 71.478178 255.146859 
L 72.25301 255.776571 
L 73.027842 254.822842 
L 73.802674 255.366778 
L 74.577505 255.734719 
L 75.352337 255.369028 
L 76.127169 256.004567 
L 76.902001 256.276969 
L 77.676833 255.907131 
L 78.451665 255.048658 
L 79.226497 255.006802 
L 80.001328 255.896743 
L 80.77616 256.482462 
L 82.325824 256.817857 
L 83.100656 256.887774 
L 83.875488 256.226493 
L 84.65032 255.888874 
L 85.425151 255.939928 
L 86.199983 255.08774 
L 86.974815 255.59171 
L 87.749647 255.871615 
L 88.524479 255.999351 
L 89.299311 256.312751 
L 90.074143 255.181668 
L 90.848974 254.898812 
L 91.623806 255.493755 
L 92.398638 255.792974 
L 93.17347 256.359627 
L 93.948302 256.677852 
L 94.723134 256.767168 
L 95.497965 256.405249 
L 96.272797 255.601339 
L 97.047629 253.751069 
L 97.822461 255.312326 
L 100.146957 254.660687 
L 100.921788 255.516034 
L 101.69662 255.833777 
L 103.246284 256.074701 
L 104.021116 256.484961 
L 104.795948 255.932603 
L 105.57078 255.879781 
L 106.345611 255.439812 
L 107.120443 256.128604 
L 107.895275 255.567714 
L 108.670107 255.866596 
L 109.444939 254.476984 
L 110.219771 255.694651 
L 110.994602 252.7333 
L 112.544266 253.068651 
L 113.319098 253.350225 
L 114.09393 253.819063 
L 114.868762 253.821403 
L 115.643594 252.232916 
L 116.418425 253.625106 
L 117.193257 254.33865 
L 117.968089 255.672773 
L 118.742921 254.449871 
L 119.517753 254.794657 
L 120.292585 253.574573 
L 121.067417 252.039702 
L 121.842248 252.807831 
L 122.61708 253.219814 
L 123.391912 252.350911 
L 124.941576 252.414667 
L 125.716408 253.093031 
L 126.491239 252.374768 
L 127.266071 253.753615 
L 128.040903 254.045188 
L 129.590567 254.272593 
L 130.365399 255.26964 
L 131.140231 254.447228 
L 131.915062 254.147701 
L 133.464726 254.309564 
L 134.239558 253.366925 
L 135.01439 249.109045 
L 135.789222 237.73182 
L 137.338885 249.054793 
L 138.113717 252.990537 
L 138.888549 253.892239 
L 139.663381 245.375745 
L 140.438213 245.828887 
L 141.213045 223.89448 
L 143.53754 240.656753 
L 145.087204 247.161607 
L 145.862036 246.966113 
L 146.636868 248.752922 
L 147.411699 249.681225 
L 148.186531 249.203099 
L 148.961363 245.648614 
L 149.736195 247.76263 
L 151.285859 246.119968 
L 152.060691 247.056029 
L 152.835522 247.506609 
L 153.610354 248.115791 
L 154.385186 250.828426 
L 155.160018 251.225015 
L 155.93485 252.400487 
L 156.709682 251.539907 
L 157.484514 252.069345 
L 158.259345 250.938096 
L 159.034177 248.121474 
L 159.809009 251.312876 
L 160.583841 251.379993 
L 161.358673 250.890063 
L 162.133505 248.06256 
L 162.908336 237.749515 
L 163.683168 239.311086 
L 164.458 240.109322 
L 165.232832 245.289626 
L 166.007664 240.18451 
L 166.782496 233.810491 
L 167.557328 238.091906 
L 168.332159 226.133345 
L 169.106991 229.821136 
L 169.881823 235.067703 
L 170.656655 238.982257 
L 171.431487 239.78786 
L 172.206319 241.516831 
L 172.981151 242.346417 
L 173.755982 245.273951 
L 174.530814 246.737718 
L 175.305646 248.446779 
L 176.080478 244.345625 
L 176.85531 244.982286 
L 177.630142 248.197248 
L 178.404973 248.862451 
L 179.179805 251.044709 
L 179.954637 251.786846 
L 180.729469 251.145839 
L 181.504301 251.767614 
L 182.279133 252.183197 
L 183.053965 253.057564 
L 183.828796 251.955693 
L 184.603628 253.165423 
L 185.37846 252.358614 
L 186.153292 248.657238 
L 186.928124 250.715258 
L 187.702956 250.226154 
L 189.252619 254.727762 
L 190.027451 252.912939 
L 190.802283 253.000155 
L 191.577115 254.357717 
L 192.351947 253.129258 
L 193.126779 251.555301 
L 193.901611 248.866317 
L 194.676442 250.540604 
L 195.451274 249.859634 
L 196.226106 248.123181 
L 197.000938 244.079129 
L 197.77577 230.173932 
L 198.550602 221.476374 
L 199.325433 197.933045 
L 200.100265 195.235166 
L 200.875097 202.960014 
L 201.649929 205.775464 
L 202.424761 205.961718 
L 203.199593 210.766234 
L 203.974425 198.161845 
L 204.749256 200.235449 
L 206.29892 221.526148 
L 207.073752 230.04773 
L 207.848584 234.34342 
L 208.623416 230.139613 
L 210.173079 224.072678 
L 210.947911 227.185441 
L 211.722743 228.375381 
L 212.497575 192.832247 
L 213.272407 196.349183 
L 214.047239 212.22437 
L 214.82207 220.510957 
L 215.596902 225.561626 
L 216.371734 233.391637 
L 217.146566 237.306644 
L 217.921398 240.223874 
L 218.69623 243.77644 
L 219.471062 234.053442 
L 220.245893 241.807998 
L 221.020725 246.557755 
L 221.795557 248.880285 
L 222.570389 249.64021 
L 223.345221 249.147692 
L 224.120053 249.337673 
L 224.894885 248.438037 
L 225.669716 249.576132 
L 226.444548 248.347871 
L 227.21938 248.030384 
L 227.994212 203.008741 
L 228.769044 202.484406 
L 229.543876 217.071842 
L 230.318707 228.169566 
L 231.093539 235.044601 
L 231.868371 237.208297 
L 232.643203 229.98414 
L 233.418035 235.707591 
L 234.192867 235.0794 
L 234.967699 236.562611 
L 235.74253 230.725722 
L 236.517362 231.035451 
L 237.292194 234.907078 
L 238.067026 237.296582 
L 238.841858 237.741001 
L 240.391522 243.754157 
L 241.166353 244.285211 
L 241.941185 245.597713 
L 242.716017 246.533158 
L 243.490849 244.505589 
L 244.265681 244.416632 
L 245.040513 243.866116 
L 245.815345 243.119719 
L 246.590176 244.421681 
L 247.365008 244.427027 
L 248.13984 247.710224 
L 248.914672 248.392094 
L 249.689504 248.73303 
L 250.464336 248.851148 
L 251.239167 249.869935 
L 252.013999 250.326981 
L 252.788831 251.550129 
L 253.563663 250.032854 
L 254.338495 248.070194 
L 255.113327 249.357311 
L 256.66299 248.307221 
L 257.437822 248.428849 
L 258.212654 249.257445 
L 259.762318 249.146009 
L 260.53715 248.673748 
L 261.311982 246.762455 
L 262.086813 247.534319 
L 262.861645 247.11757 
L 263.636477 247.031342 
L 264.411309 247.703662 
L 265.186141 249.278742 
L 265.960973 249.490447 
L 266.735804 249.317105 
L 267.510636 249.666674 
L 268.285468 250.783737 
L 269.0603 252.179848 
L 269.835132 252.877904 
L 270.609964 252.773242 
L 271.384796 251.569238 
L 272.159627 252.5377 
L 272.934459 253.02193 
L 273.709291 250.9607 
L 274.484123 250.523371 
L 275.258955 201.812294 
L 276.033787 184.0876 
L 276.808619 205.744587 
L 277.58345 221.598562 
L 278.358282 230.659773 
L 279.133114 234.858837 
L 279.907946 230.885911 
L 280.682778 238.095382 
L 281.45761 241.839714 
L 283.007273 247.378824 
L 283.782105 247.476062 
L 285.331769 196.06397 
L 286.881433 225.281915 
L 287.656264 233.513527 
L 288.431096 236.111217 
L 289.205928 233.937593 
L 289.98076 235.11923 
L 291.530424 242.688649 
L 292.305256 242.496086 
L 293.080087 244.074966 
L 293.854919 246.050978 
L 294.629751 246.061806 
L 295.404583 248.876605 
L 296.179415 248.3122 
L 296.954247 248.780331 
L 298.50391 247.395194 
L 299.278742 248.23458 
L 300.053574 249.265008 
L 300.828406 246.534598 
L 301.603238 247.123747 
L 302.37807 248.3606 
L 303.152901 249.868955 
L 303.927733 249.820452 
L 304.702565 246.672724 
L 305.477397 199.886969 
L 306.252229 196.561122 
L 307.027061 214.860528 
L 307.801893 129.712656 
L 308.576724 137.393526 
L 309.351556 172.643224 
L 310.126388 202.308295 
L 312.450884 230.821597 
L 313.225716 236.440414 
L 314.000547 241.04713 
L 314.775379 240.66325 
L 315.550211 222.882123 
L 316.325043 225.578089 
L 317.874707 238.8027 
L 318.649538 241.565188 
L 319.42437 190.876854 
L 320.199202 171.640043 
L 321.748866 213.016226 
L 322.523698 221.88406 
L 324.073361 209.035019 
L 324.848193 210.069337 
L 325.623025 215.960968 
L 326.397857 217.510816 
L 327.172689 15.696 
L 327.947521 62.063141 
L 328.722353 134.454548 
L 329.497184 177.281101 
L 331.046848 214.321789 
L 331.82168 226.166357 
L 332.596512 234.514135 
L 333.371344 203.230452 
L 334.146175 224.302554 
L 334.921007 232.535257 
L 335.695839 238.326768 
L 336.470671 242.2695 
L 337.245503 245.095896 
L 338.020335 248.655394 
L 339.569998 251.525687 
L 340.34483 251.102507 
L 341.119662 252.286884 
L 341.894494 252.547531 
L 342.669326 250.7235 
L 343.444158 231.227671 
L 344.21899 242.904363 
L 344.993821 248.383248 
L 345.768653 251.708996 
L 346.543485 252.923416 
L 347.318317 253.488747 
L 348.093149 255.013823 
L 348.867981 254.033148 
L 349.642813 255.102803 
L 350.417644 251.477648 
L 351.192476 220.088014 
L 351.967308 233.743409 
L 352.74214 229.106726 
L 353.516972 237.432634 
L 354.291804 243.061354 
L 355.066635 246.364302 
L 355.841467 248.678861 
L 356.616299 249.818691 
L 357.391131 251.878801 
L 358.165963 251.697854 
L 358.940795 253.221468 
L 359.715627 253.814014 
L 360.490458 251.164796 
L 361.26529 253.110241 
L 362.040122 253.377999 
L 363.589786 254.786329 
L 364.364618 255.172281 
L 365.13945 254.855729 
L 365.914281 254.146046 
L 366.689113 254.39845 
L 367.463945 251.579161 
L 368.238777 253.771112 
L 369.013609 251.893677 
L 369.788441 252.849986 
L 370.563272 251.433115 
L 371.338104 253.455539 
L 372.112936 248.211074 
L 372.887768 244.925756 
L 373.6626 246.563621 
L 374.437432 249.284559 
L 376.761927 252.557053 
L 377.536759 254.195495 
L 378.311591 253.850828 
L 379.086423 252.212729 
L 379.861255 254.004138 
L 380.636087 254.566555 
L 381.410918 254.530181 
L 382.18575 254.66206 
L 382.18575 254.66206 
" clip-path="url(#p2a6c47a30c)" style="fill: none; stroke: #000000; stroke-linecap: square"/>
   </g>
   <g id="line2d_124">
    <path d="M 57.531205 253.125076 
L 59.080868 249.897312 
L 59.8557 250.555607 
L 60.630532 252.187311 
L 61.405364 252.567458 
L 62.180196 253.981031 
L 63.72986 253.448017 
L 64.504691 254.290427 
L 65.279523 247.688837 
L 66.054355 249.610479 
L 66.829187 254.121351 
L 67.604019 253.675419 
L 68.378851 252.257945 
L 69.153683 252.150043 
L 69.928514 252.801205 
L 70.703346 253.198689 
L 71.478178 252.73414 
L 72.25301 254.319237 
L 73.027842 255.307346 
L 73.802674 255.356875 
L 74.577505 256.08887 
L 75.352337 255.819824 
L 76.127169 254.551897 
L 76.902001 255.4886 
L 77.676833 256.177563 
L 78.451665 256.156149 
L 79.226497 255.717133 
L 80.001328 255.706661 
L 80.77616 255.110491 
L 81.550992 255.672842 
L 82.325824 255.859161 
L 83.100656 256.216094 
L 84.65032 256.444581 
L 85.425151 255.75279 
L 86.974815 255.228298 
L 87.749647 255.786612 
L 88.524479 256.578301 
L 89.299311 256.490871 
L 90.074143 256.114005 
L 90.848974 254.243362 
L 91.623806 253.927997 
L 92.398638 254.375007 
L 93.948302 255.902152 
L 94.723134 256.236379 
L 95.497965 256.734949 
L 96.272797 255.836131 
L 97.047629 254.154435 
L 97.822461 253.568174 
L 98.597293 255.864125 
L 99.372125 255.546632 
L 100.146957 254.26874 
L 100.921788 254.531211 
L 101.69662 255.575732 
L 104.021116 254.867581 
L 104.795948 255.318407 
L 105.57078 255.304466 
L 106.345611 255.623798 
L 107.120443 255.605712 
L 107.895275 255.79593 
L 108.670107 255.004866 
L 109.444939 256.678924 
L 110.219771 254.914256 
L 110.994602 255.389571 
L 111.769434 253.159944 
L 112.544266 254.239106 
L 113.319098 254.783415 
L 114.09393 253.775117 
L 114.868762 252.445282 
L 115.643594 251.950212 
L 116.418425 250.825986 
L 117.193257 252.859607 
L 118.742921 254.300485 
L 119.517753 254.300985 
L 121.067417 252.047466 
L 121.842248 251.857861 
L 122.61708 252.100712 
L 123.391912 254.489693 
L 124.166744 254.418159 
L 124.941576 254.122331 
L 125.716408 253.469733 
L 126.491239 253.133559 
L 127.266071 252.002079 
L 128.040903 253.092899 
L 131.140231 254.625877 
L 131.915062 254.192296 
L 132.689894 254.222014 
L 133.464726 255.827221 
L 135.01439 252.519884 
L 135.789222 248.977979 
L 136.564054 235.807315 
L 137.338885 242.29931 
L 138.113717 249.836382 
L 138.888549 254.952971 
L 139.663381 251.46059 
L 140.438213 243.908644 
L 141.213045 247.432488 
L 141.987877 227.422001 
L 143.53754 239.271502 
L 144.312372 242.916084 
L 145.087204 244.032408 
L 145.862036 248.291063 
L 146.636868 248.297911 
L 147.411699 249.501358 
L 148.186531 249.631386 
L 148.961363 248.74376 
L 149.736195 241.558927 
L 150.511027 244.128076 
L 151.285859 248.58765 
L 152.060691 249.01939 
L 152.835522 248.769703 
L 153.610354 247.568623 
L 154.385186 245.270619 
L 155.160018 250.711347 
L 155.93485 253.81026 
L 156.709682 255.355732 
L 157.484514 252.758487 
L 158.259345 252.049522 
L 159.034177 251.096964 
L 159.809009 248.361132 
L 160.583841 250.682658 
L 161.358673 251.575123 
L 162.133505 250.138364 
L 162.908336 246.878816 
L 163.683168 237.544297 
L 164.458 239.252004 
L 165.232832 238.820518 
L 166.007664 243.1604 
L 166.782496 235.431109 
L 167.557328 229.251319 
L 168.332159 236.310948 
L 169.106991 225.039209 
L 169.881823 231.427715 
L 170.656655 236.813828 
L 171.431487 239.821547 
L 172.981151 243.827124 
L 173.755982 244.485072 
L 174.530814 246.755047 
L 175.305646 246.47111 
L 176.080478 248.337585 
L 176.85531 244.402166 
L 177.630142 244.307361 
L 178.404973 249.420893 
L 179.179805 250.202088 
L 179.954637 251.779609 
L 180.729469 252.203909 
L 181.504301 251.684812 
L 182.279133 250.929829 
L 183.053965 251.536969 
L 183.828796 252.367985 
L 184.603628 251.496539 
L 185.37846 253.620372 
L 186.153292 253.319649 
L 186.928124 249.935433 
L 187.702956 251.333687 
L 188.477788 250.660316 
L 189.252619 252.337734 
L 190.027451 254.772538 
L 190.802283 253.052732 
L 191.577115 252.836152 
L 192.351947 253.922006 
L 193.126779 252.185304 
L 193.901611 250.78962 
L 194.676442 248.804159 
L 195.451274 251.070051 
L 196.226106 250.007853 
L 197.77577 237.695652 
L 198.550602 221.438338 
L 199.325433 216.079187 
L 200.100265 192.242382 
L 200.875097 192.361355 
L 201.649929 199.453732 
L 202.424761 203.865117 
L 203.199593 205.350475 
L 203.974425 209.298986 
L 204.749256 200.129508 
L 205.524088 207.72244 
L 206.29892 219.558566 
L 207.073752 229.180439 
L 207.848584 232.831887 
L 208.623416 232.82729 
L 209.398248 228.746679 
L 210.173079 222.890988 
L 210.947911 214.07038 
L 211.722743 216.937468 
L 212.497575 221.762495 
L 213.272407 191.271868 
L 214.047239 202.657756 
L 214.82207 220.70643 
L 215.596902 228.145867 
L 216.371734 231.883091 
L 217.146566 236.838703 
L 217.921398 238.222343 
L 218.69623 239.960313 
L 219.471062 244.249437 
L 220.245893 234.664597 
L 221.020725 244.469491 
L 221.795557 247.580009 
L 223.345221 248.691526 
L 224.120053 250.501545 
L 224.894885 249.707107 
L 225.669716 248.250077 
L 226.444548 247.336561 
L 227.21938 244.308494 
L 227.994212 244.445104 
L 228.769044 199.592196 
L 229.543876 205.718076 
L 230.318707 223.310878 
L 231.093539 233.956738 
L 231.868371 239.038286 
L 232.643203 234.099268 
L 233.418035 219.838224 
L 234.192867 231.659014 
L 234.967699 238.038415 
L 235.74253 238.34946 
L 236.517362 232.079133 
L 237.292194 233.111666 
L 238.067026 240.618521 
L 238.841858 238.39293 
L 239.61669 237.946119 
L 240.391522 241.559509 
L 241.166353 245.832393 
L 241.941185 247.607305 
L 242.716017 248.594971 
L 243.490849 247.245407 
L 244.265681 239.96783 
L 245.040513 244.070149 
L 245.815345 244.095909 
L 246.590176 241.79345 
L 247.365008 243.290969 
L 248.13984 243.384051 
L 248.914672 247.311511 
L 249.689504 249.951404 
L 250.464336 249.769295 
L 251.239167 250.511111 
L 252.013999 250.653566 
L 252.788831 251.059867 
L 253.563663 250.650425 
L 254.338495 248.267341 
L 255.113327 246.565975 
L 255.888159 249.548656 
L 257.437822 249.368321 
L 258.987486 249.462815 
L 259.762318 248.928023 
L 261.311982 244.143348 
L 262.086813 244.754139 
L 262.861645 246.942459 
L 263.636477 247.185575 
L 264.411309 247.892959 
L 265.960973 250.177609 
L 266.735804 250.496876 
L 267.510636 249.871067 
L 268.285468 250.12007 
L 269.0603 251.43207 
L 269.835132 252.071926 
L 270.609964 253.174292 
L 271.384796 253.068737 
L 272.159627 252.209601 
L 272.934459 253.161499 
L 273.709291 253.835676 
L 274.484123 250.096842 
L 275.258955 249.647714 
L 276.033787 204.776607 
L 276.808619 190.170299 
L 277.58345 211.45384 
L 278.358282 228.464955 
L 279.133114 234.907351 
L 279.907946 239.331849 
L 280.682778 235.50746 
L 281.45761 240.56668 
L 282.232441 243.445943 
L 283.007273 245.755689 
L 283.782105 245.890943 
L 284.556937 241.642184 
L 285.331769 215.799095 
L 286.106601 197.705629 
L 286.881433 221.202836 
L 287.656264 231.538862 
L 288.431096 235.576289 
L 289.205928 238.350938 
L 289.98076 236.179606 
L 290.755592 237.27651 
L 291.530424 238.131316 
L 292.305256 243.901054 
L 293.080087 245.087148 
L 293.854919 246.489004 
L 294.629751 246.663347 
L 295.404583 245.352474 
L 296.179415 247.982998 
L 296.954247 247.965332 
L 297.729079 249.545468 
L 298.50391 249.327343 
L 299.278742 248.138591 
L 300.053574 250.309825 
L 300.828406 246.952702 
L 301.603238 245.593708 
L 303.152901 249.716685 
L 303.927733 251.217289 
L 304.702565 246.446608 
L 305.477397 237.203429 
L 306.252229 183.578273 
L 307.027061 193.75832 
L 307.801893 219.194071 
L 308.576724 165.076109 
L 309.351556 173.058444 
L 310.126388 201.473186 
L 310.90122 219.446119 
L 311.676052 221.843103 
L 312.450884 229.012073 
L 313.225716 235.104899 
L 314.000547 236.188948 
L 314.775379 236.662709 
L 315.550211 236.305992 
L 316.325043 223.302466 
L 317.099875 228.916895 
L 317.874707 237.190668 
L 318.649538 242.948123 
L 319.42437 244.204694 
L 320.199202 200.30189 
L 320.974034 175.899379 
L 321.748866 202.078375 
L 322.523698 218.133689 
L 323.29853 214.522429 
L 324.073361 207.894299 
L 324.848193 207.164091 
L 325.623025 211.771797 
L 326.397857 197.405186 
L 327.172689 192.453051 
L 327.947521 98.717352 
L 328.722353 136.171995 
L 329.497184 188.707336 
L 330.272016 210.506736 
L 331.046848 217.217684 
L 331.82168 226.474146 
L 332.596512 230.592147 
L 333.371344 239.384139 
L 334.146175 207.344296 
L 334.921007 231.37811 
L 335.695839 237.621363 
L 337.245503 244.795652 
L 338.020335 246.651937 
L 338.795167 250.009199 
L 339.569998 252.072276 
L 340.34483 253.001909 
L 341.119662 252.664722 
L 341.894494 253.872037 
L 342.669326 254.149552 
L 343.444158 253.050192 
L 344.21899 242.338486 
L 344.993821 248.329067 
L 345.768653 251.559981 
L 346.543485 253.804216 
L 347.318317 253.873142 
L 348.093149 254.82495 
L 348.867981 256.241572 
L 350.417644 254.618992 
L 351.192476 246.147353 
L 351.967308 222.23253 
L 352.74214 248.79191 
L 353.516972 245.073529 
L 354.291804 252.145481 
L 355.066635 253.425576 
L 355.841467 252.805061 
L 356.616299 253.410324 
L 357.391131 253.574653 
L 358.165963 254.319646 
L 358.940795 253.639778 
L 359.715627 254.473368 
L 360.490458 255.000681 
L 361.26529 252.982366 
L 362.040122 254.578134 
L 362.814954 254.629311 
L 364.364618 255.496933 
L 365.13945 255.514503 
L 365.914281 256.042342 
L 366.689113 255.530765 
L 367.463945 254.637233 
L 368.238777 254.615191 
L 369.013609 257.616 
L 369.788441 250.190335 
L 370.563272 249.129712 
L 371.338104 246.968803 
L 372.112936 249.535176 
L 372.887768 249.022142 
L 373.6626 251.44712 
L 374.437432 253.316175 
L 375.212264 252.674704 
L 375.987095 255.250043 
L 376.761927 255.446921 
L 377.536759 254.924924 
L 378.311591 255.123392 
L 379.086423 254.368443 
L 379.861255 252.942204 
L 380.636087 254.235945 
L 381.410918 255.102591 
L 382.18575 255.057723 
L 382.18575 255.057723 
" clip-path="url(#p2a6c47a30c)" style="fill: none; stroke-dasharray: 3.7,1.6; stroke-dashoffset: 0; stroke: #ff0000"/>
   </g>
   <g id="patch_3">
    <path d="M 41.298478 269.712 
L 41.298478 3.6 
" style="fill: none; stroke: #000000; stroke-width: 0.5; stroke-linejoin: miter; stroke-linecap: square"/>
   </g>
   <g id="patch_4">
    <path d="M 398.418478 269.712 
L 398.418478 3.6 
" style="fill: none; stroke: #000000; stroke-width: 0.5; stroke-linejoin: miter; stroke-linecap: square"/>
   </g>
   <g id="patch_5">
    <path d="M 41.298478 269.712 
L 398.418478 269.712 
" style="fill: none; stroke: #000000; stroke-width: 0.5; stroke-linejoin: miter; stroke-linecap: square"/>
   </g>
   <g id="patch_6">
    <path d="M 41.298478 3.6 
L 398.418478 3.6 
" style="fill: none; stroke: #000000; stroke-width: 0.5; stroke-linejoin: miter; stroke-linecap: square"/>
   </g>
   <g id="legend_1">
    <g id="line2d_125">
     <path d="M 48.498478 13.6 
L 56.498478 13.6 
L 64.498478 13.6 
" style="fill: none; stroke: #000000; stroke-linecap: square"/>
    </g>
    <g id="text_16">
     <!-- spatial rainfall actual -->
     <g transform="translate(70.898478 16.4) scale(0.08 -0.08)">
      <defs>
       <path id="NimbusRomNo9L-Regu-63" d="M 2547 998 
C 2240 550 2010 397 1645 397 
C 1062 397 653 909 653 1645 
C 653 2304 1005 2758 1523 2758 
C 1754 2758 1837 2688 1901 2451 
L 1939 2310 
C 1990 2131 2106 2016 2240 2016 
C 2406 2016 2547 2138 2547 2285 
C 2547 2643 2099 2944 1562 2944 
C 1248 2944 922 2816 659 2586 
C 339 2304 160 1869 160 1363 
C 160 531 666 -64 1376 -64 
C 1664 -64 1920 38 2150 237 
C 2323 390 2445 563 2637 941 
L 2547 998 
z
" transform="scale(0.015625)"/>
       <path id="NimbusRomNo9L-Regu-75" d="M 3066 320 
L 3034 320 
C 2739 320 2669 390 2669 685 
L 2669 2880 
L 1658 2880 
L 1658 2758 
C 2054 2758 2131 2694 2131 2375 
L 2131 875 
C 2131 697 2099 607 2010 537 
C 1837 397 1638 320 1446 320 
C 1197 320 992 537 992 805 
L 992 2880 
L 58 2880 
L 58 2778 
C 365 2778 454 2682 454 2387 
L 454 770 
C 454 263 762 -64 1229 -64 
C 1466 -64 1715 38 1888 211 
L 2163 486 
L 2163 -45 
L 2189 -58 
C 2509 70 2739 141 3066 230 
L 3066 320 
z
" transform="scale(0.015625)"/>
      </defs>
      <use xlink:href="#NimbusRomNo9L-Regu-73" transform="scale(0.996264)"/>
      <use xlink:href="#NimbusRomNo9L-Regu-70" transform="translate(38.753706 0) scale(0.996264)"/>
      <use xlink:href="#NimbusRomNo9L-Regu-61" transform="translate(88.566907 0) scale(0.996264)"/>
      <use xlink:href="#NimbusRomNo9L-Regu-74" transform="translate(132.800475 0) scale(0.996264)"/>
      <use xlink:href="#NimbusRomNo9L-Regu-69" transform="translate(160.495645 0) scale(0.996264)"/>
      <use xlink:href="#NimbusRomNo9L-Regu-61" transform="translate(188.190815 0) scale(0.996264)"/>
      <use xlink:href="#NimbusRomNo9L-Regu-6c" transform="translate(232.424383 0) scale(0.996264)"/>
      <use xlink:href="#NimbusRomNo9L-Regu-72" transform="translate(285.026153 0) scale(0.996264)"/>
      <use xlink:href="#NimbusRomNo9L-Regu-61" transform="translate(318.201383 0) scale(0.996264)"/>
      <use xlink:href="#NimbusRomNo9L-Regu-69" transform="translate(362.434952 0) scale(0.996264)"/>
      <use xlink:href="#NimbusRomNo9L-Regu-6e" transform="translate(390.130121 0) scale(0.996264)"/>
      <use xlink:href="#NimbusRomNo9L-Regu-66" transform="translate(439.943322 0) scale(0.996264)"/>
      <use xlink:href="#NimbusRomNo9L-Regu-61" transform="translate(472.122455 0) scale(0.996264)"/>
      <use xlink:href="#NimbusRomNo9L-Regu-6c" transform="translate(516.356023 0) scale(0.996264)"/>
      <use xlink:href="#NimbusRomNo9L-Regu-6c" transform="translate(544.051193 0) scale(0.996264)"/>
      <use xlink:href="#NimbusRomNo9L-Regu-61" transform="translate(596.652963 0) scale(0.996264)"/>
      <use xlink:href="#NimbusRomNo9L-Regu-63" transform="translate(640.886531 0) scale(0.996264)"/>
      <use xlink:href="#NimbusRomNo9L-Regu-74" transform="translate(685.1201 0) scale(0.996264)"/>
      <use xlink:href="#NimbusRomNo9L-Regu-75" transform="translate(712.81527 0) scale(0.996264)"/>
      <use xlink:href="#NimbusRomNo9L-Regu-61" transform="translate(762.62847 0) scale(0.996264)"/>
      <use xlink:href="#NimbusRomNo9L-Regu-6c" transform="translate(806.862039 0) scale(0.996264)"/>
     </g>
    </g>
    <g id="line2d_126">
     <path d="M 48.498478 24.925463 
L 56.498478 24.925463 
L 64.498478 24.925463 
" style="fill: none; stroke-dasharray: 3.7,1.6; stroke-dashoffset: 0; stroke: #ff0000"/>
    </g>
    <g id="text_17">
     <!-- spatial rainfall predict -->
     <g transform="translate(70.898478 27.725463) scale(0.08 -0.08)">
      <defs>
       <path id="NimbusRomNo9L-Regu-65" d="M 2611 1053 
C 2304 564 2029 378 1619 378 
C 1254 378 979 564 794 930 
C 678 1174 634 1386 621 1779 
L 2592 1779 
C 2541 2193 2477 2377 2317 2581 
C 2125 2811 1830 2944 1498 2944 
C 1178 2944 877 2829 634 2611 
C 333 2349 160 1894 160 1370 
C 160 486 621 -64 1357 -64 
C 1965 -64 2445 315 2714 1008 
L 2611 1053 
z
M 634 1984 
C 704 2479 922 2714 1312 2714 
C 1702 2714 1856 2535 1939 1984 
L 634 1984 
z
" transform="scale(0.015625)"/>
      </defs>
      <use xlink:href="#NimbusRomNo9L-Regu-73" transform="scale(0.996264)"/>
      <use xlink:href="#NimbusRomNo9L-Regu-70" transform="translate(38.753706 0) scale(0.996264)"/>
      <use xlink:href="#NimbusRomNo9L-Regu-61" transform="translate(88.566907 0) scale(0.996264)"/>
      <use xlink:href="#NimbusRomNo9L-Regu-74" transform="translate(132.800475 0) scale(0.996264)"/>
      <use xlink:href="#NimbusRomNo9L-Regu-69" transform="translate(160.495645 0) scale(0.996264)"/>
      <use xlink:href="#NimbusRomNo9L-Regu-61" transform="translate(188.190815 0) scale(0.996264)"/>
      <use xlink:href="#NimbusRomNo9L-Regu-6c" transform="translate(232.424383 0) scale(0.996264)"/>
      <use xlink:href="#NimbusRomNo9L-Regu-72" transform="translate(285.026153 0) scale(0.996264)"/>
      <use xlink:href="#NimbusRomNo9L-Regu-61" transform="translate(318.201383 0) scale(0.996264)"/>
      <use xlink:href="#NimbusRomNo9L-Regu-69" transform="translate(362.434952 0) scale(0.996264)"/>
      <use xlink:href="#NimbusRomNo9L-Regu-6e" transform="translate(390.130121 0) scale(0.996264)"/>
      <use xlink:href="#NimbusRomNo9L-Regu-66" transform="translate(439.943322 0) scale(0.996264)"/>
      <use xlink:href="#NimbusRomNo9L-Regu-61" transform="translate(472.122455 0) scale(0.996264)"/>
      <use xlink:href="#NimbusRomNo9L-Regu-6c" transform="translate(516.356023 0) scale(0.996264)"/>
      <use xlink:href="#NimbusRomNo9L-Regu-6c" transform="translate(544.051193 0) scale(0.996264)"/>
      <use xlink:href="#NimbusRomNo9L-Regu-70" transform="translate(596.652963 0) scale(0.996264)"/>
      <use xlink:href="#NimbusRomNo9L-Regu-72" transform="translate(646.466163 0) scale(0.996264)"/>
      <use xlink:href="#NimbusRomNo9L-Regu-65" transform="translate(679.641393 0) scale(0.996264)"/>
      <use xlink:href="#NimbusRomNo9L-Regu-64" transform="translate(723.874962 0) scale(0.996264)"/>
      <use xlink:href="#NimbusRomNo9L-Regu-69" transform="translate(773.688162 0) scale(0.996264)"/>
      <use xlink:href="#NimbusRomNo9L-Regu-63" transform="translate(801.383332 0) scale(0.996264)"/>
      <use xlink:href="#NimbusRomNo9L-Regu-74" transform="translate(845.6169 0) scale(0.996264)"/>
     </g>
    </g>
   </g>
  </g>
 </g>
 <defs>
  <clipPath id="p2a6c47a30c">
   <rect x="41.298478" y="3.6" width="357.12" height="266.112"/>
  </clipPath>
 </defs>
</svg>
