<?xml version="1.0" encoding="utf-8" standalone="no"?>
<!DOCTYPE svg PUBLIC "-//W3C//DTD SVG 1.1//EN"
  "http://www.w3.org/Graphics/SVG/1.1/DTD/svg11.dtd">
<svg xmlns:xlink="http://www.w3.org/1999/xlink" width="402.018478pt" height="302.199372pt" viewBox="0 0 402.018478 302.199372" xmlns="http://www.w3.org/2000/svg" version="1.1">
 <metadata>
  <rdf:RDF xmlns:dc="http://purl.org/dc/elements/1.1/" xmlns:cc="http://creativecommons.org/ns#" xmlns:rdf="http://www.w3.org/1999/02/22-rdf-syntax-ns#">
   <cc:Work>
    <dc:type rdf:resource="http://purl.org/dc/dcmitype/StillImage"/>
    <dc:date>2024-03-16T22:22:18.812867</dc:date>
    <dc:format>image/svg+xml</dc:format>
    <dc:creator>
     <cc:Agent>
      <dc:title>Matplotlib v3.8.3, https://matplotlib.org/</dc:title>
     </cc:Agent>
    </dc:creator>
   </cc:Work>
  </rdf:RDF>
 </metadata>
 <defs>
  <style type="text/css">*{stroke-linejoin: round; stroke-linecap: butt}</style>
 </defs>
 <g id="figure_1">
  <g id="patch_1">
   <path d="M -0 302.199372 
L 402.018478 302.199372 
L 402.018478 0 
L -0 0 
z
" style="fill: #ffffff"/>
  </g>
  <g id="axes_1">
   <g id="patch_2">
    <path d="M 41.298478 269.712 
L 398.418478 269.712 
L 398.418478 3.6 
L 41.298478 3.6 
z
" style="fill: #ffffff"/>
   </g>
   <g id="matplotlib.axis_1">
    <g id="xtick_1">
     <g id="line2d_1">
      <defs>
       <path id="m8dabe1edd1" d="M 0 0 
L 0 -3 
" style="stroke: #000000; stroke-width: 0.5"/>
      </defs>
      <g>
       <use xlink:href="#m8dabe1edd1" x="57.531205" y="269.712" style="stroke: #000000; stroke-width: 0.5"/>
      </g>
     </g>
     <g id="line2d_2">
      <defs>
       <path id="m10bbc403b4" d="M 0 0 
L 0 3 
" style="stroke: #000000; stroke-width: 0.5"/>
      </defs>
      <g>
       <use xlink:href="#m10bbc403b4" x="57.531205" y="3.6" style="stroke: #000000; stroke-width: 0.5"/>
      </g>
     </g>
     <g id="text_1">
      <!-- $\mathdefault{0}$ -->
      <g transform="translate(55.538677 278.615656) scale(0.08 -0.08)">
       <defs>
        <path id="NimbusRomNo9L-Regu-30" d="M 1626 4352 
C 1274 4352 1005 4244 768 4020 
C 397 3661 154 2925 154 2176 
C 154 1479 365 730 666 372 
C 902 90 1229 -64 1600 -64 
C 1926 -64 2202 45 2432 269 
C 2803 621 3046 1364 3046 2138 
C 3046 3450 2464 4352 1626 4352 
z
M 1606 4186 
C 2144 4186 2432 3463 2432 2125 
C 2432 788 2150 103 1600 103 
C 1050 103 768 788 768 2119 
C 768 3476 1056 4186 1606 4186 
z
" transform="scale(0.015625)"/>
       </defs>
       <use xlink:href="#NimbusRomNo9L-Regu-30" transform="scale(0.996264)"/>
      </g>
     </g>
    </g>
    <g id="xtick_2">
     <g id="line2d_3">
      <g>
       <use xlink:href="#m8dabe1edd1" x="135.01439" y="269.712" style="stroke: #000000; stroke-width: 0.5"/>
      </g>
     </g>
     <g id="line2d_4">
      <g>
       <use xlink:href="#m10bbc403b4" x="135.01439" y="3.6" style="stroke: #000000; stroke-width: 0.5"/>
      </g>
     </g>
     <g id="text_2">
      <!-- $\mathdefault{100}$ -->
      <g transform="translate(129.036806 278.615656) scale(0.08 -0.08)">
       <defs>
        <path id="NimbusRomNo9L-Regu-31" d="M 1862 4339 
L 710 3757 
L 710 3667 
C 787 3699 858 3725 883 3738 
C 998 3783 1107 3808 1171 3808 
C 1306 3808 1363 3711 1363 3505 
L 1363 592 
C 1363 379 1312 232 1210 173 
C 1114 116 1024 96 755 96 
L 755 0 
L 2522 0 
L 2522 96 
C 2016 96 1914 160 1914 470 
L 1914 4327 
L 1862 4339 
z
" transform="scale(0.015625)"/>
       </defs>
       <use xlink:href="#NimbusRomNo9L-Regu-31" transform="scale(0.996264)"/>
       <use xlink:href="#NimbusRomNo9L-Regu-30" transform="translate(49.8132 0) scale(0.996264)"/>
       <use xlink:href="#NimbusRomNo9L-Regu-30" transform="translate(99.626401 0) scale(0.996264)"/>
      </g>
     </g>
    </g>
    <g id="xtick_3">
     <g id="line2d_5">
      <g>
       <use xlink:href="#m8dabe1edd1" x="212.497575" y="269.712" style="stroke: #000000; stroke-width: 0.5"/>
      </g>
     </g>
     <g id="line2d_6">
      <g>
       <use xlink:href="#m10bbc403b4" x="212.497575" y="3.6" style="stroke: #000000; stroke-width: 0.5"/>
      </g>
     </g>
     <g id="text_3">
      <!-- $\mathdefault{200}$ -->
      <g transform="translate(206.519991 278.615656) scale(0.08 -0.08)">
       <defs>
        <path id="NimbusRomNo9L-Regu-32" d="M 3040 875 
L 2957 907 
C 2720 544 2637 486 2349 486 
L 819 486 
L 1894 1609 
C 2464 2202 2714 2687 2714 3185 
C 2714 3823 2195 4313 1530 4313 
C 1178 4313 845 4173 608 3918 
C 403 3700 307 3496 198 3043 
L 333 3011 
C 589 3636 819 3840 1261 3840 
C 1798 3840 2163 3476 2163 2940 
C 2163 2443 1869 1850 1331 1282 
L 192 77 
L 192 0 
L 2688 0 
L 3040 875 
z
" transform="scale(0.015625)"/>
       </defs>
       <use xlink:href="#NimbusRomNo9L-Regu-32" transform="scale(0.996264)"/>
       <use xlink:href="#NimbusRomNo9L-Regu-30" transform="translate(49.8132 0) scale(0.996264)"/>
       <use xlink:href="#NimbusRomNo9L-Regu-30" transform="translate(99.626401 0) scale(0.996264)"/>
      </g>
     </g>
    </g>
    <g id="xtick_4">
     <g id="line2d_7">
      <g>
       <use xlink:href="#m8dabe1edd1" x="289.98076" y="269.712" style="stroke: #000000; stroke-width: 0.5"/>
      </g>
     </g>
     <g id="line2d_8">
      <g>
       <use xlink:href="#m10bbc403b4" x="289.98076" y="3.6" style="stroke: #000000; stroke-width: 0.5"/>
      </g>
     </g>
     <g id="text_4">
      <!-- $\mathdefault{300}$ -->
      <g transform="translate(284.003176 278.615656) scale(0.08 -0.08)">
       <defs>
        <path id="NimbusRomNo9L-Regu-33" d="M 979 2138 
C 1357 2138 1504 2125 1658 2068 
C 2054 1927 2304 1562 2304 1120 
C 2304 583 1939 167 1466 167 
C 1293 167 1165 212 928 365 
C 736 480 627 525 518 525 
C 371 525 275 436 275 301 
C 275 77 550 -64 998 -64 
C 1491 -64 1997 103 2298 365 
C 2598 628 2765 999 2765 1428 
C 2765 1754 2662 2055 2477 2253 
C 2349 2394 2227 2471 1946 2592 
C 2387 2893 2547 3130 2547 3476 
C 2547 3994 2138 4352 1549 4352 
C 1229 4352 947 4244 717 4039 
C 525 3866 429 3699 288 3315 
L 384 3290 
C 646 3757 934 3968 1338 3968 
C 1754 3968 2042 3687 2042 3284 
C 2042 3053 1946 2823 1786 2663 
C 1594 2471 1414 2375 979 2221 
L 979 2138 
z
" transform="scale(0.015625)"/>
       </defs>
       <use xlink:href="#NimbusRomNo9L-Regu-33" transform="scale(0.996264)"/>
       <use xlink:href="#NimbusRomNo9L-Regu-30" transform="translate(49.8132 0) scale(0.996264)"/>
       <use xlink:href="#NimbusRomNo9L-Regu-30" transform="translate(99.626401 0) scale(0.996264)"/>
      </g>
     </g>
    </g>
    <g id="xtick_5">
     <g id="line2d_9">
      <g>
       <use xlink:href="#m8dabe1edd1" x="367.463945" y="269.712" style="stroke: #000000; stroke-width: 0.5"/>
      </g>
     </g>
     <g id="line2d_10">
      <g>
       <use xlink:href="#m10bbc403b4" x="367.463945" y="3.6" style="stroke: #000000; stroke-width: 0.5"/>
      </g>
     </g>
     <g id="text_5">
      <!-- $\mathdefault{400}$ -->
      <g transform="translate(361.486361 278.615656) scale(0.08 -0.08)">
       <defs>
        <path id="NimbusRomNo9L-Regu-34" d="M 3021 1497 
L 2368 1497 
L 2368 4352 
L 2086 4352 
L 77 1497 
L 77 1088 
L 1875 1088 
L 1875 32 
L 2368 32 
L 2368 1088 
L 3021 1088 
L 3021 1497 
z
M 1869 1497 
L 333 1497 
L 1869 3698 
L 1869 1497 
z
" transform="scale(0.015625)"/>
       </defs>
       <use xlink:href="#NimbusRomNo9L-Regu-34" transform="scale(0.996264)"/>
       <use xlink:href="#NimbusRomNo9L-Regu-30" transform="translate(49.8132 0) scale(0.996264)"/>
       <use xlink:href="#NimbusRomNo9L-Regu-30" transform="translate(99.626401 0) scale(0.996264)"/>
      </g>
     </g>
    </g>
    <g id="xtick_6">
     <g id="line2d_11">
      <defs>
       <path id="m0d6cc6b38d" d="M 0 0 
L 0 -1.5 
" style="stroke: #000000; stroke-width: 0.5"/>
      </defs>
      <g>
       <use xlink:href="#m0d6cc6b38d" x="42.034568" y="269.712" style="stroke: #000000; stroke-width: 0.5"/>
      </g>
     </g>
     <g id="line2d_12">
      <defs>
       <path id="ma34fcd9186" d="M 0 0 
L 0 1.5 
" style="stroke: #000000; stroke-width: 0.5"/>
      </defs>
      <g>
       <use xlink:href="#ma34fcd9186" x="42.034568" y="3.6" style="stroke: #000000; stroke-width: 0.5"/>
      </g>
     </g>
    </g>
    <g id="xtick_7">
     <g id="line2d_13">
      <g>
       <use xlink:href="#m0d6cc6b38d" x="73.027842" y="269.712" style="stroke: #000000; stroke-width: 0.5"/>
      </g>
     </g>
     <g id="line2d_14">
      <g>
       <use xlink:href="#ma34fcd9186" x="73.027842" y="3.6" style="stroke: #000000; stroke-width: 0.5"/>
      </g>
     </g>
    </g>
    <g id="xtick_8">
     <g id="line2d_15">
      <g>
       <use xlink:href="#m0d6cc6b38d" x="88.524479" y="269.712" style="stroke: #000000; stroke-width: 0.5"/>
      </g>
     </g>
     <g id="line2d_16">
      <g>
       <use xlink:href="#ma34fcd9186" x="88.524479" y="3.6" style="stroke: #000000; stroke-width: 0.5"/>
      </g>
     </g>
    </g>
    <g id="xtick_9">
     <g id="line2d_17">
      <g>
       <use xlink:href="#m0d6cc6b38d" x="104.021116" y="269.712" style="stroke: #000000; stroke-width: 0.5"/>
      </g>
     </g>
     <g id="line2d_18">
      <g>
       <use xlink:href="#ma34fcd9186" x="104.021116" y="3.6" style="stroke: #000000; stroke-width: 0.5"/>
      </g>
     </g>
    </g>
    <g id="xtick_10">
     <g id="line2d_19">
      <g>
       <use xlink:href="#m0d6cc6b38d" x="119.517753" y="269.712" style="stroke: #000000; stroke-width: 0.5"/>
      </g>
     </g>
     <g id="line2d_20">
      <g>
       <use xlink:href="#ma34fcd9186" x="119.517753" y="3.6" style="stroke: #000000; stroke-width: 0.5"/>
      </g>
     </g>
    </g>
    <g id="xtick_11">
     <g id="line2d_21">
      <g>
       <use xlink:href="#m0d6cc6b38d" x="150.511027" y="269.712" style="stroke: #000000; stroke-width: 0.5"/>
      </g>
     </g>
     <g id="line2d_22">
      <g>
       <use xlink:href="#ma34fcd9186" x="150.511027" y="3.6" style="stroke: #000000; stroke-width: 0.5"/>
      </g>
     </g>
    </g>
    <g id="xtick_12">
     <g id="line2d_23">
      <g>
       <use xlink:href="#m0d6cc6b38d" x="166.007664" y="269.712" style="stroke: #000000; stroke-width: 0.5"/>
      </g>
     </g>
     <g id="line2d_24">
      <g>
       <use xlink:href="#ma34fcd9186" x="166.007664" y="3.6" style="stroke: #000000; stroke-width: 0.5"/>
      </g>
     </g>
    </g>
    <g id="xtick_13">
     <g id="line2d_25">
      <g>
       <use xlink:href="#m0d6cc6b38d" x="181.504301" y="269.712" style="stroke: #000000; stroke-width: 0.5"/>
      </g>
     </g>
     <g id="line2d_26">
      <g>
       <use xlink:href="#ma34fcd9186" x="181.504301" y="3.6" style="stroke: #000000; stroke-width: 0.5"/>
      </g>
     </g>
    </g>
    <g id="xtick_14">
     <g id="line2d_27">
      <g>
       <use xlink:href="#m0d6cc6b38d" x="197.000938" y="269.712" style="stroke: #000000; stroke-width: 0.5"/>
      </g>
     </g>
     <g id="line2d_28">
      <g>
       <use xlink:href="#ma34fcd9186" x="197.000938" y="3.6" style="stroke: #000000; stroke-width: 0.5"/>
      </g>
     </g>
    </g>
    <g id="xtick_15">
     <g id="line2d_29">
      <g>
       <use xlink:href="#m0d6cc6b38d" x="227.994212" y="269.712" style="stroke: #000000; stroke-width: 0.5"/>
      </g>
     </g>
     <g id="line2d_30">
      <g>
       <use xlink:href="#ma34fcd9186" x="227.994212" y="3.6" style="stroke: #000000; stroke-width: 0.5"/>
      </g>
     </g>
    </g>
    <g id="xtick_16">
     <g id="line2d_31">
      <g>
       <use xlink:href="#m0d6cc6b38d" x="243.490849" y="269.712" style="stroke: #000000; stroke-width: 0.5"/>
      </g>
     </g>
     <g id="line2d_32">
      <g>
       <use xlink:href="#ma34fcd9186" x="243.490849" y="3.6" style="stroke: #000000; stroke-width: 0.5"/>
      </g>
     </g>
    </g>
    <g id="xtick_17">
     <g id="line2d_33">
      <g>
       <use xlink:href="#m0d6cc6b38d" x="258.987486" y="269.712" style="stroke: #000000; stroke-width: 0.5"/>
      </g>
     </g>
     <g id="line2d_34">
      <g>
       <use xlink:href="#ma34fcd9186" x="258.987486" y="3.6" style="stroke: #000000; stroke-width: 0.5"/>
      </g>
     </g>
    </g>
    <g id="xtick_18">
     <g id="line2d_35">
      <g>
       <use xlink:href="#m0d6cc6b38d" x="274.484123" y="269.712" style="stroke: #000000; stroke-width: 0.5"/>
      </g>
     </g>
     <g id="line2d_36">
      <g>
       <use xlink:href="#ma34fcd9186" x="274.484123" y="3.6" style="stroke: #000000; stroke-width: 0.5"/>
      </g>
     </g>
    </g>
    <g id="xtick_19">
     <g id="line2d_37">
      <g>
       <use xlink:href="#m0d6cc6b38d" x="305.477397" y="269.712" style="stroke: #000000; stroke-width: 0.5"/>
      </g>
     </g>
     <g id="line2d_38">
      <g>
       <use xlink:href="#ma34fcd9186" x="305.477397" y="3.6" style="stroke: #000000; stroke-width: 0.5"/>
      </g>
     </g>
    </g>
    <g id="xtick_20">
     <g id="line2d_39">
      <g>
       <use xlink:href="#m0d6cc6b38d" x="320.974034" y="269.712" style="stroke: #000000; stroke-width: 0.5"/>
      </g>
     </g>
     <g id="line2d_40">
      <g>
       <use xlink:href="#ma34fcd9186" x="320.974034" y="3.6" style="stroke: #000000; stroke-width: 0.5"/>
      </g>
     </g>
    </g>
    <g id="xtick_21">
     <g id="line2d_41">
      <g>
       <use xlink:href="#m0d6cc6b38d" x="336.470671" y="269.712" style="stroke: #000000; stroke-width: 0.5"/>
      </g>
     </g>
     <g id="line2d_42">
      <g>
       <use xlink:href="#ma34fcd9186" x="336.470671" y="3.6" style="stroke: #000000; stroke-width: 0.5"/>
      </g>
     </g>
    </g>
    <g id="xtick_22">
     <g id="line2d_43">
      <g>
       <use xlink:href="#m0d6cc6b38d" x="351.967308" y="269.712" style="stroke: #000000; stroke-width: 0.5"/>
      </g>
     </g>
     <g id="line2d_44">
      <g>
       <use xlink:href="#ma34fcd9186" x="351.967308" y="3.6" style="stroke: #000000; stroke-width: 0.5"/>
      </g>
     </g>
    </g>
    <g id="xtick_23">
     <g id="line2d_45">
      <g>
       <use xlink:href="#m0d6cc6b38d" x="382.960582" y="269.712" style="stroke: #000000; stroke-width: 0.5"/>
      </g>
     </g>
     <g id="line2d_46">
      <g>
       <use xlink:href="#ma34fcd9186" x="382.960582" y="3.6" style="stroke: #000000; stroke-width: 0.5"/>
      </g>
     </g>
    </g>
    <g id="text_6">
     <!-- days -->
     <g transform="translate(205.249382 295.148446) scale(0.16 -0.16)">
      <defs>
       <path id="NimbusRomNo9L-Regu-64" d="M 2202 -64 
L 3142 269 
L 3142 365 
C 3027 365 3014 365 2995 365 
C 2765 365 2714 435 2714 731 
L 2714 4364 
L 2682 4377 
C 2374 4268 2150 4204 1741 4096 
L 1741 3994 
C 1792 4000 1830 4000 1882 4000 
C 2118 4000 2176 3936 2176 3672 
L 2176 2669 
C 1933 2874 1760 2944 1504 2944 
C 768 2944 173 2221 173 1312 
C 173 493 653 -64 1357 -64 
C 1715 -64 1958 64 2176 365 
L 2176 -45 
L 2202 -64 
z
M 2176 653 
C 2176 608 2131 531 2067 461 
C 1952 333 1792 269 1606 269 
C 1075 269 723 781 723 1568 
C 723 2291 1037 2765 1523 2765 
C 1862 2765 2176 2464 2176 2125 
L 2176 653 
z
" transform="scale(0.015625)"/>
       <path id="NimbusRomNo9L-Regu-61" d="M 2829 423 
C 2720 333 2643 301 2547 301 
C 2400 301 2355 390 2355 672 
L 2355 1920 
C 2355 2253 2323 2438 2227 2592 
C 2086 2822 1811 2944 1434 2944 
C 832 2944 358 2630 358 2227 
C 358 2080 486 1952 634 1952 
C 787 1952 922 2080 922 2221 
C 922 2246 915 2278 909 2323 
C 896 2381 890 2432 890 2477 
C 890 2650 1094 2790 1350 2790 
C 1664 2790 1837 2605 1837 2259 
L 1837 1869 
C 851 1472 742 1421 467 1178 
C 326 1050 237 832 237 621 
C 237 218 518 -64 909 -64 
C 1190 -64 1453 70 1843 403 
C 1875 70 1990 -64 2253 -64 
C 2470 -64 2605 13 2829 256 
L 2829 423 
z
M 1837 783 
C 1837 584 1805 526 1670 449 
C 1517 359 1338 301 1203 301 
C 979 301 800 520 800 796 
L 800 822 
C 800 1201 1062 1433 1837 1715 
L 1837 783 
z
" transform="scale(0.015625)"/>
       <path id="NimbusRomNo9L-Regu-79" d="M 3040 2880 
L 2176 2880 
L 2176 2784 
C 2381 2784 2483 2726 2483 2623 
C 2483 2597 2477 2559 2458 2514 
L 1837 742 
L 1101 2377 
C 1062 2468 1037 2552 1037 2622 
C 1037 2739 1133 2784 1408 2784 
L 1408 2880 
L 90 2880 
L 90 2790 
C 256 2765 365 2694 416 2585 
L 1146 1005 
L 1165 953 
L 1261 761 
C 1440 440 1542 209 1542 112 
C 1542 16 1395 -389 1286 -582 
C 1197 -749 1056 -871 966 -871 
C 928 -871 870 -858 806 -826 
C 685 -781 576 -755 467 -755 
C 320 -755 192 -883 192 -1037 
C 192 -1248 397 -1408 666 -1408 
C 1094 -1408 1402 -1049 1747 -124 
L 2733 2495 
C 2816 2701 2886 2765 3040 2784 
L 3040 2880 
z
" transform="scale(0.015625)"/>
       <path id="NimbusRomNo9L-Regu-73" d="M 2016 2010 
L 1990 2880 
L 1920 2880 
L 1907 2867 
C 1850 2822 1843 2816 1818 2816 
C 1779 2816 1715 2829 1645 2861 
C 1504 2915 1363 2944 1197 2944 
C 691 2944 326 2616 326 2154 
C 326 1796 531 1539 1075 1231 
L 1446 1020 
C 1670 892 1779 737 1779 539 
C 1779 256 1574 77 1248 77 
C 1030 77 832 159 710 298 
C 576 455 518 600 435 960 
L 333 960 
L 333 -39 
L 416 -39 
C 461 33 486 48 563 48 
C 621 48 710 35 858 -2 
C 1037 -39 1210 -64 1325 -64 
C 1818 -64 2227 308 2227 757 
C 2227 1077 2074 1289 1690 1520 
L 998 1930 
C 819 2033 723 2194 723 2367 
C 723 2624 922 2803 1216 2803 
C 1581 2803 1773 2583 1920 2010 
L 2016 2010 
z
" transform="scale(0.015625)"/>
      </defs>
      <use xlink:href="#NimbusRomNo9L-Regu-64" transform="scale(0.996264)"/>
      <use xlink:href="#NimbusRomNo9L-Regu-61" transform="translate(49.8132 0) scale(0.996264)"/>
      <use xlink:href="#NimbusRomNo9L-Regu-79" transform="translate(94.046769 0) scale(0.996264)"/>
      <use xlink:href="#NimbusRomNo9L-Regu-73" transform="translate(143.85997 0) scale(0.996264)"/>
     </g>
    </g>
   </g>
   <g id="matplotlib.axis_2">
    <g id="ytick_1">
     <g id="line2d_47">
      <defs>
       <path id="m9a47cdc554" d="M 0 0 
L 3 0 
" style="stroke: #000000; stroke-width: 0.5"/>
      </defs>
      <g>
       <use xlink:href="#m9a47cdc554" x="41.298478" y="251.583556" style="stroke: #000000; stroke-width: 0.5"/>
      </g>
     </g>
     <g id="line2d_48">
      <defs>
       <path id="m1c919c69c2" d="M 0 0 
L -3 0 
" style="stroke: #000000; stroke-width: 0.5"/>
      </defs>
      <g>
       <use xlink:href="#m1c919c69c2" x="398.418478" y="251.583556" style="stroke: #000000; stroke-width: 0.5"/>
      </g>
     </g>
     <g id="text_7">
      <!-- $\mathdefault{0}$ -->
      <g transform="translate(33.813421 254.285384) scale(0.08 -0.08)">
       <use xlink:href="#NimbusRomNo9L-Regu-30" transform="scale(0.996264)"/>
      </g>
     </g>
    </g>
    <g id="ytick_2">
     <g id="line2d_49">
      <g>
       <use xlink:href="#m9a47cdc554" x="41.298478" y="217.481983" style="stroke: #000000; stroke-width: 0.5"/>
      </g>
     </g>
     <g id="line2d_50">
      <g>
       <use xlink:href="#m1c919c69c2" x="398.418478" y="217.481983" style="stroke: #000000; stroke-width: 0.5"/>
      </g>
     </g>
     <g id="text_8">
      <!-- $\mathdefault{1000}$ -->
      <g transform="translate(21.858253 220.183811) scale(0.08 -0.08)">
       <use xlink:href="#NimbusRomNo9L-Regu-31" transform="scale(0.996264)"/>
       <use xlink:href="#NimbusRomNo9L-Regu-30" transform="translate(49.8132 0) scale(0.996264)"/>
       <use xlink:href="#NimbusRomNo9L-Regu-30" transform="translate(99.626401 0) scale(0.996264)"/>
       <use xlink:href="#NimbusRomNo9L-Regu-30" transform="translate(149.439601 0) scale(0.996264)"/>
      </g>
     </g>
    </g>
    <g id="ytick_3">
     <g id="line2d_51">
      <g>
       <use xlink:href="#m9a47cdc554" x="41.298478" y="183.380411" style="stroke: #000000; stroke-width: 0.5"/>
      </g>
     </g>
     <g id="line2d_52">
      <g>
       <use xlink:href="#m1c919c69c2" x="398.418478" y="183.380411" style="stroke: #000000; stroke-width: 0.5"/>
      </g>
     </g>
     <g id="text_9">
      <!-- $\mathdefault{2000}$ -->
      <g transform="translate(21.858253 186.082239) scale(0.08 -0.08)">
       <use xlink:href="#NimbusRomNo9L-Regu-32" transform="scale(0.996264)"/>
       <use xlink:href="#NimbusRomNo9L-Regu-30" transform="translate(49.8132 0) scale(0.996264)"/>
       <use xlink:href="#NimbusRomNo9L-Regu-30" transform="translate(99.626401 0) scale(0.996264)"/>
       <use xlink:href="#NimbusRomNo9L-Regu-30" transform="translate(149.439601 0) scale(0.996264)"/>
      </g>
     </g>
    </g>
    <g id="ytick_4">
     <g id="line2d_53">
      <g>
       <use xlink:href="#m9a47cdc554" x="41.298478" y="149.278838" style="stroke: #000000; stroke-width: 0.5"/>
      </g>
     </g>
     <g id="line2d_54">
      <g>
       <use xlink:href="#m1c919c69c2" x="398.418478" y="149.278838" style="stroke: #000000; stroke-width: 0.5"/>
      </g>
     </g>
     <g id="text_10">
      <!-- $\mathdefault{3000}$ -->
      <g transform="translate(21.858253 151.980666) scale(0.08 -0.08)">
       <use xlink:href="#NimbusRomNo9L-Regu-33" transform="scale(0.996264)"/>
       <use xlink:href="#NimbusRomNo9L-Regu-30" transform="translate(49.8132 0) scale(0.996264)"/>
       <use xlink:href="#NimbusRomNo9L-Regu-30" transform="translate(99.626401 0) scale(0.996264)"/>
       <use xlink:href="#NimbusRomNo9L-Regu-30" transform="translate(149.439601 0) scale(0.996264)"/>
      </g>
     </g>
    </g>
    <g id="ytick_5">
     <g id="line2d_55">
      <g>
       <use xlink:href="#m9a47cdc554" x="41.298478" y="115.177265" style="stroke: #000000; stroke-width: 0.5"/>
      </g>
     </g>
     <g id="line2d_56">
      <g>
       <use xlink:href="#m1c919c69c2" x="398.418478" y="115.177265" style="stroke: #000000; stroke-width: 0.5"/>
      </g>
     </g>
     <g id="text_11">
      <!-- $\mathdefault{4000}$ -->
      <g transform="translate(21.858253 117.879093) scale(0.08 -0.08)">
       <use xlink:href="#NimbusRomNo9L-Regu-34" transform="scale(0.996264)"/>
       <use xlink:href="#NimbusRomNo9L-Regu-30" transform="translate(49.8132 0) scale(0.996264)"/>
       <use xlink:href="#NimbusRomNo9L-Regu-30" transform="translate(99.626401 0) scale(0.996264)"/>
       <use xlink:href="#NimbusRomNo9L-Regu-30" transform="translate(149.439601 0) scale(0.996264)"/>
      </g>
     </g>
    </g>
    <g id="ytick_6">
     <g id="line2d_57">
      <g>
       <use xlink:href="#m9a47cdc554" x="41.298478" y="81.075692" style="stroke: #000000; stroke-width: 0.5"/>
      </g>
     </g>
     <g id="line2d_58">
      <g>
       <use xlink:href="#m1c919c69c2" x="398.418478" y="81.075692" style="stroke: #000000; stroke-width: 0.5"/>
      </g>
     </g>
     <g id="text_12">
      <!-- $\mathdefault{5000}$ -->
      <g transform="translate(21.858253 83.77752) scale(0.08 -0.08)">
       <defs>
        <path id="NimbusRomNo9L-Regu-35" d="M 1158 3776 
L 2413 3776 
C 2515 3776 2541 3789 2560 3834 
L 2803 4403 
L 2746 4448 
C 2650 4314 2586 4282 2451 4282 
L 1114 4282 
L 416 2759 
C 410 2746 410 2740 410 2727 
C 410 2695 435 2676 486 2676 
C 691 2676 947 2631 1210 2547 
C 1946 2309 2285 1910 2285 1274 
C 2285 656 1894 173 1395 173 
C 1267 173 1158 218 966 360 
C 762 508 614 572 480 572 
C 294 572 205 495 205 334 
C 205 90 506 -64 986 -64 
C 1523 -64 1984 110 2304 438 
C 2598 728 2733 1094 2733 1583 
C 2733 2046 2611 2342 2291 2663 
C 2010 2947 1645 3094 890 3229 
L 1158 3776 
z
" transform="scale(0.015625)"/>
       </defs>
       <use xlink:href="#NimbusRomNo9L-Regu-35" transform="scale(0.996264)"/>
       <use xlink:href="#NimbusRomNo9L-Regu-30" transform="translate(49.8132 0) scale(0.996264)"/>
       <use xlink:href="#NimbusRomNo9L-Regu-30" transform="translate(99.626401 0) scale(0.996264)"/>
       <use xlink:href="#NimbusRomNo9L-Regu-30" transform="translate(149.439601 0) scale(0.996264)"/>
      </g>
     </g>
    </g>
    <g id="ytick_7">
     <g id="line2d_59">
      <g>
       <use xlink:href="#m9a47cdc554" x="41.298478" y="46.974119" style="stroke: #000000; stroke-width: 0.5"/>
      </g>
     </g>
     <g id="line2d_60">
      <g>
       <use xlink:href="#m1c919c69c2" x="398.418478" y="46.974119" style="stroke: #000000; stroke-width: 0.5"/>
      </g>
     </g>
     <g id="text_13">
      <!-- $\mathdefault{6000}$ -->
      <g transform="translate(21.858253 49.675947) scale(0.08 -0.08)">
       <defs>
        <path id="NimbusRomNo9L-Regu-36" d="M 2854 4391 
C 2125 4327 1754 4205 1286 3879 
C 595 3386 218 2656 218 1802 
C 218 1248 390 688 666 370 
C 909 89 1254 -64 1651 -64 
C 2445 -64 2995 541 2995 1421 
C 2995 2236 2528 2752 1792 2752 
C 1510 2752 1376 2707 973 2464 
C 1146 3431 1862 4122 2867 4288 
L 2854 4391 
z
M 1549 2458 
C 2099 2458 2419 2000 2419 1204 
C 2419 504 2170 116 1722 116 
C 1158 116 813 714 813 1700 
C 813 2025 864 2203 992 2299 
C 1126 2400 1325 2458 1549 2458 
z
" transform="scale(0.015625)"/>
       </defs>
       <use xlink:href="#NimbusRomNo9L-Regu-36" transform="scale(0.996264)"/>
       <use xlink:href="#NimbusRomNo9L-Regu-30" transform="translate(49.8132 0) scale(0.996264)"/>
       <use xlink:href="#NimbusRomNo9L-Regu-30" transform="translate(99.626401 0) scale(0.996264)"/>
       <use xlink:href="#NimbusRomNo9L-Regu-30" transform="translate(149.439601 0) scale(0.996264)"/>
      </g>
     </g>
    </g>
    <g id="ytick_8">
     <g id="line2d_61">
      <g>
       <use xlink:href="#m9a47cdc554" x="41.298478" y="12.872546" style="stroke: #000000; stroke-width: 0.5"/>
      </g>
     </g>
     <g id="line2d_62">
      <g>
       <use xlink:href="#m1c919c69c2" x="398.418478" y="12.872546" style="stroke: #000000; stroke-width: 0.5"/>
      </g>
     </g>
     <g id="text_14">
      <!-- $\mathdefault{7000}$ -->
      <g transform="translate(21.858253 15.574374) scale(0.08 -0.08)">
       <defs>
        <path id="NimbusRomNo9L-Regu-37" d="M 2874 4250 
L 506 4250 
L 128 3310 
L 237 3258 
C 512 3693 627 3776 979 3776 
L 2368 3776 
L 1101 -32 
L 1517 -32 
L 2874 4148 
L 2874 4250 
z
" transform="scale(0.015625)"/>
       </defs>
       <use xlink:href="#NimbusRomNo9L-Regu-37" transform="scale(0.996264)"/>
       <use xlink:href="#NimbusRomNo9L-Regu-30" transform="translate(49.8132 0) scale(0.996264)"/>
       <use xlink:href="#NimbusRomNo9L-Regu-30" transform="translate(99.626401 0) scale(0.996264)"/>
       <use xlink:href="#NimbusRomNo9L-Regu-30" transform="translate(149.439601 0) scale(0.996264)"/>
      </g>
     </g>
    </g>
    <g id="ytick_9">
     <g id="line2d_63">
      <defs>
       <path id="m957537717d" d="M 0 0 
L 1.5 0 
" style="stroke: #000000; stroke-width: 0.5"/>
      </defs>
      <g>
       <use xlink:href="#m957537717d" x="41.298478" y="265.224185" style="stroke: #000000; stroke-width: 0.5"/>
      </g>
     </g>
     <g id="line2d_64">
      <defs>
       <path id="m763bb2ae66" d="M 0 0 
L -1.5 0 
" style="stroke: #000000; stroke-width: 0.5"/>
      </defs>
      <g>
       <use xlink:href="#m763bb2ae66" x="398.418478" y="265.224185" style="stroke: #000000; stroke-width: 0.5"/>
      </g>
     </g>
    </g>
    <g id="ytick_10">
     <g id="line2d_65">
      <g>
       <use xlink:href="#m957537717d" x="41.298478" y="258.403871" style="stroke: #000000; stroke-width: 0.5"/>
      </g>
     </g>
     <g id="line2d_66">
      <g>
       <use xlink:href="#m763bb2ae66" x="398.418478" y="258.403871" style="stroke: #000000; stroke-width: 0.5"/>
      </g>
     </g>
    </g>
    <g id="ytick_11">
     <g id="line2d_67">
      <g>
       <use xlink:href="#m957537717d" x="41.298478" y="244.763242" style="stroke: #000000; stroke-width: 0.5"/>
      </g>
     </g>
     <g id="line2d_68">
      <g>
       <use xlink:href="#m763bb2ae66" x="398.418478" y="244.763242" style="stroke: #000000; stroke-width: 0.5"/>
      </g>
     </g>
    </g>
    <g id="ytick_12">
     <g id="line2d_69">
      <g>
       <use xlink:href="#m957537717d" x="41.298478" y="237.942927" style="stroke: #000000; stroke-width: 0.5"/>
      </g>
     </g>
     <g id="line2d_70">
      <g>
       <use xlink:href="#m763bb2ae66" x="398.418478" y="237.942927" style="stroke: #000000; stroke-width: 0.5"/>
      </g>
     </g>
    </g>
    <g id="ytick_13">
     <g id="line2d_71">
      <g>
       <use xlink:href="#m957537717d" x="41.298478" y="231.122613" style="stroke: #000000; stroke-width: 0.5"/>
      </g>
     </g>
     <g id="line2d_72">
      <g>
       <use xlink:href="#m763bb2ae66" x="398.418478" y="231.122613" style="stroke: #000000; stroke-width: 0.5"/>
      </g>
     </g>
    </g>
    <g id="ytick_14">
     <g id="line2d_73">
      <g>
       <use xlink:href="#m957537717d" x="41.298478" y="224.302298" style="stroke: #000000; stroke-width: 0.5"/>
      </g>
     </g>
     <g id="line2d_74">
      <g>
       <use xlink:href="#m763bb2ae66" x="398.418478" y="224.302298" style="stroke: #000000; stroke-width: 0.5"/>
      </g>
     </g>
    </g>
    <g id="ytick_15">
     <g id="line2d_75">
      <g>
       <use xlink:href="#m957537717d" x="41.298478" y="210.661669" style="stroke: #000000; stroke-width: 0.5"/>
      </g>
     </g>
     <g id="line2d_76">
      <g>
       <use xlink:href="#m763bb2ae66" x="398.418478" y="210.661669" style="stroke: #000000; stroke-width: 0.5"/>
      </g>
     </g>
    </g>
    <g id="ytick_16">
     <g id="line2d_77">
      <g>
       <use xlink:href="#m957537717d" x="41.298478" y="203.841354" style="stroke: #000000; stroke-width: 0.5"/>
      </g>
     </g>
     <g id="line2d_78">
      <g>
       <use xlink:href="#m763bb2ae66" x="398.418478" y="203.841354" style="stroke: #000000; stroke-width: 0.5"/>
      </g>
     </g>
    </g>
    <g id="ytick_17">
     <g id="line2d_79">
      <g>
       <use xlink:href="#m957537717d" x="41.298478" y="197.02104" style="stroke: #000000; stroke-width: 0.5"/>
      </g>
     </g>
     <g id="line2d_80">
      <g>
       <use xlink:href="#m763bb2ae66" x="398.418478" y="197.02104" style="stroke: #000000; stroke-width: 0.5"/>
      </g>
     </g>
    </g>
    <g id="ytick_18">
     <g id="line2d_81">
      <g>
       <use xlink:href="#m957537717d" x="41.298478" y="190.200725" style="stroke: #000000; stroke-width: 0.5"/>
      </g>
     </g>
     <g id="line2d_82">
      <g>
       <use xlink:href="#m763bb2ae66" x="398.418478" y="190.200725" style="stroke: #000000; stroke-width: 0.5"/>
      </g>
     </g>
    </g>
    <g id="ytick_19">
     <g id="line2d_83">
      <g>
       <use xlink:href="#m957537717d" x="41.298478" y="176.560096" style="stroke: #000000; stroke-width: 0.5"/>
      </g>
     </g>
     <g id="line2d_84">
      <g>
       <use xlink:href="#m763bb2ae66" x="398.418478" y="176.560096" style="stroke: #000000; stroke-width: 0.5"/>
      </g>
     </g>
    </g>
    <g id="ytick_20">
     <g id="line2d_85">
      <g>
       <use xlink:href="#m957537717d" x="41.298478" y="169.739781" style="stroke: #000000; stroke-width: 0.5"/>
      </g>
     </g>
     <g id="line2d_86">
      <g>
       <use xlink:href="#m763bb2ae66" x="398.418478" y="169.739781" style="stroke: #000000; stroke-width: 0.5"/>
      </g>
     </g>
    </g>
    <g id="ytick_21">
     <g id="line2d_87">
      <g>
       <use xlink:href="#m957537717d" x="41.298478" y="162.919467" style="stroke: #000000; stroke-width: 0.5"/>
      </g>
     </g>
     <g id="line2d_88">
      <g>
       <use xlink:href="#m763bb2ae66" x="398.418478" y="162.919467" style="stroke: #000000; stroke-width: 0.5"/>
      </g>
     </g>
    </g>
    <g id="ytick_22">
     <g id="line2d_89">
      <g>
       <use xlink:href="#m957537717d" x="41.298478" y="156.099152" style="stroke: #000000; stroke-width: 0.5"/>
      </g>
     </g>
     <g id="line2d_90">
      <g>
       <use xlink:href="#m763bb2ae66" x="398.418478" y="156.099152" style="stroke: #000000; stroke-width: 0.5"/>
      </g>
     </g>
    </g>
    <g id="ytick_23">
     <g id="line2d_91">
      <g>
       <use xlink:href="#m957537717d" x="41.298478" y="142.458523" style="stroke: #000000; stroke-width: 0.5"/>
      </g>
     </g>
     <g id="line2d_92">
      <g>
       <use xlink:href="#m763bb2ae66" x="398.418478" y="142.458523" style="stroke: #000000; stroke-width: 0.5"/>
      </g>
     </g>
    </g>
    <g id="ytick_24">
     <g id="line2d_93">
      <g>
       <use xlink:href="#m957537717d" x="41.298478" y="135.638209" style="stroke: #000000; stroke-width: 0.5"/>
      </g>
     </g>
     <g id="line2d_94">
      <g>
       <use xlink:href="#m763bb2ae66" x="398.418478" y="135.638209" style="stroke: #000000; stroke-width: 0.5"/>
      </g>
     </g>
    </g>
    <g id="ytick_25">
     <g id="line2d_95">
      <g>
       <use xlink:href="#m957537717d" x="41.298478" y="128.817894" style="stroke: #000000; stroke-width: 0.5"/>
      </g>
     </g>
     <g id="line2d_96">
      <g>
       <use xlink:href="#m763bb2ae66" x="398.418478" y="128.817894" style="stroke: #000000; stroke-width: 0.5"/>
      </g>
     </g>
    </g>
    <g id="ytick_26">
     <g id="line2d_97">
      <g>
       <use xlink:href="#m957537717d" x="41.298478" y="121.997579" style="stroke: #000000; stroke-width: 0.5"/>
      </g>
     </g>
     <g id="line2d_98">
      <g>
       <use xlink:href="#m763bb2ae66" x="398.418478" y="121.997579" style="stroke: #000000; stroke-width: 0.5"/>
      </g>
     </g>
    </g>
    <g id="ytick_27">
     <g id="line2d_99">
      <g>
       <use xlink:href="#m957537717d" x="41.298478" y="108.35695" style="stroke: #000000; stroke-width: 0.5"/>
      </g>
     </g>
     <g id="line2d_100">
      <g>
       <use xlink:href="#m763bb2ae66" x="398.418478" y="108.35695" style="stroke: #000000; stroke-width: 0.5"/>
      </g>
     </g>
    </g>
    <g id="ytick_28">
     <g id="line2d_101">
      <g>
       <use xlink:href="#m957537717d" x="41.298478" y="101.536636" style="stroke: #000000; stroke-width: 0.5"/>
      </g>
     </g>
     <g id="line2d_102">
      <g>
       <use xlink:href="#m763bb2ae66" x="398.418478" y="101.536636" style="stroke: #000000; stroke-width: 0.5"/>
      </g>
     </g>
    </g>
    <g id="ytick_29">
     <g id="line2d_103">
      <g>
       <use xlink:href="#m957537717d" x="41.298478" y="94.716321" style="stroke: #000000; stroke-width: 0.5"/>
      </g>
     </g>
     <g id="line2d_104">
      <g>
       <use xlink:href="#m763bb2ae66" x="398.418478" y="94.716321" style="stroke: #000000; stroke-width: 0.5"/>
      </g>
     </g>
    </g>
    <g id="ytick_30">
     <g id="line2d_105">
      <g>
       <use xlink:href="#m957537717d" x="41.298478" y="87.896007" style="stroke: #000000; stroke-width: 0.5"/>
      </g>
     </g>
     <g id="line2d_106">
      <g>
       <use xlink:href="#m763bb2ae66" x="398.418478" y="87.896007" style="stroke: #000000; stroke-width: 0.5"/>
      </g>
     </g>
    </g>
    <g id="ytick_31">
     <g id="line2d_107">
      <g>
       <use xlink:href="#m957537717d" x="41.298478" y="74.255377" style="stroke: #000000; stroke-width: 0.5"/>
      </g>
     </g>
     <g id="line2d_108">
      <g>
       <use xlink:href="#m763bb2ae66" x="398.418478" y="74.255377" style="stroke: #000000; stroke-width: 0.5"/>
      </g>
     </g>
    </g>
    <g id="ytick_32">
     <g id="line2d_109">
      <g>
       <use xlink:href="#m957537717d" x="41.298478" y="67.435063" style="stroke: #000000; stroke-width: 0.5"/>
      </g>
     </g>
     <g id="line2d_110">
      <g>
       <use xlink:href="#m763bb2ae66" x="398.418478" y="67.435063" style="stroke: #000000; stroke-width: 0.5"/>
      </g>
     </g>
    </g>
    <g id="ytick_33">
     <g id="line2d_111">
      <g>
       <use xlink:href="#m957537717d" x="41.298478" y="60.614748" style="stroke: #000000; stroke-width: 0.5"/>
      </g>
     </g>
     <g id="line2d_112">
      <g>
       <use xlink:href="#m763bb2ae66" x="398.418478" y="60.614748" style="stroke: #000000; stroke-width: 0.5"/>
      </g>
     </g>
    </g>
    <g id="ytick_34">
     <g id="line2d_113">
      <g>
       <use xlink:href="#m957537717d" x="41.298478" y="53.794434" style="stroke: #000000; stroke-width: 0.5"/>
      </g>
     </g>
     <g id="line2d_114">
      <g>
       <use xlink:href="#m763bb2ae66" x="398.418478" y="53.794434" style="stroke: #000000; stroke-width: 0.5"/>
      </g>
     </g>
    </g>
    <g id="ytick_35">
     <g id="line2d_115">
      <g>
       <use xlink:href="#m957537717d" x="41.298478" y="40.153805" style="stroke: #000000; stroke-width: 0.5"/>
      </g>
     </g>
     <g id="line2d_116">
      <g>
       <use xlink:href="#m763bb2ae66" x="398.418478" y="40.153805" style="stroke: #000000; stroke-width: 0.5"/>
      </g>
     </g>
    </g>
    <g id="ytick_36">
     <g id="line2d_117">
      <g>
       <use xlink:href="#m957537717d" x="41.298478" y="33.33349" style="stroke: #000000; stroke-width: 0.5"/>
      </g>
     </g>
     <g id="line2d_118">
      <g>
       <use xlink:href="#m763bb2ae66" x="398.418478" y="33.33349" style="stroke: #000000; stroke-width: 0.5"/>
      </g>
     </g>
    </g>
    <g id="ytick_37">
     <g id="line2d_119">
      <g>
       <use xlink:href="#m957537717d" x="41.298478" y="26.513175" style="stroke: #000000; stroke-width: 0.5"/>
      </g>
     </g>
     <g id="line2d_120">
      <g>
       <use xlink:href="#m763bb2ae66" x="398.418478" y="26.513175" style="stroke: #000000; stroke-width: 0.5"/>
      </g>
     </g>
    </g>
    <g id="ytick_38">
     <g id="line2d_121">
      <g>
       <use xlink:href="#m957537717d" x="41.298478" y="19.692861" style="stroke: #000000; stroke-width: 0.5"/>
      </g>
     </g>
     <g id="line2d_122">
      <g>
       <use xlink:href="#m763bb2ae66" x="398.418478" y="19.692861" style="stroke: #000000; stroke-width: 0.5"/>
      </g>
     </g>
    </g>
    <g id="ytick_39">
     <g id="line2d_123">
      <g>
       <use xlink:href="#m957537717d" x="41.298478" y="6.052232" style="stroke: #000000; stroke-width: 0.5"/>
      </g>
     </g>
     <g id="line2d_124">
      <g>
       <use xlink:href="#m763bb2ae66" x="398.418478" y="6.052232" style="stroke: #000000; stroke-width: 0.5"/>
      </g>
     </g>
    </g>
    <g id="text_15">
     <!-- spatial rainfall -->
     <g transform="translate(14.407327 182.395716) rotate(-90) scale(0.16 -0.16)">
      <defs>
       <path id="NimbusRomNo9L-Regu-70" d="M 58 2516 
C 115 2522 160 2522 218 2522 
C 435 2522 480 2458 480 2155 
L 480 -855 
C 480 -1189 410 -1261 32 -1299 
L 32 -1408 
L 1581 -1408 
L 1581 -1293 
C 1101 -1293 1018 -1222 1018 -816 
L 1018 199 
C 1242 -13 1395 -77 1664 -77 
C 2419 -77 3008 643 3008 1575 
C 3008 2372 2560 2944 1939 2944 
C 1581 2944 1299 2784 1018 2438 
L 1018 2931 
L 979 2944 
C 634 2810 410 2726 58 2618 
L 58 2516 
z
M 1018 2136 
C 1018 2329 1376 2560 1670 2560 
C 2144 2560 2458 2071 2458 1324 
C 2458 611 2144 128 1683 128 
C 1382 128 1018 359 1018 552 
L 1018 2136 
z
" transform="scale(0.015625)"/>
       <path id="NimbusRomNo9L-Regu-74" d="M 1632 2880 
L 986 2880 
L 986 3622 
C 986 3686 979 3706 941 3706 
C 896 3648 858 3590 813 3526 
C 570 3174 294 2867 192 2841 
C 122 2794 83 2748 83 2715 
C 83 2695 90 2682 109 2682 
L 448 2682 
L 448 751 
C 448 212 640 -64 1018 -64 
C 1331 -64 1574 90 1786 423 
L 1702 493 
C 1568 333 1459 269 1318 269 
C 1082 269 986 443 986 847 
L 986 2682 
L 1632 2682 
L 1632 2880 
z
" transform="scale(0.015625)"/>
       <path id="NimbusRomNo9L-Regu-69" d="M 1120 2929 
L 128 2579 
L 128 2484 
L 179 2490 
C 256 2502 339 2509 397 2509 
C 550 2509 608 2406 608 2125 
L 608 640 
C 608 179 544 109 102 109 
L 102 0 
L 1619 0 
L 1619 96 
C 1197 128 1146 191 1146 650 
L 1146 2910 
L 1120 2929 
z
M 819 4352 
C 646 4352 499 4205 499 4026 
C 499 3847 640 3699 819 3699 
C 1005 3699 1152 3840 1152 4026 
C 1152 4205 1005 4352 819 4352 
z
" transform="scale(0.015625)"/>
       <path id="NimbusRomNo9L-Regu-6c" d="M 122 4000 
L 160 4000 
C 230 4000 307 4000 358 4000 
C 563 4000 627 3910 627 3610 
L 627 557 
C 627 211 538 128 134 96 
L 134 0 
L 1645 0 
L 1645 109 
C 1242 109 1165 173 1165 528 
L 1165 4371 
L 1139 4384 
C 806 4275 563 4211 122 4103 
L 122 4000 
z
" transform="scale(0.015625)"/>
       <path id="NimbusRomNo9L-Regu-72" d="M 45 2496 
C 134 2515 192 2522 269 2522 
C 429 2522 486 2419 486 2138 
L 486 538 
C 486 218 442 173 32 96 
L 32 0 
L 1568 0 
L 1568 102 
C 1133 102 1024 199 1024 565 
L 1024 2013 
C 1024 2219 1299 2541 1472 2541 
C 1510 2541 1568 2509 1638 2445 
C 1741 2355 1811 2317 1894 2317 
C 2048 2317 2144 2426 2144 2605 
C 2144 2816 2010 2944 1792 2944 
C 1523 2944 1338 2797 1024 2343 
L 1024 2931 
L 992 2944 
C 653 2803 422 2721 45 2599 
L 45 2496 
z
" transform="scale(0.015625)"/>
       <path id="NimbusRomNo9L-Regu-6e" d="M 102 2579 
C 141 2598 205 2605 275 2605 
C 454 2605 512 2509 512 2195 
L 512 608 
C 512 243 442 154 115 128 
L 115 32 
L 1472 32 
L 1472 128 
C 1146 154 1050 230 1050 461 
L 1050 2259 
C 1357 2547 1498 2624 1709 2624 
C 2022 2624 2176 2426 2176 2003 
L 2176 666 
C 2176 262 2093 154 1773 128 
L 1773 32 
L 3104 32 
L 3104 128 
C 2790 160 2714 237 2714 550 
L 2714 2016 
C 2714 2618 2432 2976 1958 2976 
C 1664 2976 1466 2867 1030 2458 
L 1030 2963 
L 986 2976 
C 672 2861 454 2790 102 2688 
L 102 2579 
z
" transform="scale(0.015625)"/>
       <path id="NimbusRomNo9L-Regu-66" d="M 1978 2880 
L 1190 2880 
L 1190 3611 
C 1190 3978 1312 4173 1555 4173 
C 1690 4173 1779 4110 1894 3927 
C 1997 3763 2074 3700 2182 3700 
C 2330 3700 2451 3814 2451 3959 
C 2451 4188 2170 4352 1786 4352 
C 1389 4352 1050 4181 883 3891 
C 717 3613 666 3385 659 2880 
L 134 2880 
L 134 2675 
L 659 2675 
L 659 656 
C 659 185 589 109 128 109 
L 128 0 
L 1792 0 
L 1792 109 
C 1267 109 1197 180 1197 661 
L 1197 2675 
L 1978 2675 
L 1978 2880 
z
" transform="scale(0.015625)"/>
      </defs>
      <use xlink:href="#NimbusRomNo9L-Regu-73" transform="scale(0.996264)"/>
      <use xlink:href="#NimbusRomNo9L-Regu-70" transform="translate(38.753706 0) scale(0.996264)"/>
      <use xlink:href="#NimbusRomNo9L-Regu-61" transform="translate(88.566907 0) scale(0.996264)"/>
      <use xlink:href="#NimbusRomNo9L-Regu-74" transform="translate(132.800475 0) scale(0.996264)"/>
      <use xlink:href="#NimbusRomNo9L-Regu-69" transform="translate(160.495645 0) scale(0.996264)"/>
      <use xlink:href="#NimbusRomNo9L-Regu-61" transform="translate(188.190815 0) scale(0.996264)"/>
      <use xlink:href="#NimbusRomNo9L-Regu-6c" transform="translate(232.424383 0) scale(0.996264)"/>
      <use xlink:href="#NimbusRomNo9L-Regu-72" transform="translate(285.026153 0) scale(0.996264)"/>
      <use xlink:href="#NimbusRomNo9L-Regu-61" transform="translate(318.201383 0) scale(0.996264)"/>
      <use xlink:href="#NimbusRomNo9L-Regu-69" transform="translate(362.434952 0) scale(0.996264)"/>
      <use xlink:href="#NimbusRomNo9L-Regu-6e" transform="translate(390.130121 0) scale(0.996264)"/>
      <use xlink:href="#NimbusRomNo9L-Regu-66" transform="translate(439.943322 0) scale(0.996264)"/>
      <use xlink:href="#NimbusRomNo9L-Regu-61" transform="translate(472.122455 0) scale(0.996264)"/>
      <use xlink:href="#NimbusRomNo9L-Regu-6c" transform="translate(516.356023 0) scale(0.996264)"/>
      <use xlink:href="#NimbusRomNo9L-Regu-6c" transform="translate(544.051193 0) scale(0.996264)"/>
     </g>
    </g>
   </g>
   <g id="line2d_125">
    <path d="M 57.531205 248.983593 
L 58.306037 247.5725 
L 59.080868 247.361426 
L 59.8557 248.521057 
L 60.630532 248.347228 
L 61.405364 249.571519 
L 62.180196 248.8861 
L 62.955028 248.541685 
L 63.72986 249.268054 
L 65.279523 248.834968 
L 66.054355 246.611546 
L 66.829187 245.499836 
L 67.604019 246.802516 
L 68.378851 247.614133 
L 69.153683 247.808512 
L 69.928514 248.52635 
L 70.703346 248.416373 
L 71.478178 249.674295 
L 72.25301 250.289615 
L 73.027842 249.357683 
L 73.802674 249.889188 
L 74.577505 250.24872 
L 75.352337 249.891386 
L 76.127169 250.5124 
L 76.902001 250.778576 
L 77.676833 250.417191 
L 78.451665 249.578338 
L 79.226497 249.537438 
L 80.001328 250.407041 
L 80.77616 250.979374 
L 82.325824 251.307103 
L 83.100656 251.375421 
L 83.875488 250.729254 
L 84.65032 250.399351 
L 85.425151 250.449238 
L 86.199983 249.616527 
L 86.974815 250.108979 
L 87.749647 250.382487 
L 88.524479 250.507304 
L 89.299311 250.813541 
L 90.074143 249.708308 
L 90.848974 249.431917 
L 91.623806 250.013263 
L 92.398638 250.305643 
L 93.17347 250.859346 
L 93.948302 251.170298 
L 94.723134 251.257572 
L 95.497965 250.903925 
L 96.272797 250.118388 
L 97.047629 248.310405 
L 97.822461 249.83598 
L 100.146957 249.199234 
L 100.921788 250.035032 
L 101.69662 250.345514 
L 103.246284 250.580931 
L 104.021116 250.981815 
L 104.795948 250.442081 
L 105.57078 250.390466 
L 106.345611 249.960553 
L 107.120443 250.633603 
L 107.895275 250.085531 
L 108.670107 250.377583 
L 109.444939 249.01973 
L 110.219771 250.209568 
L 110.994602 247.315897 
L 112.544266 247.643584 
L 113.319098 247.918722 
L 114.09393 248.376846 
L 114.868762 248.379132 
L 115.643594 246.826949 
L 116.418425 248.187321 
L 117.193257 248.884557 
L 117.968089 250.18819 
L 118.742921 248.993236 
L 119.517753 249.330142 
L 120.292585 248.137943 
L 121.067417 246.638151 
L 121.842248 247.388724 
L 122.61708 247.791292 
L 123.391912 246.942247 
L 124.941576 247.004547 
L 125.716408 247.667406 
L 126.491239 246.965559 
L 127.266071 248.312893 
L 128.040903 248.597802 
L 129.590567 248.82001 
L 130.365399 249.79427 
L 131.140231 248.990654 
L 131.915062 248.697972 
L 133.464726 248.856136 
L 134.239558 247.93504 
L 135.01439 243.774473 
L 135.789222 232.657271 
L 137.338885 243.72146 
L 138.113717 247.567255 
L 138.888549 248.448349 
L 139.663381 240.126497 
L 140.438213 240.569282 
L 141.213045 219.136178 
L 143.53754 235.515355 
L 145.087204 241.871543 
L 145.862036 241.680517 
L 146.636868 243.426489 
L 147.411699 244.333576 
L 148.186531 243.866378 
L 148.961363 240.393129 
L 149.736195 242.45883 
L 151.285859 240.85371 
L 152.060691 241.768378 
L 152.835522 242.208661 
L 153.610354 242.80392 
L 154.385186 245.454558 
L 155.160018 245.842083 
L 155.93485 246.990691 
L 156.709682 246.149779 
L 157.484514 246.667116 
L 158.259345 245.561722 
L 159.034177 242.809473 
L 159.809009 245.927936 
L 160.583841 245.993519 
L 161.358673 245.514787 
L 162.133505 242.751905 
L 162.908336 232.674561 
L 163.683168 234.200443 
L 164.458 234.980435 
L 165.232832 240.042346 
L 166.007664 235.053905 
L 166.782496 228.825562 
L 167.557328 233.009126 
L 168.332159 221.323874 
L 169.106991 224.927383 
L 169.881823 230.054041 
L 170.656655 233.879129 
L 171.431487 234.666321 
L 172.206319 236.355776 
L 172.981151 237.166402 
L 173.755982 240.027029 
L 174.530814 241.457342 
L 175.305646 243.127343 
L 176.080478 239.11992 
L 176.85531 239.74203 
L 177.630142 242.883515 
L 178.404973 243.533515 
L 179.179805 245.665898 
L 179.954637 246.391074 
L 180.729469 245.764717 
L 181.504301 246.372281 
L 182.279133 246.778367 
L 183.053965 247.63275 
L 183.828796 246.556062 
L 184.603628 247.738143 
L 185.37846 246.949775 
L 186.153292 243.332992 
L 186.928124 245.343976 
L 187.702956 244.866051 
L 189.252619 249.264776 
L 190.027451 247.491431 
L 190.802283 247.576653 
L 191.577115 248.903189 
L 192.351947 247.702806 
L 193.126779 246.16482 
L 193.901611 243.537292 
L 194.676442 245.173314 
L 195.451274 244.507907 
L 196.226106 242.81114 
L 197.000938 238.859514 
L 197.77577 225.272116 
L 198.550602 216.773337 
L 199.325433 193.768082 
L 200.100265 191.131862 
L 200.875097 198.680161 
L 201.649929 201.431266 
L 202.424761 201.613263 
L 203.199593 206.307974 
L 203.974425 193.991653 
L 204.749256 196.017866 
L 206.29892 216.821973 
L 207.073752 225.148797 
L 207.848584 229.346311 
L 208.623416 225.23858 
L 210.173079 219.310304 
L 210.947911 222.351925 
L 211.722743 223.514669 
L 212.497575 188.783861 
L 213.272407 192.220419 
L 214.047239 207.732784 
L 214.82207 215.829985 
L 215.596902 220.765221 
L 216.371734 228.416281 
L 217.146566 232.241812 
L 217.921398 235.09237 
L 218.69623 238.563743 
L 219.471062 229.06296 
L 220.245893 236.640288 
L 221.020725 241.281492 
L 221.795557 243.550941 
L 222.570389 244.293498 
L 223.345221 243.812237 
L 224.120053 243.997876 
L 224.894885 243.118801 
L 225.669716 244.230884 
L 226.444548 243.030695 
L 227.21938 242.720464 
L 227.994212 198.727775 
L 228.769044 198.215423 
L 229.543876 212.469469 
L 230.318707 223.313558 
L 231.093539 230.031466 
L 231.868371 232.145712 
L 232.643203 225.086661 
L 233.418035 230.679305 
L 234.192867 230.06547 
L 234.967699 231.514783 
L 235.74253 225.811295 
L 236.517362 226.113944 
L 237.292194 229.897087 
L 238.067026 232.231979 
L 238.841858 232.666242 
L 240.391522 238.541969 
L 241.166353 239.060886 
L 241.941185 240.343392 
L 242.716017 241.257457 
L 243.490849 239.276227 
L 244.265681 239.189304 
L 245.040513 238.651369 
L 245.815345 237.922031 
L 246.590176 239.194237 
L 247.365008 239.199461 
L 248.13984 242.407621 
L 248.914672 243.073908 
L 249.689504 243.407051 
L 250.464336 243.52247 
L 251.239167 244.517973 
L 252.013999 244.964573 
L 252.788831 246.159767 
L 253.563663 244.677168 
L 254.338495 242.759364 
L 255.113327 244.017065 
L 256.66299 242.990974 
L 257.437822 243.109823 
L 258.212654 243.919481 
L 259.762318 243.810593 
L 260.53715 243.349124 
L 261.311982 241.481514 
L 262.086813 242.235736 
L 262.861645 241.828513 
L 263.636477 241.744256 
L 264.411309 242.401209 
L 265.186141 243.940292 
L 265.960973 244.147158 
L 266.735804 243.977777 
L 267.510636 244.319357 
L 268.285468 245.41089 
L 269.0603 246.775094 
L 269.835132 247.457196 
L 270.609964 247.354926 
L 271.384796 246.178439 
L 272.159627 247.124767 
L 272.934459 247.59793 
L 273.709291 245.583809 
L 274.484123 245.156475 
L 275.258955 197.558672 
L 276.033787 180.23907 
L 276.808619 201.401094 
L 277.58345 216.892732 
L 278.358282 225.746853 
L 279.133114 229.849948 
L 279.907946 225.967822 
L 280.682778 233.012523 
L 281.45761 236.67128 
L 283.007273 242.083796 
L 283.782105 242.178811 
L 285.331769 191.941725 
L 286.881433 220.491903 
L 287.656264 228.535385 
L 288.431096 231.073706 
L 289.205928 228.949759 
L 289.98076 230.10439 
L 291.530424 237.500813 
L 292.305256 237.312651 
L 293.080087 238.855446 
L 293.854919 240.786297 
L 294.629751 240.796877 
L 295.404583 243.547345 
L 296.179415 242.99584 
L 296.954247 243.453272 
L 298.50391 242.099791 
L 299.278742 242.919993 
L 300.053574 243.926871 
L 300.828406 241.258864 
L 301.603238 241.834549 
L 302.37807 243.043133 
L 303.152901 244.517016 
L 303.927733 244.469621 
L 304.702565 241.393833 
L 305.477397 195.67735 
L 306.252229 192.427514 
L 307.027061 210.308693 
L 307.801893 127.106846 
L 308.576724 134.612173 
L 309.351556 169.056251 
L 310.126388 198.043338 
L 312.450884 225.904978 
L 313.225716 231.395379 
L 314.000547 235.89681 
L 314.775379 235.521704 
L 315.550211 218.146958 
L 316.325043 220.781309 
L 317.874707 233.703675 
L 318.649538 236.403028 
L 319.42437 186.873158 
L 320.199202 168.075998 
L 321.748866 208.506543 
L 322.523698 217.171706 
L 324.073361 204.616324 
L 324.848193 205.627004 
L 325.623025 211.383984 
L 326.397857 212.898411 
L 327.172689 15.696 
L 327.947521 61.003436 
L 328.722353 131.740364 
L 329.497184 173.588131 
L 331.046848 209.782267 
L 331.82168 221.356132 
L 332.596512 229.513124 
L 333.371344 198.944419 
L 334.146175 219.534926 
L 334.921007 227.579473 
L 335.695839 233.238621 
L 336.470671 237.091243 
L 337.245503 239.853043 
L 338.020335 243.33119 
L 339.569998 246.135884 
L 340.34483 245.722376 
L 341.119662 246.879684 
L 341.894494 247.134374 
L 342.669326 245.35203 
L 343.444158 226.301771 
L 344.21899 237.711597 
L 344.993821 243.065264 
L 345.768653 246.315003 
L 346.543485 247.501668 
L 347.318317 248.054078 
L 348.093149 249.5443 
L 348.867981 248.586037 
L 349.642813 249.631246 
L 350.417644 246.088942 
L 351.192476 215.416707 
L 351.967308 228.760013 
L 352.74214 224.229299 
L 353.516972 232.364922 
L 354.291804 237.865 
L 355.066635 241.092461 
L 355.841467 243.354121 
L 356.616299 244.467901 
L 357.391131 246.480927 
L 358.165963 246.304116 
L 358.940795 247.792908 
L 359.715627 248.371912 
L 360.490458 245.783241 
L 361.26529 247.684223 
L 362.040122 247.945861 
L 363.589786 249.322005 
L 364.364618 249.699136 
L 365.13945 249.389819 
L 365.914281 248.696355 
L 366.689113 248.94299 
L 367.463945 246.188135 
L 368.238777 248.32999 
L 369.013609 246.495463 
L 369.788441 247.429916 
L 370.563272 246.045427 
L 371.338104 248.021629 
L 372.112936 242.897025 
L 372.887768 239.686792 
L 373.6626 241.287224 
L 374.437432 243.945975 
L 376.761927 247.143678 
L 377.536759 248.744674 
L 378.311591 248.407884 
L 379.086423 246.807223 
L 379.861255 248.557691 
L 380.636087 249.107254 
L 381.410918 249.071711 
L 382.18575 249.200576 
L 382.18575 249.200576 
" clip-path="url(#pa173467be0)" style="fill: none; stroke: #000000; stroke-linecap: square"/>
   </g>
   <g id="line2d_126">
    <path d="M 57.531205 249.224726 
L 58.306037 248.132329 
L 59.080868 249.942185 
L 59.8557 250.241084 
L 60.630532 251.111566 
L 61.405364 251.308154 
L 62.180196 252.34334 
L 62.955028 252.213707 
L 63.72986 252.21848 
L 64.504691 252.794595 
L 65.279523 236.035555 
L 66.054355 242.011647 
L 66.829187 244.933826 
L 67.604019 246.132755 
L 68.378851 245.446662 
L 69.153683 247.693164 
L 69.928514 248.592226 
L 70.703346 248.551458 
L 71.478178 248.087445 
L 72.25301 249.393283 
L 73.027842 250.285244 
L 73.802674 250.116318 
L 74.577505 250.837495 
L 75.352337 250.275791 
L 76.127169 248.694824 
L 76.902001 249.659594 
L 77.676833 250.221099 
L 78.451665 249.951179 
L 79.226497 249.041879 
L 80.001328 249.531644 
L 80.77616 248.795485 
L 81.550992 248.784532 
L 82.325824 248.478773 
L 83.100656 248.850733 
L 83.875488 249.495 
L 84.65032 248.082236 
L 85.425151 246.145237 
L 86.199983 245.719552 
L 86.974815 245.542934 
L 87.749647 246.198677 
L 88.524479 247.271798 
L 89.299311 247.479839 
L 90.074143 247.176152 
L 90.848974 245.981313 
L 91.623806 246.561266 
L 93.17347 249.915131 
L 93.948302 250.861272 
L 94.723134 251.303193 
L 95.497965 250.295838 
L 96.272797 249.624682 
L 97.047629 248.327352 
L 97.822461 247.489513 
L 98.597293 249.098082 
L 99.372125 248.878148 
L 100.146957 248.12822 
L 100.921788 248.428284 
L 101.69662 249.280644 
L 102.471452 249.781501 
L 103.246284 249.495838 
L 104.021116 249.004626 
L 104.795948 249.135793 
L 105.57078 248.765974 
L 107.895275 248.854285 
L 108.670107 248.634227 
L 110.219771 247.519048 
L 110.994602 247.702183 
L 111.769434 246.937155 
L 112.544266 247.484741 
L 113.319098 248.277891 
L 114.09393 247.045872 
L 114.868762 246.37383 
L 115.643594 246.440817 
L 116.418425 245.84703 
L 117.193257 247.685213 
L 117.968089 247.869762 
L 118.742921 248.927253 
L 120.292585 245.077833 
L 121.067417 245.858789 
L 121.842248 241.896925 
L 122.61708 243.038215 
L 123.391912 244.492009 
L 124.166744 245.045939 
L 124.941576 245.893737 
L 125.716408 246.113663 
L 126.491239 245.854952 
L 127.266071 245.234564 
L 128.040903 246.376241 
L 128.815735 247.089694 
L 131.140231 248.487448 
L 131.915062 248.238184 
L 132.689894 248.285809 
L 133.464726 246.939884 
L 134.239558 246.322019 
L 135.01439 245.33476 
L 135.789222 242.191465 
L 136.564054 232.879272 
L 138.113717 242.189127 
L 138.888549 244.394498 
L 139.663381 240.256277 
L 140.438213 233.987944 
L 141.213045 235.978217 
L 141.987877 222.20165 
L 142.762708 228.571618 
L 143.53754 233.964039 
L 145.087204 238.53196 
L 145.862036 242.10338 
L 146.636868 242.442718 
L 147.411699 243.295634 
L 148.186531 243.932583 
L 148.961363 239.079085 
L 149.736195 232.064885 
L 151.285859 238.425879 
L 152.060691 240.793447 
L 152.835522 241.372892 
L 153.610354 238.547483 
L 154.385186 240.145824 
L 155.160018 243.81617 
L 155.93485 246.817412 
L 156.709682 244.784082 
L 157.484514 237.793395 
L 158.259345 237.83836 
L 159.034177 238.791385 
L 159.809009 239.01809 
L 160.583841 242.359085 
L 161.358673 242.750836 
L 162.133505 241.111269 
L 162.908336 239.806955 
L 163.683168 234.774342 
L 164.458 236.001089 
L 165.232832 235.846369 
L 166.007664 236.271706 
L 167.557328 225.891108 
L 168.332159 229.382594 
L 169.106991 222.232482 
L 169.881823 226.898934 
L 170.656655 228.526878 
L 171.431487 231.214939 
L 172.206319 233.204534 
L 172.981151 236.040353 
L 173.755982 238.01716 
L 174.530814 240.539165 
L 175.305646 241.662393 
L 176.080478 243.371321 
L 176.85531 241.631987 
L 177.630142 242.503776 
L 178.404973 244.980949 
L 179.179805 245.297394 
L 179.954637 246.270633 
L 180.729469 246.374524 
L 182.279133 245.663333 
L 183.828796 246.075369 
L 184.603628 245.633279 
L 185.37846 246.809501 
L 186.153292 246.465911 
L 186.928124 244.120491 
L 187.702956 245.427462 
L 188.477788 245.169561 
L 190.027451 248.773524 
L 190.802283 247.585403 
L 191.577115 247.146356 
L 192.351947 247.183174 
L 193.126779 246.378772 
L 193.901611 245.143277 
L 194.676442 244.288356 
L 195.451274 246.01472 
L 197.77577 232.099415 
L 198.550602 219.59738 
L 199.325433 216.482098 
L 200.100265 197.788259 
L 200.875097 196.729703 
L 201.649929 196.016122 
L 202.424761 200.86292 
L 203.199593 199.491214 
L 203.974425 203.531143 
L 204.749256 200.81745 
L 205.524088 206.685501 
L 207.073752 224.752167 
L 207.848584 228.271495 
L 208.623416 228.070497 
L 209.398248 224.954289 
L 210.173079 215.333214 
L 210.947911 207.386707 
L 211.722743 206.025495 
L 212.497575 211.092064 
L 213.272407 189.041542 
L 214.047239 197.913829 
L 214.82207 212.728594 
L 215.596902 219.73583 
L 217.146566 229.88933 
L 218.69623 235.545987 
L 219.471062 238.084593 
L 220.245893 234.195518 
L 221.020725 237.528047 
L 221.795557 239.018788 
L 222.570389 240.048264 
L 223.345221 240.574948 
L 224.120053 240.512732 
L 224.894885 240.02781 
L 225.669716 239.202174 
L 226.444548 239.119599 
L 227.21938 236.53798 
L 227.994212 234.886876 
L 228.769044 196.711395 
L 229.543876 198.832836 
L 230.318707 214.525816 
L 231.093539 224.555889 
L 231.868371 229.247499 
L 232.643203 224.57897 
L 233.418035 215.096493 
L 234.192867 222.976173 
L 234.967699 228.341938 
L 235.74253 231.995344 
L 236.517362 231.10583 
L 237.292194 232.13672 
L 238.067026 235.268385 
L 238.841858 235.926736 
L 239.61669 235.636587 
L 240.391522 237.034512 
L 241.166353 241.23175 
L 241.941185 243.027528 
L 242.716017 243.954603 
L 243.490849 237.622538 
L 244.265681 234.348304 
L 245.815345 236.256362 
L 246.590176 236.230742 
L 247.365008 237.496708 
L 248.13984 237.447292 
L 248.914672 240.644895 
L 249.689504 242.707132 
L 250.464336 243.434912 
L 251.239167 244.354681 
L 252.013999 244.445159 
L 252.788831 244.193335 
L 253.563663 242.799588 
L 254.338495 240.740552 
L 255.113327 240.156083 
L 255.888159 242.079917 
L 256.66299 243.123998 
L 258.212654 244.581017 
L 259.762318 244.800253 
L 260.53715 242.428997 
L 262.086813 241.641524 
L 262.861645 242.760998 
L 263.636477 242.686113 
L 264.411309 242.919763 
L 265.186141 243.360601 
L 265.960973 243.609904 
L 266.735804 243.556237 
L 267.510636 241.861581 
L 268.285468 241.368625 
L 269.0603 242.236797 
L 269.835132 242.786016 
L 270.609964 243.607932 
L 271.384796 243.310723 
L 272.159627 242.427534 
L 273.709291 243.221178 
L 274.484123 239.796599 
L 275.258955 239.720756 
L 276.033787 203.807673 
L 276.808619 193.071514 
L 277.58345 213.009769 
L 278.358282 226.752079 
L 279.133114 233.421453 
L 279.907946 237.149839 
L 280.682778 234.482401 
L 281.45761 238.445232 
L 282.232441 240.328993 
L 283.007273 241.874992 
L 283.782105 231.642102 
L 284.556937 227.847696 
L 285.331769 208.362123 
L 286.106601 198.644524 
L 286.881433 217.498091 
L 287.656264 228.88626 
L 288.431096 233.520148 
L 289.205928 236.222639 
L 289.98076 235.519981 
L 290.755592 236.565606 
L 291.530424 236.889361 
L 292.305256 239.828591 
L 293.080087 240.875808 
L 293.854919 242.301992 
L 294.629751 242.960557 
L 295.404583 242.27527 
L 296.179415 244.084056 
L 296.954247 244.871163 
L 297.729079 246.465389 
L 298.50391 245.719802 
L 299.278742 244.734181 
L 300.053574 246.47707 
L 300.828406 244.607738 
L 301.603238 244.023324 
L 302.37807 245.842137 
L 303.152901 248.431884 
L 303.927733 249.442113 
L 304.702565 247.255088 
L 305.477397 240.120512 
L 306.252229 164.243817 
L 307.027061 161.029161 
L 307.801893 186.391323 
L 308.576724 145.011237 
L 309.351556 170.697664 
L 310.126388 203.806903 
L 310.90122 216.372263 
L 311.676052 220.905863 
L 313.225716 227.966766 
L 314.775379 219.661375 
L 315.550211 220.970335 
L 316.325043 212.207267 
L 317.099875 218.005575 
L 317.874707 225.726996 
L 318.649538 232.04323 
L 319.42437 234.442695 
L 320.199202 200.717555 
L 320.974034 185.499995 
L 321.748866 204.393215 
L 322.523698 215.117919 
L 323.29853 214.266749 
L 324.073361 213.811985 
L 324.848193 214.377404 
L 325.623025 218.631675 
L 326.397857 170.45335 
L 327.172689 169.954715 
L 327.947521 91.122585 
L 328.722353 127.559924 
L 329.497184 176.547708 
L 330.272016 201.027916 
L 331.046848 211.417307 
L 331.82168 219.932283 
L 332.596512 224.783159 
L 333.371344 230.499539 
L 334.146175 214.136836 
L 334.921007 224.499654 
L 335.695839 229.089766 
L 337.245503 235.387146 
L 338.020335 237.245835 
L 338.795167 239.985927 
L 339.569998 242.24285 
L 341.119662 243.784652 
L 342.669326 246.370161 
L 343.444158 246.363591 
L 344.21899 236.053131 
L 344.993821 242.971814 
L 345.768653 246.266106 
L 346.543485 248.020783 
L 348.093149 249.933682 
L 348.867981 250.88711 
L 349.642813 250.787408 
L 350.417644 240.246888 
L 351.192476 207.971529 
L 351.967308 191.930589 
L 352.74214 219.812513 
L 353.516972 225.963998 
L 354.291804 235.198032 
L 355.066635 239.306574 
L 356.616299 244.512487 
L 357.391131 245.982165 
L 358.165963 247.718103 
L 358.940795 248.224496 
L 359.715627 249.609683 
L 360.490458 250.363155 
L 361.26529 249.172634 
L 362.040122 250.98184 
L 362.814954 251.499078 
L 364.364618 253.442316 
L 365.13945 254.63607 
L 365.914281 255.180079 
L 366.689113 254.606141 
L 367.463945 254.482903 
L 368.238777 251.929086 
L 369.013609 255.884184 
L 369.788441 257.616 
L 370.563272 253.893607 
L 371.338104 244.203864 
L 372.112936 242.812126 
L 372.887768 243.767578 
L 373.6626 246.256817 
L 374.437432 246.376504 
L 375.212264 249.364383 
L 376.761927 253.910981 
L 377.536759 255.018634 
L 378.311591 256.328235 
L 379.086423 255.779238 
L 379.861255 253.945598 
L 380.636087 253.645974 
L 382.18575 252.654229 
L 382.18575 252.654229 
" clip-path="url(#pa173467be0)" style="fill: none; stroke-dasharray: 3.7,1.6; stroke-dashoffset: 0; stroke: #ff0000"/>
   </g>
   <g id="patch_3">
    <path d="M 41.298478 269.712 
L 41.298478 3.6 
" style="fill: none; stroke: #000000; stroke-width: 0.5; stroke-linejoin: miter; stroke-linecap: square"/>
   </g>
   <g id="patch_4">
    <path d="M 398.418478 269.712 
L 398.418478 3.6 
" style="fill: none; stroke: #000000; stroke-width: 0.5; stroke-linejoin: miter; stroke-linecap: square"/>
   </g>
   <g id="patch_5">
    <path d="M 41.298478 269.712 
L 398.418478 269.712 
" style="fill: none; stroke: #000000; stroke-width: 0.5; stroke-linejoin: miter; stroke-linecap: square"/>
   </g>
   <g id="patch_6">
    <path d="M 41.298478 3.6 
L 398.418478 3.6 
" style="fill: none; stroke: #000000; stroke-width: 0.5; stroke-linejoin: miter; stroke-linecap: square"/>
   </g>
   <g id="legend_1">
    <g id="line2d_127">
     <path d="M 48.498478 13.6 
L 56.498478 13.6 
L 64.498478 13.6 
" style="fill: none; stroke: #000000; stroke-linecap: square"/>
    </g>
    <g id="text_16">
     <!-- spatial rainfall actual -->
     <g transform="translate(70.898478 16.4) scale(0.08 -0.08)">
      <defs>
       <path id="NimbusRomNo9L-Regu-63" d="M 2547 998 
C 2240 550 2010 397 1645 397 
C 1062 397 653 909 653 1645 
C 653 2304 1005 2758 1523 2758 
C 1754 2758 1837 2688 1901 2451 
L 1939 2310 
C 1990 2131 2106 2016 2240 2016 
C 2406 2016 2547 2138 2547 2285 
C 2547 2643 2099 2944 1562 2944 
C 1248 2944 922 2816 659 2586 
C 339 2304 160 1869 160 1363 
C 160 531 666 -64 1376 -64 
C 1664 -64 1920 38 2150 237 
C 2323 390 2445 563 2637 941 
L 2547 998 
z
" transform="scale(0.015625)"/>
       <path id="NimbusRomNo9L-Regu-75" d="M 3066 320 
L 3034 320 
C 2739 320 2669 390 2669 685 
L 2669 2880 
L 1658 2880 
L 1658 2758 
C 2054 2758 2131 2694 2131 2375 
L 2131 875 
C 2131 697 2099 607 2010 537 
C 1837 397 1638 320 1446 320 
C 1197 320 992 537 992 805 
L 992 2880 
L 58 2880 
L 58 2778 
C 365 2778 454 2682 454 2387 
L 454 770 
C 454 263 762 -64 1229 -64 
C 1466 -64 1715 38 1888 211 
L 2163 486 
L 2163 -45 
L 2189 -58 
C 2509 70 2739 141 3066 230 
L 3066 320 
z
" transform="scale(0.015625)"/>
      </defs>
      <use xlink:href="#NimbusRomNo9L-Regu-73" transform="scale(0.996264)"/>
      <use xlink:href="#NimbusRomNo9L-Regu-70" transform="translate(38.753706 0) scale(0.996264)"/>
      <use xlink:href="#NimbusRomNo9L-Regu-61" transform="translate(88.566907 0) scale(0.996264)"/>
      <use xlink:href="#NimbusRomNo9L-Regu-74" transform="translate(132.800475 0) scale(0.996264)"/>
      <use xlink:href="#NimbusRomNo9L-Regu-69" transform="translate(160.495645 0) scale(0.996264)"/>
      <use xlink:href="#NimbusRomNo9L-Regu-61" transform="translate(188.190815 0) scale(0.996264)"/>
      <use xlink:href="#NimbusRomNo9L-Regu-6c" transform="translate(232.424383 0) scale(0.996264)"/>
      <use xlink:href="#NimbusRomNo9L-Regu-72" transform="translate(285.026153 0) scale(0.996264)"/>
      <use xlink:href="#NimbusRomNo9L-Regu-61" transform="translate(318.201383 0) scale(0.996264)"/>
      <use xlink:href="#NimbusRomNo9L-Regu-69" transform="translate(362.434952 0) scale(0.996264)"/>
      <use xlink:href="#NimbusRomNo9L-Regu-6e" transform="translate(390.130121 0) scale(0.996264)"/>
      <use xlink:href="#NimbusRomNo9L-Regu-66" transform="translate(439.943322 0) scale(0.996264)"/>
      <use xlink:href="#NimbusRomNo9L-Regu-61" transform="translate(472.122455 0) scale(0.996264)"/>
      <use xlink:href="#NimbusRomNo9L-Regu-6c" transform="translate(516.356023 0) scale(0.996264)"/>
      <use xlink:href="#NimbusRomNo9L-Regu-6c" transform="translate(544.051193 0) scale(0.996264)"/>
      <use xlink:href="#NimbusRomNo9L-Regu-61" transform="translate(596.652963 0) scale(0.996264)"/>
      <use xlink:href="#NimbusRomNo9L-Regu-63" transform="translate(640.886531 0) scale(0.996264)"/>
      <use xlink:href="#NimbusRomNo9L-Regu-74" transform="translate(685.1201 0) scale(0.996264)"/>
      <use xlink:href="#NimbusRomNo9L-Regu-75" transform="translate(712.81527 0) scale(0.996264)"/>
      <use xlink:href="#NimbusRomNo9L-Regu-61" transform="translate(762.62847 0) scale(0.996264)"/>
      <use xlink:href="#NimbusRomNo9L-Regu-6c" transform="translate(806.862039 0) scale(0.996264)"/>
     </g>
    </g>
    <g id="line2d_128">
     <path d="M 48.498478 24.925463 
L 56.498478 24.925463 
L 64.498478 24.925463 
" style="fill: none; stroke-dasharray: 3.7,1.6; stroke-dashoffset: 0; stroke: #ff0000"/>
    </g>
    <g id="text_17">
     <!-- spatial rainfall predict -->
     <g transform="translate(70.898478 27.725463) scale(0.08 -0.08)">
      <defs>
       <path id="NimbusRomNo9L-Regu-65" d="M 2611 1053 
C 2304 564 2029 378 1619 378 
C 1254 378 979 564 794 930 
C 678 1174 634 1386 621 1779 
L 2592 1779 
C 2541 2193 2477 2377 2317 2581 
C 2125 2811 1830 2944 1498 2944 
C 1178 2944 877 2829 634 2611 
C 333 2349 160 1894 160 1370 
C 160 486 621 -64 1357 -64 
C 1965 -64 2445 315 2714 1008 
L 2611 1053 
z
M 634 1984 
C 704 2479 922 2714 1312 2714 
C 1702 2714 1856 2535 1939 1984 
L 634 1984 
z
" transform="scale(0.015625)"/>
      </defs>
      <use xlink:href="#NimbusRomNo9L-Regu-73" transform="scale(0.996264)"/>
      <use xlink:href="#NimbusRomNo9L-Regu-70" transform="translate(38.753706 0) scale(0.996264)"/>
      <use xlink:href="#NimbusRomNo9L-Regu-61" transform="translate(88.566907 0) scale(0.996264)"/>
      <use xlink:href="#NimbusRomNo9L-Regu-74" transform="translate(132.800475 0) scale(0.996264)"/>
      <use xlink:href="#NimbusRomNo9L-Regu-69" transform="translate(160.495645 0) scale(0.996264)"/>
      <use xlink:href="#NimbusRomNo9L-Regu-61" transform="translate(188.190815 0) scale(0.996264)"/>
      <use xlink:href="#NimbusRomNo9L-Regu-6c" transform="translate(232.424383 0) scale(0.996264)"/>
      <use xlink:href="#NimbusRomNo9L-Regu-72" transform="translate(285.026153 0) scale(0.996264)"/>
      <use xlink:href="#NimbusRomNo9L-Regu-61" transform="translate(318.201383 0) scale(0.996264)"/>
      <use xlink:href="#NimbusRomNo9L-Regu-69" transform="translate(362.434952 0) scale(0.996264)"/>
      <use xlink:href="#NimbusRomNo9L-Regu-6e" transform="translate(390.130121 0) scale(0.996264)"/>
      <use xlink:href="#NimbusRomNo9L-Regu-66" transform="translate(439.943322 0) scale(0.996264)"/>
      <use xlink:href="#NimbusRomNo9L-Regu-61" transform="translate(472.122455 0) scale(0.996264)"/>
      <use xlink:href="#NimbusRomNo9L-Regu-6c" transform="translate(516.356023 0) scale(0.996264)"/>
      <use xlink:href="#NimbusRomNo9L-Regu-6c" transform="translate(544.051193 0) scale(0.996264)"/>
      <use xlink:href="#NimbusRomNo9L-Regu-70" transform="translate(596.652963 0) scale(0.996264)"/>
      <use xlink:href="#NimbusRomNo9L-Regu-72" transform="translate(646.466163 0) scale(0.996264)"/>
      <use xlink:href="#NimbusRomNo9L-Regu-65" transform="translate(679.641393 0) scale(0.996264)"/>
      <use xlink:href="#NimbusRomNo9L-Regu-64" transform="translate(723.874962 0) scale(0.996264)"/>
      <use xlink:href="#NimbusRomNo9L-Regu-69" transform="translate(773.688162 0) scale(0.996264)"/>
      <use xlink:href="#NimbusRomNo9L-Regu-63" transform="translate(801.383332 0) scale(0.996264)"/>
      <use xlink:href="#NimbusRomNo9L-Regu-74" transform="translate(845.6169 0) scale(0.996264)"/>
     </g>
    </g>
   </g>
  </g>
 </g>
 <defs>
  <clipPath id="pa173467be0">
   <rect x="41.298478" y="3.6" width="357.12" height="266.112"/>
  </clipPath>
 </defs>
</svg>
