<?xml version="1.0" encoding="utf-8" standalone="no"?>
<!DOCTYPE svg PUBLIC "-//W3C//DTD SVG 1.1//EN"
  "http://www.w3.org/Graphics/SVG/1.1/DTD/svg11.dtd">
<svg xmlns:xlink="http://www.w3.org/1999/xlink" width="390.063309pt" height="302.199372pt" viewBox="0 0 390.063309 302.199372" xmlns="http://www.w3.org/2000/svg" version="1.1">
 <metadata>
  <rdf:RDF xmlns:dc="http://purl.org/dc/elements/1.1/" xmlns:cc="http://creativecommons.org/ns#" xmlns:rdf="http://www.w3.org/1999/02/22-rdf-syntax-ns#">
   <cc:Work>
    <dc:type rdf:resource="http://purl.org/dc/dcmitype/StillImage"/>
    <dc:date>2024-03-17T16:28:21.288773</dc:date>
    <dc:format>image/svg+xml</dc:format>
    <dc:creator>
     <cc:Agent>
      <dc:title>Matplotlib v3.8.3, https://matplotlib.org/</dc:title>
     </cc:Agent>
    </dc:creator>
   </cc:Work>
  </rdf:RDF>
 </metadata>
 <defs>
  <style type="text/css">*{stroke-linejoin: round; stroke-linecap: butt}</style>
 </defs>
 <g id="figure_1">
  <g id="patch_1">
   <path d="M 0 302.199372 
L 390.063309 302.199372 
L 390.063309 0 
L 0 0 
z
" style="fill: #ffffff"/>
  </g>
  <g id="axes_1">
   <g id="patch_2">
    <path d="M 29.343309 269.712 
L 386.463309 269.712 
L 386.463309 3.6 
L 29.343309 3.6 
z
" style="fill: #ffffff"/>
   </g>
   <g id="matplotlib.axis_1">
    <g id="xtick_1">
     <g id="line2d_1">
      <defs>
       <path id="mc1999a38ec" d="M 0 0 
L 0 -3 
" style="stroke: #000000; stroke-width: 0.5"/>
      </defs>
      <g>
       <use xlink:href="#mc1999a38ec" x="45.576037" y="269.712" style="stroke: #000000; stroke-width: 0.5"/>
      </g>
     </g>
     <g id="line2d_2">
      <defs>
       <path id="mcbe77c7820" d="M 0 0 
L 0 3 
" style="stroke: #000000; stroke-width: 0.5"/>
      </defs>
      <g>
       <use xlink:href="#mcbe77c7820" x="45.576037" y="3.6" style="stroke: #000000; stroke-width: 0.5"/>
      </g>
     </g>
     <g id="text_1">
      <!-- $\mathdefault{0}$ -->
      <g transform="translate(43.583509 278.615656) scale(0.08 -0.08)">
       <defs>
        <path id="NimbusRomNo9L-Regu-30" d="M 1626 4352 
C 1274 4352 1005 4244 768 4020 
C 397 3661 154 2925 154 2176 
C 154 1479 365 730 666 372 
C 902 90 1229 -64 1600 -64 
C 1926 -64 2202 45 2432 269 
C 2803 621 3046 1364 3046 2138 
C 3046 3450 2464 4352 1626 4352 
z
M 1606 4186 
C 2144 4186 2432 3463 2432 2125 
C 2432 788 2150 103 1600 103 
C 1050 103 768 788 768 2119 
C 768 3476 1056 4186 1606 4186 
z
" transform="scale(0.015625)"/>
       </defs>
       <use xlink:href="#NimbusRomNo9L-Regu-30" transform="scale(0.996264)"/>
      </g>
     </g>
    </g>
    <g id="xtick_2">
     <g id="line2d_3">
      <g>
       <use xlink:href="#mc1999a38ec" x="95.988233" y="269.712" style="stroke: #000000; stroke-width: 0.5"/>
      </g>
     </g>
     <g id="line2d_4">
      <g>
       <use xlink:href="#mcbe77c7820" x="95.988233" y="3.6" style="stroke: #000000; stroke-width: 0.5"/>
      </g>
     </g>
     <g id="text_2">
      <!-- $\mathdefault{50}$ -->
      <g transform="translate(92.003177 278.615656) scale(0.08 -0.08)">
       <defs>
        <path id="NimbusRomNo9L-Regu-35" d="M 1158 3776 
L 2413 3776 
C 2515 3776 2541 3789 2560 3834 
L 2803 4403 
L 2746 4448 
C 2650 4314 2586 4282 2451 4282 
L 1114 4282 
L 416 2759 
C 410 2746 410 2740 410 2727 
C 410 2695 435 2676 486 2676 
C 691 2676 947 2631 1210 2547 
C 1946 2309 2285 1910 2285 1274 
C 2285 656 1894 173 1395 173 
C 1267 173 1158 218 966 360 
C 762 508 614 572 480 572 
C 294 572 205 495 205 334 
C 205 90 506 -64 986 -64 
C 1523 -64 1984 110 2304 438 
C 2598 728 2733 1094 2733 1583 
C 2733 2046 2611 2342 2291 2663 
C 2010 2947 1645 3094 890 3229 
L 1158 3776 
z
" transform="scale(0.015625)"/>
       </defs>
       <use xlink:href="#NimbusRomNo9L-Regu-35" transform="scale(0.996264)"/>
       <use xlink:href="#NimbusRomNo9L-Regu-30" transform="translate(49.8132 0) scale(0.996264)"/>
      </g>
     </g>
    </g>
    <g id="xtick_3">
     <g id="line2d_5">
      <g>
       <use xlink:href="#mc1999a38ec" x="146.40043" y="269.712" style="stroke: #000000; stroke-width: 0.5"/>
      </g>
     </g>
     <g id="line2d_6">
      <g>
       <use xlink:href="#mcbe77c7820" x="146.40043" y="3.6" style="stroke: #000000; stroke-width: 0.5"/>
      </g>
     </g>
     <g id="text_3">
      <!-- $\mathdefault{100}$ -->
      <g transform="translate(140.422846 278.615656) scale(0.08 -0.08)">
       <defs>
        <path id="NimbusRomNo9L-Regu-31" d="M 1862 4339 
L 710 3757 
L 710 3667 
C 787 3699 858 3725 883 3738 
C 998 3783 1107 3808 1171 3808 
C 1306 3808 1363 3711 1363 3505 
L 1363 592 
C 1363 379 1312 232 1210 173 
C 1114 116 1024 96 755 96 
L 755 0 
L 2522 0 
L 2522 96 
C 2016 96 1914 160 1914 470 
L 1914 4327 
L 1862 4339 
z
" transform="scale(0.015625)"/>
       </defs>
       <use xlink:href="#NimbusRomNo9L-Regu-31" transform="scale(0.996264)"/>
       <use xlink:href="#NimbusRomNo9L-Regu-30" transform="translate(49.8132 0) scale(0.996264)"/>
       <use xlink:href="#NimbusRomNo9L-Regu-30" transform="translate(99.626401 0) scale(0.996264)"/>
      </g>
     </g>
    </g>
    <g id="xtick_4">
     <g id="line2d_7">
      <g>
       <use xlink:href="#mc1999a38ec" x="196.812626" y="269.712" style="stroke: #000000; stroke-width: 0.5"/>
      </g>
     </g>
     <g id="line2d_8">
      <g>
       <use xlink:href="#mcbe77c7820" x="196.812626" y="3.6" style="stroke: #000000; stroke-width: 0.5"/>
      </g>
     </g>
     <g id="text_4">
      <!-- $\mathdefault{150}$ -->
      <g transform="translate(190.835042 278.615656) scale(0.08 -0.08)">
       <use xlink:href="#NimbusRomNo9L-Regu-31" transform="scale(0.996264)"/>
       <use xlink:href="#NimbusRomNo9L-Regu-35" transform="translate(49.8132 0) scale(0.996264)"/>
       <use xlink:href="#NimbusRomNo9L-Regu-30" transform="translate(99.626401 0) scale(0.996264)"/>
      </g>
     </g>
    </g>
    <g id="xtick_5">
     <g id="line2d_9">
      <g>
       <use xlink:href="#mc1999a38ec" x="247.224823" y="269.712" style="stroke: #000000; stroke-width: 0.5"/>
      </g>
     </g>
     <g id="line2d_10">
      <g>
       <use xlink:href="#mcbe77c7820" x="247.224823" y="3.6" style="stroke: #000000; stroke-width: 0.5"/>
      </g>
     </g>
     <g id="text_5">
      <!-- $\mathdefault{200}$ -->
      <g transform="translate(241.247239 278.615656) scale(0.08 -0.08)">
       <defs>
        <path id="NimbusRomNo9L-Regu-32" d="M 3040 875 
L 2957 907 
C 2720 544 2637 486 2349 486 
L 819 486 
L 1894 1609 
C 2464 2202 2714 2687 2714 3185 
C 2714 3823 2195 4313 1530 4313 
C 1178 4313 845 4173 608 3918 
C 403 3700 307 3496 198 3043 
L 333 3011 
C 589 3636 819 3840 1261 3840 
C 1798 3840 2163 3476 2163 2940 
C 2163 2443 1869 1850 1331 1282 
L 192 77 
L 192 0 
L 2688 0 
L 3040 875 
z
" transform="scale(0.015625)"/>
       </defs>
       <use xlink:href="#NimbusRomNo9L-Regu-32" transform="scale(0.996264)"/>
       <use xlink:href="#NimbusRomNo9L-Regu-30" transform="translate(49.8132 0) scale(0.996264)"/>
       <use xlink:href="#NimbusRomNo9L-Regu-30" transform="translate(99.626401 0) scale(0.996264)"/>
      </g>
     </g>
    </g>
    <g id="xtick_6">
     <g id="line2d_11">
      <g>
       <use xlink:href="#mc1999a38ec" x="297.637019" y="269.712" style="stroke: #000000; stroke-width: 0.5"/>
      </g>
     </g>
     <g id="line2d_12">
      <g>
       <use xlink:href="#mcbe77c7820" x="297.637019" y="3.6" style="stroke: #000000; stroke-width: 0.5"/>
      </g>
     </g>
     <g id="text_6">
      <!-- $\mathdefault{250}$ -->
      <g transform="translate(291.659435 278.615656) scale(0.08 -0.08)">
       <use xlink:href="#NimbusRomNo9L-Regu-32" transform="scale(0.996264)"/>
       <use xlink:href="#NimbusRomNo9L-Regu-35" transform="translate(49.8132 0) scale(0.996264)"/>
       <use xlink:href="#NimbusRomNo9L-Regu-30" transform="translate(99.626401 0) scale(0.996264)"/>
      </g>
     </g>
    </g>
    <g id="xtick_7">
     <g id="line2d_13">
      <g>
       <use xlink:href="#mc1999a38ec" x="348.049216" y="269.712" style="stroke: #000000; stroke-width: 0.5"/>
      </g>
     </g>
     <g id="line2d_14">
      <g>
       <use xlink:href="#mcbe77c7820" x="348.049216" y="3.6" style="stroke: #000000; stroke-width: 0.5"/>
      </g>
     </g>
     <g id="text_7">
      <!-- $\mathdefault{300}$ -->
      <g transform="translate(342.071632 278.615656) scale(0.08 -0.08)">
       <defs>
        <path id="NimbusRomNo9L-Regu-33" d="M 979 2138 
C 1357 2138 1504 2125 1658 2068 
C 2054 1927 2304 1562 2304 1120 
C 2304 583 1939 167 1466 167 
C 1293 167 1165 212 928 365 
C 736 480 627 525 518 525 
C 371 525 275 436 275 301 
C 275 77 550 -64 998 -64 
C 1491 -64 1997 103 2298 365 
C 2598 628 2765 999 2765 1428 
C 2765 1754 2662 2055 2477 2253 
C 2349 2394 2227 2471 1946 2592 
C 2387 2893 2547 3130 2547 3476 
C 2547 3994 2138 4352 1549 4352 
C 1229 4352 947 4244 717 4039 
C 525 3866 429 3699 288 3315 
L 384 3290 
C 646 3757 934 3968 1338 3968 
C 1754 3968 2042 3687 2042 3284 
C 2042 3053 1946 2823 1786 2663 
C 1594 2471 1414 2375 979 2221 
L 979 2138 
z
" transform="scale(0.015625)"/>
       </defs>
       <use xlink:href="#NimbusRomNo9L-Regu-33" transform="scale(0.996264)"/>
       <use xlink:href="#NimbusRomNo9L-Regu-30" transform="translate(49.8132 0) scale(0.996264)"/>
       <use xlink:href="#NimbusRomNo9L-Regu-30" transform="translate(99.626401 0) scale(0.996264)"/>
      </g>
     </g>
    </g>
    <g id="xtick_8">
     <g id="line2d_15">
      <defs>
       <path id="m1a13f47769" d="M 0 0 
L 0 -1.5 
" style="stroke: #000000; stroke-width: 0.5"/>
      </defs>
      <g>
       <use xlink:href="#m1a13f47769" x="35.493597" y="269.712" style="stroke: #000000; stroke-width: 0.5"/>
      </g>
     </g>
     <g id="line2d_16">
      <defs>
       <path id="m256b92ef3c" d="M 0 0 
L 0 1.5 
" style="stroke: #000000; stroke-width: 0.5"/>
      </defs>
      <g>
       <use xlink:href="#m256b92ef3c" x="35.493597" y="3.6" style="stroke: #000000; stroke-width: 0.5"/>
      </g>
     </g>
    </g>
    <g id="xtick_9">
     <g id="line2d_17">
      <g>
       <use xlink:href="#m1a13f47769" x="55.658476" y="269.712" style="stroke: #000000; stroke-width: 0.5"/>
      </g>
     </g>
     <g id="line2d_18">
      <g>
       <use xlink:href="#m256b92ef3c" x="55.658476" y="3.6" style="stroke: #000000; stroke-width: 0.5"/>
      </g>
     </g>
    </g>
    <g id="xtick_10">
     <g id="line2d_19">
      <g>
       <use xlink:href="#m1a13f47769" x="65.740915" y="269.712" style="stroke: #000000; stroke-width: 0.5"/>
      </g>
     </g>
     <g id="line2d_20">
      <g>
       <use xlink:href="#m256b92ef3c" x="65.740915" y="3.6" style="stroke: #000000; stroke-width: 0.5"/>
      </g>
     </g>
    </g>
    <g id="xtick_11">
     <g id="line2d_21">
      <g>
       <use xlink:href="#m1a13f47769" x="75.823355" y="269.712" style="stroke: #000000; stroke-width: 0.5"/>
      </g>
     </g>
     <g id="line2d_22">
      <g>
       <use xlink:href="#m256b92ef3c" x="75.823355" y="3.6" style="stroke: #000000; stroke-width: 0.5"/>
      </g>
     </g>
    </g>
    <g id="xtick_12">
     <g id="line2d_23">
      <g>
       <use xlink:href="#m1a13f47769" x="85.905794" y="269.712" style="stroke: #000000; stroke-width: 0.5"/>
      </g>
     </g>
     <g id="line2d_24">
      <g>
       <use xlink:href="#m256b92ef3c" x="85.905794" y="3.6" style="stroke: #000000; stroke-width: 0.5"/>
      </g>
     </g>
    </g>
    <g id="xtick_13">
     <g id="line2d_25">
      <g>
       <use xlink:href="#m1a13f47769" x="106.070672" y="269.712" style="stroke: #000000; stroke-width: 0.5"/>
      </g>
     </g>
     <g id="line2d_26">
      <g>
       <use xlink:href="#m256b92ef3c" x="106.070672" y="3.6" style="stroke: #000000; stroke-width: 0.5"/>
      </g>
     </g>
    </g>
    <g id="xtick_14">
     <g id="line2d_27">
      <g>
       <use xlink:href="#m1a13f47769" x="116.153112" y="269.712" style="stroke: #000000; stroke-width: 0.5"/>
      </g>
     </g>
     <g id="line2d_28">
      <g>
       <use xlink:href="#m256b92ef3c" x="116.153112" y="3.6" style="stroke: #000000; stroke-width: 0.5"/>
      </g>
     </g>
    </g>
    <g id="xtick_15">
     <g id="line2d_29">
      <g>
       <use xlink:href="#m1a13f47769" x="126.235551" y="269.712" style="stroke: #000000; stroke-width: 0.5"/>
      </g>
     </g>
     <g id="line2d_30">
      <g>
       <use xlink:href="#m256b92ef3c" x="126.235551" y="3.6" style="stroke: #000000; stroke-width: 0.5"/>
      </g>
     </g>
    </g>
    <g id="xtick_16">
     <g id="line2d_31">
      <g>
       <use xlink:href="#m1a13f47769" x="136.31799" y="269.712" style="stroke: #000000; stroke-width: 0.5"/>
      </g>
     </g>
     <g id="line2d_32">
      <g>
       <use xlink:href="#m256b92ef3c" x="136.31799" y="3.6" style="stroke: #000000; stroke-width: 0.5"/>
      </g>
     </g>
    </g>
    <g id="xtick_17">
     <g id="line2d_33">
      <g>
       <use xlink:href="#m1a13f47769" x="156.482869" y="269.712" style="stroke: #000000; stroke-width: 0.5"/>
      </g>
     </g>
     <g id="line2d_34">
      <g>
       <use xlink:href="#m256b92ef3c" x="156.482869" y="3.6" style="stroke: #000000; stroke-width: 0.5"/>
      </g>
     </g>
    </g>
    <g id="xtick_18">
     <g id="line2d_35">
      <g>
       <use xlink:href="#m1a13f47769" x="166.565308" y="269.712" style="stroke: #000000; stroke-width: 0.5"/>
      </g>
     </g>
     <g id="line2d_36">
      <g>
       <use xlink:href="#m256b92ef3c" x="166.565308" y="3.6" style="stroke: #000000; stroke-width: 0.5"/>
      </g>
     </g>
    </g>
    <g id="xtick_19">
     <g id="line2d_37">
      <g>
       <use xlink:href="#m1a13f47769" x="176.647748" y="269.712" style="stroke: #000000; stroke-width: 0.5"/>
      </g>
     </g>
     <g id="line2d_38">
      <g>
       <use xlink:href="#m256b92ef3c" x="176.647748" y="3.6" style="stroke: #000000; stroke-width: 0.5"/>
      </g>
     </g>
    </g>
    <g id="xtick_20">
     <g id="line2d_39">
      <g>
       <use xlink:href="#m1a13f47769" x="186.730187" y="269.712" style="stroke: #000000; stroke-width: 0.5"/>
      </g>
     </g>
     <g id="line2d_40">
      <g>
       <use xlink:href="#m256b92ef3c" x="186.730187" y="3.6" style="stroke: #000000; stroke-width: 0.5"/>
      </g>
     </g>
    </g>
    <g id="xtick_21">
     <g id="line2d_41">
      <g>
       <use xlink:href="#m1a13f47769" x="206.895065" y="269.712" style="stroke: #000000; stroke-width: 0.5"/>
      </g>
     </g>
     <g id="line2d_42">
      <g>
       <use xlink:href="#m256b92ef3c" x="206.895065" y="3.6" style="stroke: #000000; stroke-width: 0.5"/>
      </g>
     </g>
    </g>
    <g id="xtick_22">
     <g id="line2d_43">
      <g>
       <use xlink:href="#m1a13f47769" x="216.977505" y="269.712" style="stroke: #000000; stroke-width: 0.5"/>
      </g>
     </g>
     <g id="line2d_44">
      <g>
       <use xlink:href="#m256b92ef3c" x="216.977505" y="3.6" style="stroke: #000000; stroke-width: 0.5"/>
      </g>
     </g>
    </g>
    <g id="xtick_23">
     <g id="line2d_45">
      <g>
       <use xlink:href="#m1a13f47769" x="227.059944" y="269.712" style="stroke: #000000; stroke-width: 0.5"/>
      </g>
     </g>
     <g id="line2d_46">
      <g>
       <use xlink:href="#m256b92ef3c" x="227.059944" y="3.6" style="stroke: #000000; stroke-width: 0.5"/>
      </g>
     </g>
    </g>
    <g id="xtick_24">
     <g id="line2d_47">
      <g>
       <use xlink:href="#m1a13f47769" x="237.142383" y="269.712" style="stroke: #000000; stroke-width: 0.5"/>
      </g>
     </g>
     <g id="line2d_48">
      <g>
       <use xlink:href="#m256b92ef3c" x="237.142383" y="3.6" style="stroke: #000000; stroke-width: 0.5"/>
      </g>
     </g>
    </g>
    <g id="xtick_25">
     <g id="line2d_49">
      <g>
       <use xlink:href="#m1a13f47769" x="257.307262" y="269.712" style="stroke: #000000; stroke-width: 0.5"/>
      </g>
     </g>
     <g id="line2d_50">
      <g>
       <use xlink:href="#m256b92ef3c" x="257.307262" y="3.6" style="stroke: #000000; stroke-width: 0.5"/>
      </g>
     </g>
    </g>
    <g id="xtick_26">
     <g id="line2d_51">
      <g>
       <use xlink:href="#m1a13f47769" x="267.389701" y="269.712" style="stroke: #000000; stroke-width: 0.5"/>
      </g>
     </g>
     <g id="line2d_52">
      <g>
       <use xlink:href="#m256b92ef3c" x="267.389701" y="3.6" style="stroke: #000000; stroke-width: 0.5"/>
      </g>
     </g>
    </g>
    <g id="xtick_27">
     <g id="line2d_53">
      <g>
       <use xlink:href="#m1a13f47769" x="277.472141" y="269.712" style="stroke: #000000; stroke-width: 0.5"/>
      </g>
     </g>
     <g id="line2d_54">
      <g>
       <use xlink:href="#m256b92ef3c" x="277.472141" y="3.6" style="stroke: #000000; stroke-width: 0.5"/>
      </g>
     </g>
    </g>
    <g id="xtick_28">
     <g id="line2d_55">
      <g>
       <use xlink:href="#m1a13f47769" x="287.55458" y="269.712" style="stroke: #000000; stroke-width: 0.5"/>
      </g>
     </g>
     <g id="line2d_56">
      <g>
       <use xlink:href="#m256b92ef3c" x="287.55458" y="3.6" style="stroke: #000000; stroke-width: 0.5"/>
      </g>
     </g>
    </g>
    <g id="xtick_29">
     <g id="line2d_57">
      <g>
       <use xlink:href="#m1a13f47769" x="307.719458" y="269.712" style="stroke: #000000; stroke-width: 0.5"/>
      </g>
     </g>
     <g id="line2d_58">
      <g>
       <use xlink:href="#m256b92ef3c" x="307.719458" y="3.6" style="stroke: #000000; stroke-width: 0.5"/>
      </g>
     </g>
    </g>
    <g id="xtick_30">
     <g id="line2d_59">
      <g>
       <use xlink:href="#m1a13f47769" x="317.801898" y="269.712" style="stroke: #000000; stroke-width: 0.5"/>
      </g>
     </g>
     <g id="line2d_60">
      <g>
       <use xlink:href="#m256b92ef3c" x="317.801898" y="3.6" style="stroke: #000000; stroke-width: 0.5"/>
      </g>
     </g>
    </g>
    <g id="xtick_31">
     <g id="line2d_61">
      <g>
       <use xlink:href="#m1a13f47769" x="327.884337" y="269.712" style="stroke: #000000; stroke-width: 0.5"/>
      </g>
     </g>
     <g id="line2d_62">
      <g>
       <use xlink:href="#m256b92ef3c" x="327.884337" y="3.6" style="stroke: #000000; stroke-width: 0.5"/>
      </g>
     </g>
    </g>
    <g id="xtick_32">
     <g id="line2d_63">
      <g>
       <use xlink:href="#m1a13f47769" x="337.966776" y="269.712" style="stroke: #000000; stroke-width: 0.5"/>
      </g>
     </g>
     <g id="line2d_64">
      <g>
       <use xlink:href="#m256b92ef3c" x="337.966776" y="3.6" style="stroke: #000000; stroke-width: 0.5"/>
      </g>
     </g>
    </g>
    <g id="xtick_33">
     <g id="line2d_65">
      <g>
       <use xlink:href="#m1a13f47769" x="358.131655" y="269.712" style="stroke: #000000; stroke-width: 0.5"/>
      </g>
     </g>
     <g id="line2d_66">
      <g>
       <use xlink:href="#m256b92ef3c" x="358.131655" y="3.6" style="stroke: #000000; stroke-width: 0.5"/>
      </g>
     </g>
    </g>
    <g id="xtick_34">
     <g id="line2d_67">
      <g>
       <use xlink:href="#m1a13f47769" x="368.214094" y="269.712" style="stroke: #000000; stroke-width: 0.5"/>
      </g>
     </g>
     <g id="line2d_68">
      <g>
       <use xlink:href="#m256b92ef3c" x="368.214094" y="3.6" style="stroke: #000000; stroke-width: 0.5"/>
      </g>
     </g>
    </g>
    <g id="xtick_35">
     <g id="line2d_69">
      <g>
       <use xlink:href="#m1a13f47769" x="378.296534" y="269.712" style="stroke: #000000; stroke-width: 0.5"/>
      </g>
     </g>
     <g id="line2d_70">
      <g>
       <use xlink:href="#m256b92ef3c" x="378.296534" y="3.6" style="stroke: #000000; stroke-width: 0.5"/>
      </g>
     </g>
    </g>
    <g id="text_8">
     <!-- days -->
     <g transform="translate(193.294214 295.148446) scale(0.16 -0.16)">
      <defs>
       <path id="NimbusRomNo9L-Regu-64" d="M 2202 -64 
L 3142 269 
L 3142 365 
C 3027 365 3014 365 2995 365 
C 2765 365 2714 435 2714 731 
L 2714 4364 
L 2682 4377 
C 2374 4268 2150 4204 1741 4096 
L 1741 3994 
C 1792 4000 1830 4000 1882 4000 
C 2118 4000 2176 3936 2176 3672 
L 2176 2669 
C 1933 2874 1760 2944 1504 2944 
C 768 2944 173 2221 173 1312 
C 173 493 653 -64 1357 -64 
C 1715 -64 1958 64 2176 365 
L 2176 -45 
L 2202 -64 
z
M 2176 653 
C 2176 608 2131 531 2067 461 
C 1952 333 1792 269 1606 269 
C 1075 269 723 781 723 1568 
C 723 2291 1037 2765 1523 2765 
C 1862 2765 2176 2464 2176 2125 
L 2176 653 
z
" transform="scale(0.015625)"/>
       <path id="NimbusRomNo9L-Regu-61" d="M 2829 423 
C 2720 333 2643 301 2547 301 
C 2400 301 2355 390 2355 672 
L 2355 1920 
C 2355 2253 2323 2438 2227 2592 
C 2086 2822 1811 2944 1434 2944 
C 832 2944 358 2630 358 2227 
C 358 2080 486 1952 634 1952 
C 787 1952 922 2080 922 2221 
C 922 2246 915 2278 909 2323 
C 896 2381 890 2432 890 2477 
C 890 2650 1094 2790 1350 2790 
C 1664 2790 1837 2605 1837 2259 
L 1837 1869 
C 851 1472 742 1421 467 1178 
C 326 1050 237 832 237 621 
C 237 218 518 -64 909 -64 
C 1190 -64 1453 70 1843 403 
C 1875 70 1990 -64 2253 -64 
C 2470 -64 2605 13 2829 256 
L 2829 423 
z
M 1837 783 
C 1837 584 1805 526 1670 449 
C 1517 359 1338 301 1203 301 
C 979 301 800 520 800 796 
L 800 822 
C 800 1201 1062 1433 1837 1715 
L 1837 783 
z
" transform="scale(0.015625)"/>
       <path id="NimbusRomNo9L-Regu-79" d="M 3040 2880 
L 2176 2880 
L 2176 2784 
C 2381 2784 2483 2726 2483 2623 
C 2483 2597 2477 2559 2458 2514 
L 1837 742 
L 1101 2377 
C 1062 2468 1037 2552 1037 2622 
C 1037 2739 1133 2784 1408 2784 
L 1408 2880 
L 90 2880 
L 90 2790 
C 256 2765 365 2694 416 2585 
L 1146 1005 
L 1165 953 
L 1261 761 
C 1440 440 1542 209 1542 112 
C 1542 16 1395 -389 1286 -582 
C 1197 -749 1056 -871 966 -871 
C 928 -871 870 -858 806 -826 
C 685 -781 576 -755 467 -755 
C 320 -755 192 -883 192 -1037 
C 192 -1248 397 -1408 666 -1408 
C 1094 -1408 1402 -1049 1747 -124 
L 2733 2495 
C 2816 2701 2886 2765 3040 2784 
L 3040 2880 
z
" transform="scale(0.015625)"/>
       <path id="NimbusRomNo9L-Regu-73" d="M 2016 2010 
L 1990 2880 
L 1920 2880 
L 1907 2867 
C 1850 2822 1843 2816 1818 2816 
C 1779 2816 1715 2829 1645 2861 
C 1504 2915 1363 2944 1197 2944 
C 691 2944 326 2616 326 2154 
C 326 1796 531 1539 1075 1231 
L 1446 1020 
C 1670 892 1779 737 1779 539 
C 1779 256 1574 77 1248 77 
C 1030 77 832 159 710 298 
C 576 455 518 600 435 960 
L 333 960 
L 333 -39 
L 416 -39 
C 461 33 486 48 563 48 
C 621 48 710 35 858 -2 
C 1037 -39 1210 -64 1325 -64 
C 1818 -64 2227 308 2227 757 
C 2227 1077 2074 1289 1690 1520 
L 998 1930 
C 819 2033 723 2194 723 2367 
C 723 2624 922 2803 1216 2803 
C 1581 2803 1773 2583 1920 2010 
L 2016 2010 
z
" transform="scale(0.015625)"/>
      </defs>
      <use xlink:href="#NimbusRomNo9L-Regu-64" transform="scale(0.996264)"/>
      <use xlink:href="#NimbusRomNo9L-Regu-61" transform="translate(49.8132 0) scale(0.996264)"/>
      <use xlink:href="#NimbusRomNo9L-Regu-79" transform="translate(94.046769 0) scale(0.996264)"/>
      <use xlink:href="#NimbusRomNo9L-Regu-73" transform="translate(143.85997 0) scale(0.996264)"/>
     </g>
    </g>
   </g>
   <g id="matplotlib.axis_2">
    <g id="ytick_1">
     <g id="line2d_71">
      <defs>
       <path id="m03f8f1b208" d="M 0 0 
L 3 0 
" style="stroke: #000000; stroke-width: 0.5"/>
      </defs>
      <g>
       <use xlink:href="#m03f8f1b208" x="29.343309" y="255.362155" style="stroke: #000000; stroke-width: 0.5"/>
      </g>
     </g>
     <g id="line2d_72">
      <defs>
       <path id="ma8853fcc39" d="M 0 0 
L -3 0 
" style="stroke: #000000; stroke-width: 0.5"/>
      </defs>
      <g>
       <use xlink:href="#ma8853fcc39" x="386.463309" y="255.362155" style="stroke: #000000; stroke-width: 0.5"/>
      </g>
     </g>
     <g id="text_9">
      <!-- $\mathdefault{0}$ -->
      <g transform="translate(21.858253 258.063983) scale(0.08 -0.08)">
       <use xlink:href="#NimbusRomNo9L-Regu-30" transform="scale(0.996264)"/>
      </g>
     </g>
    </g>
    <g id="ytick_2">
     <g id="line2d_73">
      <g>
       <use xlink:href="#m03f8f1b208" x="29.343309" y="212.872071" style="stroke: #000000; stroke-width: 0.5"/>
      </g>
     </g>
     <g id="line2d_74">
      <g>
       <use xlink:href="#ma8853fcc39" x="386.463309" y="212.872071" style="stroke: #000000; stroke-width: 0.5"/>
      </g>
     </g>
     <g id="text_10">
      <!-- $\mathdefault{1}$ -->
      <g transform="translate(21.858253 215.573899) scale(0.08 -0.08)">
       <use xlink:href="#NimbusRomNo9L-Regu-31" transform="scale(0.996264)"/>
      </g>
     </g>
    </g>
    <g id="ytick_3">
     <g id="line2d_75">
      <g>
       <use xlink:href="#m03f8f1b208" x="29.343309" y="170.381986" style="stroke: #000000; stroke-width: 0.5"/>
      </g>
     </g>
     <g id="line2d_76">
      <g>
       <use xlink:href="#ma8853fcc39" x="386.463309" y="170.381986" style="stroke: #000000; stroke-width: 0.5"/>
      </g>
     </g>
     <g id="text_11">
      <!-- $\mathdefault{2}$ -->
      <g transform="translate(21.858253 173.083814) scale(0.08 -0.08)">
       <use xlink:href="#NimbusRomNo9L-Regu-32" transform="scale(0.996264)"/>
      </g>
     </g>
    </g>
    <g id="ytick_4">
     <g id="line2d_77">
      <g>
       <use xlink:href="#m03f8f1b208" x="29.343309" y="127.891902" style="stroke: #000000; stroke-width: 0.5"/>
      </g>
     </g>
     <g id="line2d_78">
      <g>
       <use xlink:href="#ma8853fcc39" x="386.463309" y="127.891902" style="stroke: #000000; stroke-width: 0.5"/>
      </g>
     </g>
     <g id="text_12">
      <!-- $\mathdefault{3}$ -->
      <g transform="translate(21.858253 130.59373) scale(0.08 -0.08)">
       <use xlink:href="#NimbusRomNo9L-Regu-33" transform="scale(0.996264)"/>
      </g>
     </g>
    </g>
    <g id="ytick_5">
     <g id="line2d_79">
      <g>
       <use xlink:href="#m03f8f1b208" x="29.343309" y="85.401817" style="stroke: #000000; stroke-width: 0.5"/>
      </g>
     </g>
     <g id="line2d_80">
      <g>
       <use xlink:href="#ma8853fcc39" x="386.463309" y="85.401817" style="stroke: #000000; stroke-width: 0.5"/>
      </g>
     </g>
     <g id="text_13">
      <!-- $\mathdefault{4}$ -->
      <g transform="translate(21.858253 88.103645) scale(0.08 -0.08)">
       <defs>
        <path id="NimbusRomNo9L-Regu-34" d="M 3021 1497 
L 2368 1497 
L 2368 4352 
L 2086 4352 
L 77 1497 
L 77 1088 
L 1875 1088 
L 1875 32 
L 2368 32 
L 2368 1088 
L 3021 1088 
L 3021 1497 
z
M 1869 1497 
L 333 1497 
L 1869 3698 
L 1869 1497 
z
" transform="scale(0.015625)"/>
       </defs>
       <use xlink:href="#NimbusRomNo9L-Regu-34" transform="scale(0.996264)"/>
      </g>
     </g>
    </g>
    <g id="ytick_6">
     <g id="line2d_81">
      <g>
       <use xlink:href="#m03f8f1b208" x="29.343309" y="42.911733" style="stroke: #000000; stroke-width: 0.5"/>
      </g>
     </g>
     <g id="line2d_82">
      <g>
       <use xlink:href="#ma8853fcc39" x="386.463309" y="42.911733" style="stroke: #000000; stroke-width: 0.5"/>
      </g>
     </g>
     <g id="text_14">
      <!-- $\mathdefault{5}$ -->
      <g transform="translate(21.858253 45.613561) scale(0.08 -0.08)">
       <use xlink:href="#NimbusRomNo9L-Regu-35" transform="scale(0.996264)"/>
      </g>
     </g>
    </g>
    <g id="ytick_7">
     <g id="line2d_83">
      <defs>
       <path id="mbe1515dae3" d="M 0 0 
L 1.5 0 
" style="stroke: #000000; stroke-width: 0.5"/>
      </defs>
      <g>
       <use xlink:href="#mbe1515dae3" x="29.343309" y="263.860172" style="stroke: #000000; stroke-width: 0.5"/>
      </g>
     </g>
     <g id="line2d_84">
      <defs>
       <path id="m4729f46c5c" d="M 0 0 
L -1.5 0 
" style="stroke: #000000; stroke-width: 0.5"/>
      </defs>
      <g>
       <use xlink:href="#m4729f46c5c" x="386.463309" y="263.860172" style="stroke: #000000; stroke-width: 0.5"/>
      </g>
     </g>
    </g>
    <g id="ytick_8">
     <g id="line2d_85">
      <g>
       <use xlink:href="#mbe1515dae3" x="29.343309" y="246.864138" style="stroke: #000000; stroke-width: 0.5"/>
      </g>
     </g>
     <g id="line2d_86">
      <g>
       <use xlink:href="#m4729f46c5c" x="386.463309" y="246.864138" style="stroke: #000000; stroke-width: 0.5"/>
      </g>
     </g>
    </g>
    <g id="ytick_9">
     <g id="line2d_87">
      <g>
       <use xlink:href="#mbe1515dae3" x="29.343309" y="238.366121" style="stroke: #000000; stroke-width: 0.5"/>
      </g>
     </g>
     <g id="line2d_88">
      <g>
       <use xlink:href="#m4729f46c5c" x="386.463309" y="238.366121" style="stroke: #000000; stroke-width: 0.5"/>
      </g>
     </g>
    </g>
    <g id="ytick_10">
     <g id="line2d_89">
      <g>
       <use xlink:href="#mbe1515dae3" x="29.343309" y="229.868104" style="stroke: #000000; stroke-width: 0.5"/>
      </g>
     </g>
     <g id="line2d_90">
      <g>
       <use xlink:href="#m4729f46c5c" x="386.463309" y="229.868104" style="stroke: #000000; stroke-width: 0.5"/>
      </g>
     </g>
    </g>
    <g id="ytick_11">
     <g id="line2d_91">
      <g>
       <use xlink:href="#mbe1515dae3" x="29.343309" y="221.370087" style="stroke: #000000; stroke-width: 0.5"/>
      </g>
     </g>
     <g id="line2d_92">
      <g>
       <use xlink:href="#m4729f46c5c" x="386.463309" y="221.370087" style="stroke: #000000; stroke-width: 0.5"/>
      </g>
     </g>
    </g>
    <g id="ytick_12">
     <g id="line2d_93">
      <g>
       <use xlink:href="#mbe1515dae3" x="29.343309" y="204.374054" style="stroke: #000000; stroke-width: 0.5"/>
      </g>
     </g>
     <g id="line2d_94">
      <g>
       <use xlink:href="#m4729f46c5c" x="386.463309" y="204.374054" style="stroke: #000000; stroke-width: 0.5"/>
      </g>
     </g>
    </g>
    <g id="ytick_13">
     <g id="line2d_95">
      <g>
       <use xlink:href="#mbe1515dae3" x="29.343309" y="195.876037" style="stroke: #000000; stroke-width: 0.5"/>
      </g>
     </g>
     <g id="line2d_96">
      <g>
       <use xlink:href="#m4729f46c5c" x="386.463309" y="195.876037" style="stroke: #000000; stroke-width: 0.5"/>
      </g>
     </g>
    </g>
    <g id="ytick_14">
     <g id="line2d_97">
      <g>
       <use xlink:href="#mbe1515dae3" x="29.343309" y="187.37802" style="stroke: #000000; stroke-width: 0.5"/>
      </g>
     </g>
     <g id="line2d_98">
      <g>
       <use xlink:href="#m4729f46c5c" x="386.463309" y="187.37802" style="stroke: #000000; stroke-width: 0.5"/>
      </g>
     </g>
    </g>
    <g id="ytick_15">
     <g id="line2d_99">
      <g>
       <use xlink:href="#mbe1515dae3" x="29.343309" y="178.880003" style="stroke: #000000; stroke-width: 0.5"/>
      </g>
     </g>
     <g id="line2d_100">
      <g>
       <use xlink:href="#m4729f46c5c" x="386.463309" y="178.880003" style="stroke: #000000; stroke-width: 0.5"/>
      </g>
     </g>
    </g>
    <g id="ytick_16">
     <g id="line2d_101">
      <g>
       <use xlink:href="#mbe1515dae3" x="29.343309" y="161.883969" style="stroke: #000000; stroke-width: 0.5"/>
      </g>
     </g>
     <g id="line2d_102">
      <g>
       <use xlink:href="#m4729f46c5c" x="386.463309" y="161.883969" style="stroke: #000000; stroke-width: 0.5"/>
      </g>
     </g>
    </g>
    <g id="ytick_17">
     <g id="line2d_103">
      <g>
       <use xlink:href="#mbe1515dae3" x="29.343309" y="153.385952" style="stroke: #000000; stroke-width: 0.5"/>
      </g>
     </g>
     <g id="line2d_104">
      <g>
       <use xlink:href="#m4729f46c5c" x="386.463309" y="153.385952" style="stroke: #000000; stroke-width: 0.5"/>
      </g>
     </g>
    </g>
    <g id="ytick_18">
     <g id="line2d_105">
      <g>
       <use xlink:href="#mbe1515dae3" x="29.343309" y="144.887935" style="stroke: #000000; stroke-width: 0.5"/>
      </g>
     </g>
     <g id="line2d_106">
      <g>
       <use xlink:href="#m4729f46c5c" x="386.463309" y="144.887935" style="stroke: #000000; stroke-width: 0.5"/>
      </g>
     </g>
    </g>
    <g id="ytick_19">
     <g id="line2d_107">
      <g>
       <use xlink:href="#mbe1515dae3" x="29.343309" y="136.389919" style="stroke: #000000; stroke-width: 0.5"/>
      </g>
     </g>
     <g id="line2d_108">
      <g>
       <use xlink:href="#m4729f46c5c" x="386.463309" y="136.389919" style="stroke: #000000; stroke-width: 0.5"/>
      </g>
     </g>
    </g>
    <g id="ytick_20">
     <g id="line2d_109">
      <g>
       <use xlink:href="#mbe1515dae3" x="29.343309" y="119.393885" style="stroke: #000000; stroke-width: 0.5"/>
      </g>
     </g>
     <g id="line2d_110">
      <g>
       <use xlink:href="#m4729f46c5c" x="386.463309" y="119.393885" style="stroke: #000000; stroke-width: 0.5"/>
      </g>
     </g>
    </g>
    <g id="ytick_21">
     <g id="line2d_111">
      <g>
       <use xlink:href="#mbe1515dae3" x="29.343309" y="110.895868" style="stroke: #000000; stroke-width: 0.5"/>
      </g>
     </g>
     <g id="line2d_112">
      <g>
       <use xlink:href="#m4729f46c5c" x="386.463309" y="110.895868" style="stroke: #000000; stroke-width: 0.5"/>
      </g>
     </g>
    </g>
    <g id="ytick_22">
     <g id="line2d_113">
      <g>
       <use xlink:href="#mbe1515dae3" x="29.343309" y="102.397851" style="stroke: #000000; stroke-width: 0.5"/>
      </g>
     </g>
     <g id="line2d_114">
      <g>
       <use xlink:href="#m4729f46c5c" x="386.463309" y="102.397851" style="stroke: #000000; stroke-width: 0.5"/>
      </g>
     </g>
    </g>
    <g id="ytick_23">
     <g id="line2d_115">
      <g>
       <use xlink:href="#mbe1515dae3" x="29.343309" y="93.899834" style="stroke: #000000; stroke-width: 0.5"/>
      </g>
     </g>
     <g id="line2d_116">
      <g>
       <use xlink:href="#m4729f46c5c" x="386.463309" y="93.899834" style="stroke: #000000; stroke-width: 0.5"/>
      </g>
     </g>
    </g>
    <g id="ytick_24">
     <g id="line2d_117">
      <g>
       <use xlink:href="#mbe1515dae3" x="29.343309" y="76.9038" style="stroke: #000000; stroke-width: 0.5"/>
      </g>
     </g>
     <g id="line2d_118">
      <g>
       <use xlink:href="#m4729f46c5c" x="386.463309" y="76.9038" style="stroke: #000000; stroke-width: 0.5"/>
      </g>
     </g>
    </g>
    <g id="ytick_25">
     <g id="line2d_119">
      <g>
       <use xlink:href="#mbe1515dae3" x="29.343309" y="68.405783" style="stroke: #000000; stroke-width: 0.5"/>
      </g>
     </g>
     <g id="line2d_120">
      <g>
       <use xlink:href="#m4729f46c5c" x="386.463309" y="68.405783" style="stroke: #000000; stroke-width: 0.5"/>
      </g>
     </g>
    </g>
    <g id="ytick_26">
     <g id="line2d_121">
      <g>
       <use xlink:href="#mbe1515dae3" x="29.343309" y="59.907767" style="stroke: #000000; stroke-width: 0.5"/>
      </g>
     </g>
     <g id="line2d_122">
      <g>
       <use xlink:href="#m4729f46c5c" x="386.463309" y="59.907767" style="stroke: #000000; stroke-width: 0.5"/>
      </g>
     </g>
    </g>
    <g id="ytick_27">
     <g id="line2d_123">
      <g>
       <use xlink:href="#mbe1515dae3" x="29.343309" y="51.40975" style="stroke: #000000; stroke-width: 0.5"/>
      </g>
     </g>
     <g id="line2d_124">
      <g>
       <use xlink:href="#m4729f46c5c" x="386.463309" y="51.40975" style="stroke: #000000; stroke-width: 0.5"/>
      </g>
     </g>
    </g>
    <g id="ytick_28">
     <g id="line2d_125">
      <g>
       <use xlink:href="#mbe1515dae3" x="29.343309" y="34.413716" style="stroke: #000000; stroke-width: 0.5"/>
      </g>
     </g>
     <g id="line2d_126">
      <g>
       <use xlink:href="#m4729f46c5c" x="386.463309" y="34.413716" style="stroke: #000000; stroke-width: 0.5"/>
      </g>
     </g>
    </g>
    <g id="ytick_29">
     <g id="line2d_127">
      <g>
       <use xlink:href="#mbe1515dae3" x="29.343309" y="25.915699" style="stroke: #000000; stroke-width: 0.5"/>
      </g>
     </g>
     <g id="line2d_128">
      <g>
       <use xlink:href="#m4729f46c5c" x="386.463309" y="25.915699" style="stroke: #000000; stroke-width: 0.5"/>
      </g>
     </g>
    </g>
    <g id="ytick_30">
     <g id="line2d_129">
      <g>
       <use xlink:href="#mbe1515dae3" x="29.343309" y="17.417682" style="stroke: #000000; stroke-width: 0.5"/>
      </g>
     </g>
     <g id="line2d_130">
      <g>
       <use xlink:href="#m4729f46c5c" x="386.463309" y="17.417682" style="stroke: #000000; stroke-width: 0.5"/>
      </g>
     </g>
    </g>
    <g id="ytick_31">
     <g id="line2d_131">
      <g>
       <use xlink:href="#mbe1515dae3" x="29.343309" y="8.919665" style="stroke: #000000; stroke-width: 0.5"/>
      </g>
     </g>
     <g id="line2d_132">
      <g>
       <use xlink:href="#m4729f46c5c" x="386.463309" y="8.919665" style="stroke: #000000; stroke-width: 0.5"/>
      </g>
     </g>
    </g>
    <g id="text_15">
     <!-- spatial rainfall -->
     <g transform="translate(14.407327 182.395716) rotate(-90) scale(0.16 -0.16)">
      <defs>
       <path id="NimbusRomNo9L-Regu-70" d="M 58 2516 
C 115 2522 160 2522 218 2522 
C 435 2522 480 2458 480 2155 
L 480 -855 
C 480 -1189 410 -1261 32 -1299 
L 32 -1408 
L 1581 -1408 
L 1581 -1293 
C 1101 -1293 1018 -1222 1018 -816 
L 1018 199 
C 1242 -13 1395 -77 1664 -77 
C 2419 -77 3008 643 3008 1575 
C 3008 2372 2560 2944 1939 2944 
C 1581 2944 1299 2784 1018 2438 
L 1018 2931 
L 979 2944 
C 634 2810 410 2726 58 2618 
L 58 2516 
z
M 1018 2136 
C 1018 2329 1376 2560 1670 2560 
C 2144 2560 2458 2071 2458 1324 
C 2458 611 2144 128 1683 128 
C 1382 128 1018 359 1018 552 
L 1018 2136 
z
" transform="scale(0.015625)"/>
       <path id="NimbusRomNo9L-Regu-74" d="M 1632 2880 
L 986 2880 
L 986 3622 
C 986 3686 979 3706 941 3706 
C 896 3648 858 3590 813 3526 
C 570 3174 294 2867 192 2841 
C 122 2794 83 2748 83 2715 
C 83 2695 90 2682 109 2682 
L 448 2682 
L 448 751 
C 448 212 640 -64 1018 -64 
C 1331 -64 1574 90 1786 423 
L 1702 493 
C 1568 333 1459 269 1318 269 
C 1082 269 986 443 986 847 
L 986 2682 
L 1632 2682 
L 1632 2880 
z
" transform="scale(0.015625)"/>
       <path id="NimbusRomNo9L-Regu-69" d="M 1120 2929 
L 128 2579 
L 128 2484 
L 179 2490 
C 256 2502 339 2509 397 2509 
C 550 2509 608 2406 608 2125 
L 608 640 
C 608 179 544 109 102 109 
L 102 0 
L 1619 0 
L 1619 96 
C 1197 128 1146 191 1146 650 
L 1146 2910 
L 1120 2929 
z
M 819 4352 
C 646 4352 499 4205 499 4026 
C 499 3847 640 3699 819 3699 
C 1005 3699 1152 3840 1152 4026 
C 1152 4205 1005 4352 819 4352 
z
" transform="scale(0.015625)"/>
       <path id="NimbusRomNo9L-Regu-6c" d="M 122 4000 
L 160 4000 
C 230 4000 307 4000 358 4000 
C 563 4000 627 3910 627 3610 
L 627 557 
C 627 211 538 128 134 96 
L 134 0 
L 1645 0 
L 1645 109 
C 1242 109 1165 173 1165 528 
L 1165 4371 
L 1139 4384 
C 806 4275 563 4211 122 4103 
L 122 4000 
z
" transform="scale(0.015625)"/>
       <path id="NimbusRomNo9L-Regu-72" d="M 45 2496 
C 134 2515 192 2522 269 2522 
C 429 2522 486 2419 486 2138 
L 486 538 
C 486 218 442 173 32 96 
L 32 0 
L 1568 0 
L 1568 102 
C 1133 102 1024 199 1024 565 
L 1024 2013 
C 1024 2219 1299 2541 1472 2541 
C 1510 2541 1568 2509 1638 2445 
C 1741 2355 1811 2317 1894 2317 
C 2048 2317 2144 2426 2144 2605 
C 2144 2816 2010 2944 1792 2944 
C 1523 2944 1338 2797 1024 2343 
L 1024 2931 
L 992 2944 
C 653 2803 422 2721 45 2599 
L 45 2496 
z
" transform="scale(0.015625)"/>
       <path id="NimbusRomNo9L-Regu-6e" d="M 102 2579 
C 141 2598 205 2605 275 2605 
C 454 2605 512 2509 512 2195 
L 512 608 
C 512 243 442 154 115 128 
L 115 32 
L 1472 32 
L 1472 128 
C 1146 154 1050 230 1050 461 
L 1050 2259 
C 1357 2547 1498 2624 1709 2624 
C 2022 2624 2176 2426 2176 2003 
L 2176 666 
C 2176 262 2093 154 1773 128 
L 1773 32 
L 3104 32 
L 3104 128 
C 2790 160 2714 237 2714 550 
L 2714 2016 
C 2714 2618 2432 2976 1958 2976 
C 1664 2976 1466 2867 1030 2458 
L 1030 2963 
L 986 2976 
C 672 2861 454 2790 102 2688 
L 102 2579 
z
" transform="scale(0.015625)"/>
       <path id="NimbusRomNo9L-Regu-66" d="M 1978 2880 
L 1190 2880 
L 1190 3611 
C 1190 3978 1312 4173 1555 4173 
C 1690 4173 1779 4110 1894 3927 
C 1997 3763 2074 3700 2182 3700 
C 2330 3700 2451 3814 2451 3959 
C 2451 4188 2170 4352 1786 4352 
C 1389 4352 1050 4181 883 3891 
C 717 3613 666 3385 659 2880 
L 134 2880 
L 134 2675 
L 659 2675 
L 659 656 
C 659 185 589 109 128 109 
L 128 0 
L 1792 0 
L 1792 109 
C 1267 109 1197 180 1197 661 
L 1197 2675 
L 1978 2675 
L 1978 2880 
z
" transform="scale(0.015625)"/>
      </defs>
      <use xlink:href="#NimbusRomNo9L-Regu-73" transform="scale(0.996264)"/>
      <use xlink:href="#NimbusRomNo9L-Regu-70" transform="translate(38.753706 0) scale(0.996264)"/>
      <use xlink:href="#NimbusRomNo9L-Regu-61" transform="translate(88.566907 0) scale(0.996264)"/>
      <use xlink:href="#NimbusRomNo9L-Regu-74" transform="translate(132.800475 0) scale(0.996264)"/>
      <use xlink:href="#NimbusRomNo9L-Regu-69" transform="translate(160.495645 0) scale(0.996264)"/>
      <use xlink:href="#NimbusRomNo9L-Regu-61" transform="translate(188.190815 0) scale(0.996264)"/>
      <use xlink:href="#NimbusRomNo9L-Regu-6c" transform="translate(232.424383 0) scale(0.996264)"/>
      <use xlink:href="#NimbusRomNo9L-Regu-72" transform="translate(285.026153 0) scale(0.996264)"/>
      <use xlink:href="#NimbusRomNo9L-Regu-61" transform="translate(318.201383 0) scale(0.996264)"/>
      <use xlink:href="#NimbusRomNo9L-Regu-69" transform="translate(362.434952 0) scale(0.996264)"/>
      <use xlink:href="#NimbusRomNo9L-Regu-6e" transform="translate(390.130121 0) scale(0.996264)"/>
      <use xlink:href="#NimbusRomNo9L-Regu-66" transform="translate(439.943322 0) scale(0.996264)"/>
      <use xlink:href="#NimbusRomNo9L-Regu-61" transform="translate(472.122455 0) scale(0.996264)"/>
      <use xlink:href="#NimbusRomNo9L-Regu-6c" transform="translate(516.356023 0) scale(0.996264)"/>
      <use xlink:href="#NimbusRomNo9L-Regu-6c" transform="translate(544.051193 0) scale(0.996264)"/>
     </g>
    </g>
   </g>
   <g id="line2d_133">
    <path d="M 45.576037 129.598149 
L 46.584281 137.243044 
L 47.592525 141.065487 
L 48.600768 198.213821 
L 49.609012 226.787991 
L 50.617256 241.075072 
L 51.6255 248.218612 
L 52.633744 251.790387 
L 53.641988 253.57627 
L 54.650232 254.469211 
L 55.658476 254.915679 
L 57.674964 255.250536 
L 58.683208 253.181842 
L 59.691452 252.14749 
L 60.699696 251.630322 
L 61.70794 228.002188 
L 62.716183 241.682173 
L 63.724427 248.52216 
L 64.732671 251.942161 
L 65.740915 253.652157 
L 66.749159 254.507155 
L 67.757403 254.934659 
L 69.773891 255.255282 
L 70.782135 210.69413 
L 71.790379 188.413556 
L 72.798623 221.887853 
L 73.806867 238.625008 
L 74.815111 246.99358 
L 75.823355 251.177866 
L 76.831598 253.270012 
L 77.839842 203.327984 
L 78.848086 159.236431 
L 79.85633 152.062185 
L 80.864574 169.720105 
L 81.872818 182.798069 
L 82.881062 199.959577 
L 83.889306 185.170782 
L 84.89755 177.776381 
L 85.905794 193.199721 
L 86.914038 175.417339 
L 87.922282 151.654618 
L 88.930526 120.65273 
L 89.93877 105.151771 
L 90.947014 103.774813 
L 91.955257 115.833352 
L 92.963501 102.742097 
L 93.971745 102.569971 
L 94.979989 119.479941 
L 95.988233 127.934936 
L 96.996477 132.162423 
L 98.004721 185.264275 
L 99.012965 141.70656 
L 100.021209 132.674729 
L 101.029453 92.04224 
L 102.037697 139.710127 
L 103.045941 161.419568 
L 104.054185 187.145819 
L 105.062429 189.386426 
L 106.070672 179.884204 
L 107.078916 175.133095 
L 108.08716 172.757541 
L 109.095404 143.951209 
L 110.103648 82.808935 
L 111.111892 84.105386 
L 112.120136 103.874132 
L 113.12838 160.497608 
L 114.136624 163.315295 
L 115.144868 145.603593 
L 116.153112 85.759644 
L 117.161356 55.837669 
L 118.1696 68.495231 
L 119.177844 74.824012 
L 120.186087 148.097056 
L 121.194331 169.862042 
L 122.202575 146.752465 
L 123.210819 137.322183 
L 124.219063 172.972625 
L 125.227307 173.80181 
L 126.235551 159.344867 
L 127.243795 169.112441 
L 128.252039 184.618739 
L 129.260283 196.620903 
L 130.268527 172.878923 
L 131.276771 161.007939 
L 132.285015 155.072441 
L 133.293259 139.357669 
L 134.301503 154.869823 
L 135.309746 190.244463 
L 136.31799 207.931776 
L 137.326234 191.281388 
L 138.334478 197.82772 
L 139.342722 164.984313 
L 140.350966 178.305671 
L 141.35921 178.592838 
L 142.367454 193.607947 
L 143.375698 201.115509 
L 144.383942 187.87325 
L 145.392186 138.762041 
L 146.40043 118.455441 
L 147.408674 104.053136 
L 148.416918 141.466571 
L 149.425161 164.422297 
L 150.433405 107.91603 
L 151.441649 79.662891 
L 152.449893 139.893964 
L 153.458137 165.760496 
L 154.466381 178.693762 
L 155.474625 214.903454 
L 156.482869 230.883798 
L 157.491113 230.375949 
L 158.499357 236.495537 
L 159.507601 235.306326 
L 160.515845 213.466676 
L 161.524089 228.040906 
L 162.532333 186.464422 
L 163.540576 167.800683 
L 164.54882 160.593321 
L 165.557064 156.989634 
L 166.565308 155.187796 
L 167.573552 139.415342 
L 168.581796 140.027138 
L 169.59004 184.947618 
L 170.598284 203.158856 
L 171.606528 227.136001 
L 172.614772 230.626556 
L 173.623016 209.002289 
L 174.63126 217.310691 
L 175.639504 206.593365 
L 176.647748 220.355241 
L 177.655991 227.236176 
L 178.664235 215.805112 
L 179.672479 165.475 
L 180.680723 140.309939 
L 181.688967 163.843982 
L 182.697211 154.365956 
L 183.705455 187.868023 
L 184.713699 204.619056 
L 185.721943 219.368087 
L 186.730187 180.003505 
L 187.738431 177.31725 
L 188.746675 175.974123 
L 191.771407 97.254486 
L 192.77965 118.946705 
L 194.796138 198.950997 
L 195.804382 191.040006 
L 196.812626 153.092439 
L 197.82087 138.367673 
L 198.829114 131.005275 
L 199.837358 127.324091 
L 200.845602 125.483494 
L 201.853846 124.563196 
L 202.86209 81.612957 
L 203.870334 53.764316 
L 204.878578 39.840005 
L 205.886822 90.23948 
L 206.895065 96.318668 
L 207.903309 112.105285 
L 208.911553 109.376067 
L 209.919797 137.754529 
L 210.928041 128.574206 
L 211.936285 115.486031 
L 212.944529 108.941938 
L 213.952773 82.300347 
L 214.961017 60.481538 
L 215.969261 34.700597 
L 216.977505 43.05518 
L 217.985749 36.609939 
L 218.993993 24.8893 
L 220.002237 23.277995 
L 221.01048 22.472343 
L 222.018724 15.696 
L 223.026968 29.303876 
L 224.035212 36.107794 
L 225.043456 45.88327 
L 226.0517 57.144535 
L 227.059944 52.152626 
L 228.068188 64.528217 
L 229.076432 85.587538 
L 230.084676 76.996664 
L 231.09292 87.572757 
L 232.101164 133.226381 
L 233.109408 156.053188 
L 234.117652 152.595066 
L 235.125896 118.998442 
L 236.134139 102.200129 
L 237.142383 93.800973 
L 238.150627 83.227889 
L 239.158871 69.443317 
L 240.167115 41.305999 
L 241.175359 67.602923 
L 242.183603 48.883821 
L 243.191847 20.40371 
L 245.208335 52.156253 
L 246.216579 75.152541 
L 247.224823 116.393757 
L 248.233067 137.01436 
L 249.241311 138.826642 
L 250.249554 141.857291 
L 251.257798 156.119633 
L 252.266042 197.24288 
L 253.274286 213.555489 
L 254.28253 232.334317 
L 255.290774 241.723733 
L 256.299018 214.550875 
L 257.307262 226.458498 
L 258.315506 213.291772 
L 259.32375 206.708411 
L 260.331994 205.541234 
L 261.340238 207.082147 
L 262.348482 212.101611 
L 263.356726 186.992789 
L 264.364969 172.313879 
L 265.373213 167.098928 
L 266.381457 172.989461 
L 267.389701 186.557252 
L 268.397945 180.594124 
L 269.406189 149.994008 
L 270.414433 134.693946 
L 271.422677 127.043914 
L 272.430921 135.965932 
L 273.439165 146.800442 
L 274.447409 169.213735 
L 275.455653 161.299847 
L 276.463897 138.222363 
L 277.472141 143.679653 
L 278.480384 142.159289 
L 279.488628 143.523614 
L 280.496872 135.707758 
L 281.505116 138.173341 
L 282.51336 139.406133 
L 283.521604 148.520548 
L 284.529848 142.455239 
L 285.538092 156.418613 
L 286.546336 161.275797 
L 287.55458 187.073934 
L 288.562824 193.599488 
L 289.571068 190.488753 
L 290.579312 201.680412 
L 291.587556 190.280209 
L 292.5958 188.829116 
L 293.604043 188.10357 
L 294.612287 221.732863 
L 295.620531 191.808414 
L 296.628775 153.476646 
L 297.637019 151.3068 
L 299.653507 195.356251 
L 300.661751 197.740649 
L 301.669995 205.30636 
L 302.678239 211.21372 
L 303.686483 186.548844 
L 304.694727 178.465417 
L 305.702971 174.423702 
L 306.711215 172.402844 
L 307.719458 199.010969 
L 308.727702 195.319001 
L 309.735946 167.978958 
L 310.74419 162.80696 
L 311.752434 172.967985 
L 312.760678 180.173002 
L 313.768922 175.277494 
L 314.777166 162.207219 
L 315.78541 159.921086 
L 316.793654 169.40055 
L 317.801898 174.140273 
L 318.810142 176.510139 
L 319.818386 186.193088 
L 320.82663 191.034561 
L 321.834873 193.455302 
L 322.843117 201.039181 
L 323.851361 217.578147 
L 324.859605 230.096638 
L 325.867849 215.110839 
L 326.876093 203.368936 
L 327.884337 205.995999 
L 328.892581 207.30953 
L 329.900825 216.464314 
L 330.909069 197.672157 
L 331.917313 207.396621 
L 332.925557 225.005876 
L 333.933801 229.561493 
L 334.942045 225.465788 
L 335.950288 223.417942 
L 336.958532 213.895998 
L 337.966776 209.135028 
L 338.97502 206.75454 
L 339.983264 205.564301 
L 340.991508 213.46719 
L 341.999752 223.792155 
L 343.007996 207.709591 
L 344.01624 197.543805 
L 345.024484 205.207938 
L 346.032728 217.538021 
L 347.040972 223.703063 
L 348.049216 231.034589 
L 349.05746 232.575852 
L 350.065704 233.346484 
L 351.073947 233.7318 
L 352.082191 238.173464 
L 353.090435 221.273762 
L 354.098679 210.699403 
L 355.106923 192.665199 
L 356.115167 187.897107 
L 357.123411 185.513058 
L 358.131655 201.317069 
L 359.139899 221.9661 
L 360.148143 217.419084 
L 361.156387 206.647562 
L 362.164631 201.261803 
L 363.172875 228.311976 
L 364.181119 241.837067 
L 365.189362 248.599607 
L 366.197606 251.980885 
L 367.20585 253.671521 
L 368.214094 254.516834 
L 369.222338 254.939501 
L 370.230582 240.279296 
L 370.230582 240.279296 
" clip-path="url(#p18484e1044)" style="fill: none; stroke: #000000; stroke-linecap: square"/>
   </g>
   <g id="line2d_134">
    <path d="M 45.576037 152.932156 
L 46.584281 132.834881 
L 47.592525 160.066012 
L 48.600768 168.30382 
L 50.617256 209.883403 
L 51.6255 225.628361 
L 52.633744 239.258377 
L 53.641988 256.937621 
L 54.650232 257.616 
L 55.658476 250.400412 
L 56.66672 250.741752 
L 57.674964 248.390302 
L 58.683208 243.93059 
L 59.691452 241.140408 
L 60.699696 241.013271 
L 61.70794 242.506567 
L 62.716183 226.91031 
L 63.724427 236.307703 
L 64.732671 243.664717 
L 65.740915 246.351803 
L 67.757403 249.344877 
L 68.765647 249.416803 
L 69.773891 250.022942 
L 70.782135 254.866841 
L 71.790379 221.155707 
L 72.798623 197.143415 
L 73.806867 215.778885 
L 74.815111 230.509195 
L 75.823355 239.842128 
L 76.831598 246.199061 
L 77.839842 249.470788 
L 79.85633 171.680225 
L 80.864574 158.031528 
L 81.872818 182.359396 
L 82.881062 184.169485 
L 83.889306 208.275506 
L 84.89755 189.701736 
L 85.905794 177.736321 
L 86.914038 186.180202 
L 87.922282 172.592323 
L 88.930526 151.670827 
L 89.93877 123.881712 
L 90.947014 107.248374 
L 91.955257 103.501028 
L 92.963501 112.081883 
L 93.971745 103.481203 
L 94.979989 102.428358 
L 95.988233 119.47365 
L 96.996477 129.927955 
L 98.004721 134.919418 
L 99.012965 173.439759 
L 100.021209 145.115631 
L 101.029453 134.598568 
L 102.037697 105.196223 
L 103.045941 134.17855 
L 104.054185 155.057509 
L 105.062429 183.117035 
L 106.070672 194.436317 
L 107.078916 180.507002 
L 108.08716 171.416708 
L 109.095404 167.411695 
L 110.103648 144.601481 
L 111.111892 93.040118 
L 112.120136 88.748302 
L 113.12838 103.277054 
L 114.136624 147.972411 
L 115.144868 157.275221 
L 116.153112 145.039085 
L 117.161356 94.925005 
L 118.1696 63.861919 
L 119.177844 67.751131 
L 120.186087 73.029893 
L 121.194331 132.310337 
L 122.202575 159.937143 
L 123.210819 148.331899 
L 124.219063 166.899936 
L 125.227307 173.53848 
L 126.235551 167.651431 
L 127.243795 153.847703 
L 128.252039 172.215563 
L 129.260283 183.008863 
L 130.268527 189.596861 
L 131.276771 171.230723 
L 132.285015 159.050578 
L 133.293259 153.036803 
L 134.301503 141.024712 
L 135.309746 173.011434 
L 136.31799 186.937371 
L 137.326234 219.869898 
L 138.334478 196.27698 
L 139.342722 186.893486 
L 140.350966 156.786134 
L 141.35921 162.919834 
L 142.367454 172.9175 
L 143.375698 185.752795 
L 144.383942 194.659586 
L 145.392186 184.955586 
L 146.40043 141.925661 
L 147.408674 131.972052 
L 148.416918 108.368262 
L 149.425161 136.070478 
L 150.433405 152.945366 
L 151.441649 114.195212 
L 152.449893 87.728695 
L 153.458137 154.573001 
L 154.466381 193.35731 
L 155.474625 193.94645 
L 156.482869 204.771225 
L 157.491113 211.821505 
L 158.499357 210.514893 
L 159.507601 215.20743 
L 160.515845 222.875529 
L 161.524089 218.129906 
L 162.532333 218.370666 
L 164.54882 168.576066 
L 165.557064 154.809263 
L 166.565308 150.830052 
L 167.573552 148.533171 
L 168.581796 169.161422 
L 169.59004 149.507515 
L 170.598284 177.495586 
L 171.606528 213.259714 
L 172.614772 226.118764 
L 173.623016 216.078662 
L 174.63126 213.330318 
L 175.639504 237.167746 
L 176.647748 247.719309 
L 177.655991 239.610359 
L 178.664235 233.02154 
L 179.672479 227.593354 
L 180.680723 201.299224 
L 181.688967 180.591591 
L 182.697211 219.361426 
L 183.705455 194.253402 
L 184.713699 188.494949 
L 185.721943 189.325016 
L 186.730187 207.429358 
L 187.738431 181.428126 
L 188.746675 169.096121 
L 189.754919 164.452415 
L 190.763163 145.253354 
L 192.77965 115.622953 
L 193.787894 119.890912 
L 194.796138 145.297381 
L 195.804382 182.688417 
L 196.812626 182.89295 
L 197.82087 160.282053 
L 198.829114 156.652656 
L 199.837358 154.504601 
L 201.853846 141.953601 
L 202.86209 136.388371 
L 203.870334 103.076482 
L 204.878578 63.430586 
L 205.886822 46.830505 
L 206.895065 76.884459 
L 207.903309 83.784576 
L 208.911553 100.482779 
L 209.919797 103.896348 
L 210.928041 128.313327 
L 211.936285 137.305205 
L 212.944529 120.687923 
L 213.952773 110.897454 
L 216.977505 42.341977 
L 218.993993 59.060239 
L 220.002237 58.34651 
L 221.01048 48.114659 
L 222.018724 39.156242 
L 223.026968 26.749368 
L 224.035212 30.981414 
L 225.043456 35.781595 
L 226.0517 44.228951 
L 227.059944 54.133124 
L 228.068188 53.296574 
L 229.076432 70.41521 
L 230.084676 90.576884 
L 231.09292 81.93711 
L 232.101164 99.62144 
L 233.109408 124.741228 
L 234.117652 144.850082 
L 235.125896 146.35286 
L 236.134139 123.311176 
L 237.142383 107.403227 
L 238.150627 98.051416 
L 239.158871 86.467173 
L 240.167115 72.903911 
L 241.175359 50.066123 
L 242.183603 67.521353 
L 243.191847 56.414536 
L 244.200091 33.642616 
L 245.208335 40.085243 
L 246.216579 52.836956 
L 247.224823 92.897785 
L 248.233067 116.461358 
L 249.241311 132.856033 
L 250.249554 134.980626 
L 251.257798 137.978969 
L 252.266042 152.256953 
L 253.274286 200.725022 
L 254.28253 222.898165 
L 255.290774 239.471602 
L 256.299018 235.668225 
L 257.307262 207.247876 
L 258.315506 207.980569 
L 259.32375 198.389361 
L 260.331994 194.603672 
L 261.340238 197.918109 
L 262.348482 200.594648 
L 263.356726 205.768758 
L 264.364969 186.583231 
L 265.373213 171.79712 
L 266.381457 165.177136 
L 267.389701 169.059115 
L 268.397945 180.969816 
L 269.406189 179.03731 
L 270.414433 155.532221 
L 271.422677 139.704616 
L 272.430921 130.127069 
L 273.439165 135.101766 
L 274.447409 154.071231 
L 275.455653 168.951752 
L 276.463897 161.557849 
L 277.472141 141.911053 
L 278.480384 143.010447 
L 279.488628 141.823972 
L 280.496872 143.346585 
L 281.505116 138.050682 
L 283.521604 140.748232 
L 284.529848 148.399348 
L 285.538092 144.711427 
L 286.546336 155.309969 
L 287.55458 170.995292 
L 288.562824 192.401575 
L 289.571068 192.360355 
L 290.579312 188.323649 
L 291.587556 196.744767 
L 292.5958 189.924919 
L 293.604043 188.470904 
L 294.612287 188.169089 
L 295.620531 214.305067 
L 296.628775 196.176876 
L 297.637019 163.680031 
L 298.645263 156.066449 
L 299.653507 171.527844 
L 300.661751 190.676931 
L 301.669995 196.486902 
L 302.678239 203.871071 
L 303.686483 210.200353 
L 304.694727 192.489234 
L 305.702971 185.415811 
L 306.711215 180.696654 
L 307.719458 177.652344 
L 308.727702 194.857109 
L 309.735946 194.510978 
L 310.74419 174.111664 
L 311.752434 166.843195 
L 312.760678 173.158776 
L 313.768922 180.744996 
L 314.777166 177.718506 
L 315.78541 167.219723 
L 316.793654 163.406763 
L 317.801898 170.02341 
L 318.810142 174.857091 
L 319.818386 177.73822 
L 320.82663 185.996766 
L 321.834873 191.23533 
L 322.843117 194.004867 
L 323.851361 199.893603 
L 324.859605 213.036442 
L 325.867849 224.592241 
L 326.876093 217.809693 
L 327.884337 207.666536 
L 328.892581 210.027477 
L 329.900825 211.418127 
L 330.909069 217.836225 
L 331.917313 205.54367 
L 332.925557 211.466074 
L 333.933801 227.459775 
L 334.942045 227.575373 
L 335.950288 223.771206 
L 336.958532 221.174661 
L 337.966776 213.783849 
L 338.97502 209.499738 
L 339.983264 207.39848 
L 340.991508 206.428912 
L 341.999752 212.745096 
L 343.007996 221.42626 
L 345.024484 201.061803 
L 346.032728 204.740459 
L 347.040972 214.627934 
L 349.05746 228.600937 
L 350.065704 231.505948 
L 351.073947 232.581469 
L 352.082191 233.068003 
L 353.090435 235.743256 
L 355.106923 214.424275 
L 356.115167 198.208634 
L 357.123411 191.311795 
L 358.131655 189.283998 
L 359.139899 200.236887 
L 360.148143 217.111555 
L 361.156387 216.206336 
L 362.164631 208.557502 
L 363.172875 203.065788 
L 364.181119 222.792404 
L 365.189362 235.631133 
L 366.197606 243.580523 
L 367.20585 247.770488 
L 368.214094 250.619016 
L 369.222338 251.897917 
L 370.230582 252.267383 
L 370.230582 252.267383 
" clip-path="url(#p18484e1044)" style="fill: none; stroke-dasharray: 3.7,1.6; stroke-dashoffset: 0; stroke: #ff0000"/>
   </g>
   <g id="patch_3">
    <path d="M 29.343309 269.712 
L 29.343309 3.6 
" style="fill: none; stroke: #000000; stroke-width: 0.5; stroke-linejoin: miter; stroke-linecap: square"/>
   </g>
   <g id="patch_4">
    <path d="M 386.463309 269.712 
L 386.463309 3.6 
" style="fill: none; stroke: #000000; stroke-width: 0.5; stroke-linejoin: miter; stroke-linecap: square"/>
   </g>
   <g id="patch_5">
    <path d="M 29.343309 269.712 
L 386.463309 269.712 
" style="fill: none; stroke: #000000; stroke-width: 0.5; stroke-linejoin: miter; stroke-linecap: square"/>
   </g>
   <g id="patch_6">
    <path d="M 29.343309 3.6 
L 386.463309 3.6 
" style="fill: none; stroke: #000000; stroke-width: 0.5; stroke-linejoin: miter; stroke-linecap: square"/>
   </g>
   <g id="legend_1">
    <g id="line2d_135">
     <path d="M 272.707869 13.6 
L 280.707869 13.6 
L 288.707869 13.6 
" style="fill: none; stroke: #000000; stroke-linecap: square"/>
    </g>
    <g id="text_16">
     <!-- spatial evaporation actual -->
     <g transform="translate(295.107869 16.4) scale(0.08 -0.08)">
      <defs>
       <path id="NimbusRomNo9L-Regu-65" d="M 2611 1053 
C 2304 564 2029 378 1619 378 
C 1254 378 979 564 794 930 
C 678 1174 634 1386 621 1779 
L 2592 1779 
C 2541 2193 2477 2377 2317 2581 
C 2125 2811 1830 2944 1498 2944 
C 1178 2944 877 2829 634 2611 
C 333 2349 160 1894 160 1370 
C 160 486 621 -64 1357 -64 
C 1965 -64 2445 315 2714 1008 
L 2611 1053 
z
M 634 1984 
C 704 2479 922 2714 1312 2714 
C 1702 2714 1856 2535 1939 1984 
L 634 1984 
z
" transform="scale(0.015625)"/>
       <path id="NimbusRomNo9L-Regu-76" d="M 3053 2854 
L 2163 2854 
L 2163 2758 
C 2368 2739 2464 2675 2464 2552 
C 2464 2488 2451 2424 2426 2359 
L 1792 695 
L 1139 2340 
C 1101 2431 1082 2520 1082 2578 
C 1082 2694 1152 2739 1376 2758 
L 1376 2854 
L 122 2854 
L 122 2752 
C 365 2752 410 2688 704 2024 
L 1472 175 
C 1485 137 1504 91 1523 40 
C 1562 -76 1600 -128 1638 -128 
C 1677 -128 1722 -44 1818 193 
L 2637 2257 
C 2822 2694 2861 2739 3053 2758 
L 3053 2854 
z
" transform="scale(0.015625)"/>
       <path id="NimbusRomNo9L-Regu-6f" d="M 1600 2944 
C 768 2944 186 2330 186 1446 
C 186 582 781 -64 1587 -64 
C 2394 -64 3008 614 3008 1498 
C 3008 2336 2419 2944 1600 2944 
z
M 1517 2765 
C 2054 2765 2432 2150 2432 1274 
C 2432 550 2144 115 1664 115 
C 1414 115 1178 269 1043 525 
C 864 858 762 1306 762 1760 
C 762 2368 1062 2765 1517 2765 
z
" transform="scale(0.015625)"/>
       <path id="NimbusRomNo9L-Regu-63" d="M 2547 998 
C 2240 550 2010 397 1645 397 
C 1062 397 653 909 653 1645 
C 653 2304 1005 2758 1523 2758 
C 1754 2758 1837 2688 1901 2451 
L 1939 2310 
C 1990 2131 2106 2016 2240 2016 
C 2406 2016 2547 2138 2547 2285 
C 2547 2643 2099 2944 1562 2944 
C 1248 2944 922 2816 659 2586 
C 339 2304 160 1869 160 1363 
C 160 531 666 -64 1376 -64 
C 1664 -64 1920 38 2150 237 
C 2323 390 2445 563 2637 941 
L 2547 998 
z
" transform="scale(0.015625)"/>
       <path id="NimbusRomNo9L-Regu-75" d="M 3066 320 
L 3034 320 
C 2739 320 2669 390 2669 685 
L 2669 2880 
L 1658 2880 
L 1658 2758 
C 2054 2758 2131 2694 2131 2375 
L 2131 875 
C 2131 697 2099 607 2010 537 
C 1837 397 1638 320 1446 320 
C 1197 320 992 537 992 805 
L 992 2880 
L 58 2880 
L 58 2778 
C 365 2778 454 2682 454 2387 
L 454 770 
C 454 263 762 -64 1229 -64 
C 1466 -64 1715 38 1888 211 
L 2163 486 
L 2163 -45 
L 2189 -58 
C 2509 70 2739 141 3066 230 
L 3066 320 
z
" transform="scale(0.015625)"/>
      </defs>
      <use xlink:href="#NimbusRomNo9L-Regu-73" transform="scale(0.996264)"/>
      <use xlink:href="#NimbusRomNo9L-Regu-70" transform="translate(38.753706 0) scale(0.996264)"/>
      <use xlink:href="#NimbusRomNo9L-Regu-61" transform="translate(88.566907 0) scale(0.996264)"/>
      <use xlink:href="#NimbusRomNo9L-Regu-74" transform="translate(132.800475 0) scale(0.996264)"/>
      <use xlink:href="#NimbusRomNo9L-Regu-69" transform="translate(160.495645 0) scale(0.996264)"/>
      <use xlink:href="#NimbusRomNo9L-Regu-61" transform="translate(188.190815 0) scale(0.996264)"/>
      <use xlink:href="#NimbusRomNo9L-Regu-6c" transform="translate(232.424383 0) scale(0.996264)"/>
      <use xlink:href="#NimbusRomNo9L-Regu-65" transform="translate(285.026153 0) scale(0.996264)"/>
      <use xlink:href="#NimbusRomNo9L-Regu-76" transform="translate(326.769092 0) scale(0.996264)"/>
      <use xlink:href="#NimbusRomNo9L-Regu-61" transform="translate(374.091663 0) scale(0.996264)"/>
      <use xlink:href="#NimbusRomNo9L-Regu-70" transform="translate(418.325232 0) scale(0.996264)"/>
      <use xlink:href="#NimbusRomNo9L-Regu-6f" transform="translate(468.138432 0) scale(0.996264)"/>
      <use xlink:href="#NimbusRomNo9L-Regu-72" transform="translate(517.951633 0) scale(0.996264)"/>
      <use xlink:href="#NimbusRomNo9L-Regu-61" transform="translate(551.126863 0) scale(0.996264)"/>
      <use xlink:href="#NimbusRomNo9L-Regu-74" transform="translate(595.360431 0) scale(0.996264)"/>
      <use xlink:href="#NimbusRomNo9L-Regu-69" transform="translate(623.055601 0) scale(0.996264)"/>
      <use xlink:href="#NimbusRomNo9L-Regu-6f" transform="translate(650.75077 0) scale(0.996264)"/>
      <use xlink:href="#NimbusRomNo9L-Regu-6e" transform="translate(700.563971 0) scale(0.996264)"/>
      <use xlink:href="#NimbusRomNo9L-Regu-61" transform="translate(775.283772 0) scale(0.996264)"/>
      <use xlink:href="#NimbusRomNo9L-Regu-63" transform="translate(819.51734 0) scale(0.996264)"/>
      <use xlink:href="#NimbusRomNo9L-Regu-74" transform="translate(863.750909 0) scale(0.996264)"/>
      <use xlink:href="#NimbusRomNo9L-Regu-75" transform="translate(891.446079 0) scale(0.996264)"/>
      <use xlink:href="#NimbusRomNo9L-Regu-61" transform="translate(941.259279 0) scale(0.996264)"/>
      <use xlink:href="#NimbusRomNo9L-Regu-6c" transform="translate(985.492848 0) scale(0.996264)"/>
     </g>
    </g>
    <g id="line2d_136">
     <path d="M 272.707869 24.925463 
L 280.707869 24.925463 
L 288.707869 24.925463 
" style="fill: none; stroke-dasharray: 3.7,1.6; stroke-dashoffset: 0; stroke: #ff0000"/>
    </g>
    <g id="text_17">
     <!-- spatial evaporation predict -->
     <g transform="translate(295.107869 27.725463) scale(0.08 -0.08)">
      <use xlink:href="#NimbusRomNo9L-Regu-73" transform="scale(0.996264)"/>
      <use xlink:href="#NimbusRomNo9L-Regu-70" transform="translate(38.753706 0) scale(0.996264)"/>
      <use xlink:href="#NimbusRomNo9L-Regu-61" transform="translate(88.566907 0) scale(0.996264)"/>
      <use xlink:href="#NimbusRomNo9L-Regu-74" transform="translate(132.800475 0) scale(0.996264)"/>
      <use xlink:href="#NimbusRomNo9L-Regu-69" transform="translate(160.495645 0) scale(0.996264)"/>
      <use xlink:href="#NimbusRomNo9L-Regu-61" transform="translate(188.190815 0) scale(0.996264)"/>
      <use xlink:href="#NimbusRomNo9L-Regu-6c" transform="translate(232.424383 0) scale(0.996264)"/>
      <use xlink:href="#NimbusRomNo9L-Regu-65" transform="translate(285.026153 0) scale(0.996264)"/>
      <use xlink:href="#NimbusRomNo9L-Regu-76" transform="translate(326.769092 0) scale(0.996264)"/>
      <use xlink:href="#NimbusRomNo9L-Regu-61" transform="translate(374.091663 0) scale(0.996264)"/>
      <use xlink:href="#NimbusRomNo9L-Regu-70" transform="translate(418.325232 0) scale(0.996264)"/>
      <use xlink:href="#NimbusRomNo9L-Regu-6f" transform="translate(468.138432 0) scale(0.996264)"/>
      <use xlink:href="#NimbusRomNo9L-Regu-72" transform="translate(517.951633 0) scale(0.996264)"/>
      <use xlink:href="#NimbusRomNo9L-Regu-61" transform="translate(551.126863 0) scale(0.996264)"/>
      <use xlink:href="#NimbusRomNo9L-Regu-74" transform="translate(595.360431 0) scale(0.996264)"/>
      <use xlink:href="#NimbusRomNo9L-Regu-69" transform="translate(623.055601 0) scale(0.996264)"/>
      <use xlink:href="#NimbusRomNo9L-Regu-6f" transform="translate(650.75077 0) scale(0.996264)"/>
      <use xlink:href="#NimbusRomNo9L-Regu-6e" transform="translate(700.563971 0) scale(0.996264)"/>
      <use xlink:href="#NimbusRomNo9L-Regu-70" transform="translate(775.283772 0) scale(0.996264)"/>
      <use xlink:href="#NimbusRomNo9L-Regu-72" transform="translate(825.096972 0) scale(0.996264)"/>
      <use xlink:href="#NimbusRomNo9L-Regu-65" transform="translate(858.272202 0) scale(0.996264)"/>
      <use xlink:href="#NimbusRomNo9L-Regu-64" transform="translate(902.505771 0) scale(0.996264)"/>
      <use xlink:href="#NimbusRomNo9L-Regu-69" transform="translate(952.318971 0) scale(0.996264)"/>
      <use xlink:href="#NimbusRomNo9L-Regu-63" transform="translate(980.014141 0) scale(0.996264)"/>
      <use xlink:href="#NimbusRomNo9L-Regu-74" transform="translate(1024.247709 0) scale(0.996264)"/>
     </g>
    </g>
   </g>
  </g>
 </g>
 <defs>
  <clipPath id="p18484e1044">
   <rect x="29.343309" y="3.6" width="357.12" height="266.112"/>
  </clipPath>
 </defs>
</svg>
