<?xml version="1.0" encoding="utf-8" standalone="no"?>
<!DOCTYPE svg PUBLIC "-//W3C//DTD SVG 1.1//EN"
  "http://www.w3.org/Graphics/SVG/1.1/DTD/svg11.dtd">
<svg xmlns:xlink="http://www.w3.org/1999/xlink" width="402.018478pt" height="302.199372pt" viewBox="0 0 402.018478 302.199372" xmlns="http://www.w3.org/2000/svg" version="1.1">
 <metadata>
  <rdf:RDF xmlns:dc="http://purl.org/dc/elements/1.1/" xmlns:cc="http://creativecommons.org/ns#" xmlns:rdf="http://www.w3.org/1999/02/22-rdf-syntax-ns#">
   <cc:Work>
    <dc:type rdf:resource="http://purl.org/dc/dcmitype/StillImage"/>
    <dc:date>2024-03-16T22:21:11.964061</dc:date>
    <dc:format>image/svg+xml</dc:format>
    <dc:creator>
     <cc:Agent>
      <dc:title>Matplotlib v3.8.3, https://matplotlib.org/</dc:title>
     </cc:Agent>
    </dc:creator>
   </cc:Work>
  </rdf:RDF>
 </metadata>
 <defs>
  <style type="text/css">*{stroke-linejoin: round; stroke-linecap: butt}</style>
 </defs>
 <g id="figure_1">
  <g id="patch_1">
   <path d="M -0 302.199372 
L 402.018478 302.199372 
L 402.018478 0 
L -0 0 
z
" style="fill: #ffffff"/>
  </g>
  <g id="axes_1">
   <g id="patch_2">
    <path d="M 41.298478 269.712 
L 398.418478 269.712 
L 398.418478 3.6 
L 41.298478 3.6 
z
" style="fill: #ffffff"/>
   </g>
   <g id="matplotlib.axis_1">
    <g id="xtick_1">
     <g id="line2d_1">
      <defs>
       <path id="m673b23c958" d="M 0 0 
L 0 -3 
" style="stroke: #000000; stroke-width: 0.5"/>
      </defs>
      <g>
       <use xlink:href="#m673b23c958" x="57.531205" y="269.712" style="stroke: #000000; stroke-width: 0.5"/>
      </g>
     </g>
     <g id="line2d_2">
      <defs>
       <path id="m242ec9e591" d="M 0 0 
L 0 3 
" style="stroke: #000000; stroke-width: 0.5"/>
      </defs>
      <g>
       <use xlink:href="#m242ec9e591" x="57.531205" y="3.6" style="stroke: #000000; stroke-width: 0.5"/>
      </g>
     </g>
     <g id="text_1">
      <!-- $\mathdefault{0}$ -->
      <g transform="translate(55.538677 278.615656) scale(0.08 -0.08)">
       <defs>
        <path id="NimbusRomNo9L-Regu-30" d="M 1626 4352 
C 1274 4352 1005 4244 768 4020 
C 397 3661 154 2925 154 2176 
C 154 1479 365 730 666 372 
C 902 90 1229 -64 1600 -64 
C 1926 -64 2202 45 2432 269 
C 2803 621 3046 1364 3046 2138 
C 3046 3450 2464 4352 1626 4352 
z
M 1606 4186 
C 2144 4186 2432 3463 2432 2125 
C 2432 788 2150 103 1600 103 
C 1050 103 768 788 768 2119 
C 768 3476 1056 4186 1606 4186 
z
" transform="scale(0.015625)"/>
       </defs>
       <use xlink:href="#NimbusRomNo9L-Regu-30" transform="scale(0.996264)"/>
      </g>
     </g>
    </g>
    <g id="xtick_2">
     <g id="line2d_3">
      <g>
       <use xlink:href="#m673b23c958" x="135.01439" y="269.712" style="stroke: #000000; stroke-width: 0.5"/>
      </g>
     </g>
     <g id="line2d_4">
      <g>
       <use xlink:href="#m242ec9e591" x="135.01439" y="3.6" style="stroke: #000000; stroke-width: 0.5"/>
      </g>
     </g>
     <g id="text_2">
      <!-- $\mathdefault{100}$ -->
      <g transform="translate(129.036806 278.615656) scale(0.08 -0.08)">
       <defs>
        <path id="NimbusRomNo9L-Regu-31" d="M 1862 4339 
L 710 3757 
L 710 3667 
C 787 3699 858 3725 883 3738 
C 998 3783 1107 3808 1171 3808 
C 1306 3808 1363 3711 1363 3505 
L 1363 592 
C 1363 379 1312 232 1210 173 
C 1114 116 1024 96 755 96 
L 755 0 
L 2522 0 
L 2522 96 
C 2016 96 1914 160 1914 470 
L 1914 4327 
L 1862 4339 
z
" transform="scale(0.015625)"/>
       </defs>
       <use xlink:href="#NimbusRomNo9L-Regu-31" transform="scale(0.996264)"/>
       <use xlink:href="#NimbusRomNo9L-Regu-30" transform="translate(49.8132 0) scale(0.996264)"/>
       <use xlink:href="#NimbusRomNo9L-Regu-30" transform="translate(99.626401 0) scale(0.996264)"/>
      </g>
     </g>
    </g>
    <g id="xtick_3">
     <g id="line2d_5">
      <g>
       <use xlink:href="#m673b23c958" x="212.497575" y="269.712" style="stroke: #000000; stroke-width: 0.5"/>
      </g>
     </g>
     <g id="line2d_6">
      <g>
       <use xlink:href="#m242ec9e591" x="212.497575" y="3.6" style="stroke: #000000; stroke-width: 0.5"/>
      </g>
     </g>
     <g id="text_3">
      <!-- $\mathdefault{200}$ -->
      <g transform="translate(206.519991 278.615656) scale(0.08 -0.08)">
       <defs>
        <path id="NimbusRomNo9L-Regu-32" d="M 3040 875 
L 2957 907 
C 2720 544 2637 486 2349 486 
L 819 486 
L 1894 1609 
C 2464 2202 2714 2687 2714 3185 
C 2714 3823 2195 4313 1530 4313 
C 1178 4313 845 4173 608 3918 
C 403 3700 307 3496 198 3043 
L 333 3011 
C 589 3636 819 3840 1261 3840 
C 1798 3840 2163 3476 2163 2940 
C 2163 2443 1869 1850 1331 1282 
L 192 77 
L 192 0 
L 2688 0 
L 3040 875 
z
" transform="scale(0.015625)"/>
       </defs>
       <use xlink:href="#NimbusRomNo9L-Regu-32" transform="scale(0.996264)"/>
       <use xlink:href="#NimbusRomNo9L-Regu-30" transform="translate(49.8132 0) scale(0.996264)"/>
       <use xlink:href="#NimbusRomNo9L-Regu-30" transform="translate(99.626401 0) scale(0.996264)"/>
      </g>
     </g>
    </g>
    <g id="xtick_4">
     <g id="line2d_7">
      <g>
       <use xlink:href="#m673b23c958" x="289.98076" y="269.712" style="stroke: #000000; stroke-width: 0.5"/>
      </g>
     </g>
     <g id="line2d_8">
      <g>
       <use xlink:href="#m242ec9e591" x="289.98076" y="3.6" style="stroke: #000000; stroke-width: 0.5"/>
      </g>
     </g>
     <g id="text_4">
      <!-- $\mathdefault{300}$ -->
      <g transform="translate(284.003176 278.615656) scale(0.08 -0.08)">
       <defs>
        <path id="NimbusRomNo9L-Regu-33" d="M 979 2138 
C 1357 2138 1504 2125 1658 2068 
C 2054 1927 2304 1562 2304 1120 
C 2304 583 1939 167 1466 167 
C 1293 167 1165 212 928 365 
C 736 480 627 525 518 525 
C 371 525 275 436 275 301 
C 275 77 550 -64 998 -64 
C 1491 -64 1997 103 2298 365 
C 2598 628 2765 999 2765 1428 
C 2765 1754 2662 2055 2477 2253 
C 2349 2394 2227 2471 1946 2592 
C 2387 2893 2547 3130 2547 3476 
C 2547 3994 2138 4352 1549 4352 
C 1229 4352 947 4244 717 4039 
C 525 3866 429 3699 288 3315 
L 384 3290 
C 646 3757 934 3968 1338 3968 
C 1754 3968 2042 3687 2042 3284 
C 2042 3053 1946 2823 1786 2663 
C 1594 2471 1414 2375 979 2221 
L 979 2138 
z
" transform="scale(0.015625)"/>
       </defs>
       <use xlink:href="#NimbusRomNo9L-Regu-33" transform="scale(0.996264)"/>
       <use xlink:href="#NimbusRomNo9L-Regu-30" transform="translate(49.8132 0) scale(0.996264)"/>
       <use xlink:href="#NimbusRomNo9L-Regu-30" transform="translate(99.626401 0) scale(0.996264)"/>
      </g>
     </g>
    </g>
    <g id="xtick_5">
     <g id="line2d_9">
      <g>
       <use xlink:href="#m673b23c958" x="367.463945" y="269.712" style="stroke: #000000; stroke-width: 0.5"/>
      </g>
     </g>
     <g id="line2d_10">
      <g>
       <use xlink:href="#m242ec9e591" x="367.463945" y="3.6" style="stroke: #000000; stroke-width: 0.5"/>
      </g>
     </g>
     <g id="text_5">
      <!-- $\mathdefault{400}$ -->
      <g transform="translate(361.486361 278.615656) scale(0.08 -0.08)">
       <defs>
        <path id="NimbusRomNo9L-Regu-34" d="M 3021 1497 
L 2368 1497 
L 2368 4352 
L 2086 4352 
L 77 1497 
L 77 1088 
L 1875 1088 
L 1875 32 
L 2368 32 
L 2368 1088 
L 3021 1088 
L 3021 1497 
z
M 1869 1497 
L 333 1497 
L 1869 3698 
L 1869 1497 
z
" transform="scale(0.015625)"/>
       </defs>
       <use xlink:href="#NimbusRomNo9L-Regu-34" transform="scale(0.996264)"/>
       <use xlink:href="#NimbusRomNo9L-Regu-30" transform="translate(49.8132 0) scale(0.996264)"/>
       <use xlink:href="#NimbusRomNo9L-Regu-30" transform="translate(99.626401 0) scale(0.996264)"/>
      </g>
     </g>
    </g>
    <g id="xtick_6">
     <g id="line2d_11">
      <defs>
       <path id="m2bff695b5e" d="M 0 0 
L 0 -1.5 
" style="stroke: #000000; stroke-width: 0.5"/>
      </defs>
      <g>
       <use xlink:href="#m2bff695b5e" x="42.034568" y="269.712" style="stroke: #000000; stroke-width: 0.5"/>
      </g>
     </g>
     <g id="line2d_12">
      <defs>
       <path id="m7e41fca1b9" d="M 0 0 
L 0 1.5 
" style="stroke: #000000; stroke-width: 0.5"/>
      </defs>
      <g>
       <use xlink:href="#m7e41fca1b9" x="42.034568" y="3.6" style="stroke: #000000; stroke-width: 0.5"/>
      </g>
     </g>
    </g>
    <g id="xtick_7">
     <g id="line2d_13">
      <g>
       <use xlink:href="#m2bff695b5e" x="73.027842" y="269.712" style="stroke: #000000; stroke-width: 0.5"/>
      </g>
     </g>
     <g id="line2d_14">
      <g>
       <use xlink:href="#m7e41fca1b9" x="73.027842" y="3.6" style="stroke: #000000; stroke-width: 0.5"/>
      </g>
     </g>
    </g>
    <g id="xtick_8">
     <g id="line2d_15">
      <g>
       <use xlink:href="#m2bff695b5e" x="88.524479" y="269.712" style="stroke: #000000; stroke-width: 0.5"/>
      </g>
     </g>
     <g id="line2d_16">
      <g>
       <use xlink:href="#m7e41fca1b9" x="88.524479" y="3.6" style="stroke: #000000; stroke-width: 0.5"/>
      </g>
     </g>
    </g>
    <g id="xtick_9">
     <g id="line2d_17">
      <g>
       <use xlink:href="#m2bff695b5e" x="104.021116" y="269.712" style="stroke: #000000; stroke-width: 0.5"/>
      </g>
     </g>
     <g id="line2d_18">
      <g>
       <use xlink:href="#m7e41fca1b9" x="104.021116" y="3.6" style="stroke: #000000; stroke-width: 0.5"/>
      </g>
     </g>
    </g>
    <g id="xtick_10">
     <g id="line2d_19">
      <g>
       <use xlink:href="#m2bff695b5e" x="119.517753" y="269.712" style="stroke: #000000; stroke-width: 0.5"/>
      </g>
     </g>
     <g id="line2d_20">
      <g>
       <use xlink:href="#m7e41fca1b9" x="119.517753" y="3.6" style="stroke: #000000; stroke-width: 0.5"/>
      </g>
     </g>
    </g>
    <g id="xtick_11">
     <g id="line2d_21">
      <g>
       <use xlink:href="#m2bff695b5e" x="150.511027" y="269.712" style="stroke: #000000; stroke-width: 0.5"/>
      </g>
     </g>
     <g id="line2d_22">
      <g>
       <use xlink:href="#m7e41fca1b9" x="150.511027" y="3.6" style="stroke: #000000; stroke-width: 0.5"/>
      </g>
     </g>
    </g>
    <g id="xtick_12">
     <g id="line2d_23">
      <g>
       <use xlink:href="#m2bff695b5e" x="166.007664" y="269.712" style="stroke: #000000; stroke-width: 0.5"/>
      </g>
     </g>
     <g id="line2d_24">
      <g>
       <use xlink:href="#m7e41fca1b9" x="166.007664" y="3.6" style="stroke: #000000; stroke-width: 0.5"/>
      </g>
     </g>
    </g>
    <g id="xtick_13">
     <g id="line2d_25">
      <g>
       <use xlink:href="#m2bff695b5e" x="181.504301" y="269.712" style="stroke: #000000; stroke-width: 0.5"/>
      </g>
     </g>
     <g id="line2d_26">
      <g>
       <use xlink:href="#m7e41fca1b9" x="181.504301" y="3.6" style="stroke: #000000; stroke-width: 0.5"/>
      </g>
     </g>
    </g>
    <g id="xtick_14">
     <g id="line2d_27">
      <g>
       <use xlink:href="#m2bff695b5e" x="197.000938" y="269.712" style="stroke: #000000; stroke-width: 0.5"/>
      </g>
     </g>
     <g id="line2d_28">
      <g>
       <use xlink:href="#m7e41fca1b9" x="197.000938" y="3.6" style="stroke: #000000; stroke-width: 0.5"/>
      </g>
     </g>
    </g>
    <g id="xtick_15">
     <g id="line2d_29">
      <g>
       <use xlink:href="#m2bff695b5e" x="227.994212" y="269.712" style="stroke: #000000; stroke-width: 0.5"/>
      </g>
     </g>
     <g id="line2d_30">
      <g>
       <use xlink:href="#m7e41fca1b9" x="227.994212" y="3.6" style="stroke: #000000; stroke-width: 0.5"/>
      </g>
     </g>
    </g>
    <g id="xtick_16">
     <g id="line2d_31">
      <g>
       <use xlink:href="#m2bff695b5e" x="243.490849" y="269.712" style="stroke: #000000; stroke-width: 0.5"/>
      </g>
     </g>
     <g id="line2d_32">
      <g>
       <use xlink:href="#m7e41fca1b9" x="243.490849" y="3.6" style="stroke: #000000; stroke-width: 0.5"/>
      </g>
     </g>
    </g>
    <g id="xtick_17">
     <g id="line2d_33">
      <g>
       <use xlink:href="#m2bff695b5e" x="258.987486" y="269.712" style="stroke: #000000; stroke-width: 0.5"/>
      </g>
     </g>
     <g id="line2d_34">
      <g>
       <use xlink:href="#m7e41fca1b9" x="258.987486" y="3.6" style="stroke: #000000; stroke-width: 0.5"/>
      </g>
     </g>
    </g>
    <g id="xtick_18">
     <g id="line2d_35">
      <g>
       <use xlink:href="#m2bff695b5e" x="274.484123" y="269.712" style="stroke: #000000; stroke-width: 0.5"/>
      </g>
     </g>
     <g id="line2d_36">
      <g>
       <use xlink:href="#m7e41fca1b9" x="274.484123" y="3.6" style="stroke: #000000; stroke-width: 0.5"/>
      </g>
     </g>
    </g>
    <g id="xtick_19">
     <g id="line2d_37">
      <g>
       <use xlink:href="#m2bff695b5e" x="305.477397" y="269.712" style="stroke: #000000; stroke-width: 0.5"/>
      </g>
     </g>
     <g id="line2d_38">
      <g>
       <use xlink:href="#m7e41fca1b9" x="305.477397" y="3.6" style="stroke: #000000; stroke-width: 0.5"/>
      </g>
     </g>
    </g>
    <g id="xtick_20">
     <g id="line2d_39">
      <g>
       <use xlink:href="#m2bff695b5e" x="320.974034" y="269.712" style="stroke: #000000; stroke-width: 0.5"/>
      </g>
     </g>
     <g id="line2d_40">
      <g>
       <use xlink:href="#m7e41fca1b9" x="320.974034" y="3.6" style="stroke: #000000; stroke-width: 0.5"/>
      </g>
     </g>
    </g>
    <g id="xtick_21">
     <g id="line2d_41">
      <g>
       <use xlink:href="#m2bff695b5e" x="336.470671" y="269.712" style="stroke: #000000; stroke-width: 0.5"/>
      </g>
     </g>
     <g id="line2d_42">
      <g>
       <use xlink:href="#m7e41fca1b9" x="336.470671" y="3.6" style="stroke: #000000; stroke-width: 0.5"/>
      </g>
     </g>
    </g>
    <g id="xtick_22">
     <g id="line2d_43">
      <g>
       <use xlink:href="#m2bff695b5e" x="351.967308" y="269.712" style="stroke: #000000; stroke-width: 0.5"/>
      </g>
     </g>
     <g id="line2d_44">
      <g>
       <use xlink:href="#m7e41fca1b9" x="351.967308" y="3.6" style="stroke: #000000; stroke-width: 0.5"/>
      </g>
     </g>
    </g>
    <g id="xtick_23">
     <g id="line2d_45">
      <g>
       <use xlink:href="#m2bff695b5e" x="382.960582" y="269.712" style="stroke: #000000; stroke-width: 0.5"/>
      </g>
     </g>
     <g id="line2d_46">
      <g>
       <use xlink:href="#m7e41fca1b9" x="382.960582" y="3.6" style="stroke: #000000; stroke-width: 0.5"/>
      </g>
     </g>
    </g>
    <g id="text_6">
     <!-- days -->
     <g transform="translate(205.249382 295.148446) scale(0.16 -0.16)">
      <defs>
       <path id="NimbusRomNo9L-Regu-64" d="M 2202 -64 
L 3142 269 
L 3142 365 
C 3027 365 3014 365 2995 365 
C 2765 365 2714 435 2714 731 
L 2714 4364 
L 2682 4377 
C 2374 4268 2150 4204 1741 4096 
L 1741 3994 
C 1792 4000 1830 4000 1882 4000 
C 2118 4000 2176 3936 2176 3672 
L 2176 2669 
C 1933 2874 1760 2944 1504 2944 
C 768 2944 173 2221 173 1312 
C 173 493 653 -64 1357 -64 
C 1715 -64 1958 64 2176 365 
L 2176 -45 
L 2202 -64 
z
M 2176 653 
C 2176 608 2131 531 2067 461 
C 1952 333 1792 269 1606 269 
C 1075 269 723 781 723 1568 
C 723 2291 1037 2765 1523 2765 
C 1862 2765 2176 2464 2176 2125 
L 2176 653 
z
" transform="scale(0.015625)"/>
       <path id="NimbusRomNo9L-Regu-61" d="M 2829 423 
C 2720 333 2643 301 2547 301 
C 2400 301 2355 390 2355 672 
L 2355 1920 
C 2355 2253 2323 2438 2227 2592 
C 2086 2822 1811 2944 1434 2944 
C 832 2944 358 2630 358 2227 
C 358 2080 486 1952 634 1952 
C 787 1952 922 2080 922 2221 
C 922 2246 915 2278 909 2323 
C 896 2381 890 2432 890 2477 
C 890 2650 1094 2790 1350 2790 
C 1664 2790 1837 2605 1837 2259 
L 1837 1869 
C 851 1472 742 1421 467 1178 
C 326 1050 237 832 237 621 
C 237 218 518 -64 909 -64 
C 1190 -64 1453 70 1843 403 
C 1875 70 1990 -64 2253 -64 
C 2470 -64 2605 13 2829 256 
L 2829 423 
z
M 1837 783 
C 1837 584 1805 526 1670 449 
C 1517 359 1338 301 1203 301 
C 979 301 800 520 800 796 
L 800 822 
C 800 1201 1062 1433 1837 1715 
L 1837 783 
z
" transform="scale(0.015625)"/>
       <path id="NimbusRomNo9L-Regu-79" d="M 3040 2880 
L 2176 2880 
L 2176 2784 
C 2381 2784 2483 2726 2483 2623 
C 2483 2597 2477 2559 2458 2514 
L 1837 742 
L 1101 2377 
C 1062 2468 1037 2552 1037 2622 
C 1037 2739 1133 2784 1408 2784 
L 1408 2880 
L 90 2880 
L 90 2790 
C 256 2765 365 2694 416 2585 
L 1146 1005 
L 1165 953 
L 1261 761 
C 1440 440 1542 209 1542 112 
C 1542 16 1395 -389 1286 -582 
C 1197 -749 1056 -871 966 -871 
C 928 -871 870 -858 806 -826 
C 685 -781 576 -755 467 -755 
C 320 -755 192 -883 192 -1037 
C 192 -1248 397 -1408 666 -1408 
C 1094 -1408 1402 -1049 1747 -124 
L 2733 2495 
C 2816 2701 2886 2765 3040 2784 
L 3040 2880 
z
" transform="scale(0.015625)"/>
       <path id="NimbusRomNo9L-Regu-73" d="M 2016 2010 
L 1990 2880 
L 1920 2880 
L 1907 2867 
C 1850 2822 1843 2816 1818 2816 
C 1779 2816 1715 2829 1645 2861 
C 1504 2915 1363 2944 1197 2944 
C 691 2944 326 2616 326 2154 
C 326 1796 531 1539 1075 1231 
L 1446 1020 
C 1670 892 1779 737 1779 539 
C 1779 256 1574 77 1248 77 
C 1030 77 832 159 710 298 
C 576 455 518 600 435 960 
L 333 960 
L 333 -39 
L 416 -39 
C 461 33 486 48 563 48 
C 621 48 710 35 858 -2 
C 1037 -39 1210 -64 1325 -64 
C 1818 -64 2227 308 2227 757 
C 2227 1077 2074 1289 1690 1520 
L 998 1930 
C 819 2033 723 2194 723 2367 
C 723 2624 922 2803 1216 2803 
C 1581 2803 1773 2583 1920 2010 
L 2016 2010 
z
" transform="scale(0.015625)"/>
      </defs>
      <use xlink:href="#NimbusRomNo9L-Regu-64" transform="scale(0.996264)"/>
      <use xlink:href="#NimbusRomNo9L-Regu-61" transform="translate(49.8132 0) scale(0.996264)"/>
      <use xlink:href="#NimbusRomNo9L-Regu-79" transform="translate(94.046769 0) scale(0.996264)"/>
      <use xlink:href="#NimbusRomNo9L-Regu-73" transform="translate(143.85997 0) scale(0.996264)"/>
     </g>
    </g>
   </g>
   <g id="matplotlib.axis_2">
    <g id="ytick_1">
     <g id="line2d_47">
      <defs>
       <path id="m29d1f1eaee" d="M 0 0 
L 3 0 
" style="stroke: #000000; stroke-width: 0.5"/>
      </defs>
      <g>
       <use xlink:href="#m29d1f1eaee" x="41.298478" y="256.511979" style="stroke: #000000; stroke-width: 0.5"/>
      </g>
     </g>
     <g id="line2d_48">
      <defs>
       <path id="mc24fc8f409" d="M 0 0 
L -3 0 
" style="stroke: #000000; stroke-width: 0.5"/>
      </defs>
      <g>
       <use xlink:href="#mc24fc8f409" x="398.418478" y="256.511979" style="stroke: #000000; stroke-width: 0.5"/>
      </g>
     </g>
     <g id="text_7">
      <!-- $\mathdefault{0}$ -->
      <g transform="translate(33.813421 259.213807) scale(0.08 -0.08)">
       <use xlink:href="#NimbusRomNo9L-Regu-30" transform="scale(0.996264)"/>
      </g>
     </g>
    </g>
    <g id="ytick_2">
     <g id="line2d_49">
      <g>
       <use xlink:href="#m29d1f1eaee" x="41.298478" y="217.728717" style="stroke: #000000; stroke-width: 0.5"/>
      </g>
     </g>
     <g id="line2d_50">
      <g>
       <use xlink:href="#mc24fc8f409" x="398.418478" y="217.728717" style="stroke: #000000; stroke-width: 0.5"/>
      </g>
     </g>
     <g id="text_8">
      <!-- $\mathdefault{200}$ -->
      <g transform="translate(25.843309 220.430545) scale(0.08 -0.08)">
       <use xlink:href="#NimbusRomNo9L-Regu-32" transform="scale(0.996264)"/>
       <use xlink:href="#NimbusRomNo9L-Regu-30" transform="translate(49.8132 0) scale(0.996264)"/>
       <use xlink:href="#NimbusRomNo9L-Regu-30" transform="translate(99.626401 0) scale(0.996264)"/>
      </g>
     </g>
    </g>
    <g id="ytick_3">
     <g id="line2d_51">
      <g>
       <use xlink:href="#m29d1f1eaee" x="41.298478" y="178.945456" style="stroke: #000000; stroke-width: 0.5"/>
      </g>
     </g>
     <g id="line2d_52">
      <g>
       <use xlink:href="#mc24fc8f409" x="398.418478" y="178.945456" style="stroke: #000000; stroke-width: 0.5"/>
      </g>
     </g>
     <g id="text_9">
      <!-- $\mathdefault{400}$ -->
      <g transform="translate(25.843309 181.647284) scale(0.08 -0.08)">
       <use xlink:href="#NimbusRomNo9L-Regu-34" transform="scale(0.996264)"/>
       <use xlink:href="#NimbusRomNo9L-Regu-30" transform="translate(49.8132 0) scale(0.996264)"/>
       <use xlink:href="#NimbusRomNo9L-Regu-30" transform="translate(99.626401 0) scale(0.996264)"/>
      </g>
     </g>
    </g>
    <g id="ytick_4">
     <g id="line2d_53">
      <g>
       <use xlink:href="#m29d1f1eaee" x="41.298478" y="140.162195" style="stroke: #000000; stroke-width: 0.5"/>
      </g>
     </g>
     <g id="line2d_54">
      <g>
       <use xlink:href="#mc24fc8f409" x="398.418478" y="140.162195" style="stroke: #000000; stroke-width: 0.5"/>
      </g>
     </g>
     <g id="text_10">
      <!-- $\mathdefault{600}$ -->
      <g transform="translate(25.843309 142.864023) scale(0.08 -0.08)">
       <defs>
        <path id="NimbusRomNo9L-Regu-36" d="M 2854 4391 
C 2125 4327 1754 4205 1286 3879 
C 595 3386 218 2656 218 1802 
C 218 1248 390 688 666 370 
C 909 89 1254 -64 1651 -64 
C 2445 -64 2995 541 2995 1421 
C 2995 2236 2528 2752 1792 2752 
C 1510 2752 1376 2707 973 2464 
C 1146 3431 1862 4122 2867 4288 
L 2854 4391 
z
M 1549 2458 
C 2099 2458 2419 2000 2419 1204 
C 2419 504 2170 116 1722 116 
C 1158 116 813 714 813 1700 
C 813 2025 864 2203 992 2299 
C 1126 2400 1325 2458 1549 2458 
z
" transform="scale(0.015625)"/>
       </defs>
       <use xlink:href="#NimbusRomNo9L-Regu-36" transform="scale(0.996264)"/>
       <use xlink:href="#NimbusRomNo9L-Regu-30" transform="translate(49.8132 0) scale(0.996264)"/>
       <use xlink:href="#NimbusRomNo9L-Regu-30" transform="translate(99.626401 0) scale(0.996264)"/>
      </g>
     </g>
    </g>
    <g id="ytick_5">
     <g id="line2d_55">
      <g>
       <use xlink:href="#m29d1f1eaee" x="41.298478" y="101.378933" style="stroke: #000000; stroke-width: 0.5"/>
      </g>
     </g>
     <g id="line2d_56">
      <g>
       <use xlink:href="#mc24fc8f409" x="398.418478" y="101.378933" style="stroke: #000000; stroke-width: 0.5"/>
      </g>
     </g>
     <g id="text_11">
      <!-- $\mathdefault{800}$ -->
      <g transform="translate(25.843309 104.080761) scale(0.08 -0.08)">
       <defs>
        <path id="NimbusRomNo9L-Regu-38" d="M 1856 2400 
C 2490 2740 2714 3008 2714 3444 
C 2714 3968 2253 4352 1613 4352 
C 915 4352 397 3924 397 3341 
C 397 2925 518 2740 1190 2151 
C 499 1626 358 1428 358 992 
C 358 372 864 -64 1587 -64 
C 2355 -64 2848 359 2848 1018 
C 2848 1511 2630 1824 1856 2400 
z
M 1741 1741 
C 2208 1408 2362 1178 2362 820 
C 2362 404 2074 116 1658 116 
C 1171 116 845 487 845 1044 
C 845 1453 986 1722 1357 2023 
L 1741 1741 
z
M 1670 2516 
C 1101 2887 870 3181 870 3540 
C 870 3911 1158 4173 1562 4173 
C 1997 4173 2272 3892 2272 3450 
C 2272 3085 2093 2797 1728 2554 
C 1696 2535 1696 2535 1670 2516 
z
" transform="scale(0.015625)"/>
       </defs>
       <use xlink:href="#NimbusRomNo9L-Regu-38" transform="scale(0.996264)"/>
       <use xlink:href="#NimbusRomNo9L-Regu-30" transform="translate(49.8132 0) scale(0.996264)"/>
       <use xlink:href="#NimbusRomNo9L-Regu-30" transform="translate(99.626401 0) scale(0.996264)"/>
      </g>
     </g>
    </g>
    <g id="ytick_6">
     <g id="line2d_57">
      <g>
       <use xlink:href="#m29d1f1eaee" x="41.298478" y="62.595672" style="stroke: #000000; stroke-width: 0.5"/>
      </g>
     </g>
     <g id="line2d_58">
      <g>
       <use xlink:href="#mc24fc8f409" x="398.418478" y="62.595672" style="stroke: #000000; stroke-width: 0.5"/>
      </g>
     </g>
     <g id="text_12">
      <!-- $\mathdefault{1000}$ -->
      <g transform="translate(21.858253 65.2975) scale(0.08 -0.08)">
       <use xlink:href="#NimbusRomNo9L-Regu-31" transform="scale(0.996264)"/>
       <use xlink:href="#NimbusRomNo9L-Regu-30" transform="translate(49.8132 0) scale(0.996264)"/>
       <use xlink:href="#NimbusRomNo9L-Regu-30" transform="translate(99.626401 0) scale(0.996264)"/>
       <use xlink:href="#NimbusRomNo9L-Regu-30" transform="translate(149.439601 0) scale(0.996264)"/>
      </g>
     </g>
    </g>
    <g id="ytick_7">
     <g id="line2d_59">
      <g>
       <use xlink:href="#m29d1f1eaee" x="41.298478" y="23.812411" style="stroke: #000000; stroke-width: 0.5"/>
      </g>
     </g>
     <g id="line2d_60">
      <g>
       <use xlink:href="#mc24fc8f409" x="398.418478" y="23.812411" style="stroke: #000000; stroke-width: 0.5"/>
      </g>
     </g>
     <g id="text_13">
      <!-- $\mathdefault{1200}$ -->
      <g transform="translate(21.858253 26.514239) scale(0.08 -0.08)">
       <use xlink:href="#NimbusRomNo9L-Regu-31" transform="scale(0.996264)"/>
       <use xlink:href="#NimbusRomNo9L-Regu-32" transform="translate(49.8132 0) scale(0.996264)"/>
       <use xlink:href="#NimbusRomNo9L-Regu-30" transform="translate(99.626401 0) scale(0.996264)"/>
       <use xlink:href="#NimbusRomNo9L-Regu-30" transform="translate(149.439601 0) scale(0.996264)"/>
      </g>
     </g>
    </g>
    <g id="ytick_8">
     <g id="line2d_61">
      <defs>
       <path id="mde538f94b2" d="M 0 0 
L 1.5 0 
" style="stroke: #000000; stroke-width: 0.5"/>
      </defs>
      <g>
       <use xlink:href="#mde538f94b2" x="41.298478" y="266.207794" style="stroke: #000000; stroke-width: 0.5"/>
      </g>
     </g>
     <g id="line2d_62">
      <defs>
       <path id="me8510bfb64" d="M 0 0 
L -1.5 0 
" style="stroke: #000000; stroke-width: 0.5"/>
      </defs>
      <g>
       <use xlink:href="#me8510bfb64" x="398.418478" y="266.207794" style="stroke: #000000; stroke-width: 0.5"/>
      </g>
     </g>
    </g>
    <g id="ytick_9">
     <g id="line2d_63">
      <g>
       <use xlink:href="#mde538f94b2" x="41.298478" y="246.816163" style="stroke: #000000; stroke-width: 0.5"/>
      </g>
     </g>
     <g id="line2d_64">
      <g>
       <use xlink:href="#me8510bfb64" x="398.418478" y="246.816163" style="stroke: #000000; stroke-width: 0.5"/>
      </g>
     </g>
    </g>
    <g id="ytick_10">
     <g id="line2d_65">
      <g>
       <use xlink:href="#mde538f94b2" x="41.298478" y="237.120348" style="stroke: #000000; stroke-width: 0.5"/>
      </g>
     </g>
     <g id="line2d_66">
      <g>
       <use xlink:href="#me8510bfb64" x="398.418478" y="237.120348" style="stroke: #000000; stroke-width: 0.5"/>
      </g>
     </g>
    </g>
    <g id="ytick_11">
     <g id="line2d_67">
      <g>
       <use xlink:href="#mde538f94b2" x="41.298478" y="227.424533" style="stroke: #000000; stroke-width: 0.5"/>
      </g>
     </g>
     <g id="line2d_68">
      <g>
       <use xlink:href="#me8510bfb64" x="398.418478" y="227.424533" style="stroke: #000000; stroke-width: 0.5"/>
      </g>
     </g>
    </g>
    <g id="ytick_12">
     <g id="line2d_69">
      <g>
       <use xlink:href="#mde538f94b2" x="41.298478" y="208.032902" style="stroke: #000000; stroke-width: 0.5"/>
      </g>
     </g>
     <g id="line2d_70">
      <g>
       <use xlink:href="#me8510bfb64" x="398.418478" y="208.032902" style="stroke: #000000; stroke-width: 0.5"/>
      </g>
     </g>
    </g>
    <g id="ytick_13">
     <g id="line2d_71">
      <g>
       <use xlink:href="#mde538f94b2" x="41.298478" y="198.337087" style="stroke: #000000; stroke-width: 0.5"/>
      </g>
     </g>
     <g id="line2d_72">
      <g>
       <use xlink:href="#me8510bfb64" x="398.418478" y="198.337087" style="stroke: #000000; stroke-width: 0.5"/>
      </g>
     </g>
    </g>
    <g id="ytick_14">
     <g id="line2d_73">
      <g>
       <use xlink:href="#mde538f94b2" x="41.298478" y="188.641271" style="stroke: #000000; stroke-width: 0.5"/>
      </g>
     </g>
     <g id="line2d_74">
      <g>
       <use xlink:href="#me8510bfb64" x="398.418478" y="188.641271" style="stroke: #000000; stroke-width: 0.5"/>
      </g>
     </g>
    </g>
    <g id="ytick_15">
     <g id="line2d_75">
      <g>
       <use xlink:href="#mde538f94b2" x="41.298478" y="169.249641" style="stroke: #000000; stroke-width: 0.5"/>
      </g>
     </g>
     <g id="line2d_76">
      <g>
       <use xlink:href="#me8510bfb64" x="398.418478" y="169.249641" style="stroke: #000000; stroke-width: 0.5"/>
      </g>
     </g>
    </g>
    <g id="ytick_16">
     <g id="line2d_77">
      <g>
       <use xlink:href="#mde538f94b2" x="41.298478" y="159.553825" style="stroke: #000000; stroke-width: 0.5"/>
      </g>
     </g>
     <g id="line2d_78">
      <g>
       <use xlink:href="#me8510bfb64" x="398.418478" y="159.553825" style="stroke: #000000; stroke-width: 0.5"/>
      </g>
     </g>
    </g>
    <g id="ytick_17">
     <g id="line2d_79">
      <g>
       <use xlink:href="#mde538f94b2" x="41.298478" y="149.85801" style="stroke: #000000; stroke-width: 0.5"/>
      </g>
     </g>
     <g id="line2d_80">
      <g>
       <use xlink:href="#me8510bfb64" x="398.418478" y="149.85801" style="stroke: #000000; stroke-width: 0.5"/>
      </g>
     </g>
    </g>
    <g id="ytick_18">
     <g id="line2d_81">
      <g>
       <use xlink:href="#mde538f94b2" x="41.298478" y="130.466379" style="stroke: #000000; stroke-width: 0.5"/>
      </g>
     </g>
     <g id="line2d_82">
      <g>
       <use xlink:href="#me8510bfb64" x="398.418478" y="130.466379" style="stroke: #000000; stroke-width: 0.5"/>
      </g>
     </g>
    </g>
    <g id="ytick_19">
     <g id="line2d_83">
      <g>
       <use xlink:href="#mde538f94b2" x="41.298478" y="120.770564" style="stroke: #000000; stroke-width: 0.5"/>
      </g>
     </g>
     <g id="line2d_84">
      <g>
       <use xlink:href="#me8510bfb64" x="398.418478" y="120.770564" style="stroke: #000000; stroke-width: 0.5"/>
      </g>
     </g>
    </g>
    <g id="ytick_20">
     <g id="line2d_85">
      <g>
       <use xlink:href="#mde538f94b2" x="41.298478" y="111.074749" style="stroke: #000000; stroke-width: 0.5"/>
      </g>
     </g>
     <g id="line2d_86">
      <g>
       <use xlink:href="#me8510bfb64" x="398.418478" y="111.074749" style="stroke: #000000; stroke-width: 0.5"/>
      </g>
     </g>
    </g>
    <g id="ytick_21">
     <g id="line2d_87">
      <g>
       <use xlink:href="#mde538f94b2" x="41.298478" y="91.683118" style="stroke: #000000; stroke-width: 0.5"/>
      </g>
     </g>
     <g id="line2d_88">
      <g>
       <use xlink:href="#me8510bfb64" x="398.418478" y="91.683118" style="stroke: #000000; stroke-width: 0.5"/>
      </g>
     </g>
    </g>
    <g id="ytick_22">
     <g id="line2d_89">
      <g>
       <use xlink:href="#mde538f94b2" x="41.298478" y="81.987303" style="stroke: #000000; stroke-width: 0.5"/>
      </g>
     </g>
     <g id="line2d_90">
      <g>
       <use xlink:href="#me8510bfb64" x="398.418478" y="81.987303" style="stroke: #000000; stroke-width: 0.5"/>
      </g>
     </g>
    </g>
    <g id="ytick_23">
     <g id="line2d_91">
      <g>
       <use xlink:href="#mde538f94b2" x="41.298478" y="72.291487" style="stroke: #000000; stroke-width: 0.5"/>
      </g>
     </g>
     <g id="line2d_92">
      <g>
       <use xlink:href="#me8510bfb64" x="398.418478" y="72.291487" style="stroke: #000000; stroke-width: 0.5"/>
      </g>
     </g>
    </g>
    <g id="ytick_24">
     <g id="line2d_93">
      <g>
       <use xlink:href="#mde538f94b2" x="41.298478" y="52.899857" style="stroke: #000000; stroke-width: 0.5"/>
      </g>
     </g>
     <g id="line2d_94">
      <g>
       <use xlink:href="#me8510bfb64" x="398.418478" y="52.899857" style="stroke: #000000; stroke-width: 0.5"/>
      </g>
     </g>
    </g>
    <g id="ytick_25">
     <g id="line2d_95">
      <g>
       <use xlink:href="#mde538f94b2" x="41.298478" y="43.204041" style="stroke: #000000; stroke-width: 0.5"/>
      </g>
     </g>
     <g id="line2d_96">
      <g>
       <use xlink:href="#me8510bfb64" x="398.418478" y="43.204041" style="stroke: #000000; stroke-width: 0.5"/>
      </g>
     </g>
    </g>
    <g id="ytick_26">
     <g id="line2d_97">
      <g>
       <use xlink:href="#mde538f94b2" x="41.298478" y="33.508226" style="stroke: #000000; stroke-width: 0.5"/>
      </g>
     </g>
     <g id="line2d_98">
      <g>
       <use xlink:href="#me8510bfb64" x="398.418478" y="33.508226" style="stroke: #000000; stroke-width: 0.5"/>
      </g>
     </g>
    </g>
    <g id="ytick_27">
     <g id="line2d_99">
      <g>
       <use xlink:href="#mde538f94b2" x="41.298478" y="14.116595" style="stroke: #000000; stroke-width: 0.5"/>
      </g>
     </g>
     <g id="line2d_100">
      <g>
       <use xlink:href="#me8510bfb64" x="398.418478" y="14.116595" style="stroke: #000000; stroke-width: 0.5"/>
      </g>
     </g>
    </g>
    <g id="ytick_28">
     <g id="line2d_101">
      <g>
       <use xlink:href="#mde538f94b2" x="41.298478" y="4.42078" style="stroke: #000000; stroke-width: 0.5"/>
      </g>
     </g>
     <g id="line2d_102">
      <g>
       <use xlink:href="#me8510bfb64" x="398.418478" y="4.42078" style="stroke: #000000; stroke-width: 0.5"/>
      </g>
     </g>
    </g>
    <g id="text_14">
     <!-- spatial rainfall -->
     <g transform="translate(14.407327 182.395716) rotate(-90) scale(0.16 -0.16)">
      <defs>
       <path id="NimbusRomNo9L-Regu-70" d="M 58 2516 
C 115 2522 160 2522 218 2522 
C 435 2522 480 2458 480 2155 
L 480 -855 
C 480 -1189 410 -1261 32 -1299 
L 32 -1408 
L 1581 -1408 
L 1581 -1293 
C 1101 -1293 1018 -1222 1018 -816 
L 1018 199 
C 1242 -13 1395 -77 1664 -77 
C 2419 -77 3008 643 3008 1575 
C 3008 2372 2560 2944 1939 2944 
C 1581 2944 1299 2784 1018 2438 
L 1018 2931 
L 979 2944 
C 634 2810 410 2726 58 2618 
L 58 2516 
z
M 1018 2136 
C 1018 2329 1376 2560 1670 2560 
C 2144 2560 2458 2071 2458 1324 
C 2458 611 2144 128 1683 128 
C 1382 128 1018 359 1018 552 
L 1018 2136 
z
" transform="scale(0.015625)"/>
       <path id="NimbusRomNo9L-Regu-74" d="M 1632 2880 
L 986 2880 
L 986 3622 
C 986 3686 979 3706 941 3706 
C 896 3648 858 3590 813 3526 
C 570 3174 294 2867 192 2841 
C 122 2794 83 2748 83 2715 
C 83 2695 90 2682 109 2682 
L 448 2682 
L 448 751 
C 448 212 640 -64 1018 -64 
C 1331 -64 1574 90 1786 423 
L 1702 493 
C 1568 333 1459 269 1318 269 
C 1082 269 986 443 986 847 
L 986 2682 
L 1632 2682 
L 1632 2880 
z
" transform="scale(0.015625)"/>
       <path id="NimbusRomNo9L-Regu-69" d="M 1120 2929 
L 128 2579 
L 128 2484 
L 179 2490 
C 256 2502 339 2509 397 2509 
C 550 2509 608 2406 608 2125 
L 608 640 
C 608 179 544 109 102 109 
L 102 0 
L 1619 0 
L 1619 96 
C 1197 128 1146 191 1146 650 
L 1146 2910 
L 1120 2929 
z
M 819 4352 
C 646 4352 499 4205 499 4026 
C 499 3847 640 3699 819 3699 
C 1005 3699 1152 3840 1152 4026 
C 1152 4205 1005 4352 819 4352 
z
" transform="scale(0.015625)"/>
       <path id="NimbusRomNo9L-Regu-6c" d="M 122 4000 
L 160 4000 
C 230 4000 307 4000 358 4000 
C 563 4000 627 3910 627 3610 
L 627 557 
C 627 211 538 128 134 96 
L 134 0 
L 1645 0 
L 1645 109 
C 1242 109 1165 173 1165 528 
L 1165 4371 
L 1139 4384 
C 806 4275 563 4211 122 4103 
L 122 4000 
z
" transform="scale(0.015625)"/>
       <path id="NimbusRomNo9L-Regu-72" d="M 45 2496 
C 134 2515 192 2522 269 2522 
C 429 2522 486 2419 486 2138 
L 486 538 
C 486 218 442 173 32 96 
L 32 0 
L 1568 0 
L 1568 102 
C 1133 102 1024 199 1024 565 
L 1024 2013 
C 1024 2219 1299 2541 1472 2541 
C 1510 2541 1568 2509 1638 2445 
C 1741 2355 1811 2317 1894 2317 
C 2048 2317 2144 2426 2144 2605 
C 2144 2816 2010 2944 1792 2944 
C 1523 2944 1338 2797 1024 2343 
L 1024 2931 
L 992 2944 
C 653 2803 422 2721 45 2599 
L 45 2496 
z
" transform="scale(0.015625)"/>
       <path id="NimbusRomNo9L-Regu-6e" d="M 102 2579 
C 141 2598 205 2605 275 2605 
C 454 2605 512 2509 512 2195 
L 512 608 
C 512 243 442 154 115 128 
L 115 32 
L 1472 32 
L 1472 128 
C 1146 154 1050 230 1050 461 
L 1050 2259 
C 1357 2547 1498 2624 1709 2624 
C 2022 2624 2176 2426 2176 2003 
L 2176 666 
C 2176 262 2093 154 1773 128 
L 1773 32 
L 3104 32 
L 3104 128 
C 2790 160 2714 237 2714 550 
L 2714 2016 
C 2714 2618 2432 2976 1958 2976 
C 1664 2976 1466 2867 1030 2458 
L 1030 2963 
L 986 2976 
C 672 2861 454 2790 102 2688 
L 102 2579 
z
" transform="scale(0.015625)"/>
       <path id="NimbusRomNo9L-Regu-66" d="M 1978 2880 
L 1190 2880 
L 1190 3611 
C 1190 3978 1312 4173 1555 4173 
C 1690 4173 1779 4110 1894 3927 
C 1997 3763 2074 3700 2182 3700 
C 2330 3700 2451 3814 2451 3959 
C 2451 4188 2170 4352 1786 4352 
C 1389 4352 1050 4181 883 3891 
C 717 3613 666 3385 659 2880 
L 134 2880 
L 134 2675 
L 659 2675 
L 659 656 
C 659 185 589 109 128 109 
L 128 0 
L 1792 0 
L 1792 109 
C 1267 109 1197 180 1197 661 
L 1197 2675 
L 1978 2675 
L 1978 2880 
z
" transform="scale(0.015625)"/>
      </defs>
      <use xlink:href="#NimbusRomNo9L-Regu-73" transform="scale(0.996264)"/>
      <use xlink:href="#NimbusRomNo9L-Regu-70" transform="translate(38.753706 0) scale(0.996264)"/>
      <use xlink:href="#NimbusRomNo9L-Regu-61" transform="translate(88.566907 0) scale(0.996264)"/>
      <use xlink:href="#NimbusRomNo9L-Regu-74" transform="translate(132.800475 0) scale(0.996264)"/>
      <use xlink:href="#NimbusRomNo9L-Regu-69" transform="translate(160.495645 0) scale(0.996264)"/>
      <use xlink:href="#NimbusRomNo9L-Regu-61" transform="translate(188.190815 0) scale(0.996264)"/>
      <use xlink:href="#NimbusRomNo9L-Regu-6c" transform="translate(232.424383 0) scale(0.996264)"/>
      <use xlink:href="#NimbusRomNo9L-Regu-72" transform="translate(285.026153 0) scale(0.996264)"/>
      <use xlink:href="#NimbusRomNo9L-Regu-61" transform="translate(318.201383 0) scale(0.996264)"/>
      <use xlink:href="#NimbusRomNo9L-Regu-69" transform="translate(362.434952 0) scale(0.996264)"/>
      <use xlink:href="#NimbusRomNo9L-Regu-6e" transform="translate(390.130121 0) scale(0.996264)"/>
      <use xlink:href="#NimbusRomNo9L-Regu-66" transform="translate(439.943322 0) scale(0.996264)"/>
      <use xlink:href="#NimbusRomNo9L-Regu-61" transform="translate(472.122455 0) scale(0.996264)"/>
      <use xlink:href="#NimbusRomNo9L-Regu-6c" transform="translate(516.356023 0) scale(0.996264)"/>
      <use xlink:href="#NimbusRomNo9L-Regu-6c" transform="translate(544.051193 0) scale(0.996264)"/>
     </g>
    </g>
   </g>
   <g id="line2d_103">
    <path d="M 57.531205 210.044846 
L 58.306037 205.451421 
L 59.080868 205.966499 
L 59.8557 202.830497 
L 60.630532 201.262502 
L 61.405364 214.343517 
L 62.180196 213.418246 
L 62.955028 212.955611 
L 63.72986 207.19768 
L 64.504691 211.396659 
L 65.279523 218.537969 
L 66.054355 209.98886 
L 66.829187 205.617346 
L 67.604019 203.334633 
L 68.378851 203.065898 
L 69.153683 202.931527 
L 69.928514 205.094385 
L 70.703346 208.793678 
L 71.478178 207.443709 
L 72.25301 212.004464 
L 73.027842 212.539595 
L 73.802674 218.430735 
L 74.577505 222.248927 
L 75.352337 220.764486 
L 76.127169 224.482343 
L 76.902001 226.050395 
L 77.676833 226.834419 
L 78.451665 227.226436 
L 79.226497 238.989547 
L 80.001328 244.997154 
L 80.77616 247.952472 
L 81.550992 249.352572 
L 82.325824 250.149571 
L 83.100656 250.577166 
L 83.875488 225.620622 
L 84.65032 213.142352 
L 85.425151 202.830976 
L 86.199983 198.06312 
L 86.974815 195.679188 
L 87.749647 194.487226 
L 88.524479 193.794286 
L 89.299311 194.805233 
L 90.074143 225.343492 
L 90.848974 236.855492 
L 91.623806 246.683737 
L 92.398638 251.59786 
L 93.17347 254.042408 
L 93.948302 255.277198 
L 94.723134 253.490023 
L 95.497965 252.596439 
L 96.272797 233.611246 
L 97.047629 217.42854 
L 97.822461 207.204106 
L 98.597293 201.704057 
L 99.372125 198.081406 
L 100.146957 196.270086 
L 100.921788 195.170507 
L 101.69662 225.841243 
L 102.471452 241.176609 
L 103.246284 248.844293 
L 104.021116 249.420343 
L 104.795948 249.708365 
L 106.345611 249.953471 
L 107.120443 249.742233 
L 107.895275 249.908093 
L 108.670107 253.210038 
L 109.444939 251.641995 
L 110.219771 250.809495 
L 110.994602 235.820441 
L 111.769434 216.593972 
L 112.544266 207.36857 
L 113.319098 204.113287 
L 114.09393 202.48564 
L 114.868762 201.671822 
L 115.643594 208.730688 
L 116.418425 229.828937 
L 117.193257 239.912662 
L 117.968089 245.070879 
L 118.742921 247.795424 
L 119.517753 249.128605 
L 120.292585 252.681644 
L 121.067417 254.59681 
L 121.842248 242.949836 
L 122.61708 237.126346 
L 123.391912 222.967455 
L 124.166744 223.935539 
L 124.941576 229.655319 
L 125.716408 225.631183 
L 127.266071 220.770874 
L 128.040903 238.641424 
L 128.815735 247.576706 
L 129.590567 252.044339 
L 130.365399 254.278163 
L 131.140231 255.395076 
L 131.915062 255.95352 
L 132.689894 256.232748 
L 134.239558 256.44217 
L 135.01439 256.477079 
L 135.789222 237.005935 
L 136.564054 242.260098 
L 138.113717 247.601768 
L 138.888549 247.839193 
L 139.663381 245.95087 
L 140.438213 245.006712 
L 141.213045 248.374173 
L 141.987877 236.54194 
L 142.762708 229.559281 
L 143.53754 225.583162 
L 144.312372 219.813735 
L 145.087204 216.92902 
L 145.862036 215.486664 
L 146.636868 214.571568 
L 147.411699 214.307936 
L 148.961363 214.255652 
L 149.736195 206.781163 
L 150.511027 202.946955 
L 151.285859 215.088786 
L 152.060691 207.197727 
L 152.835522 203.155239 
L 153.610354 229.833606 
L 154.385186 213.98839 
L 155.160018 206.065783 
L 155.93485 202.201435 
L 156.709682 229.356707 
L 157.484514 242.934343 
L 158.259345 249.72316 
L 159.034177 253.117571 
L 159.809009 254.814777 
L 161.358673 197.864303 
L 162.133505 190.731878 
L 162.908336 180.281631 
L 163.683168 175.153471 
L 164.458 172.589389 
L 165.232832 171.307344 
L 166.007664 170.472412 
L 166.782496 170.054943 
L 167.557328 169.846208 
L 168.332159 185.642978 
L 169.106991 221.077475 
L 169.881823 209.804241 
L 170.656655 190.108693 
L 171.431487 157.863579 
L 172.206319 149.109851 
L 172.981151 144.442107 
L 173.755982 134.836373 
L 174.530814 130.0335 
L 175.305646 127.729028 
L 176.080478 126.576786 
L 176.85531 139.962656 
L 177.630142 146.752532 
L 178.404973 150.341392 
L 179.179805 151.844954 
L 179.954637 145.227903 
L 180.729469 178.86044 
L 181.504301 195.579751 
L 182.279133 199.188459 
L 183.053965 215.342614 
L 183.828796 225.455813 
L 184.603628 224.307092 
L 185.37846 223.732732 
L 186.153292 223.445553 
L 186.928124 224.174585 
L 187.702956 221.436444 
L 188.477788 228.696647 
L 189.252619 227.672754 
L 190.027451 227.160812 
L 190.802283 226.904839 
L 191.577115 223.480276 
L 192.351947 221.767992 
L 193.126779 220.814894 
L 193.901611 220.435305 
L 194.676442 220.245505 
L 195.451274 217.920571 
L 196.226106 187.67066 
L 197.000938 170.800456 
L 197.77577 159.844445 
L 198.550602 139.33792 
L 199.325433 129.375541 
L 200.100265 131.763159 
L 200.875097 194.137569 
L 201.649929 188.189804 
L 202.424761 204.995379 
L 203.199593 213.398169 
L 203.974425 190.451283 
L 204.749256 179.268713 
L 205.524088 173.677428 
L 206.29892 170.978744 
L 207.073752 169.629401 
L 207.848584 169.148647 
L 209.398248 168.933515 
L 210.947911 168.879733 
L 211.722743 161.21108 
L 212.497575 156.795004 
L 213.272407 155.45958 
L 214.047239 138.599869 
L 214.82207 85.08446 
L 215.596902 57.357186 
L 216.371734 43.493543 
L 217.146566 36.561721 
L 217.921398 32.126241 
L 218.69623 29.908489 
L 219.471062 28.799601 
L 220.245893 28.245169 
L 221.020725 26.998371 
L 221.795557 26.374961 
L 222.570389 63.489114 
L 223.345221 44.62035 
L 224.120053 35.185962 
L 224.894885 30.468768 
L 225.669716 73.874407 
L 226.444548 106.824391 
L 227.21938 123.29937 
L 227.994212 163.242188 
L 228.769044 209.877084 
L 229.543876 187.721157 
L 230.318707 176.837107 
L 231.093539 148.900797 
L 231.868371 82.478272 
L 232.643203 49.267027 
L 233.418035 62.71842 
L 234.192867 39.387095 
L 234.967699 26.751833 
L 235.74253 20.434214 
L 236.517362 17.275405 
L 237.292194 15.696 
L 238.067026 33.328347 
L 238.841858 64.250979 
L 239.61669 66.332064 
L 240.391522 147.072215 
L 241.166353 176.873851 
L 241.941185 178.976193 
L 242.716017 144.34677 
L 243.490849 91.836248 
L 244.265681 65.58097 
L 245.040513 52.453343 
L 245.815345 45.889541 
L 246.590176 67.71979 
L 247.365008 59.340236 
L 248.13984 120.985051 
L 248.914672 151.807458 
L 249.689504 167.31562 
L 250.464336 185.347263 
L 251.239167 194.363087 
L 252.013999 198.677085 
L 252.788831 200.931037 
L 253.563663 202.058016 
L 254.338495 202.71846 
L 255.113327 175.900405 
L 255.888159 177.422928 
L 256.66299 163.155681 
L 257.437822 156.119007 
L 258.212654 152.503718 
L 258.987486 165.821545 
L 259.762318 172.480459 
L 260.53715 160.587485 
L 261.311982 183.631487 
L 262.086813 195.153487 
L 262.861645 200.914485 
L 263.636477 219.860954 
L 264.411309 215.401302 
L 265.186141 204.736112 
L 265.960973 201.342683 
L 266.735804 175.115556 
L 267.510636 162.001995 
L 268.285468 155.445212 
L 269.0603 174.75807 
L 269.835132 184.511454 
L 270.609964 189.388152 
L 271.384796 191.826498 
L 272.159627 192.948713 
L 272.934459 193.509821 
L 273.709291 193.790374 
L 274.484123 193.736735 
L 276.033787 235.29155 
L 276.808619 215.262989 
L 277.58345 205.054794 
L 278.358282 215.270079 
L 279.133114 205.930962 
L 279.907946 201.261401 
L 280.682778 198.247911 
L 281.45761 196.353339 
L 282.232441 218.579045 
L 283.007273 206.809782 
L 283.782105 181.921345 
L 284.556937 161.429602 
L 285.331769 146.917569 
L 286.106601 140.728096 
L 286.881433 142.869093 
L 287.656264 138.606899 
L 288.431096 136.475808 
L 289.205928 135.410263 
L 289.98076 134.877478 
L 290.755592 150.318313 
L 291.530424 136.514026 
L 292.305256 114.292488 
L 293.080087 62.265373 
L 293.854919 38.190978 
L 294.629751 24.214635 
L 295.404583 132.994487 
L 296.179415 173.325481 
L 296.954247 168.281858 
L 297.729079 130.467279 
L 298.50391 111.559989 
L 300.053574 115.462223 
L 302.37807 186.087042 
L 303.152901 204.040959 
L 303.927733 154.358232 
L 304.702565 135.722193 
L 305.477397 151.904168 
L 306.252229 203.662199 
L 307.027061 229.541214 
L 307.801893 243.026596 
L 308.576724 249.76929 
L 309.351556 253.140633 
L 310.126388 250.996458 
L 310.90122 226.993766 
L 311.676052 197.539957 
L 312.450884 211.706577 
L 313.225716 217.72335 
L 314.000547 220.731736 
L 314.775379 238.621859 
L 315.550211 247.566918 
L 316.325043 252.039444 
L 317.099875 237.792827 
L 318.649538 228.998543 
L 319.42437 226.466293 
L 320.199202 219.479634 
L 320.974034 161.883656 
L 321.748866 92.848024 
L 322.523698 57.360642 
L 323.29853 39.616945 
L 324.073361 30.745084 
L 324.848193 26.309178 
L 325.623025 62.195755 
L 326.397857 42.034507 
L 327.172689 32.923447 
L 327.947521 29.33751 
L 328.722353 28.514124 
L 329.497184 28.10243 
L 331.046848 27.79366 
L 333.371344 27.703614 
L 334.146175 37.392991 
L 334.921007 70.743364 
L 335.695839 96.144803 
L 336.470671 106.906353 
L 337.245503 165.904987 
L 338.020335 190.168564 
L 339.569998 164.638122 
L 340.34483 199.812692 
L 341.119662 159.903796 
L 341.894494 169.7155 
L 342.669326 174.62135 
L 343.444158 177.074277 
L 344.21899 170.738005 
L 344.993821 167.569869 
L 345.768653 165.888843 
L 346.543485 181.046425 
L 347.318317 172.530163 
L 348.093149 169.144652 
L 348.867981 167.645819 
L 350.417644 134.81637 
L 351.192476 194.6849 
L 351.967308 224.619161 
L 352.74214 239.053022 
L 353.516972 179.330046 
L 354.291804 150.438137 
L 355.066635 143.457955 
L 355.841467 139.967876 
L 356.616299 138.125872 
L 357.391131 164.644028 
L 358.165963 178.000061 
L 358.940795 174.400519 
L 359.715627 172.89162 
L 360.490458 172.13717 
L 362.040122 171.23198 
L 362.814954 170.240811 
L 363.589786 173.138761 
L 364.364618 195.142865 
L 365.13945 172.985228 
L 365.914281 187.891195 
L 366.689113 178.279543 
L 367.463945 171.340638 
L 368.238777 176.597417 
L 369.788441 176.322325 
L 370.563272 176.276479 
L 371.338104 199.717427 
L 372.112936 192.628019 
L 372.887768 188.889395 
L 373.6626 182.850886 
L 374.437432 155.495135 
L 375.212264 143.659458 
L 376.761927 195.67243 
L 377.536759 209.221486 
L 378.311591 204.167116 
L 379.086423 201.639937 
L 379.861255 192.619692 
L 380.636087 188.012612 
L 381.410918 201.028463 
L 382.18575 202.494558 
L 382.18575 202.494558 
" clip-path="url(#pe1747879fb)" style="fill: none; stroke: #000000; stroke-linecap: square"/>
   </g>
   <g id="line2d_104">
    <path d="M 57.531205 214.066656 
L 58.306037 214.392346 
L 59.8557 210.934312 
L 60.630532 207.701467 
L 61.405364 206.259676 
L 62.180196 216.497303 
L 63.72986 213.016092 
L 64.504691 206.631234 
L 65.279523 202.195819 
L 66.054355 227.125838 
L 66.829187 209.556135 
L 67.604019 204.47298 
L 68.378851 205.858629 
L 69.153683 208.743515 
L 69.928514 207.346718 
L 70.703346 210.430803 
L 71.478178 214.13976 
L 72.25301 211.081424 
L 73.027842 214.531507 
L 73.802674 214.146065 
L 74.577505 218.709031 
L 75.352337 222.600051 
L 76.127169 221.294093 
L 76.902001 222.963899 
L 77.676833 223.65911 
L 78.451665 224.676872 
L 79.226497 225.468998 
L 80.001328 233.901179 
L 80.77616 236.685223 
L 81.550992 238.766918 
L 82.325824 242.645001 
L 83.100656 244.174655 
L 83.875488 243.611813 
L 84.65032 223.124873 
L 86.199983 202.257986 
L 86.974815 198.405071 
L 87.749647 197.358836 
L 88.524479 196.616375 
L 89.299311 196.949568 
L 90.074143 199.373866 
L 90.848974 229.784464 
L 91.623806 242.242835 
L 92.398638 248.96842 
L 93.17347 250.470005 
L 93.948302 250.378261 
L 94.723134 249.945482 
L 95.497965 249.156537 
L 96.272797 250.24905 
L 97.047629 231.287363 
L 97.822461 215.798745 
L 98.597293 204.773678 
L 99.372125 202.047304 
L 100.146957 201.236481 
L 100.921788 199.520386 
L 101.69662 198.238448 
L 102.471452 229.202964 
L 103.246284 244.982472 
L 104.021116 251.239942 
L 105.57078 249.649927 
L 106.345611 249.317426 
L 107.120443 249.154099 
L 107.895275 247.390181 
L 108.670107 246.64452 
L 109.444939 248.873445 
L 110.219771 252.515116 
L 110.994602 248.433221 
L 111.769434 235.52153 
L 112.544266 212.61582 
L 113.319098 205.057706 
L 114.09393 204.188343 
L 114.868762 205.148172 
L 115.643594 204.548238 
L 116.418425 211.019106 
L 117.193257 233.050997 
L 117.968089 242.435071 
L 118.742921 246.908415 
L 119.517753 247.899135 
L 120.292585 246.522115 
L 121.067417 251.597706 
L 121.842248 252.301665 
L 122.61708 242.547593 
L 123.391912 234.265696 
L 124.166744 220.231485 
L 124.941576 222.900938 
L 125.716408 230.750756 
L 126.491239 227.759661 
L 127.266071 226.140908 
L 128.040903 224.144247 
L 128.815735 241.716342 
L 130.365399 253.891509 
L 131.140231 252.562429 
L 131.915062 252.316708 
L 132.689894 251.853647 
L 134.239558 257.616 
L 135.01439 256.036311 
L 135.789222 257.060704 
L 136.564054 236.724275 
L 137.338885 240.113869 
L 138.113717 240.020254 
L 139.663381 251.591155 
L 140.438213 249.015456 
L 141.213045 242.866074 
L 141.987877 247.795922 
L 142.762708 230.039536 
L 143.53754 223.101287 
L 144.312372 219.833364 
L 145.087204 213.999903 
L 145.862036 212.506313 
L 146.636868 211.800493 
L 147.411699 212.762393 
L 148.186531 213.515032 
L 148.961363 211.288066 
L 149.736195 217.436571 
L 150.511027 205.255404 
L 151.285859 199.614077 
L 152.060691 211.831098 
L 152.835522 203.530224 
L 153.610354 202.340587 
L 154.385186 233.045203 
L 155.160018 215.531231 
L 155.93485 210.406832 
L 157.484514 238.486873 
L 159.809009 244.848675 
L 160.583841 246.556906 
L 162.133505 190.85584 
L 162.908336 183.530652 
L 163.683168 171.971038 
L 164.458 167.299157 
L 165.232832 166.718562 
L 166.007664 167.526852 
L 166.782496 169.468057 
L 167.557328 168.830154 
L 168.332159 167.414502 
L 169.106991 183.653247 
L 169.881823 219.072023 
L 170.656655 207.064646 
L 171.431487 186.619969 
L 172.206319 151.291705 
L 172.981151 142.649813 
L 173.755982 139.760929 
L 174.530814 133.391173 
L 175.305646 131.435215 
L 176.080478 130.509793 
L 176.85531 127.878276 
L 177.630142 142.260631 
L 178.404973 150.589422 
L 179.179805 154.938383 
L 179.954637 157.79395 
L 180.729469 151.064199 
L 181.504301 185.334717 
L 182.279133 202.51504 
L 183.053965 205.58652 
L 183.828796 219.852133 
L 184.603628 228.891652 
L 186.153292 225.176393 
L 186.928124 223.713037 
L 187.702956 224.073491 
L 188.477788 220.819386 
L 189.252619 227.889158 
L 190.027451 227.936658 
L 190.802283 226.501661 
L 191.577115 225.769998 
L 192.351947 222.756785 
L 193.126779 221.519229 
L 193.901611 219.179296 
L 195.451274 218.514085 
L 196.226106 214.276051 
L 197.000938 187.152516 
L 197.77577 168.239658 
L 198.550602 156.930215 
L 199.325433 131.440908 
L 200.100265 121.960112 
L 200.875097 129.223464 
L 201.649929 201.990422 
L 202.424761 191.058023 
L 203.199593 207.357432 
L 203.974425 216.292957 
L 204.749256 187.18413 
L 205.524088 166.02219 
L 206.29892 158.00082 
L 207.073752 157.411988 
L 207.848584 158.618727 
L 208.623416 160.913222 
L 209.398248 161.960825 
L 210.173079 160.997149 
L 210.947911 168.871034 
L 211.722743 172.663954 
L 212.497575 161.320737 
L 214.047239 143.583793 
L 214.82207 125.331479 
L 215.596902 76.91673 
L 216.371734 54.866005 
L 217.146566 46.36446 
L 217.921398 47.339676 
L 218.69623 47.475479 
L 219.471062 47.319721 
L 220.245893 40.962286 
L 221.020725 47.347795 
L 221.795557 44.371587 
L 222.570389 51.519955 
L 223.345221 83.714737 
L 224.120053 63.823331 
L 224.894885 57.15889 
L 225.669716 53.765095 
L 226.444548 91.151659 
L 227.21938 115.707223 
L 227.994212 130.697957 
L 228.769044 165.888322 
L 229.543876 208.864781 
L 230.318707 179.482194 
L 231.093539 170.351303 
L 231.868371 143.364181 
L 232.643203 69.169972 
L 233.418035 41.559445 
L 234.192867 64.006797 
L 234.967699 40.221181 
L 235.74253 36.747092 
L 236.517362 30.226349 
L 237.292194 31.198463 
L 238.067026 31.840692 
L 239.61669 77.805095 
L 240.391522 79.505354 
L 241.166353 155.517043 
L 241.941185 185.521135 
L 242.716017 187.667553 
L 244.265681 88.784233 
L 245.040513 67.892615 
L 245.815345 60.303402 
L 246.590176 59.026057 
L 247.365008 79.56155 
L 248.13984 72.753589 
L 248.914672 131.114278 
L 249.689504 159.913596 
L 251.239167 192.962591 
L 252.013999 201.190724 
L 252.788831 203.664666 
L 254.338495 202.34702 
L 255.113327 201.553536 
L 255.888159 171.899556 
L 256.66299 173.479594 
L 257.437822 159.858258 
L 258.212654 154.363842 
L 258.987486 151.385148 
L 259.762318 170.33613 
L 260.53715 175.179131 
L 261.311982 165.994802 
L 262.086813 187.213748 
L 262.861645 198.490004 
L 263.636477 204.11002 
L 264.411309 223.323423 
L 265.186141 217.603428 
L 265.960973 206.284957 
L 266.735804 201.669224 
L 267.510636 175.761531 
L 268.285468 162.814304 
L 269.0603 157.098282 
L 269.835132 178.28642 
L 270.609964 188.087822 
L 271.384796 193.227669 
L 272.159627 194.893457 
L 272.934459 195.436888 
L 273.709291 195.778129 
L 274.484123 193.701245 
L 275.258955 194.602008 
L 276.808619 227.058916 
L 277.58345 198.805414 
L 278.358282 189.523393 
L 279.133114 204.665979 
L 279.907946 197.128797 
L 280.682778 194.185166 
L 281.45761 192.552886 
L 282.232441 191.447649 
L 283.007273 212.362349 
L 283.782105 189.671464 
L 284.556937 185.015827 
L 285.331769 153.854788 
L 286.106601 131.768237 
L 286.881433 128.040106 
L 287.656264 137.902379 
L 288.431096 140.030546 
L 289.205928 136.970328 
L 289.98076 135.732916 
L 290.755592 135.883502 
L 291.530424 152.55196 
L 292.305256 136.926015 
L 293.080087 114.736091 
L 293.854919 70.582955 
L 294.629751 56.679828 
L 295.404583 48.414998 
L 296.179415 143.469318 
L 296.954247 180.182974 
L 297.729079 172.058823 
L 298.50391 132.342221 
L 299.278742 113.443394 
L 300.053574 117.555985 
L 300.828406 119.894603 
L 303.152901 187.658966 
L 303.927733 201.050157 
L 304.702565 150.252151 
L 305.477397 128.547526 
L 307.027061 217.691521 
L 307.801893 236.131258 
L 308.576724 251.094505 
L 309.351556 241.95618 
L 310.126388 229.247158 
L 310.90122 234.871566 
L 311.676052 215.358477 
L 312.450884 182.805295 
L 313.225716 199.613456 
L 314.000547 210.218961 
L 314.775379 218.263035 
L 315.550211 237.936506 
L 316.325043 241.220141 
L 317.099875 240.346938 
L 317.874707 225.473596 
L 318.649538 222.798267 
L 319.42437 221.538601 
L 320.199202 215.747795 
L 320.974034 205.717144 
L 322.523698 69.129956 
L 323.29853 44.857112 
L 324.073361 41.568748 
L 324.848193 31.357582 
L 325.623025 29.354364 
L 326.397857 60.915084 
L 327.172689 52.534015 
L 327.947521 45.96581 
L 328.722353 34.43295 
L 329.497184 33.436359 
L 330.272016 34.88685 
L 331.046848 31.63558 
L 331.82168 35.189512 
L 333.371344 45.262366 
L 334.146175 34.427009 
L 335.695839 85.530217 
L 336.470671 107.87294 
L 337.245503 115.20972 
L 338.020335 172.251266 
L 338.795167 194.629804 
L 339.569998 178.970051 
L 340.34483 165.74195 
L 341.119662 198.943608 
L 341.894494 159.331995 
L 342.669326 168.096978 
L 343.444158 172.139288 
L 344.21899 171.548296 
L 344.993821 166.686605 
L 345.768653 163.061552 
L 346.543485 162.747462 
L 347.318317 180.008096 
L 348.093149 170.253848 
L 348.867981 166.927196 
L 349.642813 165.984913 
L 350.417644 132.75627 
L 351.192476 155.941909 
L 351.967308 205.050155 
L 353.516972 229.809677 
L 354.291804 169.258044 
L 355.066635 145.07379 
L 355.841467 144.055363 
L 356.616299 142.462726 
L 357.391131 142.1897 
L 358.165963 168.551772 
L 358.940795 181.478748 
L 359.715627 177.849771 
L 360.490458 175.194559 
L 361.26529 173.058266 
L 362.814954 171.996704 
L 363.589786 171.942845 
L 364.364618 175.276326 
L 365.13945 197.753657 
L 365.914281 173.23737 
L 366.689113 188.514481 
L 367.463945 181.307255 
L 368.238777 170.998142 
L 369.013609 171.921707 
L 370.563272 184.772917 
L 371.338104 188.872352 
L 372.112936 215.60413 
L 372.887768 195.636089 
L 373.6626 181.100757 
L 374.437432 178.163293 
L 375.212264 151.053168 
L 375.987095 141.092707 
L 377.536759 200.71252 
L 378.311591 215.973949 
L 379.086423 210.625506 
L 379.861255 206.30938 
L 380.636087 196.381732 
L 381.410918 190.738134 
L 382.18575 203.743119 
L 382.18575 203.743119 
" clip-path="url(#pe1747879fb)" style="fill: none; stroke-dasharray: 3.7,1.6; stroke-dashoffset: 0; stroke: #ff0000"/>
   </g>
   <g id="patch_3">
    <path d="M 41.298478 269.712 
L 41.298478 3.6 
" style="fill: none; stroke: #000000; stroke-width: 0.5; stroke-linejoin: miter; stroke-linecap: square"/>
   </g>
   <g id="patch_4">
    <path d="M 398.418478 269.712 
L 398.418478 3.6 
" style="fill: none; stroke: #000000; stroke-width: 0.5; stroke-linejoin: miter; stroke-linecap: square"/>
   </g>
   <g id="patch_5">
    <path d="M 41.298478 269.712 
L 398.418478 269.712 
" style="fill: none; stroke: #000000; stroke-width: 0.5; stroke-linejoin: miter; stroke-linecap: square"/>
   </g>
   <g id="patch_6">
    <path d="M 41.298478 3.6 
L 398.418478 3.6 
" style="fill: none; stroke: #000000; stroke-width: 0.5; stroke-linejoin: miter; stroke-linecap: square"/>
   </g>
   <g id="legend_1">
    <g id="line2d_105">
     <path d="M 48.498478 13.6 
L 56.498478 13.6 
L 64.498478 13.6 
" style="fill: none; stroke: #000000; stroke-linecap: square"/>
    </g>
    <g id="text_15">
     <!-- spatial evaporation actual -->
     <g transform="translate(70.898478 16.4) scale(0.08 -0.08)">
      <defs>
       <path id="NimbusRomNo9L-Regu-65" d="M 2611 1053 
C 2304 564 2029 378 1619 378 
C 1254 378 979 564 794 930 
C 678 1174 634 1386 621 1779 
L 2592 1779 
C 2541 2193 2477 2377 2317 2581 
C 2125 2811 1830 2944 1498 2944 
C 1178 2944 877 2829 634 2611 
C 333 2349 160 1894 160 1370 
C 160 486 621 -64 1357 -64 
C 1965 -64 2445 315 2714 1008 
L 2611 1053 
z
M 634 1984 
C 704 2479 922 2714 1312 2714 
C 1702 2714 1856 2535 1939 1984 
L 634 1984 
z
" transform="scale(0.015625)"/>
       <path id="NimbusRomNo9L-Regu-76" d="M 3053 2854 
L 2163 2854 
L 2163 2758 
C 2368 2739 2464 2675 2464 2552 
C 2464 2488 2451 2424 2426 2359 
L 1792 695 
L 1139 2340 
C 1101 2431 1082 2520 1082 2578 
C 1082 2694 1152 2739 1376 2758 
L 1376 2854 
L 122 2854 
L 122 2752 
C 365 2752 410 2688 704 2024 
L 1472 175 
C 1485 137 1504 91 1523 40 
C 1562 -76 1600 -128 1638 -128 
C 1677 -128 1722 -44 1818 193 
L 2637 2257 
C 2822 2694 2861 2739 3053 2758 
L 3053 2854 
z
" transform="scale(0.015625)"/>
       <path id="NimbusRomNo9L-Regu-6f" d="M 1600 2944 
C 768 2944 186 2330 186 1446 
C 186 582 781 -64 1587 -64 
C 2394 -64 3008 614 3008 1498 
C 3008 2336 2419 2944 1600 2944 
z
M 1517 2765 
C 2054 2765 2432 2150 2432 1274 
C 2432 550 2144 115 1664 115 
C 1414 115 1178 269 1043 525 
C 864 858 762 1306 762 1760 
C 762 2368 1062 2765 1517 2765 
z
" transform="scale(0.015625)"/>
       <path id="NimbusRomNo9L-Regu-63" d="M 2547 998 
C 2240 550 2010 397 1645 397 
C 1062 397 653 909 653 1645 
C 653 2304 1005 2758 1523 2758 
C 1754 2758 1837 2688 1901 2451 
L 1939 2310 
C 1990 2131 2106 2016 2240 2016 
C 2406 2016 2547 2138 2547 2285 
C 2547 2643 2099 2944 1562 2944 
C 1248 2944 922 2816 659 2586 
C 339 2304 160 1869 160 1363 
C 160 531 666 -64 1376 -64 
C 1664 -64 1920 38 2150 237 
C 2323 390 2445 563 2637 941 
L 2547 998 
z
" transform="scale(0.015625)"/>
       <path id="NimbusRomNo9L-Regu-75" d="M 3066 320 
L 3034 320 
C 2739 320 2669 390 2669 685 
L 2669 2880 
L 1658 2880 
L 1658 2758 
C 2054 2758 2131 2694 2131 2375 
L 2131 875 
C 2131 697 2099 607 2010 537 
C 1837 397 1638 320 1446 320 
C 1197 320 992 537 992 805 
L 992 2880 
L 58 2880 
L 58 2778 
C 365 2778 454 2682 454 2387 
L 454 770 
C 454 263 762 -64 1229 -64 
C 1466 -64 1715 38 1888 211 
L 2163 486 
L 2163 -45 
L 2189 -58 
C 2509 70 2739 141 3066 230 
L 3066 320 
z
" transform="scale(0.015625)"/>
      </defs>
      <use xlink:href="#NimbusRomNo9L-Regu-73" transform="scale(0.996264)"/>
      <use xlink:href="#NimbusRomNo9L-Regu-70" transform="translate(38.753706 0) scale(0.996264)"/>
      <use xlink:href="#NimbusRomNo9L-Regu-61" transform="translate(88.566907 0) scale(0.996264)"/>
      <use xlink:href="#NimbusRomNo9L-Regu-74" transform="translate(132.800475 0) scale(0.996264)"/>
      <use xlink:href="#NimbusRomNo9L-Regu-69" transform="translate(160.495645 0) scale(0.996264)"/>
      <use xlink:href="#NimbusRomNo9L-Regu-61" transform="translate(188.190815 0) scale(0.996264)"/>
      <use xlink:href="#NimbusRomNo9L-Regu-6c" transform="translate(232.424383 0) scale(0.996264)"/>
      <use xlink:href="#NimbusRomNo9L-Regu-65" transform="translate(285.026153 0) scale(0.996264)"/>
      <use xlink:href="#NimbusRomNo9L-Regu-76" transform="translate(326.769092 0) scale(0.996264)"/>
      <use xlink:href="#NimbusRomNo9L-Regu-61" transform="translate(374.091663 0) scale(0.996264)"/>
      <use xlink:href="#NimbusRomNo9L-Regu-70" transform="translate(418.325232 0) scale(0.996264)"/>
      <use xlink:href="#NimbusRomNo9L-Regu-6f" transform="translate(468.138432 0) scale(0.996264)"/>
      <use xlink:href="#NimbusRomNo9L-Regu-72" transform="translate(517.951633 0) scale(0.996264)"/>
      <use xlink:href="#NimbusRomNo9L-Regu-61" transform="translate(551.126863 0) scale(0.996264)"/>
      <use xlink:href="#NimbusRomNo9L-Regu-74" transform="translate(595.360431 0) scale(0.996264)"/>
      <use xlink:href="#NimbusRomNo9L-Regu-69" transform="translate(623.055601 0) scale(0.996264)"/>
      <use xlink:href="#NimbusRomNo9L-Regu-6f" transform="translate(650.75077 0) scale(0.996264)"/>
      <use xlink:href="#NimbusRomNo9L-Regu-6e" transform="translate(700.563971 0) scale(0.996264)"/>
      <use xlink:href="#NimbusRomNo9L-Regu-61" transform="translate(775.283772 0) scale(0.996264)"/>
      <use xlink:href="#NimbusRomNo9L-Regu-63" transform="translate(819.51734 0) scale(0.996264)"/>
      <use xlink:href="#NimbusRomNo9L-Regu-74" transform="translate(863.750909 0) scale(0.996264)"/>
      <use xlink:href="#NimbusRomNo9L-Regu-75" transform="translate(891.446079 0) scale(0.996264)"/>
      <use xlink:href="#NimbusRomNo9L-Regu-61" transform="translate(941.259279 0) scale(0.996264)"/>
      <use xlink:href="#NimbusRomNo9L-Regu-6c" transform="translate(985.492848 0) scale(0.996264)"/>
     </g>
    </g>
    <g id="line2d_106">
     <path d="M 48.498478 24.925463 
L 56.498478 24.925463 
L 64.498478 24.925463 
" style="fill: none; stroke-dasharray: 3.7,1.6; stroke-dashoffset: 0; stroke: #ff0000"/>
    </g>
    <g id="text_16">
     <!-- spatial evaporation predict -->
     <g transform="translate(70.898478 27.725463) scale(0.08 -0.08)">
      <use xlink:href="#NimbusRomNo9L-Regu-73" transform="scale(0.996264)"/>
      <use xlink:href="#NimbusRomNo9L-Regu-70" transform="translate(38.753706 0) scale(0.996264)"/>
      <use xlink:href="#NimbusRomNo9L-Regu-61" transform="translate(88.566907 0) scale(0.996264)"/>
      <use xlink:href="#NimbusRomNo9L-Regu-74" transform="translate(132.800475 0) scale(0.996264)"/>
      <use xlink:href="#NimbusRomNo9L-Regu-69" transform="translate(160.495645 0) scale(0.996264)"/>
      <use xlink:href="#NimbusRomNo9L-Regu-61" transform="translate(188.190815 0) scale(0.996264)"/>
      <use xlink:href="#NimbusRomNo9L-Regu-6c" transform="translate(232.424383 0) scale(0.996264)"/>
      <use xlink:href="#NimbusRomNo9L-Regu-65" transform="translate(285.026153 0) scale(0.996264)"/>
      <use xlink:href="#NimbusRomNo9L-Regu-76" transform="translate(326.769092 0) scale(0.996264)"/>
      <use xlink:href="#NimbusRomNo9L-Regu-61" transform="translate(374.091663 0) scale(0.996264)"/>
      <use xlink:href="#NimbusRomNo9L-Regu-70" transform="translate(418.325232 0) scale(0.996264)"/>
      <use xlink:href="#NimbusRomNo9L-Regu-6f" transform="translate(468.138432 0) scale(0.996264)"/>
      <use xlink:href="#NimbusRomNo9L-Regu-72" transform="translate(517.951633 0) scale(0.996264)"/>
      <use xlink:href="#NimbusRomNo9L-Regu-61" transform="translate(551.126863 0) scale(0.996264)"/>
      <use xlink:href="#NimbusRomNo9L-Regu-74" transform="translate(595.360431 0) scale(0.996264)"/>
      <use xlink:href="#NimbusRomNo9L-Regu-69" transform="translate(623.055601 0) scale(0.996264)"/>
      <use xlink:href="#NimbusRomNo9L-Regu-6f" transform="translate(650.75077 0) scale(0.996264)"/>
      <use xlink:href="#NimbusRomNo9L-Regu-6e" transform="translate(700.563971 0) scale(0.996264)"/>
      <use xlink:href="#NimbusRomNo9L-Regu-70" transform="translate(775.283772 0) scale(0.996264)"/>
      <use xlink:href="#NimbusRomNo9L-Regu-72" transform="translate(825.096972 0) scale(0.996264)"/>
      <use xlink:href="#NimbusRomNo9L-Regu-65" transform="translate(858.272202 0) scale(0.996264)"/>
      <use xlink:href="#NimbusRomNo9L-Regu-64" transform="translate(902.505771 0) scale(0.996264)"/>
      <use xlink:href="#NimbusRomNo9L-Regu-69" transform="translate(952.318971 0) scale(0.996264)"/>
      <use xlink:href="#NimbusRomNo9L-Regu-63" transform="translate(980.014141 0) scale(0.996264)"/>
      <use xlink:href="#NimbusRomNo9L-Regu-74" transform="translate(1024.247709 0) scale(0.996264)"/>
     </g>
    </g>
   </g>
  </g>
 </g>
 <defs>
  <clipPath id="pe1747879fb">
   <rect x="41.298478" y="3.6" width="357.12" height="266.112"/>
  </clipPath>
 </defs>
</svg>
