<?xml version="1.0" encoding="utf-8" standalone="no"?>
<!DOCTYPE svg PUBLIC "-//W3C//DTD SVG 1.1//EN"
  "http://www.w3.org/Graphics/SVG/1.1/DTD/svg11.dtd">
<svg xmlns:xlink="http://www.w3.org/1999/xlink" width="402.018478pt" height="302.199372pt" viewBox="0 0 402.018478 302.199372" xmlns="http://www.w3.org/2000/svg" version="1.1">
 <metadata>
  <rdf:RDF xmlns:dc="http://purl.org/dc/elements/1.1/" xmlns:cc="http://creativecommons.org/ns#" xmlns:rdf="http://www.w3.org/1999/02/22-rdf-syntax-ns#">
   <cc:Work>
    <dc:type rdf:resource="http://purl.org/dc/dcmitype/StillImage"/>
    <dc:date>2024-03-16T22:15:59.171633</dc:date>
    <dc:format>image/svg+xml</dc:format>
    <dc:creator>
     <cc:Agent>
      <dc:title>Matplotlib v3.8.3, https://matplotlib.org/</dc:title>
     </cc:Agent>
    </dc:creator>
   </cc:Work>
  </rdf:RDF>
 </metadata>
 <defs>
  <style type="text/css">*{stroke-linejoin: round; stroke-linecap: butt}</style>
 </defs>
 <g id="figure_1">
  <g id="patch_1">
   <path d="M -0 302.199372 
L 402.018478 302.199372 
L 402.018478 0 
L -0 0 
z
" style="fill: #ffffff"/>
  </g>
  <g id="axes_1">
   <g id="patch_2">
    <path d="M 41.298478 269.712 
L 398.418478 269.712 
L 398.418478 3.6 
L 41.298478 3.6 
z
" style="fill: #ffffff"/>
   </g>
   <g id="matplotlib.axis_1">
    <g id="xtick_1">
     <g id="line2d_1">
      <defs>
       <path id="m9051510ec5" d="M 0 0 
L 0 -3 
" style="stroke: #000000; stroke-width: 0.5"/>
      </defs>
      <g>
       <use xlink:href="#m9051510ec5" x="57.531205" y="269.712" style="stroke: #000000; stroke-width: 0.5"/>
      </g>
     </g>
     <g id="line2d_2">
      <defs>
       <path id="m5dd2d95039" d="M 0 0 
L 0 3 
" style="stroke: #000000; stroke-width: 0.5"/>
      </defs>
      <g>
       <use xlink:href="#m5dd2d95039" x="57.531205" y="3.6" style="stroke: #000000; stroke-width: 0.5"/>
      </g>
     </g>
     <g id="text_1">
      <!-- $\mathdefault{0}$ -->
      <g transform="translate(55.538677 278.615656) scale(0.08 -0.08)">
       <defs>
        <path id="NimbusRomNo9L-Regu-30" d="M 1626 4352 
C 1274 4352 1005 4244 768 4020 
C 397 3661 154 2925 154 2176 
C 154 1479 365 730 666 372 
C 902 90 1229 -64 1600 -64 
C 1926 -64 2202 45 2432 269 
C 2803 621 3046 1364 3046 2138 
C 3046 3450 2464 4352 1626 4352 
z
M 1606 4186 
C 2144 4186 2432 3463 2432 2125 
C 2432 788 2150 103 1600 103 
C 1050 103 768 788 768 2119 
C 768 3476 1056 4186 1606 4186 
z
" transform="scale(0.015625)"/>
       </defs>
       <use xlink:href="#NimbusRomNo9L-Regu-30" transform="scale(0.996264)"/>
      </g>
     </g>
    </g>
    <g id="xtick_2">
     <g id="line2d_3">
      <g>
       <use xlink:href="#m9051510ec5" x="135.01439" y="269.712" style="stroke: #000000; stroke-width: 0.5"/>
      </g>
     </g>
     <g id="line2d_4">
      <g>
       <use xlink:href="#m5dd2d95039" x="135.01439" y="3.6" style="stroke: #000000; stroke-width: 0.5"/>
      </g>
     </g>
     <g id="text_2">
      <!-- $\mathdefault{100}$ -->
      <g transform="translate(129.036806 278.615656) scale(0.08 -0.08)">
       <defs>
        <path id="NimbusRomNo9L-Regu-31" d="M 1862 4339 
L 710 3757 
L 710 3667 
C 787 3699 858 3725 883 3738 
C 998 3783 1107 3808 1171 3808 
C 1306 3808 1363 3711 1363 3505 
L 1363 592 
C 1363 379 1312 232 1210 173 
C 1114 116 1024 96 755 96 
L 755 0 
L 2522 0 
L 2522 96 
C 2016 96 1914 160 1914 470 
L 1914 4327 
L 1862 4339 
z
" transform="scale(0.015625)"/>
       </defs>
       <use xlink:href="#NimbusRomNo9L-Regu-31" transform="scale(0.996264)"/>
       <use xlink:href="#NimbusRomNo9L-Regu-30" transform="translate(49.8132 0) scale(0.996264)"/>
       <use xlink:href="#NimbusRomNo9L-Regu-30" transform="translate(99.626401 0) scale(0.996264)"/>
      </g>
     </g>
    </g>
    <g id="xtick_3">
     <g id="line2d_5">
      <g>
       <use xlink:href="#m9051510ec5" x="212.497575" y="269.712" style="stroke: #000000; stroke-width: 0.5"/>
      </g>
     </g>
     <g id="line2d_6">
      <g>
       <use xlink:href="#m5dd2d95039" x="212.497575" y="3.6" style="stroke: #000000; stroke-width: 0.5"/>
      </g>
     </g>
     <g id="text_3">
      <!-- $\mathdefault{200}$ -->
      <g transform="translate(206.519991 278.615656) scale(0.08 -0.08)">
       <defs>
        <path id="NimbusRomNo9L-Regu-32" d="M 3040 875 
L 2957 907 
C 2720 544 2637 486 2349 486 
L 819 486 
L 1894 1609 
C 2464 2202 2714 2687 2714 3185 
C 2714 3823 2195 4313 1530 4313 
C 1178 4313 845 4173 608 3918 
C 403 3700 307 3496 198 3043 
L 333 3011 
C 589 3636 819 3840 1261 3840 
C 1798 3840 2163 3476 2163 2940 
C 2163 2443 1869 1850 1331 1282 
L 192 77 
L 192 0 
L 2688 0 
L 3040 875 
z
" transform="scale(0.015625)"/>
       </defs>
       <use xlink:href="#NimbusRomNo9L-Regu-32" transform="scale(0.996264)"/>
       <use xlink:href="#NimbusRomNo9L-Regu-30" transform="translate(49.8132 0) scale(0.996264)"/>
       <use xlink:href="#NimbusRomNo9L-Regu-30" transform="translate(99.626401 0) scale(0.996264)"/>
      </g>
     </g>
    </g>
    <g id="xtick_4">
     <g id="line2d_7">
      <g>
       <use xlink:href="#m9051510ec5" x="289.98076" y="269.712" style="stroke: #000000; stroke-width: 0.5"/>
      </g>
     </g>
     <g id="line2d_8">
      <g>
       <use xlink:href="#m5dd2d95039" x="289.98076" y="3.6" style="stroke: #000000; stroke-width: 0.5"/>
      </g>
     </g>
     <g id="text_4">
      <!-- $\mathdefault{300}$ -->
      <g transform="translate(284.003176 278.615656) scale(0.08 -0.08)">
       <defs>
        <path id="NimbusRomNo9L-Regu-33" d="M 979 2138 
C 1357 2138 1504 2125 1658 2068 
C 2054 1927 2304 1562 2304 1120 
C 2304 583 1939 167 1466 167 
C 1293 167 1165 212 928 365 
C 736 480 627 525 518 525 
C 371 525 275 436 275 301 
C 275 77 550 -64 998 -64 
C 1491 -64 1997 103 2298 365 
C 2598 628 2765 999 2765 1428 
C 2765 1754 2662 2055 2477 2253 
C 2349 2394 2227 2471 1946 2592 
C 2387 2893 2547 3130 2547 3476 
C 2547 3994 2138 4352 1549 4352 
C 1229 4352 947 4244 717 4039 
C 525 3866 429 3699 288 3315 
L 384 3290 
C 646 3757 934 3968 1338 3968 
C 1754 3968 2042 3687 2042 3284 
C 2042 3053 1946 2823 1786 2663 
C 1594 2471 1414 2375 979 2221 
L 979 2138 
z
" transform="scale(0.015625)"/>
       </defs>
       <use xlink:href="#NimbusRomNo9L-Regu-33" transform="scale(0.996264)"/>
       <use xlink:href="#NimbusRomNo9L-Regu-30" transform="translate(49.8132 0) scale(0.996264)"/>
       <use xlink:href="#NimbusRomNo9L-Regu-30" transform="translate(99.626401 0) scale(0.996264)"/>
      </g>
     </g>
    </g>
    <g id="xtick_5">
     <g id="line2d_9">
      <g>
       <use xlink:href="#m9051510ec5" x="367.463945" y="269.712" style="stroke: #000000; stroke-width: 0.5"/>
      </g>
     </g>
     <g id="line2d_10">
      <g>
       <use xlink:href="#m5dd2d95039" x="367.463945" y="3.6" style="stroke: #000000; stroke-width: 0.5"/>
      </g>
     </g>
     <g id="text_5">
      <!-- $\mathdefault{400}$ -->
      <g transform="translate(361.486361 278.615656) scale(0.08 -0.08)">
       <defs>
        <path id="NimbusRomNo9L-Regu-34" d="M 3021 1497 
L 2368 1497 
L 2368 4352 
L 2086 4352 
L 77 1497 
L 77 1088 
L 1875 1088 
L 1875 32 
L 2368 32 
L 2368 1088 
L 3021 1088 
L 3021 1497 
z
M 1869 1497 
L 333 1497 
L 1869 3698 
L 1869 1497 
z
" transform="scale(0.015625)"/>
       </defs>
       <use xlink:href="#NimbusRomNo9L-Regu-34" transform="scale(0.996264)"/>
       <use xlink:href="#NimbusRomNo9L-Regu-30" transform="translate(49.8132 0) scale(0.996264)"/>
       <use xlink:href="#NimbusRomNo9L-Regu-30" transform="translate(99.626401 0) scale(0.996264)"/>
      </g>
     </g>
    </g>
    <g id="xtick_6">
     <g id="line2d_11">
      <defs>
       <path id="m5c72c9b1cf" d="M 0 0 
L 0 -1.5 
" style="stroke: #000000; stroke-width: 0.5"/>
      </defs>
      <g>
       <use xlink:href="#m5c72c9b1cf" x="42.034568" y="269.712" style="stroke: #000000; stroke-width: 0.5"/>
      </g>
     </g>
     <g id="line2d_12">
      <defs>
       <path id="ma401979d1e" d="M 0 0 
L 0 1.5 
" style="stroke: #000000; stroke-width: 0.5"/>
      </defs>
      <g>
       <use xlink:href="#ma401979d1e" x="42.034568" y="3.6" style="stroke: #000000; stroke-width: 0.5"/>
      </g>
     </g>
    </g>
    <g id="xtick_7">
     <g id="line2d_13">
      <g>
       <use xlink:href="#m5c72c9b1cf" x="73.027842" y="269.712" style="stroke: #000000; stroke-width: 0.5"/>
      </g>
     </g>
     <g id="line2d_14">
      <g>
       <use xlink:href="#ma401979d1e" x="73.027842" y="3.6" style="stroke: #000000; stroke-width: 0.5"/>
      </g>
     </g>
    </g>
    <g id="xtick_8">
     <g id="line2d_15">
      <g>
       <use xlink:href="#m5c72c9b1cf" x="88.524479" y="269.712" style="stroke: #000000; stroke-width: 0.5"/>
      </g>
     </g>
     <g id="line2d_16">
      <g>
       <use xlink:href="#ma401979d1e" x="88.524479" y="3.6" style="stroke: #000000; stroke-width: 0.5"/>
      </g>
     </g>
    </g>
    <g id="xtick_9">
     <g id="line2d_17">
      <g>
       <use xlink:href="#m5c72c9b1cf" x="104.021116" y="269.712" style="stroke: #000000; stroke-width: 0.5"/>
      </g>
     </g>
     <g id="line2d_18">
      <g>
       <use xlink:href="#ma401979d1e" x="104.021116" y="3.6" style="stroke: #000000; stroke-width: 0.5"/>
      </g>
     </g>
    </g>
    <g id="xtick_10">
     <g id="line2d_19">
      <g>
       <use xlink:href="#m5c72c9b1cf" x="119.517753" y="269.712" style="stroke: #000000; stroke-width: 0.5"/>
      </g>
     </g>
     <g id="line2d_20">
      <g>
       <use xlink:href="#ma401979d1e" x="119.517753" y="3.6" style="stroke: #000000; stroke-width: 0.5"/>
      </g>
     </g>
    </g>
    <g id="xtick_11">
     <g id="line2d_21">
      <g>
       <use xlink:href="#m5c72c9b1cf" x="150.511027" y="269.712" style="stroke: #000000; stroke-width: 0.5"/>
      </g>
     </g>
     <g id="line2d_22">
      <g>
       <use xlink:href="#ma401979d1e" x="150.511027" y="3.6" style="stroke: #000000; stroke-width: 0.5"/>
      </g>
     </g>
    </g>
    <g id="xtick_12">
     <g id="line2d_23">
      <g>
       <use xlink:href="#m5c72c9b1cf" x="166.007664" y="269.712" style="stroke: #000000; stroke-width: 0.5"/>
      </g>
     </g>
     <g id="line2d_24">
      <g>
       <use xlink:href="#ma401979d1e" x="166.007664" y="3.6" style="stroke: #000000; stroke-width: 0.5"/>
      </g>
     </g>
    </g>
    <g id="xtick_13">
     <g id="line2d_25">
      <g>
       <use xlink:href="#m5c72c9b1cf" x="181.504301" y="269.712" style="stroke: #000000; stroke-width: 0.5"/>
      </g>
     </g>
     <g id="line2d_26">
      <g>
       <use xlink:href="#ma401979d1e" x="181.504301" y="3.6" style="stroke: #000000; stroke-width: 0.5"/>
      </g>
     </g>
    </g>
    <g id="xtick_14">
     <g id="line2d_27">
      <g>
       <use xlink:href="#m5c72c9b1cf" x="197.000938" y="269.712" style="stroke: #000000; stroke-width: 0.5"/>
      </g>
     </g>
     <g id="line2d_28">
      <g>
       <use xlink:href="#ma401979d1e" x="197.000938" y="3.6" style="stroke: #000000; stroke-width: 0.5"/>
      </g>
     </g>
    </g>
    <g id="xtick_15">
     <g id="line2d_29">
      <g>
       <use xlink:href="#m5c72c9b1cf" x="227.994212" y="269.712" style="stroke: #000000; stroke-width: 0.5"/>
      </g>
     </g>
     <g id="line2d_30">
      <g>
       <use xlink:href="#ma401979d1e" x="227.994212" y="3.6" style="stroke: #000000; stroke-width: 0.5"/>
      </g>
     </g>
    </g>
    <g id="xtick_16">
     <g id="line2d_31">
      <g>
       <use xlink:href="#m5c72c9b1cf" x="243.490849" y="269.712" style="stroke: #000000; stroke-width: 0.5"/>
      </g>
     </g>
     <g id="line2d_32">
      <g>
       <use xlink:href="#ma401979d1e" x="243.490849" y="3.6" style="stroke: #000000; stroke-width: 0.5"/>
      </g>
     </g>
    </g>
    <g id="xtick_17">
     <g id="line2d_33">
      <g>
       <use xlink:href="#m5c72c9b1cf" x="258.987486" y="269.712" style="stroke: #000000; stroke-width: 0.5"/>
      </g>
     </g>
     <g id="line2d_34">
      <g>
       <use xlink:href="#ma401979d1e" x="258.987486" y="3.6" style="stroke: #000000; stroke-width: 0.5"/>
      </g>
     </g>
    </g>
    <g id="xtick_18">
     <g id="line2d_35">
      <g>
       <use xlink:href="#m5c72c9b1cf" x="274.484123" y="269.712" style="stroke: #000000; stroke-width: 0.5"/>
      </g>
     </g>
     <g id="line2d_36">
      <g>
       <use xlink:href="#ma401979d1e" x="274.484123" y="3.6" style="stroke: #000000; stroke-width: 0.5"/>
      </g>
     </g>
    </g>
    <g id="xtick_19">
     <g id="line2d_37">
      <g>
       <use xlink:href="#m5c72c9b1cf" x="305.477397" y="269.712" style="stroke: #000000; stroke-width: 0.5"/>
      </g>
     </g>
     <g id="line2d_38">
      <g>
       <use xlink:href="#ma401979d1e" x="305.477397" y="3.6" style="stroke: #000000; stroke-width: 0.5"/>
      </g>
     </g>
    </g>
    <g id="xtick_20">
     <g id="line2d_39">
      <g>
       <use xlink:href="#m5c72c9b1cf" x="320.974034" y="269.712" style="stroke: #000000; stroke-width: 0.5"/>
      </g>
     </g>
     <g id="line2d_40">
      <g>
       <use xlink:href="#ma401979d1e" x="320.974034" y="3.6" style="stroke: #000000; stroke-width: 0.5"/>
      </g>
     </g>
    </g>
    <g id="xtick_21">
     <g id="line2d_41">
      <g>
       <use xlink:href="#m5c72c9b1cf" x="336.470671" y="269.712" style="stroke: #000000; stroke-width: 0.5"/>
      </g>
     </g>
     <g id="line2d_42">
      <g>
       <use xlink:href="#ma401979d1e" x="336.470671" y="3.6" style="stroke: #000000; stroke-width: 0.5"/>
      </g>
     </g>
    </g>
    <g id="xtick_22">
     <g id="line2d_43">
      <g>
       <use xlink:href="#m5c72c9b1cf" x="351.967308" y="269.712" style="stroke: #000000; stroke-width: 0.5"/>
      </g>
     </g>
     <g id="line2d_44">
      <g>
       <use xlink:href="#ma401979d1e" x="351.967308" y="3.6" style="stroke: #000000; stroke-width: 0.5"/>
      </g>
     </g>
    </g>
    <g id="xtick_23">
     <g id="line2d_45">
      <g>
       <use xlink:href="#m5c72c9b1cf" x="382.960582" y="269.712" style="stroke: #000000; stroke-width: 0.5"/>
      </g>
     </g>
     <g id="line2d_46">
      <g>
       <use xlink:href="#ma401979d1e" x="382.960582" y="3.6" style="stroke: #000000; stroke-width: 0.5"/>
      </g>
     </g>
    </g>
    <g id="text_6">
     <!-- days -->
     <g transform="translate(205.249382 295.148446) scale(0.16 -0.16)">
      <defs>
       <path id="NimbusRomNo9L-Regu-64" d="M 2202 -64 
L 3142 269 
L 3142 365 
C 3027 365 3014 365 2995 365 
C 2765 365 2714 435 2714 731 
L 2714 4364 
L 2682 4377 
C 2374 4268 2150 4204 1741 4096 
L 1741 3994 
C 1792 4000 1830 4000 1882 4000 
C 2118 4000 2176 3936 2176 3672 
L 2176 2669 
C 1933 2874 1760 2944 1504 2944 
C 768 2944 173 2221 173 1312 
C 173 493 653 -64 1357 -64 
C 1715 -64 1958 64 2176 365 
L 2176 -45 
L 2202 -64 
z
M 2176 653 
C 2176 608 2131 531 2067 461 
C 1952 333 1792 269 1606 269 
C 1075 269 723 781 723 1568 
C 723 2291 1037 2765 1523 2765 
C 1862 2765 2176 2464 2176 2125 
L 2176 653 
z
" transform="scale(0.015625)"/>
       <path id="NimbusRomNo9L-Regu-61" d="M 2829 423 
C 2720 333 2643 301 2547 301 
C 2400 301 2355 390 2355 672 
L 2355 1920 
C 2355 2253 2323 2438 2227 2592 
C 2086 2822 1811 2944 1434 2944 
C 832 2944 358 2630 358 2227 
C 358 2080 486 1952 634 1952 
C 787 1952 922 2080 922 2221 
C 922 2246 915 2278 909 2323 
C 896 2381 890 2432 890 2477 
C 890 2650 1094 2790 1350 2790 
C 1664 2790 1837 2605 1837 2259 
L 1837 1869 
C 851 1472 742 1421 467 1178 
C 326 1050 237 832 237 621 
C 237 218 518 -64 909 -64 
C 1190 -64 1453 70 1843 403 
C 1875 70 1990 -64 2253 -64 
C 2470 -64 2605 13 2829 256 
L 2829 423 
z
M 1837 783 
C 1837 584 1805 526 1670 449 
C 1517 359 1338 301 1203 301 
C 979 301 800 520 800 796 
L 800 822 
C 800 1201 1062 1433 1837 1715 
L 1837 783 
z
" transform="scale(0.015625)"/>
       <path id="NimbusRomNo9L-Regu-79" d="M 3040 2880 
L 2176 2880 
L 2176 2784 
C 2381 2784 2483 2726 2483 2623 
C 2483 2597 2477 2559 2458 2514 
L 1837 742 
L 1101 2377 
C 1062 2468 1037 2552 1037 2622 
C 1037 2739 1133 2784 1408 2784 
L 1408 2880 
L 90 2880 
L 90 2790 
C 256 2765 365 2694 416 2585 
L 1146 1005 
L 1165 953 
L 1261 761 
C 1440 440 1542 209 1542 112 
C 1542 16 1395 -389 1286 -582 
C 1197 -749 1056 -871 966 -871 
C 928 -871 870 -858 806 -826 
C 685 -781 576 -755 467 -755 
C 320 -755 192 -883 192 -1037 
C 192 -1248 397 -1408 666 -1408 
C 1094 -1408 1402 -1049 1747 -124 
L 2733 2495 
C 2816 2701 2886 2765 3040 2784 
L 3040 2880 
z
" transform="scale(0.015625)"/>
       <path id="NimbusRomNo9L-Regu-73" d="M 2016 2010 
L 1990 2880 
L 1920 2880 
L 1907 2867 
C 1850 2822 1843 2816 1818 2816 
C 1779 2816 1715 2829 1645 2861 
C 1504 2915 1363 2944 1197 2944 
C 691 2944 326 2616 326 2154 
C 326 1796 531 1539 1075 1231 
L 1446 1020 
C 1670 892 1779 737 1779 539 
C 1779 256 1574 77 1248 77 
C 1030 77 832 159 710 298 
C 576 455 518 600 435 960 
L 333 960 
L 333 -39 
L 416 -39 
C 461 33 486 48 563 48 
C 621 48 710 35 858 -2 
C 1037 -39 1210 -64 1325 -64 
C 1818 -64 2227 308 2227 757 
C 2227 1077 2074 1289 1690 1520 
L 998 1930 
C 819 2033 723 2194 723 2367 
C 723 2624 922 2803 1216 2803 
C 1581 2803 1773 2583 1920 2010 
L 2016 2010 
z
" transform="scale(0.015625)"/>
      </defs>
      <use xlink:href="#NimbusRomNo9L-Regu-64" transform="scale(0.996264)"/>
      <use xlink:href="#NimbusRomNo9L-Regu-61" transform="translate(49.8132 0) scale(0.996264)"/>
      <use xlink:href="#NimbusRomNo9L-Regu-79" transform="translate(94.046769 0) scale(0.996264)"/>
      <use xlink:href="#NimbusRomNo9L-Regu-73" transform="translate(143.85997 0) scale(0.996264)"/>
     </g>
    </g>
   </g>
   <g id="matplotlib.axis_2">
    <g id="ytick_1">
     <g id="line2d_47">
      <defs>
       <path id="meab2f1177e" d="M 0 0 
L 3 0 
" style="stroke: #000000; stroke-width: 0.5"/>
      </defs>
      <g>
       <use xlink:href="#meab2f1177e" x="41.298478" y="256.947514" style="stroke: #000000; stroke-width: 0.5"/>
      </g>
     </g>
     <g id="line2d_48">
      <defs>
       <path id="m97c657dcb6" d="M 0 0 
L -3 0 
" style="stroke: #000000; stroke-width: 0.5"/>
      </defs>
      <g>
       <use xlink:href="#m97c657dcb6" x="398.418478" y="256.947514" style="stroke: #000000; stroke-width: 0.5"/>
      </g>
     </g>
     <g id="text_7">
      <!-- $\mathdefault{0}$ -->
      <g transform="translate(33.813421 259.649342) scale(0.08 -0.08)">
       <use xlink:href="#NimbusRomNo9L-Regu-30" transform="scale(0.996264)"/>
      </g>
     </g>
    </g>
    <g id="ytick_2">
     <g id="line2d_49">
      <g>
       <use xlink:href="#meab2f1177e" x="41.298478" y="222.07049" style="stroke: #000000; stroke-width: 0.5"/>
      </g>
     </g>
     <g id="line2d_50">
      <g>
       <use xlink:href="#m97c657dcb6" x="398.418478" y="222.07049" style="stroke: #000000; stroke-width: 0.5"/>
      </g>
     </g>
     <g id="text_8">
      <!-- $\mathdefault{1000}$ -->
      <g transform="translate(21.858253 224.772318) scale(0.08 -0.08)">
       <use xlink:href="#NimbusRomNo9L-Regu-31" transform="scale(0.996264)"/>
       <use xlink:href="#NimbusRomNo9L-Regu-30" transform="translate(49.8132 0) scale(0.996264)"/>
       <use xlink:href="#NimbusRomNo9L-Regu-30" transform="translate(99.626401 0) scale(0.996264)"/>
       <use xlink:href="#NimbusRomNo9L-Regu-30" transform="translate(149.439601 0) scale(0.996264)"/>
      </g>
     </g>
    </g>
    <g id="ytick_3">
     <g id="line2d_51">
      <g>
       <use xlink:href="#meab2f1177e" x="41.298478" y="187.193465" style="stroke: #000000; stroke-width: 0.5"/>
      </g>
     </g>
     <g id="line2d_52">
      <g>
       <use xlink:href="#m97c657dcb6" x="398.418478" y="187.193465" style="stroke: #000000; stroke-width: 0.5"/>
      </g>
     </g>
     <g id="text_9">
      <!-- $\mathdefault{2000}$ -->
      <g transform="translate(21.858253 189.895293) scale(0.08 -0.08)">
       <use xlink:href="#NimbusRomNo9L-Regu-32" transform="scale(0.996264)"/>
       <use xlink:href="#NimbusRomNo9L-Regu-30" transform="translate(49.8132 0) scale(0.996264)"/>
       <use xlink:href="#NimbusRomNo9L-Regu-30" transform="translate(99.626401 0) scale(0.996264)"/>
       <use xlink:href="#NimbusRomNo9L-Regu-30" transform="translate(149.439601 0) scale(0.996264)"/>
      </g>
     </g>
    </g>
    <g id="ytick_4">
     <g id="line2d_53">
      <g>
       <use xlink:href="#meab2f1177e" x="41.298478" y="152.316441" style="stroke: #000000; stroke-width: 0.5"/>
      </g>
     </g>
     <g id="line2d_54">
      <g>
       <use xlink:href="#m97c657dcb6" x="398.418478" y="152.316441" style="stroke: #000000; stroke-width: 0.5"/>
      </g>
     </g>
     <g id="text_10">
      <!-- $\mathdefault{3000}$ -->
      <g transform="translate(21.858253 155.018269) scale(0.08 -0.08)">
       <use xlink:href="#NimbusRomNo9L-Regu-33" transform="scale(0.996264)"/>
       <use xlink:href="#NimbusRomNo9L-Regu-30" transform="translate(49.8132 0) scale(0.996264)"/>
       <use xlink:href="#NimbusRomNo9L-Regu-30" transform="translate(99.626401 0) scale(0.996264)"/>
       <use xlink:href="#NimbusRomNo9L-Regu-30" transform="translate(149.439601 0) scale(0.996264)"/>
      </g>
     </g>
    </g>
    <g id="ytick_5">
     <g id="line2d_55">
      <g>
       <use xlink:href="#meab2f1177e" x="41.298478" y="117.439416" style="stroke: #000000; stroke-width: 0.5"/>
      </g>
     </g>
     <g id="line2d_56">
      <g>
       <use xlink:href="#m97c657dcb6" x="398.418478" y="117.439416" style="stroke: #000000; stroke-width: 0.5"/>
      </g>
     </g>
     <g id="text_11">
      <!-- $\mathdefault{4000}$ -->
      <g transform="translate(21.858253 120.141244) scale(0.08 -0.08)">
       <use xlink:href="#NimbusRomNo9L-Regu-34" transform="scale(0.996264)"/>
       <use xlink:href="#NimbusRomNo9L-Regu-30" transform="translate(49.8132 0) scale(0.996264)"/>
       <use xlink:href="#NimbusRomNo9L-Regu-30" transform="translate(99.626401 0) scale(0.996264)"/>
       <use xlink:href="#NimbusRomNo9L-Regu-30" transform="translate(149.439601 0) scale(0.996264)"/>
      </g>
     </g>
    </g>
    <g id="ytick_6">
     <g id="line2d_57">
      <g>
       <use xlink:href="#meab2f1177e" x="41.298478" y="82.562391" style="stroke: #000000; stroke-width: 0.5"/>
      </g>
     </g>
     <g id="line2d_58">
      <g>
       <use xlink:href="#m97c657dcb6" x="398.418478" y="82.562391" style="stroke: #000000; stroke-width: 0.5"/>
      </g>
     </g>
     <g id="text_12">
      <!-- $\mathdefault{5000}$ -->
      <g transform="translate(21.858253 85.264219) scale(0.08 -0.08)">
       <defs>
        <path id="NimbusRomNo9L-Regu-35" d="M 1158 3776 
L 2413 3776 
C 2515 3776 2541 3789 2560 3834 
L 2803 4403 
L 2746 4448 
C 2650 4314 2586 4282 2451 4282 
L 1114 4282 
L 416 2759 
C 410 2746 410 2740 410 2727 
C 410 2695 435 2676 486 2676 
C 691 2676 947 2631 1210 2547 
C 1946 2309 2285 1910 2285 1274 
C 2285 656 1894 173 1395 173 
C 1267 173 1158 218 966 360 
C 762 508 614 572 480 572 
C 294 572 205 495 205 334 
C 205 90 506 -64 986 -64 
C 1523 -64 1984 110 2304 438 
C 2598 728 2733 1094 2733 1583 
C 2733 2046 2611 2342 2291 2663 
C 2010 2947 1645 3094 890 3229 
L 1158 3776 
z
" transform="scale(0.015625)"/>
       </defs>
       <use xlink:href="#NimbusRomNo9L-Regu-35" transform="scale(0.996264)"/>
       <use xlink:href="#NimbusRomNo9L-Regu-30" transform="translate(49.8132 0) scale(0.996264)"/>
       <use xlink:href="#NimbusRomNo9L-Regu-30" transform="translate(99.626401 0) scale(0.996264)"/>
       <use xlink:href="#NimbusRomNo9L-Regu-30" transform="translate(149.439601 0) scale(0.996264)"/>
      </g>
     </g>
    </g>
    <g id="ytick_7">
     <g id="line2d_59">
      <g>
       <use xlink:href="#meab2f1177e" x="41.298478" y="47.685367" style="stroke: #000000; stroke-width: 0.5"/>
      </g>
     </g>
     <g id="line2d_60">
      <g>
       <use xlink:href="#m97c657dcb6" x="398.418478" y="47.685367" style="stroke: #000000; stroke-width: 0.5"/>
      </g>
     </g>
     <g id="text_13">
      <!-- $\mathdefault{6000}$ -->
      <g transform="translate(21.858253 50.387195) scale(0.08 -0.08)">
       <defs>
        <path id="NimbusRomNo9L-Regu-36" d="M 2854 4391 
C 2125 4327 1754 4205 1286 3879 
C 595 3386 218 2656 218 1802 
C 218 1248 390 688 666 370 
C 909 89 1254 -64 1651 -64 
C 2445 -64 2995 541 2995 1421 
C 2995 2236 2528 2752 1792 2752 
C 1510 2752 1376 2707 973 2464 
C 1146 3431 1862 4122 2867 4288 
L 2854 4391 
z
M 1549 2458 
C 2099 2458 2419 2000 2419 1204 
C 2419 504 2170 116 1722 116 
C 1158 116 813 714 813 1700 
C 813 2025 864 2203 992 2299 
C 1126 2400 1325 2458 1549 2458 
z
" transform="scale(0.015625)"/>
       </defs>
       <use xlink:href="#NimbusRomNo9L-Regu-36" transform="scale(0.996264)"/>
       <use xlink:href="#NimbusRomNo9L-Regu-30" transform="translate(49.8132 0) scale(0.996264)"/>
       <use xlink:href="#NimbusRomNo9L-Regu-30" transform="translate(99.626401 0) scale(0.996264)"/>
       <use xlink:href="#NimbusRomNo9L-Regu-30" transform="translate(149.439601 0) scale(0.996264)"/>
      </g>
     </g>
    </g>
    <g id="ytick_8">
     <g id="line2d_61">
      <g>
       <use xlink:href="#meab2f1177e" x="41.298478" y="12.808342" style="stroke: #000000; stroke-width: 0.5"/>
      </g>
     </g>
     <g id="line2d_62">
      <g>
       <use xlink:href="#m97c657dcb6" x="398.418478" y="12.808342" style="stroke: #000000; stroke-width: 0.5"/>
      </g>
     </g>
     <g id="text_14">
      <!-- $\mathdefault{7000}$ -->
      <g transform="translate(21.858253 15.51017) scale(0.08 -0.08)">
       <defs>
        <path id="NimbusRomNo9L-Regu-37" d="M 2874 4250 
L 506 4250 
L 128 3310 
L 237 3258 
C 512 3693 627 3776 979 3776 
L 2368 3776 
L 1101 -32 
L 1517 -32 
L 2874 4148 
L 2874 4250 
z
" transform="scale(0.015625)"/>
       </defs>
       <use xlink:href="#NimbusRomNo9L-Regu-37" transform="scale(0.996264)"/>
       <use xlink:href="#NimbusRomNo9L-Regu-30" transform="translate(49.8132 0) scale(0.996264)"/>
       <use xlink:href="#NimbusRomNo9L-Regu-30" transform="translate(99.626401 0) scale(0.996264)"/>
       <use xlink:href="#NimbusRomNo9L-Regu-30" transform="translate(149.439601 0) scale(0.996264)"/>
      </g>
     </g>
    </g>
    <g id="ytick_9">
     <g id="line2d_63">
      <defs>
       <path id="m1fcb3e1e83" d="M 0 0 
L 1.5 0 
" style="stroke: #000000; stroke-width: 0.5"/>
      </defs>
      <g>
       <use xlink:href="#m1fcb3e1e83" x="41.298478" y="263.922919" style="stroke: #000000; stroke-width: 0.5"/>
      </g>
     </g>
     <g id="line2d_64">
      <defs>
       <path id="m62ae607ca3" d="M 0 0 
L -1.5 0 
" style="stroke: #000000; stroke-width: 0.5"/>
      </defs>
      <g>
       <use xlink:href="#m62ae607ca3" x="398.418478" y="263.922919" style="stroke: #000000; stroke-width: 0.5"/>
      </g>
     </g>
    </g>
    <g id="ytick_10">
     <g id="line2d_65">
      <g>
       <use xlink:href="#m1fcb3e1e83" x="41.298478" y="249.972109" style="stroke: #000000; stroke-width: 0.5"/>
      </g>
     </g>
     <g id="line2d_66">
      <g>
       <use xlink:href="#m62ae607ca3" x="398.418478" y="249.972109" style="stroke: #000000; stroke-width: 0.5"/>
      </g>
     </g>
    </g>
    <g id="ytick_11">
     <g id="line2d_67">
      <g>
       <use xlink:href="#m1fcb3e1e83" x="41.298478" y="242.996704" style="stroke: #000000; stroke-width: 0.5"/>
      </g>
     </g>
     <g id="line2d_68">
      <g>
       <use xlink:href="#m62ae607ca3" x="398.418478" y="242.996704" style="stroke: #000000; stroke-width: 0.5"/>
      </g>
     </g>
    </g>
    <g id="ytick_12">
     <g id="line2d_69">
      <g>
       <use xlink:href="#m1fcb3e1e83" x="41.298478" y="236.021299" style="stroke: #000000; stroke-width: 0.5"/>
      </g>
     </g>
     <g id="line2d_70">
      <g>
       <use xlink:href="#m62ae607ca3" x="398.418478" y="236.021299" style="stroke: #000000; stroke-width: 0.5"/>
      </g>
     </g>
    </g>
    <g id="ytick_13">
     <g id="line2d_71">
      <g>
       <use xlink:href="#m1fcb3e1e83" x="41.298478" y="229.045894" style="stroke: #000000; stroke-width: 0.5"/>
      </g>
     </g>
     <g id="line2d_72">
      <g>
       <use xlink:href="#m62ae607ca3" x="398.418478" y="229.045894" style="stroke: #000000; stroke-width: 0.5"/>
      </g>
     </g>
    </g>
    <g id="ytick_14">
     <g id="line2d_73">
      <g>
       <use xlink:href="#m1fcb3e1e83" x="41.298478" y="215.095085" style="stroke: #000000; stroke-width: 0.5"/>
      </g>
     </g>
     <g id="line2d_74">
      <g>
       <use xlink:href="#m62ae607ca3" x="398.418478" y="215.095085" style="stroke: #000000; stroke-width: 0.5"/>
      </g>
     </g>
    </g>
    <g id="ytick_15">
     <g id="line2d_75">
      <g>
       <use xlink:href="#m1fcb3e1e83" x="41.298478" y="208.11968" style="stroke: #000000; stroke-width: 0.5"/>
      </g>
     </g>
     <g id="line2d_76">
      <g>
       <use xlink:href="#m62ae607ca3" x="398.418478" y="208.11968" style="stroke: #000000; stroke-width: 0.5"/>
      </g>
     </g>
    </g>
    <g id="ytick_16">
     <g id="line2d_77">
      <g>
       <use xlink:href="#m1fcb3e1e83" x="41.298478" y="201.144275" style="stroke: #000000; stroke-width: 0.5"/>
      </g>
     </g>
     <g id="line2d_78">
      <g>
       <use xlink:href="#m62ae607ca3" x="398.418478" y="201.144275" style="stroke: #000000; stroke-width: 0.5"/>
      </g>
     </g>
    </g>
    <g id="ytick_17">
     <g id="line2d_79">
      <g>
       <use xlink:href="#m1fcb3e1e83" x="41.298478" y="194.16887" style="stroke: #000000; stroke-width: 0.5"/>
      </g>
     </g>
     <g id="line2d_80">
      <g>
       <use xlink:href="#m62ae607ca3" x="398.418478" y="194.16887" style="stroke: #000000; stroke-width: 0.5"/>
      </g>
     </g>
    </g>
    <g id="ytick_18">
     <g id="line2d_81">
      <g>
       <use xlink:href="#m1fcb3e1e83" x="41.298478" y="180.21806" style="stroke: #000000; stroke-width: 0.5"/>
      </g>
     </g>
     <g id="line2d_82">
      <g>
       <use xlink:href="#m62ae607ca3" x="398.418478" y="180.21806" style="stroke: #000000; stroke-width: 0.5"/>
      </g>
     </g>
    </g>
    <g id="ytick_19">
     <g id="line2d_83">
      <g>
       <use xlink:href="#m1fcb3e1e83" x="41.298478" y="173.242655" style="stroke: #000000; stroke-width: 0.5"/>
      </g>
     </g>
     <g id="line2d_84">
      <g>
       <use xlink:href="#m62ae607ca3" x="398.418478" y="173.242655" style="stroke: #000000; stroke-width: 0.5"/>
      </g>
     </g>
    </g>
    <g id="ytick_20">
     <g id="line2d_85">
      <g>
       <use xlink:href="#m1fcb3e1e83" x="41.298478" y="166.26725" style="stroke: #000000; stroke-width: 0.5"/>
      </g>
     </g>
     <g id="line2d_86">
      <g>
       <use xlink:href="#m62ae607ca3" x="398.418478" y="166.26725" style="stroke: #000000; stroke-width: 0.5"/>
      </g>
     </g>
    </g>
    <g id="ytick_21">
     <g id="line2d_87">
      <g>
       <use xlink:href="#m1fcb3e1e83" x="41.298478" y="159.291845" style="stroke: #000000; stroke-width: 0.5"/>
      </g>
     </g>
     <g id="line2d_88">
      <g>
       <use xlink:href="#m62ae607ca3" x="398.418478" y="159.291845" style="stroke: #000000; stroke-width: 0.5"/>
      </g>
     </g>
    </g>
    <g id="ytick_22">
     <g id="line2d_89">
      <g>
       <use xlink:href="#m1fcb3e1e83" x="41.298478" y="145.341036" style="stroke: #000000; stroke-width: 0.5"/>
      </g>
     </g>
     <g id="line2d_90">
      <g>
       <use xlink:href="#m62ae607ca3" x="398.418478" y="145.341036" style="stroke: #000000; stroke-width: 0.5"/>
      </g>
     </g>
    </g>
    <g id="ytick_23">
     <g id="line2d_91">
      <g>
       <use xlink:href="#m1fcb3e1e83" x="41.298478" y="138.365631" style="stroke: #000000; stroke-width: 0.5"/>
      </g>
     </g>
     <g id="line2d_92">
      <g>
       <use xlink:href="#m62ae607ca3" x="398.418478" y="138.365631" style="stroke: #000000; stroke-width: 0.5"/>
      </g>
     </g>
    </g>
    <g id="ytick_24">
     <g id="line2d_93">
      <g>
       <use xlink:href="#m1fcb3e1e83" x="41.298478" y="131.390226" style="stroke: #000000; stroke-width: 0.5"/>
      </g>
     </g>
     <g id="line2d_94">
      <g>
       <use xlink:href="#m62ae607ca3" x="398.418478" y="131.390226" style="stroke: #000000; stroke-width: 0.5"/>
      </g>
     </g>
    </g>
    <g id="ytick_25">
     <g id="line2d_95">
      <g>
       <use xlink:href="#m1fcb3e1e83" x="41.298478" y="124.414821" style="stroke: #000000; stroke-width: 0.5"/>
      </g>
     </g>
     <g id="line2d_96">
      <g>
       <use xlink:href="#m62ae607ca3" x="398.418478" y="124.414821" style="stroke: #000000; stroke-width: 0.5"/>
      </g>
     </g>
    </g>
    <g id="ytick_26">
     <g id="line2d_97">
      <g>
       <use xlink:href="#m1fcb3e1e83" x="41.298478" y="110.464011" style="stroke: #000000; stroke-width: 0.5"/>
      </g>
     </g>
     <g id="line2d_98">
      <g>
       <use xlink:href="#m62ae607ca3" x="398.418478" y="110.464011" style="stroke: #000000; stroke-width: 0.5"/>
      </g>
     </g>
    </g>
    <g id="ytick_27">
     <g id="line2d_99">
      <g>
       <use xlink:href="#m1fcb3e1e83" x="41.298478" y="103.488606" style="stroke: #000000; stroke-width: 0.5"/>
      </g>
     </g>
     <g id="line2d_100">
      <g>
       <use xlink:href="#m62ae607ca3" x="398.418478" y="103.488606" style="stroke: #000000; stroke-width: 0.5"/>
      </g>
     </g>
    </g>
    <g id="ytick_28">
     <g id="line2d_101">
      <g>
       <use xlink:href="#m1fcb3e1e83" x="41.298478" y="96.513201" style="stroke: #000000; stroke-width: 0.5"/>
      </g>
     </g>
     <g id="line2d_102">
      <g>
       <use xlink:href="#m62ae607ca3" x="398.418478" y="96.513201" style="stroke: #000000; stroke-width: 0.5"/>
      </g>
     </g>
    </g>
    <g id="ytick_29">
     <g id="line2d_103">
      <g>
       <use xlink:href="#m1fcb3e1e83" x="41.298478" y="89.537796" style="stroke: #000000; stroke-width: 0.5"/>
      </g>
     </g>
     <g id="line2d_104">
      <g>
       <use xlink:href="#m62ae607ca3" x="398.418478" y="89.537796" style="stroke: #000000; stroke-width: 0.5"/>
      </g>
     </g>
    </g>
    <g id="ytick_30">
     <g id="line2d_105">
      <g>
       <use xlink:href="#m1fcb3e1e83" x="41.298478" y="75.586987" style="stroke: #000000; stroke-width: 0.5"/>
      </g>
     </g>
     <g id="line2d_106">
      <g>
       <use xlink:href="#m62ae607ca3" x="398.418478" y="75.586987" style="stroke: #000000; stroke-width: 0.5"/>
      </g>
     </g>
    </g>
    <g id="ytick_31">
     <g id="line2d_107">
      <g>
       <use xlink:href="#m1fcb3e1e83" x="41.298478" y="68.611582" style="stroke: #000000; stroke-width: 0.5"/>
      </g>
     </g>
     <g id="line2d_108">
      <g>
       <use xlink:href="#m62ae607ca3" x="398.418478" y="68.611582" style="stroke: #000000; stroke-width: 0.5"/>
      </g>
     </g>
    </g>
    <g id="ytick_32">
     <g id="line2d_109">
      <g>
       <use xlink:href="#m1fcb3e1e83" x="41.298478" y="61.636177" style="stroke: #000000; stroke-width: 0.5"/>
      </g>
     </g>
     <g id="line2d_110">
      <g>
       <use xlink:href="#m62ae607ca3" x="398.418478" y="61.636177" style="stroke: #000000; stroke-width: 0.5"/>
      </g>
     </g>
    </g>
    <g id="ytick_33">
     <g id="line2d_111">
      <g>
       <use xlink:href="#m1fcb3e1e83" x="41.298478" y="54.660772" style="stroke: #000000; stroke-width: 0.5"/>
      </g>
     </g>
     <g id="line2d_112">
      <g>
       <use xlink:href="#m62ae607ca3" x="398.418478" y="54.660772" style="stroke: #000000; stroke-width: 0.5"/>
      </g>
     </g>
    </g>
    <g id="ytick_34">
     <g id="line2d_113">
      <g>
       <use xlink:href="#m1fcb3e1e83" x="41.298478" y="40.709962" style="stroke: #000000; stroke-width: 0.5"/>
      </g>
     </g>
     <g id="line2d_114">
      <g>
       <use xlink:href="#m62ae607ca3" x="398.418478" y="40.709962" style="stroke: #000000; stroke-width: 0.5"/>
      </g>
     </g>
    </g>
    <g id="ytick_35">
     <g id="line2d_115">
      <g>
       <use xlink:href="#m1fcb3e1e83" x="41.298478" y="33.734557" style="stroke: #000000; stroke-width: 0.5"/>
      </g>
     </g>
     <g id="line2d_116">
      <g>
       <use xlink:href="#m62ae607ca3" x="398.418478" y="33.734557" style="stroke: #000000; stroke-width: 0.5"/>
      </g>
     </g>
    </g>
    <g id="ytick_36">
     <g id="line2d_117">
      <g>
       <use xlink:href="#m1fcb3e1e83" x="41.298478" y="26.759152" style="stroke: #000000; stroke-width: 0.5"/>
      </g>
     </g>
     <g id="line2d_118">
      <g>
       <use xlink:href="#m62ae607ca3" x="398.418478" y="26.759152" style="stroke: #000000; stroke-width: 0.5"/>
      </g>
     </g>
    </g>
    <g id="ytick_37">
     <g id="line2d_119">
      <g>
       <use xlink:href="#m1fcb3e1e83" x="41.298478" y="19.783747" style="stroke: #000000; stroke-width: 0.5"/>
      </g>
     </g>
     <g id="line2d_120">
      <g>
       <use xlink:href="#m62ae607ca3" x="398.418478" y="19.783747" style="stroke: #000000; stroke-width: 0.5"/>
      </g>
     </g>
    </g>
    <g id="ytick_38">
     <g id="line2d_121">
      <g>
       <use xlink:href="#m1fcb3e1e83" x="41.298478" y="5.832938" style="stroke: #000000; stroke-width: 0.5"/>
      </g>
     </g>
     <g id="line2d_122">
      <g>
       <use xlink:href="#m62ae607ca3" x="398.418478" y="5.832938" style="stroke: #000000; stroke-width: 0.5"/>
      </g>
     </g>
    </g>
    <g id="text_15">
     <!-- spatial rainfall -->
     <g transform="translate(14.407327 182.395716) rotate(-90) scale(0.16 -0.16)">
      <defs>
       <path id="NimbusRomNo9L-Regu-70" d="M 58 2516 
C 115 2522 160 2522 218 2522 
C 435 2522 480 2458 480 2155 
L 480 -855 
C 480 -1189 410 -1261 32 -1299 
L 32 -1408 
L 1581 -1408 
L 1581 -1293 
C 1101 -1293 1018 -1222 1018 -816 
L 1018 199 
C 1242 -13 1395 -77 1664 -77 
C 2419 -77 3008 643 3008 1575 
C 3008 2372 2560 2944 1939 2944 
C 1581 2944 1299 2784 1018 2438 
L 1018 2931 
L 979 2944 
C 634 2810 410 2726 58 2618 
L 58 2516 
z
M 1018 2136 
C 1018 2329 1376 2560 1670 2560 
C 2144 2560 2458 2071 2458 1324 
C 2458 611 2144 128 1683 128 
C 1382 128 1018 359 1018 552 
L 1018 2136 
z
" transform="scale(0.015625)"/>
       <path id="NimbusRomNo9L-Regu-74" d="M 1632 2880 
L 986 2880 
L 986 3622 
C 986 3686 979 3706 941 3706 
C 896 3648 858 3590 813 3526 
C 570 3174 294 2867 192 2841 
C 122 2794 83 2748 83 2715 
C 83 2695 90 2682 109 2682 
L 448 2682 
L 448 751 
C 448 212 640 -64 1018 -64 
C 1331 -64 1574 90 1786 423 
L 1702 493 
C 1568 333 1459 269 1318 269 
C 1082 269 986 443 986 847 
L 986 2682 
L 1632 2682 
L 1632 2880 
z
" transform="scale(0.015625)"/>
       <path id="NimbusRomNo9L-Regu-69" d="M 1120 2929 
L 128 2579 
L 128 2484 
L 179 2490 
C 256 2502 339 2509 397 2509 
C 550 2509 608 2406 608 2125 
L 608 640 
C 608 179 544 109 102 109 
L 102 0 
L 1619 0 
L 1619 96 
C 1197 128 1146 191 1146 650 
L 1146 2910 
L 1120 2929 
z
M 819 4352 
C 646 4352 499 4205 499 4026 
C 499 3847 640 3699 819 3699 
C 1005 3699 1152 3840 1152 4026 
C 1152 4205 1005 4352 819 4352 
z
" transform="scale(0.015625)"/>
       <path id="NimbusRomNo9L-Regu-6c" d="M 122 4000 
L 160 4000 
C 230 4000 307 4000 358 4000 
C 563 4000 627 3910 627 3610 
L 627 557 
C 627 211 538 128 134 96 
L 134 0 
L 1645 0 
L 1645 109 
C 1242 109 1165 173 1165 528 
L 1165 4371 
L 1139 4384 
C 806 4275 563 4211 122 4103 
L 122 4000 
z
" transform="scale(0.015625)"/>
       <path id="NimbusRomNo9L-Regu-72" d="M 45 2496 
C 134 2515 192 2522 269 2522 
C 429 2522 486 2419 486 2138 
L 486 538 
C 486 218 442 173 32 96 
L 32 0 
L 1568 0 
L 1568 102 
C 1133 102 1024 199 1024 565 
L 1024 2013 
C 1024 2219 1299 2541 1472 2541 
C 1510 2541 1568 2509 1638 2445 
C 1741 2355 1811 2317 1894 2317 
C 2048 2317 2144 2426 2144 2605 
C 2144 2816 2010 2944 1792 2944 
C 1523 2944 1338 2797 1024 2343 
L 1024 2931 
L 992 2944 
C 653 2803 422 2721 45 2599 
L 45 2496 
z
" transform="scale(0.015625)"/>
       <path id="NimbusRomNo9L-Regu-6e" d="M 102 2579 
C 141 2598 205 2605 275 2605 
C 454 2605 512 2509 512 2195 
L 512 608 
C 512 243 442 154 115 128 
L 115 32 
L 1472 32 
L 1472 128 
C 1146 154 1050 230 1050 461 
L 1050 2259 
C 1357 2547 1498 2624 1709 2624 
C 2022 2624 2176 2426 2176 2003 
L 2176 666 
C 2176 262 2093 154 1773 128 
L 1773 32 
L 3104 32 
L 3104 128 
C 2790 160 2714 237 2714 550 
L 2714 2016 
C 2714 2618 2432 2976 1958 2976 
C 1664 2976 1466 2867 1030 2458 
L 1030 2963 
L 986 2976 
C 672 2861 454 2790 102 2688 
L 102 2579 
z
" transform="scale(0.015625)"/>
       <path id="NimbusRomNo9L-Regu-66" d="M 1978 2880 
L 1190 2880 
L 1190 3611 
C 1190 3978 1312 4173 1555 4173 
C 1690 4173 1779 4110 1894 3927 
C 1997 3763 2074 3700 2182 3700 
C 2330 3700 2451 3814 2451 3959 
C 2451 4188 2170 4352 1786 4352 
C 1389 4352 1050 4181 883 3891 
C 717 3613 666 3385 659 2880 
L 134 2880 
L 134 2675 
L 659 2675 
L 659 656 
C 659 185 589 109 128 109 
L 128 0 
L 1792 0 
L 1792 109 
C 1267 109 1197 180 1197 661 
L 1197 2675 
L 1978 2675 
L 1978 2880 
z
" transform="scale(0.015625)"/>
      </defs>
      <use xlink:href="#NimbusRomNo9L-Regu-73" transform="scale(0.996264)"/>
      <use xlink:href="#NimbusRomNo9L-Regu-70" transform="translate(38.753706 0) scale(0.996264)"/>
      <use xlink:href="#NimbusRomNo9L-Regu-61" transform="translate(88.566907 0) scale(0.996264)"/>
      <use xlink:href="#NimbusRomNo9L-Regu-74" transform="translate(132.800475 0) scale(0.996264)"/>
      <use xlink:href="#NimbusRomNo9L-Regu-69" transform="translate(160.495645 0) scale(0.996264)"/>
      <use xlink:href="#NimbusRomNo9L-Regu-61" transform="translate(188.190815 0) scale(0.996264)"/>
      <use xlink:href="#NimbusRomNo9L-Regu-6c" transform="translate(232.424383 0) scale(0.996264)"/>
      <use xlink:href="#NimbusRomNo9L-Regu-72" transform="translate(285.026153 0) scale(0.996264)"/>
      <use xlink:href="#NimbusRomNo9L-Regu-61" transform="translate(318.201383 0) scale(0.996264)"/>
      <use xlink:href="#NimbusRomNo9L-Regu-69" transform="translate(362.434952 0) scale(0.996264)"/>
      <use xlink:href="#NimbusRomNo9L-Regu-6e" transform="translate(390.130121 0) scale(0.996264)"/>
      <use xlink:href="#NimbusRomNo9L-Regu-66" transform="translate(439.943322 0) scale(0.996264)"/>
      <use xlink:href="#NimbusRomNo9L-Regu-61" transform="translate(472.122455 0) scale(0.996264)"/>
      <use xlink:href="#NimbusRomNo9L-Regu-6c" transform="translate(516.356023 0) scale(0.996264)"/>
      <use xlink:href="#NimbusRomNo9L-Regu-6c" transform="translate(544.051193 0) scale(0.996264)"/>
     </g>
    </g>
   </g>
   <g id="line2d_123">
    <path d="M 57.531205 254.288429 
L 58.306037 252.845248 
L 59.080868 252.629374 
L 59.8557 253.815375 
L 60.630532 253.637594 
L 61.405364 254.889724 
L 62.180196 254.188719 
L 62.955028 253.836472 
L 63.72986 254.579358 
L 65.279523 254.136424 
L 66.054355 251.862443 
L 66.829187 250.725453 
L 67.604019 252.057755 
L 68.378851 252.887828 
L 69.153683 253.086628 
L 69.928514 253.820789 
L 70.703346 253.708311 
L 71.478178 254.994837 
L 72.25301 255.624149 
L 73.027842 254.671026 
L 73.802674 255.214617 
L 74.577505 255.582324 
L 75.352337 255.216865 
L 76.127169 255.852 
L 76.902001 256.124229 
L 77.676833 255.754626 
L 78.451665 254.896698 
L 79.226497 254.854869 
L 80.001328 255.744245 
L 80.77616 256.329593 
L 82.325824 256.664774 
L 83.100656 256.734646 
L 83.875488 256.073786 
L 84.65032 255.736381 
L 85.425151 255.787402 
L 86.199983 254.935756 
L 86.974815 255.439406 
L 87.749647 255.719133 
L 88.524479 255.846788 
L 89.299311 256.159989 
L 90.074143 255.029624 
L 90.848974 254.746948 
L 91.623806 255.341513 
L 92.398638 255.640541 
L 93.17347 256.206835 
L 93.948302 256.524858 
L 94.723134 256.614117 
L 95.497965 256.252428 
L 96.272797 255.449029 
L 97.047629 253.599933 
L 97.822461 255.160199 
L 100.146957 254.508973 
L 100.921788 255.363777 
L 101.69662 255.681319 
L 103.246284 255.92209 
L 104.021116 256.33209 
L 104.795948 255.780082 
L 105.57078 255.727293 
L 106.345611 255.287604 
L 107.120443 255.975959 
L 107.895275 255.415425 
L 108.670107 255.714118 
L 109.444939 254.325388 
L 110.219771 255.542282 
L 110.994602 252.582811 
L 112.544266 252.917948 
L 113.319098 253.199344 
L 114.09393 253.667884 
L 114.868762 253.670223 
L 115.643594 252.082744 
L 116.418425 253.47405 
L 117.193257 254.187141 
L 117.968089 255.520417 
L 118.742921 254.298291 
L 119.517753 254.642858 
L 120.292585 253.423549 
L 121.067417 251.889653 
L 121.842248 252.657294 
L 122.61708 253.069016 
L 123.391912 252.200664 
L 124.941576 252.26438 
L 125.716408 252.942313 
L 126.491239 252.224506 
L 127.266071 253.602477 
L 128.040903 253.893865 
L 129.590567 254.121126 
L 130.365399 255.11754 
L 131.140231 254.295651 
L 131.915062 253.996314 
L 133.464726 254.158073 
L 134.239558 253.216033 
L 135.01439 248.960856 
L 135.789222 237.590855 
L 137.338885 248.906638 
L 138.113717 252.839884 
L 138.888549 253.741013 
L 139.663381 245.229927 
L 140.438213 245.682781 
L 141.213045 223.7623 
L 143.53754 240.51393 
L 145.087204 247.014655 
L 145.862036 246.819285 
L 146.636868 248.60496 
L 147.411699 249.532673 
L 148.186531 249.054851 
L 148.961363 245.502622 
L 149.736195 247.615296 
L 151.285859 245.973677 
L 152.060691 246.909144 
L 152.835522 247.359438 
L 153.610354 247.968233 
L 154.385186 250.679145 
L 155.160018 251.075483 
L 155.93485 252.250209 
L 156.709682 251.390175 
L 157.484514 251.919276 
L 158.259345 250.788746 
L 159.034177 247.973913 
L 159.809009 251.163288 
L 160.583841 251.230363 
L 161.358673 250.740744 
L 162.133505 247.915035 
L 162.908336 237.608538 
L 163.683168 239.169118 
L 164.458 239.966847 
L 165.232832 245.143863 
L 166.007664 240.041988 
L 166.782496 233.672015 
L 167.557328 237.950712 
L 168.332159 225.999743 
L 169.106991 229.685193 
L 169.881823 234.928429 
L 170.656655 238.840497 
L 171.431487 239.645589 
L 172.206319 241.373462 
L 172.981151 242.202522 
L 173.755982 245.128197 
L 174.530814 246.591035 
L 175.305646 248.299011 
L 176.080478 244.200461 
L 176.85531 244.836717 
L 177.630142 248.049638 
L 178.404973 248.714419 
L 179.179805 250.895291 
L 179.954637 251.636958 
L 180.729469 250.996357 
L 181.504301 251.617737 
L 182.279133 252.033057 
L 183.053965 252.906868 
L 183.828796 251.805697 
L 184.603628 253.014659 
L 185.37846 252.208363 
L 186.153292 248.509336 
L 186.928124 250.566049 
L 187.702956 250.077256 
L 189.252619 254.576006 
L 190.027451 252.762336 
L 190.802283 252.849496 
L 191.577115 254.206196 
L 192.351947 252.978517 
L 193.126779 251.405559 
L 193.901611 248.718282 
L 194.676442 250.391506 
L 195.451274 249.710968 
L 196.226106 247.975618 
L 197.000938 243.934134 
L 197.77577 230.037765 
L 198.550602 221.345729 
L 199.325433 197.817346 
L 200.100265 195.12118 
L 200.875097 202.841124 
L 201.649929 205.654787 
L 202.424761 205.840923 
L 203.199593 210.642389 
L 203.974425 198.046001 
L 204.749256 200.118289 
L 206.29892 221.395471 
L 207.073752 229.911643 
L 207.848584 234.204605 
L 208.623416 230.003467 
L 210.173079 223.940385 
L 210.947911 227.051171 
L 211.722743 228.240355 
L 212.497575 192.719787 
L 213.272407 196.234491 
L 214.047239 212.099599 
L 214.82207 220.380925 
L 215.596902 225.428387 
L 216.371734 233.253427 
L 217.146566 237.165949 
L 217.921398 240.081326 
L 218.69623 243.631637 
L 219.471062 233.914811 
L 220.245893 241.664444 
L 221.020725 246.411186 
L 221.795557 248.732241 
L 222.570389 249.491684 
L 223.345221 248.999479 
L 224.120053 249.189339 
L 224.894885 248.290275 
L 225.669716 249.427646 
L 226.444548 248.200166 
L 227.21938 247.88288 
L 227.994212 202.889821 
L 228.769044 202.365818 
L 229.543876 216.943993 
L 230.318707 228.034671 
L 231.093539 234.905341 
L 231.868371 237.067663 
L 232.643203 229.848094 
L 233.418035 235.567911 
L 234.192867 234.940118 
L 234.967699 236.422387 
L 235.74253 230.589205 
L 236.517362 230.898736 
L 237.292194 234.767906 
L 238.067026 237.155893 
L 238.841858 237.60003 
L 240.391522 243.609368 
L 241.166353 244.140085 
L 241.941185 245.451754 
L 242.716017 246.386605 
L 243.490849 244.360323 
L 244.265681 244.271423 
L 245.040513 243.721256 
L 245.815345 242.975333 
L 246.590176 244.276468 
L 247.365008 244.281811 
L 248.13984 247.562923 
L 248.914672 248.244361 
L 249.689504 248.58508 
L 250.464336 248.703123 
L 251.239167 249.721263 
L 252.013999 250.178019 
L 252.788831 251.400391 
L 253.563663 249.884078 
L 254.338495 247.922665 
L 255.113327 249.208965 
L 256.66299 248.159541 
L 257.437822 248.281092 
L 258.212654 249.109162 
L 259.762318 248.997797 
L 260.53715 248.525836 
L 261.311982 246.615756 
L 262.086813 247.38713 
L 262.861645 246.970646 
L 263.636477 246.884473 
L 264.411309 247.556365 
L 265.186141 249.130446 
L 265.960973 249.342016 
L 266.735804 249.168784 
L 267.510636 249.518131 
L 268.285468 250.634485 
L 269.0603 252.029709 
L 269.835132 252.727322 
L 270.609964 252.622727 
L 271.384796 251.419488 
L 272.159627 252.387334 
L 272.934459 252.871257 
L 273.709291 250.811335 
L 274.484123 250.374284 
L 275.258955 201.694133 
L 276.033787 183.980692 
L 276.808619 205.623929 
L 277.58345 221.467839 
L 278.358282 230.523297 
L 279.133114 234.719695 
L 279.907946 230.749291 
L 280.682778 237.954186 
L 281.45761 241.696141 
L 283.007273 247.231734 
L 283.782105 247.32891 
L 285.331769 195.949459 
L 286.881433 225.148853 
L 287.656264 233.375239 
L 288.431096 235.971281 
L 289.205928 233.799036 
L 289.98076 234.979923 
L 291.530424 242.544537 
L 292.305256 242.352096 
L 293.080087 243.929973 
L 293.854919 245.904731 
L 294.629751 245.915552 
L 295.404583 248.728564 
L 296.179415 248.164518 
L 296.954247 248.632351 
L 298.50391 247.248093 
L 299.278742 248.086946 
L 300.053574 249.11672 
L 300.828406 246.388044 
L 301.603238 246.976819 
L 302.37807 248.212886 
L 303.152901 249.720284 
L 303.927733 249.671812 
L 304.702565 246.526082 
L 305.477397 199.77003 
L 306.252229 196.446295 
L 307.027061 214.734083 
L 307.801893 129.640269 
L 308.576724 137.316263 
L 309.351556 172.543582 
L 310.126388 202.189819 
L 312.450884 230.685019 
L 313.225716 236.300269 
L 314.000547 240.904059 
L 314.775379 240.520424 
L 315.550211 222.750585 
L 316.325043 225.44484 
L 317.874707 238.661054 
L 318.649538 241.421789 
L 319.42437 190.765635 
L 320.199202 171.541038 
L 321.748866 212.890952 
L 322.523698 221.753156 
L 324.073361 208.912272 
L 324.848193 209.945934 
L 325.623025 215.833824 
L 326.397857 217.382689 
L 327.172689 15.696 
L 327.947521 62.033703 
L 328.722353 134.379151 
L 329.497184 177.178514 
L 331.046848 214.195686 
L 331.82168 226.032734 
L 332.596512 234.375212 
L 333.371344 203.111391 
L 334.146175 224.170115 
L 334.921007 232.397591 
L 335.695839 238.185425 
L 336.470671 242.125654 
L 337.245503 244.950255 
L 338.020335 248.507493 
L 339.569998 251.375964 
L 340.34483 250.953053 
L 341.119662 252.136678 
L 341.894494 252.397159 
L 342.669326 250.574287 
L 343.444158 231.090835 
L 344.21899 242.760114 
L 344.993821 248.23552 
L 345.768653 251.559157 
L 346.543485 252.772806 
L 347.318317 253.337778 
L 348.093149 254.861886 
L 348.867981 253.881833 
L 349.642813 254.950809 
L 350.417644 251.327956 
L 351.192476 219.95825 
L 351.967308 233.604976 
L 352.74214 228.971236 
L 353.516972 237.291858 
L 354.291804 242.917005 
L 355.066635 246.217856 
L 355.841467 248.530946 
L 356.616299 249.670052 
L 357.391131 251.728854 
L 358.165963 251.548022 
L 358.940795 253.070669 
L 359.715627 253.662838 
L 360.490458 251.015302 
L 361.26529 252.959512 
L 362.040122 253.2271 
L 363.589786 254.634536 
L 364.364618 255.020243 
L 365.13945 254.703892 
L 365.914281 253.99466 
L 366.689113 254.246903 
L 367.463945 251.429404 
L 368.238777 253.619964 
L 369.013609 251.743721 
L 369.788441 252.699422 
L 370.563272 251.28345 
L 371.338104 253.304591 
L 372.112936 248.063455 
L 372.887768 244.780223 
L 373.6626 246.417049 
L 374.437432 249.136259 
L 376.761927 252.406676 
L 377.536759 254.044077 
L 378.311591 253.699629 
L 379.086423 252.062569 
L 379.861255 253.852842 
L 380.636087 254.414902 
L 381.410918 254.378551 
L 382.18575 254.510346 
L 382.18575 254.510346 
" clip-path="url(#pad23f496fc)" style="fill: none; stroke: #000000; stroke-linecap: square"/>
   </g>
   <g id="line2d_124">
    <path d="M 57.531205 251.95419 
L 58.306037 250.217114 
L 59.8557 255.048988 
L 60.630532 256.575395 
L 61.405364 257.218827 
L 62.180196 257.616 
L 62.955028 257.613391 
L 64.504691 256.885007 
L 65.279523 243.629534 
L 66.054355 242.652996 
L 66.829187 246.085401 
L 67.604019 248.70318 
L 68.378851 249.219263 
L 69.153683 251.689595 
L 69.928514 253.164388 
L 70.703346 253.889856 
L 71.478178 254.169962 
L 73.027842 255.73749 
L 73.802674 255.792537 
L 74.577505 255.598417 
L 75.352337 255.247218 
L 77.676833 256.318042 
L 78.451665 256.199353 
L 79.226497 255.772484 
L 80.001328 255.599968 
L 81.550992 256.057073 
L 82.325824 255.876661 
L 83.100656 255.354306 
L 83.875488 255.39079 
L 84.65032 255.287867 
L 86.199983 254.542533 
L 86.974815 254.367822 
L 87.749647 254.604841 
L 88.524479 255.131022 
L 90.074143 255.308655 
L 90.848974 254.725959 
L 91.623806 254.717226 
L 92.398638 255.318412 
L 93.17347 256.113273 
L 93.948302 256.638113 
L 94.723134 256.891064 
L 95.497965 256.007854 
L 96.272797 254.811299 
L 97.047629 254.245235 
L 97.822461 253.916479 
L 98.597293 254.62874 
L 99.372125 254.99942 
L 100.146957 254.87738 
L 101.69662 255.925492 
L 102.471452 256.24274 
L 103.246284 256.343383 
L 105.57078 255.942417 
L 106.345611 255.756768 
L 107.120443 255.191362 
L 107.895275 255.00345 
L 108.670107 254.668922 
L 109.444939 253.022319 
L 110.994602 250.694771 
L 111.769434 251.287268 
L 113.319098 253.505619 
L 114.868762 252.254583 
L 115.643594 252.568848 
L 116.418425 252.621465 
L 117.193257 253.586047 
L 117.968089 253.820811 
L 118.742921 254.467725 
L 119.517753 253.238193 
L 120.292585 251.03468 
L 121.067417 251.943814 
L 121.842248 247.430079 
L 122.61708 248.74803 
L 123.391912 250.931458 
L 124.166744 252.302955 
L 124.941576 253.196268 
L 125.716408 253.604331 
L 126.491239 253.675191 
L 127.266071 253.346651 
L 128.040903 253.616255 
L 130.365399 255.175193 
L 131.140231 255.495509 
L 132.689894 255.245934 
L 133.464726 253.879894 
L 134.239558 252.859232 
L 135.01439 251.298192 
L 135.789222 247.966069 
L 136.564054 240.338339 
L 137.338885 240.753233 
L 138.113717 244.783013 
L 138.888549 246.845601 
L 139.663381 242.614409 
L 140.438213 242.606248 
L 141.213045 244.848214 
L 141.987877 240.159752 
L 142.762708 239.023312 
L 143.53754 239.868406 
L 144.312372 240.888515 
L 145.087204 242.860471 
L 145.862036 245.510577 
L 146.636868 246.979415 
L 147.411699 248.11634 
L 148.186531 248.985805 
L 148.961363 245.216845 
L 149.736195 239.375121 
L 150.511027 240.665292 
L 152.060691 246.385128 
L 152.835522 247.401596 
L 153.610354 245.42022 
L 154.385186 246.813723 
L 155.93485 251.846063 
L 156.709682 253.893081 
L 157.484514 254.122559 
L 158.259345 256.289663 
L 159.034177 256.849786 
L 159.809009 255.739943 
L 160.583841 255.328751 
L 161.358673 254.222544 
L 162.908336 250.064938 
L 163.683168 245.921946 
L 164.458 243.412282 
L 165.232832 241.518388 
L 166.007664 240.609146 
L 166.782496 238.002693 
L 167.557328 234.937721 
L 168.332159 235.22991 
L 169.106991 232.709283 
L 169.881823 234.13248 
L 170.656655 235.12858 
L 171.431487 237.062791 
L 172.206319 238.524846 
L 174.530814 243.863243 
L 175.305646 245.128656 
L 176.080478 246.621138 
L 176.85531 246.069589 
L 177.630142 245.876869 
L 178.404973 247.51617 
L 179.954637 249.842909 
L 181.504301 251.359524 
L 182.279133 251.434207 
L 183.053965 251.753227 
L 183.828796 251.939699 
L 184.603628 251.975412 
L 185.37846 252.813027 
L 186.153292 253.096669 
L 186.928124 252.103316 
L 187.702956 252.0662 
L 188.477788 251.698222 
L 189.252619 252.115895 
L 190.027451 253.226417 
L 190.802283 252.999523 
L 192.351947 251.814693 
L 193.126779 251.615785 
L 193.901611 250.891074 
L 194.676442 250.528117 
L 195.451274 251.102627 
L 197.77577 236.947378 
L 198.550602 229.650044 
L 199.325433 224.917501 
L 200.100265 214.181572 
L 200.875097 206.353515 
L 201.649929 203.500543 
L 202.424761 204.413481 
L 203.199593 204.195261 
L 203.974425 205.323996 
L 204.749256 204.734475 
L 205.524088 206.181821 
L 206.29892 210.413223 
L 207.073752 216.498067 
L 207.848584 221.580862 
L 208.623416 224.991132 
L 209.398248 227.302799 
L 210.173079 222.983942 
L 210.947911 217.520379 
L 211.722743 214.970235 
L 212.497575 217.0137 
L 213.272407 209.401014 
L 214.047239 207.602327 
L 214.82207 210.811725 
L 215.596902 215.281863 
L 216.371734 220.563591 
L 217.146566 226.923435 
L 217.921398 232.338714 
L 219.471062 240.371153 
L 220.245893 239.347826 
L 221.020725 241.620982 
L 223.345221 246.704016 
L 224.120053 247.63907 
L 224.894885 247.828123 
L 225.669716 247.626887 
L 226.444548 247.993527 
L 227.21938 246.335326 
L 227.994212 244.409075 
L 228.769044 228.264042 
L 229.543876 220.879128 
L 230.318707 221.345572 
L 231.868371 230.030313 
L 232.643203 229.281542 
L 233.418035 225.569066 
L 235.74253 235.639119 
L 236.517362 235.473036 
L 237.292194 235.634052 
L 238.067026 237.855796 
L 239.61669 239.599283 
L 240.391522 240.901365 
L 241.166353 243.613076 
L 241.941185 245.523425 
L 242.716017 246.641695 
L 243.490849 240.942873 
L 244.265681 239.04983 
L 245.815345 241.73864 
L 246.590176 242.183438 
L 247.365008 243.58912 
L 248.13984 244.121771 
L 248.914672 246.43372 
L 249.689504 248.370277 
L 251.239167 249.547514 
L 252.788831 250.120016 
L 253.563663 249.541586 
L 254.338495 248.38443 
L 255.113327 247.857218 
L 256.66299 248.558187 
L 258.212654 248.945213 
L 258.987486 248.932819 
L 259.762318 249.24973 
L 260.53715 245.843868 
L 261.311982 245.879615 
L 262.086813 246.539416 
L 262.861645 247.658526 
L 263.636477 248.237281 
L 265.186141 249.953479 
L 266.735804 251.389617 
L 268.285468 251.118207 
L 269.0603 251.575743 
L 269.835132 251.753796 
L 270.609964 252.229985 
L 271.384796 252.234933 
L 272.159627 251.828112 
L 272.934459 251.857022 
L 273.709291 252.121175 
L 274.484123 250.068945 
L 275.258955 249.135246 
L 276.808619 218.712167 
L 277.58345 216.631641 
L 278.358282 220.748305 
L 279.907946 232.340894 
L 280.682778 235.037339 
L 282.232441 243.563544 
L 283.007273 246.959604 
L 283.782105 237.839711 
L 284.556937 235.489474 
L 285.331769 227.563131 
L 286.106601 216.968418 
L 286.881433 219.183249 
L 287.656264 225.685892 
L 289.205928 234.653281 
L 290.755592 237.946126 
L 291.530424 238.4669 
L 292.305256 240.853368 
L 293.080087 242.810374 
L 293.854919 244.269888 
L 294.629751 244.945528 
L 295.404583 244.809675 
L 296.179415 247.813741 
L 296.954247 248.8512 
L 297.729079 249.362221 
L 298.50391 248.653676 
L 299.278742 247.567102 
L 300.053574 249.167325 
L 300.828406 247.502772 
L 301.603238 246.972738 
L 302.37807 247.662645 
L 303.152901 248.938452 
L 303.927733 244.218714 
L 304.702565 237.505876 
L 305.477397 235.629254 
L 306.252229 212.125573 
L 307.027061 204.614756 
L 307.801893 207.446402 
L 308.576724 193.641623 
L 309.351556 190.641769 
L 310.126388 194.918803 
L 310.90122 200.086861 
L 312.450884 213.521485 
L 313.225716 222.040962 
L 314.000547 224.850685 
L 314.775379 223.351988 
L 315.550211 228.772888 
L 316.325043 228.258724 
L 317.099875 230.001181 
L 317.874707 233.3862 
L 318.649538 237.731568 
L 319.42437 240.83833 
L 320.974034 209.848145 
L 321.748866 206.237065 
L 323.29853 207.173896 
L 324.073361 209.848664 
L 324.848193 212.050608 
L 325.623025 215.014781 
L 326.397857 203.881014 
L 327.172689 202.898855 
L 327.947521 174.098479 
L 328.722353 169.125761 
L 329.497184 174.578362 
L 331.046848 193.726091 
L 331.82168 206.109606 
L 333.371344 226.957901 
L 334.146175 223.538605 
L 336.470671 238.018592 
L 338.020335 244.509763 
L 339.569998 249.95286 
L 340.34483 251.154325 
L 341.119662 251.937775 
L 341.894494 253.069101 
L 342.669326 253.940265 
L 343.444158 254.221173 
L 344.21899 249.926953 
L 344.993821 250.349828 
L 346.543485 252.927145 
L 347.318317 252.893923 
L 348.093149 253.260946 
L 348.867981 254.195277 
L 349.642813 254.266536 
L 350.417644 243.47153 
L 351.192476 227.670166 
L 351.967308 220.212219 
L 352.74214 224.409294 
L 353.516972 229.344895 
L 354.291804 235.394767 
L 355.066635 240.351282 
L 355.841467 244.142107 
L 356.616299 247.368428 
L 357.391131 249.851449 
L 358.165963 251.729643 
L 358.940795 252.330098 
L 360.490458 253.04631 
L 361.26529 252.480619 
L 362.040122 252.860899 
L 363.589786 252.987605 
L 365.914281 253.40232 
L 366.689113 250.027972 
L 367.463945 249.927635 
L 368.238777 250.772116 
L 369.013609 245.686682 
L 369.788441 237.367349 
L 370.563272 231.875495 
L 371.338104 228.440013 
L 372.112936 229.419354 
L 373.6626 237.497312 
L 374.437432 237.590889 
L 375.212264 241.563191 
L 375.987095 246.665805 
L 376.761927 250.933555 
L 377.536759 253.045921 
L 378.311591 253.980611 
L 379.086423 254.000835 
L 379.861255 253.313419 
L 380.636087 253.274144 
L 381.410918 253.459579 
L 382.18575 253.428132 
L 382.18575 253.428132 
" clip-path="url(#pad23f496fc)" style="fill: none; stroke-dasharray: 3.7,1.6; stroke-dashoffset: 0; stroke: #ff0000"/>
   </g>
   <g id="patch_3">
    <path d="M 41.298478 269.712 
L 41.298478 3.6 
" style="fill: none; stroke: #000000; stroke-width: 0.5; stroke-linejoin: miter; stroke-linecap: square"/>
   </g>
   <g id="patch_4">
    <path d="M 398.418478 269.712 
L 398.418478 3.6 
" style="fill: none; stroke: #000000; stroke-width: 0.5; stroke-linejoin: miter; stroke-linecap: square"/>
   </g>
   <g id="patch_5">
    <path d="M 41.298478 269.712 
L 398.418478 269.712 
" style="fill: none; stroke: #000000; stroke-width: 0.5; stroke-linejoin: miter; stroke-linecap: square"/>
   </g>
   <g id="patch_6">
    <path d="M 41.298478 3.6 
L 398.418478 3.6 
" style="fill: none; stroke: #000000; stroke-width: 0.5; stroke-linejoin: miter; stroke-linecap: square"/>
   </g>
   <g id="legend_1">
    <g id="line2d_125">
     <path d="M 48.498478 13.6 
L 56.498478 13.6 
L 64.498478 13.6 
" style="fill: none; stroke: #000000; stroke-linecap: square"/>
    </g>
    <g id="text_16">
     <!-- spatial rainfall actual -->
     <g transform="translate(70.898478 16.4) scale(0.08 -0.08)">
      <defs>
       <path id="NimbusRomNo9L-Regu-63" d="M 2547 998 
C 2240 550 2010 397 1645 397 
C 1062 397 653 909 653 1645 
C 653 2304 1005 2758 1523 2758 
C 1754 2758 1837 2688 1901 2451 
L 1939 2310 
C 1990 2131 2106 2016 2240 2016 
C 2406 2016 2547 2138 2547 2285 
C 2547 2643 2099 2944 1562 2944 
C 1248 2944 922 2816 659 2586 
C 339 2304 160 1869 160 1363 
C 160 531 666 -64 1376 -64 
C 1664 -64 1920 38 2150 237 
C 2323 390 2445 563 2637 941 
L 2547 998 
z
" transform="scale(0.015625)"/>
       <path id="NimbusRomNo9L-Regu-75" d="M 3066 320 
L 3034 320 
C 2739 320 2669 390 2669 685 
L 2669 2880 
L 1658 2880 
L 1658 2758 
C 2054 2758 2131 2694 2131 2375 
L 2131 875 
C 2131 697 2099 607 2010 537 
C 1837 397 1638 320 1446 320 
C 1197 320 992 537 992 805 
L 992 2880 
L 58 2880 
L 58 2778 
C 365 2778 454 2682 454 2387 
L 454 770 
C 454 263 762 -64 1229 -64 
C 1466 -64 1715 38 1888 211 
L 2163 486 
L 2163 -45 
L 2189 -58 
C 2509 70 2739 141 3066 230 
L 3066 320 
z
" transform="scale(0.015625)"/>
      </defs>
      <use xlink:href="#NimbusRomNo9L-Regu-73" transform="scale(0.996264)"/>
      <use xlink:href="#NimbusRomNo9L-Regu-70" transform="translate(38.753706 0) scale(0.996264)"/>
      <use xlink:href="#NimbusRomNo9L-Regu-61" transform="translate(88.566907 0) scale(0.996264)"/>
      <use xlink:href="#NimbusRomNo9L-Regu-74" transform="translate(132.800475 0) scale(0.996264)"/>
      <use xlink:href="#NimbusRomNo9L-Regu-69" transform="translate(160.495645 0) scale(0.996264)"/>
      <use xlink:href="#NimbusRomNo9L-Regu-61" transform="translate(188.190815 0) scale(0.996264)"/>
      <use xlink:href="#NimbusRomNo9L-Regu-6c" transform="translate(232.424383 0) scale(0.996264)"/>
      <use xlink:href="#NimbusRomNo9L-Regu-72" transform="translate(285.026153 0) scale(0.996264)"/>
      <use xlink:href="#NimbusRomNo9L-Regu-61" transform="translate(318.201383 0) scale(0.996264)"/>
      <use xlink:href="#NimbusRomNo9L-Regu-69" transform="translate(362.434952 0) scale(0.996264)"/>
      <use xlink:href="#NimbusRomNo9L-Regu-6e" transform="translate(390.130121 0) scale(0.996264)"/>
      <use xlink:href="#NimbusRomNo9L-Regu-66" transform="translate(439.943322 0) scale(0.996264)"/>
      <use xlink:href="#NimbusRomNo9L-Regu-61" transform="translate(472.122455 0) scale(0.996264)"/>
      <use xlink:href="#NimbusRomNo9L-Regu-6c" transform="translate(516.356023 0) scale(0.996264)"/>
      <use xlink:href="#NimbusRomNo9L-Regu-6c" transform="translate(544.051193 0) scale(0.996264)"/>
      <use xlink:href="#NimbusRomNo9L-Regu-61" transform="translate(596.652963 0) scale(0.996264)"/>
      <use xlink:href="#NimbusRomNo9L-Regu-63" transform="translate(640.886531 0) scale(0.996264)"/>
      <use xlink:href="#NimbusRomNo9L-Regu-74" transform="translate(685.1201 0) scale(0.996264)"/>
      <use xlink:href="#NimbusRomNo9L-Regu-75" transform="translate(712.81527 0) scale(0.996264)"/>
      <use xlink:href="#NimbusRomNo9L-Regu-61" transform="translate(762.62847 0) scale(0.996264)"/>
      <use xlink:href="#NimbusRomNo9L-Regu-6c" transform="translate(806.862039 0) scale(0.996264)"/>
     </g>
    </g>
    <g id="line2d_126">
     <path d="M 48.498478 24.925463 
L 56.498478 24.925463 
L 64.498478 24.925463 
" style="fill: none; stroke-dasharray: 3.7,1.6; stroke-dashoffset: 0; stroke: #ff0000"/>
    </g>
    <g id="text_17">
     <!-- spatial rainfall predict -->
     <g transform="translate(70.898478 27.725463) scale(0.08 -0.08)">
      <defs>
       <path id="NimbusRomNo9L-Regu-65" d="M 2611 1053 
C 2304 564 2029 378 1619 378 
C 1254 378 979 564 794 930 
C 678 1174 634 1386 621 1779 
L 2592 1779 
C 2541 2193 2477 2377 2317 2581 
C 2125 2811 1830 2944 1498 2944 
C 1178 2944 877 2829 634 2611 
C 333 2349 160 1894 160 1370 
C 160 486 621 -64 1357 -64 
C 1965 -64 2445 315 2714 1008 
L 2611 1053 
z
M 634 1984 
C 704 2479 922 2714 1312 2714 
C 1702 2714 1856 2535 1939 1984 
L 634 1984 
z
" transform="scale(0.015625)"/>
      </defs>
      <use xlink:href="#NimbusRomNo9L-Regu-73" transform="scale(0.996264)"/>
      <use xlink:href="#NimbusRomNo9L-Regu-70" transform="translate(38.753706 0) scale(0.996264)"/>
      <use xlink:href="#NimbusRomNo9L-Regu-61" transform="translate(88.566907 0) scale(0.996264)"/>
      <use xlink:href="#NimbusRomNo9L-Regu-74" transform="translate(132.800475 0) scale(0.996264)"/>
      <use xlink:href="#NimbusRomNo9L-Regu-69" transform="translate(160.495645 0) scale(0.996264)"/>
      <use xlink:href="#NimbusRomNo9L-Regu-61" transform="translate(188.190815 0) scale(0.996264)"/>
      <use xlink:href="#NimbusRomNo9L-Regu-6c" transform="translate(232.424383 0) scale(0.996264)"/>
      <use xlink:href="#NimbusRomNo9L-Regu-72" transform="translate(285.026153 0) scale(0.996264)"/>
      <use xlink:href="#NimbusRomNo9L-Regu-61" transform="translate(318.201383 0) scale(0.996264)"/>
      <use xlink:href="#NimbusRomNo9L-Regu-69" transform="translate(362.434952 0) scale(0.996264)"/>
      <use xlink:href="#NimbusRomNo9L-Regu-6e" transform="translate(390.130121 0) scale(0.996264)"/>
      <use xlink:href="#NimbusRomNo9L-Regu-66" transform="translate(439.943322 0) scale(0.996264)"/>
      <use xlink:href="#NimbusRomNo9L-Regu-61" transform="translate(472.122455 0) scale(0.996264)"/>
      <use xlink:href="#NimbusRomNo9L-Regu-6c" transform="translate(516.356023 0) scale(0.996264)"/>
      <use xlink:href="#NimbusRomNo9L-Regu-6c" transform="translate(544.051193 0) scale(0.996264)"/>
      <use xlink:href="#NimbusRomNo9L-Regu-70" transform="translate(596.652963 0) scale(0.996264)"/>
      <use xlink:href="#NimbusRomNo9L-Regu-72" transform="translate(646.466163 0) scale(0.996264)"/>
      <use xlink:href="#NimbusRomNo9L-Regu-65" transform="translate(679.641393 0) scale(0.996264)"/>
      <use xlink:href="#NimbusRomNo9L-Regu-64" transform="translate(723.874962 0) scale(0.996264)"/>
      <use xlink:href="#NimbusRomNo9L-Regu-69" transform="translate(773.688162 0) scale(0.996264)"/>
      <use xlink:href="#NimbusRomNo9L-Regu-63" transform="translate(801.383332 0) scale(0.996264)"/>
      <use xlink:href="#NimbusRomNo9L-Regu-74" transform="translate(845.6169 0) scale(0.996264)"/>
     </g>
    </g>
   </g>
  </g>
 </g>
 <defs>
  <clipPath id="pad23f496fc">
   <rect x="41.298478" y="3.6" width="357.12" height="266.112"/>
  </clipPath>
 </defs>
</svg>
