<?xml version="1.0" encoding="utf-8" standalone="no"?>
<!DOCTYPE svg PUBLIC "-//W3C//DTD SVG 1.1//EN"
  "http://www.w3.org/Graphics/SVG/1.1/DTD/svg11.dtd">
<svg xmlns:xlink="http://www.w3.org/1999/xlink" width="402.018478pt" height="302.199372pt" viewBox="0 0 402.018478 302.199372" xmlns="http://www.w3.org/2000/svg" version="1.1">
 <metadata>
  <rdf:RDF xmlns:dc="http://purl.org/dc/elements/1.1/" xmlns:cc="http://creativecommons.org/ns#" xmlns:rdf="http://www.w3.org/1999/02/22-rdf-syntax-ns#">
   <cc:Work>
    <dc:type rdf:resource="http://purl.org/dc/dcmitype/StillImage"/>
    <dc:date>2024-03-16T22:20:06.458943</dc:date>
    <dc:format>image/svg+xml</dc:format>
    <dc:creator>
     <cc:Agent>
      <dc:title>Matplotlib v3.8.3, https://matplotlib.org/</dc:title>
     </cc:Agent>
    </dc:creator>
   </cc:Work>
  </rdf:RDF>
 </metadata>
 <defs>
  <style type="text/css">*{stroke-linejoin: round; stroke-linecap: butt}</style>
 </defs>
 <g id="figure_1">
  <g id="patch_1">
   <path d="M -0 302.199372 
L 402.018478 302.199372 
L 402.018478 0 
L -0 0 
z
" style="fill: #ffffff"/>
  </g>
  <g id="axes_1">
   <g id="patch_2">
    <path d="M 41.298478 269.712 
L 398.418478 269.712 
L 398.418478 3.6 
L 41.298478 3.6 
z
" style="fill: #ffffff"/>
   </g>
   <g id="matplotlib.axis_1">
    <g id="xtick_1">
     <g id="line2d_1">
      <defs>
       <path id="m8895d70b03" d="M 0 0 
L 0 -3 
" style="stroke: #000000; stroke-width: 0.5"/>
      </defs>
      <g>
       <use xlink:href="#m8895d70b03" x="57.531205" y="269.712" style="stroke: #000000; stroke-width: 0.5"/>
      </g>
     </g>
     <g id="line2d_2">
      <defs>
       <path id="m4f9ee6742c" d="M 0 0 
L 0 3 
" style="stroke: #000000; stroke-width: 0.5"/>
      </defs>
      <g>
       <use xlink:href="#m4f9ee6742c" x="57.531205" y="3.6" style="stroke: #000000; stroke-width: 0.5"/>
      </g>
     </g>
     <g id="text_1">
      <!-- $\mathdefault{0}$ -->
      <g transform="translate(55.538677 278.615656) scale(0.08 -0.08)">
       <defs>
        <path id="NimbusRomNo9L-Regu-30" d="M 1626 4352 
C 1274 4352 1005 4244 768 4020 
C 397 3661 154 2925 154 2176 
C 154 1479 365 730 666 372 
C 902 90 1229 -64 1600 -64 
C 1926 -64 2202 45 2432 269 
C 2803 621 3046 1364 3046 2138 
C 3046 3450 2464 4352 1626 4352 
z
M 1606 4186 
C 2144 4186 2432 3463 2432 2125 
C 2432 788 2150 103 1600 103 
C 1050 103 768 788 768 2119 
C 768 3476 1056 4186 1606 4186 
z
" transform="scale(0.015625)"/>
       </defs>
       <use xlink:href="#NimbusRomNo9L-Regu-30" transform="scale(0.996264)"/>
      </g>
     </g>
    </g>
    <g id="xtick_2">
     <g id="line2d_3">
      <g>
       <use xlink:href="#m8895d70b03" x="135.01439" y="269.712" style="stroke: #000000; stroke-width: 0.5"/>
      </g>
     </g>
     <g id="line2d_4">
      <g>
       <use xlink:href="#m4f9ee6742c" x="135.01439" y="3.6" style="stroke: #000000; stroke-width: 0.5"/>
      </g>
     </g>
     <g id="text_2">
      <!-- $\mathdefault{100}$ -->
      <g transform="translate(129.036806 278.615656) scale(0.08 -0.08)">
       <defs>
        <path id="NimbusRomNo9L-Regu-31" d="M 1862 4339 
L 710 3757 
L 710 3667 
C 787 3699 858 3725 883 3738 
C 998 3783 1107 3808 1171 3808 
C 1306 3808 1363 3711 1363 3505 
L 1363 592 
C 1363 379 1312 232 1210 173 
C 1114 116 1024 96 755 96 
L 755 0 
L 2522 0 
L 2522 96 
C 2016 96 1914 160 1914 470 
L 1914 4327 
L 1862 4339 
z
" transform="scale(0.015625)"/>
       </defs>
       <use xlink:href="#NimbusRomNo9L-Regu-31" transform="scale(0.996264)"/>
       <use xlink:href="#NimbusRomNo9L-Regu-30" transform="translate(49.8132 0) scale(0.996264)"/>
       <use xlink:href="#NimbusRomNo9L-Regu-30" transform="translate(99.626401 0) scale(0.996264)"/>
      </g>
     </g>
    </g>
    <g id="xtick_3">
     <g id="line2d_5">
      <g>
       <use xlink:href="#m8895d70b03" x="212.497575" y="269.712" style="stroke: #000000; stroke-width: 0.5"/>
      </g>
     </g>
     <g id="line2d_6">
      <g>
       <use xlink:href="#m4f9ee6742c" x="212.497575" y="3.6" style="stroke: #000000; stroke-width: 0.5"/>
      </g>
     </g>
     <g id="text_3">
      <!-- $\mathdefault{200}$ -->
      <g transform="translate(206.519991 278.615656) scale(0.08 -0.08)">
       <defs>
        <path id="NimbusRomNo9L-Regu-32" d="M 3040 875 
L 2957 907 
C 2720 544 2637 486 2349 486 
L 819 486 
L 1894 1609 
C 2464 2202 2714 2687 2714 3185 
C 2714 3823 2195 4313 1530 4313 
C 1178 4313 845 4173 608 3918 
C 403 3700 307 3496 198 3043 
L 333 3011 
C 589 3636 819 3840 1261 3840 
C 1798 3840 2163 3476 2163 2940 
C 2163 2443 1869 1850 1331 1282 
L 192 77 
L 192 0 
L 2688 0 
L 3040 875 
z
" transform="scale(0.015625)"/>
       </defs>
       <use xlink:href="#NimbusRomNo9L-Regu-32" transform="scale(0.996264)"/>
       <use xlink:href="#NimbusRomNo9L-Regu-30" transform="translate(49.8132 0) scale(0.996264)"/>
       <use xlink:href="#NimbusRomNo9L-Regu-30" transform="translate(99.626401 0) scale(0.996264)"/>
      </g>
     </g>
    </g>
    <g id="xtick_4">
     <g id="line2d_7">
      <g>
       <use xlink:href="#m8895d70b03" x="289.98076" y="269.712" style="stroke: #000000; stroke-width: 0.5"/>
      </g>
     </g>
     <g id="line2d_8">
      <g>
       <use xlink:href="#m4f9ee6742c" x="289.98076" y="3.6" style="stroke: #000000; stroke-width: 0.5"/>
      </g>
     </g>
     <g id="text_4">
      <!-- $\mathdefault{300}$ -->
      <g transform="translate(284.003176 278.615656) scale(0.08 -0.08)">
       <defs>
        <path id="NimbusRomNo9L-Regu-33" d="M 979 2138 
C 1357 2138 1504 2125 1658 2068 
C 2054 1927 2304 1562 2304 1120 
C 2304 583 1939 167 1466 167 
C 1293 167 1165 212 928 365 
C 736 480 627 525 518 525 
C 371 525 275 436 275 301 
C 275 77 550 -64 998 -64 
C 1491 -64 1997 103 2298 365 
C 2598 628 2765 999 2765 1428 
C 2765 1754 2662 2055 2477 2253 
C 2349 2394 2227 2471 1946 2592 
C 2387 2893 2547 3130 2547 3476 
C 2547 3994 2138 4352 1549 4352 
C 1229 4352 947 4244 717 4039 
C 525 3866 429 3699 288 3315 
L 384 3290 
C 646 3757 934 3968 1338 3968 
C 1754 3968 2042 3687 2042 3284 
C 2042 3053 1946 2823 1786 2663 
C 1594 2471 1414 2375 979 2221 
L 979 2138 
z
" transform="scale(0.015625)"/>
       </defs>
       <use xlink:href="#NimbusRomNo9L-Regu-33" transform="scale(0.996264)"/>
       <use xlink:href="#NimbusRomNo9L-Regu-30" transform="translate(49.8132 0) scale(0.996264)"/>
       <use xlink:href="#NimbusRomNo9L-Regu-30" transform="translate(99.626401 0) scale(0.996264)"/>
      </g>
     </g>
    </g>
    <g id="xtick_5">
     <g id="line2d_9">
      <g>
       <use xlink:href="#m8895d70b03" x="367.463945" y="269.712" style="stroke: #000000; stroke-width: 0.5"/>
      </g>
     </g>
     <g id="line2d_10">
      <g>
       <use xlink:href="#m4f9ee6742c" x="367.463945" y="3.6" style="stroke: #000000; stroke-width: 0.5"/>
      </g>
     </g>
     <g id="text_5">
      <!-- $\mathdefault{400}$ -->
      <g transform="translate(361.486361 278.615656) scale(0.08 -0.08)">
       <defs>
        <path id="NimbusRomNo9L-Regu-34" d="M 3021 1497 
L 2368 1497 
L 2368 4352 
L 2086 4352 
L 77 1497 
L 77 1088 
L 1875 1088 
L 1875 32 
L 2368 32 
L 2368 1088 
L 3021 1088 
L 3021 1497 
z
M 1869 1497 
L 333 1497 
L 1869 3698 
L 1869 1497 
z
" transform="scale(0.015625)"/>
       </defs>
       <use xlink:href="#NimbusRomNo9L-Regu-34" transform="scale(0.996264)"/>
       <use xlink:href="#NimbusRomNo9L-Regu-30" transform="translate(49.8132 0) scale(0.996264)"/>
       <use xlink:href="#NimbusRomNo9L-Regu-30" transform="translate(99.626401 0) scale(0.996264)"/>
      </g>
     </g>
    </g>
    <g id="xtick_6">
     <g id="line2d_11">
      <defs>
       <path id="m0127dc4317" d="M 0 0 
L 0 -1.5 
" style="stroke: #000000; stroke-width: 0.5"/>
      </defs>
      <g>
       <use xlink:href="#m0127dc4317" x="42.034568" y="269.712" style="stroke: #000000; stroke-width: 0.5"/>
      </g>
     </g>
     <g id="line2d_12">
      <defs>
       <path id="m4c342fa54f" d="M 0 0 
L 0 1.5 
" style="stroke: #000000; stroke-width: 0.5"/>
      </defs>
      <g>
       <use xlink:href="#m4c342fa54f" x="42.034568" y="3.6" style="stroke: #000000; stroke-width: 0.5"/>
      </g>
     </g>
    </g>
    <g id="xtick_7">
     <g id="line2d_13">
      <g>
       <use xlink:href="#m0127dc4317" x="73.027842" y="269.712" style="stroke: #000000; stroke-width: 0.5"/>
      </g>
     </g>
     <g id="line2d_14">
      <g>
       <use xlink:href="#m4c342fa54f" x="73.027842" y="3.6" style="stroke: #000000; stroke-width: 0.5"/>
      </g>
     </g>
    </g>
    <g id="xtick_8">
     <g id="line2d_15">
      <g>
       <use xlink:href="#m0127dc4317" x="88.524479" y="269.712" style="stroke: #000000; stroke-width: 0.5"/>
      </g>
     </g>
     <g id="line2d_16">
      <g>
       <use xlink:href="#m4c342fa54f" x="88.524479" y="3.6" style="stroke: #000000; stroke-width: 0.5"/>
      </g>
     </g>
    </g>
    <g id="xtick_9">
     <g id="line2d_17">
      <g>
       <use xlink:href="#m0127dc4317" x="104.021116" y="269.712" style="stroke: #000000; stroke-width: 0.5"/>
      </g>
     </g>
     <g id="line2d_18">
      <g>
       <use xlink:href="#m4c342fa54f" x="104.021116" y="3.6" style="stroke: #000000; stroke-width: 0.5"/>
      </g>
     </g>
    </g>
    <g id="xtick_10">
     <g id="line2d_19">
      <g>
       <use xlink:href="#m0127dc4317" x="119.517753" y="269.712" style="stroke: #000000; stroke-width: 0.5"/>
      </g>
     </g>
     <g id="line2d_20">
      <g>
       <use xlink:href="#m4c342fa54f" x="119.517753" y="3.6" style="stroke: #000000; stroke-width: 0.5"/>
      </g>
     </g>
    </g>
    <g id="xtick_11">
     <g id="line2d_21">
      <g>
       <use xlink:href="#m0127dc4317" x="150.511027" y="269.712" style="stroke: #000000; stroke-width: 0.5"/>
      </g>
     </g>
     <g id="line2d_22">
      <g>
       <use xlink:href="#m4c342fa54f" x="150.511027" y="3.6" style="stroke: #000000; stroke-width: 0.5"/>
      </g>
     </g>
    </g>
    <g id="xtick_12">
     <g id="line2d_23">
      <g>
       <use xlink:href="#m0127dc4317" x="166.007664" y="269.712" style="stroke: #000000; stroke-width: 0.5"/>
      </g>
     </g>
     <g id="line2d_24">
      <g>
       <use xlink:href="#m4c342fa54f" x="166.007664" y="3.6" style="stroke: #000000; stroke-width: 0.5"/>
      </g>
     </g>
    </g>
    <g id="xtick_13">
     <g id="line2d_25">
      <g>
       <use xlink:href="#m0127dc4317" x="181.504301" y="269.712" style="stroke: #000000; stroke-width: 0.5"/>
      </g>
     </g>
     <g id="line2d_26">
      <g>
       <use xlink:href="#m4c342fa54f" x="181.504301" y="3.6" style="stroke: #000000; stroke-width: 0.5"/>
      </g>
     </g>
    </g>
    <g id="xtick_14">
     <g id="line2d_27">
      <g>
       <use xlink:href="#m0127dc4317" x="197.000938" y="269.712" style="stroke: #000000; stroke-width: 0.5"/>
      </g>
     </g>
     <g id="line2d_28">
      <g>
       <use xlink:href="#m4c342fa54f" x="197.000938" y="3.6" style="stroke: #000000; stroke-width: 0.5"/>
      </g>
     </g>
    </g>
    <g id="xtick_15">
     <g id="line2d_29">
      <g>
       <use xlink:href="#m0127dc4317" x="227.994212" y="269.712" style="stroke: #000000; stroke-width: 0.5"/>
      </g>
     </g>
     <g id="line2d_30">
      <g>
       <use xlink:href="#m4c342fa54f" x="227.994212" y="3.6" style="stroke: #000000; stroke-width: 0.5"/>
      </g>
     </g>
    </g>
    <g id="xtick_16">
     <g id="line2d_31">
      <g>
       <use xlink:href="#m0127dc4317" x="243.490849" y="269.712" style="stroke: #000000; stroke-width: 0.5"/>
      </g>
     </g>
     <g id="line2d_32">
      <g>
       <use xlink:href="#m4c342fa54f" x="243.490849" y="3.6" style="stroke: #000000; stroke-width: 0.5"/>
      </g>
     </g>
    </g>
    <g id="xtick_17">
     <g id="line2d_33">
      <g>
       <use xlink:href="#m0127dc4317" x="258.987486" y="269.712" style="stroke: #000000; stroke-width: 0.5"/>
      </g>
     </g>
     <g id="line2d_34">
      <g>
       <use xlink:href="#m4c342fa54f" x="258.987486" y="3.6" style="stroke: #000000; stroke-width: 0.5"/>
      </g>
     </g>
    </g>
    <g id="xtick_18">
     <g id="line2d_35">
      <g>
       <use xlink:href="#m0127dc4317" x="274.484123" y="269.712" style="stroke: #000000; stroke-width: 0.5"/>
      </g>
     </g>
     <g id="line2d_36">
      <g>
       <use xlink:href="#m4c342fa54f" x="274.484123" y="3.6" style="stroke: #000000; stroke-width: 0.5"/>
      </g>
     </g>
    </g>
    <g id="xtick_19">
     <g id="line2d_37">
      <g>
       <use xlink:href="#m0127dc4317" x="305.477397" y="269.712" style="stroke: #000000; stroke-width: 0.5"/>
      </g>
     </g>
     <g id="line2d_38">
      <g>
       <use xlink:href="#m4c342fa54f" x="305.477397" y="3.6" style="stroke: #000000; stroke-width: 0.5"/>
      </g>
     </g>
    </g>
    <g id="xtick_20">
     <g id="line2d_39">
      <g>
       <use xlink:href="#m0127dc4317" x="320.974034" y="269.712" style="stroke: #000000; stroke-width: 0.5"/>
      </g>
     </g>
     <g id="line2d_40">
      <g>
       <use xlink:href="#m4c342fa54f" x="320.974034" y="3.6" style="stroke: #000000; stroke-width: 0.5"/>
      </g>
     </g>
    </g>
    <g id="xtick_21">
     <g id="line2d_41">
      <g>
       <use xlink:href="#m0127dc4317" x="336.470671" y="269.712" style="stroke: #000000; stroke-width: 0.5"/>
      </g>
     </g>
     <g id="line2d_42">
      <g>
       <use xlink:href="#m4c342fa54f" x="336.470671" y="3.6" style="stroke: #000000; stroke-width: 0.5"/>
      </g>
     </g>
    </g>
    <g id="xtick_22">
     <g id="line2d_43">
      <g>
       <use xlink:href="#m0127dc4317" x="351.967308" y="269.712" style="stroke: #000000; stroke-width: 0.5"/>
      </g>
     </g>
     <g id="line2d_44">
      <g>
       <use xlink:href="#m4c342fa54f" x="351.967308" y="3.6" style="stroke: #000000; stroke-width: 0.5"/>
      </g>
     </g>
    </g>
    <g id="xtick_23">
     <g id="line2d_45">
      <g>
       <use xlink:href="#m0127dc4317" x="382.960582" y="269.712" style="stroke: #000000; stroke-width: 0.5"/>
      </g>
     </g>
     <g id="line2d_46">
      <g>
       <use xlink:href="#m4c342fa54f" x="382.960582" y="3.6" style="stroke: #000000; stroke-width: 0.5"/>
      </g>
     </g>
    </g>
    <g id="text_6">
     <!-- days -->
     <g transform="translate(205.249382 295.148446) scale(0.16 -0.16)">
      <defs>
       <path id="NimbusRomNo9L-Regu-64" d="M 2202 -64 
L 3142 269 
L 3142 365 
C 3027 365 3014 365 2995 365 
C 2765 365 2714 435 2714 731 
L 2714 4364 
L 2682 4377 
C 2374 4268 2150 4204 1741 4096 
L 1741 3994 
C 1792 4000 1830 4000 1882 4000 
C 2118 4000 2176 3936 2176 3672 
L 2176 2669 
C 1933 2874 1760 2944 1504 2944 
C 768 2944 173 2221 173 1312 
C 173 493 653 -64 1357 -64 
C 1715 -64 1958 64 2176 365 
L 2176 -45 
L 2202 -64 
z
M 2176 653 
C 2176 608 2131 531 2067 461 
C 1952 333 1792 269 1606 269 
C 1075 269 723 781 723 1568 
C 723 2291 1037 2765 1523 2765 
C 1862 2765 2176 2464 2176 2125 
L 2176 653 
z
" transform="scale(0.015625)"/>
       <path id="NimbusRomNo9L-Regu-61" d="M 2829 423 
C 2720 333 2643 301 2547 301 
C 2400 301 2355 390 2355 672 
L 2355 1920 
C 2355 2253 2323 2438 2227 2592 
C 2086 2822 1811 2944 1434 2944 
C 832 2944 358 2630 358 2227 
C 358 2080 486 1952 634 1952 
C 787 1952 922 2080 922 2221 
C 922 2246 915 2278 909 2323 
C 896 2381 890 2432 890 2477 
C 890 2650 1094 2790 1350 2790 
C 1664 2790 1837 2605 1837 2259 
L 1837 1869 
C 851 1472 742 1421 467 1178 
C 326 1050 237 832 237 621 
C 237 218 518 -64 909 -64 
C 1190 -64 1453 70 1843 403 
C 1875 70 1990 -64 2253 -64 
C 2470 -64 2605 13 2829 256 
L 2829 423 
z
M 1837 783 
C 1837 584 1805 526 1670 449 
C 1517 359 1338 301 1203 301 
C 979 301 800 520 800 796 
L 800 822 
C 800 1201 1062 1433 1837 1715 
L 1837 783 
z
" transform="scale(0.015625)"/>
       <path id="NimbusRomNo9L-Regu-79" d="M 3040 2880 
L 2176 2880 
L 2176 2784 
C 2381 2784 2483 2726 2483 2623 
C 2483 2597 2477 2559 2458 2514 
L 1837 742 
L 1101 2377 
C 1062 2468 1037 2552 1037 2622 
C 1037 2739 1133 2784 1408 2784 
L 1408 2880 
L 90 2880 
L 90 2790 
C 256 2765 365 2694 416 2585 
L 1146 1005 
L 1165 953 
L 1261 761 
C 1440 440 1542 209 1542 112 
C 1542 16 1395 -389 1286 -582 
C 1197 -749 1056 -871 966 -871 
C 928 -871 870 -858 806 -826 
C 685 -781 576 -755 467 -755 
C 320 -755 192 -883 192 -1037 
C 192 -1248 397 -1408 666 -1408 
C 1094 -1408 1402 -1049 1747 -124 
L 2733 2495 
C 2816 2701 2886 2765 3040 2784 
L 3040 2880 
z
" transform="scale(0.015625)"/>
       <path id="NimbusRomNo9L-Regu-73" d="M 2016 2010 
L 1990 2880 
L 1920 2880 
L 1907 2867 
C 1850 2822 1843 2816 1818 2816 
C 1779 2816 1715 2829 1645 2861 
C 1504 2915 1363 2944 1197 2944 
C 691 2944 326 2616 326 2154 
C 326 1796 531 1539 1075 1231 
L 1446 1020 
C 1670 892 1779 737 1779 539 
C 1779 256 1574 77 1248 77 
C 1030 77 832 159 710 298 
C 576 455 518 600 435 960 
L 333 960 
L 333 -39 
L 416 -39 
C 461 33 486 48 563 48 
C 621 48 710 35 858 -2 
C 1037 -39 1210 -64 1325 -64 
C 1818 -64 2227 308 2227 757 
C 2227 1077 2074 1289 1690 1520 
L 998 1930 
C 819 2033 723 2194 723 2367 
C 723 2624 922 2803 1216 2803 
C 1581 2803 1773 2583 1920 2010 
L 2016 2010 
z
" transform="scale(0.015625)"/>
      </defs>
      <use xlink:href="#NimbusRomNo9L-Regu-64" transform="scale(0.996264)"/>
      <use xlink:href="#NimbusRomNo9L-Regu-61" transform="translate(49.8132 0) scale(0.996264)"/>
      <use xlink:href="#NimbusRomNo9L-Regu-79" transform="translate(94.046769 0) scale(0.996264)"/>
      <use xlink:href="#NimbusRomNo9L-Regu-73" transform="translate(143.85997 0) scale(0.996264)"/>
     </g>
    </g>
   </g>
   <g id="matplotlib.axis_2">
    <g id="ytick_1">
     <g id="line2d_47">
      <defs>
       <path id="md25872ab2f" d="M 0 0 
L 3 0 
" style="stroke: #000000; stroke-width: 0.5"/>
      </defs>
      <g>
       <use xlink:href="#md25872ab2f" x="41.298478" y="254.955568" style="stroke: #000000; stroke-width: 0.5"/>
      </g>
     </g>
     <g id="line2d_48">
      <defs>
       <path id="m6ee613f71a" d="M 0 0 
L -3 0 
" style="stroke: #000000; stroke-width: 0.5"/>
      </defs>
      <g>
       <use xlink:href="#m6ee613f71a" x="398.418478" y="254.955568" style="stroke: #000000; stroke-width: 0.5"/>
      </g>
     </g>
     <g id="text_7">
      <!-- $\mathdefault{0}$ -->
      <g transform="translate(33.813421 257.657396) scale(0.08 -0.08)">
       <use xlink:href="#NimbusRomNo9L-Regu-30" transform="scale(0.996264)"/>
      </g>
     </g>
    </g>
    <g id="ytick_2">
     <g id="line2d_49">
      <g>
       <use xlink:href="#md25872ab2f" x="41.298478" y="216.422965" style="stroke: #000000; stroke-width: 0.5"/>
      </g>
     </g>
     <g id="line2d_50">
      <g>
       <use xlink:href="#m6ee613f71a" x="398.418478" y="216.422965" style="stroke: #000000; stroke-width: 0.5"/>
      </g>
     </g>
     <g id="text_8">
      <!-- $\mathdefault{200}$ -->
      <g transform="translate(25.843309 219.124793) scale(0.08 -0.08)">
       <use xlink:href="#NimbusRomNo9L-Regu-32" transform="scale(0.996264)"/>
       <use xlink:href="#NimbusRomNo9L-Regu-30" transform="translate(49.8132 0) scale(0.996264)"/>
       <use xlink:href="#NimbusRomNo9L-Regu-30" transform="translate(99.626401 0) scale(0.996264)"/>
      </g>
     </g>
    </g>
    <g id="ytick_3">
     <g id="line2d_51">
      <g>
       <use xlink:href="#md25872ab2f" x="41.298478" y="177.890363" style="stroke: #000000; stroke-width: 0.5"/>
      </g>
     </g>
     <g id="line2d_52">
      <g>
       <use xlink:href="#m6ee613f71a" x="398.418478" y="177.890363" style="stroke: #000000; stroke-width: 0.5"/>
      </g>
     </g>
     <g id="text_9">
      <!-- $\mathdefault{400}$ -->
      <g transform="translate(25.843309 180.592191) scale(0.08 -0.08)">
       <use xlink:href="#NimbusRomNo9L-Regu-34" transform="scale(0.996264)"/>
       <use xlink:href="#NimbusRomNo9L-Regu-30" transform="translate(49.8132 0) scale(0.996264)"/>
       <use xlink:href="#NimbusRomNo9L-Regu-30" transform="translate(99.626401 0) scale(0.996264)"/>
      </g>
     </g>
    </g>
    <g id="ytick_4">
     <g id="line2d_53">
      <g>
       <use xlink:href="#md25872ab2f" x="41.298478" y="139.357761" style="stroke: #000000; stroke-width: 0.5"/>
      </g>
     </g>
     <g id="line2d_54">
      <g>
       <use xlink:href="#m6ee613f71a" x="398.418478" y="139.357761" style="stroke: #000000; stroke-width: 0.5"/>
      </g>
     </g>
     <g id="text_10">
      <!-- $\mathdefault{600}$ -->
      <g transform="translate(25.843309 142.059589) scale(0.08 -0.08)">
       <defs>
        <path id="NimbusRomNo9L-Regu-36" d="M 2854 4391 
C 2125 4327 1754 4205 1286 3879 
C 595 3386 218 2656 218 1802 
C 218 1248 390 688 666 370 
C 909 89 1254 -64 1651 -64 
C 2445 -64 2995 541 2995 1421 
C 2995 2236 2528 2752 1792 2752 
C 1510 2752 1376 2707 973 2464 
C 1146 3431 1862 4122 2867 4288 
L 2854 4391 
z
M 1549 2458 
C 2099 2458 2419 2000 2419 1204 
C 2419 504 2170 116 1722 116 
C 1158 116 813 714 813 1700 
C 813 2025 864 2203 992 2299 
C 1126 2400 1325 2458 1549 2458 
z
" transform="scale(0.015625)"/>
       </defs>
       <use xlink:href="#NimbusRomNo9L-Regu-36" transform="scale(0.996264)"/>
       <use xlink:href="#NimbusRomNo9L-Regu-30" transform="translate(49.8132 0) scale(0.996264)"/>
       <use xlink:href="#NimbusRomNo9L-Regu-30" transform="translate(99.626401 0) scale(0.996264)"/>
      </g>
     </g>
    </g>
    <g id="ytick_5">
     <g id="line2d_55">
      <g>
       <use xlink:href="#md25872ab2f" x="41.298478" y="100.825158" style="stroke: #000000; stroke-width: 0.5"/>
      </g>
     </g>
     <g id="line2d_56">
      <g>
       <use xlink:href="#m6ee613f71a" x="398.418478" y="100.825158" style="stroke: #000000; stroke-width: 0.5"/>
      </g>
     </g>
     <g id="text_11">
      <!-- $\mathdefault{800}$ -->
      <g transform="translate(25.843309 103.526986) scale(0.08 -0.08)">
       <defs>
        <path id="NimbusRomNo9L-Regu-38" d="M 1856 2400 
C 2490 2740 2714 3008 2714 3444 
C 2714 3968 2253 4352 1613 4352 
C 915 4352 397 3924 397 3341 
C 397 2925 518 2740 1190 2151 
C 499 1626 358 1428 358 992 
C 358 372 864 -64 1587 -64 
C 2355 -64 2848 359 2848 1018 
C 2848 1511 2630 1824 1856 2400 
z
M 1741 1741 
C 2208 1408 2362 1178 2362 820 
C 2362 404 2074 116 1658 116 
C 1171 116 845 487 845 1044 
C 845 1453 986 1722 1357 2023 
L 1741 1741 
z
M 1670 2516 
C 1101 2887 870 3181 870 3540 
C 870 3911 1158 4173 1562 4173 
C 1997 4173 2272 3892 2272 3450 
C 2272 3085 2093 2797 1728 2554 
C 1696 2535 1696 2535 1670 2516 
z
" transform="scale(0.015625)"/>
       </defs>
       <use xlink:href="#NimbusRomNo9L-Regu-38" transform="scale(0.996264)"/>
       <use xlink:href="#NimbusRomNo9L-Regu-30" transform="translate(49.8132 0) scale(0.996264)"/>
       <use xlink:href="#NimbusRomNo9L-Regu-30" transform="translate(99.626401 0) scale(0.996264)"/>
      </g>
     </g>
    </g>
    <g id="ytick_6">
     <g id="line2d_57">
      <g>
       <use xlink:href="#md25872ab2f" x="41.298478" y="62.292556" style="stroke: #000000; stroke-width: 0.5"/>
      </g>
     </g>
     <g id="line2d_58">
      <g>
       <use xlink:href="#m6ee613f71a" x="398.418478" y="62.292556" style="stroke: #000000; stroke-width: 0.5"/>
      </g>
     </g>
     <g id="text_12">
      <!-- $\mathdefault{1000}$ -->
      <g transform="translate(21.858253 64.994384) scale(0.08 -0.08)">
       <use xlink:href="#NimbusRomNo9L-Regu-31" transform="scale(0.996264)"/>
       <use xlink:href="#NimbusRomNo9L-Regu-30" transform="translate(49.8132 0) scale(0.996264)"/>
       <use xlink:href="#NimbusRomNo9L-Regu-30" transform="translate(99.626401 0) scale(0.996264)"/>
       <use xlink:href="#NimbusRomNo9L-Regu-30" transform="translate(149.439601 0) scale(0.996264)"/>
      </g>
     </g>
    </g>
    <g id="ytick_7">
     <g id="line2d_59">
      <g>
       <use xlink:href="#md25872ab2f" x="41.298478" y="23.759954" style="stroke: #000000; stroke-width: 0.5"/>
      </g>
     </g>
     <g id="line2d_60">
      <g>
       <use xlink:href="#m6ee613f71a" x="398.418478" y="23.759954" style="stroke: #000000; stroke-width: 0.5"/>
      </g>
     </g>
     <g id="text_13">
      <!-- $\mathdefault{1200}$ -->
      <g transform="translate(21.858253 26.461782) scale(0.08 -0.08)">
       <use xlink:href="#NimbusRomNo9L-Regu-31" transform="scale(0.996264)"/>
       <use xlink:href="#NimbusRomNo9L-Regu-32" transform="translate(49.8132 0) scale(0.996264)"/>
       <use xlink:href="#NimbusRomNo9L-Regu-30" transform="translate(99.626401 0) scale(0.996264)"/>
       <use xlink:href="#NimbusRomNo9L-Regu-30" transform="translate(149.439601 0) scale(0.996264)"/>
      </g>
     </g>
    </g>
    <g id="ytick_8">
     <g id="line2d_61">
      <defs>
       <path id="m707faecb2f" d="M 0 0 
L 1.5 0 
" style="stroke: #000000; stroke-width: 0.5"/>
      </defs>
      <g>
       <use xlink:href="#m707faecb2f" x="41.298478" y="264.588718" style="stroke: #000000; stroke-width: 0.5"/>
      </g>
     </g>
     <g id="line2d_62">
      <defs>
       <path id="m3f4105a301" d="M 0 0 
L -1.5 0 
" style="stroke: #000000; stroke-width: 0.5"/>
      </defs>
      <g>
       <use xlink:href="#m3f4105a301" x="398.418478" y="264.588718" style="stroke: #000000; stroke-width: 0.5"/>
      </g>
     </g>
    </g>
    <g id="ytick_9">
     <g id="line2d_63">
      <g>
       <use xlink:href="#m707faecb2f" x="41.298478" y="245.322417" style="stroke: #000000; stroke-width: 0.5"/>
      </g>
     </g>
     <g id="line2d_64">
      <g>
       <use xlink:href="#m3f4105a301" x="398.418478" y="245.322417" style="stroke: #000000; stroke-width: 0.5"/>
      </g>
     </g>
    </g>
    <g id="ytick_10">
     <g id="line2d_65">
      <g>
       <use xlink:href="#m707faecb2f" x="41.298478" y="235.689266" style="stroke: #000000; stroke-width: 0.5"/>
      </g>
     </g>
     <g id="line2d_66">
      <g>
       <use xlink:href="#m3f4105a301" x="398.418478" y="235.689266" style="stroke: #000000; stroke-width: 0.5"/>
      </g>
     </g>
    </g>
    <g id="ytick_11">
     <g id="line2d_67">
      <g>
       <use xlink:href="#m707faecb2f" x="41.298478" y="226.056116" style="stroke: #000000; stroke-width: 0.5"/>
      </g>
     </g>
     <g id="line2d_68">
      <g>
       <use xlink:href="#m3f4105a301" x="398.418478" y="226.056116" style="stroke: #000000; stroke-width: 0.5"/>
      </g>
     </g>
    </g>
    <g id="ytick_12">
     <g id="line2d_69">
      <g>
       <use xlink:href="#m707faecb2f" x="41.298478" y="206.789815" style="stroke: #000000; stroke-width: 0.5"/>
      </g>
     </g>
     <g id="line2d_70">
      <g>
       <use xlink:href="#m3f4105a301" x="398.418478" y="206.789815" style="stroke: #000000; stroke-width: 0.5"/>
      </g>
     </g>
    </g>
    <g id="ytick_13">
     <g id="line2d_71">
      <g>
       <use xlink:href="#m707faecb2f" x="41.298478" y="197.156664" style="stroke: #000000; stroke-width: 0.5"/>
      </g>
     </g>
     <g id="line2d_72">
      <g>
       <use xlink:href="#m3f4105a301" x="398.418478" y="197.156664" style="stroke: #000000; stroke-width: 0.5"/>
      </g>
     </g>
    </g>
    <g id="ytick_14">
     <g id="line2d_73">
      <g>
       <use xlink:href="#m707faecb2f" x="41.298478" y="187.523513" style="stroke: #000000; stroke-width: 0.5"/>
      </g>
     </g>
     <g id="line2d_74">
      <g>
       <use xlink:href="#m3f4105a301" x="398.418478" y="187.523513" style="stroke: #000000; stroke-width: 0.5"/>
      </g>
     </g>
    </g>
    <g id="ytick_15">
     <g id="line2d_75">
      <g>
       <use xlink:href="#m707faecb2f" x="41.298478" y="168.257212" style="stroke: #000000; stroke-width: 0.5"/>
      </g>
     </g>
     <g id="line2d_76">
      <g>
       <use xlink:href="#m3f4105a301" x="398.418478" y="168.257212" style="stroke: #000000; stroke-width: 0.5"/>
      </g>
     </g>
    </g>
    <g id="ytick_16">
     <g id="line2d_77">
      <g>
       <use xlink:href="#m707faecb2f" x="41.298478" y="158.624062" style="stroke: #000000; stroke-width: 0.5"/>
      </g>
     </g>
     <g id="line2d_78">
      <g>
       <use xlink:href="#m3f4105a301" x="398.418478" y="158.624062" style="stroke: #000000; stroke-width: 0.5"/>
      </g>
     </g>
    </g>
    <g id="ytick_17">
     <g id="line2d_79">
      <g>
       <use xlink:href="#m707faecb2f" x="41.298478" y="148.990911" style="stroke: #000000; stroke-width: 0.5"/>
      </g>
     </g>
     <g id="line2d_80">
      <g>
       <use xlink:href="#m3f4105a301" x="398.418478" y="148.990911" style="stroke: #000000; stroke-width: 0.5"/>
      </g>
     </g>
    </g>
    <g id="ytick_18">
     <g id="line2d_81">
      <g>
       <use xlink:href="#m707faecb2f" x="41.298478" y="129.72461" style="stroke: #000000; stroke-width: 0.5"/>
      </g>
     </g>
     <g id="line2d_82">
      <g>
       <use xlink:href="#m3f4105a301" x="398.418478" y="129.72461" style="stroke: #000000; stroke-width: 0.5"/>
      </g>
     </g>
    </g>
    <g id="ytick_19">
     <g id="line2d_83">
      <g>
       <use xlink:href="#m707faecb2f" x="41.298478" y="120.091459" style="stroke: #000000; stroke-width: 0.5"/>
      </g>
     </g>
     <g id="line2d_84">
      <g>
       <use xlink:href="#m3f4105a301" x="398.418478" y="120.091459" style="stroke: #000000; stroke-width: 0.5"/>
      </g>
     </g>
    </g>
    <g id="ytick_20">
     <g id="line2d_85">
      <g>
       <use xlink:href="#m707faecb2f" x="41.298478" y="110.458309" style="stroke: #000000; stroke-width: 0.5"/>
      </g>
     </g>
     <g id="line2d_86">
      <g>
       <use xlink:href="#m3f4105a301" x="398.418478" y="110.458309" style="stroke: #000000; stroke-width: 0.5"/>
      </g>
     </g>
    </g>
    <g id="ytick_21">
     <g id="line2d_87">
      <g>
       <use xlink:href="#m707faecb2f" x="41.298478" y="91.192008" style="stroke: #000000; stroke-width: 0.5"/>
      </g>
     </g>
     <g id="line2d_88">
      <g>
       <use xlink:href="#m3f4105a301" x="398.418478" y="91.192008" style="stroke: #000000; stroke-width: 0.5"/>
      </g>
     </g>
    </g>
    <g id="ytick_22">
     <g id="line2d_89">
      <g>
       <use xlink:href="#m707faecb2f" x="41.298478" y="81.558857" style="stroke: #000000; stroke-width: 0.5"/>
      </g>
     </g>
     <g id="line2d_90">
      <g>
       <use xlink:href="#m3f4105a301" x="398.418478" y="81.558857" style="stroke: #000000; stroke-width: 0.5"/>
      </g>
     </g>
    </g>
    <g id="ytick_23">
     <g id="line2d_91">
      <g>
       <use xlink:href="#m707faecb2f" x="41.298478" y="71.925707" style="stroke: #000000; stroke-width: 0.5"/>
      </g>
     </g>
     <g id="line2d_92">
      <g>
       <use xlink:href="#m3f4105a301" x="398.418478" y="71.925707" style="stroke: #000000; stroke-width: 0.5"/>
      </g>
     </g>
    </g>
    <g id="ytick_24">
     <g id="line2d_93">
      <g>
       <use xlink:href="#m707faecb2f" x="41.298478" y="52.659405" style="stroke: #000000; stroke-width: 0.5"/>
      </g>
     </g>
     <g id="line2d_94">
      <g>
       <use xlink:href="#m3f4105a301" x="398.418478" y="52.659405" style="stroke: #000000; stroke-width: 0.5"/>
      </g>
     </g>
    </g>
    <g id="ytick_25">
     <g id="line2d_95">
      <g>
       <use xlink:href="#m707faecb2f" x="41.298478" y="43.026255" style="stroke: #000000; stroke-width: 0.5"/>
      </g>
     </g>
     <g id="line2d_96">
      <g>
       <use xlink:href="#m3f4105a301" x="398.418478" y="43.026255" style="stroke: #000000; stroke-width: 0.5"/>
      </g>
     </g>
    </g>
    <g id="ytick_26">
     <g id="line2d_97">
      <g>
       <use xlink:href="#m707faecb2f" x="41.298478" y="33.393104" style="stroke: #000000; stroke-width: 0.5"/>
      </g>
     </g>
     <g id="line2d_98">
      <g>
       <use xlink:href="#m3f4105a301" x="398.418478" y="33.393104" style="stroke: #000000; stroke-width: 0.5"/>
      </g>
     </g>
    </g>
    <g id="ytick_27">
     <g id="line2d_99">
      <g>
       <use xlink:href="#m707faecb2f" x="41.298478" y="14.126803" style="stroke: #000000; stroke-width: 0.5"/>
      </g>
     </g>
     <g id="line2d_100">
      <g>
       <use xlink:href="#m3f4105a301" x="398.418478" y="14.126803" style="stroke: #000000; stroke-width: 0.5"/>
      </g>
     </g>
    </g>
    <g id="ytick_28">
     <g id="line2d_101">
      <g>
       <use xlink:href="#m707faecb2f" x="41.298478" y="4.493652" style="stroke: #000000; stroke-width: 0.5"/>
      </g>
     </g>
     <g id="line2d_102">
      <g>
       <use xlink:href="#m3f4105a301" x="398.418478" y="4.493652" style="stroke: #000000; stroke-width: 0.5"/>
      </g>
     </g>
    </g>
    <g id="text_14">
     <!-- spatial rainfall -->
     <g transform="translate(14.407327 182.395716) rotate(-90) scale(0.16 -0.16)">
      <defs>
       <path id="NimbusRomNo9L-Regu-70" d="M 58 2516 
C 115 2522 160 2522 218 2522 
C 435 2522 480 2458 480 2155 
L 480 -855 
C 480 -1189 410 -1261 32 -1299 
L 32 -1408 
L 1581 -1408 
L 1581 -1293 
C 1101 -1293 1018 -1222 1018 -816 
L 1018 199 
C 1242 -13 1395 -77 1664 -77 
C 2419 -77 3008 643 3008 1575 
C 3008 2372 2560 2944 1939 2944 
C 1581 2944 1299 2784 1018 2438 
L 1018 2931 
L 979 2944 
C 634 2810 410 2726 58 2618 
L 58 2516 
z
M 1018 2136 
C 1018 2329 1376 2560 1670 2560 
C 2144 2560 2458 2071 2458 1324 
C 2458 611 2144 128 1683 128 
C 1382 128 1018 359 1018 552 
L 1018 2136 
z
" transform="scale(0.015625)"/>
       <path id="NimbusRomNo9L-Regu-74" d="M 1632 2880 
L 986 2880 
L 986 3622 
C 986 3686 979 3706 941 3706 
C 896 3648 858 3590 813 3526 
C 570 3174 294 2867 192 2841 
C 122 2794 83 2748 83 2715 
C 83 2695 90 2682 109 2682 
L 448 2682 
L 448 751 
C 448 212 640 -64 1018 -64 
C 1331 -64 1574 90 1786 423 
L 1702 493 
C 1568 333 1459 269 1318 269 
C 1082 269 986 443 986 847 
L 986 2682 
L 1632 2682 
L 1632 2880 
z
" transform="scale(0.015625)"/>
       <path id="NimbusRomNo9L-Regu-69" d="M 1120 2929 
L 128 2579 
L 128 2484 
L 179 2490 
C 256 2502 339 2509 397 2509 
C 550 2509 608 2406 608 2125 
L 608 640 
C 608 179 544 109 102 109 
L 102 0 
L 1619 0 
L 1619 96 
C 1197 128 1146 191 1146 650 
L 1146 2910 
L 1120 2929 
z
M 819 4352 
C 646 4352 499 4205 499 4026 
C 499 3847 640 3699 819 3699 
C 1005 3699 1152 3840 1152 4026 
C 1152 4205 1005 4352 819 4352 
z
" transform="scale(0.015625)"/>
       <path id="NimbusRomNo9L-Regu-6c" d="M 122 4000 
L 160 4000 
C 230 4000 307 4000 358 4000 
C 563 4000 627 3910 627 3610 
L 627 557 
C 627 211 538 128 134 96 
L 134 0 
L 1645 0 
L 1645 109 
C 1242 109 1165 173 1165 528 
L 1165 4371 
L 1139 4384 
C 806 4275 563 4211 122 4103 
L 122 4000 
z
" transform="scale(0.015625)"/>
       <path id="NimbusRomNo9L-Regu-72" d="M 45 2496 
C 134 2515 192 2522 269 2522 
C 429 2522 486 2419 486 2138 
L 486 538 
C 486 218 442 173 32 96 
L 32 0 
L 1568 0 
L 1568 102 
C 1133 102 1024 199 1024 565 
L 1024 2013 
C 1024 2219 1299 2541 1472 2541 
C 1510 2541 1568 2509 1638 2445 
C 1741 2355 1811 2317 1894 2317 
C 2048 2317 2144 2426 2144 2605 
C 2144 2816 2010 2944 1792 2944 
C 1523 2944 1338 2797 1024 2343 
L 1024 2931 
L 992 2944 
C 653 2803 422 2721 45 2599 
L 45 2496 
z
" transform="scale(0.015625)"/>
       <path id="NimbusRomNo9L-Regu-6e" d="M 102 2579 
C 141 2598 205 2605 275 2605 
C 454 2605 512 2509 512 2195 
L 512 608 
C 512 243 442 154 115 128 
L 115 32 
L 1472 32 
L 1472 128 
C 1146 154 1050 230 1050 461 
L 1050 2259 
C 1357 2547 1498 2624 1709 2624 
C 2022 2624 2176 2426 2176 2003 
L 2176 666 
C 2176 262 2093 154 1773 128 
L 1773 32 
L 3104 32 
L 3104 128 
C 2790 160 2714 237 2714 550 
L 2714 2016 
C 2714 2618 2432 2976 1958 2976 
C 1664 2976 1466 2867 1030 2458 
L 1030 2963 
L 986 2976 
C 672 2861 454 2790 102 2688 
L 102 2579 
z
" transform="scale(0.015625)"/>
       <path id="NimbusRomNo9L-Regu-66" d="M 1978 2880 
L 1190 2880 
L 1190 3611 
C 1190 3978 1312 4173 1555 4173 
C 1690 4173 1779 4110 1894 3927 
C 1997 3763 2074 3700 2182 3700 
C 2330 3700 2451 3814 2451 3959 
C 2451 4188 2170 4352 1786 4352 
C 1389 4352 1050 4181 883 3891 
C 717 3613 666 3385 659 2880 
L 134 2880 
L 134 2675 
L 659 2675 
L 659 656 
C 659 185 589 109 128 109 
L 128 0 
L 1792 0 
L 1792 109 
C 1267 109 1197 180 1197 661 
L 1197 2675 
L 1978 2675 
L 1978 2880 
z
" transform="scale(0.015625)"/>
      </defs>
      <use xlink:href="#NimbusRomNo9L-Regu-73" transform="scale(0.996264)"/>
      <use xlink:href="#NimbusRomNo9L-Regu-70" transform="translate(38.753706 0) scale(0.996264)"/>
      <use xlink:href="#NimbusRomNo9L-Regu-61" transform="translate(88.566907 0) scale(0.996264)"/>
      <use xlink:href="#NimbusRomNo9L-Regu-74" transform="translate(132.800475 0) scale(0.996264)"/>
      <use xlink:href="#NimbusRomNo9L-Regu-69" transform="translate(160.495645 0) scale(0.996264)"/>
      <use xlink:href="#NimbusRomNo9L-Regu-61" transform="translate(188.190815 0) scale(0.996264)"/>
      <use xlink:href="#NimbusRomNo9L-Regu-6c" transform="translate(232.424383 0) scale(0.996264)"/>
      <use xlink:href="#NimbusRomNo9L-Regu-72" transform="translate(285.026153 0) scale(0.996264)"/>
      <use xlink:href="#NimbusRomNo9L-Regu-61" transform="translate(318.201383 0) scale(0.996264)"/>
      <use xlink:href="#NimbusRomNo9L-Regu-69" transform="translate(362.434952 0) scale(0.996264)"/>
      <use xlink:href="#NimbusRomNo9L-Regu-6e" transform="translate(390.130121 0) scale(0.996264)"/>
      <use xlink:href="#NimbusRomNo9L-Regu-66" transform="translate(439.943322 0) scale(0.996264)"/>
      <use xlink:href="#NimbusRomNo9L-Regu-61" transform="translate(472.122455 0) scale(0.996264)"/>
      <use xlink:href="#NimbusRomNo9L-Regu-6c" transform="translate(516.356023 0) scale(0.996264)"/>
      <use xlink:href="#NimbusRomNo9L-Regu-6c" transform="translate(544.051193 0) scale(0.996264)"/>
     </g>
    </g>
   </g>
   <g id="line2d_103">
    <path d="M 57.531205 208.788755 
L 58.306037 204.225018 
L 59.080868 204.736767 
L 59.8557 201.621033 
L 60.630532 200.063172 
L 61.405364 213.059644 
L 62.180196 212.140352 
L 62.955028 211.680708 
L 63.72986 205.95999 
L 64.504691 210.131831 
L 65.279523 217.226987 
L 66.054355 208.733131 
L 66.829187 204.38987 
L 67.604019 202.121911 
L 68.378851 201.854912 
L 69.153683 201.72141 
L 69.928514 203.870289 
L 70.703346 207.545674 
L 71.478178 206.204429 
L 72.25301 210.735708 
L 73.027842 211.267381 
L 73.802674 217.120446 
L 74.577505 220.91396 
L 75.352337 219.439113 
L 76.127169 223.132942 
L 76.902001 224.690859 
L 77.676833 225.469816 
L 78.451665 225.859299 
L 79.226497 237.546385 
L 80.001328 243.515164 
L 80.77616 246.451382 
L 81.550992 247.842433 
L 82.325824 248.634281 
L 83.100656 249.059112 
L 83.875488 224.263864 
L 84.65032 211.866242 
L 85.425151 201.621509 
L 86.199983 196.884468 
L 86.974815 194.515944 
L 87.749647 193.331685 
L 88.524479 192.643224 
L 89.299311 193.647637 
L 90.074143 223.988525 
L 90.848974 235.426122 
L 91.623806 245.190847 
L 92.398638 250.073209 
L 93.17347 252.501958 
L 93.948302 253.728767 
L 94.723134 251.953143 
L 95.497965 251.065334 
L 96.272797 232.202844 
L 97.047629 216.124728 
L 97.822461 205.966375 
L 98.597293 200.501873 
L 99.372125 196.902636 
L 100.146957 195.103023 
L 100.921788 194.01055 
L 101.69662 224.483059 
L 102.471452 239.719312 
L 103.246284 247.337439 
L 104.021116 247.909766 
L 104.795948 248.195926 
L 106.345611 248.439448 
L 107.120443 248.229575 
L 107.895275 248.394363 
L 108.670107 251.674967 
L 109.444939 250.117059 
L 110.219771 249.289939 
L 110.994602 234.39776 
L 111.769434 215.295553 
L 112.544266 206.129776 
L 113.319098 202.895532 
L 114.09393 201.278405 
L 114.868762 200.469847 
L 115.643594 207.483091 
L 116.418425 228.44498 
L 117.193257 238.463533 
L 117.968089 243.588412 
L 118.742921 246.295349 
L 119.517753 247.619913 
L 120.292585 251.149989 
L 121.067417 253.052777 
L 121.842248 241.481078 
L 122.61708 235.695225 
L 123.391912 221.627845 
L 124.166744 222.589672 
L 124.941576 228.272484 
L 125.716408 224.274356 
L 127.266071 219.44546 
L 128.040903 237.200511 
L 128.815735 246.078044 
L 129.590567 250.516802 
L 130.365399 252.73619 
L 131.140231 253.845883 
L 131.915062 254.400718 
L 132.689894 254.678142 
L 134.239558 254.886209 
L 135.01439 254.920893 
L 135.789222 235.575593 
L 136.564054 240.795798 
L 138.113717 246.102945 
L 138.888549 246.338834 
L 139.663381 244.462716 
L 140.438213 243.52466 
L 141.213045 246.870357 
L 141.987877 235.114596 
L 142.762708 228.177067 
L 143.53754 224.226646 
L 144.312372 218.494507 
L 145.087204 215.628436 
L 145.862036 214.195402 
L 146.636868 213.286221 
L 147.411699 213.024293 
L 148.961363 212.972346 
L 149.736195 205.546166 
L 150.511027 201.736738 
L 151.285859 213.800095 
L 152.060691 205.960037 
L 152.835522 201.943677 
L 153.610354 228.449619 
L 154.385186 212.706812 
L 155.160018 204.835409 
L 155.93485 200.996037 
L 156.709682 227.975802 
L 157.484514 241.465685 
L 158.259345 248.210625 
L 159.034177 251.583098 
L 159.809009 253.269335 
L 161.358673 196.686936 
L 162.133505 189.600609 
L 162.908336 179.217902 
L 163.683168 174.122886 
L 164.458 171.575375 
L 165.232832 170.301617 
L 166.007664 169.472081 
L 166.782496 169.057309 
L 167.557328 168.849924 
L 168.332159 184.544598 
L 169.106991 219.75008 
L 169.881823 208.549705 
L 170.656655 188.981451 
L 171.431487 156.94474 
L 172.206319 148.247588 
L 172.981151 143.610011 
L 173.755982 134.06636 
L 174.530814 129.294528 
L 175.305646 127.00495 
L 176.080478 125.860155 
L 176.85531 139.159512 
L 177.630142 145.905504 
L 178.404973 149.471169 
L 179.179805 150.965013 
L 179.954637 144.390729 
L 180.729469 177.805896 
L 181.504301 194.417149 
L 182.279133 198.002534 
L 183.053965 214.052284 
L 183.828796 224.10012 
L 184.603628 222.958823 
L 185.37846 222.388175 
L 186.153292 222.102852 
L 186.928124 222.827173 
L 187.702956 220.106728 
L 188.477788 227.320008 
L 189.252619 226.302733 
L 190.027451 225.7941 
L 190.802283 225.53978 
L 191.577115 222.137351 
L 192.351947 220.436133 
L 193.126779 219.489196 
L 193.901611 219.11206 
L 194.676442 218.923486 
L 195.451274 216.613579 
L 196.226106 186.559175 
L 197.000938 169.798005 
L 197.77577 158.912803 
L 198.550602 138.538813 
L 199.325433 128.640822 
L 200.100265 131.013009 
L 200.875097 192.984288 
L 201.649929 187.074964 
L 202.424761 203.771923 
L 203.199593 212.120406 
L 203.974425 189.321827 
L 204.749256 178.211531 
L 205.524088 172.656382 
L 206.29892 169.97514 
L 207.073752 168.634519 
L 207.848584 168.156871 
L 209.398248 167.94313 
L 210.947911 167.889696 
L 211.722743 160.270605 
L 212.497575 155.883071 
L 213.272407 154.556278 
L 214.047239 137.805532 
L 214.82207 84.635997 
L 215.596902 57.087926 
L 216.371734 43.313885 
L 217.146566 36.426865 
L 217.921398 32.020051 
L 218.69623 29.816632 
L 219.471062 28.714911 
L 220.245893 28.164063 
L 221.020725 26.925323 
L 221.795557 26.305942 
L 222.570389 63.180224 
L 223.345221 44.43341 
L 224.120053 35.059997 
L 224.894885 30.37329 
L 225.669716 73.498396 
L 226.444548 106.235421 
L 227.21938 122.603922 
L 227.994212 162.288587 
L 228.769044 208.622077 
L 229.543876 186.609346 
L 230.318707 175.795641 
L 231.093539 148.039884 
L 231.868371 82.046653 
L 232.643203 49.050055 
L 233.418035 62.414511 
L 234.192867 39.233978 
L 234.967699 26.680379 
L 235.74253 20.403591 
L 236.517362 17.265197 
L 237.292194 15.696 
L 238.067026 33.214388 
L 238.841858 63.937165 
L 239.61669 66.0048 
L 240.391522 146.223121 
L 241.166353 175.832147 
L 241.941185 177.920902 
L 242.716017 143.515291 
L 243.490849 91.344148 
L 244.265681 65.25856 
L 245.040513 52.215777 
L 245.815345 45.694398 
L 246.590176 67.383556 
L 247.365008 59.05816 
L 248.13984 120.30456 
L 248.914672 150.92776 
L 249.689504 166.335692 
L 250.464336 184.250794 
L 251.239167 193.208348 
L 252.013999 197.494465 
L 252.788831 199.733849 
L 253.563663 200.853544 
L 254.338495 201.50972 
L 255.113327 174.864993 
L 255.888159 176.377675 
L 256.66299 162.202638 
L 257.437822 155.211443 
L 258.212654 151.61952 
L 258.987486 164.851273 
L 259.762318 171.467149 
L 260.53715 159.651041 
L 261.311982 182.546107 
L 262.086813 193.99364 
L 262.861645 199.717404 
L 263.636477 218.541421 
L 264.411309 214.110592 
L 265.186141 203.514332 
L 265.960973 200.142835 
L 266.735804 174.085216 
L 267.510636 161.056409 
L 268.285468 154.542002 
L 269.0603 173.73004 
L 269.835132 183.420388 
L 270.609964 188.265567 
L 271.384796 190.688154 
L 272.159627 191.803116 
L 272.934459 192.360597 
L 273.709291 192.639337 
L 274.484123 192.586045 
L 276.033787 233.872288 
L 276.808619 213.973173 
L 277.58345 203.830955 
L 278.358282 213.980217 
L 279.133114 204.70146 
L 279.907946 200.062078 
L 280.682778 197.068064 
L 281.45761 195.185737 
L 282.232441 217.267797 
L 283.007273 205.5746 
L 283.782105 180.847018 
L 284.556937 160.487715 
L 285.331769 146.069475 
L 286.106601 139.920004 
L 286.881433 142.047164 
L 287.656264 137.812517 
L 288.431096 135.6952 
L 289.205928 134.636541 
L 289.98076 134.1072 
L 290.755592 149.448239 
L 291.530424 135.73317 
L 292.305256 113.655252 
L 293.080087 61.964391 
L 293.854919 38.045591 
L 294.629751 24.159579 
L 295.404583 132.236379 
L 296.179415 172.30671 
L 296.954247 167.295685 
L 297.729079 129.725504 
L 298.50391 110.940413 
L 300.053574 114.817427 
L 302.37807 184.985792 
L 303.152901 202.823672 
L 303.927733 153.462048 
L 304.702565 134.946455 
L 305.477397 151.023845 
L 306.252229 202.447359 
L 307.027061 228.159117 
L 307.801893 241.557342 
L 308.576724 248.256457 
L 309.351556 251.606011 
L 310.126388 249.475694 
L 310.90122 225.628133 
L 311.676052 196.364687 
L 312.450884 210.439746 
L 313.225716 216.417632 
L 314.000547 219.406576 
L 314.775379 237.181073 
L 315.550211 246.06832 
L 316.325043 250.51194 
L 317.099875 236.357399 
L 318.649538 227.619954 
L 319.42437 225.104069 
L 320.199202 218.162565 
L 320.974034 160.938834 
L 321.748866 92.349385 
L 322.523698 57.09136 
L 323.29853 39.462342 
L 324.073361 30.647821 
L 324.848193 26.240584 
L 325.623025 61.895224 
L 326.397857 41.86428 
L 327.172689 32.812105 
L 327.947521 29.249344 
L 328.722353 28.431279 
L 329.497184 28.022246 
L 331.046848 27.715472 
L 333.371344 27.626008 
L 334.146175 37.252761 
L 334.921007 70.387589 
L 335.695839 95.624856 
L 336.470671 106.316854 
L 337.245503 164.934175 
L 338.020335 189.040935 
L 339.569998 163.675498 
L 340.34483 198.622733 
L 341.119662 158.97177 
L 341.894494 168.720061 
L 342.669326 173.594204 
L 343.444158 176.031278 
L 344.21899 169.735957 
L 344.993821 166.588297 
L 345.768653 164.918136 
L 346.543485 179.977753 
L 347.318317 171.516532 
L 348.093149 168.152902 
L 348.867981 166.663756 
L 350.417644 134.046487 
L 351.192476 193.528081 
L 351.967308 223.268876 
L 352.74214 237.60945 
L 353.516972 178.272467 
L 354.291804 149.567289 
L 355.066635 142.63222 
L 355.841467 139.164698 
L 356.616299 137.334599 
L 357.391131 163.681366 
L 358.165963 176.951078 
L 358.940795 173.3748 
L 359.715627 171.875653 
L 360.490458 171.126079 
L 362.040122 170.22674 
L 362.814954 169.241976 
L 363.589786 172.121197 
L 364.364618 193.983087 
L 365.13945 171.968656 
L 365.914281 186.778285 
L 366.689113 177.228754 
L 367.463945 170.334696 
L 368.238777 175.557499 
L 369.788441 175.284185 
L 370.563272 175.238636 
L 371.338104 198.528083 
L 372.112936 191.484494 
L 372.887768 187.770034 
L 373.6626 181.770552 
L 374.437432 154.591603 
L 375.212264 142.832421 
L 376.761927 194.509229 
L 377.536759 207.970716 
L 378.311591 202.949013 
L 379.086423 200.438168 
L 379.861255 191.476221 
L 380.636087 186.898917 
L 381.410918 199.830645 
L 382.18575 201.287265 
L 382.18575 201.287265 
" clip-path="url(#p921543c10f)" style="fill: none; stroke: #000000; stroke-linecap: square"/>
   </g>
   <g id="line2d_104">
    <path d="M 57.531205 219.583549 
L 58.306037 223.462997 
L 59.080868 210.394726 
L 59.8557 205.774774 
L 61.405364 201.329687 
L 62.180196 210.480542 
L 62.955028 210.623734 
L 63.72986 210.119519 
L 64.504691 205.178138 
L 65.279523 207.121092 
L 66.054355 215.729295 
L 66.829187 217.386389 
L 67.604019 200.20607 
L 68.378851 197.855797 
L 69.153683 203.085426 
L 69.928514 202.4365 
L 71.478178 211.871834 
L 72.25301 207.385557 
L 73.027842 211.791947 
L 73.802674 211.940214 
L 74.577505 216.605856 
L 75.352337 223.137246 
L 76.127169 227.335089 
L 76.902001 220.486095 
L 77.676833 221.443269 
L 78.451665 223.181366 
L 79.226497 224.28454 
L 80.001328 230.06296 
L 80.77616 238.088914 
L 81.550992 239.990244 
L 82.325824 243.237206 
L 83.100656 242.35564 
L 83.875488 245.407105 
L 84.65032 226.812225 
L 86.199983 199.512758 
L 86.974815 194.561646 
L 87.749647 194.555443 
L 88.524479 193.275881 
L 89.299311 195.092269 
L 90.074143 198.420604 
L 90.848974 228.428344 
L 91.623806 245.21597 
L 93.17347 251.341829 
L 93.948302 253.380277 
L 94.723134 252.945016 
L 95.497965 254.081215 
L 96.272797 252.289222 
L 97.822461 214.285625 
L 98.597293 199.310306 
L 99.372125 198.462196 
L 100.146957 199.219225 
L 100.921788 193.455168 
L 101.69662 193.507656 
L 102.471452 221.581484 
L 103.246284 242.602531 
L 104.021116 251.481587 
L 104.795948 249.70648 
L 105.57078 248.380617 
L 106.345611 247.627198 
L 107.120443 243.03811 
L 107.895275 248.10765 
L 108.670107 247.593478 
L 109.444939 253.536169 
L 110.219771 252.444731 
L 110.994602 252.915141 
L 111.769434 233.652961 
L 112.544266 210.979844 
L 113.319098 201.301194 
L 114.09393 201.232362 
L 114.868762 200.63524 
L 115.643594 199.363922 
L 116.418425 207.748338 
L 117.193257 228.301641 
L 117.968089 242.708164 
L 118.742921 247.391343 
L 119.517753 251.257086 
L 120.292585 252.386129 
L 121.067417 248.893736 
L 121.842248 252.21645 
L 122.61708 240.269902 
L 123.391912 232.265579 
L 124.166744 217.23546 
L 124.941576 216.576358 
L 125.716408 224.015798 
L 126.491239 225.002278 
L 127.266071 223.999176 
L 128.040903 221.063052 
L 128.815735 236.444599 
L 129.590567 244.305066 
L 130.365399 254.36761 
L 131.140231 252.62269 
L 131.915062 252.330785 
L 132.689894 252.391092 
L 133.464726 257.616 
L 134.239558 254.770146 
L 135.01439 250.291484 
L 135.789222 253.94529 
L 136.564054 244.892439 
L 137.338885 237.600136 
L 138.113717 240.080196 
L 138.888549 241.844208 
L 139.663381 244.989488 
L 140.438213 245.374179 
L 141.213045 242.307851 
L 141.987877 243.425565 
L 142.762708 232.647948 
L 143.53754 224.696018 
L 144.312372 220.478031 
L 145.862036 208.866763 
L 146.636868 208.625176 
L 147.411699 210.227563 
L 148.961363 215.034043 
L 149.736195 218.468222 
L 150.511027 204.850714 
L 151.285859 197.685829 
L 152.060691 206.745391 
L 152.835522 203.724498 
L 153.610354 202.585877 
L 154.385186 228.280404 
L 155.160018 214.054547 
L 155.93485 229.113374 
L 156.709682 224.932379 
L 157.484514 205.961822 
L 159.034177 238.969609 
L 159.809009 247.438733 
L 160.583841 252.028443 
L 161.358673 225.370771 
L 162.133505 193.236259 
L 162.908336 180.662269 
L 163.683168 170.386995 
L 164.458 166.008103 
L 165.232832 167.106261 
L 166.007664 165.463316 
L 166.782496 166.272403 
L 167.557328 167.295538 
L 168.332159 165.953546 
L 169.106991 183.117711 
L 169.881823 216.067422 
L 170.656655 209.778114 
L 171.431487 190.379986 
L 172.206319 152.787269 
L 172.981151 138.905889 
L 173.755982 135.661227 
L 174.530814 130.142086 
L 176.080478 126.464202 
L 176.85531 125.665516 
L 177.630142 140.564386 
L 178.404973 148.166825 
L 179.179805 153.941189 
L 179.954637 157.057469 
L 180.729469 150.387577 
L 181.504301 178.306028 
L 182.279133 201.44157 
L 183.053965 206.500538 
L 183.828796 219.209359 
L 184.603628 228.778854 
L 185.37846 226.022922 
L 186.153292 223.808118 
L 186.928124 221.980471 
L 187.702956 222.653216 
L 188.477788 219.76233 
L 189.252619 225.801235 
L 190.027451 224.960474 
L 190.802283 225.184443 
L 191.577115 224.856864 
L 192.351947 221.193268 
L 193.126779 218.678051 
L 193.901611 218.662493 
L 194.676442 216.445067 
L 195.451274 216.742692 
L 196.226106 218.738999 
L 197.77577 169.237437 
L 198.550602 156.704711 
L 199.325433 133.92973 
L 200.100265 121.207738 
L 200.875097 123.046398 
L 201.649929 188.495848 
L 202.424761 192.44427 
L 203.199593 205.422776 
L 203.974425 214.916474 
L 204.749256 191.735783 
L 205.524088 173.854752 
L 206.29892 163.812311 
L 207.073752 159.958298 
L 207.848584 158.746028 
L 208.623416 161.057743 
L 209.398248 163.889916 
L 210.173079 163.769901 
L 210.947911 169.357652 
L 211.722743 167.617558 
L 212.497575 156.619938 
L 213.272407 151.569696 
L 214.047239 150.395867 
L 214.82207 129.655701 
L 215.596902 77.46839 
L 216.371734 47.89664 
L 217.146566 35.929403 
L 217.921398 36.758239 
L 218.69623 35.698663 
L 219.471062 36.854783 
L 220.245893 36.198477 
L 221.020725 42.356379 
L 221.795557 35.936529 
L 222.570389 42.530204 
L 223.345221 76.208237 
L 224.894885 51.174263 
L 225.669716 45.525135 
L 226.444548 81.761598 
L 227.21938 111.90982 
L 227.994212 133.545062 
L 229.543876 214.386874 
L 230.318707 194.231753 
L 231.093539 177.40857 
L 231.868371 146.068111 
L 232.643203 66.860718 
L 233.418035 33.108625 
L 234.192867 50.933435 
L 234.967699 34.422294 
L 235.74253 27.584662 
L 236.517362 25.131737 
L 237.292194 25.907116 
L 238.067026 31.50368 
L 238.841858 46.293271 
L 239.61669 75.434822 
L 240.391522 80.067565 
L 241.166353 148.635959 
L 241.941185 183.836364 
L 242.716017 193.417868 
L 243.490849 148.792992 
L 244.265681 92.693142 
L 245.040513 61.477289 
L 245.815345 48.126933 
L 246.590176 45.324688 
L 247.365008 71.253279 
L 248.13984 68.817169 
L 248.914672 125.538235 
L 249.689504 159.444008 
L 250.464336 180.82738 
L 251.239167 195.320074 
L 252.013999 205.025315 
L 252.788831 205.583466 
L 253.563663 206.773666 
L 254.338495 203.926957 
L 255.113327 202.240615 
L 255.888159 173.4261 
L 256.66299 170.609485 
L 257.437822 158.124589 
L 258.987486 146.073144 
L 259.762318 165.526422 
L 260.53715 171.050438 
L 261.311982 166.450808 
L 262.086813 184.133419 
L 262.861645 197.0295 
L 263.636477 203.423839 
L 264.411309 216.53541 
L 265.186141 213.799034 
L 265.960973 204.953019 
L 266.735804 197.557283 
L 267.510636 175.013265 
L 268.285468 159.344314 
L 269.0603 152.934529 
L 269.835132 171.988759 
L 270.609964 184.030038 
L 271.384796 192.055345 
L 272.159627 194.497735 
L 272.934459 194.928304 
L 273.709291 194.77096 
L 274.484123 196.602946 
L 275.258955 193.257278 
L 276.033787 202.664428 
L 276.808619 225.245191 
L 277.58345 214.230412 
L 278.358282 196.465816 
L 279.133114 205.541009 
L 279.907946 194.594119 
L 280.682778 190.253439 
L 281.45761 189.246074 
L 282.232441 187.032984 
L 283.007273 202.33948 
L 283.782105 203.357411 
L 286.106601 138.37643 
L 286.881433 134.087938 
L 287.656264 133.545779 
L 288.431096 135.686733 
L 289.205928 134.195864 
L 289.98076 134.338927 
L 290.755592 135.317482 
L 291.530424 152.082962 
L 292.305256 139.843851 
L 293.080087 118.057503 
L 293.854919 71.526728 
L 294.629751 46.60014 
L 295.404583 33.273584 
L 296.179415 123.243964 
L 296.954247 174.55843 
L 297.729079 178.625626 
L 298.50391 141.857123 
L 299.278742 114.469731 
L 300.053574 116.573031 
L 300.828406 113.946939 
L 302.37807 164.240746 
L 303.152901 186.584611 
L 303.927733 204.177669 
L 304.702565 163.700275 
L 305.477397 138.646516 
L 306.252229 166.975364 
L 307.027061 187.685232 
L 307.801893 215.449696 
L 308.576724 211.472729 
L 309.351556 242.715508 
L 310.126388 244.483918 
L 310.90122 244.443907 
L 311.676052 222.819015 
L 312.450884 191.108828 
L 313.225716 196.215703 
L 314.000547 206.147415 
L 314.775379 229.242314 
L 315.550211 239.328753 
L 316.325043 244.784672 
L 317.099875 249.000051 
L 317.874707 232.030442 
L 318.649538 224.75729 
L 319.42437 222.228799 
L 320.199202 209.297356 
L 320.974034 205.556696 
L 321.748866 156.95851 
L 322.523698 73.970987 
L 323.29853 39.266668 
L 324.073361 30.442246 
L 324.848193 23.229001 
L 325.623025 24.068421 
L 326.397857 47.503341 
L 327.172689 41.582905 
L 327.947521 27.115822 
L 328.722353 49.732372 
L 329.497184 25.296413 
L 330.272016 18.937569 
L 331.046848 27.722245 
L 331.82168 34.284312 
L 332.596512 33.935369 
L 333.371344 44.235667 
L 334.146175 44.639196 
L 334.921007 54.366162 
L 336.470671 103.929333 
L 337.245503 115.336161 
L 338.020335 164.599196 
L 338.795167 193.068219 
L 339.569998 184.86526 
L 340.34483 170.58074 
L 341.119662 193.826007 
L 341.894494 165.874436 
L 342.669326 166.384675 
L 343.444158 169.58247 
L 344.21899 162.734561 
L 344.993821 166.944578 
L 345.768653 162.979735 
L 346.543485 161.355158 
L 347.318317 178.05448 
L 348.093149 172.160808 
L 348.867981 168.025132 
L 349.642813 165.998437 
L 350.417644 150.476018 
L 351.192476 174.537969 
L 351.967308 193.709785 
L 352.74214 218.916228 
L 353.516972 231.988197 
L 354.291804 186.904061 
L 355.066635 150.291786 
L 355.841467 142.09787 
L 356.616299 139.848861 
L 357.391131 139.996792 
L 358.165963 162.781451 
L 358.940795 179.232001 
L 359.715627 180.026207 
L 361.26529 173.848261 
L 362.040122 173.18159 
L 362.814954 172.151565 
L 363.589786 172.16189 
L 364.364618 175.069415 
L 365.13945 195.399966 
L 365.914281 175.351783 
L 366.689113 184.61667 
L 367.463945 181.664977 
L 368.238777 174.86922 
L 369.013609 175.82986 
L 369.788441 190.846368 
L 370.563272 189.695594 
L 371.338104 184.514618 
L 372.112936 195.105721 
L 372.887768 193.941253 
L 374.437432 185.128802 
L 375.212264 156.113822 
L 375.987095 142.487476 
L 376.761927 165.01803 
L 377.536759 193.526611 
L 378.311591 212.422874 
L 379.086423 210.92467 
L 379.861255 205.69728 
L 380.636087 196.444014 
L 381.410918 189.170997 
L 382.18575 199.942605 
L 382.18575 199.942605 
" clip-path="url(#p921543c10f)" style="fill: none; stroke-dasharray: 3.7,1.6; stroke-dashoffset: 0; stroke: #ff0000"/>
   </g>
   <g id="patch_3">
    <path d="M 41.298478 269.712 
L 41.298478 3.6 
" style="fill: none; stroke: #000000; stroke-width: 0.5; stroke-linejoin: miter; stroke-linecap: square"/>
   </g>
   <g id="patch_4">
    <path d="M 398.418478 269.712 
L 398.418478 3.6 
" style="fill: none; stroke: #000000; stroke-width: 0.5; stroke-linejoin: miter; stroke-linecap: square"/>
   </g>
   <g id="patch_5">
    <path d="M 41.298478 269.712 
L 398.418478 269.712 
" style="fill: none; stroke: #000000; stroke-width: 0.5; stroke-linejoin: miter; stroke-linecap: square"/>
   </g>
   <g id="patch_6">
    <path d="M 41.298478 3.6 
L 398.418478 3.6 
" style="fill: none; stroke: #000000; stroke-width: 0.5; stroke-linejoin: miter; stroke-linecap: square"/>
   </g>
   <g id="legend_1">
    <g id="line2d_105">
     <path d="M 48.498478 13.6 
L 56.498478 13.6 
L 64.498478 13.6 
" style="fill: none; stroke: #000000; stroke-linecap: square"/>
    </g>
    <g id="text_15">
     <!-- spatial evaporation actual -->
     <g transform="translate(70.898478 16.4) scale(0.08 -0.08)">
      <defs>
       <path id="NimbusRomNo9L-Regu-65" d="M 2611 1053 
C 2304 564 2029 378 1619 378 
C 1254 378 979 564 794 930 
C 678 1174 634 1386 621 1779 
L 2592 1779 
C 2541 2193 2477 2377 2317 2581 
C 2125 2811 1830 2944 1498 2944 
C 1178 2944 877 2829 634 2611 
C 333 2349 160 1894 160 1370 
C 160 486 621 -64 1357 -64 
C 1965 -64 2445 315 2714 1008 
L 2611 1053 
z
M 634 1984 
C 704 2479 922 2714 1312 2714 
C 1702 2714 1856 2535 1939 1984 
L 634 1984 
z
" transform="scale(0.015625)"/>
       <path id="NimbusRomNo9L-Regu-76" d="M 3053 2854 
L 2163 2854 
L 2163 2758 
C 2368 2739 2464 2675 2464 2552 
C 2464 2488 2451 2424 2426 2359 
L 1792 695 
L 1139 2340 
C 1101 2431 1082 2520 1082 2578 
C 1082 2694 1152 2739 1376 2758 
L 1376 2854 
L 122 2854 
L 122 2752 
C 365 2752 410 2688 704 2024 
L 1472 175 
C 1485 137 1504 91 1523 40 
C 1562 -76 1600 -128 1638 -128 
C 1677 -128 1722 -44 1818 193 
L 2637 2257 
C 2822 2694 2861 2739 3053 2758 
L 3053 2854 
z
" transform="scale(0.015625)"/>
       <path id="NimbusRomNo9L-Regu-6f" d="M 1600 2944 
C 768 2944 186 2330 186 1446 
C 186 582 781 -64 1587 -64 
C 2394 -64 3008 614 3008 1498 
C 3008 2336 2419 2944 1600 2944 
z
M 1517 2765 
C 2054 2765 2432 2150 2432 1274 
C 2432 550 2144 115 1664 115 
C 1414 115 1178 269 1043 525 
C 864 858 762 1306 762 1760 
C 762 2368 1062 2765 1517 2765 
z
" transform="scale(0.015625)"/>
       <path id="NimbusRomNo9L-Regu-63" d="M 2547 998 
C 2240 550 2010 397 1645 397 
C 1062 397 653 909 653 1645 
C 653 2304 1005 2758 1523 2758 
C 1754 2758 1837 2688 1901 2451 
L 1939 2310 
C 1990 2131 2106 2016 2240 2016 
C 2406 2016 2547 2138 2547 2285 
C 2547 2643 2099 2944 1562 2944 
C 1248 2944 922 2816 659 2586 
C 339 2304 160 1869 160 1363 
C 160 531 666 -64 1376 -64 
C 1664 -64 1920 38 2150 237 
C 2323 390 2445 563 2637 941 
L 2547 998 
z
" transform="scale(0.015625)"/>
       <path id="NimbusRomNo9L-Regu-75" d="M 3066 320 
L 3034 320 
C 2739 320 2669 390 2669 685 
L 2669 2880 
L 1658 2880 
L 1658 2758 
C 2054 2758 2131 2694 2131 2375 
L 2131 875 
C 2131 697 2099 607 2010 537 
C 1837 397 1638 320 1446 320 
C 1197 320 992 537 992 805 
L 992 2880 
L 58 2880 
L 58 2778 
C 365 2778 454 2682 454 2387 
L 454 770 
C 454 263 762 -64 1229 -64 
C 1466 -64 1715 38 1888 211 
L 2163 486 
L 2163 -45 
L 2189 -58 
C 2509 70 2739 141 3066 230 
L 3066 320 
z
" transform="scale(0.015625)"/>
      </defs>
      <use xlink:href="#NimbusRomNo9L-Regu-73" transform="scale(0.996264)"/>
      <use xlink:href="#NimbusRomNo9L-Regu-70" transform="translate(38.753706 0) scale(0.996264)"/>
      <use xlink:href="#NimbusRomNo9L-Regu-61" transform="translate(88.566907 0) scale(0.996264)"/>
      <use xlink:href="#NimbusRomNo9L-Regu-74" transform="translate(132.800475 0) scale(0.996264)"/>
      <use xlink:href="#NimbusRomNo9L-Regu-69" transform="translate(160.495645 0) scale(0.996264)"/>
      <use xlink:href="#NimbusRomNo9L-Regu-61" transform="translate(188.190815 0) scale(0.996264)"/>
      <use xlink:href="#NimbusRomNo9L-Regu-6c" transform="translate(232.424383 0) scale(0.996264)"/>
      <use xlink:href="#NimbusRomNo9L-Regu-65" transform="translate(285.026153 0) scale(0.996264)"/>
      <use xlink:href="#NimbusRomNo9L-Regu-76" transform="translate(326.769092 0) scale(0.996264)"/>
      <use xlink:href="#NimbusRomNo9L-Regu-61" transform="translate(374.091663 0) scale(0.996264)"/>
      <use xlink:href="#NimbusRomNo9L-Regu-70" transform="translate(418.325232 0) scale(0.996264)"/>
      <use xlink:href="#NimbusRomNo9L-Regu-6f" transform="translate(468.138432 0) scale(0.996264)"/>
      <use xlink:href="#NimbusRomNo9L-Regu-72" transform="translate(517.951633 0) scale(0.996264)"/>
      <use xlink:href="#NimbusRomNo9L-Regu-61" transform="translate(551.126863 0) scale(0.996264)"/>
      <use xlink:href="#NimbusRomNo9L-Regu-74" transform="translate(595.360431 0) scale(0.996264)"/>
      <use xlink:href="#NimbusRomNo9L-Regu-69" transform="translate(623.055601 0) scale(0.996264)"/>
      <use xlink:href="#NimbusRomNo9L-Regu-6f" transform="translate(650.75077 0) scale(0.996264)"/>
      <use xlink:href="#NimbusRomNo9L-Regu-6e" transform="translate(700.563971 0) scale(0.996264)"/>
      <use xlink:href="#NimbusRomNo9L-Regu-61" transform="translate(775.283772 0) scale(0.996264)"/>
      <use xlink:href="#NimbusRomNo9L-Regu-63" transform="translate(819.51734 0) scale(0.996264)"/>
      <use xlink:href="#NimbusRomNo9L-Regu-74" transform="translate(863.750909 0) scale(0.996264)"/>
      <use xlink:href="#NimbusRomNo9L-Regu-75" transform="translate(891.446079 0) scale(0.996264)"/>
      <use xlink:href="#NimbusRomNo9L-Regu-61" transform="translate(941.259279 0) scale(0.996264)"/>
      <use xlink:href="#NimbusRomNo9L-Regu-6c" transform="translate(985.492848 0) scale(0.996264)"/>
     </g>
    </g>
    <g id="line2d_106">
     <path d="M 48.498478 24.925463 
L 56.498478 24.925463 
L 64.498478 24.925463 
" style="fill: none; stroke-dasharray: 3.7,1.6; stroke-dashoffset: 0; stroke: #ff0000"/>
    </g>
    <g id="text_16">
     <!-- spatial evaporation predict -->
     <g transform="translate(70.898478 27.725463) scale(0.08 -0.08)">
      <use xlink:href="#NimbusRomNo9L-Regu-73" transform="scale(0.996264)"/>
      <use xlink:href="#NimbusRomNo9L-Regu-70" transform="translate(38.753706 0) scale(0.996264)"/>
      <use xlink:href="#NimbusRomNo9L-Regu-61" transform="translate(88.566907 0) scale(0.996264)"/>
      <use xlink:href="#NimbusRomNo9L-Regu-74" transform="translate(132.800475 0) scale(0.996264)"/>
      <use xlink:href="#NimbusRomNo9L-Regu-69" transform="translate(160.495645 0) scale(0.996264)"/>
      <use xlink:href="#NimbusRomNo9L-Regu-61" transform="translate(188.190815 0) scale(0.996264)"/>
      <use xlink:href="#NimbusRomNo9L-Regu-6c" transform="translate(232.424383 0) scale(0.996264)"/>
      <use xlink:href="#NimbusRomNo9L-Regu-65" transform="translate(285.026153 0) scale(0.996264)"/>
      <use xlink:href="#NimbusRomNo9L-Regu-76" transform="translate(326.769092 0) scale(0.996264)"/>
      <use xlink:href="#NimbusRomNo9L-Regu-61" transform="translate(374.091663 0) scale(0.996264)"/>
      <use xlink:href="#NimbusRomNo9L-Regu-70" transform="translate(418.325232 0) scale(0.996264)"/>
      <use xlink:href="#NimbusRomNo9L-Regu-6f" transform="translate(468.138432 0) scale(0.996264)"/>
      <use xlink:href="#NimbusRomNo9L-Regu-72" transform="translate(517.951633 0) scale(0.996264)"/>
      <use xlink:href="#NimbusRomNo9L-Regu-61" transform="translate(551.126863 0) scale(0.996264)"/>
      <use xlink:href="#NimbusRomNo9L-Regu-74" transform="translate(595.360431 0) scale(0.996264)"/>
      <use xlink:href="#NimbusRomNo9L-Regu-69" transform="translate(623.055601 0) scale(0.996264)"/>
      <use xlink:href="#NimbusRomNo9L-Regu-6f" transform="translate(650.75077 0) scale(0.996264)"/>
      <use xlink:href="#NimbusRomNo9L-Regu-6e" transform="translate(700.563971 0) scale(0.996264)"/>
      <use xlink:href="#NimbusRomNo9L-Regu-70" transform="translate(775.283772 0) scale(0.996264)"/>
      <use xlink:href="#NimbusRomNo9L-Regu-72" transform="translate(825.096972 0) scale(0.996264)"/>
      <use xlink:href="#NimbusRomNo9L-Regu-65" transform="translate(858.272202 0) scale(0.996264)"/>
      <use xlink:href="#NimbusRomNo9L-Regu-64" transform="translate(902.505771 0) scale(0.996264)"/>
      <use xlink:href="#NimbusRomNo9L-Regu-69" transform="translate(952.318971 0) scale(0.996264)"/>
      <use xlink:href="#NimbusRomNo9L-Regu-63" transform="translate(980.014141 0) scale(0.996264)"/>
      <use xlink:href="#NimbusRomNo9L-Regu-74" transform="translate(1024.247709 0) scale(0.996264)"/>
     </g>
    </g>
   </g>
  </g>
 </g>
 <defs>
  <clipPath id="p921543c10f">
   <rect x="41.298478" y="3.6" width="357.12" height="266.112"/>
  </clipPath>
 </defs>
</svg>
