<?xml version="1.0" encoding="utf-8" standalone="no"?>
<!DOCTYPE svg PUBLIC "-//W3C//DTD SVG 1.1//EN"
  "http://www.w3.org/Graphics/SVG/1.1/DTD/svg11.dtd">
<svg xmlns:xlink="http://www.w3.org/1999/xlink" width="394.048365pt" height="302.199372pt" viewBox="0 0 394.048365 302.199372" xmlns="http://www.w3.org/2000/svg" version="1.1">
 <metadata>
  <rdf:RDF xmlns:dc="http://purl.org/dc/elements/1.1/" xmlns:cc="http://creativecommons.org/ns#" xmlns:rdf="http://www.w3.org/1999/02/22-rdf-syntax-ns#">
   <cc:Work>
    <dc:type rdf:resource="http://purl.org/dc/dcmitype/StillImage"/>
    <dc:date>2024-03-17T16:26:20.514872</dc:date>
    <dc:format>image/svg+xml</dc:format>
    <dc:creator>
     <cc:Agent>
      <dc:title>Matplotlib v3.8.3, https://matplotlib.org/</dc:title>
     </cc:Agent>
    </dc:creator>
   </cc:Work>
  </rdf:RDF>
 </metadata>
 <defs>
  <style type="text/css">*{stroke-linejoin: round; stroke-linecap: butt}</style>
 </defs>
 <g id="figure_1">
  <g id="patch_1">
   <path d="M 0 302.199372 
L 394.048365 302.199372 
L 394.048365 0 
L 0 0 
z
" style="fill: #ffffff"/>
  </g>
  <g id="axes_1">
   <g id="patch_2">
    <path d="M 33.328365 269.712 
L 390.448365 269.712 
L 390.448365 3.6 
L 33.328365 3.6 
z
" style="fill: #ffffff"/>
   </g>
   <g id="matplotlib.axis_1">
    <g id="xtick_1">
     <g id="line2d_1">
      <defs>
       <path id="m3023f79505" d="M 0 0 
L 0 -3 
" style="stroke: #000000; stroke-width: 0.5"/>
      </defs>
      <g>
       <use xlink:href="#m3023f79505" x="49.561093" y="269.712" style="stroke: #000000; stroke-width: 0.5"/>
      </g>
     </g>
     <g id="line2d_2">
      <defs>
       <path id="m18ee4af7a5" d="M 0 0 
L 0 3 
" style="stroke: #000000; stroke-width: 0.5"/>
      </defs>
      <g>
       <use xlink:href="#m18ee4af7a5" x="49.561093" y="3.6" style="stroke: #000000; stroke-width: 0.5"/>
      </g>
     </g>
     <g id="text_1">
      <!-- $\mathdefault{0}$ -->
      <g transform="translate(47.568565 278.615656) scale(0.08 -0.08)">
       <defs>
        <path id="NimbusRomNo9L-Regu-30" d="M 1626 4352 
C 1274 4352 1005 4244 768 4020 
C 397 3661 154 2925 154 2176 
C 154 1479 365 730 666 372 
C 902 90 1229 -64 1600 -64 
C 1926 -64 2202 45 2432 269 
C 2803 621 3046 1364 3046 2138 
C 3046 3450 2464 4352 1626 4352 
z
M 1606 4186 
C 2144 4186 2432 3463 2432 2125 
C 2432 788 2150 103 1600 103 
C 1050 103 768 788 768 2119 
C 768 3476 1056 4186 1606 4186 
z
" transform="scale(0.015625)"/>
       </defs>
       <use xlink:href="#NimbusRomNo9L-Regu-30" transform="scale(0.996264)"/>
      </g>
     </g>
    </g>
    <g id="xtick_2">
     <g id="line2d_3">
      <g>
       <use xlink:href="#m3023f79505" x="112.846579" y="269.712" style="stroke: #000000; stroke-width: 0.5"/>
      </g>
     </g>
     <g id="line2d_4">
      <g>
       <use xlink:href="#m18ee4af7a5" x="112.846579" y="3.6" style="stroke: #000000; stroke-width: 0.5"/>
      </g>
     </g>
     <g id="text_2">
      <!-- $\mathdefault{100}$ -->
      <g transform="translate(106.868995 278.615656) scale(0.08 -0.08)">
       <defs>
        <path id="NimbusRomNo9L-Regu-31" d="M 1862 4339 
L 710 3757 
L 710 3667 
C 787 3699 858 3725 883 3738 
C 998 3783 1107 3808 1171 3808 
C 1306 3808 1363 3711 1363 3505 
L 1363 592 
C 1363 379 1312 232 1210 173 
C 1114 116 1024 96 755 96 
L 755 0 
L 2522 0 
L 2522 96 
C 2016 96 1914 160 1914 470 
L 1914 4327 
L 1862 4339 
z
" transform="scale(0.015625)"/>
       </defs>
       <use xlink:href="#NimbusRomNo9L-Regu-31" transform="scale(0.996264)"/>
       <use xlink:href="#NimbusRomNo9L-Regu-30" transform="translate(49.8132 0) scale(0.996264)"/>
       <use xlink:href="#NimbusRomNo9L-Regu-30" transform="translate(99.626401 0) scale(0.996264)"/>
      </g>
     </g>
    </g>
    <g id="xtick_3">
     <g id="line2d_5">
      <g>
       <use xlink:href="#m3023f79505" x="176.132066" y="269.712" style="stroke: #000000; stroke-width: 0.5"/>
      </g>
     </g>
     <g id="line2d_6">
      <g>
       <use xlink:href="#m18ee4af7a5" x="176.132066" y="3.6" style="stroke: #000000; stroke-width: 0.5"/>
      </g>
     </g>
     <g id="text_3">
      <!-- $\mathdefault{200}$ -->
      <g transform="translate(170.154482 278.615656) scale(0.08 -0.08)">
       <defs>
        <path id="NimbusRomNo9L-Regu-32" d="M 3040 875 
L 2957 907 
C 2720 544 2637 486 2349 486 
L 819 486 
L 1894 1609 
C 2464 2202 2714 2687 2714 3185 
C 2714 3823 2195 4313 1530 4313 
C 1178 4313 845 4173 608 3918 
C 403 3700 307 3496 198 3043 
L 333 3011 
C 589 3636 819 3840 1261 3840 
C 1798 3840 2163 3476 2163 2940 
C 2163 2443 1869 1850 1331 1282 
L 192 77 
L 192 0 
L 2688 0 
L 3040 875 
z
" transform="scale(0.015625)"/>
       </defs>
       <use xlink:href="#NimbusRomNo9L-Regu-32" transform="scale(0.996264)"/>
       <use xlink:href="#NimbusRomNo9L-Regu-30" transform="translate(49.8132 0) scale(0.996264)"/>
       <use xlink:href="#NimbusRomNo9L-Regu-30" transform="translate(99.626401 0) scale(0.996264)"/>
      </g>
     </g>
    </g>
    <g id="xtick_4">
     <g id="line2d_7">
      <g>
       <use xlink:href="#m3023f79505" x="239.417552" y="269.712" style="stroke: #000000; stroke-width: 0.5"/>
      </g>
     </g>
     <g id="line2d_8">
      <g>
       <use xlink:href="#m18ee4af7a5" x="239.417552" y="3.6" style="stroke: #000000; stroke-width: 0.5"/>
      </g>
     </g>
     <g id="text_4">
      <!-- $\mathdefault{300}$ -->
      <g transform="translate(233.439968 278.615656) scale(0.08 -0.08)">
       <defs>
        <path id="NimbusRomNo9L-Regu-33" d="M 979 2138 
C 1357 2138 1504 2125 1658 2068 
C 2054 1927 2304 1562 2304 1120 
C 2304 583 1939 167 1466 167 
C 1293 167 1165 212 928 365 
C 736 480 627 525 518 525 
C 371 525 275 436 275 301 
C 275 77 550 -64 998 -64 
C 1491 -64 1997 103 2298 365 
C 2598 628 2765 999 2765 1428 
C 2765 1754 2662 2055 2477 2253 
C 2349 2394 2227 2471 1946 2592 
C 2387 2893 2547 3130 2547 3476 
C 2547 3994 2138 4352 1549 4352 
C 1229 4352 947 4244 717 4039 
C 525 3866 429 3699 288 3315 
L 384 3290 
C 646 3757 934 3968 1338 3968 
C 1754 3968 2042 3687 2042 3284 
C 2042 3053 1946 2823 1786 2663 
C 1594 2471 1414 2375 979 2221 
L 979 2138 
z
" transform="scale(0.015625)"/>
       </defs>
       <use xlink:href="#NimbusRomNo9L-Regu-33" transform="scale(0.996264)"/>
       <use xlink:href="#NimbusRomNo9L-Regu-30" transform="translate(49.8132 0) scale(0.996264)"/>
       <use xlink:href="#NimbusRomNo9L-Regu-30" transform="translate(99.626401 0) scale(0.996264)"/>
      </g>
     </g>
    </g>
    <g id="xtick_5">
     <g id="line2d_9">
      <g>
       <use xlink:href="#m3023f79505" x="302.703038" y="269.712" style="stroke: #000000; stroke-width: 0.5"/>
      </g>
     </g>
     <g id="line2d_10">
      <g>
       <use xlink:href="#m18ee4af7a5" x="302.703038" y="3.6" style="stroke: #000000; stroke-width: 0.5"/>
      </g>
     </g>
     <g id="text_5">
      <!-- $\mathdefault{400}$ -->
      <g transform="translate(296.725454 278.615656) scale(0.08 -0.08)">
       <defs>
        <path id="NimbusRomNo9L-Regu-34" d="M 3021 1497 
L 2368 1497 
L 2368 4352 
L 2086 4352 
L 77 1497 
L 77 1088 
L 1875 1088 
L 1875 32 
L 2368 32 
L 2368 1088 
L 3021 1088 
L 3021 1497 
z
M 1869 1497 
L 333 1497 
L 1869 3698 
L 1869 1497 
z
" transform="scale(0.015625)"/>
       </defs>
       <use xlink:href="#NimbusRomNo9L-Regu-34" transform="scale(0.996264)"/>
       <use xlink:href="#NimbusRomNo9L-Regu-30" transform="translate(49.8132 0) scale(0.996264)"/>
       <use xlink:href="#NimbusRomNo9L-Regu-30" transform="translate(99.626401 0) scale(0.996264)"/>
      </g>
     </g>
    </g>
    <g id="xtick_6">
     <g id="line2d_11">
      <g>
       <use xlink:href="#m3023f79505" x="365.988525" y="269.712" style="stroke: #000000; stroke-width: 0.5"/>
      </g>
     </g>
     <g id="line2d_12">
      <g>
       <use xlink:href="#m18ee4af7a5" x="365.988525" y="3.6" style="stroke: #000000; stroke-width: 0.5"/>
      </g>
     </g>
     <g id="text_6">
      <!-- $\mathdefault{500}$ -->
      <g transform="translate(360.010941 278.615656) scale(0.08 -0.08)">
       <defs>
        <path id="NimbusRomNo9L-Regu-35" d="M 1158 3776 
L 2413 3776 
C 2515 3776 2541 3789 2560 3834 
L 2803 4403 
L 2746 4448 
C 2650 4314 2586 4282 2451 4282 
L 1114 4282 
L 416 2759 
C 410 2746 410 2740 410 2727 
C 410 2695 435 2676 486 2676 
C 691 2676 947 2631 1210 2547 
C 1946 2309 2285 1910 2285 1274 
C 2285 656 1894 173 1395 173 
C 1267 173 1158 218 966 360 
C 762 508 614 572 480 572 
C 294 572 205 495 205 334 
C 205 90 506 -64 986 -64 
C 1523 -64 1984 110 2304 438 
C 2598 728 2733 1094 2733 1583 
C 2733 2046 2611 2342 2291 2663 
C 2010 2947 1645 3094 890 3229 
L 1158 3776 
z
" transform="scale(0.015625)"/>
       </defs>
       <use xlink:href="#NimbusRomNo9L-Regu-35" transform="scale(0.996264)"/>
       <use xlink:href="#NimbusRomNo9L-Regu-30" transform="translate(49.8132 0) scale(0.996264)"/>
       <use xlink:href="#NimbusRomNo9L-Regu-30" transform="translate(99.626401 0) scale(0.996264)"/>
      </g>
     </g>
    </g>
    <g id="xtick_7">
     <g id="line2d_13">
      <defs>
       <path id="m2ddd60c660" d="M 0 0 
L 0 -1.5 
" style="stroke: #000000; stroke-width: 0.5"/>
      </defs>
      <g>
       <use xlink:href="#m2ddd60c660" x="36.903995" y="269.712" style="stroke: #000000; stroke-width: 0.5"/>
      </g>
     </g>
     <g id="line2d_14">
      <defs>
       <path id="m8ec25de2d7" d="M 0 0 
L 0 1.5 
" style="stroke: #000000; stroke-width: 0.5"/>
      </defs>
      <g>
       <use xlink:href="#m8ec25de2d7" x="36.903995" y="3.6" style="stroke: #000000; stroke-width: 0.5"/>
      </g>
     </g>
    </g>
    <g id="xtick_8">
     <g id="line2d_15">
      <g>
       <use xlink:href="#m2ddd60c660" x="62.21819" y="269.712" style="stroke: #000000; stroke-width: 0.5"/>
      </g>
     </g>
     <g id="line2d_16">
      <g>
       <use xlink:href="#m8ec25de2d7" x="62.21819" y="3.6" style="stroke: #000000; stroke-width: 0.5"/>
      </g>
     </g>
    </g>
    <g id="xtick_9">
     <g id="line2d_17">
      <g>
       <use xlink:href="#m2ddd60c660" x="74.875287" y="269.712" style="stroke: #000000; stroke-width: 0.5"/>
      </g>
     </g>
     <g id="line2d_18">
      <g>
       <use xlink:href="#m8ec25de2d7" x="74.875287" y="3.6" style="stroke: #000000; stroke-width: 0.5"/>
      </g>
     </g>
    </g>
    <g id="xtick_10">
     <g id="line2d_19">
      <g>
       <use xlink:href="#m2ddd60c660" x="87.532385" y="269.712" style="stroke: #000000; stroke-width: 0.5"/>
      </g>
     </g>
     <g id="line2d_20">
      <g>
       <use xlink:href="#m8ec25de2d7" x="87.532385" y="3.6" style="stroke: #000000; stroke-width: 0.5"/>
      </g>
     </g>
    </g>
    <g id="xtick_11">
     <g id="line2d_21">
      <g>
       <use xlink:href="#m2ddd60c660" x="100.189482" y="269.712" style="stroke: #000000; stroke-width: 0.5"/>
      </g>
     </g>
     <g id="line2d_22">
      <g>
       <use xlink:href="#m8ec25de2d7" x="100.189482" y="3.6" style="stroke: #000000; stroke-width: 0.5"/>
      </g>
     </g>
    </g>
    <g id="xtick_12">
     <g id="line2d_23">
      <g>
       <use xlink:href="#m2ddd60c660" x="125.503676" y="269.712" style="stroke: #000000; stroke-width: 0.5"/>
      </g>
     </g>
     <g id="line2d_24">
      <g>
       <use xlink:href="#m8ec25de2d7" x="125.503676" y="3.6" style="stroke: #000000; stroke-width: 0.5"/>
      </g>
     </g>
    </g>
    <g id="xtick_13">
     <g id="line2d_25">
      <g>
       <use xlink:href="#m2ddd60c660" x="138.160774" y="269.712" style="stroke: #000000; stroke-width: 0.5"/>
      </g>
     </g>
     <g id="line2d_26">
      <g>
       <use xlink:href="#m8ec25de2d7" x="138.160774" y="3.6" style="stroke: #000000; stroke-width: 0.5"/>
      </g>
     </g>
    </g>
    <g id="xtick_14">
     <g id="line2d_27">
      <g>
       <use xlink:href="#m2ddd60c660" x="150.817871" y="269.712" style="stroke: #000000; stroke-width: 0.5"/>
      </g>
     </g>
     <g id="line2d_28">
      <g>
       <use xlink:href="#m8ec25de2d7" x="150.817871" y="3.6" style="stroke: #000000; stroke-width: 0.5"/>
      </g>
     </g>
    </g>
    <g id="xtick_15">
     <g id="line2d_29">
      <g>
       <use xlink:href="#m2ddd60c660" x="163.474968" y="269.712" style="stroke: #000000; stroke-width: 0.5"/>
      </g>
     </g>
     <g id="line2d_30">
      <g>
       <use xlink:href="#m8ec25de2d7" x="163.474968" y="3.6" style="stroke: #000000; stroke-width: 0.5"/>
      </g>
     </g>
    </g>
    <g id="xtick_16">
     <g id="line2d_31">
      <g>
       <use xlink:href="#m2ddd60c660" x="188.789163" y="269.712" style="stroke: #000000; stroke-width: 0.5"/>
      </g>
     </g>
     <g id="line2d_32">
      <g>
       <use xlink:href="#m8ec25de2d7" x="188.789163" y="3.6" style="stroke: #000000; stroke-width: 0.5"/>
      </g>
     </g>
    </g>
    <g id="xtick_17">
     <g id="line2d_33">
      <g>
       <use xlink:href="#m2ddd60c660" x="201.44626" y="269.712" style="stroke: #000000; stroke-width: 0.5"/>
      </g>
     </g>
     <g id="line2d_34">
      <g>
       <use xlink:href="#m8ec25de2d7" x="201.44626" y="3.6" style="stroke: #000000; stroke-width: 0.5"/>
      </g>
     </g>
    </g>
    <g id="xtick_18">
     <g id="line2d_35">
      <g>
       <use xlink:href="#m2ddd60c660" x="214.103357" y="269.712" style="stroke: #000000; stroke-width: 0.5"/>
      </g>
     </g>
     <g id="line2d_36">
      <g>
       <use xlink:href="#m8ec25de2d7" x="214.103357" y="3.6" style="stroke: #000000; stroke-width: 0.5"/>
      </g>
     </g>
    </g>
    <g id="xtick_19">
     <g id="line2d_37">
      <g>
       <use xlink:href="#m2ddd60c660" x="226.760455" y="269.712" style="stroke: #000000; stroke-width: 0.5"/>
      </g>
     </g>
     <g id="line2d_38">
      <g>
       <use xlink:href="#m8ec25de2d7" x="226.760455" y="3.6" style="stroke: #000000; stroke-width: 0.5"/>
      </g>
     </g>
    </g>
    <g id="xtick_20">
     <g id="line2d_39">
      <g>
       <use xlink:href="#m2ddd60c660" x="252.074649" y="269.712" style="stroke: #000000; stroke-width: 0.5"/>
      </g>
     </g>
     <g id="line2d_40">
      <g>
       <use xlink:href="#m8ec25de2d7" x="252.074649" y="3.6" style="stroke: #000000; stroke-width: 0.5"/>
      </g>
     </g>
    </g>
    <g id="xtick_21">
     <g id="line2d_41">
      <g>
       <use xlink:href="#m2ddd60c660" x="264.731747" y="269.712" style="stroke: #000000; stroke-width: 0.5"/>
      </g>
     </g>
     <g id="line2d_42">
      <g>
       <use xlink:href="#m8ec25de2d7" x="264.731747" y="3.6" style="stroke: #000000; stroke-width: 0.5"/>
      </g>
     </g>
    </g>
    <g id="xtick_22">
     <g id="line2d_43">
      <g>
       <use xlink:href="#m2ddd60c660" x="277.388844" y="269.712" style="stroke: #000000; stroke-width: 0.5"/>
      </g>
     </g>
     <g id="line2d_44">
      <g>
       <use xlink:href="#m8ec25de2d7" x="277.388844" y="3.6" style="stroke: #000000; stroke-width: 0.5"/>
      </g>
     </g>
    </g>
    <g id="xtick_23">
     <g id="line2d_45">
      <g>
       <use xlink:href="#m2ddd60c660" x="290.045941" y="269.712" style="stroke: #000000; stroke-width: 0.5"/>
      </g>
     </g>
     <g id="line2d_46">
      <g>
       <use xlink:href="#m8ec25de2d7" x="290.045941" y="3.6" style="stroke: #000000; stroke-width: 0.5"/>
      </g>
     </g>
    </g>
    <g id="xtick_24">
     <g id="line2d_47">
      <g>
       <use xlink:href="#m2ddd60c660" x="315.360136" y="269.712" style="stroke: #000000; stroke-width: 0.5"/>
      </g>
     </g>
     <g id="line2d_48">
      <g>
       <use xlink:href="#m8ec25de2d7" x="315.360136" y="3.6" style="stroke: #000000; stroke-width: 0.5"/>
      </g>
     </g>
    </g>
    <g id="xtick_25">
     <g id="line2d_49">
      <g>
       <use xlink:href="#m2ddd60c660" x="328.017233" y="269.712" style="stroke: #000000; stroke-width: 0.5"/>
      </g>
     </g>
     <g id="line2d_50">
      <g>
       <use xlink:href="#m8ec25de2d7" x="328.017233" y="3.6" style="stroke: #000000; stroke-width: 0.5"/>
      </g>
     </g>
    </g>
    <g id="xtick_26">
     <g id="line2d_51">
      <g>
       <use xlink:href="#m2ddd60c660" x="340.67433" y="269.712" style="stroke: #000000; stroke-width: 0.5"/>
      </g>
     </g>
     <g id="line2d_52">
      <g>
       <use xlink:href="#m8ec25de2d7" x="340.67433" y="3.6" style="stroke: #000000; stroke-width: 0.5"/>
      </g>
     </g>
    </g>
    <g id="xtick_27">
     <g id="line2d_53">
      <g>
       <use xlink:href="#m2ddd60c660" x="353.331428" y="269.712" style="stroke: #000000; stroke-width: 0.5"/>
      </g>
     </g>
     <g id="line2d_54">
      <g>
       <use xlink:href="#m8ec25de2d7" x="353.331428" y="3.6" style="stroke: #000000; stroke-width: 0.5"/>
      </g>
     </g>
    </g>
    <g id="xtick_28">
     <g id="line2d_55">
      <g>
       <use xlink:href="#m2ddd60c660" x="378.645622" y="269.712" style="stroke: #000000; stroke-width: 0.5"/>
      </g>
     </g>
     <g id="line2d_56">
      <g>
       <use xlink:href="#m8ec25de2d7" x="378.645622" y="3.6" style="stroke: #000000; stroke-width: 0.5"/>
      </g>
     </g>
    </g>
    <g id="text_7">
     <!-- days -->
     <g transform="translate(197.27927 295.148446) scale(0.16 -0.16)">
      <defs>
       <path id="NimbusRomNo9L-Regu-64" d="M 2202 -64 
L 3142 269 
L 3142 365 
C 3027 365 3014 365 2995 365 
C 2765 365 2714 435 2714 731 
L 2714 4364 
L 2682 4377 
C 2374 4268 2150 4204 1741 4096 
L 1741 3994 
C 1792 4000 1830 4000 1882 4000 
C 2118 4000 2176 3936 2176 3672 
L 2176 2669 
C 1933 2874 1760 2944 1504 2944 
C 768 2944 173 2221 173 1312 
C 173 493 653 -64 1357 -64 
C 1715 -64 1958 64 2176 365 
L 2176 -45 
L 2202 -64 
z
M 2176 653 
C 2176 608 2131 531 2067 461 
C 1952 333 1792 269 1606 269 
C 1075 269 723 781 723 1568 
C 723 2291 1037 2765 1523 2765 
C 1862 2765 2176 2464 2176 2125 
L 2176 653 
z
" transform="scale(0.015625)"/>
       <path id="NimbusRomNo9L-Regu-61" d="M 2829 423 
C 2720 333 2643 301 2547 301 
C 2400 301 2355 390 2355 672 
L 2355 1920 
C 2355 2253 2323 2438 2227 2592 
C 2086 2822 1811 2944 1434 2944 
C 832 2944 358 2630 358 2227 
C 358 2080 486 1952 634 1952 
C 787 1952 922 2080 922 2221 
C 922 2246 915 2278 909 2323 
C 896 2381 890 2432 890 2477 
C 890 2650 1094 2790 1350 2790 
C 1664 2790 1837 2605 1837 2259 
L 1837 1869 
C 851 1472 742 1421 467 1178 
C 326 1050 237 832 237 621 
C 237 218 518 -64 909 -64 
C 1190 -64 1453 70 1843 403 
C 1875 70 1990 -64 2253 -64 
C 2470 -64 2605 13 2829 256 
L 2829 423 
z
M 1837 783 
C 1837 584 1805 526 1670 449 
C 1517 359 1338 301 1203 301 
C 979 301 800 520 800 796 
L 800 822 
C 800 1201 1062 1433 1837 1715 
L 1837 783 
z
" transform="scale(0.015625)"/>
       <path id="NimbusRomNo9L-Regu-79" d="M 3040 2880 
L 2176 2880 
L 2176 2784 
C 2381 2784 2483 2726 2483 2623 
C 2483 2597 2477 2559 2458 2514 
L 1837 742 
L 1101 2377 
C 1062 2468 1037 2552 1037 2622 
C 1037 2739 1133 2784 1408 2784 
L 1408 2880 
L 90 2880 
L 90 2790 
C 256 2765 365 2694 416 2585 
L 1146 1005 
L 1165 953 
L 1261 761 
C 1440 440 1542 209 1542 112 
C 1542 16 1395 -389 1286 -582 
C 1197 -749 1056 -871 966 -871 
C 928 -871 870 -858 806 -826 
C 685 -781 576 -755 467 -755 
C 320 -755 192 -883 192 -1037 
C 192 -1248 397 -1408 666 -1408 
C 1094 -1408 1402 -1049 1747 -124 
L 2733 2495 
C 2816 2701 2886 2765 3040 2784 
L 3040 2880 
z
" transform="scale(0.015625)"/>
       <path id="NimbusRomNo9L-Regu-73" d="M 2016 2010 
L 1990 2880 
L 1920 2880 
L 1907 2867 
C 1850 2822 1843 2816 1818 2816 
C 1779 2816 1715 2829 1645 2861 
C 1504 2915 1363 2944 1197 2944 
C 691 2944 326 2616 326 2154 
C 326 1796 531 1539 1075 1231 
L 1446 1020 
C 1670 892 1779 737 1779 539 
C 1779 256 1574 77 1248 77 
C 1030 77 832 159 710 298 
C 576 455 518 600 435 960 
L 333 960 
L 333 -39 
L 416 -39 
C 461 33 486 48 563 48 
C 621 48 710 35 858 -2 
C 1037 -39 1210 -64 1325 -64 
C 1818 -64 2227 308 2227 757 
C 2227 1077 2074 1289 1690 1520 
L 998 1930 
C 819 2033 723 2194 723 2367 
C 723 2624 922 2803 1216 2803 
C 1581 2803 1773 2583 1920 2010 
L 2016 2010 
z
" transform="scale(0.015625)"/>
      </defs>
      <use xlink:href="#NimbusRomNo9L-Regu-64" transform="scale(0.996264)"/>
      <use xlink:href="#NimbusRomNo9L-Regu-61" transform="translate(49.8132 0) scale(0.996264)"/>
      <use xlink:href="#NimbusRomNo9L-Regu-79" transform="translate(94.046769 0) scale(0.996264)"/>
      <use xlink:href="#NimbusRomNo9L-Regu-73" transform="translate(143.85997 0) scale(0.996264)"/>
     </g>
    </g>
   </g>
   <g id="matplotlib.axis_2">
    <g id="ytick_1">
     <g id="line2d_57">
      <defs>
       <path id="m68bb63d8c7" d="M 0 0 
L 3 0 
" style="stroke: #000000; stroke-width: 0.5"/>
      </defs>
      <g>
       <use xlink:href="#m68bb63d8c7" x="33.328365" y="257.616654" style="stroke: #000000; stroke-width: 0.5"/>
      </g>
     </g>
     <g id="line2d_58">
      <defs>
       <path id="ma30ace91ed" d="M 0 0 
L -3 0 
" style="stroke: #000000; stroke-width: 0.5"/>
      </defs>
      <g>
       <use xlink:href="#ma30ace91ed" x="390.448365" y="257.616654" style="stroke: #000000; stroke-width: 0.5"/>
      </g>
     </g>
     <g id="text_8">
      <!-- $\mathdefault{0}$ -->
      <g transform="translate(25.843309 260.318482) scale(0.08 -0.08)">
       <use xlink:href="#NimbusRomNo9L-Regu-30" transform="scale(0.996264)"/>
      </g>
     </g>
    </g>
    <g id="ytick_2">
     <g id="line2d_59">
      <g>
       <use xlink:href="#m68bb63d8c7" x="33.328365" y="217.775688" style="stroke: #000000; stroke-width: 0.5"/>
      </g>
     </g>
     <g id="line2d_60">
      <g>
       <use xlink:href="#ma30ace91ed" x="390.448365" y="217.775688" style="stroke: #000000; stroke-width: 0.5"/>
      </g>
     </g>
     <g id="text_9">
      <!-- $\mathdefault{10}$ -->
      <g transform="translate(21.858253 220.477516) scale(0.08 -0.08)">
       <use xlink:href="#NimbusRomNo9L-Regu-31" transform="scale(0.996264)"/>
       <use xlink:href="#NimbusRomNo9L-Regu-30" transform="translate(49.8132 0) scale(0.996264)"/>
      </g>
     </g>
    </g>
    <g id="ytick_3">
     <g id="line2d_61">
      <g>
       <use xlink:href="#m68bb63d8c7" x="33.328365" y="177.934723" style="stroke: #000000; stroke-width: 0.5"/>
      </g>
     </g>
     <g id="line2d_62">
      <g>
       <use xlink:href="#ma30ace91ed" x="390.448365" y="177.934723" style="stroke: #000000; stroke-width: 0.5"/>
      </g>
     </g>
     <g id="text_10">
      <!-- $\mathdefault{20}$ -->
      <g transform="translate(21.858253 180.636551) scale(0.08 -0.08)">
       <use xlink:href="#NimbusRomNo9L-Regu-32" transform="scale(0.996264)"/>
       <use xlink:href="#NimbusRomNo9L-Regu-30" transform="translate(49.8132 0) scale(0.996264)"/>
      </g>
     </g>
    </g>
    <g id="ytick_4">
     <g id="line2d_63">
      <g>
       <use xlink:href="#m68bb63d8c7" x="33.328365" y="138.093758" style="stroke: #000000; stroke-width: 0.5"/>
      </g>
     </g>
     <g id="line2d_64">
      <g>
       <use xlink:href="#ma30ace91ed" x="390.448365" y="138.093758" style="stroke: #000000; stroke-width: 0.5"/>
      </g>
     </g>
     <g id="text_11">
      <!-- $\mathdefault{30}$ -->
      <g transform="translate(21.858253 140.795586) scale(0.08 -0.08)">
       <use xlink:href="#NimbusRomNo9L-Regu-33" transform="scale(0.996264)"/>
       <use xlink:href="#NimbusRomNo9L-Regu-30" transform="translate(49.8132 0) scale(0.996264)"/>
      </g>
     </g>
    </g>
    <g id="ytick_5">
     <g id="line2d_65">
      <g>
       <use xlink:href="#m68bb63d8c7" x="33.328365" y="98.252792" style="stroke: #000000; stroke-width: 0.5"/>
      </g>
     </g>
     <g id="line2d_66">
      <g>
       <use xlink:href="#ma30ace91ed" x="390.448365" y="98.252792" style="stroke: #000000; stroke-width: 0.5"/>
      </g>
     </g>
     <g id="text_12">
      <!-- $\mathdefault{40}$ -->
      <g transform="translate(21.858253 100.95462) scale(0.08 -0.08)">
       <use xlink:href="#NimbusRomNo9L-Regu-34" transform="scale(0.996264)"/>
       <use xlink:href="#NimbusRomNo9L-Regu-30" transform="translate(49.8132 0) scale(0.996264)"/>
      </g>
     </g>
    </g>
    <g id="ytick_6">
     <g id="line2d_67">
      <g>
       <use xlink:href="#m68bb63d8c7" x="33.328365" y="58.411827" style="stroke: #000000; stroke-width: 0.5"/>
      </g>
     </g>
     <g id="line2d_68">
      <g>
       <use xlink:href="#ma30ace91ed" x="390.448365" y="58.411827" style="stroke: #000000; stroke-width: 0.5"/>
      </g>
     </g>
     <g id="text_13">
      <!-- $\mathdefault{50}$ -->
      <g transform="translate(21.858253 61.113655) scale(0.08 -0.08)">
       <use xlink:href="#NimbusRomNo9L-Regu-35" transform="scale(0.996264)"/>
       <use xlink:href="#NimbusRomNo9L-Regu-30" transform="translate(49.8132 0) scale(0.996264)"/>
      </g>
     </g>
    </g>
    <g id="ytick_7">
     <g id="line2d_69">
      <g>
       <use xlink:href="#m68bb63d8c7" x="33.328365" y="18.570862" style="stroke: #000000; stroke-width: 0.5"/>
      </g>
     </g>
     <g id="line2d_70">
      <g>
       <use xlink:href="#ma30ace91ed" x="390.448365" y="18.570862" style="stroke: #000000; stroke-width: 0.5"/>
      </g>
     </g>
     <g id="text_14">
      <!-- $\mathdefault{60}$ -->
      <g transform="translate(21.858253 21.27269) scale(0.08 -0.08)">
       <defs>
        <path id="NimbusRomNo9L-Regu-36" d="M 2854 4391 
C 2125 4327 1754 4205 1286 3879 
C 595 3386 218 2656 218 1802 
C 218 1248 390 688 666 370 
C 909 89 1254 -64 1651 -64 
C 2445 -64 2995 541 2995 1421 
C 2995 2236 2528 2752 1792 2752 
C 1510 2752 1376 2707 973 2464 
C 1146 3431 1862 4122 2867 4288 
L 2854 4391 
z
M 1549 2458 
C 2099 2458 2419 2000 2419 1204 
C 2419 504 2170 116 1722 116 
C 1158 116 813 714 813 1700 
C 813 2025 864 2203 992 2299 
C 1126 2400 1325 2458 1549 2458 
z
" transform="scale(0.015625)"/>
       </defs>
       <use xlink:href="#NimbusRomNo9L-Regu-36" transform="scale(0.996264)"/>
       <use xlink:href="#NimbusRomNo9L-Regu-30" transform="translate(49.8132 0) scale(0.996264)"/>
      </g>
     </g>
    </g>
    <g id="ytick_8">
     <g id="line2d_71">
      <defs>
       <path id="m27e79f6627" d="M 0 0 
L 1.5 0 
" style="stroke: #000000; stroke-width: 0.5"/>
      </defs>
      <g>
       <use xlink:href="#m27e79f6627" x="33.328365" y="265.584847" style="stroke: #000000; stroke-width: 0.5"/>
      </g>
     </g>
     <g id="line2d_72">
      <defs>
       <path id="mf53404b334" d="M 0 0 
L -1.5 0 
" style="stroke: #000000; stroke-width: 0.5"/>
      </defs>
      <g>
       <use xlink:href="#mf53404b334" x="390.448365" y="265.584847" style="stroke: #000000; stroke-width: 0.5"/>
      </g>
     </g>
    </g>
    <g id="ytick_9">
     <g id="line2d_73">
      <g>
       <use xlink:href="#m27e79f6627" x="33.328365" y="249.648461" style="stroke: #000000; stroke-width: 0.5"/>
      </g>
     </g>
     <g id="line2d_74">
      <g>
       <use xlink:href="#mf53404b334" x="390.448365" y="249.648461" style="stroke: #000000; stroke-width: 0.5"/>
      </g>
     </g>
    </g>
    <g id="ytick_10">
     <g id="line2d_75">
      <g>
       <use xlink:href="#m27e79f6627" x="33.328365" y="241.680268" style="stroke: #000000; stroke-width: 0.5"/>
      </g>
     </g>
     <g id="line2d_76">
      <g>
       <use xlink:href="#mf53404b334" x="390.448365" y="241.680268" style="stroke: #000000; stroke-width: 0.5"/>
      </g>
     </g>
    </g>
    <g id="ytick_11">
     <g id="line2d_77">
      <g>
       <use xlink:href="#m27e79f6627" x="33.328365" y="233.712075" style="stroke: #000000; stroke-width: 0.5"/>
      </g>
     </g>
     <g id="line2d_78">
      <g>
       <use xlink:href="#mf53404b334" x="390.448365" y="233.712075" style="stroke: #000000; stroke-width: 0.5"/>
      </g>
     </g>
    </g>
    <g id="ytick_12">
     <g id="line2d_79">
      <g>
       <use xlink:href="#m27e79f6627" x="33.328365" y="225.743882" style="stroke: #000000; stroke-width: 0.5"/>
      </g>
     </g>
     <g id="line2d_80">
      <g>
       <use xlink:href="#mf53404b334" x="390.448365" y="225.743882" style="stroke: #000000; stroke-width: 0.5"/>
      </g>
     </g>
    </g>
    <g id="ytick_13">
     <g id="line2d_81">
      <g>
       <use xlink:href="#m27e79f6627" x="33.328365" y="209.807495" style="stroke: #000000; stroke-width: 0.5"/>
      </g>
     </g>
     <g id="line2d_82">
      <g>
       <use xlink:href="#mf53404b334" x="390.448365" y="209.807495" style="stroke: #000000; stroke-width: 0.5"/>
      </g>
     </g>
    </g>
    <g id="ytick_14">
     <g id="line2d_83">
      <g>
       <use xlink:href="#m27e79f6627" x="33.328365" y="201.839302" style="stroke: #000000; stroke-width: 0.5"/>
      </g>
     </g>
     <g id="line2d_84">
      <g>
       <use xlink:href="#mf53404b334" x="390.448365" y="201.839302" style="stroke: #000000; stroke-width: 0.5"/>
      </g>
     </g>
    </g>
    <g id="ytick_15">
     <g id="line2d_85">
      <g>
       <use xlink:href="#m27e79f6627" x="33.328365" y="193.871109" style="stroke: #000000; stroke-width: 0.5"/>
      </g>
     </g>
     <g id="line2d_86">
      <g>
       <use xlink:href="#mf53404b334" x="390.448365" y="193.871109" style="stroke: #000000; stroke-width: 0.5"/>
      </g>
     </g>
    </g>
    <g id="ytick_16">
     <g id="line2d_87">
      <g>
       <use xlink:href="#m27e79f6627" x="33.328365" y="185.902916" style="stroke: #000000; stroke-width: 0.5"/>
      </g>
     </g>
     <g id="line2d_88">
      <g>
       <use xlink:href="#mf53404b334" x="390.448365" y="185.902916" style="stroke: #000000; stroke-width: 0.5"/>
      </g>
     </g>
    </g>
    <g id="ytick_17">
     <g id="line2d_89">
      <g>
       <use xlink:href="#m27e79f6627" x="33.328365" y="169.96653" style="stroke: #000000; stroke-width: 0.5"/>
      </g>
     </g>
     <g id="line2d_90">
      <g>
       <use xlink:href="#mf53404b334" x="390.448365" y="169.96653" style="stroke: #000000; stroke-width: 0.5"/>
      </g>
     </g>
    </g>
    <g id="ytick_18">
     <g id="line2d_91">
      <g>
       <use xlink:href="#m27e79f6627" x="33.328365" y="161.998337" style="stroke: #000000; stroke-width: 0.5"/>
      </g>
     </g>
     <g id="line2d_92">
      <g>
       <use xlink:href="#mf53404b334" x="390.448365" y="161.998337" style="stroke: #000000; stroke-width: 0.5"/>
      </g>
     </g>
    </g>
    <g id="ytick_19">
     <g id="line2d_93">
      <g>
       <use xlink:href="#m27e79f6627" x="33.328365" y="154.030144" style="stroke: #000000; stroke-width: 0.5"/>
      </g>
     </g>
     <g id="line2d_94">
      <g>
       <use xlink:href="#mf53404b334" x="390.448365" y="154.030144" style="stroke: #000000; stroke-width: 0.5"/>
      </g>
     </g>
    </g>
    <g id="ytick_20">
     <g id="line2d_95">
      <g>
       <use xlink:href="#m27e79f6627" x="33.328365" y="146.061951" style="stroke: #000000; stroke-width: 0.5"/>
      </g>
     </g>
     <g id="line2d_96">
      <g>
       <use xlink:href="#mf53404b334" x="390.448365" y="146.061951" style="stroke: #000000; stroke-width: 0.5"/>
      </g>
     </g>
    </g>
    <g id="ytick_21">
     <g id="line2d_97">
      <g>
       <use xlink:href="#m27e79f6627" x="33.328365" y="130.125565" style="stroke: #000000; stroke-width: 0.5"/>
      </g>
     </g>
     <g id="line2d_98">
      <g>
       <use xlink:href="#mf53404b334" x="390.448365" y="130.125565" style="stroke: #000000; stroke-width: 0.5"/>
      </g>
     </g>
    </g>
    <g id="ytick_22">
     <g id="line2d_99">
      <g>
       <use xlink:href="#m27e79f6627" x="33.328365" y="122.157372" style="stroke: #000000; stroke-width: 0.5"/>
      </g>
     </g>
     <g id="line2d_100">
      <g>
       <use xlink:href="#mf53404b334" x="390.448365" y="122.157372" style="stroke: #000000; stroke-width: 0.5"/>
      </g>
     </g>
    </g>
    <g id="ytick_23">
     <g id="line2d_101">
      <g>
       <use xlink:href="#m27e79f6627" x="33.328365" y="114.189178" style="stroke: #000000; stroke-width: 0.5"/>
      </g>
     </g>
     <g id="line2d_102">
      <g>
       <use xlink:href="#mf53404b334" x="390.448365" y="114.189178" style="stroke: #000000; stroke-width: 0.5"/>
      </g>
     </g>
    </g>
    <g id="ytick_24">
     <g id="line2d_103">
      <g>
       <use xlink:href="#m27e79f6627" x="33.328365" y="106.220985" style="stroke: #000000; stroke-width: 0.5"/>
      </g>
     </g>
     <g id="line2d_104">
      <g>
       <use xlink:href="#mf53404b334" x="390.448365" y="106.220985" style="stroke: #000000; stroke-width: 0.5"/>
      </g>
     </g>
    </g>
    <g id="ytick_25">
     <g id="line2d_105">
      <g>
       <use xlink:href="#m27e79f6627" x="33.328365" y="90.284599" style="stroke: #000000; stroke-width: 0.5"/>
      </g>
     </g>
     <g id="line2d_106">
      <g>
       <use xlink:href="#mf53404b334" x="390.448365" y="90.284599" style="stroke: #000000; stroke-width: 0.5"/>
      </g>
     </g>
    </g>
    <g id="ytick_26">
     <g id="line2d_107">
      <g>
       <use xlink:href="#m27e79f6627" x="33.328365" y="82.316406" style="stroke: #000000; stroke-width: 0.5"/>
      </g>
     </g>
     <g id="line2d_108">
      <g>
       <use xlink:href="#mf53404b334" x="390.448365" y="82.316406" style="stroke: #000000; stroke-width: 0.5"/>
      </g>
     </g>
    </g>
    <g id="ytick_27">
     <g id="line2d_109">
      <g>
       <use xlink:href="#m27e79f6627" x="33.328365" y="74.348213" style="stroke: #000000; stroke-width: 0.5"/>
      </g>
     </g>
     <g id="line2d_110">
      <g>
       <use xlink:href="#mf53404b334" x="390.448365" y="74.348213" style="stroke: #000000; stroke-width: 0.5"/>
      </g>
     </g>
    </g>
    <g id="ytick_28">
     <g id="line2d_111">
      <g>
       <use xlink:href="#m27e79f6627" x="33.328365" y="66.38002" style="stroke: #000000; stroke-width: 0.5"/>
      </g>
     </g>
     <g id="line2d_112">
      <g>
       <use xlink:href="#mf53404b334" x="390.448365" y="66.38002" style="stroke: #000000; stroke-width: 0.5"/>
      </g>
     </g>
    </g>
    <g id="ytick_29">
     <g id="line2d_113">
      <g>
       <use xlink:href="#m27e79f6627" x="33.328365" y="50.443634" style="stroke: #000000; stroke-width: 0.5"/>
      </g>
     </g>
     <g id="line2d_114">
      <g>
       <use xlink:href="#mf53404b334" x="390.448365" y="50.443634" style="stroke: #000000; stroke-width: 0.5"/>
      </g>
     </g>
    </g>
    <g id="ytick_30">
     <g id="line2d_115">
      <g>
       <use xlink:href="#m27e79f6627" x="33.328365" y="42.475441" style="stroke: #000000; stroke-width: 0.5"/>
      </g>
     </g>
     <g id="line2d_116">
      <g>
       <use xlink:href="#mf53404b334" x="390.448365" y="42.475441" style="stroke: #000000; stroke-width: 0.5"/>
      </g>
     </g>
    </g>
    <g id="ytick_31">
     <g id="line2d_117">
      <g>
       <use xlink:href="#m27e79f6627" x="33.328365" y="34.507248" style="stroke: #000000; stroke-width: 0.5"/>
      </g>
     </g>
     <g id="line2d_118">
      <g>
       <use xlink:href="#mf53404b334" x="390.448365" y="34.507248" style="stroke: #000000; stroke-width: 0.5"/>
      </g>
     </g>
    </g>
    <g id="ytick_32">
     <g id="line2d_119">
      <g>
       <use xlink:href="#m27e79f6627" x="33.328365" y="26.539055" style="stroke: #000000; stroke-width: 0.5"/>
      </g>
     </g>
     <g id="line2d_120">
      <g>
       <use xlink:href="#mf53404b334" x="390.448365" y="26.539055" style="stroke: #000000; stroke-width: 0.5"/>
      </g>
     </g>
    </g>
    <g id="ytick_33">
     <g id="line2d_121">
      <g>
       <use xlink:href="#m27e79f6627" x="33.328365" y="10.602669" style="stroke: #000000; stroke-width: 0.5"/>
      </g>
     </g>
     <g id="line2d_122">
      <g>
       <use xlink:href="#mf53404b334" x="390.448365" y="10.602669" style="stroke: #000000; stroke-width: 0.5"/>
      </g>
     </g>
    </g>
    <g id="text_15">
     <!-- spatial rainfall -->
     <g transform="translate(14.407327 182.395716) rotate(-90) scale(0.16 -0.16)">
      <defs>
       <path id="NimbusRomNo9L-Regu-70" d="M 58 2516 
C 115 2522 160 2522 218 2522 
C 435 2522 480 2458 480 2155 
L 480 -855 
C 480 -1189 410 -1261 32 -1299 
L 32 -1408 
L 1581 -1408 
L 1581 -1293 
C 1101 -1293 1018 -1222 1018 -816 
L 1018 199 
C 1242 -13 1395 -77 1664 -77 
C 2419 -77 3008 643 3008 1575 
C 3008 2372 2560 2944 1939 2944 
C 1581 2944 1299 2784 1018 2438 
L 1018 2931 
L 979 2944 
C 634 2810 410 2726 58 2618 
L 58 2516 
z
M 1018 2136 
C 1018 2329 1376 2560 1670 2560 
C 2144 2560 2458 2071 2458 1324 
C 2458 611 2144 128 1683 128 
C 1382 128 1018 359 1018 552 
L 1018 2136 
z
" transform="scale(0.015625)"/>
       <path id="NimbusRomNo9L-Regu-74" d="M 1632 2880 
L 986 2880 
L 986 3622 
C 986 3686 979 3706 941 3706 
C 896 3648 858 3590 813 3526 
C 570 3174 294 2867 192 2841 
C 122 2794 83 2748 83 2715 
C 83 2695 90 2682 109 2682 
L 448 2682 
L 448 751 
C 448 212 640 -64 1018 -64 
C 1331 -64 1574 90 1786 423 
L 1702 493 
C 1568 333 1459 269 1318 269 
C 1082 269 986 443 986 847 
L 986 2682 
L 1632 2682 
L 1632 2880 
z
" transform="scale(0.015625)"/>
       <path id="NimbusRomNo9L-Regu-69" d="M 1120 2929 
L 128 2579 
L 128 2484 
L 179 2490 
C 256 2502 339 2509 397 2509 
C 550 2509 608 2406 608 2125 
L 608 640 
C 608 179 544 109 102 109 
L 102 0 
L 1619 0 
L 1619 96 
C 1197 128 1146 191 1146 650 
L 1146 2910 
L 1120 2929 
z
M 819 4352 
C 646 4352 499 4205 499 4026 
C 499 3847 640 3699 819 3699 
C 1005 3699 1152 3840 1152 4026 
C 1152 4205 1005 4352 819 4352 
z
" transform="scale(0.015625)"/>
       <path id="NimbusRomNo9L-Regu-6c" d="M 122 4000 
L 160 4000 
C 230 4000 307 4000 358 4000 
C 563 4000 627 3910 627 3610 
L 627 557 
C 627 211 538 128 134 96 
L 134 0 
L 1645 0 
L 1645 109 
C 1242 109 1165 173 1165 528 
L 1165 4371 
L 1139 4384 
C 806 4275 563 4211 122 4103 
L 122 4000 
z
" transform="scale(0.015625)"/>
       <path id="NimbusRomNo9L-Regu-72" d="M 45 2496 
C 134 2515 192 2522 269 2522 
C 429 2522 486 2419 486 2138 
L 486 538 
C 486 218 442 173 32 96 
L 32 0 
L 1568 0 
L 1568 102 
C 1133 102 1024 199 1024 565 
L 1024 2013 
C 1024 2219 1299 2541 1472 2541 
C 1510 2541 1568 2509 1638 2445 
C 1741 2355 1811 2317 1894 2317 
C 2048 2317 2144 2426 2144 2605 
C 2144 2816 2010 2944 1792 2944 
C 1523 2944 1338 2797 1024 2343 
L 1024 2931 
L 992 2944 
C 653 2803 422 2721 45 2599 
L 45 2496 
z
" transform="scale(0.015625)"/>
       <path id="NimbusRomNo9L-Regu-6e" d="M 102 2579 
C 141 2598 205 2605 275 2605 
C 454 2605 512 2509 512 2195 
L 512 608 
C 512 243 442 154 115 128 
L 115 32 
L 1472 32 
L 1472 128 
C 1146 154 1050 230 1050 461 
L 1050 2259 
C 1357 2547 1498 2624 1709 2624 
C 2022 2624 2176 2426 2176 2003 
L 2176 666 
C 2176 262 2093 154 1773 128 
L 1773 32 
L 3104 32 
L 3104 128 
C 2790 160 2714 237 2714 550 
L 2714 2016 
C 2714 2618 2432 2976 1958 2976 
C 1664 2976 1466 2867 1030 2458 
L 1030 2963 
L 986 2976 
C 672 2861 454 2790 102 2688 
L 102 2579 
z
" transform="scale(0.015625)"/>
       <path id="NimbusRomNo9L-Regu-66" d="M 1978 2880 
L 1190 2880 
L 1190 3611 
C 1190 3978 1312 4173 1555 4173 
C 1690 4173 1779 4110 1894 3927 
C 1997 3763 2074 3700 2182 3700 
C 2330 3700 2451 3814 2451 3959 
C 2451 4188 2170 4352 1786 4352 
C 1389 4352 1050 4181 883 3891 
C 717 3613 666 3385 659 2880 
L 134 2880 
L 134 2675 
L 659 2675 
L 659 656 
C 659 185 589 109 128 109 
L 128 0 
L 1792 0 
L 1792 109 
C 1267 109 1197 180 1197 661 
L 1197 2675 
L 1978 2675 
L 1978 2880 
z
" transform="scale(0.015625)"/>
      </defs>
      <use xlink:href="#NimbusRomNo9L-Regu-73" transform="scale(0.996264)"/>
      <use xlink:href="#NimbusRomNo9L-Regu-70" transform="translate(38.753706 0) scale(0.996264)"/>
      <use xlink:href="#NimbusRomNo9L-Regu-61" transform="translate(88.566907 0) scale(0.996264)"/>
      <use xlink:href="#NimbusRomNo9L-Regu-74" transform="translate(132.800475 0) scale(0.996264)"/>
      <use xlink:href="#NimbusRomNo9L-Regu-69" transform="translate(160.495645 0) scale(0.996264)"/>
      <use xlink:href="#NimbusRomNo9L-Regu-61" transform="translate(188.190815 0) scale(0.996264)"/>
      <use xlink:href="#NimbusRomNo9L-Regu-6c" transform="translate(232.424383 0) scale(0.996264)"/>
      <use xlink:href="#NimbusRomNo9L-Regu-72" transform="translate(285.026153 0) scale(0.996264)"/>
      <use xlink:href="#NimbusRomNo9L-Regu-61" transform="translate(318.201383 0) scale(0.996264)"/>
      <use xlink:href="#NimbusRomNo9L-Regu-69" transform="translate(362.434952 0) scale(0.996264)"/>
      <use xlink:href="#NimbusRomNo9L-Regu-6e" transform="translate(390.130121 0) scale(0.996264)"/>
      <use xlink:href="#NimbusRomNo9L-Regu-66" transform="translate(439.943322 0) scale(0.996264)"/>
      <use xlink:href="#NimbusRomNo9L-Regu-61" transform="translate(472.122455 0) scale(0.996264)"/>
      <use xlink:href="#NimbusRomNo9L-Regu-6c" transform="translate(516.356023 0) scale(0.996264)"/>
      <use xlink:href="#NimbusRomNo9L-Regu-6c" transform="translate(544.051193 0) scale(0.996264)"/>
     </g>
    </g>
   </g>
   <g id="line2d_123">
    <path d="M 49.561093 224.745167 
L 50.193948 238.551407 
L 50.826802 247.765303 
L 51.459657 252.372251 
L 52.092512 237.96244 
L 52.725367 15.696 
L 53.358222 46.316933 
L 53.991077 150.233714 
L 54.623932 203.407251 
L 55.256786 224.316683 
L 55.889641 236.683765 
L 57.788206 251.030885 
L 58.421061 247.072714 
L 59.053916 250.53192 
L 59.686771 253.297389 
L 60.319625 255.178134 
L 60.95248 252.55274 
L 61.585335 251.12052 
L 62.21819 243.193197 
L 62.851045 237.197646 
L 63.4839 247.327468 
L 64.116755 250.818661 
L 64.749609 232.364888 
L 65.382464 218.377006 
L 66.015319 236.363351 
L 66.648174 225.874291 
L 67.281029 211.924506 
L 67.913884 158.37553 
L 68.546739 202.916367 
L 69.179594 215.585115 
L 69.812448 218.971256 
L 70.445303 231.85964 
L 71.078158 240.933335 
L 71.711013 247.960243 
L 72.343868 251.752582 
L 72.976723 254.644777 
L 73.609578 255.93151 
L 74.242432 256.67448 
L 74.875287 257.105725 
L 75.508142 257.102224 
L 76.140997 256.542699 
L 76.773852 257.079675 
L 77.406707 257.14896 
L 78.672416 257.469849 
L 79.305271 255.332078 
L 79.938126 247.271104 
L 80.570981 251.427933 
L 81.203836 254.502374 
L 81.836691 256.039594 
L 82.469546 256.808203 
L 83.102401 257.192508 
L 83.735255 257.065932 
L 84.36811 257.321373 
L 85.000965 257.449092 
L 85.63382 232.692032 
L 86.266675 175.452573 
L 86.89953 216.494772 
L 87.532385 236.876428 
L 88.165239 245.99155 
L 88.798094 243.87575 
L 89.430949 250.68644 
L 90.063804 253.693376 
L 90.696659 252.925908 
L 91.329514 255.191599 
L 91.962369 256.344365 
L 92.595223 252.856969 
L 93.228078 253.344366 
L 93.860933 253.169733 
L 94.493788 252.425041 
L 95.126643 254.981007 
L 95.759498 256.199229 
L 96.392353 256.848179 
L 97.025208 257.232416 
L 98.290917 257.500675 
L 99.556627 257.498017 
L 100.822337 257.537194 
L 101.455192 254.807976 
L 102.088046 250.276012 
L 102.720901 231.476028 
L 103.353756 241.359063 
L 103.986611 249.448018 
L 104.619466 253.512416 
L 105.252321 255.544614 
L 105.885176 256.560713 
L 106.518031 256.869558 
L 107.150885 256.804855 
L 107.78374 257.170913 
L 108.416595 257.373864 
L 109.04945 256.618758 
L 109.682305 256.121681 
L 110.31516 256.849247 
L 110.948015 257.23295 
L 112.213724 257.500808 
L 112.846579 256.70215 
L 114.745144 257.41768 
L 115.377999 257.497246 
L 116.010853 256.939416 
L 116.643708 256.580818 
L 117.276563 257.078815 
L 117.909418 257.347734 
L 118.542273 256.9045 
L 119.175128 256.682883 
L 119.807983 256.0143 
L 120.440838 252.8513 
L 121.073692 253.959068 
L 121.706547 255.409371 
L 122.339402 235.835551 
L 122.972257 246.6265 
L 123.605112 251.862611 
L 124.237967 225.81509 
L 124.870822 240.281598 
L 125.503676 248.929206 
L 126.136531 253.233088 
L 126.769386 255.38503 
L 127.402241 255.026726 
L 128.035096 254.847575 
L 128.667951 256.172353 
L 129.300806 256.834742 
L 129.93366 257.205778 
L 131.19937 257.484054 
L 133.097935 257.595099 
L 134.363645 257.581384 
L 134.996499 254.431663 
L 135.629354 240.685387 
L 136.262209 235.425807 
L 137.527919 198.283637 
L 138.160774 226.934202 
L 138.793629 215.482379 
L 139.426483 233.641126 
L 140.059338 235.469443 
L 140.692193 245.646627 
L 141.325048 251.5918 
L 141.957903 254.305419 
L 142.590758 255.921197 
L 143.223613 253.422284 
L 143.856468 255.380026 
L 144.489322 255.522235 
L 145.122177 256.131195 
L 145.755032 253.42768 
L 146.387887 253.729324 
L 147.653597 256.186651 
L 148.286452 256.204436 
L 148.919306 256.910545 
L 149.552161 249.355167 
L 150.185016 218.087212 
L 150.817871 229.644694 
L 151.450726 243.550992 
L 152.083581 250.504141 
L 152.716436 251.23169 
L 153.34929 210.439745 
L 153.982145 219.705371 
L 154.615 238.282524 
L 155.247855 247.790225 
L 155.88071 252.683519 
L 156.513565 255.110246 
L 157.14642 253.474979 
L 157.779275 240.147284 
L 159.677839 186.244167 
L 160.310694 184.061572 
L 160.943549 220.002453 
L 161.576404 238.29162 
L 162.209259 247.794774 
L 162.842113 252.665873 
L 163.474968 255.101423 
L 164.107823 256.339118 
L 164.740678 255.304565 
L 165.373533 252.137865 
L 166.639243 255.460099 
L 167.272097 208.251124 
L 167.904952 231.499616 
L 168.537807 244.319088 
L 169.170662 250.947951 
L 169.803517 247.808146 
L 170.436372 227.752034 
L 171.069227 241.827764 
L 171.702082 240.718151 
L 172.334936 241.159367 
L 172.967791 198.909507 
L 173.600646 226.988169 
L 174.233501 242.162969 
L 174.866356 249.86989 
L 175.499211 253.743272 
L 176.132066 255.679964 
L 177.397775 256.993038 
L 178.03063 257.304845 
L 178.663485 257.460749 
L 179.29634 256.443075 
L 179.929195 248.424217 
L 180.56205 253.000514 
L 181.194905 254.053594 
L 181.827759 226.870741 
L 182.460614 240.411014 
L 183.093469 246.284728 
L 183.726324 231.352912 
L 184.359179 241.297505 
L 184.992034 249.218035 
L 185.624889 236.086525 
L 186.257743 240.337591 
L 186.890598 209.614247 
L 187.523453 229.770799 
L 188.156308 243.614044 
L 188.789163 245.216898 
L 189.422018 240.082022 
L 190.054873 246.737767 
L 190.687727 252.157288 
L 191.320582 254.886972 
L 191.953437 256.172131 
L 192.586292 256.774869 
L 193.219147 257.155921 
L 193.852002 257.386288 
L 194.484857 257.48155 
L 195.117712 221.612549 
L 195.750566 230.590623 
L 196.383421 243.645468 
L 197.016276 250.551379 
L 197.649131 252.490378 
L 198.281986 226.148894 
L 198.914841 174.27266 
L 199.547696 209.370895 
L 200.18055 164.469301 
L 200.813405 202.53693 
L 201.44626 207.26784 
L 202.079115 232.382486 
L 202.71197 243.206726 
L 203.344825 246.786162 
L 203.97768 252.121726 
L 204.610534 254.630143 
L 205.243389 256.103479 
L 205.876244 256.860066 
L 206.509099 257.238361 
L 207.141954 257.427507 
L 207.774809 253.438382 
L 208.407664 234.013396 
L 209.040519 245.317013 
L 209.673373 251.466833 
L 210.306228 254.322618 
L 210.939083 255.969637 
L 211.571938 256.793145 
L 212.204793 255.57142 
L 212.837648 237.271169 
L 213.470503 239.11715 
L 214.103357 209.163391 
L 214.736212 210.182661 
L 215.369067 233.541088 
L 216.001922 244.762132 
L 216.634777 251.189392 
L 217.267632 254.403024 
L 217.900487 255.989919 
L 218.533342 254.51243 
L 219.166196 256.064541 
L 219.799051 256.840598 
L 220.431906 256.690773 
L 221.697616 246.418959 
L 222.330471 251.977964 
L 222.963326 253.402875 
L 223.59618 206.804183 
L 224.229035 230.95543 
L 224.86189 238.449341 
L 225.494745 238.371562 
L 226.1276 205.085386 
L 226.760455 228.442631 
L 227.39331 242.810517 
L 228.026164 250.193665 
L 228.659019 253.90516 
L 229.291874 248.330567 
L 229.924729 219.945448 
L 231.190439 238.447777 
L 231.823294 243.450504 
L 232.456149 250.533579 
L 233.089003 246.266288 
L 233.721858 226.901424 
L 234.354713 241.482139 
L 234.987568 249.469716 
L 235.620423 249.818054 
L 236.253278 202.282666 
L 236.886133 224.909778 
L 237.518987 241.243295 
L 238.151842 249.370214 
L 238.784697 184.608409 
L 239.417552 180.096261 
L 240.050407 211.824526 
L 240.683262 226.971521 
L 241.316117 203.887397 
L 241.948971 176.070301 
L 242.581826 181.205731 
L 243.214681 176.163823 
L 243.847536 205.376198 
L 244.480391 224.105927 
L 245.113246 237.693935 
L 245.746101 235.444037 
L 246.378956 222.506245 
L 247.01181 228.427887 
L 247.644665 241.886803 
L 248.27752 249.492762 
L 248.910375 246.642301 
L 249.54323 242.826612 
L 250.176085 246.616025 
L 250.80894 252.096418 
L 252.074649 189.054771 
L 252.707504 163.01649 
L 253.340359 155.834055 
L 253.973214 197.781054 
L 254.606069 213.814279 
L 255.238924 211.014067 
L 255.871779 205.092012 
L 256.504633 207.868086 
L 257.137488 214.813932 
L 257.770343 235.059907 
L 258.403198 185.282004 
L 259.036053 187.544671 
L 259.668908 205.747849 
L 260.301763 172.159855 
L 260.934617 194.250629 
L 261.567472 197.168463 
L 262.200327 209.444203 
L 262.833182 197.25523 
L 263.466037 188.192589 
L 264.098892 166.50974 
L 265.364601 205.297848 
L 265.997456 230.939318 
L 266.630311 244.198304 
L 267.263166 248.517022 
L 267.896021 245.058804 
L 268.528876 225.520781 
L 269.161731 225.174161 
L 269.794586 238.546778 
L 270.42744 248.041876 
L 271.060295 248.207713 
L 271.69315 235.820409 
L 272.326005 239.308112 
L 272.95886 246.330891 
L 273.591715 247.75063 
L 274.22457 236.05004 
L 274.857424 231.892985 
L 275.490279 215.670916 
L 276.123134 233.277222 
L 276.755989 237.618188 
L 277.388844 242.876347 
L 278.021699 244.88789 
L 279.287408 253.348796 
L 279.920263 255.323361 
L 280.553118 213.302319 
L 281.185973 150.279506 
L 281.818828 203.051657 
L 282.451683 229.676779 
L 283.084538 233.467351 
L 284.350247 249.238671 
L 284.983102 245.8778 
L 286.248812 253.934922 
L 286.881667 255.735947 
L 287.514522 255.461151 
L 288.780231 256.330761 
L 289.413086 256.396013 
L 290.045941 256.329036 
L 290.678796 256.952925 
L 291.311651 257.165265 
L 291.944506 255.916844 
L 292.577361 255.053587 
L 293.84307 256.089425 
L 294.475925 248.665722 
L 295.10878 238.380109 
L 295.741635 207.599641 
L 296.37449 188.922525 
L 297.007345 219.385097 
L 297.6402 237.863421 
L 298.273054 246.465127 
L 298.905909 243.176276 
L 299.538764 245.67531 
L 300.171619 251.626062 
L 300.804474 254.203027 
L 301.437329 255.889921 
L 302.070184 256.753286 
L 303.335893 250.538206 
L 303.968748 254.03759 
L 304.601603 211.045876 
L 305.234458 224.21166 
L 305.867313 240.376303 
L 306.500168 240.570115 
L 307.133023 234.790478 
L 307.765877 240.625831 
L 309.031587 192.8306 
L 309.664442 151.896335 
L 310.297297 160.035013 
L 311.563007 217.872508 
L 312.828716 228.128664 
L 313.461571 242.095761 
L 314.094426 249.358196 
L 314.727281 249.324044 
L 315.360136 247.175476 
L 315.992991 250.184891 
L 316.625845 248.163674 
L 317.2587 252.830403 
L 317.891555 255.223529 
L 318.52441 256.400169 
L 319.157265 251.430677 
L 319.79012 241.694875 
L 320.422975 249.237434 
L 321.05583 253.387203 
L 321.688684 255.442167 
L 322.321539 256.52941 
L 322.954394 257.053111 
L 323.587249 257.334882 
L 324.852959 257.516331 
L 326.118668 257.422249 
L 326.751523 248.794281 
L 327.384378 242.687452 
L 328.017233 247.462787 
L 328.650088 245.627313 
L 329.282943 251.562222 
L 329.915798 254.449996 
L 330.548653 253.622945 
L 331.181507 254.344889 
L 331.814362 255.980771 
L 332.447217 256.798712 
L 333.712927 257.382287 
L 334.345782 257.49947 
L 336.877201 257.474866 
L 337.510056 256.071645 
L 338.142911 256.724626 
L 338.775766 257.17064 
L 340.041475 257.505151 
L 346.370024 257.616 
L 347.002879 257.496803 
L 347.635734 256.600547 
L 348.268589 257.068759 
L 348.901444 238.856498 
L 349.534298 245.587152 
L 350.167153 245.546076 
L 350.800008 248.971782 
L 351.432863 238.931551 
L 352.065718 242.01907 
L 352.698573 243.821797 
L 353.331428 248.82678 
L 353.964282 250.412929 
L 355.229992 255.148385 
L 355.862847 256.322759 
L 356.495702 256.830263 
L 357.128557 256.685605 
L 358.394267 257.28429 
L 359.659976 257.523603 
L 360.292831 256.81315 
L 361.558541 257.216574 
L 362.191396 256.540112 
L 362.824251 256.321403 
L 363.457105 256.789745 
L 364.08996 247.76089 
L 364.722815 244.680738 
L 365.35567 248.140704 
L 365.988525 252.241223 
L 366.62138 247.398996 
L 367.254235 240.854343 
L 367.88709 248.996453 
L 368.519944 253.266711 
L 369.152799 255.381922 
L 369.785654 255.981355 
L 370.418509 253.133636 
L 371.051364 255.355224 
L 371.684219 256.446098 
L 372.317074 256.33416 
L 373.582783 257.176508 
L 374.215638 247.814828 
L 374.215638 247.814828 
" clip-path="url(#pd2ada16e0d)" style="fill: none; stroke: #000000; stroke-linecap: square"/>
   </g>
   <g id="line2d_124">
    <path d="M 49.561093 223.372788 
L 50.193948 226.561704 
L 51.459657 248.491426 
L 52.092512 252.024791 
L 52.725367 230.326174 
L 53.358222 32.053754 
L 53.991077 131.697271 
L 54.623932 200.092818 
L 55.256786 227.030123 
L 55.889641 230.338948 
L 56.522496 236.074296 
L 57.155351 237.754085 
L 57.788206 244.876828 
L 58.421061 250.73972 
L 59.053916 242.304218 
L 59.686771 247.087118 
L 60.319625 250.199317 
L 60.95248 252.502448 
L 61.585335 248.152876 
L 62.21819 245.484239 
L 62.851045 235.889679 
L 63.4839 232.668826 
L 64.116755 245.447273 
L 64.749609 249.367516 
L 65.382464 224.253531 
L 66.015319 221.228451 
L 66.648174 240.379151 
L 67.281029 224.472091 
L 67.913884 214.654184 
L 68.546739 167.341412 
L 69.179594 220.793165 
L 69.812448 217.440087 
L 70.445303 219.292055 
L 71.078158 230.770064 
L 72.343868 243.960449 
L 72.976723 245.915033 
L 73.609578 249.196939 
L 74.242432 251.68522 
L 75.508142 253.698112 
L 76.140997 252.388229 
L 76.773852 251.573481 
L 77.406707 251.406034 
L 78.039562 253.236181 
L 78.672416 251.869558 
L 79.305271 252.295433 
L 79.938126 247.759388 
L 80.570981 238.812942 
L 81.203836 246.528136 
L 81.836691 250.062675 
L 82.469546 252.296866 
L 83.102401 252.248891 
L 83.735255 250.717922 
L 84.36811 250.188166 
L 85.000965 252.31024 
L 85.63382 251.789728 
L 86.266675 222.915735 
L 86.89953 178.642302 
L 87.532385 231.556597 
L 88.165239 236.93117 
L 88.798094 240.236085 
L 89.430949 236.901085 
L 90.063804 247.041299 
L 90.696659 249.594296 
L 91.329514 248.893104 
L 91.962369 250.375252 
L 92.595223 250.720665 
L 93.228078 247.477127 
L 93.860933 249.296982 
L 94.493788 247.60314 
L 95.126643 247.07503 
L 95.759498 251.729242 
L 96.392353 251.844325 
L 97.025208 250.077719 
L 98.290917 253.22881 
L 98.923772 253.080742 
L 99.556627 252.685981 
L 100.189482 251.666478 
L 100.822337 255.031466 
L 101.455192 253.640335 
L 102.088046 249.268334 
L 102.720901 243.946138 
L 103.353756 227.960987 
L 103.986611 241.887272 
L 104.619466 247.952554 
L 105.252321 250.425607 
L 105.885176 250.870933 
L 106.518031 252.057303 
L 107.150885 252.808099 
L 107.78374 252.777466 
L 108.416595 254.145271 
L 109.04945 254.04357 
L 109.682305 252.721626 
L 110.31516 250.995219 
L 110.948015 253.302819 
L 111.580869 254.524358 
L 112.213724 253.380874 
L 112.846579 253.082871 
L 113.479434 252.392552 
L 114.112289 253.325849 
L 114.745144 254.700837 
L 115.377999 254.21062 
L 116.010853 252.857716 
L 116.643708 252.51077 
L 117.276563 253.361672 
L 117.909418 253.908223 
L 118.542273 254.233669 
L 119.175128 252.78218 
L 119.807983 253.074979 
L 120.440838 252.68817 
L 121.073692 249.810024 
L 121.706547 251.464385 
L 122.339402 252.514366 
L 122.972257 232.008472 
L 123.605112 246.410628 
L 124.237967 250.53446 
L 124.870822 224.022052 
L 125.503676 242.418657 
L 126.136531 248.504472 
L 126.769386 251.316183 
L 127.402241 252.255921 
L 128.035096 251.666313 
L 128.667951 252.513702 
L 129.300806 253.647777 
L 129.93366 254.30292 
L 131.19937 254.483711 
L 131.832225 254.848331 
L 133.097935 254.871726 
L 133.73079 254.768628 
L 134.363645 254.780851 
L 134.996499 255.037242 
L 135.629354 251.615287 
L 136.262209 238.242622 
L 136.895064 236.341891 
L 137.527919 222.414721 
L 138.160774 213.879334 
L 138.793629 236.958302 
L 139.426483 222.92645 
L 140.059338 238.310436 
L 140.692193 236.740181 
L 141.325048 244.980144 
L 141.957903 250.335005 
L 142.590758 252.493785 
L 143.223613 253.097709 
L 143.856468 250.801212 
L 144.489322 253.934318 
L 145.122177 253.563645 
L 145.755032 253.00634 
L 146.387887 250.58619 
L 147.020742 251.618064 
L 147.653597 252.876915 
L 148.286452 253.792182 
L 148.919306 253.823805 
L 149.552161 254.665148 
L 150.185016 246.344054 
L 150.817871 220.881672 
L 151.450726 237.000502 
L 152.083581 244.848353 
L 152.716436 249.542885 
L 153.34929 249.046497 
L 153.982145 214.545388 
L 154.615 231.624915 
L 155.247855 241.658928 
L 155.88071 246.985619 
L 156.513565 250.734509 
L 157.14642 253.129559 
L 157.779275 250.957631 
L 158.412129 237.39545 
L 160.310694 207.693972 
L 160.943549 208.832464 
L 161.576404 234.482258 
L 162.209259 241.371316 
L 162.842113 247.019672 
L 163.474968 251.321965 
L 164.107823 252.951791 
L 164.740678 253.927477 
L 165.373533 252.428791 
L 166.006388 249.35165 
L 166.639243 251.791776 
L 167.272097 253.590729 
L 167.904952 210.467029 
L 168.537807 239.293885 
L 169.170662 244.766495 
L 169.803517 249.086149 
L 170.436372 245.201692 
L 171.069227 227.915739 
L 171.702082 243.362895 
L 172.334936 240.24907 
L 172.967791 240.524333 
L 173.600646 209.317922 
L 174.233501 237.659652 
L 174.866356 243.960262 
L 175.499211 248.367704 
L 176.76492 252.982341 
L 177.397775 254.83576 
L 178.03063 254.279712 
L 178.663485 255.610722 
L 179.929195 253.234814 
L 180.56205 244.196806 
L 181.194905 250.993338 
L 181.827759 251.516099 
L 182.460614 226.443975 
L 183.093469 242.701159 
L 183.726324 244.86482 
L 184.359179 230.750451 
L 184.992034 241.797633 
L 185.624889 248.340587 
L 186.257743 233.897684 
L 186.890598 239.453779 
L 187.523453 214.68145 
L 188.156308 237.629894 
L 188.789163 243.963659 
L 189.422018 243.287697 
L 190.054873 237.269805 
L 190.687727 244.639639 
L 191.320582 250.704045 
L 191.953437 253.300662 
L 192.586292 252.986709 
L 193.219147 252.366626 
L 193.852002 253.715899 
L 194.484857 253.883583 
L 195.117712 253.8507 
L 195.750566 215.616487 
L 196.383421 235.857001 
L 197.016276 245.016742 
L 197.649131 248.11926 
L 198.281986 248.592985 
L 198.914841 225.794486 
L 199.547696 192.211695 
L 200.18055 230.628098 
L 200.813405 184.044558 
L 201.44626 228.20153 
L 202.079115 222.683014 
L 202.71197 238.939087 
L 203.344825 244.122624 
L 203.97768 244.68329 
L 204.610534 250.150532 
L 205.243389 252.350628 
L 205.876244 253.566939 
L 206.509099 254.172032 
L 207.141954 254.501344 
L 207.774809 254.704541 
L 208.407664 250.544017 
L 209.040519 233.459003 
L 209.673373 245.103295 
L 210.306228 250.273064 
L 210.939083 252.516364 
L 211.571938 255.246157 
L 212.204793 254.510763 
L 212.837648 250.712651 
L 213.470503 232.042838 
L 214.103357 240.564836 
L 214.736212 215.716989 
L 215.369067 223.568396 
L 216.001922 237.837618 
L 217.267632 248.51625 
L 217.900487 251.150024 
L 218.533342 251.512762 
L 219.166196 249.037027 
L 219.799051 251.756369 
L 220.431906 253.909975 
L 221.064761 252.04095 
L 221.697616 244.115479 
L 222.330471 240.36757 
L 222.963326 251.901125 
L 223.59618 248.732761 
L 224.229035 203.553069 
L 224.86189 236.924906 
L 225.494745 238.041241 
L 226.1276 235.073353 
L 226.760455 205.727142 
L 227.39331 233.576941 
L 229.291874 250.825112 
L 229.924729 238.735727 
L 230.557584 215.433783 
L 231.190439 234.68025 
L 231.823294 240.407015 
L 232.456149 241.188413 
L 233.089003 249.04567 
L 233.721858 239.447696 
L 234.354713 220.091897 
L 234.987568 240.957779 
L 235.620423 249.96007 
L 236.253278 247.934818 
L 236.886133 196.422965 
L 237.518987 231.886075 
L 238.151842 240.191458 
L 238.784697 245.161559 
L 239.417552 176.674107 
L 240.683262 222.385579 
L 241.316117 226.900677 
L 241.948971 202.400759 
L 242.581826 185.068775 
L 243.214681 198.106245 
L 243.847536 189.277758 
L 244.480391 217.556467 
L 245.746101 236.484091 
L 246.378956 230.413013 
L 247.01181 222.692243 
L 247.644665 230.896472 
L 248.27752 241.226368 
L 248.910375 247.11488 
L 249.54323 239.47862 
L 250.176085 236.998047 
L 250.80894 242.027838 
L 251.441794 250.323892 
L 252.074649 219.772824 
L 252.707504 200.480522 
L 253.340359 177.006148 
L 253.973214 175.639366 
L 254.606069 212.886806 
L 255.238924 217.673128 
L 255.871779 214.342752 
L 256.504633 212.039894 
L 257.770343 220.948904 
L 258.403198 235.373469 
L 259.036053 187.21019 
L 259.668908 206.545374 
L 260.301763 216.788859 
L 260.934617 177.180076 
L 261.567472 212.44125 
L 262.200327 203.420644 
L 262.833182 217.370719 
L 263.466037 204.917386 
L 264.098892 202.089859 
L 264.731747 182.941007 
L 265.364601 207.362676 
L 265.997456 217.088889 
L 266.630311 234.000791 
L 267.263166 242.650219 
L 267.896021 246.278094 
L 268.528876 239.232504 
L 269.161731 221.244949 
L 270.42744 238.949087 
L 271.060295 245.907126 
L 271.69315 243.947236 
L 272.326005 232.302741 
L 272.95886 236.057289 
L 273.591715 243.564825 
L 274.22457 243.068231 
L 274.857424 230.222956 
L 275.490279 229.825029 
L 276.123134 218.934769 
L 276.755989 237.652315 
L 277.388844 236.334017 
L 278.021699 239.611363 
L 278.654554 238.828479 
L 279.920263 249.346969 
L 280.553118 253.199664 
L 281.185973 208.582967 
L 281.818828 175.024108 
L 282.451683 230.550645 
L 283.084538 236.545438 
L 283.717393 231.832112 
L 284.350247 241.868138 
L 284.983102 247.033648 
L 285.615957 243.030492 
L 286.248812 248.157724 
L 286.881667 251.751651 
L 287.514522 252.108502 
L 288.147377 251.451505 
L 288.780231 249.735428 
L 289.413086 251.725904 
L 290.045941 252.218092 
L 290.678796 251.106466 
L 291.944506 251.972198 
L 292.577361 248.43884 
L 293.210216 247.138826 
L 293.84307 248.189811 
L 294.475925 249.956896 
L 295.741635 228.629408 
L 296.37449 209.227379 
L 297.007345 202.227405 
L 297.6402 229.124345 
L 298.273054 237.054043 
L 298.905909 242.921726 
L 299.538764 238.104229 
L 300.171619 241.049986 
L 300.804474 248.457221 
L 301.437329 251.711702 
L 302.070184 249.566254 
L 302.703038 253.879565 
L 303.335893 249.654565 
L 303.968748 242.797973 
L 304.601603 248.613195 
L 305.234458 204.54366 
L 305.867313 231.616276 
L 306.500168 242.920115 
L 307.765877 229.789114 
L 308.398732 236.887171 
L 309.031587 214.07563 
L 309.664442 201.301517 
L 310.297297 170.396242 
L 310.930152 187.980955 
L 311.563007 209.562281 
L 312.195861 226.96089 
L 312.828716 225.674563 
L 313.461571 229.345211 
L 314.094426 241.273066 
L 314.727281 247.370731 
L 315.992991 242.303015 
L 316.625845 246.778645 
L 317.2587 244.135969 
L 317.891555 250.672754 
L 318.52441 252.475708 
L 319.157265 251.199332 
L 319.79012 245.038499 
L 320.422975 236.422012 
L 321.05583 248.23498 
L 321.688684 250.853932 
L 322.321539 250.252817 
L 322.954394 252.07537 
L 324.220104 253.078243 
L 324.852959 252.428655 
L 325.485814 252.458969 
L 326.118668 253.122 
L 326.751523 252.193089 
L 327.384378 242.447199 
L 328.017233 237.973049 
L 328.650088 245.332266 
L 329.282943 241.781422 
L 329.915798 247.940609 
L 330.548653 251.145298 
L 331.181507 248.971017 
L 331.814362 249.634733 
L 332.447217 253.914908 
L 333.080072 253.519589 
L 333.712927 251.541864 
L 334.345782 252.329439 
L 334.978637 254.146389 
L 335.611491 254.945534 
L 336.244346 254.286688 
L 336.877201 254.304183 
L 337.510056 254.841408 
L 338.142911 251.936892 
L 338.775766 252.610229 
L 339.408621 254.710575 
L 340.041475 254.924739 
L 340.67433 253.388248 
L 341.307185 253.324043 
L 341.94004 254.160794 
L 342.572895 254.698228 
L 343.20575 254.368536 
L 343.838605 253.534674 
L 344.47146 253.480815 
L 345.104314 254.155881 
L 345.737169 254.181582 
L 346.370024 254.474919 
L 347.002879 254.460503 
L 347.635734 254.134963 
L 348.268589 253.099409 
L 348.901444 254.07973 
L 349.534298 235.857113 
L 350.167153 244.615469 
L 350.800008 242.976083 
L 351.432863 246.729209 
L 352.065718 237.077879 
L 352.698573 241.056339 
L 353.331428 242.503743 
L 353.964282 247.460182 
L 354.597137 248.328947 
L 355.862847 252.866191 
L 356.495702 253.94167 
L 357.128557 254.266949 
L 357.761412 253.915946 
L 358.394267 254.475905 
L 359.027121 255.474972 
L 360.925686 254.038579 
L 361.558541 254.721085 
L 362.191396 254.860239 
L 362.824251 254.117087 
L 363.457105 253.865887 
L 364.08996 254.266488 
L 364.722815 244.948701 
L 365.35567 242.741516 
L 366.62138 250.312192 
L 367.88709 238.955347 
L 368.519944 248.639135 
L 369.152799 252.277479 
L 369.785654 253.479607 
L 370.418509 252.660531 
L 371.051364 250.198227 
L 371.684219 252.974821 
L 372.317074 253.800941 
L 372.949928 253.47966 
L 374.215638 254.431974 
L 374.215638 254.431974 
" clip-path="url(#pd2ada16e0d)" style="fill: none; stroke-dasharray: 3.7,1.6; stroke-dashoffset: 0; stroke: #ff0000"/>
   </g>
   <g id="patch_3">
    <path d="M 33.328365 269.712 
L 33.328365 3.6 
" style="fill: none; stroke: #000000; stroke-width: 0.5; stroke-linejoin: miter; stroke-linecap: square"/>
   </g>
   <g id="patch_4">
    <path d="M 390.448365 269.712 
L 390.448365 3.6 
" style="fill: none; stroke: #000000; stroke-width: 0.5; stroke-linejoin: miter; stroke-linecap: square"/>
   </g>
   <g id="patch_5">
    <path d="M 33.328365 269.712 
L 390.448365 269.712 
" style="fill: none; stroke: #000000; stroke-width: 0.5; stroke-linejoin: miter; stroke-linecap: square"/>
   </g>
   <g id="patch_6">
    <path d="M 33.328365 3.6 
L 390.448365 3.6 
" style="fill: none; stroke: #000000; stroke-width: 0.5; stroke-linejoin: miter; stroke-linecap: square"/>
   </g>
   <g id="legend_1">
    <g id="line2d_125">
     <path d="M 290.983391 13.6 
L 298.983391 13.6 
L 306.983391 13.6 
" style="fill: none; stroke: #000000; stroke-linecap: square"/>
    </g>
    <g id="text_16">
     <!-- spatial rainfall actual -->
     <g transform="translate(313.383391 16.4) scale(0.08 -0.08)">
      <defs>
       <path id="NimbusRomNo9L-Regu-63" d="M 2547 998 
C 2240 550 2010 397 1645 397 
C 1062 397 653 909 653 1645 
C 653 2304 1005 2758 1523 2758 
C 1754 2758 1837 2688 1901 2451 
L 1939 2310 
C 1990 2131 2106 2016 2240 2016 
C 2406 2016 2547 2138 2547 2285 
C 2547 2643 2099 2944 1562 2944 
C 1248 2944 922 2816 659 2586 
C 339 2304 160 1869 160 1363 
C 160 531 666 -64 1376 -64 
C 1664 -64 1920 38 2150 237 
C 2323 390 2445 563 2637 941 
L 2547 998 
z
" transform="scale(0.015625)"/>
       <path id="NimbusRomNo9L-Regu-75" d="M 3066 320 
L 3034 320 
C 2739 320 2669 390 2669 685 
L 2669 2880 
L 1658 2880 
L 1658 2758 
C 2054 2758 2131 2694 2131 2375 
L 2131 875 
C 2131 697 2099 607 2010 537 
C 1837 397 1638 320 1446 320 
C 1197 320 992 537 992 805 
L 992 2880 
L 58 2880 
L 58 2778 
C 365 2778 454 2682 454 2387 
L 454 770 
C 454 263 762 -64 1229 -64 
C 1466 -64 1715 38 1888 211 
L 2163 486 
L 2163 -45 
L 2189 -58 
C 2509 70 2739 141 3066 230 
L 3066 320 
z
" transform="scale(0.015625)"/>
      </defs>
      <use xlink:href="#NimbusRomNo9L-Regu-73" transform="scale(0.996264)"/>
      <use xlink:href="#NimbusRomNo9L-Regu-70" transform="translate(38.753706 0) scale(0.996264)"/>
      <use xlink:href="#NimbusRomNo9L-Regu-61" transform="translate(88.566907 0) scale(0.996264)"/>
      <use xlink:href="#NimbusRomNo9L-Regu-74" transform="translate(132.800475 0) scale(0.996264)"/>
      <use xlink:href="#NimbusRomNo9L-Regu-69" transform="translate(160.495645 0) scale(0.996264)"/>
      <use xlink:href="#NimbusRomNo9L-Regu-61" transform="translate(188.190815 0) scale(0.996264)"/>
      <use xlink:href="#NimbusRomNo9L-Regu-6c" transform="translate(232.424383 0) scale(0.996264)"/>
      <use xlink:href="#NimbusRomNo9L-Regu-72" transform="translate(285.026153 0) scale(0.996264)"/>
      <use xlink:href="#NimbusRomNo9L-Regu-61" transform="translate(318.201383 0) scale(0.996264)"/>
      <use xlink:href="#NimbusRomNo9L-Regu-69" transform="translate(362.434952 0) scale(0.996264)"/>
      <use xlink:href="#NimbusRomNo9L-Regu-6e" transform="translate(390.130121 0) scale(0.996264)"/>
      <use xlink:href="#NimbusRomNo9L-Regu-66" transform="translate(439.943322 0) scale(0.996264)"/>
      <use xlink:href="#NimbusRomNo9L-Regu-61" transform="translate(472.122455 0) scale(0.996264)"/>
      <use xlink:href="#NimbusRomNo9L-Regu-6c" transform="translate(516.356023 0) scale(0.996264)"/>
      <use xlink:href="#NimbusRomNo9L-Regu-6c" transform="translate(544.051193 0) scale(0.996264)"/>
      <use xlink:href="#NimbusRomNo9L-Regu-61" transform="translate(596.652963 0) scale(0.996264)"/>
      <use xlink:href="#NimbusRomNo9L-Regu-63" transform="translate(640.886531 0) scale(0.996264)"/>
      <use xlink:href="#NimbusRomNo9L-Regu-74" transform="translate(685.1201 0) scale(0.996264)"/>
      <use xlink:href="#NimbusRomNo9L-Regu-75" transform="translate(712.81527 0) scale(0.996264)"/>
      <use xlink:href="#NimbusRomNo9L-Regu-61" transform="translate(762.62847 0) scale(0.996264)"/>
      <use xlink:href="#NimbusRomNo9L-Regu-6c" transform="translate(806.862039 0) scale(0.996264)"/>
     </g>
    </g>
    <g id="line2d_126">
     <path d="M 290.983391 24.925463 
L 298.983391 24.925463 
L 306.983391 24.925463 
" style="fill: none; stroke-dasharray: 3.7,1.6; stroke-dashoffset: 0; stroke: #ff0000"/>
    </g>
    <g id="text_17">
     <!-- spatial rainfall predict -->
     <g transform="translate(313.383391 27.725463) scale(0.08 -0.08)">
      <defs>
       <path id="NimbusRomNo9L-Regu-65" d="M 2611 1053 
C 2304 564 2029 378 1619 378 
C 1254 378 979 564 794 930 
C 678 1174 634 1386 621 1779 
L 2592 1779 
C 2541 2193 2477 2377 2317 2581 
C 2125 2811 1830 2944 1498 2944 
C 1178 2944 877 2829 634 2611 
C 333 2349 160 1894 160 1370 
C 160 486 621 -64 1357 -64 
C 1965 -64 2445 315 2714 1008 
L 2611 1053 
z
M 634 1984 
C 704 2479 922 2714 1312 2714 
C 1702 2714 1856 2535 1939 1984 
L 634 1984 
z
" transform="scale(0.015625)"/>
      </defs>
      <use xlink:href="#NimbusRomNo9L-Regu-73" transform="scale(0.996264)"/>
      <use xlink:href="#NimbusRomNo9L-Regu-70" transform="translate(38.753706 0) scale(0.996264)"/>
      <use xlink:href="#NimbusRomNo9L-Regu-61" transform="translate(88.566907 0) scale(0.996264)"/>
      <use xlink:href="#NimbusRomNo9L-Regu-74" transform="translate(132.800475 0) scale(0.996264)"/>
      <use xlink:href="#NimbusRomNo9L-Regu-69" transform="translate(160.495645 0) scale(0.996264)"/>
      <use xlink:href="#NimbusRomNo9L-Regu-61" transform="translate(188.190815 0) scale(0.996264)"/>
      <use xlink:href="#NimbusRomNo9L-Regu-6c" transform="translate(232.424383 0) scale(0.996264)"/>
      <use xlink:href="#NimbusRomNo9L-Regu-72" transform="translate(285.026153 0) scale(0.996264)"/>
      <use xlink:href="#NimbusRomNo9L-Regu-61" transform="translate(318.201383 0) scale(0.996264)"/>
      <use xlink:href="#NimbusRomNo9L-Regu-69" transform="translate(362.434952 0) scale(0.996264)"/>
      <use xlink:href="#NimbusRomNo9L-Regu-6e" transform="translate(390.130121 0) scale(0.996264)"/>
      <use xlink:href="#NimbusRomNo9L-Regu-66" transform="translate(439.943322 0) scale(0.996264)"/>
      <use xlink:href="#NimbusRomNo9L-Regu-61" transform="translate(472.122455 0) scale(0.996264)"/>
      <use xlink:href="#NimbusRomNo9L-Regu-6c" transform="translate(516.356023 0) scale(0.996264)"/>
      <use xlink:href="#NimbusRomNo9L-Regu-6c" transform="translate(544.051193 0) scale(0.996264)"/>
      <use xlink:href="#NimbusRomNo9L-Regu-70" transform="translate(596.652963 0) scale(0.996264)"/>
      <use xlink:href="#NimbusRomNo9L-Regu-72" transform="translate(646.466163 0) scale(0.996264)"/>
      <use xlink:href="#NimbusRomNo9L-Regu-65" transform="translate(679.641393 0) scale(0.996264)"/>
      <use xlink:href="#NimbusRomNo9L-Regu-64" transform="translate(723.874962 0) scale(0.996264)"/>
      <use xlink:href="#NimbusRomNo9L-Regu-69" transform="translate(773.688162 0) scale(0.996264)"/>
      <use xlink:href="#NimbusRomNo9L-Regu-63" transform="translate(801.383332 0) scale(0.996264)"/>
      <use xlink:href="#NimbusRomNo9L-Regu-74" transform="translate(845.6169 0) scale(0.996264)"/>
     </g>
    </g>
   </g>
  </g>
 </g>
 <defs>
  <clipPath id="pd2ada16e0d">
   <rect x="33.328365" y="3.6" width="357.12" height="266.112"/>
  </clipPath>
 </defs>
</svg>
