<?xml version="1.0" encoding="utf-8" standalone="no"?>
<!DOCTYPE svg PUBLIC "-//W3C//DTD SVG 1.1//EN"
  "http://www.w3.org/Graphics/SVG/1.1/DTD/svg11.dtd">
<svg xmlns:xlink="http://www.w3.org/1999/xlink" width="402.018478pt" height="302.199372pt" viewBox="0 0 402.018478 302.199372" xmlns="http://www.w3.org/2000/svg" version="1.1">
 <metadata>
  <rdf:RDF xmlns:dc="http://purl.org/dc/elements/1.1/" xmlns:cc="http://creativecommons.org/ns#" xmlns:rdf="http://www.w3.org/1999/02/22-rdf-syntax-ns#">
   <cc:Work>
    <dc:type rdf:resource="http://purl.org/dc/dcmitype/StillImage"/>
    <dc:date>2024-03-16T22:21:06.202107</dc:date>
    <dc:format>image/svg+xml</dc:format>
    <dc:creator>
     <cc:Agent>
      <dc:title>Matplotlib v3.8.3, https://matplotlib.org/</dc:title>
     </cc:Agent>
    </dc:creator>
   </cc:Work>
  </rdf:RDF>
 </metadata>
 <defs>
  <style type="text/css">*{stroke-linejoin: round; stroke-linecap: butt}</style>
 </defs>
 <g id="figure_1">
  <g id="patch_1">
   <path d="M -0 302.199372 
L 402.018478 302.199372 
L 402.018478 0 
L -0 0 
z
" style="fill: #ffffff"/>
  </g>
  <g id="axes_1">
   <g id="patch_2">
    <path d="M 41.298478 269.712 
L 398.418478 269.712 
L 398.418478 3.6 
L 41.298478 3.6 
z
" style="fill: #ffffff"/>
   </g>
   <g id="matplotlib.axis_1">
    <g id="xtick_1">
     <g id="line2d_1">
      <defs>
       <path id="m1c61ebbb01" d="M 0 0 
L 0 -3 
" style="stroke: #000000; stroke-width: 0.5"/>
      </defs>
      <g>
       <use xlink:href="#m1c61ebbb01" x="57.531205" y="269.712" style="stroke: #000000; stroke-width: 0.5"/>
      </g>
     </g>
     <g id="line2d_2">
      <defs>
       <path id="m7b9165cf15" d="M 0 0 
L 0 3 
" style="stroke: #000000; stroke-width: 0.5"/>
      </defs>
      <g>
       <use xlink:href="#m7b9165cf15" x="57.531205" y="3.6" style="stroke: #000000; stroke-width: 0.5"/>
      </g>
     </g>
     <g id="text_1">
      <!-- $\mathdefault{0}$ -->
      <g transform="translate(55.538677 278.615656) scale(0.08 -0.08)">
       <defs>
        <path id="NimbusRomNo9L-Regu-30" d="M 1626 4352 
C 1274 4352 1005 4244 768 4020 
C 397 3661 154 2925 154 2176 
C 154 1479 365 730 666 372 
C 902 90 1229 -64 1600 -64 
C 1926 -64 2202 45 2432 269 
C 2803 621 3046 1364 3046 2138 
C 3046 3450 2464 4352 1626 4352 
z
M 1606 4186 
C 2144 4186 2432 3463 2432 2125 
C 2432 788 2150 103 1600 103 
C 1050 103 768 788 768 2119 
C 768 3476 1056 4186 1606 4186 
z
" transform="scale(0.015625)"/>
       </defs>
       <use xlink:href="#NimbusRomNo9L-Regu-30" transform="scale(0.996264)"/>
      </g>
     </g>
    </g>
    <g id="xtick_2">
     <g id="line2d_3">
      <g>
       <use xlink:href="#m1c61ebbb01" x="135.01439" y="269.712" style="stroke: #000000; stroke-width: 0.5"/>
      </g>
     </g>
     <g id="line2d_4">
      <g>
       <use xlink:href="#m7b9165cf15" x="135.01439" y="3.6" style="stroke: #000000; stroke-width: 0.5"/>
      </g>
     </g>
     <g id="text_2">
      <!-- $\mathdefault{100}$ -->
      <g transform="translate(129.036806 278.615656) scale(0.08 -0.08)">
       <defs>
        <path id="NimbusRomNo9L-Regu-31" d="M 1862 4339 
L 710 3757 
L 710 3667 
C 787 3699 858 3725 883 3738 
C 998 3783 1107 3808 1171 3808 
C 1306 3808 1363 3711 1363 3505 
L 1363 592 
C 1363 379 1312 232 1210 173 
C 1114 116 1024 96 755 96 
L 755 0 
L 2522 0 
L 2522 96 
C 2016 96 1914 160 1914 470 
L 1914 4327 
L 1862 4339 
z
" transform="scale(0.015625)"/>
       </defs>
       <use xlink:href="#NimbusRomNo9L-Regu-31" transform="scale(0.996264)"/>
       <use xlink:href="#NimbusRomNo9L-Regu-30" transform="translate(49.8132 0) scale(0.996264)"/>
       <use xlink:href="#NimbusRomNo9L-Regu-30" transform="translate(99.626401 0) scale(0.996264)"/>
      </g>
     </g>
    </g>
    <g id="xtick_3">
     <g id="line2d_5">
      <g>
       <use xlink:href="#m1c61ebbb01" x="212.497575" y="269.712" style="stroke: #000000; stroke-width: 0.5"/>
      </g>
     </g>
     <g id="line2d_6">
      <g>
       <use xlink:href="#m7b9165cf15" x="212.497575" y="3.6" style="stroke: #000000; stroke-width: 0.5"/>
      </g>
     </g>
     <g id="text_3">
      <!-- $\mathdefault{200}$ -->
      <g transform="translate(206.519991 278.615656) scale(0.08 -0.08)">
       <defs>
        <path id="NimbusRomNo9L-Regu-32" d="M 3040 875 
L 2957 907 
C 2720 544 2637 486 2349 486 
L 819 486 
L 1894 1609 
C 2464 2202 2714 2687 2714 3185 
C 2714 3823 2195 4313 1530 4313 
C 1178 4313 845 4173 608 3918 
C 403 3700 307 3496 198 3043 
L 333 3011 
C 589 3636 819 3840 1261 3840 
C 1798 3840 2163 3476 2163 2940 
C 2163 2443 1869 1850 1331 1282 
L 192 77 
L 192 0 
L 2688 0 
L 3040 875 
z
" transform="scale(0.015625)"/>
       </defs>
       <use xlink:href="#NimbusRomNo9L-Regu-32" transform="scale(0.996264)"/>
       <use xlink:href="#NimbusRomNo9L-Regu-30" transform="translate(49.8132 0) scale(0.996264)"/>
       <use xlink:href="#NimbusRomNo9L-Regu-30" transform="translate(99.626401 0) scale(0.996264)"/>
      </g>
     </g>
    </g>
    <g id="xtick_4">
     <g id="line2d_7">
      <g>
       <use xlink:href="#m1c61ebbb01" x="289.98076" y="269.712" style="stroke: #000000; stroke-width: 0.5"/>
      </g>
     </g>
     <g id="line2d_8">
      <g>
       <use xlink:href="#m7b9165cf15" x="289.98076" y="3.6" style="stroke: #000000; stroke-width: 0.5"/>
      </g>
     </g>
     <g id="text_4">
      <!-- $\mathdefault{300}$ -->
      <g transform="translate(284.003176 278.615656) scale(0.08 -0.08)">
       <defs>
        <path id="NimbusRomNo9L-Regu-33" d="M 979 2138 
C 1357 2138 1504 2125 1658 2068 
C 2054 1927 2304 1562 2304 1120 
C 2304 583 1939 167 1466 167 
C 1293 167 1165 212 928 365 
C 736 480 627 525 518 525 
C 371 525 275 436 275 301 
C 275 77 550 -64 998 -64 
C 1491 -64 1997 103 2298 365 
C 2598 628 2765 999 2765 1428 
C 2765 1754 2662 2055 2477 2253 
C 2349 2394 2227 2471 1946 2592 
C 2387 2893 2547 3130 2547 3476 
C 2547 3994 2138 4352 1549 4352 
C 1229 4352 947 4244 717 4039 
C 525 3866 429 3699 288 3315 
L 384 3290 
C 646 3757 934 3968 1338 3968 
C 1754 3968 2042 3687 2042 3284 
C 2042 3053 1946 2823 1786 2663 
C 1594 2471 1414 2375 979 2221 
L 979 2138 
z
" transform="scale(0.015625)"/>
       </defs>
       <use xlink:href="#NimbusRomNo9L-Regu-33" transform="scale(0.996264)"/>
       <use xlink:href="#NimbusRomNo9L-Regu-30" transform="translate(49.8132 0) scale(0.996264)"/>
       <use xlink:href="#NimbusRomNo9L-Regu-30" transform="translate(99.626401 0) scale(0.996264)"/>
      </g>
     </g>
    </g>
    <g id="xtick_5">
     <g id="line2d_9">
      <g>
       <use xlink:href="#m1c61ebbb01" x="367.463945" y="269.712" style="stroke: #000000; stroke-width: 0.5"/>
      </g>
     </g>
     <g id="line2d_10">
      <g>
       <use xlink:href="#m7b9165cf15" x="367.463945" y="3.6" style="stroke: #000000; stroke-width: 0.5"/>
      </g>
     </g>
     <g id="text_5">
      <!-- $\mathdefault{400}$ -->
      <g transform="translate(361.486361 278.615656) scale(0.08 -0.08)">
       <defs>
        <path id="NimbusRomNo9L-Regu-34" d="M 3021 1497 
L 2368 1497 
L 2368 4352 
L 2086 4352 
L 77 1497 
L 77 1088 
L 1875 1088 
L 1875 32 
L 2368 32 
L 2368 1088 
L 3021 1088 
L 3021 1497 
z
M 1869 1497 
L 333 1497 
L 1869 3698 
L 1869 1497 
z
" transform="scale(0.015625)"/>
       </defs>
       <use xlink:href="#NimbusRomNo9L-Regu-34" transform="scale(0.996264)"/>
       <use xlink:href="#NimbusRomNo9L-Regu-30" transform="translate(49.8132 0) scale(0.996264)"/>
       <use xlink:href="#NimbusRomNo9L-Regu-30" transform="translate(99.626401 0) scale(0.996264)"/>
      </g>
     </g>
    </g>
    <g id="xtick_6">
     <g id="line2d_11">
      <defs>
       <path id="m5c8aeb24f5" d="M 0 0 
L 0 -1.5 
" style="stroke: #000000; stroke-width: 0.5"/>
      </defs>
      <g>
       <use xlink:href="#m5c8aeb24f5" x="42.034568" y="269.712" style="stroke: #000000; stroke-width: 0.5"/>
      </g>
     </g>
     <g id="line2d_12">
      <defs>
       <path id="m561e86ad30" d="M 0 0 
L 0 1.5 
" style="stroke: #000000; stroke-width: 0.5"/>
      </defs>
      <g>
       <use xlink:href="#m561e86ad30" x="42.034568" y="3.6" style="stroke: #000000; stroke-width: 0.5"/>
      </g>
     </g>
    </g>
    <g id="xtick_7">
     <g id="line2d_13">
      <g>
       <use xlink:href="#m5c8aeb24f5" x="73.027842" y="269.712" style="stroke: #000000; stroke-width: 0.5"/>
      </g>
     </g>
     <g id="line2d_14">
      <g>
       <use xlink:href="#m561e86ad30" x="73.027842" y="3.6" style="stroke: #000000; stroke-width: 0.5"/>
      </g>
     </g>
    </g>
    <g id="xtick_8">
     <g id="line2d_15">
      <g>
       <use xlink:href="#m5c8aeb24f5" x="88.524479" y="269.712" style="stroke: #000000; stroke-width: 0.5"/>
      </g>
     </g>
     <g id="line2d_16">
      <g>
       <use xlink:href="#m561e86ad30" x="88.524479" y="3.6" style="stroke: #000000; stroke-width: 0.5"/>
      </g>
     </g>
    </g>
    <g id="xtick_9">
     <g id="line2d_17">
      <g>
       <use xlink:href="#m5c8aeb24f5" x="104.021116" y="269.712" style="stroke: #000000; stroke-width: 0.5"/>
      </g>
     </g>
     <g id="line2d_18">
      <g>
       <use xlink:href="#m561e86ad30" x="104.021116" y="3.6" style="stroke: #000000; stroke-width: 0.5"/>
      </g>
     </g>
    </g>
    <g id="xtick_10">
     <g id="line2d_19">
      <g>
       <use xlink:href="#m5c8aeb24f5" x="119.517753" y="269.712" style="stroke: #000000; stroke-width: 0.5"/>
      </g>
     </g>
     <g id="line2d_20">
      <g>
       <use xlink:href="#m561e86ad30" x="119.517753" y="3.6" style="stroke: #000000; stroke-width: 0.5"/>
      </g>
     </g>
    </g>
    <g id="xtick_11">
     <g id="line2d_21">
      <g>
       <use xlink:href="#m5c8aeb24f5" x="150.511027" y="269.712" style="stroke: #000000; stroke-width: 0.5"/>
      </g>
     </g>
     <g id="line2d_22">
      <g>
       <use xlink:href="#m561e86ad30" x="150.511027" y="3.6" style="stroke: #000000; stroke-width: 0.5"/>
      </g>
     </g>
    </g>
    <g id="xtick_12">
     <g id="line2d_23">
      <g>
       <use xlink:href="#m5c8aeb24f5" x="166.007664" y="269.712" style="stroke: #000000; stroke-width: 0.5"/>
      </g>
     </g>
     <g id="line2d_24">
      <g>
       <use xlink:href="#m561e86ad30" x="166.007664" y="3.6" style="stroke: #000000; stroke-width: 0.5"/>
      </g>
     </g>
    </g>
    <g id="xtick_13">
     <g id="line2d_25">
      <g>
       <use xlink:href="#m5c8aeb24f5" x="181.504301" y="269.712" style="stroke: #000000; stroke-width: 0.5"/>
      </g>
     </g>
     <g id="line2d_26">
      <g>
       <use xlink:href="#m561e86ad30" x="181.504301" y="3.6" style="stroke: #000000; stroke-width: 0.5"/>
      </g>
     </g>
    </g>
    <g id="xtick_14">
     <g id="line2d_27">
      <g>
       <use xlink:href="#m5c8aeb24f5" x="197.000938" y="269.712" style="stroke: #000000; stroke-width: 0.5"/>
      </g>
     </g>
     <g id="line2d_28">
      <g>
       <use xlink:href="#m561e86ad30" x="197.000938" y="3.6" style="stroke: #000000; stroke-width: 0.5"/>
      </g>
     </g>
    </g>
    <g id="xtick_15">
     <g id="line2d_29">
      <g>
       <use xlink:href="#m5c8aeb24f5" x="227.994212" y="269.712" style="stroke: #000000; stroke-width: 0.5"/>
      </g>
     </g>
     <g id="line2d_30">
      <g>
       <use xlink:href="#m561e86ad30" x="227.994212" y="3.6" style="stroke: #000000; stroke-width: 0.5"/>
      </g>
     </g>
    </g>
    <g id="xtick_16">
     <g id="line2d_31">
      <g>
       <use xlink:href="#m5c8aeb24f5" x="243.490849" y="269.712" style="stroke: #000000; stroke-width: 0.5"/>
      </g>
     </g>
     <g id="line2d_32">
      <g>
       <use xlink:href="#m561e86ad30" x="243.490849" y="3.6" style="stroke: #000000; stroke-width: 0.5"/>
      </g>
     </g>
    </g>
    <g id="xtick_17">
     <g id="line2d_33">
      <g>
       <use xlink:href="#m5c8aeb24f5" x="258.987486" y="269.712" style="stroke: #000000; stroke-width: 0.5"/>
      </g>
     </g>
     <g id="line2d_34">
      <g>
       <use xlink:href="#m561e86ad30" x="258.987486" y="3.6" style="stroke: #000000; stroke-width: 0.5"/>
      </g>
     </g>
    </g>
    <g id="xtick_18">
     <g id="line2d_35">
      <g>
       <use xlink:href="#m5c8aeb24f5" x="274.484123" y="269.712" style="stroke: #000000; stroke-width: 0.5"/>
      </g>
     </g>
     <g id="line2d_36">
      <g>
       <use xlink:href="#m561e86ad30" x="274.484123" y="3.6" style="stroke: #000000; stroke-width: 0.5"/>
      </g>
     </g>
    </g>
    <g id="xtick_19">
     <g id="line2d_37">
      <g>
       <use xlink:href="#m5c8aeb24f5" x="305.477397" y="269.712" style="stroke: #000000; stroke-width: 0.5"/>
      </g>
     </g>
     <g id="line2d_38">
      <g>
       <use xlink:href="#m561e86ad30" x="305.477397" y="3.6" style="stroke: #000000; stroke-width: 0.5"/>
      </g>
     </g>
    </g>
    <g id="xtick_20">
     <g id="line2d_39">
      <g>
       <use xlink:href="#m5c8aeb24f5" x="320.974034" y="269.712" style="stroke: #000000; stroke-width: 0.5"/>
      </g>
     </g>
     <g id="line2d_40">
      <g>
       <use xlink:href="#m561e86ad30" x="320.974034" y="3.6" style="stroke: #000000; stroke-width: 0.5"/>
      </g>
     </g>
    </g>
    <g id="xtick_21">
     <g id="line2d_41">
      <g>
       <use xlink:href="#m5c8aeb24f5" x="336.470671" y="269.712" style="stroke: #000000; stroke-width: 0.5"/>
      </g>
     </g>
     <g id="line2d_42">
      <g>
       <use xlink:href="#m561e86ad30" x="336.470671" y="3.6" style="stroke: #000000; stroke-width: 0.5"/>
      </g>
     </g>
    </g>
    <g id="xtick_22">
     <g id="line2d_43">
      <g>
       <use xlink:href="#m5c8aeb24f5" x="351.967308" y="269.712" style="stroke: #000000; stroke-width: 0.5"/>
      </g>
     </g>
     <g id="line2d_44">
      <g>
       <use xlink:href="#m561e86ad30" x="351.967308" y="3.6" style="stroke: #000000; stroke-width: 0.5"/>
      </g>
     </g>
    </g>
    <g id="xtick_23">
     <g id="line2d_45">
      <g>
       <use xlink:href="#m5c8aeb24f5" x="382.960582" y="269.712" style="stroke: #000000; stroke-width: 0.5"/>
      </g>
     </g>
     <g id="line2d_46">
      <g>
       <use xlink:href="#m561e86ad30" x="382.960582" y="3.6" style="stroke: #000000; stroke-width: 0.5"/>
      </g>
     </g>
    </g>
    <g id="text_6">
     <!-- days -->
     <g transform="translate(205.249382 295.148446) scale(0.16 -0.16)">
      <defs>
       <path id="NimbusRomNo9L-Regu-64" d="M 2202 -64 
L 3142 269 
L 3142 365 
C 3027 365 3014 365 2995 365 
C 2765 365 2714 435 2714 731 
L 2714 4364 
L 2682 4377 
C 2374 4268 2150 4204 1741 4096 
L 1741 3994 
C 1792 4000 1830 4000 1882 4000 
C 2118 4000 2176 3936 2176 3672 
L 2176 2669 
C 1933 2874 1760 2944 1504 2944 
C 768 2944 173 2221 173 1312 
C 173 493 653 -64 1357 -64 
C 1715 -64 1958 64 2176 365 
L 2176 -45 
L 2202 -64 
z
M 2176 653 
C 2176 608 2131 531 2067 461 
C 1952 333 1792 269 1606 269 
C 1075 269 723 781 723 1568 
C 723 2291 1037 2765 1523 2765 
C 1862 2765 2176 2464 2176 2125 
L 2176 653 
z
" transform="scale(0.015625)"/>
       <path id="NimbusRomNo9L-Regu-61" d="M 2829 423 
C 2720 333 2643 301 2547 301 
C 2400 301 2355 390 2355 672 
L 2355 1920 
C 2355 2253 2323 2438 2227 2592 
C 2086 2822 1811 2944 1434 2944 
C 832 2944 358 2630 358 2227 
C 358 2080 486 1952 634 1952 
C 787 1952 922 2080 922 2221 
C 922 2246 915 2278 909 2323 
C 896 2381 890 2432 890 2477 
C 890 2650 1094 2790 1350 2790 
C 1664 2790 1837 2605 1837 2259 
L 1837 1869 
C 851 1472 742 1421 467 1178 
C 326 1050 237 832 237 621 
C 237 218 518 -64 909 -64 
C 1190 -64 1453 70 1843 403 
C 1875 70 1990 -64 2253 -64 
C 2470 -64 2605 13 2829 256 
L 2829 423 
z
M 1837 783 
C 1837 584 1805 526 1670 449 
C 1517 359 1338 301 1203 301 
C 979 301 800 520 800 796 
L 800 822 
C 800 1201 1062 1433 1837 1715 
L 1837 783 
z
" transform="scale(0.015625)"/>
       <path id="NimbusRomNo9L-Regu-79" d="M 3040 2880 
L 2176 2880 
L 2176 2784 
C 2381 2784 2483 2726 2483 2623 
C 2483 2597 2477 2559 2458 2514 
L 1837 742 
L 1101 2377 
C 1062 2468 1037 2552 1037 2622 
C 1037 2739 1133 2784 1408 2784 
L 1408 2880 
L 90 2880 
L 90 2790 
C 256 2765 365 2694 416 2585 
L 1146 1005 
L 1165 953 
L 1261 761 
C 1440 440 1542 209 1542 112 
C 1542 16 1395 -389 1286 -582 
C 1197 -749 1056 -871 966 -871 
C 928 -871 870 -858 806 -826 
C 685 -781 576 -755 467 -755 
C 320 -755 192 -883 192 -1037 
C 192 -1248 397 -1408 666 -1408 
C 1094 -1408 1402 -1049 1747 -124 
L 2733 2495 
C 2816 2701 2886 2765 3040 2784 
L 3040 2880 
z
" transform="scale(0.015625)"/>
       <path id="NimbusRomNo9L-Regu-73" d="M 2016 2010 
L 1990 2880 
L 1920 2880 
L 1907 2867 
C 1850 2822 1843 2816 1818 2816 
C 1779 2816 1715 2829 1645 2861 
C 1504 2915 1363 2944 1197 2944 
C 691 2944 326 2616 326 2154 
C 326 1796 531 1539 1075 1231 
L 1446 1020 
C 1670 892 1779 737 1779 539 
C 1779 256 1574 77 1248 77 
C 1030 77 832 159 710 298 
C 576 455 518 600 435 960 
L 333 960 
L 333 -39 
L 416 -39 
C 461 33 486 48 563 48 
C 621 48 710 35 858 -2 
C 1037 -39 1210 -64 1325 -64 
C 1818 -64 2227 308 2227 757 
C 2227 1077 2074 1289 1690 1520 
L 998 1930 
C 819 2033 723 2194 723 2367 
C 723 2624 922 2803 1216 2803 
C 1581 2803 1773 2583 1920 2010 
L 2016 2010 
z
" transform="scale(0.015625)"/>
      </defs>
      <use xlink:href="#NimbusRomNo9L-Regu-64" transform="scale(0.996264)"/>
      <use xlink:href="#NimbusRomNo9L-Regu-61" transform="translate(49.8132 0) scale(0.996264)"/>
      <use xlink:href="#NimbusRomNo9L-Regu-79" transform="translate(94.046769 0) scale(0.996264)"/>
      <use xlink:href="#NimbusRomNo9L-Regu-73" transform="translate(143.85997 0) scale(0.996264)"/>
     </g>
    </g>
   </g>
   <g id="matplotlib.axis_2">
    <g id="ytick_1">
     <g id="line2d_47">
      <defs>
       <path id="m593a6cecce" d="M 0 0 
L 3 0 
" style="stroke: #000000; stroke-width: 0.5"/>
      </defs>
      <g>
       <use xlink:href="#m593a6cecce" x="41.298478" y="256.756248" style="stroke: #000000; stroke-width: 0.5"/>
      </g>
     </g>
     <g id="line2d_48">
      <defs>
       <path id="m984cac72ec" d="M 0 0 
L -3 0 
" style="stroke: #000000; stroke-width: 0.5"/>
      </defs>
      <g>
       <use xlink:href="#m984cac72ec" x="398.418478" y="256.756248" style="stroke: #000000; stroke-width: 0.5"/>
      </g>
     </g>
     <g id="text_7">
      <!-- $\mathdefault{0}$ -->
      <g transform="translate(33.813421 259.458076) scale(0.08 -0.08)">
       <use xlink:href="#NimbusRomNo9L-Regu-30" transform="scale(0.996264)"/>
      </g>
     </g>
    </g>
    <g id="ytick_2">
     <g id="line2d_49">
      <g>
       <use xlink:href="#m593a6cecce" x="41.298478" y="221.906874" style="stroke: #000000; stroke-width: 0.5"/>
      </g>
     </g>
     <g id="line2d_50">
      <g>
       <use xlink:href="#m984cac72ec" x="398.418478" y="221.906874" style="stroke: #000000; stroke-width: 0.5"/>
      </g>
     </g>
     <g id="text_8">
      <!-- $\mathdefault{1000}$ -->
      <g transform="translate(21.858253 224.608702) scale(0.08 -0.08)">
       <use xlink:href="#NimbusRomNo9L-Regu-31" transform="scale(0.996264)"/>
       <use xlink:href="#NimbusRomNo9L-Regu-30" transform="translate(49.8132 0) scale(0.996264)"/>
       <use xlink:href="#NimbusRomNo9L-Regu-30" transform="translate(99.626401 0) scale(0.996264)"/>
       <use xlink:href="#NimbusRomNo9L-Regu-30" transform="translate(149.439601 0) scale(0.996264)"/>
      </g>
     </g>
    </g>
    <g id="ytick_3">
     <g id="line2d_51">
      <g>
       <use xlink:href="#m593a6cecce" x="41.298478" y="187.057501" style="stroke: #000000; stroke-width: 0.5"/>
      </g>
     </g>
     <g id="line2d_52">
      <g>
       <use xlink:href="#m984cac72ec" x="398.418478" y="187.057501" style="stroke: #000000; stroke-width: 0.5"/>
      </g>
     </g>
     <g id="text_9">
      <!-- $\mathdefault{2000}$ -->
      <g transform="translate(21.858253 189.759329) scale(0.08 -0.08)">
       <use xlink:href="#NimbusRomNo9L-Regu-32" transform="scale(0.996264)"/>
       <use xlink:href="#NimbusRomNo9L-Regu-30" transform="translate(49.8132 0) scale(0.996264)"/>
       <use xlink:href="#NimbusRomNo9L-Regu-30" transform="translate(99.626401 0) scale(0.996264)"/>
       <use xlink:href="#NimbusRomNo9L-Regu-30" transform="translate(149.439601 0) scale(0.996264)"/>
      </g>
     </g>
    </g>
    <g id="ytick_4">
     <g id="line2d_53">
      <g>
       <use xlink:href="#m593a6cecce" x="41.298478" y="152.208127" style="stroke: #000000; stroke-width: 0.5"/>
      </g>
     </g>
     <g id="line2d_54">
      <g>
       <use xlink:href="#m984cac72ec" x="398.418478" y="152.208127" style="stroke: #000000; stroke-width: 0.5"/>
      </g>
     </g>
     <g id="text_10">
      <!-- $\mathdefault{3000}$ -->
      <g transform="translate(21.858253 154.909955) scale(0.08 -0.08)">
       <use xlink:href="#NimbusRomNo9L-Regu-33" transform="scale(0.996264)"/>
       <use xlink:href="#NimbusRomNo9L-Regu-30" transform="translate(49.8132 0) scale(0.996264)"/>
       <use xlink:href="#NimbusRomNo9L-Regu-30" transform="translate(99.626401 0) scale(0.996264)"/>
       <use xlink:href="#NimbusRomNo9L-Regu-30" transform="translate(149.439601 0) scale(0.996264)"/>
      </g>
     </g>
    </g>
    <g id="ytick_5">
     <g id="line2d_55">
      <g>
       <use xlink:href="#m593a6cecce" x="41.298478" y="117.358753" style="stroke: #000000; stroke-width: 0.5"/>
      </g>
     </g>
     <g id="line2d_56">
      <g>
       <use xlink:href="#m984cac72ec" x="398.418478" y="117.358753" style="stroke: #000000; stroke-width: 0.5"/>
      </g>
     </g>
     <g id="text_11">
      <!-- $\mathdefault{4000}$ -->
      <g transform="translate(21.858253 120.060581) scale(0.08 -0.08)">
       <use xlink:href="#NimbusRomNo9L-Regu-34" transform="scale(0.996264)"/>
       <use xlink:href="#NimbusRomNo9L-Regu-30" transform="translate(49.8132 0) scale(0.996264)"/>
       <use xlink:href="#NimbusRomNo9L-Regu-30" transform="translate(99.626401 0) scale(0.996264)"/>
       <use xlink:href="#NimbusRomNo9L-Regu-30" transform="translate(149.439601 0) scale(0.996264)"/>
      </g>
     </g>
    </g>
    <g id="ytick_6">
     <g id="line2d_57">
      <g>
       <use xlink:href="#m593a6cecce" x="41.298478" y="82.509379" style="stroke: #000000; stroke-width: 0.5"/>
      </g>
     </g>
     <g id="line2d_58">
      <g>
       <use xlink:href="#m984cac72ec" x="398.418478" y="82.509379" style="stroke: #000000; stroke-width: 0.5"/>
      </g>
     </g>
     <g id="text_12">
      <!-- $\mathdefault{5000}$ -->
      <g transform="translate(21.858253 85.211207) scale(0.08 -0.08)">
       <defs>
        <path id="NimbusRomNo9L-Regu-35" d="M 1158 3776 
L 2413 3776 
C 2515 3776 2541 3789 2560 3834 
L 2803 4403 
L 2746 4448 
C 2650 4314 2586 4282 2451 4282 
L 1114 4282 
L 416 2759 
C 410 2746 410 2740 410 2727 
C 410 2695 435 2676 486 2676 
C 691 2676 947 2631 1210 2547 
C 1946 2309 2285 1910 2285 1274 
C 2285 656 1894 173 1395 173 
C 1267 173 1158 218 966 360 
C 762 508 614 572 480 572 
C 294 572 205 495 205 334 
C 205 90 506 -64 986 -64 
C 1523 -64 1984 110 2304 438 
C 2598 728 2733 1094 2733 1583 
C 2733 2046 2611 2342 2291 2663 
C 2010 2947 1645 3094 890 3229 
L 1158 3776 
z
" transform="scale(0.015625)"/>
       </defs>
       <use xlink:href="#NimbusRomNo9L-Regu-35" transform="scale(0.996264)"/>
       <use xlink:href="#NimbusRomNo9L-Regu-30" transform="translate(49.8132 0) scale(0.996264)"/>
       <use xlink:href="#NimbusRomNo9L-Regu-30" transform="translate(99.626401 0) scale(0.996264)"/>
       <use xlink:href="#NimbusRomNo9L-Regu-30" transform="translate(149.439601 0) scale(0.996264)"/>
      </g>
     </g>
    </g>
    <g id="ytick_7">
     <g id="line2d_59">
      <g>
       <use xlink:href="#m593a6cecce" x="41.298478" y="47.660006" style="stroke: #000000; stroke-width: 0.5"/>
      </g>
     </g>
     <g id="line2d_60">
      <g>
       <use xlink:href="#m984cac72ec" x="398.418478" y="47.660006" style="stroke: #000000; stroke-width: 0.5"/>
      </g>
     </g>
     <g id="text_13">
      <!-- $\mathdefault{6000}$ -->
      <g transform="translate(21.858253 50.361834) scale(0.08 -0.08)">
       <defs>
        <path id="NimbusRomNo9L-Regu-36" d="M 2854 4391 
C 2125 4327 1754 4205 1286 3879 
C 595 3386 218 2656 218 1802 
C 218 1248 390 688 666 370 
C 909 89 1254 -64 1651 -64 
C 2445 -64 2995 541 2995 1421 
C 2995 2236 2528 2752 1792 2752 
C 1510 2752 1376 2707 973 2464 
C 1146 3431 1862 4122 2867 4288 
L 2854 4391 
z
M 1549 2458 
C 2099 2458 2419 2000 2419 1204 
C 2419 504 2170 116 1722 116 
C 1158 116 813 714 813 1700 
C 813 2025 864 2203 992 2299 
C 1126 2400 1325 2458 1549 2458 
z
" transform="scale(0.015625)"/>
       </defs>
       <use xlink:href="#NimbusRomNo9L-Regu-36" transform="scale(0.996264)"/>
       <use xlink:href="#NimbusRomNo9L-Regu-30" transform="translate(49.8132 0) scale(0.996264)"/>
       <use xlink:href="#NimbusRomNo9L-Regu-30" transform="translate(99.626401 0) scale(0.996264)"/>
       <use xlink:href="#NimbusRomNo9L-Regu-30" transform="translate(149.439601 0) scale(0.996264)"/>
      </g>
     </g>
    </g>
    <g id="ytick_8">
     <g id="line2d_61">
      <g>
       <use xlink:href="#m593a6cecce" x="41.298478" y="12.810632" style="stroke: #000000; stroke-width: 0.5"/>
      </g>
     </g>
     <g id="line2d_62">
      <g>
       <use xlink:href="#m984cac72ec" x="398.418478" y="12.810632" style="stroke: #000000; stroke-width: 0.5"/>
      </g>
     </g>
     <g id="text_14">
      <!-- $\mathdefault{7000}$ -->
      <g transform="translate(21.858253 15.51246) scale(0.08 -0.08)">
       <defs>
        <path id="NimbusRomNo9L-Regu-37" d="M 2874 4250 
L 506 4250 
L 128 3310 
L 237 3258 
C 512 3693 627 3776 979 3776 
L 2368 3776 
L 1101 -32 
L 1517 -32 
L 2874 4148 
L 2874 4250 
z
" transform="scale(0.015625)"/>
       </defs>
       <use xlink:href="#NimbusRomNo9L-Regu-37" transform="scale(0.996264)"/>
       <use xlink:href="#NimbusRomNo9L-Regu-30" transform="translate(49.8132 0) scale(0.996264)"/>
       <use xlink:href="#NimbusRomNo9L-Regu-30" transform="translate(99.626401 0) scale(0.996264)"/>
       <use xlink:href="#NimbusRomNo9L-Regu-30" transform="translate(149.439601 0) scale(0.996264)"/>
      </g>
     </g>
    </g>
    <g id="ytick_9">
     <g id="line2d_63">
      <defs>
       <path id="m988b2fbdbb" d="M 0 0 
L 1.5 0 
" style="stroke: #000000; stroke-width: 0.5"/>
      </defs>
      <g>
       <use xlink:href="#m988b2fbdbb" x="41.298478" y="263.726123" style="stroke: #000000; stroke-width: 0.5"/>
      </g>
     </g>
     <g id="line2d_64">
      <defs>
       <path id="m7608cd7cac" d="M 0 0 
L -1.5 0 
" style="stroke: #000000; stroke-width: 0.5"/>
      </defs>
      <g>
       <use xlink:href="#m7608cd7cac" x="398.418478" y="263.726123" style="stroke: #000000; stroke-width: 0.5"/>
      </g>
     </g>
    </g>
    <g id="ytick_10">
     <g id="line2d_65">
      <g>
       <use xlink:href="#m988b2fbdbb" x="41.298478" y="249.786373" style="stroke: #000000; stroke-width: 0.5"/>
      </g>
     </g>
     <g id="line2d_66">
      <g>
       <use xlink:href="#m7608cd7cac" x="398.418478" y="249.786373" style="stroke: #000000; stroke-width: 0.5"/>
      </g>
     </g>
    </g>
    <g id="ytick_11">
     <g id="line2d_67">
      <g>
       <use xlink:href="#m988b2fbdbb" x="41.298478" y="242.816499" style="stroke: #000000; stroke-width: 0.5"/>
      </g>
     </g>
     <g id="line2d_68">
      <g>
       <use xlink:href="#m7608cd7cac" x="398.418478" y="242.816499" style="stroke: #000000; stroke-width: 0.5"/>
      </g>
     </g>
    </g>
    <g id="ytick_12">
     <g id="line2d_69">
      <g>
       <use xlink:href="#m988b2fbdbb" x="41.298478" y="235.846624" style="stroke: #000000; stroke-width: 0.5"/>
      </g>
     </g>
     <g id="line2d_70">
      <g>
       <use xlink:href="#m7608cd7cac" x="398.418478" y="235.846624" style="stroke: #000000; stroke-width: 0.5"/>
      </g>
     </g>
    </g>
    <g id="ytick_13">
     <g id="line2d_71">
      <g>
       <use xlink:href="#m988b2fbdbb" x="41.298478" y="228.876749" style="stroke: #000000; stroke-width: 0.5"/>
      </g>
     </g>
     <g id="line2d_72">
      <g>
       <use xlink:href="#m7608cd7cac" x="398.418478" y="228.876749" style="stroke: #000000; stroke-width: 0.5"/>
      </g>
     </g>
    </g>
    <g id="ytick_14">
     <g id="line2d_73">
      <g>
       <use xlink:href="#m988b2fbdbb" x="41.298478" y="214.937" style="stroke: #000000; stroke-width: 0.5"/>
      </g>
     </g>
     <g id="line2d_74">
      <g>
       <use xlink:href="#m7608cd7cac" x="398.418478" y="214.937" style="stroke: #000000; stroke-width: 0.5"/>
      </g>
     </g>
    </g>
    <g id="ytick_15">
     <g id="line2d_75">
      <g>
       <use xlink:href="#m988b2fbdbb" x="41.298478" y="207.967125" style="stroke: #000000; stroke-width: 0.5"/>
      </g>
     </g>
     <g id="line2d_76">
      <g>
       <use xlink:href="#m7608cd7cac" x="398.418478" y="207.967125" style="stroke: #000000; stroke-width: 0.5"/>
      </g>
     </g>
    </g>
    <g id="ytick_16">
     <g id="line2d_77">
      <g>
       <use xlink:href="#m988b2fbdbb" x="41.298478" y="200.99725" style="stroke: #000000; stroke-width: 0.5"/>
      </g>
     </g>
     <g id="line2d_78">
      <g>
       <use xlink:href="#m7608cd7cac" x="398.418478" y="200.99725" style="stroke: #000000; stroke-width: 0.5"/>
      </g>
     </g>
    </g>
    <g id="ytick_17">
     <g id="line2d_79">
      <g>
       <use xlink:href="#m988b2fbdbb" x="41.298478" y="194.027375" style="stroke: #000000; stroke-width: 0.5"/>
      </g>
     </g>
     <g id="line2d_80">
      <g>
       <use xlink:href="#m7608cd7cac" x="398.418478" y="194.027375" style="stroke: #000000; stroke-width: 0.5"/>
      </g>
     </g>
    </g>
    <g id="ytick_18">
     <g id="line2d_81">
      <g>
       <use xlink:href="#m988b2fbdbb" x="41.298478" y="180.087626" style="stroke: #000000; stroke-width: 0.5"/>
      </g>
     </g>
     <g id="line2d_82">
      <g>
       <use xlink:href="#m7608cd7cac" x="398.418478" y="180.087626" style="stroke: #000000; stroke-width: 0.5"/>
      </g>
     </g>
    </g>
    <g id="ytick_19">
     <g id="line2d_83">
      <g>
       <use xlink:href="#m988b2fbdbb" x="41.298478" y="173.117751" style="stroke: #000000; stroke-width: 0.5"/>
      </g>
     </g>
     <g id="line2d_84">
      <g>
       <use xlink:href="#m7608cd7cac" x="398.418478" y="173.117751" style="stroke: #000000; stroke-width: 0.5"/>
      </g>
     </g>
    </g>
    <g id="ytick_20">
     <g id="line2d_85">
      <g>
       <use xlink:href="#m988b2fbdbb" x="41.298478" y="166.147876" style="stroke: #000000; stroke-width: 0.5"/>
      </g>
     </g>
     <g id="line2d_86">
      <g>
       <use xlink:href="#m7608cd7cac" x="398.418478" y="166.147876" style="stroke: #000000; stroke-width: 0.5"/>
      </g>
     </g>
    </g>
    <g id="ytick_21">
     <g id="line2d_87">
      <g>
       <use xlink:href="#m988b2fbdbb" x="41.298478" y="159.178002" style="stroke: #000000; stroke-width: 0.5"/>
      </g>
     </g>
     <g id="line2d_88">
      <g>
       <use xlink:href="#m7608cd7cac" x="398.418478" y="159.178002" style="stroke: #000000; stroke-width: 0.5"/>
      </g>
     </g>
    </g>
    <g id="ytick_22">
     <g id="line2d_89">
      <g>
       <use xlink:href="#m988b2fbdbb" x="41.298478" y="145.238252" style="stroke: #000000; stroke-width: 0.5"/>
      </g>
     </g>
     <g id="line2d_90">
      <g>
       <use xlink:href="#m7608cd7cac" x="398.418478" y="145.238252" style="stroke: #000000; stroke-width: 0.5"/>
      </g>
     </g>
    </g>
    <g id="ytick_23">
     <g id="line2d_91">
      <g>
       <use xlink:href="#m988b2fbdbb" x="41.298478" y="138.268377" style="stroke: #000000; stroke-width: 0.5"/>
      </g>
     </g>
     <g id="line2d_92">
      <g>
       <use xlink:href="#m7608cd7cac" x="398.418478" y="138.268377" style="stroke: #000000; stroke-width: 0.5"/>
      </g>
     </g>
    </g>
    <g id="ytick_24">
     <g id="line2d_93">
      <g>
       <use xlink:href="#m988b2fbdbb" x="41.298478" y="131.298503" style="stroke: #000000; stroke-width: 0.5"/>
      </g>
     </g>
     <g id="line2d_94">
      <g>
       <use xlink:href="#m7608cd7cac" x="398.418478" y="131.298503" style="stroke: #000000; stroke-width: 0.5"/>
      </g>
     </g>
    </g>
    <g id="ytick_25">
     <g id="line2d_95">
      <g>
       <use xlink:href="#m988b2fbdbb" x="41.298478" y="124.328628" style="stroke: #000000; stroke-width: 0.5"/>
      </g>
     </g>
     <g id="line2d_96">
      <g>
       <use xlink:href="#m7608cd7cac" x="398.418478" y="124.328628" style="stroke: #000000; stroke-width: 0.5"/>
      </g>
     </g>
    </g>
    <g id="ytick_26">
     <g id="line2d_97">
      <g>
       <use xlink:href="#m988b2fbdbb" x="41.298478" y="110.388878" style="stroke: #000000; stroke-width: 0.5"/>
      </g>
     </g>
     <g id="line2d_98">
      <g>
       <use xlink:href="#m7608cd7cac" x="398.418478" y="110.388878" style="stroke: #000000; stroke-width: 0.5"/>
      </g>
     </g>
    </g>
    <g id="ytick_27">
     <g id="line2d_99">
      <g>
       <use xlink:href="#m988b2fbdbb" x="41.298478" y="103.419004" style="stroke: #000000; stroke-width: 0.5"/>
      </g>
     </g>
     <g id="line2d_100">
      <g>
       <use xlink:href="#m7608cd7cac" x="398.418478" y="103.419004" style="stroke: #000000; stroke-width: 0.5"/>
      </g>
     </g>
    </g>
    <g id="ytick_28">
     <g id="line2d_101">
      <g>
       <use xlink:href="#m988b2fbdbb" x="41.298478" y="96.449129" style="stroke: #000000; stroke-width: 0.5"/>
      </g>
     </g>
     <g id="line2d_102">
      <g>
       <use xlink:href="#m7608cd7cac" x="398.418478" y="96.449129" style="stroke: #000000; stroke-width: 0.5"/>
      </g>
     </g>
    </g>
    <g id="ytick_29">
     <g id="line2d_103">
      <g>
       <use xlink:href="#m988b2fbdbb" x="41.298478" y="89.479254" style="stroke: #000000; stroke-width: 0.5"/>
      </g>
     </g>
     <g id="line2d_104">
      <g>
       <use xlink:href="#m7608cd7cac" x="398.418478" y="89.479254" style="stroke: #000000; stroke-width: 0.5"/>
      </g>
     </g>
    </g>
    <g id="ytick_30">
     <g id="line2d_105">
      <g>
       <use xlink:href="#m988b2fbdbb" x="41.298478" y="75.539505" style="stroke: #000000; stroke-width: 0.5"/>
      </g>
     </g>
     <g id="line2d_106">
      <g>
       <use xlink:href="#m7608cd7cac" x="398.418478" y="75.539505" style="stroke: #000000; stroke-width: 0.5"/>
      </g>
     </g>
    </g>
    <g id="ytick_31">
     <g id="line2d_107">
      <g>
       <use xlink:href="#m988b2fbdbb" x="41.298478" y="68.56963" style="stroke: #000000; stroke-width: 0.5"/>
      </g>
     </g>
     <g id="line2d_108">
      <g>
       <use xlink:href="#m7608cd7cac" x="398.418478" y="68.56963" style="stroke: #000000; stroke-width: 0.5"/>
      </g>
     </g>
    </g>
    <g id="ytick_32">
     <g id="line2d_109">
      <g>
       <use xlink:href="#m988b2fbdbb" x="41.298478" y="61.599755" style="stroke: #000000; stroke-width: 0.5"/>
      </g>
     </g>
     <g id="line2d_110">
      <g>
       <use xlink:href="#m7608cd7cac" x="398.418478" y="61.599755" style="stroke: #000000; stroke-width: 0.5"/>
      </g>
     </g>
    </g>
    <g id="ytick_33">
     <g id="line2d_111">
      <g>
       <use xlink:href="#m988b2fbdbb" x="41.298478" y="54.62988" style="stroke: #000000; stroke-width: 0.5"/>
      </g>
     </g>
     <g id="line2d_112">
      <g>
       <use xlink:href="#m7608cd7cac" x="398.418478" y="54.62988" style="stroke: #000000; stroke-width: 0.5"/>
      </g>
     </g>
    </g>
    <g id="ytick_34">
     <g id="line2d_113">
      <g>
       <use xlink:href="#m988b2fbdbb" x="41.298478" y="40.690131" style="stroke: #000000; stroke-width: 0.5"/>
      </g>
     </g>
     <g id="line2d_114">
      <g>
       <use xlink:href="#m7608cd7cac" x="398.418478" y="40.690131" style="stroke: #000000; stroke-width: 0.5"/>
      </g>
     </g>
    </g>
    <g id="ytick_35">
     <g id="line2d_115">
      <g>
       <use xlink:href="#m988b2fbdbb" x="41.298478" y="33.720256" style="stroke: #000000; stroke-width: 0.5"/>
      </g>
     </g>
     <g id="line2d_116">
      <g>
       <use xlink:href="#m7608cd7cac" x="398.418478" y="33.720256" style="stroke: #000000; stroke-width: 0.5"/>
      </g>
     </g>
    </g>
    <g id="ytick_36">
     <g id="line2d_117">
      <g>
       <use xlink:href="#m988b2fbdbb" x="41.298478" y="26.750381" style="stroke: #000000; stroke-width: 0.5"/>
      </g>
     </g>
     <g id="line2d_118">
      <g>
       <use xlink:href="#m7608cd7cac" x="398.418478" y="26.750381" style="stroke: #000000; stroke-width: 0.5"/>
      </g>
     </g>
    </g>
    <g id="ytick_37">
     <g id="line2d_119">
      <g>
       <use xlink:href="#m988b2fbdbb" x="41.298478" y="19.780507" style="stroke: #000000; stroke-width: 0.5"/>
      </g>
     </g>
     <g id="line2d_120">
      <g>
       <use xlink:href="#m7608cd7cac" x="398.418478" y="19.780507" style="stroke: #000000; stroke-width: 0.5"/>
      </g>
     </g>
    </g>
    <g id="ytick_38">
     <g id="line2d_121">
      <g>
       <use xlink:href="#m988b2fbdbb" x="41.298478" y="5.840757" style="stroke: #000000; stroke-width: 0.5"/>
      </g>
     </g>
     <g id="line2d_122">
      <g>
       <use xlink:href="#m7608cd7cac" x="398.418478" y="5.840757" style="stroke: #000000; stroke-width: 0.5"/>
      </g>
     </g>
    </g>
    <g id="text_15">
     <!-- spatial rainfall -->
     <g transform="translate(14.407327 182.395716) rotate(-90) scale(0.16 -0.16)">
      <defs>
       <path id="NimbusRomNo9L-Regu-70" d="M 58 2516 
C 115 2522 160 2522 218 2522 
C 435 2522 480 2458 480 2155 
L 480 -855 
C 480 -1189 410 -1261 32 -1299 
L 32 -1408 
L 1581 -1408 
L 1581 -1293 
C 1101 -1293 1018 -1222 1018 -816 
L 1018 199 
C 1242 -13 1395 -77 1664 -77 
C 2419 -77 3008 643 3008 1575 
C 3008 2372 2560 2944 1939 2944 
C 1581 2944 1299 2784 1018 2438 
L 1018 2931 
L 979 2944 
C 634 2810 410 2726 58 2618 
L 58 2516 
z
M 1018 2136 
C 1018 2329 1376 2560 1670 2560 
C 2144 2560 2458 2071 2458 1324 
C 2458 611 2144 128 1683 128 
C 1382 128 1018 359 1018 552 
L 1018 2136 
z
" transform="scale(0.015625)"/>
       <path id="NimbusRomNo9L-Regu-74" d="M 1632 2880 
L 986 2880 
L 986 3622 
C 986 3686 979 3706 941 3706 
C 896 3648 858 3590 813 3526 
C 570 3174 294 2867 192 2841 
C 122 2794 83 2748 83 2715 
C 83 2695 90 2682 109 2682 
L 448 2682 
L 448 751 
C 448 212 640 -64 1018 -64 
C 1331 -64 1574 90 1786 423 
L 1702 493 
C 1568 333 1459 269 1318 269 
C 1082 269 986 443 986 847 
L 986 2682 
L 1632 2682 
L 1632 2880 
z
" transform="scale(0.015625)"/>
       <path id="NimbusRomNo9L-Regu-69" d="M 1120 2929 
L 128 2579 
L 128 2484 
L 179 2490 
C 256 2502 339 2509 397 2509 
C 550 2509 608 2406 608 2125 
L 608 640 
C 608 179 544 109 102 109 
L 102 0 
L 1619 0 
L 1619 96 
C 1197 128 1146 191 1146 650 
L 1146 2910 
L 1120 2929 
z
M 819 4352 
C 646 4352 499 4205 499 4026 
C 499 3847 640 3699 819 3699 
C 1005 3699 1152 3840 1152 4026 
C 1152 4205 1005 4352 819 4352 
z
" transform="scale(0.015625)"/>
       <path id="NimbusRomNo9L-Regu-6c" d="M 122 4000 
L 160 4000 
C 230 4000 307 4000 358 4000 
C 563 4000 627 3910 627 3610 
L 627 557 
C 627 211 538 128 134 96 
L 134 0 
L 1645 0 
L 1645 109 
C 1242 109 1165 173 1165 528 
L 1165 4371 
L 1139 4384 
C 806 4275 563 4211 122 4103 
L 122 4000 
z
" transform="scale(0.015625)"/>
       <path id="NimbusRomNo9L-Regu-72" d="M 45 2496 
C 134 2515 192 2522 269 2522 
C 429 2522 486 2419 486 2138 
L 486 538 
C 486 218 442 173 32 96 
L 32 0 
L 1568 0 
L 1568 102 
C 1133 102 1024 199 1024 565 
L 1024 2013 
C 1024 2219 1299 2541 1472 2541 
C 1510 2541 1568 2509 1638 2445 
C 1741 2355 1811 2317 1894 2317 
C 2048 2317 2144 2426 2144 2605 
C 2144 2816 2010 2944 1792 2944 
C 1523 2944 1338 2797 1024 2343 
L 1024 2931 
L 992 2944 
C 653 2803 422 2721 45 2599 
L 45 2496 
z
" transform="scale(0.015625)"/>
       <path id="NimbusRomNo9L-Regu-6e" d="M 102 2579 
C 141 2598 205 2605 275 2605 
C 454 2605 512 2509 512 2195 
L 512 608 
C 512 243 442 154 115 128 
L 115 32 
L 1472 32 
L 1472 128 
C 1146 154 1050 230 1050 461 
L 1050 2259 
C 1357 2547 1498 2624 1709 2624 
C 2022 2624 2176 2426 2176 2003 
L 2176 666 
C 2176 262 2093 154 1773 128 
L 1773 32 
L 3104 32 
L 3104 128 
C 2790 160 2714 237 2714 550 
L 2714 2016 
C 2714 2618 2432 2976 1958 2976 
C 1664 2976 1466 2867 1030 2458 
L 1030 2963 
L 986 2976 
C 672 2861 454 2790 102 2688 
L 102 2579 
z
" transform="scale(0.015625)"/>
       <path id="NimbusRomNo9L-Regu-66" d="M 1978 2880 
L 1190 2880 
L 1190 3611 
C 1190 3978 1312 4173 1555 4173 
C 1690 4173 1779 4110 1894 3927 
C 1997 3763 2074 3700 2182 3700 
C 2330 3700 2451 3814 2451 3959 
C 2451 4188 2170 4352 1786 4352 
C 1389 4352 1050 4181 883 3891 
C 717 3613 666 3385 659 2880 
L 134 2880 
L 134 2675 
L 659 2675 
L 659 656 
C 659 185 589 109 128 109 
L 128 0 
L 1792 0 
L 1792 109 
C 1267 109 1197 180 1197 661 
L 1197 2675 
L 1978 2675 
L 1978 2880 
z
" transform="scale(0.015625)"/>
      </defs>
      <use xlink:href="#NimbusRomNo9L-Regu-73" transform="scale(0.996264)"/>
      <use xlink:href="#NimbusRomNo9L-Regu-70" transform="translate(38.753706 0) scale(0.996264)"/>
      <use xlink:href="#NimbusRomNo9L-Regu-61" transform="translate(88.566907 0) scale(0.996264)"/>
      <use xlink:href="#NimbusRomNo9L-Regu-74" transform="translate(132.800475 0) scale(0.996264)"/>
      <use xlink:href="#NimbusRomNo9L-Regu-69" transform="translate(160.495645 0) scale(0.996264)"/>
      <use xlink:href="#NimbusRomNo9L-Regu-61" transform="translate(188.190815 0) scale(0.996264)"/>
      <use xlink:href="#NimbusRomNo9L-Regu-6c" transform="translate(232.424383 0) scale(0.996264)"/>
      <use xlink:href="#NimbusRomNo9L-Regu-72" transform="translate(285.026153 0) scale(0.996264)"/>
      <use xlink:href="#NimbusRomNo9L-Regu-61" transform="translate(318.201383 0) scale(0.996264)"/>
      <use xlink:href="#NimbusRomNo9L-Regu-69" transform="translate(362.434952 0) scale(0.996264)"/>
      <use xlink:href="#NimbusRomNo9L-Regu-6e" transform="translate(390.130121 0) scale(0.996264)"/>
      <use xlink:href="#NimbusRomNo9L-Regu-66" transform="translate(439.943322 0) scale(0.996264)"/>
      <use xlink:href="#NimbusRomNo9L-Regu-61" transform="translate(472.122455 0) scale(0.996264)"/>
      <use xlink:href="#NimbusRomNo9L-Regu-6c" transform="translate(516.356023 0) scale(0.996264)"/>
      <use xlink:href="#NimbusRomNo9L-Regu-6c" transform="translate(544.051193 0) scale(0.996264)"/>
     </g>
    </g>
   </g>
   <g id="line2d_123">
    <path d="M 57.531205 254.099271 
L 58.306037 252.657235 
L 59.080868 252.441532 
L 59.8557 253.626592 
L 60.630532 253.448952 
L 61.405364 254.70009 
L 62.180196 253.999641 
L 62.955028 253.647672 
L 63.72986 254.38997 
L 65.279523 253.947387 
L 66.054355 251.675208 
L 66.829187 250.53912 
L 67.604019 251.870366 
L 68.378851 252.699781 
L 69.153683 252.898422 
L 69.928514 253.632001 
L 70.703346 253.519613 
L 71.478178 254.80512 
L 72.25301 255.433932 
L 73.027842 254.481564 
L 73.802674 255.024724 
L 74.577505 255.39214 
L 75.352337 255.026971 
L 76.127169 255.661603 
L 76.902001 255.933616 
L 77.676833 255.564306 
L 78.451665 254.707058 
L 79.226497 254.665262 
L 80.001328 255.553933 
L 80.77616 256.138816 
L 82.325824 256.473732 
L 83.100656 256.543549 
L 83.875488 255.883213 
L 84.65032 255.546075 
L 85.425151 255.597056 
L 86.199983 254.746085 
L 86.974815 255.249335 
L 87.749647 255.528841 
L 88.524479 255.656395 
L 89.299311 255.969347 
L 90.074143 254.839879 
L 90.848974 254.557426 
L 91.623806 255.15152 
L 92.398638 255.450312 
L 93.17347 256.016157 
L 93.948302 256.333927 
L 94.723134 256.423115 
L 95.497965 256.061713 
L 96.272797 255.258951 
L 97.047629 253.411321 
L 97.822461 254.97035 
L 100.146957 254.319641 
L 100.921788 255.173767 
L 101.69662 255.491057 
L 103.246284 255.731637 
L 104.021116 256.141311 
L 104.795948 255.589742 
L 105.57078 255.536995 
L 106.345611 255.097654 
L 107.120443 255.785463 
L 107.895275 255.225373 
L 108.670107 255.523829 
L 109.444939 254.136201 
L 110.219771 255.35213 
L 110.994602 252.395005 
L 112.544266 252.729877 
L 113.319098 253.011049 
L 114.09393 253.479218 
L 114.868762 253.481555 
L 115.643594 251.895335 
L 116.418425 253.285538 
L 117.193257 253.998063 
L 117.968089 255.330283 
L 118.742921 254.109126 
L 119.517753 254.453419 
L 120.292585 253.235077 
L 121.067417 251.702397 
L 121.842248 252.469429 
L 122.61708 252.880824 
L 123.391912 252.013161 
L 124.941576 252.076827 
L 125.716408 252.754222 
L 126.491239 252.036984 
L 127.266071 253.413863 
L 128.040903 253.70502 
L 129.590567 253.932101 
L 130.365399 254.927725 
L 131.140231 254.106487 
L 131.915062 253.807387 
L 133.464726 253.969019 
L 134.239558 253.027725 
L 135.01439 248.775922 
L 135.789222 237.414935 
L 137.338885 248.721747 
L 138.113717 252.651874 
L 138.888549 253.55229 
L 139.663381 245.047951 
L 140.438213 245.500446 
L 141.213045 223.597343 
L 143.53754 240.335693 
L 145.087204 246.831264 
L 145.862036 246.636049 
L 146.636868 248.420308 
L 147.411699 249.347286 
L 148.186531 248.869842 
L 148.961363 245.320429 
L 149.736195 247.431429 
L 151.285859 245.791111 
L 152.060691 246.725836 
L 152.835522 247.175774 
L 153.610354 247.784086 
L 154.385186 250.492849 
L 155.160018 250.888872 
L 155.93485 252.062667 
L 156.709682 251.203315 
L 157.484514 251.731997 
L 158.259345 250.602363 
L 159.034177 247.789761 
L 159.809009 250.976608 
L 160.583841 251.043629 
L 161.358673 250.554399 
L 162.133505 247.73093 
L 162.908336 237.432604 
L 163.683168 238.991947 
L 164.458 239.789043 
L 165.232832 244.961955 
L 166.007664 239.864124 
L 166.782496 233.499202 
L 167.557328 237.774506 
L 168.332159 225.833012 
L 169.106991 229.515541 
L 169.881823 234.75462 
L 170.656655 238.663587 
L 171.431487 239.46804 
L 172.206319 241.194544 
L 172.981151 242.022946 
L 173.755982 244.946302 
L 174.530814 246.407979 
L 175.305646 248.114601 
L 176.080478 244.019301 
L 176.85531 244.655053 
L 177.630142 247.865427 
L 178.404973 248.52968 
L 179.179805 250.708824 
L 179.954637 251.449902 
L 180.729469 250.809809 
L 181.504301 251.430697 
L 182.279133 251.845687 
L 183.053965 252.718806 
L 183.828796 251.618508 
L 184.603628 252.826511 
L 185.37846 252.020854 
L 186.153292 248.32476 
L 186.928124 250.379843 
L 187.702956 249.891437 
L 189.252619 254.38662 
L 190.027451 252.574388 
L 190.802283 252.661479 
L 191.577115 254.017104 
L 192.351947 252.790398 
L 193.126779 251.218687 
L 193.901611 248.533541 
L 194.676442 250.205438 
L 195.451274 249.52544 
L 196.226106 247.791465 
L 197.000938 243.753185 
L 197.77577 229.867833 
L 198.550602 221.182688 
L 199.325433 197.672959 
L 200.100265 194.978931 
L 200.875097 202.692754 
L 201.649929 205.504186 
L 202.424761 205.690174 
L 203.199593 210.487834 
L 203.974425 197.901433 
L 204.749256 199.972078 
L 206.29892 221.232391 
L 207.073752 229.741811 
L 207.848584 234.03137 
L 208.623416 229.833563 
L 210.173079 223.775287 
L 210.947911 226.883607 
L 211.722743 228.071848 
L 212.497575 192.579442 
L 213.272407 196.091358 
L 214.047239 211.943888 
L 214.82207 220.218649 
L 215.596902 225.262109 
L 216.371734 233.080946 
L 217.146566 236.990366 
L 217.921398 239.903432 
L 218.69623 243.450928 
L 219.471062 233.741806 
L 220.245893 241.485295 
L 221.020725 246.228273 
L 221.795557 248.547489 
L 222.570389 249.306329 
L 223.345221 248.814514 
L 224.120053 249.004224 
L 224.894885 248.105872 
L 225.669716 249.242342 
L 226.444548 248.015835 
L 227.21938 247.6988 
L 227.994212 202.741412 
L 228.769044 202.217825 
L 229.543876 216.784442 
L 230.318707 227.866328 
L 231.093539 234.73155 
L 231.868371 236.892158 
L 232.643203 229.678312 
L 233.418035 235.393595 
L 234.192867 234.7663 
L 234.967699 236.247394 
L 235.74253 230.418836 
L 236.517362 230.728122 
L 237.292194 234.594224 
L 238.067026 236.980318 
L 238.841858 237.424102 
L 240.391522 243.428677 
L 241.166353 243.958973 
L 241.941185 245.269602 
L 242.716017 246.203711 
L 243.490849 244.179036 
L 244.265681 244.090207 
L 245.040513 243.540476 
L 245.815345 242.795144 
L 246.590176 244.095248 
L 247.365008 244.100587 
L 248.13984 247.379097 
L 248.914672 248.059995 
L 249.689504 248.400443 
L 250.464336 248.518393 
L 251.239167 249.535726 
L 252.013999 249.992119 
L 252.788831 251.213523 
L 253.563663 249.698412 
L 254.338495 247.738554 
L 255.113327 249.023834 
L 256.66299 247.975242 
L 257.437822 248.096697 
L 258.212654 248.92411 
L 259.762318 248.812834 
L 260.53715 248.341246 
L 261.311982 246.432682 
L 262.086813 247.203443 
L 262.861645 246.787289 
L 263.636477 246.701185 
L 264.411309 247.372545 
L 265.186141 248.945377 
L 265.960973 249.156779 
L 266.735804 248.983685 
L 267.510636 249.332755 
L 268.285468 250.448224 
L 269.0603 251.842342 
L 269.835132 252.539402 
L 270.609964 252.43489 
L 271.384796 251.232604 
L 272.159627 252.199683 
L 272.934459 252.683223 
L 273.709291 250.624934 
L 274.484123 250.18823 
L 275.258955 201.546672 
L 276.033787 183.847274 
L 276.808619 205.473353 
L 277.58345 221.304702 
L 278.358282 230.352981 
L 279.133114 234.546051 
L 279.907946 230.578796 
L 280.682778 237.777978 
L 281.45761 241.516966 
L 283.007273 247.048171 
L 283.782105 247.14527 
L 285.331769 195.806552 
L 286.881433 224.982797 
L 287.656264 233.202662 
L 288.431096 235.796645 
L 289.205928 233.626123 
L 289.98076 234.806073 
L 291.530424 242.364689 
L 292.305256 242.172401 
L 293.080087 243.749028 
L 293.854919 245.722219 
L 294.629751 245.733032 
L 295.404583 248.543814 
L 296.179415 247.980215 
L 296.954247 248.447677 
L 298.50391 247.064517 
L 299.278742 247.902705 
L 300.053574 248.931662 
L 300.828406 246.205149 
L 301.603238 246.793458 
L 302.37807 248.028545 
L 303.152901 249.534748 
L 303.927733 249.486314 
L 304.702565 246.343078 
L 305.477397 199.624095 
L 306.252229 196.302994 
L 307.027061 214.576284 
L 307.801893 129.549934 
L 308.576724 137.219842 
L 309.351556 172.419232 
L 310.126388 202.041966 
L 312.450884 230.514574 
L 313.225716 236.125372 
L 314.000547 240.725513 
L 314.775379 240.342181 
L 315.550211 222.586431 
L 316.325043 225.278549 
L 317.874707 238.484286 
L 318.649538 241.242832 
L 319.42437 190.626839 
L 320.199202 171.417483 
L 321.748866 212.734614 
L 322.523698 221.589793 
L 324.073361 208.759089 
L 324.848193 209.791931 
L 325.623025 215.675154 
L 326.397857 217.22279 
L 327.172689 15.696 
L 327.947521 61.996966 
L 328.722353 134.285058 
L 329.497184 177.050489 
L 331.046848 214.038314 
L 331.82168 225.865977 
L 332.596512 234.201841 
L 333.371344 202.962807 
L 334.146175 224.004835 
L 334.921007 232.225788 
L 335.695839 238.009033 
L 336.470671 241.946138 
L 337.245503 244.768501 
L 338.020335 248.322918 
L 339.569998 251.189115 
L 340.34483 250.76654 
L 341.119662 251.949226 
L 341.894494 252.209501 
L 342.669326 250.388073 
L 343.444158 230.920068 
L 344.21899 242.580095 
L 344.993821 248.051161 
L 345.768653 251.372163 
L 346.543485 252.584849 
L 347.318317 253.149374 
L 348.093149 254.672273 
L 348.867981 253.692997 
L 349.642813 254.761126 
L 350.417644 251.141145 
L 351.192476 219.796309 
L 351.967308 233.432216 
L 352.74214 228.80215 
L 353.516972 237.116176 
L 354.291804 242.736862 
L 355.066635 246.035097 
L 355.841467 248.346352 
L 356.616299 249.484556 
L 357.391131 251.541725 
L 358.165963 251.361036 
L 358.940795 252.882476 
L 359.715627 253.474176 
L 360.490458 250.828739 
L 361.26529 252.771408 
L 362.040122 253.038784 
L 363.589786 254.445104 
L 364.364618 254.830505 
L 365.13945 254.514405 
L 365.914281 253.805735 
L 366.689113 254.057778 
L 367.463945 251.242513 
L 368.238777 253.431336 
L 369.013609 251.55658 
L 369.788441 252.511524 
L 370.563272 251.096675 
L 371.338104 253.116213 
L 372.112936 247.879233 
L 372.887768 244.598604 
L 373.6626 246.234131 
L 374.437432 248.951185 
L 376.761927 252.21901 
L 377.536759 253.855113 
L 378.311591 253.510938 
L 379.086423 251.875176 
L 379.861255 253.664029 
L 380.636087 254.225644 
L 381.410918 254.189321 
L 382.18575 254.321012 
L 382.18575 254.321012 
" clip-path="url(#pb2f7f4aa97)" style="fill: none; stroke: #000000; stroke-linecap: square"/>
   </g>
   <g id="line2d_124">
    <path d="M 57.531205 253.047516 
L 58.306037 248.360569 
L 59.080868 247.836235 
L 59.8557 250.366935 
L 60.630532 251.247299 
L 61.405364 250.774582 
L 62.180196 251.09176 
L 62.955028 251.168262 
L 63.72986 252.334064 
L 64.504691 254.547947 
L 65.279523 251.649084 
L 66.054355 240.901495 
L 66.829187 248.619173 
L 67.604019 253.437883 
L 68.378851 252.879609 
L 69.153683 252.623624 
L 69.928514 254.002857 
L 70.703346 253.435125 
L 71.478178 252.060757 
L 72.25301 253.594569 
L 73.027842 254.419631 
L 73.802674 254.070867 
L 74.577505 254.392167 
L 75.352337 254.173785 
L 76.127169 253.546743 
L 76.902001 254.457702 
L 77.676833 254.819495 
L 78.451665 254.321732 
L 79.226497 253.468813 
L 80.001328 253.263351 
L 80.77616 253.653353 
L 82.325824 253.541164 
L 83.100656 252.285298 
L 83.875488 253.811923 
L 84.65032 253.92677 
L 85.425151 253.429376 
L 86.199983 253.47134 
L 86.974815 253.131953 
L 87.749647 253.825173 
L 88.524479 254.747027 
L 89.299311 254.965194 
L 90.074143 254.346344 
L 90.848974 252.302563 
L 91.623806 251.177759 
L 92.398638 253.241109 
L 93.17347 254.805789 
L 93.948302 255.870213 
L 95.497965 256.522892 
L 96.272797 255.066833 
L 97.047629 253.358252 
L 97.822461 252.003942 
L 98.597293 255.277533 
L 99.372125 254.982292 
L 100.146957 253.48434 
L 100.921788 254.381119 
L 101.69662 256.156699 
L 102.471452 255.47735 
L 103.246284 254.583814 
L 104.021116 254.241453 
L 104.795948 254.633968 
L 105.57078 254.391534 
L 106.345611 254.458237 
L 107.120443 252.478908 
L 107.895275 254.512516 
L 108.670107 254.239482 
L 109.444939 255.473581 
L 110.219771 252.272445 
L 110.994602 254.558383 
L 111.769434 251.432219 
L 112.544266 254.112493 
L 113.319098 254.959622 
L 114.09393 254.119176 
L 114.868762 252.049641 
L 115.643594 251.604423 
L 116.418425 250.969374 
L 117.193257 252.603293 
L 117.968089 253.573782 
L 118.742921 254.138939 
L 119.517753 254.096331 
L 120.292585 254.175698 
L 121.067417 251.533029 
L 121.842248 254.652623 
L 122.61708 250.642802 
L 123.391912 253.091454 
L 124.941576 254.184695 
L 125.716408 253.852773 
L 126.491239 253.662356 
L 127.266071 251.778472 
L 128.040903 252.2853 
L 128.815735 252.583113 
L 129.590567 253.77169 
L 130.365399 253.401945 
L 131.140231 254.96997 
L 131.915062 254.5644 
L 132.689894 254.364408 
L 133.464726 254.751329 
L 134.239558 252.855641 
L 135.01439 253.548791 
L 135.789222 251.834813 
L 136.564054 240.980164 
L 137.338885 244.050485 
L 138.113717 249.167567 
L 138.888549 253.454537 
L 139.663381 253.068985 
L 140.438213 240.269724 
L 141.213045 244.159681 
L 141.987877 225.903887 
L 142.762708 235.280073 
L 143.53754 239.779162 
L 144.312372 242.796507 
L 145.087204 244.112592 
L 145.862036 246.876718 
L 146.636868 247.606644 
L 147.411699 248.927556 
L 148.186531 248.987451 
L 148.961363 247.991224 
L 149.736195 239.942898 
L 150.511027 241.129714 
L 151.285859 243.331013 
L 152.060691 246.338364 
L 152.835522 248.668788 
L 154.385186 243.2497 
L 155.160018 248.165285 
L 155.93485 248.096833 
L 156.709682 248.221226 
L 157.484514 248.520775 
L 158.259345 251.751515 
L 159.034177 252.093692 
L 159.809009 250.308573 
L 160.583841 252.365673 
L 161.358673 251.813364 
L 162.133505 250.433995 
L 162.908336 247.494078 
L 163.683168 239.4496 
L 164.458 241.713794 
L 165.232832 240.527209 
L 166.007664 242.333267 
L 166.782496 233.535332 
L 167.557328 227.297616 
L 168.332159 233.2302 
L 169.106991 224.361996 
L 169.881823 231.253734 
L 170.656655 235.04364 
L 171.431487 236.660554 
L 172.206319 238.599726 
L 172.981151 242.200512 
L 173.755982 244.251438 
L 174.530814 247.238523 
L 175.305646 248.282544 
L 176.080478 248.808319 
L 176.85531 246.334556 
L 177.630142 246.912703 
L 179.179805 250.191801 
L 179.954637 251.81581 
L 180.729469 252.249404 
L 181.504301 252.048554 
L 182.279133 252.021037 
L 183.053965 251.659331 
L 183.828796 252.520919 
L 184.603628 251.222898 
L 185.37846 252.75236 
L 186.153292 252.905234 
L 186.928124 250.322862 
L 187.702956 251.970593 
L 188.477788 251.351094 
L 190.027451 254.392732 
L 190.802283 253.210734 
L 191.577115 253.080905 
L 192.351947 253.681829 
L 193.126779 251.969922 
L 193.901611 251.301228 
L 194.676442 249.229412 
L 195.451274 251.5423 
L 196.226106 251.520222 
L 197.000938 242.795589 
L 197.77577 237.179893 
L 198.550602 222.716608 
L 199.325433 215.445072 
L 200.100265 197.317127 
L 200.875097 194.482229 
L 201.649929 198.172243 
L 202.424761 199.144422 
L 203.199593 200.97435 
L 203.974425 202.393271 
L 204.749256 194.049143 
L 206.29892 220.353733 
L 207.073752 228.529298 
L 207.848584 231.282102 
L 208.623416 228.813612 
L 209.398248 224.375747 
L 210.173079 219.227276 
L 210.947911 206.353504 
L 211.722743 205.053539 
L 212.497575 207.221296 
L 213.272407 186.065557 
L 214.047239 205.48728 
L 214.82207 220.791175 
L 215.596902 226.548471 
L 216.371734 231.271893 
L 217.146566 237.047385 
L 217.921398 239.4614 
L 218.69623 240.907484 
L 219.471062 242.698484 
L 220.245893 238.745692 
L 221.020725 243.270134 
L 221.795557 247.015846 
L 222.570389 247.308533 
L 223.345221 248.502218 
L 224.120053 248.055237 
L 224.894885 248.773249 
L 225.669716 248.38019 
L 226.444548 250.206038 
L 227.21938 247.063622 
L 227.994212 242.637504 
L 228.769044 199.037049 
L 229.543876 207.496271 
L 230.318707 224.248151 
L 231.093539 233.596976 
L 231.868371 238.518329 
L 232.643203 233.208107 
L 233.418035 217.010393 
L 234.192867 227.052036 
L 234.967699 233.368281 
L 235.74253 238.395616 
L 236.517362 235.636347 
L 237.292194 237.172687 
L 238.841858 242.567719 
L 239.61669 242.195741 
L 240.391522 243.174182 
L 241.166353 244.902974 
L 241.941185 244.84944 
L 242.716017 246.206344 
L 243.490849 244.817362 
L 244.265681 234.270649 
L 245.040513 241.162303 
L 245.815345 244.914384 
L 246.590176 245.439675 
L 247.365008 246.775651 
L 248.13984 246.425626 
L 248.914672 248.331461 
L 249.689504 248.870246 
L 250.464336 248.892521 
L 251.239167 248.757787 
L 252.013999 249.591225 
L 252.788831 249.978863 
L 253.563663 250.607304 
L 254.338495 248.041839 
L 255.113327 246.264888 
L 255.888159 248.735499 
L 256.66299 249.555036 
L 257.437822 249.828636 
L 258.987486 251.385951 
L 260.53715 248.39361 
L 261.311982 243.357636 
L 262.086813 244.893225 
L 262.861645 247.015857 
L 263.636477 247.157084 
L 264.411309 247.467867 
L 265.186141 249.004171 
L 265.960973 250.831923 
L 266.735804 251.2654 
L 267.510636 251.261218 
L 268.285468 251.385757 
L 269.0603 252.244221 
L 269.835132 252.273211 
L 271.384796 251.659761 
L 272.159627 250.72748 
L 272.934459 251.67813 
L 273.709291 252.258543 
L 274.484123 249.951514 
L 275.258955 248.365012 
L 276.033787 203.765895 
L 276.808619 195.706684 
L 277.58345 218.65914 
L 278.358282 230.246633 
L 279.133114 234.994582 
L 279.907946 238.252294 
L 280.682778 236.380612 
L 281.45761 242.681264 
L 282.232441 245.078179 
L 283.007273 246.130719 
L 283.782105 248.588407 
L 285.331769 210.764378 
L 286.106601 199.979761 
L 286.881433 225.749956 
L 287.656264 234.733001 
L 288.431096 236.691623 
L 289.205928 237.773741 
L 289.98076 236.564997 
L 290.755592 238.079883 
L 291.530424 239.274653 
L 292.305256 242.357309 
L 293.854919 245.785096 
L 294.629751 247.519454 
L 295.404583 247.652801 
L 296.179415 249.590165 
L 296.954247 247.932311 
L 297.729079 248.751407 
L 298.50391 249.115861 
L 299.278742 249.086681 
L 300.053574 250.751639 
L 300.828406 250.762575 
L 301.603238 246.828685 
L 302.37807 248.326928 
L 303.152901 249.55282 
L 303.927733 251.744424 
L 305.477397 237.35417 
L 306.252229 203.749985 
L 307.027061 181.58466 
L 307.801893 197.32726 
L 308.576724 138.218622 
L 310.126388 203.038921 
L 310.90122 214.30478 
L 311.676052 214.233388 
L 312.450884 224.692899 
L 313.225716 231.656067 
L 314.000547 229.548457 
L 314.775379 225.462536 
L 315.550211 222.206444 
L 316.325043 214.850906 
L 317.874707 232.841129 
L 318.649538 239.720759 
L 319.42437 241.824248 
L 320.199202 196.681913 
L 320.974034 183.121708 
L 321.748866 207.836478 
L 322.523698 217.347507 
L 323.29853 206.565433 
L 324.073361 200.453903 
L 324.848193 207.006763 
L 325.623025 214.825445 
L 326.397857 192.395419 
L 327.172689 162.600651 
L 327.947521 65.761073 
L 328.722353 142.852116 
L 329.497184 189.022168 
L 330.272016 206.646477 
L 331.046848 214.535394 
L 331.82168 224.080802 
L 333.371344 234.996173 
L 334.146175 212.782188 
L 334.921007 233.040454 
L 335.695839 238.126616 
L 336.470671 240.758793 
L 337.245503 242.605273 
L 338.020335 242.890092 
L 338.795167 245.486582 
L 339.569998 248.53197 
L 340.34483 251.112171 
L 341.119662 250.413671 
L 341.894494 253.048153 
L 342.669326 253.85968 
L 343.444158 252.776074 
L 344.21899 239.946713 
L 344.993821 248.297963 
L 345.768653 250.589338 
L 346.543485 251.712655 
L 347.318317 251.47909 
L 348.093149 252.500064 
L 348.867981 254.384372 
L 349.642813 254.167026 
L 350.417644 257.616 
L 351.192476 228.776008 
L 351.967308 205.428957 
L 352.74214 226.65253 
L 353.516972 226.855432 
L 354.291804 239.480931 
L 355.066635 244.650994 
L 356.616299 248.955742 
L 357.391131 250.373511 
L 358.165963 251.298523 
L 358.940795 250.477312 
L 359.715627 251.608482 
L 360.490458 252.496433 
L 361.26529 251.232275 
L 362.040122 253.161852 
L 363.589786 253.963774 
L 364.364618 254.54618 
L 365.13945 254.347941 
L 365.914281 255.335564 
L 366.689113 255.063306 
L 367.463945 254.006607 
L 368.238777 254.221353 
L 369.013609 256.720594 
L 369.788441 247.685019 
L 370.563272 245.254148 
L 371.338104 244.781141 
L 372.112936 249.161219 
L 372.887768 246.864663 
L 373.6626 245.45685 
L 374.437432 245.16322 
L 375.212264 241.27503 
L 376.761927 250.056364 
L 377.536759 251.540143 
L 378.311591 252.286092 
L 379.086423 251.937694 
L 379.861255 250.899608 
L 380.636087 252.489528 
L 381.410918 253.270106 
L 382.18575 253.186706 
L 382.18575 253.186706 
" clip-path="url(#pb2f7f4aa97)" style="fill: none; stroke-dasharray: 3.7,1.6; stroke-dashoffset: 0; stroke: #ff0000"/>
   </g>
   <g id="patch_3">
    <path d="M 41.298478 269.712 
L 41.298478 3.6 
" style="fill: none; stroke: #000000; stroke-width: 0.5; stroke-linejoin: miter; stroke-linecap: square"/>
   </g>
   <g id="patch_4">
    <path d="M 398.418478 269.712 
L 398.418478 3.6 
" style="fill: none; stroke: #000000; stroke-width: 0.5; stroke-linejoin: miter; stroke-linecap: square"/>
   </g>
   <g id="patch_5">
    <path d="M 41.298478 269.712 
L 398.418478 269.712 
" style="fill: none; stroke: #000000; stroke-width: 0.5; stroke-linejoin: miter; stroke-linecap: square"/>
   </g>
   <g id="patch_6">
    <path d="M 41.298478 3.6 
L 398.418478 3.6 
" style="fill: none; stroke: #000000; stroke-width: 0.5; stroke-linejoin: miter; stroke-linecap: square"/>
   </g>
   <g id="legend_1">
    <g id="line2d_125">
     <path d="M 48.498478 13.6 
L 56.498478 13.6 
L 64.498478 13.6 
" style="fill: none; stroke: #000000; stroke-linecap: square"/>
    </g>
    <g id="text_16">
     <!-- spatial rainfall actual -->
     <g transform="translate(70.898478 16.4) scale(0.08 -0.08)">
      <defs>
       <path id="NimbusRomNo9L-Regu-63" d="M 2547 998 
C 2240 550 2010 397 1645 397 
C 1062 397 653 909 653 1645 
C 653 2304 1005 2758 1523 2758 
C 1754 2758 1837 2688 1901 2451 
L 1939 2310 
C 1990 2131 2106 2016 2240 2016 
C 2406 2016 2547 2138 2547 2285 
C 2547 2643 2099 2944 1562 2944 
C 1248 2944 922 2816 659 2586 
C 339 2304 160 1869 160 1363 
C 160 531 666 -64 1376 -64 
C 1664 -64 1920 38 2150 237 
C 2323 390 2445 563 2637 941 
L 2547 998 
z
" transform="scale(0.015625)"/>
       <path id="NimbusRomNo9L-Regu-75" d="M 3066 320 
L 3034 320 
C 2739 320 2669 390 2669 685 
L 2669 2880 
L 1658 2880 
L 1658 2758 
C 2054 2758 2131 2694 2131 2375 
L 2131 875 
C 2131 697 2099 607 2010 537 
C 1837 397 1638 320 1446 320 
C 1197 320 992 537 992 805 
L 992 2880 
L 58 2880 
L 58 2778 
C 365 2778 454 2682 454 2387 
L 454 770 
C 454 263 762 -64 1229 -64 
C 1466 -64 1715 38 1888 211 
L 2163 486 
L 2163 -45 
L 2189 -58 
C 2509 70 2739 141 3066 230 
L 3066 320 
z
" transform="scale(0.015625)"/>
      </defs>
      <use xlink:href="#NimbusRomNo9L-Regu-73" transform="scale(0.996264)"/>
      <use xlink:href="#NimbusRomNo9L-Regu-70" transform="translate(38.753706 0) scale(0.996264)"/>
      <use xlink:href="#NimbusRomNo9L-Regu-61" transform="translate(88.566907 0) scale(0.996264)"/>
      <use xlink:href="#NimbusRomNo9L-Regu-74" transform="translate(132.800475 0) scale(0.996264)"/>
      <use xlink:href="#NimbusRomNo9L-Regu-69" transform="translate(160.495645 0) scale(0.996264)"/>
      <use xlink:href="#NimbusRomNo9L-Regu-61" transform="translate(188.190815 0) scale(0.996264)"/>
      <use xlink:href="#NimbusRomNo9L-Regu-6c" transform="translate(232.424383 0) scale(0.996264)"/>
      <use xlink:href="#NimbusRomNo9L-Regu-72" transform="translate(285.026153 0) scale(0.996264)"/>
      <use xlink:href="#NimbusRomNo9L-Regu-61" transform="translate(318.201383 0) scale(0.996264)"/>
      <use xlink:href="#NimbusRomNo9L-Regu-69" transform="translate(362.434952 0) scale(0.996264)"/>
      <use xlink:href="#NimbusRomNo9L-Regu-6e" transform="translate(390.130121 0) scale(0.996264)"/>
      <use xlink:href="#NimbusRomNo9L-Regu-66" transform="translate(439.943322 0) scale(0.996264)"/>
      <use xlink:href="#NimbusRomNo9L-Regu-61" transform="translate(472.122455 0) scale(0.996264)"/>
      <use xlink:href="#NimbusRomNo9L-Regu-6c" transform="translate(516.356023 0) scale(0.996264)"/>
      <use xlink:href="#NimbusRomNo9L-Regu-6c" transform="translate(544.051193 0) scale(0.996264)"/>
      <use xlink:href="#NimbusRomNo9L-Regu-61" transform="translate(596.652963 0) scale(0.996264)"/>
      <use xlink:href="#NimbusRomNo9L-Regu-63" transform="translate(640.886531 0) scale(0.996264)"/>
      <use xlink:href="#NimbusRomNo9L-Regu-74" transform="translate(685.1201 0) scale(0.996264)"/>
      <use xlink:href="#NimbusRomNo9L-Regu-75" transform="translate(712.81527 0) scale(0.996264)"/>
      <use xlink:href="#NimbusRomNo9L-Regu-61" transform="translate(762.62847 0) scale(0.996264)"/>
      <use xlink:href="#NimbusRomNo9L-Regu-6c" transform="translate(806.862039 0) scale(0.996264)"/>
     </g>
    </g>
    <g id="line2d_126">
     <path d="M 48.498478 24.925463 
L 56.498478 24.925463 
L 64.498478 24.925463 
" style="fill: none; stroke-dasharray: 3.7,1.6; stroke-dashoffset: 0; stroke: #ff0000"/>
    </g>
    <g id="text_17">
     <!-- spatial rainfall predict -->
     <g transform="translate(70.898478 27.725463) scale(0.08 -0.08)">
      <defs>
       <path id="NimbusRomNo9L-Regu-65" d="M 2611 1053 
C 2304 564 2029 378 1619 378 
C 1254 378 979 564 794 930 
C 678 1174 634 1386 621 1779 
L 2592 1779 
C 2541 2193 2477 2377 2317 2581 
C 2125 2811 1830 2944 1498 2944 
C 1178 2944 877 2829 634 2611 
C 333 2349 160 1894 160 1370 
C 160 486 621 -64 1357 -64 
C 1965 -64 2445 315 2714 1008 
L 2611 1053 
z
M 634 1984 
C 704 2479 922 2714 1312 2714 
C 1702 2714 1856 2535 1939 1984 
L 634 1984 
z
" transform="scale(0.015625)"/>
      </defs>
      <use xlink:href="#NimbusRomNo9L-Regu-73" transform="scale(0.996264)"/>
      <use xlink:href="#NimbusRomNo9L-Regu-70" transform="translate(38.753706 0) scale(0.996264)"/>
      <use xlink:href="#NimbusRomNo9L-Regu-61" transform="translate(88.566907 0) scale(0.996264)"/>
      <use xlink:href="#NimbusRomNo9L-Regu-74" transform="translate(132.800475 0) scale(0.996264)"/>
      <use xlink:href="#NimbusRomNo9L-Regu-69" transform="translate(160.495645 0) scale(0.996264)"/>
      <use xlink:href="#NimbusRomNo9L-Regu-61" transform="translate(188.190815 0) scale(0.996264)"/>
      <use xlink:href="#NimbusRomNo9L-Regu-6c" transform="translate(232.424383 0) scale(0.996264)"/>
      <use xlink:href="#NimbusRomNo9L-Regu-72" transform="translate(285.026153 0) scale(0.996264)"/>
      <use xlink:href="#NimbusRomNo9L-Regu-61" transform="translate(318.201383 0) scale(0.996264)"/>
      <use xlink:href="#NimbusRomNo9L-Regu-69" transform="translate(362.434952 0) scale(0.996264)"/>
      <use xlink:href="#NimbusRomNo9L-Regu-6e" transform="translate(390.130121 0) scale(0.996264)"/>
      <use xlink:href="#NimbusRomNo9L-Regu-66" transform="translate(439.943322 0) scale(0.996264)"/>
      <use xlink:href="#NimbusRomNo9L-Regu-61" transform="translate(472.122455 0) scale(0.996264)"/>
      <use xlink:href="#NimbusRomNo9L-Regu-6c" transform="translate(516.356023 0) scale(0.996264)"/>
      <use xlink:href="#NimbusRomNo9L-Regu-6c" transform="translate(544.051193 0) scale(0.996264)"/>
      <use xlink:href="#NimbusRomNo9L-Regu-70" transform="translate(596.652963 0) scale(0.996264)"/>
      <use xlink:href="#NimbusRomNo9L-Regu-72" transform="translate(646.466163 0) scale(0.996264)"/>
      <use xlink:href="#NimbusRomNo9L-Regu-65" transform="translate(679.641393 0) scale(0.996264)"/>
      <use xlink:href="#NimbusRomNo9L-Regu-64" transform="translate(723.874962 0) scale(0.996264)"/>
      <use xlink:href="#NimbusRomNo9L-Regu-69" transform="translate(773.688162 0) scale(0.996264)"/>
      <use xlink:href="#NimbusRomNo9L-Regu-63" transform="translate(801.383332 0) scale(0.996264)"/>
      <use xlink:href="#NimbusRomNo9L-Regu-74" transform="translate(845.6169 0) scale(0.996264)"/>
     </g>
    </g>
   </g>
  </g>
 </g>
 <defs>
  <clipPath id="pb2f7f4aa97">
   <rect x="41.298478" y="3.6" width="357.12" height="266.112"/>
  </clipPath>
 </defs>
</svg>
