<?xml version="1.0" encoding="utf-8" standalone="no"?>
<!DOCTYPE svg PUBLIC "-//W3C//DTD SVG 1.1//EN"
  "http://www.w3.org/Graphics/SVG/1.1/DTD/svg11.dtd">
<svg xmlns:xlink="http://www.w3.org/1999/xlink" width="390.063309pt" height="302.199372pt" viewBox="0 0 390.063309 302.199372" xmlns="http://www.w3.org/2000/svg" version="1.1">
 <metadata>
  <rdf:RDF xmlns:dc="http://purl.org/dc/elements/1.1/" xmlns:cc="http://creativecommons.org/ns#" xmlns:rdf="http://www.w3.org/1999/02/22-rdf-syntax-ns#">
   <cc:Work>
    <dc:type rdf:resource="http://purl.org/dc/dcmitype/StillImage"/>
    <dc:date>2024-03-16T20:49:21.586278</dc:date>
    <dc:format>image/svg+xml</dc:format>
    <dc:creator>
     <cc:Agent>
      <dc:title>Matplotlib v3.8.3, https://matplotlib.org/</dc:title>
     </cc:Agent>
    </dc:creator>
   </cc:Work>
  </rdf:RDF>
 </metadata>
 <defs>
  <style type="text/css">*{stroke-linejoin: round; stroke-linecap: butt}</style>
 </defs>
 <g id="figure_1">
  <g id="patch_1">
   <path d="M 0 302.199372 
L 390.063309 302.199372 
L 390.063309 0 
L 0 0 
z
" style="fill: #ffffff"/>
  </g>
  <g id="axes_1">
   <g id="patch_2">
    <path d="M 29.343309 269.712 
L 386.463309 269.712 
L 386.463309 3.6 
L 29.343309 3.6 
z
" style="fill: #ffffff"/>
   </g>
   <g id="matplotlib.axis_1">
    <g id="xtick_1">
     <g id="line2d_1">
      <defs>
       <path id="m210c5fd336" d="M 0 0 
L 0 -3 
" style="stroke: #000000; stroke-width: 0.5"/>
      </defs>
      <g>
       <use xlink:href="#m210c5fd336" x="45.576037" y="269.712" style="stroke: #000000; stroke-width: 0.5"/>
      </g>
     </g>
     <g id="line2d_2">
      <defs>
       <path id="m4aa67286db" d="M 0 0 
L 0 3 
" style="stroke: #000000; stroke-width: 0.5"/>
      </defs>
      <g>
       <use xlink:href="#m4aa67286db" x="45.576037" y="3.6" style="stroke: #000000; stroke-width: 0.5"/>
      </g>
     </g>
     <g id="text_1">
      <!-- $\mathdefault{0}$ -->
      <g transform="translate(43.583509 278.615656) scale(0.08 -0.08)">
       <defs>
        <path id="NimbusRomNo9L-Regu-30" d="M 1626 4352 
C 1274 4352 1005 4244 768 4020 
C 397 3661 154 2925 154 2176 
C 154 1479 365 730 666 372 
C 902 90 1229 -64 1600 -64 
C 1926 -64 2202 45 2432 269 
C 2803 621 3046 1364 3046 2138 
C 3046 3450 2464 4352 1626 4352 
z
M 1606 4186 
C 2144 4186 2432 3463 2432 2125 
C 2432 788 2150 103 1600 103 
C 1050 103 768 788 768 2119 
C 768 3476 1056 4186 1606 4186 
z
" transform="scale(0.015625)"/>
       </defs>
       <use xlink:href="#NimbusRomNo9L-Regu-30" transform="scale(0.996264)"/>
      </g>
     </g>
    </g>
    <g id="xtick_2">
     <g id="line2d_3">
      <g>
       <use xlink:href="#m210c5fd336" x="110.119684" y="269.712" style="stroke: #000000; stroke-width: 0.5"/>
      </g>
     </g>
     <g id="line2d_4">
      <g>
       <use xlink:href="#m4aa67286db" x="110.119684" y="3.6" style="stroke: #000000; stroke-width: 0.5"/>
      </g>
     </g>
     <g id="text_2">
      <!-- $\mathdefault{100}$ -->
      <g transform="translate(104.1421 278.615656) scale(0.08 -0.08)">
       <defs>
        <path id="NimbusRomNo9L-Regu-31" d="M 1862 4339 
L 710 3757 
L 710 3667 
C 787 3699 858 3725 883 3738 
C 998 3783 1107 3808 1171 3808 
C 1306 3808 1363 3711 1363 3505 
L 1363 592 
C 1363 379 1312 232 1210 173 
C 1114 116 1024 96 755 96 
L 755 0 
L 2522 0 
L 2522 96 
C 2016 96 1914 160 1914 470 
L 1914 4327 
L 1862 4339 
z
" transform="scale(0.015625)"/>
       </defs>
       <use xlink:href="#NimbusRomNo9L-Regu-31" transform="scale(0.996264)"/>
       <use xlink:href="#NimbusRomNo9L-Regu-30" transform="translate(49.8132 0) scale(0.996264)"/>
       <use xlink:href="#NimbusRomNo9L-Regu-30" transform="translate(99.626401 0) scale(0.996264)"/>
      </g>
     </g>
    </g>
    <g id="xtick_3">
     <g id="line2d_5">
      <g>
       <use xlink:href="#m210c5fd336" x="174.663331" y="269.712" style="stroke: #000000; stroke-width: 0.5"/>
      </g>
     </g>
     <g id="line2d_6">
      <g>
       <use xlink:href="#m4aa67286db" x="174.663331" y="3.6" style="stroke: #000000; stroke-width: 0.5"/>
      </g>
     </g>
     <g id="text_3">
      <!-- $\mathdefault{200}$ -->
      <g transform="translate(168.685747 278.615656) scale(0.08 -0.08)">
       <defs>
        <path id="NimbusRomNo9L-Regu-32" d="M 3040 875 
L 2957 907 
C 2720 544 2637 486 2349 486 
L 819 486 
L 1894 1609 
C 2464 2202 2714 2687 2714 3185 
C 2714 3823 2195 4313 1530 4313 
C 1178 4313 845 4173 608 3918 
C 403 3700 307 3496 198 3043 
L 333 3011 
C 589 3636 819 3840 1261 3840 
C 1798 3840 2163 3476 2163 2940 
C 2163 2443 1869 1850 1331 1282 
L 192 77 
L 192 0 
L 2688 0 
L 3040 875 
z
" transform="scale(0.015625)"/>
       </defs>
       <use xlink:href="#NimbusRomNo9L-Regu-32" transform="scale(0.996264)"/>
       <use xlink:href="#NimbusRomNo9L-Regu-30" transform="translate(49.8132 0) scale(0.996264)"/>
       <use xlink:href="#NimbusRomNo9L-Regu-30" transform="translate(99.626401 0) scale(0.996264)"/>
      </g>
     </g>
    </g>
    <g id="xtick_4">
     <g id="line2d_7">
      <g>
       <use xlink:href="#m210c5fd336" x="239.206978" y="269.712" style="stroke: #000000; stroke-width: 0.5"/>
      </g>
     </g>
     <g id="line2d_8">
      <g>
       <use xlink:href="#m4aa67286db" x="239.206978" y="3.6" style="stroke: #000000; stroke-width: 0.5"/>
      </g>
     </g>
     <g id="text_4">
      <!-- $\mathdefault{300}$ -->
      <g transform="translate(233.229394 278.615656) scale(0.08 -0.08)">
       <defs>
        <path id="NimbusRomNo9L-Regu-33" d="M 979 2138 
C 1357 2138 1504 2125 1658 2068 
C 2054 1927 2304 1562 2304 1120 
C 2304 583 1939 167 1466 167 
C 1293 167 1165 212 928 365 
C 736 480 627 525 518 525 
C 371 525 275 436 275 301 
C 275 77 550 -64 998 -64 
C 1491 -64 1997 103 2298 365 
C 2598 628 2765 999 2765 1428 
C 2765 1754 2662 2055 2477 2253 
C 2349 2394 2227 2471 1946 2592 
C 2387 2893 2547 3130 2547 3476 
C 2547 3994 2138 4352 1549 4352 
C 1229 4352 947 4244 717 4039 
C 525 3866 429 3699 288 3315 
L 384 3290 
C 646 3757 934 3968 1338 3968 
C 1754 3968 2042 3687 2042 3284 
C 2042 3053 1946 2823 1786 2663 
C 1594 2471 1414 2375 979 2221 
L 979 2138 
z
" transform="scale(0.015625)"/>
       </defs>
       <use xlink:href="#NimbusRomNo9L-Regu-33" transform="scale(0.996264)"/>
       <use xlink:href="#NimbusRomNo9L-Regu-30" transform="translate(49.8132 0) scale(0.996264)"/>
       <use xlink:href="#NimbusRomNo9L-Regu-30" transform="translate(99.626401 0) scale(0.996264)"/>
      </g>
     </g>
    </g>
    <g id="xtick_5">
     <g id="line2d_9">
      <g>
       <use xlink:href="#m210c5fd336" x="303.750625" y="269.712" style="stroke: #000000; stroke-width: 0.5"/>
      </g>
     </g>
     <g id="line2d_10">
      <g>
       <use xlink:href="#m4aa67286db" x="303.750625" y="3.6" style="stroke: #000000; stroke-width: 0.5"/>
      </g>
     </g>
     <g id="text_5">
      <!-- $\mathdefault{400}$ -->
      <g transform="translate(297.773041 278.615656) scale(0.08 -0.08)">
       <defs>
        <path id="NimbusRomNo9L-Regu-34" d="M 3021 1497 
L 2368 1497 
L 2368 4352 
L 2086 4352 
L 77 1497 
L 77 1088 
L 1875 1088 
L 1875 32 
L 2368 32 
L 2368 1088 
L 3021 1088 
L 3021 1497 
z
M 1869 1497 
L 333 1497 
L 1869 3698 
L 1869 1497 
z
" transform="scale(0.015625)"/>
       </defs>
       <use xlink:href="#NimbusRomNo9L-Regu-34" transform="scale(0.996264)"/>
       <use xlink:href="#NimbusRomNo9L-Regu-30" transform="translate(49.8132 0) scale(0.996264)"/>
       <use xlink:href="#NimbusRomNo9L-Regu-30" transform="translate(99.626401 0) scale(0.996264)"/>
      </g>
     </g>
    </g>
    <g id="xtick_6">
     <g id="line2d_11">
      <g>
       <use xlink:href="#m210c5fd336" x="368.294273" y="269.712" style="stroke: #000000; stroke-width: 0.5"/>
      </g>
     </g>
     <g id="line2d_12">
      <g>
       <use xlink:href="#m4aa67286db" x="368.294273" y="3.6" style="stroke: #000000; stroke-width: 0.5"/>
      </g>
     </g>
     <g id="text_6">
      <!-- $\mathdefault{500}$ -->
      <g transform="translate(362.316689 278.615656) scale(0.08 -0.08)">
       <defs>
        <path id="NimbusRomNo9L-Regu-35" d="M 1158 3776 
L 2413 3776 
C 2515 3776 2541 3789 2560 3834 
L 2803 4403 
L 2746 4448 
C 2650 4314 2586 4282 2451 4282 
L 1114 4282 
L 416 2759 
C 410 2746 410 2740 410 2727 
C 410 2695 435 2676 486 2676 
C 691 2676 947 2631 1210 2547 
C 1946 2309 2285 1910 2285 1274 
C 2285 656 1894 173 1395 173 
C 1267 173 1158 218 966 360 
C 762 508 614 572 480 572 
C 294 572 205 495 205 334 
C 205 90 506 -64 986 -64 
C 1523 -64 1984 110 2304 438 
C 2598 728 2733 1094 2733 1583 
C 2733 2046 2611 2342 2291 2663 
C 2010 2947 1645 3094 890 3229 
L 1158 3776 
z
" transform="scale(0.015625)"/>
       </defs>
       <use xlink:href="#NimbusRomNo9L-Regu-35" transform="scale(0.996264)"/>
       <use xlink:href="#NimbusRomNo9L-Regu-30" transform="translate(49.8132 0) scale(0.996264)"/>
       <use xlink:href="#NimbusRomNo9L-Regu-30" transform="translate(99.626401 0) scale(0.996264)"/>
      </g>
     </g>
    </g>
    <g id="xtick_7">
     <g id="line2d_13">
      <defs>
       <path id="m61f6329bcc" d="M 0 0 
L 0 -1.5 
" style="stroke: #000000; stroke-width: 0.5"/>
      </defs>
      <g>
       <use xlink:href="#m61f6329bcc" x="32.667307" y="269.712" style="stroke: #000000; stroke-width: 0.5"/>
      </g>
     </g>
     <g id="line2d_14">
      <defs>
       <path id="m7780526cc1" d="M 0 0 
L 0 1.5 
" style="stroke: #000000; stroke-width: 0.5"/>
      </defs>
      <g>
       <use xlink:href="#m7780526cc1" x="32.667307" y="3.6" style="stroke: #000000; stroke-width: 0.5"/>
      </g>
     </g>
    </g>
    <g id="xtick_8">
     <g id="line2d_15">
      <g>
       <use xlink:href="#m61f6329bcc" x="58.484766" y="269.712" style="stroke: #000000; stroke-width: 0.5"/>
      </g>
     </g>
     <g id="line2d_16">
      <g>
       <use xlink:href="#m7780526cc1" x="58.484766" y="3.6" style="stroke: #000000; stroke-width: 0.5"/>
      </g>
     </g>
    </g>
    <g id="xtick_9">
     <g id="line2d_17">
      <g>
       <use xlink:href="#m61f6329bcc" x="71.393496" y="269.712" style="stroke: #000000; stroke-width: 0.5"/>
      </g>
     </g>
     <g id="line2d_18">
      <g>
       <use xlink:href="#m7780526cc1" x="71.393496" y="3.6" style="stroke: #000000; stroke-width: 0.5"/>
      </g>
     </g>
    </g>
    <g id="xtick_10">
     <g id="line2d_19">
      <g>
       <use xlink:href="#m61f6329bcc" x="84.302225" y="269.712" style="stroke: #000000; stroke-width: 0.5"/>
      </g>
     </g>
     <g id="line2d_20">
      <g>
       <use xlink:href="#m7780526cc1" x="84.302225" y="3.6" style="stroke: #000000; stroke-width: 0.5"/>
      </g>
     </g>
    </g>
    <g id="xtick_11">
     <g id="line2d_21">
      <g>
       <use xlink:href="#m61f6329bcc" x="97.210954" y="269.712" style="stroke: #000000; stroke-width: 0.5"/>
      </g>
     </g>
     <g id="line2d_22">
      <g>
       <use xlink:href="#m7780526cc1" x="97.210954" y="3.6" style="stroke: #000000; stroke-width: 0.5"/>
      </g>
     </g>
    </g>
    <g id="xtick_12">
     <g id="line2d_23">
      <g>
       <use xlink:href="#m61f6329bcc" x="123.028413" y="269.712" style="stroke: #000000; stroke-width: 0.5"/>
      </g>
     </g>
     <g id="line2d_24">
      <g>
       <use xlink:href="#m7780526cc1" x="123.028413" y="3.6" style="stroke: #000000; stroke-width: 0.5"/>
      </g>
     </g>
    </g>
    <g id="xtick_13">
     <g id="line2d_25">
      <g>
       <use xlink:href="#m61f6329bcc" x="135.937143" y="269.712" style="stroke: #000000; stroke-width: 0.5"/>
      </g>
     </g>
     <g id="line2d_26">
      <g>
       <use xlink:href="#m7780526cc1" x="135.937143" y="3.6" style="stroke: #000000; stroke-width: 0.5"/>
      </g>
     </g>
    </g>
    <g id="xtick_14">
     <g id="line2d_27">
      <g>
       <use xlink:href="#m61f6329bcc" x="148.845872" y="269.712" style="stroke: #000000; stroke-width: 0.5"/>
      </g>
     </g>
     <g id="line2d_28">
      <g>
       <use xlink:href="#m7780526cc1" x="148.845872" y="3.6" style="stroke: #000000; stroke-width: 0.5"/>
      </g>
     </g>
    </g>
    <g id="xtick_15">
     <g id="line2d_29">
      <g>
       <use xlink:href="#m61f6329bcc" x="161.754602" y="269.712" style="stroke: #000000; stroke-width: 0.5"/>
      </g>
     </g>
     <g id="line2d_30">
      <g>
       <use xlink:href="#m7780526cc1" x="161.754602" y="3.6" style="stroke: #000000; stroke-width: 0.5"/>
      </g>
     </g>
    </g>
    <g id="xtick_16">
     <g id="line2d_31">
      <g>
       <use xlink:href="#m61f6329bcc" x="187.572061" y="269.712" style="stroke: #000000; stroke-width: 0.5"/>
      </g>
     </g>
     <g id="line2d_32">
      <g>
       <use xlink:href="#m7780526cc1" x="187.572061" y="3.6" style="stroke: #000000; stroke-width: 0.5"/>
      </g>
     </g>
    </g>
    <g id="xtick_17">
     <g id="line2d_33">
      <g>
       <use xlink:href="#m61f6329bcc" x="200.48079" y="269.712" style="stroke: #000000; stroke-width: 0.5"/>
      </g>
     </g>
     <g id="line2d_34">
      <g>
       <use xlink:href="#m7780526cc1" x="200.48079" y="3.6" style="stroke: #000000; stroke-width: 0.5"/>
      </g>
     </g>
    </g>
    <g id="xtick_18">
     <g id="line2d_35">
      <g>
       <use xlink:href="#m61f6329bcc" x="213.389519" y="269.712" style="stroke: #000000; stroke-width: 0.5"/>
      </g>
     </g>
     <g id="line2d_36">
      <g>
       <use xlink:href="#m7780526cc1" x="213.389519" y="3.6" style="stroke: #000000; stroke-width: 0.5"/>
      </g>
     </g>
    </g>
    <g id="xtick_19">
     <g id="line2d_37">
      <g>
       <use xlink:href="#m61f6329bcc" x="226.298249" y="269.712" style="stroke: #000000; stroke-width: 0.5"/>
      </g>
     </g>
     <g id="line2d_38">
      <g>
       <use xlink:href="#m7780526cc1" x="226.298249" y="3.6" style="stroke: #000000; stroke-width: 0.5"/>
      </g>
     </g>
    </g>
    <g id="xtick_20">
     <g id="line2d_39">
      <g>
       <use xlink:href="#m61f6329bcc" x="252.115708" y="269.712" style="stroke: #000000; stroke-width: 0.5"/>
      </g>
     </g>
     <g id="line2d_40">
      <g>
       <use xlink:href="#m7780526cc1" x="252.115708" y="3.6" style="stroke: #000000; stroke-width: 0.5"/>
      </g>
     </g>
    </g>
    <g id="xtick_21">
     <g id="line2d_41">
      <g>
       <use xlink:href="#m61f6329bcc" x="265.024437" y="269.712" style="stroke: #000000; stroke-width: 0.5"/>
      </g>
     </g>
     <g id="line2d_42">
      <g>
       <use xlink:href="#m7780526cc1" x="265.024437" y="3.6" style="stroke: #000000; stroke-width: 0.5"/>
      </g>
     </g>
    </g>
    <g id="xtick_22">
     <g id="line2d_43">
      <g>
       <use xlink:href="#m61f6329bcc" x="277.933167" y="269.712" style="stroke: #000000; stroke-width: 0.5"/>
      </g>
     </g>
     <g id="line2d_44">
      <g>
       <use xlink:href="#m7780526cc1" x="277.933167" y="3.6" style="stroke: #000000; stroke-width: 0.5"/>
      </g>
     </g>
    </g>
    <g id="xtick_23">
     <g id="line2d_45">
      <g>
       <use xlink:href="#m61f6329bcc" x="290.841896" y="269.712" style="stroke: #000000; stroke-width: 0.5"/>
      </g>
     </g>
     <g id="line2d_46">
      <g>
       <use xlink:href="#m7780526cc1" x="290.841896" y="3.6" style="stroke: #000000; stroke-width: 0.5"/>
      </g>
     </g>
    </g>
    <g id="xtick_24">
     <g id="line2d_47">
      <g>
       <use xlink:href="#m61f6329bcc" x="316.659355" y="269.712" style="stroke: #000000; stroke-width: 0.5"/>
      </g>
     </g>
     <g id="line2d_48">
      <g>
       <use xlink:href="#m7780526cc1" x="316.659355" y="3.6" style="stroke: #000000; stroke-width: 0.5"/>
      </g>
     </g>
    </g>
    <g id="xtick_25">
     <g id="line2d_49">
      <g>
       <use xlink:href="#m61f6329bcc" x="329.568084" y="269.712" style="stroke: #000000; stroke-width: 0.5"/>
      </g>
     </g>
     <g id="line2d_50">
      <g>
       <use xlink:href="#m7780526cc1" x="329.568084" y="3.6" style="stroke: #000000; stroke-width: 0.5"/>
      </g>
     </g>
    </g>
    <g id="xtick_26">
     <g id="line2d_51">
      <g>
       <use xlink:href="#m61f6329bcc" x="342.476814" y="269.712" style="stroke: #000000; stroke-width: 0.5"/>
      </g>
     </g>
     <g id="line2d_52">
      <g>
       <use xlink:href="#m7780526cc1" x="342.476814" y="3.6" style="stroke: #000000; stroke-width: 0.5"/>
      </g>
     </g>
    </g>
    <g id="xtick_27">
     <g id="line2d_53">
      <g>
       <use xlink:href="#m61f6329bcc" x="355.385543" y="269.712" style="stroke: #000000; stroke-width: 0.5"/>
      </g>
     </g>
     <g id="line2d_54">
      <g>
       <use xlink:href="#m7780526cc1" x="355.385543" y="3.6" style="stroke: #000000; stroke-width: 0.5"/>
      </g>
     </g>
    </g>
    <g id="xtick_28">
     <g id="line2d_55">
      <g>
       <use xlink:href="#m61f6329bcc" x="381.203002" y="269.712" style="stroke: #000000; stroke-width: 0.5"/>
      </g>
     </g>
     <g id="line2d_56">
      <g>
       <use xlink:href="#m7780526cc1" x="381.203002" y="3.6" style="stroke: #000000; stroke-width: 0.5"/>
      </g>
     </g>
    </g>
    <g id="text_7">
     <!-- days -->
     <g transform="translate(193.294214 295.148446) scale(0.16 -0.16)">
      <defs>
       <path id="NimbusRomNo9L-Regu-64" d="M 2202 -64 
L 3142 269 
L 3142 365 
C 3027 365 3014 365 2995 365 
C 2765 365 2714 435 2714 731 
L 2714 4364 
L 2682 4377 
C 2374 4268 2150 4204 1741 4096 
L 1741 3994 
C 1792 4000 1830 4000 1882 4000 
C 2118 4000 2176 3936 2176 3672 
L 2176 2669 
C 1933 2874 1760 2944 1504 2944 
C 768 2944 173 2221 173 1312 
C 173 493 653 -64 1357 -64 
C 1715 -64 1958 64 2176 365 
L 2176 -45 
L 2202 -64 
z
M 2176 653 
C 2176 608 2131 531 2067 461 
C 1952 333 1792 269 1606 269 
C 1075 269 723 781 723 1568 
C 723 2291 1037 2765 1523 2765 
C 1862 2765 2176 2464 2176 2125 
L 2176 653 
z
" transform="scale(0.015625)"/>
       <path id="NimbusRomNo9L-Regu-61" d="M 2829 423 
C 2720 333 2643 301 2547 301 
C 2400 301 2355 390 2355 672 
L 2355 1920 
C 2355 2253 2323 2438 2227 2592 
C 2086 2822 1811 2944 1434 2944 
C 832 2944 358 2630 358 2227 
C 358 2080 486 1952 634 1952 
C 787 1952 922 2080 922 2221 
C 922 2246 915 2278 909 2323 
C 896 2381 890 2432 890 2477 
C 890 2650 1094 2790 1350 2790 
C 1664 2790 1837 2605 1837 2259 
L 1837 1869 
C 851 1472 742 1421 467 1178 
C 326 1050 237 832 237 621 
C 237 218 518 -64 909 -64 
C 1190 -64 1453 70 1843 403 
C 1875 70 1990 -64 2253 -64 
C 2470 -64 2605 13 2829 256 
L 2829 423 
z
M 1837 783 
C 1837 584 1805 526 1670 449 
C 1517 359 1338 301 1203 301 
C 979 301 800 520 800 796 
L 800 822 
C 800 1201 1062 1433 1837 1715 
L 1837 783 
z
" transform="scale(0.015625)"/>
       <path id="NimbusRomNo9L-Regu-79" d="M 3040 2880 
L 2176 2880 
L 2176 2784 
C 2381 2784 2483 2726 2483 2623 
C 2483 2597 2477 2559 2458 2514 
L 1837 742 
L 1101 2377 
C 1062 2468 1037 2552 1037 2622 
C 1037 2739 1133 2784 1408 2784 
L 1408 2880 
L 90 2880 
L 90 2790 
C 256 2765 365 2694 416 2585 
L 1146 1005 
L 1165 953 
L 1261 761 
C 1440 440 1542 209 1542 112 
C 1542 16 1395 -389 1286 -582 
C 1197 -749 1056 -871 966 -871 
C 928 -871 870 -858 806 -826 
C 685 -781 576 -755 467 -755 
C 320 -755 192 -883 192 -1037 
C 192 -1248 397 -1408 666 -1408 
C 1094 -1408 1402 -1049 1747 -124 
L 2733 2495 
C 2816 2701 2886 2765 3040 2784 
L 3040 2880 
z
" transform="scale(0.015625)"/>
       <path id="NimbusRomNo9L-Regu-73" d="M 2016 2010 
L 1990 2880 
L 1920 2880 
L 1907 2867 
C 1850 2822 1843 2816 1818 2816 
C 1779 2816 1715 2829 1645 2861 
C 1504 2915 1363 2944 1197 2944 
C 691 2944 326 2616 326 2154 
C 326 1796 531 1539 1075 1231 
L 1446 1020 
C 1670 892 1779 737 1779 539 
C 1779 256 1574 77 1248 77 
C 1030 77 832 159 710 298 
C 576 455 518 600 435 960 
L 333 960 
L 333 -39 
L 416 -39 
C 461 33 486 48 563 48 
C 621 48 710 35 858 -2 
C 1037 -39 1210 -64 1325 -64 
C 1818 -64 2227 308 2227 757 
C 2227 1077 2074 1289 1690 1520 
L 998 1930 
C 819 2033 723 2194 723 2367 
C 723 2624 922 2803 1216 2803 
C 1581 2803 1773 2583 1920 2010 
L 2016 2010 
z
" transform="scale(0.015625)"/>
      </defs>
      <use xlink:href="#NimbusRomNo9L-Regu-64" transform="scale(0.996264)"/>
      <use xlink:href="#NimbusRomNo9L-Regu-61" transform="translate(49.8132 0) scale(0.996264)"/>
      <use xlink:href="#NimbusRomNo9L-Regu-79" transform="translate(94.046769 0) scale(0.996264)"/>
      <use xlink:href="#NimbusRomNo9L-Regu-73" transform="translate(143.85997 0) scale(0.996264)"/>
     </g>
    </g>
   </g>
   <g id="matplotlib.axis_2">
    <g id="ytick_1">
     <g id="line2d_57">
      <defs>
       <path id="m0c6ef70204" d="M 0 0 
L 3 0 
" style="stroke: #000000; stroke-width: 0.5"/>
      </defs>
      <g>
       <use xlink:href="#m0c6ef70204" x="29.343309" y="257.720876" style="stroke: #000000; stroke-width: 0.5"/>
      </g>
     </g>
     <g id="line2d_58">
      <defs>
       <path id="m5680cdd4bd" d="M 0 0 
L -3 0 
" style="stroke: #000000; stroke-width: 0.5"/>
      </defs>
      <g>
       <use xlink:href="#m5680cdd4bd" x="386.463309" y="257.720876" style="stroke: #000000; stroke-width: 0.5"/>
      </g>
     </g>
     <g id="text_8">
      <!-- $\mathdefault{0}$ -->
      <g transform="translate(21.858253 260.422704) scale(0.08 -0.08)">
       <use xlink:href="#NimbusRomNo9L-Regu-30" transform="scale(0.996264)"/>
      </g>
     </g>
    </g>
    <g id="ytick_2">
     <g id="line2d_59">
      <g>
       <use xlink:href="#m0c6ef70204" x="29.343309" y="214.810328" style="stroke: #000000; stroke-width: 0.5"/>
      </g>
     </g>
     <g id="line2d_60">
      <g>
       <use xlink:href="#m5680cdd4bd" x="386.463309" y="214.810328" style="stroke: #000000; stroke-width: 0.5"/>
      </g>
     </g>
     <g id="text_9">
      <!-- $\mathdefault{1}$ -->
      <g transform="translate(21.858253 217.512156) scale(0.08 -0.08)">
       <use xlink:href="#NimbusRomNo9L-Regu-31" transform="scale(0.996264)"/>
      </g>
     </g>
    </g>
    <g id="ytick_3">
     <g id="line2d_61">
      <g>
       <use xlink:href="#m0c6ef70204" x="29.343309" y="171.89978" style="stroke: #000000; stroke-width: 0.5"/>
      </g>
     </g>
     <g id="line2d_62">
      <g>
       <use xlink:href="#m5680cdd4bd" x="386.463309" y="171.89978" style="stroke: #000000; stroke-width: 0.5"/>
      </g>
     </g>
     <g id="text_10">
      <!-- $\mathdefault{2}$ -->
      <g transform="translate(21.858253 174.601608) scale(0.08 -0.08)">
       <use xlink:href="#NimbusRomNo9L-Regu-32" transform="scale(0.996264)"/>
      </g>
     </g>
    </g>
    <g id="ytick_4">
     <g id="line2d_63">
      <g>
       <use xlink:href="#m0c6ef70204" x="29.343309" y="128.989232" style="stroke: #000000; stroke-width: 0.5"/>
      </g>
     </g>
     <g id="line2d_64">
      <g>
       <use xlink:href="#m5680cdd4bd" x="386.463309" y="128.989232" style="stroke: #000000; stroke-width: 0.5"/>
      </g>
     </g>
     <g id="text_11">
      <!-- $\mathdefault{3}$ -->
      <g transform="translate(21.858253 131.69106) scale(0.08 -0.08)">
       <use xlink:href="#NimbusRomNo9L-Regu-33" transform="scale(0.996264)"/>
      </g>
     </g>
    </g>
    <g id="ytick_5">
     <g id="line2d_65">
      <g>
       <use xlink:href="#m0c6ef70204" x="29.343309" y="86.078684" style="stroke: #000000; stroke-width: 0.5"/>
      </g>
     </g>
     <g id="line2d_66">
      <g>
       <use xlink:href="#m5680cdd4bd" x="386.463309" y="86.078684" style="stroke: #000000; stroke-width: 0.5"/>
      </g>
     </g>
     <g id="text_12">
      <!-- $\mathdefault{4}$ -->
      <g transform="translate(21.858253 88.780512) scale(0.08 -0.08)">
       <use xlink:href="#NimbusRomNo9L-Regu-34" transform="scale(0.996264)"/>
      </g>
     </g>
    </g>
    <g id="ytick_6">
     <g id="line2d_67">
      <g>
       <use xlink:href="#m0c6ef70204" x="29.343309" y="43.168137" style="stroke: #000000; stroke-width: 0.5"/>
      </g>
     </g>
     <g id="line2d_68">
      <g>
       <use xlink:href="#m5680cdd4bd" x="386.463309" y="43.168137" style="stroke: #000000; stroke-width: 0.5"/>
      </g>
     </g>
     <g id="text_13">
      <!-- $\mathdefault{5}$ -->
      <g transform="translate(21.858253 45.869965) scale(0.08 -0.08)">
       <use xlink:href="#NimbusRomNo9L-Regu-35" transform="scale(0.996264)"/>
      </g>
     </g>
    </g>
    <g id="ytick_7">
     <g id="line2d_69">
      <defs>
       <path id="m2c014716f8" d="M 0 0 
L 1.5 0 
" style="stroke: #000000; stroke-width: 0.5"/>
      </defs>
      <g>
       <use xlink:href="#m2c014716f8" x="29.343309" y="266.302985" style="stroke: #000000; stroke-width: 0.5"/>
      </g>
     </g>
     <g id="line2d_70">
      <defs>
       <path id="me327c8cf6c" d="M 0 0 
L -1.5 0 
" style="stroke: #000000; stroke-width: 0.5"/>
      </defs>
      <g>
       <use xlink:href="#me327c8cf6c" x="386.463309" y="266.302985" style="stroke: #000000; stroke-width: 0.5"/>
      </g>
     </g>
    </g>
    <g id="ytick_8">
     <g id="line2d_71">
      <g>
       <use xlink:href="#m2c014716f8" x="29.343309" y="249.138766" style="stroke: #000000; stroke-width: 0.5"/>
      </g>
     </g>
     <g id="line2d_72">
      <g>
       <use xlink:href="#me327c8cf6c" x="386.463309" y="249.138766" style="stroke: #000000; stroke-width: 0.5"/>
      </g>
     </g>
    </g>
    <g id="ytick_9">
     <g id="line2d_73">
      <g>
       <use xlink:href="#m2c014716f8" x="29.343309" y="240.556657" style="stroke: #000000; stroke-width: 0.5"/>
      </g>
     </g>
     <g id="line2d_74">
      <g>
       <use xlink:href="#me327c8cf6c" x="386.463309" y="240.556657" style="stroke: #000000; stroke-width: 0.5"/>
      </g>
     </g>
    </g>
    <g id="ytick_10">
     <g id="line2d_75">
      <g>
       <use xlink:href="#m2c014716f8" x="29.343309" y="231.974547" style="stroke: #000000; stroke-width: 0.5"/>
      </g>
     </g>
     <g id="line2d_76">
      <g>
       <use xlink:href="#me327c8cf6c" x="386.463309" y="231.974547" style="stroke: #000000; stroke-width: 0.5"/>
      </g>
     </g>
    </g>
    <g id="ytick_11">
     <g id="line2d_77">
      <g>
       <use xlink:href="#m2c014716f8" x="29.343309" y="223.392438" style="stroke: #000000; stroke-width: 0.5"/>
      </g>
     </g>
     <g id="line2d_78">
      <g>
       <use xlink:href="#me327c8cf6c" x="386.463309" y="223.392438" style="stroke: #000000; stroke-width: 0.5"/>
      </g>
     </g>
    </g>
    <g id="ytick_12">
     <g id="line2d_79">
      <g>
       <use xlink:href="#m2c014716f8" x="29.343309" y="206.228218" style="stroke: #000000; stroke-width: 0.5"/>
      </g>
     </g>
     <g id="line2d_80">
      <g>
       <use xlink:href="#me327c8cf6c" x="386.463309" y="206.228218" style="stroke: #000000; stroke-width: 0.5"/>
      </g>
     </g>
    </g>
    <g id="ytick_13">
     <g id="line2d_81">
      <g>
       <use xlink:href="#m2c014716f8" x="29.343309" y="197.646109" style="stroke: #000000; stroke-width: 0.5"/>
      </g>
     </g>
     <g id="line2d_82">
      <g>
       <use xlink:href="#me327c8cf6c" x="386.463309" y="197.646109" style="stroke: #000000; stroke-width: 0.5"/>
      </g>
     </g>
    </g>
    <g id="ytick_14">
     <g id="line2d_83">
      <g>
       <use xlink:href="#m2c014716f8" x="29.343309" y="189.063999" style="stroke: #000000; stroke-width: 0.5"/>
      </g>
     </g>
     <g id="line2d_84">
      <g>
       <use xlink:href="#me327c8cf6c" x="386.463309" y="189.063999" style="stroke: #000000; stroke-width: 0.5"/>
      </g>
     </g>
    </g>
    <g id="ytick_15">
     <g id="line2d_85">
      <g>
       <use xlink:href="#m2c014716f8" x="29.343309" y="180.48189" style="stroke: #000000; stroke-width: 0.5"/>
      </g>
     </g>
     <g id="line2d_86">
      <g>
       <use xlink:href="#me327c8cf6c" x="386.463309" y="180.48189" style="stroke: #000000; stroke-width: 0.5"/>
      </g>
     </g>
    </g>
    <g id="ytick_16">
     <g id="line2d_87">
      <g>
       <use xlink:href="#m2c014716f8" x="29.343309" y="163.317671" style="stroke: #000000; stroke-width: 0.5"/>
      </g>
     </g>
     <g id="line2d_88">
      <g>
       <use xlink:href="#me327c8cf6c" x="386.463309" y="163.317671" style="stroke: #000000; stroke-width: 0.5"/>
      </g>
     </g>
    </g>
    <g id="ytick_17">
     <g id="line2d_89">
      <g>
       <use xlink:href="#m2c014716f8" x="29.343309" y="154.735561" style="stroke: #000000; stroke-width: 0.5"/>
      </g>
     </g>
     <g id="line2d_90">
      <g>
       <use xlink:href="#me327c8cf6c" x="386.463309" y="154.735561" style="stroke: #000000; stroke-width: 0.5"/>
      </g>
     </g>
    </g>
    <g id="ytick_18">
     <g id="line2d_91">
      <g>
       <use xlink:href="#m2c014716f8" x="29.343309" y="146.153451" style="stroke: #000000; stroke-width: 0.5"/>
      </g>
     </g>
     <g id="line2d_92">
      <g>
       <use xlink:href="#me327c8cf6c" x="386.463309" y="146.153451" style="stroke: #000000; stroke-width: 0.5"/>
      </g>
     </g>
    </g>
    <g id="ytick_19">
     <g id="line2d_93">
      <g>
       <use xlink:href="#m2c014716f8" x="29.343309" y="137.571342" style="stroke: #000000; stroke-width: 0.5"/>
      </g>
     </g>
     <g id="line2d_94">
      <g>
       <use xlink:href="#me327c8cf6c" x="386.463309" y="137.571342" style="stroke: #000000; stroke-width: 0.5"/>
      </g>
     </g>
    </g>
    <g id="ytick_20">
     <g id="line2d_95">
      <g>
       <use xlink:href="#m2c014716f8" x="29.343309" y="120.407123" style="stroke: #000000; stroke-width: 0.5"/>
      </g>
     </g>
     <g id="line2d_96">
      <g>
       <use xlink:href="#me327c8cf6c" x="386.463309" y="120.407123" style="stroke: #000000; stroke-width: 0.5"/>
      </g>
     </g>
    </g>
    <g id="ytick_21">
     <g id="line2d_97">
      <g>
       <use xlink:href="#m2c014716f8" x="29.343309" y="111.825013" style="stroke: #000000; stroke-width: 0.5"/>
      </g>
     </g>
     <g id="line2d_98">
      <g>
       <use xlink:href="#me327c8cf6c" x="386.463309" y="111.825013" style="stroke: #000000; stroke-width: 0.5"/>
      </g>
     </g>
    </g>
    <g id="ytick_22">
     <g id="line2d_99">
      <g>
       <use xlink:href="#m2c014716f8" x="29.343309" y="103.242904" style="stroke: #000000; stroke-width: 0.5"/>
      </g>
     </g>
     <g id="line2d_100">
      <g>
       <use xlink:href="#me327c8cf6c" x="386.463309" y="103.242904" style="stroke: #000000; stroke-width: 0.5"/>
      </g>
     </g>
    </g>
    <g id="ytick_23">
     <g id="line2d_101">
      <g>
       <use xlink:href="#m2c014716f8" x="29.343309" y="94.660794" style="stroke: #000000; stroke-width: 0.5"/>
      </g>
     </g>
     <g id="line2d_102">
      <g>
       <use xlink:href="#me327c8cf6c" x="386.463309" y="94.660794" style="stroke: #000000; stroke-width: 0.5"/>
      </g>
     </g>
    </g>
    <g id="ytick_24">
     <g id="line2d_103">
      <g>
       <use xlink:href="#m2c014716f8" x="29.343309" y="77.496575" style="stroke: #000000; stroke-width: 0.5"/>
      </g>
     </g>
     <g id="line2d_104">
      <g>
       <use xlink:href="#me327c8cf6c" x="386.463309" y="77.496575" style="stroke: #000000; stroke-width: 0.5"/>
      </g>
     </g>
    </g>
    <g id="ytick_25">
     <g id="line2d_105">
      <g>
       <use xlink:href="#m2c014716f8" x="29.343309" y="68.914465" style="stroke: #000000; stroke-width: 0.5"/>
      </g>
     </g>
     <g id="line2d_106">
      <g>
       <use xlink:href="#me327c8cf6c" x="386.463309" y="68.914465" style="stroke: #000000; stroke-width: 0.5"/>
      </g>
     </g>
    </g>
    <g id="ytick_26">
     <g id="line2d_107">
      <g>
       <use xlink:href="#m2c014716f8" x="29.343309" y="60.332356" style="stroke: #000000; stroke-width: 0.5"/>
      </g>
     </g>
     <g id="line2d_108">
      <g>
       <use xlink:href="#me327c8cf6c" x="386.463309" y="60.332356" style="stroke: #000000; stroke-width: 0.5"/>
      </g>
     </g>
    </g>
    <g id="ytick_27">
     <g id="line2d_109">
      <g>
       <use xlink:href="#m2c014716f8" x="29.343309" y="51.750246" style="stroke: #000000; stroke-width: 0.5"/>
      </g>
     </g>
     <g id="line2d_110">
      <g>
       <use xlink:href="#me327c8cf6c" x="386.463309" y="51.750246" style="stroke: #000000; stroke-width: 0.5"/>
      </g>
     </g>
    </g>
    <g id="ytick_28">
     <g id="line2d_111">
      <g>
       <use xlink:href="#m2c014716f8" x="29.343309" y="34.586027" style="stroke: #000000; stroke-width: 0.5"/>
      </g>
     </g>
     <g id="line2d_112">
      <g>
       <use xlink:href="#me327c8cf6c" x="386.463309" y="34.586027" style="stroke: #000000; stroke-width: 0.5"/>
      </g>
     </g>
    </g>
    <g id="ytick_29">
     <g id="line2d_113">
      <g>
       <use xlink:href="#m2c014716f8" x="29.343309" y="26.003918" style="stroke: #000000; stroke-width: 0.5"/>
      </g>
     </g>
     <g id="line2d_114">
      <g>
       <use xlink:href="#me327c8cf6c" x="386.463309" y="26.003918" style="stroke: #000000; stroke-width: 0.5"/>
      </g>
     </g>
    </g>
    <g id="ytick_30">
     <g id="line2d_115">
      <g>
       <use xlink:href="#m2c014716f8" x="29.343309" y="17.421808" style="stroke: #000000; stroke-width: 0.5"/>
      </g>
     </g>
     <g id="line2d_116">
      <g>
       <use xlink:href="#me327c8cf6c" x="386.463309" y="17.421808" style="stroke: #000000; stroke-width: 0.5"/>
      </g>
     </g>
    </g>
    <g id="ytick_31">
     <g id="line2d_117">
      <g>
       <use xlink:href="#m2c014716f8" x="29.343309" y="8.839698" style="stroke: #000000; stroke-width: 0.5"/>
      </g>
     </g>
     <g id="line2d_118">
      <g>
       <use xlink:href="#me327c8cf6c" x="386.463309" y="8.839698" style="stroke: #000000; stroke-width: 0.5"/>
      </g>
     </g>
    </g>
    <g id="text_14">
     <!-- spatial rainfall -->
     <g transform="translate(14.407327 182.395716) rotate(-90) scale(0.16 -0.16)">
      <defs>
       <path id="NimbusRomNo9L-Regu-70" d="M 58 2516 
C 115 2522 160 2522 218 2522 
C 435 2522 480 2458 480 2155 
L 480 -855 
C 480 -1189 410 -1261 32 -1299 
L 32 -1408 
L 1581 -1408 
L 1581 -1293 
C 1101 -1293 1018 -1222 1018 -816 
L 1018 199 
C 1242 -13 1395 -77 1664 -77 
C 2419 -77 3008 643 3008 1575 
C 3008 2372 2560 2944 1939 2944 
C 1581 2944 1299 2784 1018 2438 
L 1018 2931 
L 979 2944 
C 634 2810 410 2726 58 2618 
L 58 2516 
z
M 1018 2136 
C 1018 2329 1376 2560 1670 2560 
C 2144 2560 2458 2071 2458 1324 
C 2458 611 2144 128 1683 128 
C 1382 128 1018 359 1018 552 
L 1018 2136 
z
" transform="scale(0.015625)"/>
       <path id="NimbusRomNo9L-Regu-74" d="M 1632 2880 
L 986 2880 
L 986 3622 
C 986 3686 979 3706 941 3706 
C 896 3648 858 3590 813 3526 
C 570 3174 294 2867 192 2841 
C 122 2794 83 2748 83 2715 
C 83 2695 90 2682 109 2682 
L 448 2682 
L 448 751 
C 448 212 640 -64 1018 -64 
C 1331 -64 1574 90 1786 423 
L 1702 493 
C 1568 333 1459 269 1318 269 
C 1082 269 986 443 986 847 
L 986 2682 
L 1632 2682 
L 1632 2880 
z
" transform="scale(0.015625)"/>
       <path id="NimbusRomNo9L-Regu-69" d="M 1120 2929 
L 128 2579 
L 128 2484 
L 179 2490 
C 256 2502 339 2509 397 2509 
C 550 2509 608 2406 608 2125 
L 608 640 
C 608 179 544 109 102 109 
L 102 0 
L 1619 0 
L 1619 96 
C 1197 128 1146 191 1146 650 
L 1146 2910 
L 1120 2929 
z
M 819 4352 
C 646 4352 499 4205 499 4026 
C 499 3847 640 3699 819 3699 
C 1005 3699 1152 3840 1152 4026 
C 1152 4205 1005 4352 819 4352 
z
" transform="scale(0.015625)"/>
       <path id="NimbusRomNo9L-Regu-6c" d="M 122 4000 
L 160 4000 
C 230 4000 307 4000 358 4000 
C 563 4000 627 3910 627 3610 
L 627 557 
C 627 211 538 128 134 96 
L 134 0 
L 1645 0 
L 1645 109 
C 1242 109 1165 173 1165 528 
L 1165 4371 
L 1139 4384 
C 806 4275 563 4211 122 4103 
L 122 4000 
z
" transform="scale(0.015625)"/>
       <path id="NimbusRomNo9L-Regu-72" d="M 45 2496 
C 134 2515 192 2522 269 2522 
C 429 2522 486 2419 486 2138 
L 486 538 
C 486 218 442 173 32 96 
L 32 0 
L 1568 0 
L 1568 102 
C 1133 102 1024 199 1024 565 
L 1024 2013 
C 1024 2219 1299 2541 1472 2541 
C 1510 2541 1568 2509 1638 2445 
C 1741 2355 1811 2317 1894 2317 
C 2048 2317 2144 2426 2144 2605 
C 2144 2816 2010 2944 1792 2944 
C 1523 2944 1338 2797 1024 2343 
L 1024 2931 
L 992 2944 
C 653 2803 422 2721 45 2599 
L 45 2496 
z
" transform="scale(0.015625)"/>
       <path id="NimbusRomNo9L-Regu-6e" d="M 102 2579 
C 141 2598 205 2605 275 2605 
C 454 2605 512 2509 512 2195 
L 512 608 
C 512 243 442 154 115 128 
L 115 32 
L 1472 32 
L 1472 128 
C 1146 154 1050 230 1050 461 
L 1050 2259 
C 1357 2547 1498 2624 1709 2624 
C 2022 2624 2176 2426 2176 2003 
L 2176 666 
C 2176 262 2093 154 1773 128 
L 1773 32 
L 3104 32 
L 3104 128 
C 2790 160 2714 237 2714 550 
L 2714 2016 
C 2714 2618 2432 2976 1958 2976 
C 1664 2976 1466 2867 1030 2458 
L 1030 2963 
L 986 2976 
C 672 2861 454 2790 102 2688 
L 102 2579 
z
" transform="scale(0.015625)"/>
       <path id="NimbusRomNo9L-Regu-66" d="M 1978 2880 
L 1190 2880 
L 1190 3611 
C 1190 3978 1312 4173 1555 4173 
C 1690 4173 1779 4110 1894 3927 
C 1997 3763 2074 3700 2182 3700 
C 2330 3700 2451 3814 2451 3959 
C 2451 4188 2170 4352 1786 4352 
C 1389 4352 1050 4181 883 3891 
C 717 3613 666 3385 659 2880 
L 134 2880 
L 134 2675 
L 659 2675 
L 659 656 
C 659 185 589 109 128 109 
L 128 0 
L 1792 0 
L 1792 109 
C 1267 109 1197 180 1197 661 
L 1197 2675 
L 1978 2675 
L 1978 2880 
z
" transform="scale(0.015625)"/>
      </defs>
      <use xlink:href="#NimbusRomNo9L-Regu-73" transform="scale(0.996264)"/>
      <use xlink:href="#NimbusRomNo9L-Regu-70" transform="translate(38.753706 0) scale(0.996264)"/>
      <use xlink:href="#NimbusRomNo9L-Regu-61" transform="translate(88.566907 0) scale(0.996264)"/>
      <use xlink:href="#NimbusRomNo9L-Regu-74" transform="translate(132.800475 0) scale(0.996264)"/>
      <use xlink:href="#NimbusRomNo9L-Regu-69" transform="translate(160.495645 0) scale(0.996264)"/>
      <use xlink:href="#NimbusRomNo9L-Regu-61" transform="translate(188.190815 0) scale(0.996264)"/>
      <use xlink:href="#NimbusRomNo9L-Regu-6c" transform="translate(232.424383 0) scale(0.996264)"/>
      <use xlink:href="#NimbusRomNo9L-Regu-72" transform="translate(285.026153 0) scale(0.996264)"/>
      <use xlink:href="#NimbusRomNo9L-Regu-61" transform="translate(318.201383 0) scale(0.996264)"/>
      <use xlink:href="#NimbusRomNo9L-Regu-69" transform="translate(362.434952 0) scale(0.996264)"/>
      <use xlink:href="#NimbusRomNo9L-Regu-6e" transform="translate(390.130121 0) scale(0.996264)"/>
      <use xlink:href="#NimbusRomNo9L-Regu-66" transform="translate(439.943322 0) scale(0.996264)"/>
      <use xlink:href="#NimbusRomNo9L-Regu-61" transform="translate(472.122455 0) scale(0.996264)"/>
      <use xlink:href="#NimbusRomNo9L-Regu-6c" transform="translate(516.356023 0) scale(0.996264)"/>
      <use xlink:href="#NimbusRomNo9L-Regu-6c" transform="translate(544.051193 0) scale(0.996264)"/>
     </g>
    </g>
   </g>
   <g id="line2d_119">
    <path d="M 45.576037 108.110539 
L 46.221473 112.113299 
L 47.512346 61.477193 
L 48.157783 56.613715 
L 48.803219 69.200675 
L 49.448655 86.221791 
L 50.094092 90.441299 
L 50.739528 83.968936 
L 51.384965 87.169335 
L 52.030401 95.206111 
L 52.675838 105.661091 
L 53.321274 121.616212 
L 53.966711 86.683235 
L 54.612147 82.089909 
L 55.257584 73.35666 
L 55.90302 79.717662 
L 56.548457 97.916871 
L 57.193893 145.635957 
L 57.83933 165.20445 
L 59.130203 224.936898 
L 59.775639 226.310197 
L 61.066512 173.701985 
L 61.711948 123.453753 
L 62.357385 104.766214 
L 63.002821 108.295611 
L 63.648258 116.496897 
L 64.293694 129.179646 
L 64.939131 124.793378 
L 65.584567 126.89131 
L 66.230004 121.503685 
L 66.87544 131.68304 
L 67.520877 102.444281 
L 68.166313 85.679361 
L 68.81175 60.132698 
L 69.457186 62.378065 
L 70.102623 59.209666 
L 70.748059 70.49866 
L 71.393496 84.725248 
L 72.038932 78.96538 
L 72.684368 71.794395 
L 73.329805 85.373116 
L 73.975241 109.32671 
L 74.620678 110.575854 
L 75.911551 120.094829 
L 76.556987 141.706254 
L 77.202424 173.967235 
L 77.84786 155.769284 
L 78.493297 153.106895 
L 79.138733 153.921226 
L 79.78417 160.764983 
L 80.429606 172.768963 
L 81.075043 155.170156 
L 81.720479 152.807331 
L 82.365916 173.081193 
L 83.011352 181.072595 
L 83.656789 167.904079 
L 84.302225 174.192985 
L 84.947661 185.919545 
L 85.593098 161.74545 
L 86.238534 128.203118 
L 86.883971 135.032756 
L 87.529407 147.029692 
L 88.174844 146.591574 
L 88.82028 144.226979 
L 89.465717 145.190217 
L 90.111153 201.455547 
L 90.75659 184.532138 
L 92.047463 161.111946 
L 92.692899 170.796914 
L 93.983772 200.588681 
L 94.629209 190.535287 
L 95.274645 166.198841 
L 95.920081 160.467199 
L 96.565518 161.892434 
L 97.210954 166.896112 
L 97.856391 186.562164 
L 98.501827 187.813084 
L 99.147264 182.00196 
L 99.7927 164.077705 
L 100.438137 183.007435 
L 101.083573 194.617826 
L 101.72901 174.676691 
L 102.374446 166.85166 
L 103.019883 167.230195 
L 103.665319 176.001569 
L 104.310756 195.405946 
L 104.956192 185.798393 
L 105.601629 163.830399 
L 106.247065 165.719564 
L 106.892502 181.682835 
L 107.537938 183.227891 
L 108.183374 186.145945 
L 108.828811 174.731809 
L 109.474247 184.043429 
L 110.119684 197.281351 
L 110.76512 216.773476 
L 111.410557 217.93743 
L 112.055993 207.79177 
L 112.70143 202.718937 
L 113.992303 210.714719 
L 114.637739 197.743833 
L 115.283176 206.277078 
L 115.928612 227.707926 
L 116.574049 216.968071 
L 117.219485 196.579455 
L 117.864922 194.967254 
L 118.510358 207.034317 
L 119.155794 200.194688 
L 119.801231 203.211452 
L 120.446667 200.428781 
L 121.092104 201.182971 
L 121.73754 207.996649 
L 122.382977 209.257958 
L 123.028413 209.888618 
L 123.67385 210.203942 
L 124.319286 216.798191 
L 124.964723 226.5319 
L 125.610159 231.398749 
L 126.255596 231.68665 
L 126.901032 236.121656 
L 127.546469 229.757048 
L 128.191905 235.156853 
L 128.837342 235.711227 
L 129.482778 246.716053 
L 130.128215 247.92741 
L 130.773651 244.242036 
L 131.419087 250.981455 
L 132.064524 254.351167 
L 133.355397 213.967899 
L 134.000833 225.116753 
L 134.64627 230.69118 
L 135.291706 216.31417 
L 135.937143 194.106978 
L 137.873452 243.868944 
L 138.518889 250.794904 
L 139.164325 252.112369 
L 139.809762 244.18898 
L 140.455198 233.79071 
L 141.100635 211.427357 
L 141.746071 230.283063 
L 142.391507 231.128802 
L 143.036944 240.133782 
L 143.68238 229.617583 
L 144.327817 226.505009 
L 144.973253 224.948724 
L 145.61869 230.607166 
L 146.264126 242.018486 
L 146.909563 236.996521 
L 147.554999 234.485537 
L 148.845872 213.292546 
L 149.491309 235.506711 
L 150.136745 244.468267 
L 150.782182 244.65799 
L 151.427618 242.607323 
L 152.073055 250.164101 
L 152.718491 253.942488 
L 153.363928 242.958516 
L 154.009364 235.321004 
L 154.6548 214.338029 
L 155.300237 203.846542 
L 155.945673 198.6008 
L 156.59111 206.705564 
L 157.881983 226.730063 
L 158.527419 222.915726 
L 159.172856 208.135388 
L 159.818292 232.928137 
L 160.463729 241.033447 
L 161.109165 238.649526 
L 161.754602 220.293349 
L 163.045475 241.927408 
L 164.336348 252.699743 
L 164.981784 253.064783 
L 166.272657 202.918666 
L 166.918093 176.681586 
L 167.56353 176.436214 
L 168.208966 195.623271 
L 168.854403 190.198109 
L 169.499839 215.377383 
L 170.145276 197.929638 
L 170.790712 199.933402 
L 171.436149 198.789756 
L 172.727022 206.514128 
L 173.372458 212.807756 
L 174.017895 230.97326 
L 174.663331 218.600741 
L 175.308768 225.287646 
L 175.954204 222.194515 
L 176.59964 235.666642 
L 177.245077 223.092957 
L 177.890513 191.059787 
L 178.53595 202.935055 
L 179.181386 208.872692 
L 179.826823 222.569147 
L 180.472259 229.417374 
L 181.117696 207.095158 
L 181.763132 193.788528 
L 182.408569 219.318121 
L 183.054005 219.20975 
L 183.699442 189.118185 
L 184.344878 165.490295 
L 184.990315 168.695032 
L 186.281188 153.934373 
L 186.926624 130.734165 
L 187.572061 138.443805 
L 188.217497 198.082341 
L 188.862933 227.901608 
L 189.50837 242.811246 
L 190.153806 250.26606 
L 190.799243 253.993472 
L 191.444679 255.857174 
L 192.090116 256.789024 
L 192.735552 257.254949 
L 194.026425 257.604393 
L 194.671862 255.517111 
L 195.317298 230.872662 
L 195.962735 244.296765 
L 196.608171 251.008822 
L 197.253608 254.364851 
L 197.899044 256.04286 
L 198.544481 256.881867 
L 199.189917 257.301371 
L 200.48079 257.616 
L 201.126226 212.612365 
L 201.771663 235.166618 
L 202.417099 246.443748 
L 203.062536 252.082311 
L 204.353409 159.7625 
L 204.998845 152.957978 
L 205.644282 171.010991 
L 206.289718 184.328548 
L 206.935155 201.714966 
L 207.580591 186.807373 
L 208.226028 198.66332 
L 208.871464 178.844969 
L 209.516901 153.917103 
L 210.162337 122.143419 
L 210.807774 106.256577 
L 211.45321 104.749742 
L 212.098646 116.869487 
L 212.744083 103.619611 
L 213.389519 103.431254 
L 214.034956 120.501294 
L 214.680392 180.528978 
L 215.325829 139.74041 
L 215.971265 132.219291 
L 216.616702 91.984769 
L 217.262138 140.524386 
L 217.907575 162.648664 
L 218.553011 188.729496 
L 219.198448 191.042278 
L 219.843884 181.471029 
L 220.489321 176.685402 
L 221.134757 146.400731 
L 221.780194 84.056797 
L 222.42563 85.06773 
L 223.071066 104.882956 
L 223.716503 161.992172 
L 224.361939 164.800451 
L 225.007376 146.894842 
L 225.652812 86.449383 
L 226.298249 56.226648 
L 226.943685 69.007131 
L 227.589122 146.19979 
L 228.234558 169.777417 
L 228.879995 147.237804 
L 229.525431 138.113518 
L 230.170868 174.316393 
L 230.816304 175.253614 
L 231.461741 160.703537 
L 232.107177 170.59271 
L 232.752614 186.264938 
L 233.39805 198.392105 
L 234.688923 149.558244 
L 235.334359 160.729012 
L 235.979796 194.206251 
L 236.625232 210.944873 
L 237.270669 193.567852 
L 237.916105 199.898034 
L 238.561542 166.589161 
L 239.206978 179.972108 
L 239.852415 180.227 
L 240.497851 195.373136 
L 241.143288 185.781983 
L 241.788724 138.075859 
L 242.434161 118.513853 
L 243.079597 104.441799 
L 243.725034 142.46184 
L 244.37047 165.762922 
L 245.015907 108.756585 
L 245.661343 80.253422 
L 246.306779 141.095289 
L 246.952216 167.225171 
L 247.597652 210.327493 
L 248.243089 229.733134 
L 248.888525 230.853842 
L 249.533962 237.850777 
L 250.179398 237.058186 
L 250.824835 215.206623 
L 251.470271 230.027168 
L 252.115708 188.090309 
L 252.761144 169.267408 
L 253.406581 162.001482 
L 254.052017 143.349832 
L 254.697454 142.606113 
L 255.34289 187.290332 
L 255.988327 205.341386 
L 256.633763 229.385603 
L 257.2792 232.825605 
L 257.924636 210.944802 
L 258.570072 219.314146 
L 259.215509 208.48013 
L 259.860945 222.372866 
L 260.506382 214.300544 
L 261.151818 165.208307 
L 261.797255 140.662183 
L 262.442691 164.863093 
L 263.088128 155.508269 
L 263.733564 189.450354 
L 265.024437 221.343502 
L 265.669874 181.602948 
L 266.31531 178.89689 
L 268.25162 98.217346 
L 268.897056 120.03987 
L 270.187929 200.772588 
L 270.833365 192.772765 
L 271.478802 154.444412 
L 272.124238 139.571297 
L 272.769675 132.134734 
L 273.415111 128.416458 
L 274.060548 83.646772 
L 274.705984 54.825332 
L 275.351421 40.414633 
L 275.996857 91.138519 
L 276.642294 97.190708 
L 277.28773 113.08997 
L 277.933167 110.311964 
L 278.578603 138.960342 
L 279.22404 129.683731 
L 279.869476 116.463319 
L 280.514913 86.252309 
L 281.805785 35.702181 
L 282.451222 43.72622 
L 283.096658 37.010582 
L 283.742095 25.070672 
L 284.387531 23.391757 
L 285.032968 22.55231 
L 285.678404 15.696 
L 287.614714 55.825565 
L 288.26015 51.642386 
L 288.905587 64.569474 
L 289.551023 86.051716 
L 290.19646 77.483079 
L 290.841896 88.217468 
L 291.487333 134.349675 
L 292.132769 157.415788 
L 292.778205 153.930147 
L 293.423642 120.004411 
L 294.714515 76.323125 
L 295.359951 44.726943 
L 296.005388 69.693875 
L 296.650824 49.99443 
L 297.296261 20.834948 
L 298.587134 52.603517 
L 299.23257 75.777687 
L 299.878007 117.402147 
L 300.523443 129.632271 
L 301.16888 137.892863 
L 301.814316 154.896322 
L 302.459753 197.726487 
L 303.750625 234.14017 
L 304.396062 243.784996 
L 305.041498 216.424498 
L 305.686935 228.490578 
L 306.332371 215.213872 
L 306.977808 210.721047 
L 307.623244 210.620157 
L 308.268681 214.86077 
L 308.914117 189.089222 
L 309.559554 174.05792 
L 310.20499 168.687799 
L 310.850427 174.58484 
L 311.495863 188.261003 
L 312.1413 182.22592 
L 312.786736 151.316518 
L 313.432173 148.734992 
L 314.077609 153.880805 
L 314.723046 173.617929 
L 315.368482 164.176748 
L 316.013918 140.146404 
L 316.659355 145.29546 
L 317.304791 143.578927 
L 317.950228 144.866191 
L 318.595664 136.927712 
L 319.241101 139.395053 
L 319.886537 149.21083 
L 320.531974 143.391092 
L 321.17741 157.645436 
L 321.822847 162.627078 
L 322.468283 188.718703 
L 323.11372 195.327937 
L 323.759156 192.195965 
L 324.404593 203.503149 
L 325.050029 191.992518 
L 325.695466 190.528258 
L 326.340902 224.124567 
L 326.986338 193.721118 
L 327.631775 154.918594 
L 328.277211 152.681545 
L 329.568084 197.132607 
L 330.213521 199.534886 
L 330.858957 207.172605 
L 331.504394 213.136994 
L 332.14983 188.227334 
L 332.795267 180.063554 
L 333.440703 203.873525 
L 334.08614 198.61429 
L 334.731576 170.23834 
L 335.377013 164.632484 
L 336.022449 174.702713 
L 336.667886 181.883356 
L 337.313322 176.891565 
L 337.958759 163.668038 
L 338.604195 161.347323 
L 339.249631 170.914607 
L 339.895068 175.69825 
L 340.540504 186.67218 
L 341.185941 192.159145 
L 341.831377 194.902627 
L 342.476814 202.710952 
L 343.12225 219.488277 
L 343.767687 232.167998 
L 344.413123 217.052582 
L 345.05856 205.203819 
L 345.703996 207.861543 
L 346.349433 217.772519 
L 346.994869 199.127204 
L 347.640306 209.114294 
L 348.285742 226.981001 
L 348.931179 231.623302 
L 349.576615 227.507871 
L 350.222051 225.450155 
L 350.867488 220.130242 
L 351.512924 213.179232 
L 352.158361 209.703724 
L 352.803797 216.548084 
L 353.449234 226.406841 
L 354.09467 209.880945 
L 354.740107 199.472474 
L 355.385543 207.141401 
L 356.03098 219.557976 
L 356.676416 225.766262 
L 357.321853 233.161463 
L 357.967289 234.713532 
L 358.612726 235.48957 
L 359.258162 240.168638 
L 359.903599 223.19843 
L 360.549035 212.567795 
L 361.194472 194.379318 
L 361.839908 189.57613 
L 362.485344 187.174536 
L 363.130781 203.13796 
L 363.776217 223.992837 
L 364.421654 219.401582 
L 365.06709 208.523846 
L 365.712527 233.122361 
L 366.357963 245.421617 
L 367.0034 251.571248 
L 367.648836 254.646061 
L 368.294273 256.183471 
L 368.939709 256.952173 
L 369.585146 257.336524 
L 370.230582 242.510009 
L 370.230582 242.510009 
" clip-path="url(#p36a706fc11)" style="fill: none; stroke: #000000; stroke-linecap: square"/>
   </g>
   <g id="line2d_120">
    <path d="M 45.576037 120.92468 
L 46.221473 99.213885 
L 46.86691 103.668074 
L 47.512346 85.032864 
L 48.157783 61.512672 
L 48.803219 60.721269 
L 49.448655 67.068398 
L 50.094092 81.018185 
L 50.739528 87.048481 
L 51.384965 86.304301 
L 52.030401 89.771108 
L 53.321274 114.657944 
L 53.966711 117.262846 
L 54.612147 88.735702 
L 55.257584 100.038242 
L 55.90302 97.251949 
L 56.548457 77.166501 
L 57.193893 107.716136 
L 57.83933 158.791568 
L 58.484766 189.474617 
L 59.130203 182.617631 
L 59.775639 207.351319 
L 60.421076 215.883559 
L 61.066512 193.881509 
L 61.711948 167.652854 
L 62.357385 120.924639 
L 63.002821 100.470406 
L 63.648258 101.889768 
L 64.293694 110.825258 
L 64.939131 124.405738 
L 65.584567 123.594988 
L 66.230004 126.368165 
L 66.87544 122.873613 
L 67.520877 130.783027 
L 68.166313 106.897447 
L 68.81175 89.709018 
L 69.457186 66.819445 
L 70.102623 66.214853 
L 71.393496 71.220271 
L 72.038932 81.509155 
L 72.684368 78.693613 
L 73.329805 73.270477 
L 73.975241 83.808437 
L 74.620678 105.953893 
L 75.266114 110.257445 
L 75.911551 115.613437 
L 76.556987 139.456468 
L 77.202424 177.168724 
L 77.84786 162.933057 
L 78.493297 143.580636 
L 79.138733 142.413091 
L 79.78417 150.488938 
L 80.429606 152.878178 
L 81.075043 164.324796 
L 81.720479 154.723873 
L 82.365916 150.797587 
L 83.011352 167.365812 
L 83.656789 179.899188 
L 84.302225 170.301647 
L 84.947661 174.268124 
L 85.593098 184.59411 
L 86.238534 164.458859 
L 86.883971 132.672724 
L 87.529407 134.074664 
L 88.174844 144.563834 
L 88.82028 146.149455 
L 89.465717 144.903656 
L 90.111153 145.755912 
L 90.75659 189.721636 
L 91.402026 185.038377 
L 92.692899 166.45471 
L 93.338336 174.935957 
L 93.983772 198.431166 
L 94.629209 197.356096 
L 95.274645 186.433657 
L 95.920081 165.740691 
L 96.565518 158.653853 
L 97.210954 159.527829 
L 97.856391 164.698042 
L 98.501827 181.937251 
L 99.147264 186.080463 
L 99.7927 182.925958 
L 100.438137 168.610834 
L 101.083573 181.591802 
L 101.72901 191.735099 
L 102.374446 178.235078 
L 103.019883 169.704923 
L 103.665319 168.410579 
L 104.310756 175.834926 
L 104.956192 191.627672 
L 105.601629 187.229112 
L 106.247065 168.993195 
L 106.892502 167.299149 
L 107.537938 180.012478 
L 108.183374 183.481116 
L 108.828811 186.133335 
L 109.474247 177.560569 
L 110.119684 183.935178 
L 110.76512 195.046113 
L 111.410557 211.468975 
L 112.055993 218.018871 
L 113.346866 204.919458 
L 113.992303 218.507158 
L 114.637739 209.513244 
L 115.283176 197.529536 
L 115.928612 218.589436 
L 116.574049 218.952906 
L 117.219485 211.377211 
L 117.864922 196.069947 
L 118.510358 192.741751 
L 119.155794 202.827055 
L 119.801231 200.606104 
L 120.446667 202.030526 
L 121.092104 200.530658 
L 121.73754 201.139623 
L 122.382977 206.466581 
L 123.028413 208.78747 
L 123.67385 210.068892 
L 124.319286 210.770179 
L 124.964723 215.623897 
L 125.610159 223.343 
L 126.255596 228.570316 
L 126.901032 232.338067 
L 127.546469 242.437637 
L 128.191905 238.525894 
L 128.837342 244.676712 
L 129.482778 242.563705 
L 130.128215 232.120691 
L 130.773651 244.343657 
L 131.419087 233.441988 
L 132.064524 240.271574 
L 132.70996 240.149824 
L 133.355397 230.314164 
L 134.000833 215.372071 
L 134.64627 219.921623 
L 135.291706 227.378176 
L 135.937143 218.77246 
L 136.582579 200.9942 
L 137.228016 209.042705 
L 137.873452 225.266857 
L 138.518889 236.675595 
L 139.164325 243.235589 
L 139.809762 246.170482 
L 140.455198 243.778658 
L 141.100635 237.034778 
L 141.746071 224.532546 
L 142.391507 243.382752 
L 143.036944 232.153204 
L 143.68238 230.934859 
L 144.327817 225.063287 
L 144.973253 224.201328 
L 145.61869 239.664363 
L 146.264126 230.796888 
L 147.554999 226.82593 
L 148.200436 226.303424 
L 148.845872 221.511096 
L 149.491309 215.447359 
L 150.136745 235.998387 
L 150.782182 248.857767 
L 151.427618 249.756813 
L 152.073055 244.381751 
L 152.718491 244.562727 
L 153.363928 234.852311 
L 154.009364 228.304241 
L 154.6548 223.020703 
L 155.300237 209.839163 
L 155.945673 200.943072 
L 156.59111 196.471685 
L 157.236546 203.714627 
L 157.881983 215.087666 
L 158.527419 222.293737 
L 159.172856 221.40684 
L 159.818292 231.298764 
L 160.463729 223.976463 
L 161.109165 228.243323 
L 161.754602 229.099523 
L 162.400038 222.829435 
L 163.045475 237.506274 
L 163.690911 233.281653 
L 164.336348 241.100545 
L 164.981784 245.851285 
L 165.62722 257.165247 
L 166.918093 202.099762 
L 167.56353 175.204282 
L 168.208966 171.217538 
L 168.854403 187.178107 
L 169.499839 187.500107 
L 170.145276 206.922096 
L 170.790712 199.213398 
L 171.436149 199.978401 
L 172.081585 200.161188 
L 172.727022 207.98802 
L 173.372458 206.294133 
L 174.017895 210.778236 
L 174.663331 238.598061 
L 175.308768 219.098619 
L 175.954204 220.092229 
L 176.59964 228.796997 
L 177.245077 228.430048 
L 177.890513 219.170906 
L 178.53595 204.232258 
L 179.181386 202.931321 
L 179.826823 221.476102 
L 180.472259 213.116477 
L 181.117696 215.261907 
L 181.763132 205.425789 
L 182.408569 198.387429 
L 183.054005 209.854304 
L 183.699442 211.217183 
L 184.990315 168.449077 
L 185.635751 167.772748 
L 186.281188 162.177296 
L 186.926624 155.233453 
L 187.572061 134.565194 
L 188.862933 193.250558 
L 190.153806 223.973066 
L 190.799243 235.067355 
L 191.444679 254.757734 
L 192.090116 254.968276 
L 192.735552 242.278831 
L 193.380989 247.820029 
L 194.026425 239.57086 
L 194.671862 246.667002 
L 195.317298 236.79249 
L 195.962735 223.097689 
L 196.608171 230.21373 
L 197.899044 241.33938 
L 198.544481 245.43527 
L 199.189917 248.400119 
L 199.835353 250.483447 
L 200.48079 251.92258 
L 201.126226 254.756686 
L 201.771663 237.330204 
L 202.417099 233.727935 
L 203.707972 243.846646 
L 204.353409 215.367498 
L 204.998845 171.800277 
L 205.644282 157.430715 
L 206.289718 182.072638 
L 206.935155 187.611795 
L 207.580591 215.077594 
L 208.226028 195.883892 
L 208.871464 185.94128 
L 209.516901 170.022933 
L 210.162337 148.423202 
L 210.807774 120.068844 
L 211.45321 104.415875 
L 212.098646 103.864339 
L 212.744083 113.439563 
L 213.389519 103.892095 
L 214.034956 103.640451 
L 214.680392 122.760513 
L 215.325829 176.423973 
L 215.971265 143.137177 
L 216.616702 133.377341 
L 217.262138 133.728622 
L 217.907575 133.088038 
L 218.553011 153.287098 
L 219.843884 205.716923 
L 220.489321 175.202957 
L 221.134757 164.897274 
L 221.780194 139.996361 
L 222.42563 86.996928 
L 223.071066 87.378041 
L 223.716503 126.978281 
L 224.361939 157.830141 
L 225.007376 158.556365 
L 225.652812 144.280639 
L 226.298249 89.481314 
L 226.943685 65.231706 
L 227.589122 89.094441 
L 228.234558 133.030951 
L 228.879995 156.296133 
L 229.525431 146.190061 
L 230.170868 169.057495 
L 230.816304 167.39898 
L 231.461741 162.259213 
L 232.107177 151.890571 
L 232.752614 193.924795 
L 233.39805 197.408779 
L 234.043487 187.014258 
L 234.688923 167.420823 
L 235.334359 166.810379 
L 237.270669 211.226687 
L 237.916105 187.636497 
L 238.561542 185.517664 
L 239.206978 156.993804 
L 239.852415 173.180665 
L 240.497851 185.388583 
L 241.143288 189.747995 
L 241.788724 175.443025 
L 242.434161 134.460299 
L 243.079597 118.994122 
L 243.725034 108.276879 
L 244.37047 135.937905 
L 245.015907 156.045666 
L 245.661343 137.027666 
L 246.306779 123.778096 
L 246.952216 168.565062 
L 247.597652 182.69895 
L 248.243089 192.867148 
L 248.888525 210.401266 
L 249.533962 221.623976 
L 250.179398 230.13836 
L 250.824835 229.187645 
L 251.470271 213.189472 
L 252.761144 207.518739 
L 253.406581 180.007715 
L 254.052017 161.355528 
L 254.697454 170.835504 
L 255.34289 145.286273 
L 255.988327 184.930592 
L 256.633763 196.181651 
L 257.2792 222.105595 
L 257.924636 228.301372 
L 258.570072 217.289777 
L 259.215509 213.250319 
L 259.860945 203.277778 
L 260.506382 200.201404 
L 261.151818 195.593187 
L 261.797255 161.362393 
L 262.442691 141.492341 
L 263.088128 174.096357 
L 263.733564 161.144326 
L 265.669874 208.701937 
L 266.31531 192.755025 
L 266.960747 180.734651 
L 268.25162 124.109345 
L 268.897056 109.895105 
L 269.542492 125.873717 
L 270.187929 171.827818 
L 270.833365 186.762118 
L 271.478802 186.246947 
L 272.124238 154.146945 
L 272.769675 138.378155 
L 273.415111 128.142675 
L 274.060548 123.40127 
L 274.705984 86.655121 
L 275.351421 98.227566 
L 275.996857 124.570554 
L 276.642294 90.549509 
L 277.28773 83.355116 
L 277.933167 106.550627 
L 278.578603 103.126022 
L 279.22404 126.762363 
L 279.869476 128.913075 
L 280.514913 114.84541 
L 281.160349 87.245165 
L 282.451222 44.621833 
L 283.096658 46.355441 
L 283.742095 41.38313 
L 284.387531 32.86409 
L 285.032968 30.293736 
L 285.678404 28.610464 
L 286.323841 23.91391 
L 286.969277 32.582911 
L 288.26015 54.590211 
L 288.905587 53.484276 
L 289.551023 70.028213 
L 290.19646 96.595498 
L 290.841896 115.026166 
L 291.487333 124.464574 
L 292.132769 125.258198 
L 292.778205 140.490891 
L 293.423642 142.26844 
L 294.714515 98.090046 
L 296.005388 50.132748 
L 296.650824 65.102677 
L 297.296261 52.846127 
L 297.941697 34.523137 
L 299.23257 51.50859 
L 299.878007 111.251386 
L 300.523443 119.680293 
L 301.16888 120.756488 
L 301.814316 135.848171 
L 302.459753 158.222221 
L 303.750625 219.620685 
L 304.396062 235.208942 
L 305.041498 235.099039 
L 305.686935 220.003049 
L 306.332371 219.844775 
L 306.977808 203.969468 
L 307.623244 202.820313 
L 308.268681 202.471314 
L 308.914117 198.925629 
L 309.559554 181.018429 
L 310.20499 170.912704 
L 310.850427 168.192195 
L 311.495863 170.512163 
L 312.1413 184.962941 
L 312.786736 179.149265 
L 313.432173 153.070433 
L 314.077609 147.774536 
L 314.723046 155.868532 
L 315.368482 178.95368 
L 316.013918 163.928685 
L 316.659355 140.464557 
L 317.304791 142.434269 
L 317.950228 141.751167 
L 318.595664 143.53646 
L 319.241101 137.539434 
L 319.886537 139.24014 
L 320.531974 147.97694 
L 321.17741 144.565205 
L 322.468283 168.395345 
L 323.11372 191.992733 
L 323.759156 193.431539 
L 324.404593 193.881422 
L 325.050029 197.859097 
L 325.695466 190.167161 
L 326.340902 190.230003 
L 326.986338 213.930546 
L 327.631775 196.800775 
L 328.277211 162.205973 
L 328.922648 154.243769 
L 330.213521 191.374565 
L 330.858957 197.536386 
L 331.504394 205.017744 
L 332.14983 211.01659 
L 332.795267 194.270188 
L 333.440703 185.254587 
L 334.08614 200.403772 
L 334.731576 199.217515 
L 335.377013 176.894077 
L 336.022449 167.989996 
L 337.313322 181.208761 
L 337.958759 178.541031 
L 338.604195 167.363204 
L 339.249631 163.453235 
L 339.895068 170.474545 
L 340.540504 175.425965 
L 341.185941 185.039799 
L 341.831377 191.102368 
L 342.476814 194.579313 
L 343.12225 201.302705 
L 343.767687 215.047099 
L 344.413123 225.924638 
L 345.05856 229.974368 
L 345.703996 211.351113 
L 346.349433 210.224383 
L 346.994869 214.568833 
L 347.640306 209.079147 
L 348.285742 209.548632 
L 348.931179 221.148393 
L 349.576615 224.49857 
L 350.222051 224.243882 
L 350.867488 222.78439 
L 351.512924 218.894617 
L 352.158361 213.760359 
L 352.803797 210.609491 
L 353.449234 215.220777 
L 354.09467 222.852751 
L 355.385543 204.313101 
L 356.03098 207.563012 
L 356.676416 217.226107 
L 357.967289 229.746357 
L 358.612726 233.142715 
L 359.258162 234.758747 
L 359.903599 237.732075 
L 360.549035 233.369135 
L 361.194472 223.330969 
L 361.839908 202.539358 
L 362.485344 191.772103 
L 363.130781 192.048255 
L 363.776217 206.873941 
L 364.421654 215.717645 
L 365.06709 214.731409 
L 365.712527 208.126446 
L 367.0034 237.529738 
L 367.648836 243.19597 
L 368.294273 247.100225 
L 368.939709 250.071555 
L 369.585146 251.656434 
L 370.230582 252.630507 
L 370.230582 252.630507 
" clip-path="url(#p36a706fc11)" style="fill: none; stroke-dasharray: 3.7,1.6; stroke-dashoffset: 0; stroke: #ff0000"/>
   </g>
   <g id="patch_3">
    <path d="M 29.343309 269.712 
L 29.343309 3.6 
" style="fill: none; stroke: #000000; stroke-width: 0.5; stroke-linejoin: miter; stroke-linecap: square"/>
   </g>
   <g id="patch_4">
    <path d="M 386.463309 269.712 
L 386.463309 3.6 
" style="fill: none; stroke: #000000; stroke-width: 0.5; stroke-linejoin: miter; stroke-linecap: square"/>
   </g>
   <g id="patch_5">
    <path d="M 29.343309 269.712 
L 386.463309 269.712 
" style="fill: none; stroke: #000000; stroke-width: 0.5; stroke-linejoin: miter; stroke-linecap: square"/>
   </g>
   <g id="patch_6">
    <path d="M 29.343309 3.6 
L 386.463309 3.6 
" style="fill: none; stroke: #000000; stroke-width: 0.5; stroke-linejoin: miter; stroke-linecap: square"/>
   </g>
   <g id="legend_1">
    <g id="line2d_121">
     <path d="M 317.236322 13.6 
L 325.236322 13.6 
L 333.236322 13.6 
" style="fill: none; stroke: #000000; stroke-linecap: square"/>
    </g>
    <g id="text_15">
     <!-- DRP actual -->
     <g transform="translate(339.636322 16.4) scale(0.08 -0.08)">
      <defs>
       <path id="NimbusRomNo9L-Regu-44" d="M 666 679 
C 666 217 589 134 102 134 
L 102 0 
L 1920 0 
C 2662 0 3334 210 3731 568 
C 4147 944 4384 1512 4384 2131 
C 4384 2706 4192 3203 3840 3554 
C 3405 3994 2707 4224 1830 4224 
L 102 4224 
L 102 4102 
C 608 4057 666 4000 666 3525 
L 666 679 
z
M 1318 3738 
C 1318 3936 1389 3987 1651 3987 
C 2202 3987 2618 3885 2925 3668 
C 3424 3323 3686 2775 3686 2087 
C 3686 1334 3424 798 2906 498 
C 2579 314 2208 237 1651 237 
C 1395 237 1318 294 1318 498 
L 1318 3738 
z
" transform="scale(0.015625)"/>
       <path id="NimbusRomNo9L-Regu-52" d="M 4218 121 
C 3974 140 3846 205 3661 424 
L 2342 2061 
C 2771 2143 2963 2219 3174 2388 
C 3379 2553 3501 2818 3501 3113 
C 3501 3385 3418 3618 3251 3801 
C 3008 4059 2477 4224 1875 4224 
L 109 4224 
L 109 4102 
C 589 4051 653 3981 653 3528 
L 653 765 
C 653 236 589 159 109 121 
L 109 0 
L 1882 0 
L 1882 134 
C 1389 134 1306 219 1306 692 
L 1306 1984 
L 1664 1984 
L 3187 0 
L 4218 0 
L 4218 121 
z
M 1306 3762 
C 1306 3937 1376 3987 1632 3987 
C 2432 3987 2803 3716 2803 3123 
C 2803 2807 2669 2542 2438 2423 
C 2144 2258 1920 2221 1306 2221 
L 1306 3762 
z
" transform="scale(0.015625)"/>
       <path id="NimbusRomNo9L-Regu-50" d="M 1293 1875 
C 1459 1856 1568 1856 1734 1856 
C 2234 1856 2579 1919 2854 2072 
C 3238 2274 3469 2660 3469 3078 
C 3469 3344 3379 3584 3206 3768 
C 2950 4047 2394 4224 1792 4224 
L 102 4224 
L 102 4102 
C 576 4051 640 3987 640 3528 
L 640 766 
C 640 230 589 166 102 122 
L 102 0 
L 1894 0 
L 1894 128 
C 1389 128 1293 218 1293 693 
L 1293 1875 
z
M 1293 3772 
C 1293 3943 1338 3987 1510 3987 
C 2374 3987 2771 3690 2771 3040 
C 2771 2428 2394 2112 1658 2112 
C 1530 2112 1440 2119 1293 2131 
L 1293 3772 
z
" transform="scale(0.015625)"/>
       <path id="NimbusRomNo9L-Regu-63" d="M 2547 998 
C 2240 550 2010 397 1645 397 
C 1062 397 653 909 653 1645 
C 653 2304 1005 2758 1523 2758 
C 1754 2758 1837 2688 1901 2451 
L 1939 2310 
C 1990 2131 2106 2016 2240 2016 
C 2406 2016 2547 2138 2547 2285 
C 2547 2643 2099 2944 1562 2944 
C 1248 2944 922 2816 659 2586 
C 339 2304 160 1869 160 1363 
C 160 531 666 -64 1376 -64 
C 1664 -64 1920 38 2150 237 
C 2323 390 2445 563 2637 941 
L 2547 998 
z
" transform="scale(0.015625)"/>
       <path id="NimbusRomNo9L-Regu-75" d="M 3066 320 
L 3034 320 
C 2739 320 2669 390 2669 685 
L 2669 2880 
L 1658 2880 
L 1658 2758 
C 2054 2758 2131 2694 2131 2375 
L 2131 875 
C 2131 697 2099 607 2010 537 
C 1837 397 1638 320 1446 320 
C 1197 320 992 537 992 805 
L 992 2880 
L 58 2880 
L 58 2778 
C 365 2778 454 2682 454 2387 
L 454 770 
C 454 263 762 -64 1229 -64 
C 1466 -64 1715 38 1888 211 
L 2163 486 
L 2163 -45 
L 2189 -58 
C 2509 70 2739 141 3066 230 
L 3066 320 
z
" transform="scale(0.015625)"/>
      </defs>
      <use xlink:href="#NimbusRomNo9L-Regu-44" transform="scale(0.996264)"/>
      <use xlink:href="#NimbusRomNo9L-Regu-52" transform="translate(71.929985 0) scale(0.996264)"/>
      <use xlink:href="#NimbusRomNo9L-Regu-50" transform="translate(138.380016 0) scale(0.996264)"/>
      <use xlink:href="#NimbusRomNo9L-Regu-61" transform="translate(218.678293 0) scale(0.996264)"/>
      <use xlink:href="#NimbusRomNo9L-Regu-63" transform="translate(262.911862 0) scale(0.996264)"/>
      <use xlink:href="#NimbusRomNo9L-Regu-74" transform="translate(307.145431 0) scale(0.996264)"/>
      <use xlink:href="#NimbusRomNo9L-Regu-75" transform="translate(334.8406 0) scale(0.996264)"/>
      <use xlink:href="#NimbusRomNo9L-Regu-61" transform="translate(384.653801 0) scale(0.996264)"/>
      <use xlink:href="#NimbusRomNo9L-Regu-6c" transform="translate(428.887369 0) scale(0.996264)"/>
     </g>
    </g>
    <g id="line2d_122">
     <path d="M 317.236322 24.925463 
L 325.236322 24.925463 
L 333.236322 24.925463 
" style="fill: none; stroke-dasharray: 3.7,1.6; stroke-dashoffset: 0; stroke: #ff0000"/>
    </g>
    <g id="text_16">
     <!-- DRP predict -->
     <g transform="translate(339.636322 27.725463) scale(0.08 -0.08)">
      <defs>
       <path id="NimbusRomNo9L-Regu-65" d="M 2611 1053 
C 2304 564 2029 378 1619 378 
C 1254 378 979 564 794 930 
C 678 1174 634 1386 621 1779 
L 2592 1779 
C 2541 2193 2477 2377 2317 2581 
C 2125 2811 1830 2944 1498 2944 
C 1178 2944 877 2829 634 2611 
C 333 2349 160 1894 160 1370 
C 160 486 621 -64 1357 -64 
C 1965 -64 2445 315 2714 1008 
L 2611 1053 
z
M 634 1984 
C 704 2479 922 2714 1312 2714 
C 1702 2714 1856 2535 1939 1984 
L 634 1984 
z
" transform="scale(0.015625)"/>
      </defs>
      <use xlink:href="#NimbusRomNo9L-Regu-44" transform="scale(0.996264)"/>
      <use xlink:href="#NimbusRomNo9L-Regu-52" transform="translate(71.929985 0) scale(0.996264)"/>
      <use xlink:href="#NimbusRomNo9L-Regu-50" transform="translate(138.380016 0) scale(0.996264)"/>
      <use xlink:href="#NimbusRomNo9L-Regu-70" transform="translate(218.678293 0) scale(0.996264)"/>
      <use xlink:href="#NimbusRomNo9L-Regu-72" transform="translate(268.491494 0) scale(0.996264)"/>
      <use xlink:href="#NimbusRomNo9L-Regu-65" transform="translate(301.666723 0) scale(0.996264)"/>
      <use xlink:href="#NimbusRomNo9L-Regu-64" transform="translate(345.900292 0) scale(0.996264)"/>
      <use xlink:href="#NimbusRomNo9L-Regu-69" transform="translate(395.713493 0) scale(0.996264)"/>
      <use xlink:href="#NimbusRomNo9L-Regu-63" transform="translate(423.408662 0) scale(0.996264)"/>
      <use xlink:href="#NimbusRomNo9L-Regu-74" transform="translate(467.642231 0) scale(0.996264)"/>
     </g>
    </g>
   </g>
  </g>
 </g>
 <defs>
  <clipPath id="p36a706fc11">
   <rect x="29.343309" y="3.6" width="357.12" height="266.112"/>
  </clipPath>
 </defs>
</svg>
